<svg width="22" height="22" viewBox="0 0 22 22" fill="none" xmlns="http://www.w3.org/2000/svg">
<path fill-rule="evenodd" clip-rule="evenodd" d="M5.32312 0C4.20397 0 3.18087 0.639394 2.68036 1.6516L0.311948 6.44147C-0.180585 7.43756 -0.0843706 8.62799 0.56158 9.53001L8.60688 20.7646C9.78651 22.4118 12.2135 22.4118 13.3931 20.7646L21.4384 9.53001C22.0843 8.62799 22.1806 7.43757 21.6881 6.44147L19.3196 1.6516C18.8191 0.639394 17.7961 0 16.6769 0H5.32312ZM4.44221 2.54239C4.60904 2.20498 4.95007 1.99185 5.32312 1.99185H7.72451L6.31751 6.97148H2.25218L4.44221 2.54239ZM8.36613 6.97148L9.77312 1.99185H12.2269L13.6339 6.97148H8.36613ZM13.606 8.96333H8.39393L11 17.5279L13.606 8.96333ZM12.8999 18.0573L15.667 8.96333H19.4122L12.8999 18.0573ZM15.6825 6.97148L14.2755 1.99185H16.6769C17.0499 1.99185 17.391 2.20498 17.5579 2.54239L19.7479 6.97148H15.6825ZM2.58779 8.96333H6.33299L9.10014 18.0573L2.58779 8.96333Z" fill="#F9FAFB"/>
</svg>
