<svg width="23" height="22" viewBox="0 0 23 22" fill="none" xmlns="http://www.w3.org/2000/svg">
<path d="M22.8488 20.0639C21.3888 17.5233 19.1091 15.5436 16.3765 14.4437C17.7354 13.4332 18.7391 12.0244 19.2456 10.4169C19.7521 8.80932 19.7356 7.08452 19.1984 5.48679C18.6613 3.88905 17.6307 2.49939 16.2528 1.51465C14.8748 0.529903 13.2193 0 11.5208 0C9.82218 0 8.16667 0.529903 6.78871 1.51465C5.41076 2.49939 4.38023 3.88905 3.84309 5.48679C3.30595 7.08452 3.28945 8.80932 3.79591 10.4169C4.30237 12.0244 5.30612 13.4332 6.66497 14.4437C3.93245 15.5436 1.6527 17.5233 0.192729 20.0639C0.102264 20.2081 0.0419692 20.3689 0.0154295 20.5367C-0.0111101 20.7045 -0.00335294 20.8759 0.03824 21.0406C0.079833 21.2054 0.154413 21.3602 0.257545 21.4958C0.360678 21.6314 0.490258 21.7451 0.638582 21.8301C0.786906 21.915 0.950945 21.9696 1.12095 21.9904C1.29095 22.0113 1.46345 21.998 1.62819 21.9514C1.79292 21.9049 1.94653 21.8259 2.07989 21.7193C2.21324 21.6127 2.32362 21.4806 2.40445 21.3309C4.33399 18.024 7.74155 16.0517 11.5208 16.0517C15.3 16.0517 18.7075 18.0251 20.6371 21.3309C20.8122 21.6102 21.0901 21.811 21.4119 21.8909C21.7337 21.9707 22.0742 21.9234 22.3614 21.7588C22.6486 21.5943 22.8601 21.3255 22.951 21.0092C23.042 20.6928 23.0053 20.3539 22.8488 20.0639ZM5.98346 8.02746C5.98346 6.94158 6.30822 5.88008 6.91666 4.97721C7.52511 4.07433 8.38991 3.37063 9.40172 2.95508C10.4135 2.53953 11.5269 2.4308 12.601 2.64265C13.6752 2.85449 14.6618 3.37739 15.4362 4.14523C16.2106 4.91306 16.738 5.89134 16.9516 6.95635C17.1653 8.02137 17.0556 9.12528 16.6365 10.1285C16.2174 11.1317 15.5077 11.9892 14.5971 12.5925C13.6865 13.1958 12.6159 13.5178 11.5208 13.5178C10.0527 13.5161 8.64524 12.9371 7.60716 11.9078C6.56909 10.8786 5.98515 9.48306 5.98346 8.02746Z" fill="#F9FAFB"/>
</svg>
