<?xml version="1.0" encoding="UTF-8"?>
<svg id="Layer_5" xmlns="http://www.w3.org/2000/svg" xmlns:xlink="http://www.w3.org/1999/xlink" viewBox="0 0 3945 935">
  <defs>
    <style>
      .cls-1 {
        fill: url(#linear-gradient-2);
      }

      .cls-2 {
        fill: #fff;
      }

      .cls-3 {
        fill: url(#linear-gradient-4);
      }

      .cls-4 {
        fill: url(#linear-gradient-3);
      }

      .cls-5 {
        isolation: isolate;
      }

      .cls-6 {
        fill: url(#linear-gradient);
      }
    </style>
    <linearGradient id="linear-gradient" x1="1422.02" y1="2469.47" x2="338.07" y2="2469.47" gradientTransform="translate(0 2937.94) scale(1 -1)" gradientUnits="userSpaceOnUse">
      <stop offset="0" stop-color="#939598"/>
      <stop offset=".22" stop-color="#e2e2e0"/>
      <stop offset=".49" stop-color="#f1f2f2"/>
      <stop offset=".78" stop-color="#e6e7e8"/>
      <stop offset="1" stop-color="#bcbec0"/>
    </linearGradient>
    <linearGradient id="linear-gradient-2" x1="57.37" y1="3102.72" x2="1453.22" y2="2186.87" gradientTransform="translate(0 2937.94) scale(1 -1)" gradientUnits="userSpaceOnUse">
      <stop offset="0" stop-color="#ea3ac1"/>
      <stop offset="1" stop-color="#6700cc"/>
    </linearGradient>
    <linearGradient id="linear-gradient-3" x1="-108.14" y1="2850.48" x2="1287.71" y2="1934.63" xlink:href="#linear-gradient-2"/>
    <linearGradient id="linear-gradient-4" x1="-30.49" y1="2968.82" x2="1365.35" y2="2052.97" xlink:href="#linear-gradient-2"/>
  </defs>
  <g>
    <g class="cls-5">
      <path class="cls-2" d="M1654.07,343.7h88.38l-139.59,233.55c-3.29,3.55-6.83,6.33-10.62,8.35-3.79,2.03-7.59,3.61-11.38,4.75-3.79,1.14-7.46,1.84-11,2.09-3.54.26-6.83.38-9.86.38s-6.32-.12-9.86-.38c-3.54-.25-7.21-.95-11-2.09-3.79-1.14-7.59-2.72-11.38-4.75-3.79-2.02-7.34-4.81-10.62-8.35l-139.59-233.55h88.38l94.07,158.36,94.07-158.36Z"/>
    </g>
    <path class="cls-2" d="M1919.98,560.54h-148.32l-19.35,32.28h-88.76l139.59-233.55c6.83-6.84,14.16-11.14,22-12.91,7.84-1.77,14.79-2.66,20.86-2.66s13.02.89,20.86,2.66c7.84,1.77,15.17,6.08,22,12.91l139.59,233.55h-88.76l-19.73-32.28ZM1813.01,489.9h65.62l-32.62-55.07-33,55.07Z"/>
    <path class="cls-2" d="M2126.32,519.91h210.52v72.91h-284.87v-249.12h74.35v176.21Z"/>
    <path class="cls-2" d="M2649.03,343.7v187.98c0,9.37-1.77,17.79-5.31,25.25-3.54,7.47-8.22,13.86-14.04,19.18-5.82,5.32-12.58,9.43-20.29,12.34-7.72,2.91-15.74,4.37-24.09,4.37h-221.15v-72.53h198.01c3.04-.5,5.88-1.83,8.54-3.99,2.66-2.15,3.98-4.37,3.98-6.65v-165.96h74.35Z"/>
    <path class="cls-2" d="M2750.69,343.7v165.96c0,2.28,1.33,4.5,3.98,6.65,2.66,2.15,5.5,3.48,8.54,3.99h141.11v-176.59h74.35v249.12h-238.59c-8.34,0-16.38-1.45-24.09-4.37-7.72-2.91-14.48-7.03-20.29-12.34-5.82-5.32-10.5-11.71-14.04-19.18-3.54-7.46-5.31-15.88-5.31-25.25v-187.98h74.35Z"/>
    <path class="cls-2" d="M3005.97,343.7h238.59c8.34,0,16.37,1.46,24.09,4.37,7.71,2.91,14.47,7.03,20.29,12.34,5.81,5.32,10.49,11.71,14.04,19.18,3.54,7.47,5.31,15.89,5.31,25.25v31.14c0,2.28-.44,5-1.33,8.17-.89,3.17-2.03,6.27-3.41,9.3-1.39,3.04-3.1,5.89-5.12,8.54-2.03,2.66-4.17,4.75-6.45,6.27,2.53,1.77,4.87,3.99,7.02,6.65,2.15,2.66,3.85,5.51,5.12,8.54,1.26,3.04,2.28,6.08,3.03,9.11.76,3.04,1.14,5.7,1.14,7.97v31.14c0,9.37-1.77,17.79-5.31,25.25-3.54,7.47-8.22,13.86-14.04,19.18-5.82,5.32-12.58,9.43-20.29,12.34-7.72,2.91-15.74,4.37-24.09,4.37h-238.59v-249.12ZM3080.32,416.23v15.57h147.56c4.04-1.01,6.07-3.67,6.07-7.98-.25-2.02-.7-3.67-1.33-4.94-.63-1.26-2.09-2.15-4.36-2.66h-147.94ZM3227.87,520.29c2.28-.5,3.85-1.58,4.74-3.23.88-1.64,1.33-3.23,1.33-4.75,0-3.8-1.9-6.33-5.69-7.6h-147.94v15.57h147.56Z"/>
    <path class="cls-2" d="M3587.84,504.34h-177.9v15.95h220.39v72.53h-294.73v-249.12h294.73v72.54h-220.39v15.95h177.9v72.16Z"/>
    <path class="cls-2" d="M3731.99,519.91h210.52v72.91h-284.87v-249.12h74.35v176.21Z"/>
  </g>
  <polygon class="cls-6" points="967.89 291.3 1102.62 291.3 849.31 644.43 601.31 644.43 492.64 821.91 956.32 822.05 1442.26 114.87 1089.32 114.87 967.89 291.3"/>
  <path class="cls-1" d="M368.45,117.05c1.06-1.57,3.95-2,5.73-2.02,3.08-.05,6.21,0,9.29,0,117.48,0,237.4-.18,354.87-.14,3.42,0,8.88.12,12.3.28,1.35.06.09,1.87-.71,3.1-2.24,3.44-7.01,8.6-9.29,12-9.51,14.21-18.94,28.43-28.51,42.59-13,19.24-26.04,38.46-39.11,57.67-13.07,19.21-26.1,38.45-39.08,57.72-1.36,2.03-2.59,4-4.83,5.13l-130.27-.08c-2.71,0-5.47-.08-8.21,0-2.09.1-4.06-.96-5.11-2.77-3.05-4.51-6.12-9.06-9.18-13.59-34.08-50.41-68.16-100.81-102.24-151.23-1.52-2.25-4.23-6.34-5.66-8.67Z"/>
  <path class="cls-4" d="M336.43,599.86c-3.73-2.44-5.2-5.65-7.11-8.43C225.59,440.64,121.87,289.82,18.16,139c-5.05-7.34-10.12-14.67-15.07-22.08-2.28-3.42-1.54-4.55,2.85-4.66,2.4-.05,4.81,0,7.22,0,80.92,0,161.84,0,242.75,0,13.14,0,9.73-1.95,17.14,9.14,62.27,93.2,124.47,186.43,186.62,279.7,7.68,11.52,7.5,8.35,0,19.36-38.91,56.85-77.87,113.67-116.88,170.46-1.94,2.82-3.95,5.57-6.35,8.95Z"/>
  <path class="cls-3" d="M795.37,380.07c3.89-5.69,7.72-11.28,11.56-16.88,14.33-20.88,28.67-41.76,43.02-62.62,2.08-3.01,3.61-6.75,7.82-7.63-.22-2.39.42-4.78,1.8-6.74,9.63-13.66,19.16-27.39,28.69-41.12,2.71-3.92,5.31-7.95,8.01-11.89,11.15-16.35,22.24-32.74,33.49-49.03,7.56-10.93,15.46-21.65,23.01-32.59,7.16-10.38,14.1-20.92,21.04-31.45.7-1.06.75-2.56,1.1-3.86-2.97-1.24-6.1-.72-9.15-.73-72.07-.14-142.01-.32-214.09-.39h-1.07l-3.16,4.91c-2.24,3.44-4.56,6.82-6.85,10.22-9.51,14.21-18.94,28.43-28.51,42.59-13,19.24-26.04,38.46-39.11,57.67-13.07,19.21-26.1,38.45-39.08,57.72-1.36,2.03-2.59,4-4.83,5.13-.9,4.93-4.35,8.46-6.93,12.42-77.39,118.78-154.84,237.54-232.37,356.29-1.31,2-2.55,4.07-3.93,6.02-1.38,1.95-1.66,3.69-.24,5.65.8,1.11,1.56,2.25,2.35,3.37,32.72,47.36,65.45,94.7,98.19,142.01,1.11,1.6,1.91,3.71,4.71,3.73,1.87-2.71,3.86-5.41,5.79-8.24,55.88-81.31,111.78-162.61,167.69-243.89,2.49-3.61,4.3-7.86,8.29-10.31.14-1.71.76-3.34,1.8-4.7,5.87-8.41,11.64-16.88,17.49-25.32,13.24-19.1,26.59-38.14,39.75-57.31,18.19-26.5,36.13-53.17,54.42-79.59l9.3-13.46Z"/>
</svg>