<?xml version="1.0" encoding="UTF-8"?>
<svg id="Layer_2" xmlns="http://www.w3.org/2000/svg" xmlns:xlink="http://www.w3.org/1999/xlink" viewBox="0 0 3945 935">
  <defs>
    <style>
      .cls-1 {
        fill: url(#linear-gradient-2);
      }

      .cls-2 {
        fill: #fff;
      }

      .cls-3 {
        fill: url(#linear-gradient-4);
      }

      .cls-4 {
        fill: url(#linear-gradient-3);
      }

      .cls-5 {
        isolation: isolate;
      }

      .cls-6 {
        fill: url(#linear-gradient);
      }
    </style>
    <linearGradient id="linear-gradient" x1="942.53" y1="-1871.07" x2="330.2" y2="-919.18" gradientTransform="translate(0 -1169.19) scale(1 -1)" gradientUnits="userSpaceOnUse">
      <stop offset="0" stop-color="#ae742a"/>
      <stop offset=".22" stop-color="#d6a928"/>
      <stop offset=".49" stop-color="#fdc200"/>
      <stop offset=".78" stop-color="#d6a928"/>
      <stop offset="1" stop-color="#ae742a"/>
    </linearGradient>
    <linearGradient id="linear-gradient-2" x1="611.47" y1="-2149.86" x2="1458.41" y2="-933.34" gradientTransform="translate(0 -1169.19) scale(1 -1)" gradientUnits="userSpaceOnUse">
      <stop offset="0" stop-color="#939598"/>
      <stop offset=".22" stop-color="#e2e2e0"/>
      <stop offset=".49" stop-color="#f1f2f2"/>
      <stop offset=".78" stop-color="#e6e7e8"/>
      <stop offset="1" stop-color="#bcbec0"/>
    </linearGradient>
    <linearGradient id="linear-gradient-3" x1="643.1" y1="-2063.68" x2="30.77" y2="-1111.8" xlink:href="#linear-gradient"/>
    <linearGradient id="linear-gradient-4" x1="900.59" y1="-1898.04" x2="288.26" y2="-946.16" xlink:href="#linear-gradient"/>
  </defs>
  <g class="cls-5">
    <g class="cls-5">
      <path class="cls-2" d="M1780.28,316.17h108.16l-170.83,285.48c-4.03,4.34-8.36,7.74-13,10.21-4.64,2.48-9.28,4.41-13.93,5.8s-9.13,2.25-13.46,2.55c-4.34.31-8.36.46-12.07.46s-7.74-.15-12.07-.46c-4.34-.3-8.82-1.16-13.46-2.55-4.64-1.39-9.29-3.32-13.93-5.8-4.64-2.47-8.98-5.88-13-10.21l-170.83-285.48h108.16l115.12,193.57,115.12-193.57Z"/>
    </g>
    <g class="cls-5">
      <path class="cls-2" d="M2105.68,581.23h-181.5l-23.67,39.46h-108.62l170.83-285.48c8.36-8.36,17.33-13.61,26.92-15.78,9.59-2.16,18.1-3.25,25.53-3.25s15.94,1.09,25.53,3.25c9.59,2.17,18.57,7.43,26.92,15.78l170.83,285.48h-108.62l-24.14-39.46ZM1974.78,494.88h80.31l-39.92-67.31-40.38,67.31Z"/>
      <path class="cls-2" d="M2358.21,531.56h257.63v89.13h-348.61v-304.51h90.98v215.39Z"/>
      <path class="cls-2" d="M2997.87,316.17v229.78c0,11.45-2.17,21.75-6.5,30.87-4.34,9.13-10.06,16.94-17.18,23.44-7.12,6.5-15.4,11.53-24.83,15.09-9.44,3.56-19.26,5.34-29.48,5.34h-270.63v-88.66h242.31c3.71-.62,7.2-2.24,10.45-4.87,3.25-2.63,4.87-5.34,4.87-8.12v-202.86h90.98Z"/>
      <path class="cls-2" d="M3037.79,360.03c4.33-9.12,10.05-16.94,17.18-23.44,7.12-6.5,15.39-11.53,24.83-15.09,9.44-3.55,19.26-5.34,29.48-5.34h222.82c10.21,0,20.03,1.78,29.48,5.34,9.44,3.56,17.71,8.59,24.83,15.09,7.12,6.5,12.84,14.32,17.18,23.44,4.33,9.13,6.5,19.42,6.5,30.87v155.04c0,11.45-2.17,21.75-6.5,30.87-4.34,9.13-10.06,16.94-17.18,23.44-7.12,6.5-15.4,11.53-24.83,15.09-9.44,3.56-19.26,5.34-29.48,5.34h-222.82c-10.21,0-20.04-1.78-29.48-5.34-9.44-3.55-17.72-8.59-24.83-15.09-7.12-6.5-12.85-14.31-17.18-23.44-4.34-9.12-6.5-19.42-6.5-30.87v-155.04c0-11.45,2.16-21.74,6.5-30.87ZM3127.61,409.47c-2.94,2.48-4.72,4.95-5.34,7.43v102.12c0,2.79,1.62,5.5,4.87,8.12,3.25,2.63,6.73,4.26,10.44,4.87h166.18c3.71-.62,7.19-2.24,10.44-4.87,3.25-2.63,4.87-5.34,4.87-8.12v-102.12c-.62-2.47-2.4-4.95-5.34-7.43-2.94-2.47-6.27-4.02-9.98-4.64h-166.18c-3.71.62-7.04,2.17-9.98,4.64Z"/>
      <path class="cls-2" d="M3661.67,468.43l161.08,152.26h-118.83l-118.37-107.23h-51.53v107.23h-90.52v-304.51h90.52v107.23h51.53l118.37-107.23h118.83l-161.08,152.26Z"/>
      <path class="cls-2" d="M3851.99,316.17h90.98v304.51h-90.98v-304.51Z"/>
    </g>
  </g>
  <g>
    <path class="cls-6" d="M371.24,114.31c1.06-1.58,3.97-2.01,5.77-2.03h9.36c118.36,0,239.2-.18,357.57-.14,3.44,0,8.96.11,12.39.28,1.36.06.09,1.85-.72,3.12-2.26,3.47-7.06,8.67-9.35,12.1-9.58,14.31-19.11,28.65-28.74,42.91-13.09,19.39-26.22,38.76-39.4,58.1-13.18,19.34-26.31,38.72-39.37,58.12-1.38,2.05-2.61,4.04-4.86,5.18l-131.3-.05c-2.77,0-5.55-.09-8.26,0-2.1.11-4.09-.96-5.15-2.77-3.08-4.57-6.16-9.13-9.24-13.69-34.35-50.82-68.7-101.61-103.03-152.39-1.53-2.27-4.23-6.4-5.66-8.74Z"/>
    <polygon class="cls-1" points="861.07 290.13 1099.58 290.13 843.99 646.77 735.8 646.77 612.88 825.49 951.96 825.64 1442.26 112.13 983.59 112.13 861.07 290.13"/>
    <path class="cls-4" d="M338.98,600.8c-3.77-2.46-5.23-5.69-7.16-8.49C227.3,440.36,122.8,288.4,18.32,136.43c-5.08-7.39-10.17-14.79-15.19-22.25-2.3-3.45-1.55-4.62,2.87-4.7,2.42-.06,4.83,0,7.26,0,81.53,0,163.07,0,244.6,0,13.24,0,9.8-1.96,17.27,9.24,62.73,93.9,125.4,187.83,188.03,281.82,7.74,11.6,7.57,8.41,0,19.5-39.21,57.31-78.47,114.56-117.77,171.76-1.96,2.81-3.99,5.58-6.41,8.98Z"/>
    <path class="cls-3" d="M801.39,379.33c3.93-5.73,7.78-11.37,11.66-17.01,14.44-21.04,28.89-42.07,43.35-63.09,2.11-3.04,3.63-6.8,7.88-7.69-.21-2.41.44-4.82,1.85-6.79,9.71-13.77,19.34-27.57,28.91-41.43,2.77-3.96,5.35-8,8.06-12.02,11.24-16.48,22.41-32.99,33.76-49.39,7.62-11.03,15.56-21.81,23.18-32.84,7.21-10.46,14.21-21.07,21.19-31.68.71-1.08.76-2.59,1.12-3.89-2.99-1.25-6.15-.73-9.24-.74-72.63-.15-143.09-.32-215.72-.39h-1.07l-3.18,4.94c-2.26,3.47-4.62,6.88-6.9,10.31-9.58,14.31-19.11,28.65-28.74,42.91-13.09,19.39-26.22,38.76-39.4,58.1-13.18,19.34-26.31,38.72-39.37,58.12-1.38,2.05-2.61,4.04-4.86,5.18-.92,4.97-4.38,8.53-6.98,12.51-78,119.73-156.06,239.42-234.17,359.07-1.31,2.02-2.57,4.09-3.97,6.06s-1.67,3.7-.24,5.68c.8,1.12,1.58,2.26,2.37,3.4,32.97,47.7,65.94,95.4,98.9,143.09,1.12,1.61,1.93,3.7,4.75,3.75,1.85-2.67,3.88-5.46,5.83-8.32,56.31-81.92,112.62-163.83,168.95-245.74,2.51-3.7,4.33-7.92,8.32-10.38.14-1.73.78-3.37,1.85-4.74,5.92-8.48,11.73-17.02,17.62-25.5,13.35-19.25,26.8-38.44,40.05-57.75,18.33-26.69,36.41-53.61,54.84-80.19l9.41-13.54Z"/>
  </g>
</svg>