<?xml version="1.0" encoding="UTF-8"?>
<svg id="Layer_4" xmlns="http://www.w3.org/2000/svg" xmlns:xlink="http://www.w3.org/1999/xlink" viewBox="0 0 3945 935">
  <defs>
    <style>
      .cls-1 {
        fill: url(#linear-gradient-2);
      }

      .cls-2 {
        fill: #fff;
      }

      .cls-3 {
        fill: url(#radial-gradient);
      }

      .cls-4 {
        fill: url(#radial-gradient-3);
      }

      .cls-5 {
        isolation: isolate;
      }

      .cls-6 {
        fill: url(#radial-gradient-2);
      }

      .cls-7 {
        fill: url(#linear-gradient);
      }
    </style>
    <linearGradient id="linear-gradient" x1="1479.23" y1="-3819.01" x2="688.2" y2="-3819.01" gradientTransform="translate(0 -3216.5) scale(1 -1)" gradientUnits="userSpaceOnUse">
      <stop offset="0" stop-color="#939598"/>
      <stop offset=".22" stop-color="#e2e2e0"/>
      <stop offset=".49" stop-color="#f1f2f2"/>
      <stop offset=".78" stop-color="#e6e7e8"/>
      <stop offset="1" stop-color="#bcbec0"/>
    </linearGradient>
    <linearGradient id="linear-gradient-2" x1="1492.37" y1="-3419.26" x2="689.83" y2="-3419.26" xlink:href="#linear-gradient"/>
    <radialGradient id="radial-gradient" cx="-325.04" cy="-3197.2" fx="-325.04" fy="-3197.2" r="3083.3" gradientTransform="translate(0 -3216.5) scale(1 -1)" gradientUnits="userSpaceOnUse">
      <stop offset=".05" stop-color="#fff"/>
      <stop offset=".09" stop-color="#ff9b9b"/>
      <stop offset=".13" stop-color="#ff2c2c"/>
      <stop offset=".15" stop-color="red"/>
      <stop offset=".2" stop-color="#e70000"/>
      <stop offset=".37" stop-color="#960000"/>
      <stop offset=".51" stop-color="#560000"/>
      <stop offset=".64" stop-color="#270000"/>
      <stop offset=".73" stop-color="#0b0000"/>
      <stop offset=".79" stop-color="#000"/>
    </radialGradient>
    <radialGradient id="radial-gradient-2" cx="-325.04" cy="-3197.2" fx="-325.04" fy="-3197.2" r="3083.3" gradientTransform="translate(0 -3216.5) scale(1 -1)" gradientUnits="userSpaceOnUse">
      <stop offset="0" stop-color="#fff"/>
      <stop offset=".06" stop-color="#ff9b9b"/>
      <stop offset=".12" stop-color="#ff2c2c"/>
      <stop offset=".15" stop-color="red"/>
      <stop offset=".2" stop-color="#e70000"/>
      <stop offset=".37" stop-color="#960000"/>
      <stop offset=".51" stop-color="#560000"/>
      <stop offset=".64" stop-color="#270000"/>
      <stop offset=".73" stop-color="#0b0000"/>
      <stop offset=".79" stop-color="#000"/>
    </radialGradient>
    <radialGradient id="radial-gradient-3" cx="-325.04" cy="-3197.2" fx="-325.04" fy="-3197.2" r="3083.3" xlink:href="#radial-gradient"/>
  </defs>
  <path class="cls-7" d="M1159.35,381.19c2.02,1.85,4.63,5.55,6.48,7.48,83.73,83.69,167.44,167.39,251.13,251.1,2.14,2.15,4.19,4.37,6,6.26.18,2.97-1.85,3.99-3.23,5.34-55.84,55.75-111.68,111.52-167.51,167.3-4.39,4.4-8.97,5.08-14.58,5.08-104.09-.08-208.18-.08-312.27,0-112.59,0-225.19.03-337.78.09-3.06,0-6.12,0-9.18-.09-1.02,0-1.86-.81-1.87-1.83,0-.33.08-.66.25-.94,1.46-2.29,3.01-4.52,4.57-6.74,37.52-53,75.06-105.99,112.62-158.98,7.11-10,3.61-8.33,16.45-8.33h423.23c.93-3.7-1.92-4.63-3.41-6.11-25.43-25.55-51.02-50.96-76.36-76.61-3.9-3.95-7.87-5.48-13.38-5.46-53.41.19-106.81.11-160.22.12h-194.91c-3.7,0-7.47-.19-11.2-.31.14-1.68.76-3.29,1.79-4.63,5.82-8.33,11.56-16.75,17.35-25.11,13.15-18.97,26.39-37.86,39.45-56.88,18.05-26.29,35.85-52.73,54-78.98,7.4-10.76,1.85-11.75,16.13-11.75,101.05,0,204.67.07,305.73.07,17.39,0,33.38-.1,50.73-.1Z"/>
  <path class="cls-1" d="M862.06,291.86c-.21-2.41.45-4.81,1.85-6.78,9.7-13.75,19.32-27.55,28.88-41.4,2.78-3.95,5.35-7.99,8.06-11.96,11.22-16.47,22.4-32.97,33.72-49.36,7.61-11.02,15.56-21.8,23.13-32.82,7.21-10.45,14.19-21.07,21.18-31.67.71-1.07.76-2.57,1.11-3.88,3.43-.23,6.86-.67,10.29-.67h474.3c3.29,0,6.68-.44,9.77.49.34,2.78-1.44,3.59-2.55,4.7-55.69,55.62-111.36,111.25-167.02,166.89-4.69,4.71-9.3,6.91-16.13,6.9-139.46-.2-278.92-.26-418.37-.16-2.71,0-5.49-.19-8.22-.3Z"/>
  <path class="cls-3" d="M370.69,115.12c1.06-1.58,3.97-2.02,5.75-2.04h9.34c118.13,0,238.69-.19,356.85-.14,3.44,0,8.94.11,12.37.28,1.36.06.09,1.85-.72,3.12-2.25,3.46-7.04,8.65-9.33,12.07-9.56,14.28-19.06,28.59-28.68,42.83-13.07,19.37-26.18,38.7-39.33,57.99-13.11,19.33-26.27,38.63-39.29,58.01-1.37,2.04-2.61,4.02-4.86,5.16l-131.03-.03c-2.78,0-5.55-.08-8.25,0-2.1.12-4.09-.95-5.13-2.78-3.08-4.56-6.17-9.12-9.25-13.66-34.26-50.72-68.53-101.42-102.81-152.1-1.52-2.27-4.2-6.38-5.62-8.71Z"/>
  <path class="cls-6" d="M338.49,600.63c-3.77-2.45-5.23-5.68-7.15-8.47C227.03,440.52,122.74,288.87,18.47,137.2c-5.08-7.4-10.18-14.76-15.15-22.2-2.3-3.44-1.55-4.58,2.87-4.69,2.41-.06,4.83,0,7.24,0h244.1c13.22,0,9.79-1.96,17.24,9.19,62.61,93.75,125.17,187.5,187.66,281.25,7.72,11.58,7.55,8.4,0,19.43-39.12,57.17-78.29,114.31-117.49,171.41-2.01,2.9-4.03,5.66-6.44,9.05Z"/>
  <path class="cls-4" d="M799.98,379.61l11.63-16.98c14.41-20.97,28.84-41.96,43.27-62.97,2.09-3.03,3.62-6.78,7.85-7.68-.21-2.41.45-4.81,1.85-6.77,9.69-13.73,19.32-27.51,28.89-41.35,2.78-3.95,5.35-7.98,8.05-11.95,11.21-16.44,22.37-32.93,33.68-49.29,7.6-11,15.53-21.77,23.13-32.78,7.2-10.44,14.18-21.03,21.16-31.62.7-1.07.76-2.58,1.11-3.88-2.99-1.25-6.13-.73-9.25-.74-72.48-.15-142.8-.32-215.28-.39h-1.08l-3.17,4.93c-2.25,3.45-4.63,6.86-6.88,10.28-9.56,14.28-19.06,28.59-28.68,42.83-13.07,19.37-26.18,38.7-39.33,57.99-13.11,19.33-26.27,38.63-39.29,58.01-1.37,2.04-2.61,4.02-4.86,5.16-.93,4.96-4.38,8.51-6.97,12.49-77.84,119.46-155.74,238.9-233.69,358.3-1.31,2.03-2.56,4.09-3.95,6.06s-1.67,3.7-.25,5.67c.8,1.12,1.57,2.27,2.36,3.4,32.9,47.6,65.82,95.2,98.74,142.8,1.12,1.61,1.92,3.7,4.74,3.7,1.85-2.66,3.88-5.46,5.83-8.28,56.19-81.76,112.4-163.51,168.61-245.25,2.51-3.65,4.33-7.9,8.33-10.36.15-1.72.79-3.37,1.85-4.74,5.89-8.46,11.7-16.98,17.58-25.45,13.32-19.21,26.75-38.36,39.98-57.63,18.29-26.64,36.33-53.46,54.72-80.04l9.33-13.48Z"/>
  <g class="cls-5">
    <path class="cls-2" d="M1674.95,343.78h94.89l-149.87,234.99c-3.53,3.57-7.33,6.37-11.4,8.41-4.07,2.04-8.15,3.63-12.22,4.78s-8.01,1.85-11.81,2.1c-3.81.26-7.33.38-10.59.38s-6.79-.12-10.59-.38c-3.81-.25-7.74-.96-11.81-2.1-4.07-1.15-8.15-2.73-12.22-4.78-4.07-2.04-7.88-4.84-11.4-8.41l-149.88-234.99h94.89l101,159.34,101-159.34Z"/>
  </g>
  <g class="cls-5">
    <path class="cls-2" d="M1960.44,561.96h-159.24l-20.77,32.48h-95.3l149.88-234.99c7.33-6.88,15.2-11.21,23.62-12.99,8.41-1.78,15.88-2.67,22.4-2.67s13.98.89,22.4,2.67c8.41,1.79,16.29,6.11,23.62,12.99l149.87,234.99h-95.3l-21.18-32.48ZM1845.59,490.89h70.46l-35.02-55.4-35.43,55.4Z"/>
    <path class="cls-2" d="M2181.99,521.08h226.03v73.36h-305.86v-250.66h79.82v177.29Z"/>
    <path class="cls-2" d="M2685.37,432.81c8.96,0,17.58,1.47,25.86,4.39,8.28,2.93,15.54,7.07,21.79,12.42,6.24,5.35,11.26,11.79,15.07,19.3,3.8,7.52,5.7,15.99,5.7,25.41v38.59c0,9.43-1.9,17.9-5.7,25.41-3.8,7.52-8.83,13.95-15.07,19.29-6.25,5.35-13.51,9.49-21.79,12.42-8.29,2.93-16.9,4.39-25.86,4.39h-248.03v-72.98h229.7c2.71-.51,4.48-1.65,5.29-3.44.81-1.78,1.36-3.44,1.63-4.97,0-3.82-2.31-6.37-6.92-7.64h-161.28c-8.96,0-17.58-1.46-25.86-4.39-8.29-2.93-15.55-7.07-21.79-12.42-6.25-5.35-11.27-11.78-15.07-19.29-3.81-7.51-5.7-15.98-5.7-25.41v-38.59c0-9.42,1.89-17.89,5.7-25.41,3.8-7.51,8.82-13.95,15.07-19.29,6.24-5.35,13.5-9.49,21.79-12.42,8.28-2.92,16.9-4.39,25.86-4.39h248.03v72.98h-229.7c-2.72.51-4.48,1.4-5.29,2.67-.81,1.28-1.36,3.06-1.63,5.35,0,4.08,2.3,6.75,6.92,8.03h161.28Z"/>
    <path class="cls-2" d="M3053.95,505.41h-191.01v16.05h236.62v72.98h-316.45v-250.66h316.45v72.98h-236.62v16.05h191.01v72.6Z"/>
  </g>
  <g class="cls-5">
    <path class="cls-2" d="M3320.71,504.26l13.85-20.63-89.6-139.85h93.27l41.95,67.63,41.95-67.63h93.26l-89.6,139.85,13.85,20.63,101.41-160.48h94.49l-149.88,234.99c-3.53,3.57-7.33,6.37-11.4,8.41-4.07,2.04-8.15,3.63-12.22,4.78s-8.01,1.85-11.81,2.1c-3.8.26-7.33.38-10.59.38s-6.79-.12-10.59-.38c-3.81-.25-7.74-.96-11.81-2.1-4.07-1.15-8.15-2.73-12.22-4.78-4.07-2.04-7.88-4.84-11.4-8.41l-13.44-21.02-13.44,21.02c-3.53,3.57-7.33,6.37-11.4,8.41-4.07,2.04-8.14,3.63-12.22,4.78s-8.01,1.85-11.81,2.1c-3.81.26-7.33.38-10.59.38s-6.79-.12-10.59-.38c-3.81-.25-7.74-.96-11.81-2.1-4.07-1.15-8.14-2.73-12.22-4.78-4.07-2.04-7.88-4.84-11.4-8.41l-149.88-234.99h94.49l101.41,160.48Z"/>
  </g>
  <g class="cls-5">
    <path class="cls-2" d="M3826.13,561.96h-159.24l-20.77,32.48h-95.3l149.88-234.99c7.33-6.88,15.2-11.21,23.62-12.99,8.41-1.78,15.88-2.67,22.4-2.67s13.98.89,22.4,2.67c8.41,1.79,16.29,6.11,23.62,12.99l149.87,234.99h-95.3l-21.18-32.48ZM3711.28,490.89h70.46l-35.02-55.4-35.43,55.4Z"/>
  </g>
</svg>