<svg width="242" height="246" viewBox="0 0 242 246" fill="none" xmlns="http://www.w3.org/2000/svg">
<path d="M121 0H117.968C89.0787 0 62.3763 15.3862 47.889 40.3802L0 123L47.889 205.62C62.3763 230.614 89.0787 246 117.968 246H121V0Z" fill="#484D50"/>
<path d="M121 0H124.032C152.921 0 179.624 15.3862 194.111 40.3802L242 123L194.111 205.62C179.624 230.614 152.921 246 124.032 246H121V0Z" fill="#555654"/>
<mask id="mask0_41_2153" style="mask-type:alpha" maskUnits="userSpaceOnUse" x="50" y="52" width="142" height="142">
<path d="M50 123L82.1274 68.6893C88.2465 58.3451 99.3722 52 111.391 52H130.609C142.628 52 153.753 58.3451 159.873 68.6893L192 123L159.873 177.311C153.753 187.655 142.628 194 130.609 194H111.391C99.3722 194 88.2465 187.655 82.1274 177.311L50 123Z" fill="#286C7B"/>
</mask>
<g mask="url(#mask0_41_2153)">
<path d="M197 123C197 132.98 195.034 142.863 191.215 152.084C187.395 161.305 181.797 169.683 174.74 176.74C167.683 183.797 159.305 189.395 150.084 193.215C140.863 197.034 130.98 199 121 199V123H197Z" fill="#3CA6B5"/>
<path d="M197 123C197 113.02 195.034 103.137 191.215 93.9161C187.395 84.6953 181.797 76.3171 174.74 69.2599C167.683 62.2026 159.305 56.6045 150.084 52.7852C140.863 48.9658 130.98 47 121 47V123H197Z" fill="#42AFC0"/>
<path d="M197 123C197 105.47 190.94 88.4795 179.847 74.9062C168.754 61.3329 153.31 52.0116 136.131 48.5215L121 123H197Z" fill="#52D3DE"/>
<path d="M197 123C197 110.754 194.041 98.6902 188.375 87.8344C182.709 76.9785 174.503 67.6526 164.457 60.6505L121 123H197Z" fill="#42B3C3"/>
<path d="M197 123C197 112.148 194.676 101.423 190.185 91.5443C185.693 81.6659 179.139 72.8638 170.962 65.7301L121 123H197Z" fill="#3697A7"/>
<path d="M197 123C197 133.989 194.617 144.847 190.015 154.826C185.413 164.805 178.702 173.668 170.345 180.802L121 123H197Z" fill="#39A0B2"/>
<rect x="122" y="122" width="72.4768" height="2.01325" fill="#42AEBD"/>
<path d="M45 123C45 132.98 46.9658 142.863 50.7852 152.084C54.6045 161.305 60.2026 169.683 67.2599 176.74C74.3171 183.797 82.6953 189.395 91.9161 193.215C101.137 197.034 111.02 199 121 199V123H45Z" fill="#2E7D8C"/>
<path d="M45 123C45 113.02 46.9658 103.137 50.7852 93.9161C54.6045 84.6953 60.2026 76.3171 67.2599 69.2599C74.3171 62.2026 82.6953 56.6045 91.9161 52.7852C101.137 48.9658 111.02 47 121 47V123H45Z" fill="#2E7D8C"/>
<path d="M45 123C45 105.47 51.0598 88.4795 62.1529 74.9062C73.2459 61.3329 88.69 52.0116 105.869 48.5215L121 123H45Z" fill="#318E9C"/>
<path d="M45 123C45 110.754 47.959 98.6902 53.6251 87.8344C59.2912 76.9785 67.4966 67.6526 77.5427 60.6505L121 123H45Z" fill="#2B7D8C"/>
<path d="M45 123C45 112.148 47.3238 101.423 51.8152 91.5443C56.3065 81.6659 62.8612 72.8638 71.0384 65.7301L121 123H45Z" fill="#286C7B"/>
<path d="M45 123C45 133.989 47.383 144.847 51.9848 154.826C56.5867 164.805 63.2977 173.668 71.6555 180.802L121 123H45Z" fill="#297184"/>
<rect width="72.4768" height="2.01325" transform="matrix(-1 0 0 1 118.477 122)" fill="#297D8C"/>
</g>
<path d="M121 81H119.973C110.184 81 101.136 86.2538 96.2269 94.7884L80 123L96.2269 151.212C101.136 159.746 110.184 165 119.973 165H121V81Z" fill="#29525A"/>
<path d="M121 81H122.027C131.816 81 140.864 86.2538 145.773 94.7884L162 123L145.773 151.212C140.864 159.746 131.816 165 122.027 165H121V81Z" fill="#3C717B"/>
</svg>
