<svg width="55" height="46" viewBox="0 0 55 46" fill="none" xmlns="http://www.w3.org/2000/svg">
<path d="M54.3279 24.6272L33.7036 45.326C33.2736 45.7576 32.6904 46 32.0823 46C31.4742 46 30.891 45.7576 30.461 45.326C30.031 44.8945 29.7894 44.3092 29.7894 43.6988C29.7894 43.0885 30.031 42.5032 30.461 42.0717L47.1753 25.2999H2.29159C1.68382 25.2999 1.10095 25.0576 0.671192 24.6263C0.241435 24.1949 0 23.61 0 23C0 22.39 0.241435 21.8051 0.671192 21.3737C1.10095 20.9424 1.68382 20.7001 2.29159 20.7001H47.1753L30.461 3.92831C30.031 3.49676 29.7894 2.91145 29.7894 2.30115C29.7894 1.69085 30.031 1.10554 30.461 0.673991C30.891 0.242442 31.4742 0 32.0823 0C32.6904 0 33.2736 0.242442 33.7036 0.673991L54.3279 21.3728C54.541 21.5864 54.71 21.8401 54.8253 22.1193C54.9406 22.3985 55 22.6978 55 23C55 23.3022 54.9406 23.6015 54.8253 23.8807C54.71 24.1599 54.541 24.4136 54.3279 24.6272Z" fill="#F9FAFB"/>
</svg>
