<svg width="20" height="21" viewBox="0 0 20 21" fill="none" xmlns="http://www.w3.org/2000/svg">
<path d="M4.99992 11.7281C4.99992 10.3531 5.55825 9.10312 6.46659 8.19479L5.28325 7.01145C4.08325 8.21979 3.33325 9.88645 3.33325 11.7281C3.33325 15.1281 5.87492 17.9281 9.16658 18.3365V16.6531C6.80825 16.2531 4.99992 14.2031 4.99992 11.7281ZM16.6666 11.7281C16.6666 8.04479 13.6833 5.06145 9.99992 5.06145C9.94992 5.06145 9.89992 5.06979 9.84992 5.06979L10.7583 4.16145L9.58325 2.97812L6.66658 5.89479L9.58325 8.81145L10.7583 7.63645L9.85825 6.73645C9.90825 6.73645 9.95825 6.72812 9.99992 6.72812C12.7583 6.72812 14.9999 8.96979 14.9999 11.7281C14.9999 14.2031 13.1916 16.2531 10.8333 16.6531V18.3365C14.1249 17.9281 16.6666 15.1281 16.6666 11.7281Z" fill="white"/>
</svg>
