<svg width="212" height="212" viewBox="0 0 212 212" fill="none" xmlns="http://www.w3.org/2000/svg">
<path d="M141.333 212H117.778V188.444H141.333V212ZM117.778 129.556H94.2222V188.444H117.778V129.556ZM212 106H188.444V153.111H212V106ZM188.444 82.4444H164.889V106H188.444V82.4444ZM47.1111 106H23.5556V129.556H47.1111V106ZM23.5556 82.4444H0V106H23.5556V82.4444ZM106 23.5556H129.556V0H106V23.5556ZM17.6667 17.6667V53H53V17.6667H17.6667ZM70.6667 70.6667H0V0H70.6667V70.6667ZM17.6667 159V194.333H53V159H17.6667ZM70.6667 212H0V141.333H70.6667V212ZM159 17.6667V53H194.333V17.6667H159ZM212 70.6667H141.333V0H212V70.6667ZM188.444 188.444V153.111H141.333V176.667H164.889V212H212V188.444H188.444ZM164.889 106H117.778V129.556H164.889V106ZM117.778 82.4444H47.1111V106H70.6667V129.556H94.2222V106H117.778V82.4444ZM129.556 70.6667V47.1111H106V23.5556H82.4444V70.6667H129.556ZM44.1667 26.5H26.5V44.1667H44.1667V26.5ZM44.1667 167.833H26.5V185.5H44.1667V167.833ZM185.5 26.5H167.833V44.1667H185.5V26.5Z" fill="#ef4444"/>
</svg>
