<svg width="98" height="98" viewBox="0 0 98 98" fill="none" xmlns="http://www.w3.org/2000/svg">
<path d="M64.6872 97.0308H53.906V86.2496H64.6872V97.0308ZM53.906 59.2966H43.1248V86.2496H53.906V59.2966ZM97.0308 48.5154H86.2496V70.0778H97.0308V48.5154ZM86.2496 37.7342H75.4684V48.5154H86.2496V37.7342ZM21.5624 48.5154H10.7812V59.2966H21.5624V48.5154ZM10.7812 37.7342H0V48.5154H10.7812V37.7342ZM48.5154 10.7812H59.2966V0H48.5154V10.7812ZM8.0859 8.0859V24.2577H24.2577V8.0859H8.0859ZM32.3436 32.3436H0V0H32.3436V32.3436ZM8.0859 72.7731V88.9449H24.2577V72.7731H8.0859ZM32.3436 97.0308H0V64.6872H32.3436V97.0308ZM72.7731 8.0859V24.2577H88.9449V8.0859H72.7731ZM97.0308 32.3436H64.6872V0H97.0308V32.3436ZM86.2496 86.2496V70.0778H64.6872V80.859H75.4684V97.0308H97.0308V86.2496H86.2496ZM75.4684 48.5154H53.906V59.2966H75.4684V48.5154ZM53.906 37.7342H21.5624V48.5154H32.3436V59.2966H43.1248V48.5154H53.906V37.7342ZM59.2966 32.3436V21.5624H48.5154V10.7812H37.7342V32.3436H59.2966ZM20.2147 12.1288H12.1288V20.2147H20.2147V12.1288ZM20.2147 76.816H12.1288V84.9019H20.2147V76.816ZM84.9019 12.1288H76.816V20.2147H84.9019V12.1288Z" fill="white"/>
</svg>
