<svg width="67" height="69" viewBox="0 0 67 69" fill="none" xmlns="http://www.w3.org/2000/svg">
<path d="M56.7714 0H10.2314C4.58025 0 0 4.8295 0 10.7872V10.9006V58.2158C0 64.1152 4.49549 68.9128 10.0732 69H56.746C62.3971 69 66.9802 64.1734 66.9802 58.2158L67 10.7872C67 4.8295 62.4226 0 56.7714 0ZM15.7611 63.4727L13.2237 63.5017C10.1495 63.5017 7.6573 60.9024 7.6573 57.6953L7.64318 57.2388V13.4389L7.66013 11.0779C7.77598 7.97552 10.0675 5.4808 13.0655 5.4808H18.2278C22.9069 5.4808 26.6988 9.66773 26.6988 14.6019C26.6988 17.0443 25.7692 19.2599 24.2632 20.8707L11.0932 34.6236L23.4381 47.5594C25.0289 49.2487 25.9896 51.4643 25.9896 53.8922C25.9896 59.184 21.4122 63.4727 15.7611 63.4727ZM53.7113 63.4291L30.697 63.4203C30.697 63.4203 33.3559 57.5034 33.3559 53.8398C33.3559 49.3709 31.9064 45.3816 29.6346 42.7416L21.7626 34.484L29.7957 25.9415C32.1889 23.63 33.7769 19.5245 33.7769 14.8461C33.7769 11.1419 32.7823 7.86212 31.1802 5.4808H36.7551C41.4342 5.4808 45.229 9.66773 45.229 14.6019C45.229 17.0443 44.2993 19.2599 42.7933 20.8707L29.8748 34.4811L56.7064 62.6353C55.8559 63.1848 54.785 63.4291 53.7113 63.4291ZM59.3314 54.6394L40.1034 34.4724L49.2611 24.8948C51.1231 22.496 52.307 18.8848 52.307 14.8461C52.307 11.1186 51.2983 7.75454 49.6821 5.37322L53.7791 5.50116C56.8534 5.50116 59.3455 8.10054 59.3455 11.3076L59.3314 54.6394Z" fill="#00529C"/>
</svg>
