<svg id="Layer_1" data-name="Layer 1" xmlns="http://www.w3.org/2000/svg" viewBox="0 0 979.58 979.58"><defs><style>.cls-1{fill:#fff;}</style></defs><circle class="cls-1" cx="489.79" cy="489.79" r="489.79"/><path d="M7668.17,6902.24H7426.65a145.25,145.25,0,0,0-145.25,145.24V7289a145.24,145.24,0,0,0,145.25,145.24h241.52A145.24,145.24,0,0,0,7813.42,7289V7047.48A145.25,145.25,0,0,0,7668.17,6902.24ZM7777.26,7289a109.22,109.22,0,0,1-109.09,109.09H7426.65A109.22,109.22,0,0,1,7317.55,7289V7047.48a109.22,109.22,0,0,1,109.1-109.09h241.52a109.22,109.22,0,0,1,109.09,109.09Z" transform="translate(-7057.62 -6678.38)"/><path d="M7547.41,7036.23a132,132,0,1,0,132,132A132,132,0,0,0,7547.41,7036.23Zm0,227.88a95.86,95.86,0,1,1,95.86-95.86A96,96,0,0,1,7547.41,7264.11Z" transform="translate(-7057.62 -6678.38)"/><circle cx="636.39" cy="342.69" r="30.19"/></svg>