<svg width="142" height="122" viewBox="0 0 142 122" fill="none" xmlns="http://www.w3.org/2000/svg">
<g filter="url(#filter0_d_46_2949)">
<path d="M71.7509 70.6589L59.2672 65.3941L63.8717 56.3517L71.7509 60.8811V70.6589Z" fill="url(#paint0_radial_46_2949)"/>
<g clip-path="url(#paint1_diamond_46_2949_clip_path)" data-figma-skip-parse="true"><g transform="matrix(0.00225121 0.0207862 -0.0228171 0.00247116 57.1916 43.6398)"><rect x="0" y="0" width="1121.47" height="357.193" fill="url(#paint1_diamond_46_2949)" opacity="1" shape-rendering="crispEdges"/><rect x="0" y="0" width="1121.47" height="357.193" transform="scale(1 -1)" fill="url(#paint1_diamond_46_2949)" opacity="1" shape-rendering="crispEdges"/><rect x="0" y="0" width="1121.47" height="357.193" transform="scale(-1 1)" fill="url(#paint1_diamond_46_2949)" opacity="1" shape-rendering="crispEdges"/><rect x="0" y="0" width="1121.47" height="357.193" transform="scale(-1)" fill="url(#paint1_diamond_46_2949)" opacity="1" shape-rendering="crispEdges"/></g></g><path d="M63.8718 56.3516L61.1088 46.9716L52.4102 44.6183C52.4102 44.6183 52.6143 57.7173 59.2674 65.3925L63.8718 56.3516Z" data-figma-gradient-fill="{&#34;type&#34;:&#34;GRADIENT_DIAMOND&#34;,&#34;stops&#34;:[{&#34;color&#34;:{&#34;r&#34;:0.0,&#34;g&#34;:1.0,&#34;b&#34;:0.57575756311416626,&#34;a&#34;:1.0},&#34;position&#34;:0.0},{&#34;color&#34;:{&#34;r&#34;:0.27320262789726257,&#34;g&#34;:0.59773856401443481,&#34;b&#34;:0.44196131825447083,&#34;a&#34;:1.0},&#34;position&#34;:0.54166668653488159},{&#34;color&#34;:{&#34;r&#34;:0.0,&#34;g&#34;:0.38823530077934265,&#34;b&#34;:0.22517646849155426,&#34;a&#34;:1.0},&#34;position&#34;:1.0}],&#34;stopsVar&#34;:[],&#34;transform&#34;:{&#34;m00&#34;:4.5024251937866211,&#34;m01&#34;:-45.634101867675781,&#34;m02&#34;:77.757476806640625,&#34;m10&#34;:41.572399139404297,&#34;m11&#34;:4.9423208236694336,&#34;m12&#34;:20.382394790649414},&#34;opacity&#34;:1.0,&#34;blendMode&#34;:&#34;NORMAL&#34;,&#34;visible&#34;:true}"/>
<g clip-path="url(#paint2_diamond_46_2949_clip_path)" data-figma-skip-parse="true"><g transform="matrix(-0.0215366 0.0192104 -0.00897303 -0.0396104 73.9257 25.1798)"><rect x="0" y="0" width="1069.16" height="456.731" fill="url(#paint2_diamond_46_2949)" opacity="1" shape-rendering="crispEdges"/><rect x="0" y="0" width="1069.16" height="456.731" transform="scale(1 -1)" fill="url(#paint2_diamond_46_2949)" opacity="1" shape-rendering="crispEdges"/><rect x="0" y="0" width="1069.16" height="456.731" transform="scale(-1 1)" fill="url(#paint2_diamond_46_2949)" opacity="1" shape-rendering="crispEdges"/><rect x="0" y="0" width="1069.16" height="456.731" transform="scale(-1)" fill="url(#paint2_diamond_46_2949)" opacity="1" shape-rendering="crispEdges"/></g></g><path d="M61.1088 46.9731C61.1088 46.9731 65.9865 40.4926 71.7526 38.4965V27.2209C71.7526 27.2209 57.1857 36.9102 52.4102 44.6183L61.1088 46.9716V46.9731Z" data-figma-gradient-fill="{&#34;type&#34;:&#34;GRADIENT_DIAMOND&#34;,&#34;stops&#34;:[{&#34;color&#34;:{&#34;r&#34;:0.0,&#34;g&#34;:0.38823530077934265,&#34;b&#34;:0.22352941334247589,&#34;a&#34;:1.0},&#34;position&#34;:0.0},{&#34;color&#34;:{&#34;r&#34;:0.21176470816135406,&#34;g&#34;:0.83921569585800171,&#34;b&#34;:0.50039213895797729,&#34;a&#34;:1.0},&#34;position&#34;:0.47395834326744080},{&#34;color&#34;:{&#34;r&#34;:0.13333334028720856,&#34;g&#34;:0.78039216995239258,&#34;b&#34;:0.46980392932891846,&#34;a&#34;:1.0},&#34;position&#34;:1.0}],&#34;stopsVar&#34;:[],&#34;transform&#34;:{&#34;m00&#34;:-43.073207855224609,&#34;m01&#34;:-17.946060180664062,&#34;m02&#34;:104.43528747558594,&#34;m10&#34;:38.420700073242188,&#34;m11&#34;:-79.22082519531250,&#34;m12&#34;:45.579895019531250},&#34;opacity&#34;:1.0,&#34;blendMode&#34;:&#34;NORMAL&#34;,&#34;visible&#34;:true}"/>
<path d="M71.751 70.6589L84.2362 65.3941L79.6317 56.3517L71.751 60.8811V70.6589Z" fill="url(#paint3_radial_46_2949)"/>
<path d="M79.632 56.3516L82.3949 46.9716L91.0936 44.6183C91.0936 44.6183 90.8895 57.7173 84.2364 65.3925L79.632 56.3516Z" fill="url(#paint4_radial_46_2949)"/>
<g clip-path="url(#paint5_diamond_46_2949_clip_path)" data-figma-skip-parse="true"><g transform="matrix(-0.0206361 -0.0174094 0.0381811 -0.0349358 92.3856 44.9155)"><rect x="0" y="0" width="1060.59" height="317.356" fill="url(#paint5_diamond_46_2949)" opacity="1" shape-rendering="crispEdges"/><rect x="0" y="0" width="1060.59" height="317.356" transform="scale(1 -1)" fill="url(#paint5_diamond_46_2949)" opacity="1" shape-rendering="crispEdges"/><rect x="0" y="0" width="1060.59" height="317.356" transform="scale(-1 1)" fill="url(#paint5_diamond_46_2949)" opacity="1" shape-rendering="crispEdges"/><rect x="0" y="0" width="1060.59" height="317.356" transform="scale(-1)" fill="url(#paint5_diamond_46_2949)" opacity="1" shape-rendering="crispEdges"/></g></g><path d="M82.3947 46.9731C82.3947 46.9731 77.5171 40.4926 71.751 38.4965V27.2209C71.751 27.2209 86.3163 36.9087 91.0934 44.6183L82.3947 46.9716V46.9731Z" data-figma-gradient-fill="{&#34;type&#34;:&#34;GRADIENT_DIAMOND&#34;,&#34;stops&#34;:[{&#34;color&#34;:{&#34;r&#34;:0.0,&#34;g&#34;:0.38823530077934265,&#34;b&#34;:0.22352941334247589,&#34;a&#34;:1.0},&#34;position&#34;:0.0},{&#34;color&#34;:{&#34;r&#34;:0.15294118225574493,&#34;g&#34;:0.86666667461395264,&#34;b&#34;:0.56690198183059692,&#34;a&#34;:1.0},&#34;position&#34;:0.44791665673255920},{&#34;color&#34;:{&#34;r&#34;:0.0,&#34;g&#34;:0.61176472902297974,&#34;b&#34;:0.24470588564872742,&#34;a&#34;:1.0},&#34;position&#34;:1.0}],&#34;stopsVar&#34;:[],&#34;transform&#34;:{&#34;m00&#34;:-41.272239685058594,&#34;m01&#34;:76.362152099609375,&#34;m02&#34;:74.840667724609375,&#34;m10&#34;:-34.818763732910156,&#34;m11&#34;:-69.871520996093750,&#34;m12&#34;:97.260612487792969},&#34;opacity&#34;:1.0,&#34;blendMode&#34;:&#34;NORMAL&#34;,&#34;visible&#34;:true}"/>
<g clip-path="url(#paint6_diamond_46_2949_clip_path)" data-figma-skip-parse="true"><g transform="matrix(0.00300162 0.0207112 -0.0262095 0.00379848 68.7479 40.1129)"><rect x="0" y="0" width="1056.86" height="440.721" fill="url(#paint6_diamond_46_2949)" opacity="1" shape-rendering="crispEdges"/><rect x="0" y="0" width="1056.86" height="440.721" transform="scale(1 -1)" fill="url(#paint6_diamond_46_2949)" opacity="1" shape-rendering="crispEdges"/><rect x="0" y="0" width="1056.86" height="440.721" transform="scale(-1 1)" fill="url(#paint6_diamond_46_2949)" opacity="1" shape-rendering="crispEdges"/><rect x="0" y="0" width="1056.86" height="440.721" transform="scale(-1)" fill="url(#paint6_diamond_46_2949)" opacity="1" shape-rendering="crispEdges"/></g></g><path d="M71.7512 38.4965V60.8811L63.872 56.3531L61.109 46.9731C61.109 46.9731 64.3838 40.5601 71.7527 38.4965H71.7512Z" data-figma-gradient-fill="{&#34;type&#34;:&#34;GRADIENT_DIAMOND&#34;,&#34;stops&#34;:[{&#34;color&#34;:{&#34;r&#34;:0.0,&#34;g&#34;:0.38823530077934265,&#34;b&#34;:0.22352941334247589,&#34;a&#34;:1.0},&#34;position&#34;:0.0},{&#34;color&#34;:{&#34;r&#34;:0.18039216101169586,&#34;g&#34;:0.87843137979507446,&#34;b&#34;:0.58525490760803223,&#34;a&#34;:1.0},&#34;position&#34;:0.66666668653488159},{&#34;color&#34;:{&#34;r&#34;:0.0,&#34;g&#34;:0.71372550725936890,&#34;b&#34;:0.37113726139068604,&#34;a&#34;:1.0},&#34;position&#34;:1.0}],&#34;stopsVar&#34;:[],&#34;transform&#34;:{&#34;m00&#34;:6.0032343864440918,&#34;m01&#34;:-52.419029235839844,&#34;m02&#34;:91.955787658691406,&#34;m10&#34;:41.422321319580078,&#34;m11&#34;:7.5969600677490234,&#34;m12&#34;:15.603253364562988},&#34;opacity&#34;:1.0,&#34;blendMode&#34;:&#34;NORMAL&#34;,&#34;visible&#34;:true}"/>
<g clip-path="url(#paint7_diamond_46_2949_clip_path)" data-figma-skip-parse="true"><g transform="matrix(0.00367698 0.00802933 -0.00897326 0.00410925 73.3254 49.7181)"><rect x="0" y="0" width="1726.88" height="1443.08" fill="url(#paint7_diamond_46_2949)" opacity="1" shape-rendering="crispEdges"/><rect x="0" y="0" width="1726.88" height="1443.08" transform="scale(1 -1)" fill="url(#paint7_diamond_46_2949)" opacity="1" shape-rendering="crispEdges"/><rect x="0" y="0" width="1726.88" height="1443.08" transform="scale(-1 1)" fill="url(#paint7_diamond_46_2949)" opacity="1" shape-rendering="crispEdges"/><rect x="0" y="0" width="1726.88" height="1443.08" transform="scale(-1)" fill="url(#paint7_diamond_46_2949)" opacity="1" shape-rendering="crispEdges"/></g></g><path d="M71.751 38.4965V60.8811L79.6303 56.3531L82.3932 46.9731C82.3932 46.9731 79.1185 40.5601 71.7495 38.4965H71.751Z" data-figma-gradient-fill="{&#34;type&#34;:&#34;GRADIENT_DIAMOND&#34;,&#34;stops&#34;:[{&#34;color&#34;:{&#34;r&#34;:0.0,&#34;g&#34;:0.38823530077934265,&#34;b&#34;:0.22352941334247589,&#34;a&#34;:1.0},&#34;position&#34;:0.0},{&#34;color&#34;:{&#34;r&#34;:0.21176470816135406,&#34;g&#34;:0.89019608497619629,&#34;b&#34;:0.56454902887344360,&#34;a&#34;:1.0},&#34;position&#34;:1.0}],&#34;stopsVar&#34;:[],&#34;transform&#34;:{&#34;m00&#34;:7.3539633750915527,&#34;m01&#34;:-17.946512222290039,&#34;m02&#34;:78.621635437011719,&#34;m10&#34;:16.058654785156250,&#34;m11&#34;:8.2184982299804688,&#34;m12&#34;:37.579494476318359},&#34;opacity&#34;:1.0,&#34;blendMode&#34;:&#34;NORMAL&#34;,&#34;visible&#34;:true}"/>
<g style="mix-blend-mode:soft-light">
<path d="M61.109 46.9731C61.109 46.9731 68.9883 54.7818 79.632 56.3531L81.1343 51.2549C81.1343 51.2549 73.7998 45.6779 71.7527 38.4965C70.6226 38.8162 69.3109 39.307 67.9407 40.0784C64.1857 42.193 62.107 45.2261 61.109 46.9731Z" fill="white"/>
</g>
<path opacity="0.8" d="M61.109 46.9731C61.109 46.9731 68.9883 54.7818 79.632 56.3531L81.1343 51.2549C81.1343 51.2549 73.7998 45.6779 71.7527 38.4965C70.6226 38.8162 69.3109 39.307 67.9407 40.0784C64.1857 42.193 62.107 45.2261 61.109 46.9731Z" fill="url(#paint8_linear_46_2949)"/>
<g style="mix-blend-mode:soft-light">
<path d="M63.0959 53.7208C63.0959 53.7208 71.664 57.9846 77.319 57.6814L75.2494 58.87C75.2494 58.87 71.4103 59.6174 67.1285 58.2247L63.8703 56.3532L63.0944 53.7208H63.0959Z" fill="white"/>
</g>
<g style="mix-blend-mode:soft-light">
<path d="M78.949 45.7785C78.949 45.7785 81.7465 42.6943 84.2363 36.9372C84.2363 36.9372 89.3196 41.3451 91.0935 44.6198C91.0935 44.6198 90.8999 51.333 89.2535 55.7003C89.2535 55.7003 90.139 52.1929 78.949 45.78V45.7785Z" fill="white"/>
</g>
<path opacity="0.2" d="M78.949 45.7785C78.949 45.7785 81.7465 42.6943 84.2363 36.9372C84.2363 36.9372 89.3196 41.3451 91.0935 44.6198C91.0935 44.6198 90.8999 51.333 89.2535 55.7003C89.2535 55.7003 90.139 52.1929 78.949 45.78V45.7785Z" fill="white"/>
<g style="mix-blend-mode:soft-light" opacity="0.5">
<path d="M71.7511 70.6588C71.7511 70.6588 59.7446 59.7795 61.1073 46.9731C61.1073 46.9731 57.2533 52.9433 59.2659 65.394L71.7511 70.6588Z" fill="white"/>
</g>
<path d="M71.7511 70.6588C71.7511 70.6588 59.7446 59.7795 61.1073 46.9731C61.1073 46.9731 57.2533 52.9433 59.2659 65.394L71.7511 70.6588Z" fill="url(#paint9_linear_46_2949)"/>
<g style="mix-blend-mode:soft-light">
<path d="M52.4102 44.6183C52.4102 44.6183 67.172 29.3071 69.0571 32.1331C69.0571 32.1331 70.7635 33.3277 71.7526 38.495V27.2209C71.7526 27.2209 57.5954 36.4314 52.4102 44.6183Z" fill="url(#paint10_linear_46_2949)"/>
</g>
<path opacity="0.5" d="M52.4102 44.6183C52.4102 44.6183 67.3221 29.232 69.0571 32.1331C69.0571 32.1331 70.7635 33.3277 71.7526 38.495V27.2209C71.7526 27.2209 57.5954 36.4314 52.4102 44.6183Z" fill="url(#paint11_linear_46_2949)"/>
<g style="mix-blend-mode:soft-light">
<path d="M79.632 56.3516L84.2364 62.8351C84.2364 62.8351 90.0701 56.6953 91.0936 44.6183C91.0141 47.6199 90.6269 50.1683 90.2067 52.1568C89.7189 54.4621 89.1561 56.146 88.9445 56.7613C88.3216 58.5683 87.4932 60.9171 85.7042 63.4985C85.1339 64.3209 84.6071 64.9632 84.2379 65.3925C82.7026 62.3789 81.1673 59.3652 79.6335 56.3516H79.632Z" fill="white"/>
</g>
<path opacity="0.6" d="M79.632 56.3516L84.2364 62.8351C84.2364 62.8351 90.0701 56.6953 91.0936 44.6183C91.0141 47.6199 90.6269 50.1683 90.2067 52.1568C89.7189 54.4621 89.1561 56.146 88.9445 56.7613C88.3216 58.5683 87.4932 60.9171 85.7042 63.4985C85.1339 64.3209 84.6071 64.9632 84.2379 65.3925C82.7026 62.3789 81.1673 59.3652 79.6335 56.3516H79.632Z" fill="white"/>
<g style="mix-blend-mode:soft-light">
<path d="M84.2362 65.394L71.751 70.6589C71.751 70.6589 76.3555 66.2465 84.2362 65.394Z" fill="white"/>
</g>
<path opacity="0.6" d="M84.2362 65.394L71.751 70.6589C71.751 70.6589 76.3555 66.2465 84.2362 65.394Z" fill="url(#paint12_radial_46_2949)"/>
<g style="mix-blend-mode:soft-light">
<path d="M71.751 38.4966C71.751 38.4966 78.1294 39.6387 82.3947 46.9731C82.3947 46.9731 80.3821 37.6261 71.751 38.4966Z" fill="white"/>
</g>
<path opacity="0.9" d="M71.751 38.4966C71.751 38.4966 78.1294 39.6387 82.3947 46.9731C82.3947 46.9731 80.3821 37.6261 71.751 38.4966Z" fill="url(#paint13_radial_46_2949)"/>
<g style="mix-blend-mode:soft-light">
<path d="M61.1088 46.9731L52.4102 44.6198C52.4102 44.6198 56.4593 43.2856 61.1088 46.9731Z" fill="white"/>
</g>
<path opacity="0.5" d="M61.1088 46.9731L52.4102 44.6198C52.4102 44.6198 56.4593 43.2856 61.1088 46.9731Z" fill="url(#paint14_radial_46_2949)"/>
<path d="M84.1595 60.8241L84.6609 63.2774L87.1142 63.7789L84.6609 64.2803L84.1595 66.7336L83.658 64.2803L81.2047 63.7789L83.658 63.2774L84.1595 60.8241Z" fill="white"/>
<g filter="url(#filter1_f_46_2949)">
<path d="M84.1595 60.8241L84.6609 63.2774L87.1142 63.7789L84.6609 64.2803L84.1595 66.7336L83.658 64.2803L81.2047 63.7789L83.658 63.2774L84.1595 60.8241Z" fill="white"/>
</g>
<path d="M54.1933 40.8633L54.7796 43.732L57.6483 44.3184L54.7796 44.9047L54.1933 47.7734L53.607 44.9047L50.7383 44.3184L53.607 43.732L54.1933 40.8633Z" fill="white"/>
<g filter="url(#filter2_f_46_2949)">
<path d="M54.1933 40.8633L54.7796 43.732L57.6483 44.3184L54.7796 44.9047L54.1933 47.7734L53.607 44.9047L50.7383 44.3184L53.607 43.732L54.1933 40.8633Z" fill="white"/>
</g>
<path d="M84.1645 35.9106L84.5394 37.7451L86.3739 38.12L84.5394 38.495L84.1645 40.3294L83.7895 38.495L81.9551 38.12L83.7895 37.7451L84.1645 35.9106Z" fill="white"/>
<g filter="url(#filter3_f_46_2949)">
<path d="M84.1645 35.9106L84.5394 37.7451L86.3739 38.12L84.5394 38.495L84.1645 40.3294L83.7895 38.495L81.9551 38.12L83.7895 37.7451L84.1645 35.9106Z" fill="white"/>
</g>
<g style="mix-blend-mode:overlay" filter="url(#filter4_f_46_2949)">
<g style="mix-blend-mode:lighten">
<path d="M65.8994 41.0601C65.8755 40.9544 65.942 40.847 66.0478 40.8231C66.1535 40.7992 66.261 40.8657 66.2849 40.9714C66.3087 41.0771 66.2422 41.1845 66.1365 41.2084C66.0307 41.2322 65.9233 41.1658 65.8994 41.0601Z" fill="#FFFBFC"/>
</g>
<g style="mix-blend-mode:lighten">
<path d="M81.1591 54.5342C81.1216 54.3723 81.2239 54.2103 81.386 54.1745C81.548 54.137 81.7101 54.2393 81.7459 54.4012C81.7834 54.5632 81.6811 54.7252 81.519 54.761C81.357 54.7985 81.1949 54.6962 81.1591 54.5342Z" fill="#FFFBFC"/>
</g>
<g style="mix-blend-mode:lighten">
<path d="M62.3791 43.7025C62.3398 43.5269 62.449 43.3513 62.6247 43.3121C62.8004 43.2728 62.9761 43.3819 63.0153 43.5575C63.0545 43.7331 62.9454 43.9087 62.7697 43.9479C62.594 43.9872 62.4183 43.878 62.3791 43.7025Z" fill="#FFFBFC"/>
</g>
<g style="mix-blend-mode:lighten">
<path d="M66.7864 45.5964C66.9314 45.7771 66.9041 46.0413 66.7233 46.1879C66.5425 46.3328 66.2781 46.3056 66.1314 46.1248C65.9864 45.9441 66.0137 45.6799 66.1945 45.5333C66.3753 45.3884 66.6397 45.4156 66.7864 45.5964Z" fill="#FFFBFC"/>
</g>
<g style="mix-blend-mode:lighten">
<path d="M68.306 45.1429C68.4288 45.2963 68.4049 45.5196 68.2514 45.6424C68.0979 45.7651 67.8744 45.7413 67.7516 45.5878C67.6288 45.4344 67.6527 45.2111 67.8062 45.0883C67.9597 44.9656 68.1832 44.9894 68.306 45.1429Z" fill="#FFFBFC"/>
</g>
<g style="mix-blend-mode:lighten">
<path d="M68.3624 42.9149C68.4238 42.9916 68.4119 43.1059 68.3351 43.1672C68.2583 43.2286 68.1441 43.2167 68.0827 43.1399C68.0213 43.0632 68.0332 42.949 68.11 42.8876C68.1867 42.8263 68.301 42.8382 68.3624 42.9149Z" fill="#FFFBFC"/>
</g>
<g style="mix-blend-mode:lighten">
<path d="M72.7308 48.191C72.7052 48.087 72.77 47.9813 72.8741 47.9557C72.9781 47.9301 73.0839 47.9949 73.1095 48.0989C73.135 48.2029 73.0702 48.3086 72.9662 48.3342C72.8621 48.3598 72.7564 48.295 72.7308 48.191Z" fill="#FFFBFC"/>
</g>
<g style="mix-blend-mode:lighten">
<path d="M69.4967 44.9622C69.4677 44.8412 69.5428 44.7184 69.6639 44.6895C69.785 44.6605 69.9078 44.7355 69.9368 44.8565C69.9658 44.9776 69.8907 45.1003 69.7696 45.1293C69.6485 45.1583 69.5257 45.0833 69.4967 44.9622Z" fill="#FFFBFC"/>
</g>
<g style="mix-blend-mode:lighten">
<path d="M59.3047 53.8381C59.2501 53.6131 59.3899 53.3864 59.6151 53.3318C59.8402 53.2773 60.0671 53.4171 60.1217 53.6421C60.1762 53.8671 60.0364 54.0939 59.8112 54.1484C59.5861 54.203 59.3592 54.0632 59.3047 53.8381Z" fill="#FFFBFC"/>
</g>
<g style="mix-blend-mode:lighten">
<path d="M77.4668 63.2064C77.6254 63.1775 77.7789 63.2815 77.8079 63.44C77.8369 63.5985 77.7329 63.752 77.5742 63.781C77.4156 63.8099 77.2621 63.706 77.2331 63.5474C77.2041 63.3889 77.3082 63.2354 77.4668 63.2064Z" fill="#FFFBFC"/>
</g>
<g style="mix-blend-mode:lighten">
<path d="M68.7156 63.3339C68.818 63.3151 68.9152 63.3816 68.934 63.4839C68.9527 63.5862 68.8862 63.6833 68.7839 63.7021C68.6815 63.7208 68.5843 63.6544 68.5655 63.5521C68.5468 63.4498 68.6133 63.3526 68.7156 63.3339Z" fill="#FFFBFC"/>
</g>
<g style="mix-blend-mode:lighten">
<path d="M69.1129 61.1313C69.3312 61.0904 69.5393 61.2336 69.5803 61.4518C69.6212 61.67 69.4779 61.878 69.2596 61.9189C69.0413 61.9598 68.8332 61.8166 68.7923 61.5984C68.7513 61.3802 68.8946 61.1722 69.1129 61.1313Z" fill="#FFFBFC"/>
</g>
<g style="mix-blend-mode:lighten">
<path d="M67.7125 59.996C67.9206 59.9568 68.1218 60.0949 68.1611 60.3029C68.2003 60.5109 68.0621 60.7121 67.8541 60.7513C67.646 60.7905 67.4447 60.6524 67.4055 60.4444C67.3662 60.2364 67.5044 60.0352 67.7125 59.996Z" fill="#FFFBFC"/>
</g>
<g style="mix-blend-mode:lighten">
<path d="M68.0042 58.576C68.1799 58.5436 68.3504 58.6595 68.3828 58.8351C68.4153 59.0107 68.2993 59.1812 68.1236 59.2136C67.9479 59.246 67.7773 59.13 67.7449 58.9544C67.7125 58.7789 67.8285 58.6084 68.0042 58.576Z" fill="#FFFBFC"/>
</g>
<g style="mix-blend-mode:lighten">
<path d="M66.232 57.5686C66.3207 57.5515 66.4077 57.6112 66.4231 57.6999C66.4401 57.7885 66.3804 57.8754 66.2917 57.8908C66.203 57.9078 66.116 57.8482 66.1007 57.7595C66.0836 57.6709 66.1433 57.5839 66.232 57.5686Z" fill="#FFFBFC"/>
</g>
<g style="mix-blend-mode:lighten">
<path d="M73.592 44.9843C73.7131 45.136 73.6892 45.3559 73.5391 45.477C73.3873 45.598 73.1673 45.5742 73.0462 45.4241C72.9251 45.2724 72.9489 45.0525 73.099 44.9314C73.2508 44.8104 73.4709 44.8343 73.592 44.9843Z" fill="#FFFBFC"/>
</g>
<path d="M76.3485 41.476C76.415 41.5579 76.4014 41.6772 76.3195 41.7437C76.2376 41.8102 76.1182 41.7965 76.0517 41.7147C75.9852 41.6329 75.9988 41.5135 76.0807 41.4471C76.1626 41.3806 76.282 41.3942 76.3485 41.476Z" fill="#FFFBFC"/>
</g>
<g style="mix-blend-mode:lighten">
<path d="M81.1594 54.5335C81.1218 54.3716 81.2242 54.2096 81.3862 54.1738C81.5483 54.1363 81.7103 54.2386 81.7461 54.4006C81.7836 54.5625 81.6813 54.7245 81.5193 54.7603C81.3572 54.7978 81.1952 54.6955 81.1594 54.5335Z" fill="#FFFBFC"/>
</g>
<g style="mix-blend-mode:lighten">
<path d="M62.3798 43.7017C62.3406 43.5261 62.4497 43.3505 62.6254 43.3113C62.8011 43.2721 62.9768 43.3812 63.016 43.5568C63.0552 43.7324 62.9461 43.908 62.7704 43.9472C62.5947 43.9864 62.419 43.8773 62.3798 43.7017Z" fill="#FFFBFC"/>
</g>
<g style="mix-blend-mode:lighten">
<path d="M66.7864 45.5971C66.9314 45.7778 66.9041 46.042 66.7233 46.1887C66.5425 46.3336 66.2781 46.3063 66.1314 46.1256C65.9864 45.9449 66.0137 45.6806 66.1945 45.534C66.3753 45.3891 66.6397 45.4164 66.7864 45.5971Z" fill="#FFFBFC"/>
</g>
<g style="mix-blend-mode:lighten">
<path d="M70.206 47.5589C70.3288 47.7123 70.3049 47.9357 70.1514 48.0584C69.9979 48.1811 69.7745 48.1573 69.6517 48.0038C69.5288 47.8504 69.5527 47.6271 69.7062 47.5043C69.8597 47.3816 70.0832 47.4055 70.206 47.5589Z" fill="#FFFBFC"/>
</g>
<g style="mix-blend-mode:lighten">
<path d="M68.3624 42.9142C68.4238 42.991 68.4119 43.1052 68.3351 43.1666C68.2583 43.2279 68.1441 43.216 68.0827 43.1393C68.0213 43.0626 68.0332 42.9483 68.11 42.887C68.1867 42.8256 68.301 42.8375 68.3624 42.9142Z" fill="#FFFBFC"/>
</g>
<g style="mix-blend-mode:lighten">
<path d="M72.7302 48.1916C72.7046 48.0876 72.7694 47.9819 72.8735 47.9563C72.9775 47.9308 73.0833 47.9955 73.1089 48.0995C73.1344 48.2035 73.0696 48.3092 72.9656 48.3348C72.8615 48.3604 72.7558 48.2956 72.7302 48.1916Z" fill="#FFFBFC"/>
</g>
<g style="mix-blend-mode:lighten">
<path d="M69.4973 44.9619C69.4683 44.8409 69.5434 44.7181 69.6645 44.6891C69.7856 44.6602 69.9084 44.7352 69.9374 44.8562C69.9664 44.9773 69.8913 45.1 69.7702 45.129C69.6491 45.158 69.5263 45.083 69.4973 44.9619Z" fill="#FFFBFC"/>
</g>
<g style="mix-blend-mode:lighten">
<path d="M67.2551 48.0246C67.2142 47.8524 67.32 47.6802 67.4922 47.6376C67.6645 47.5967 67.8368 47.7024 67.8794 47.8745C67.9203 48.0467 67.8146 48.2189 67.6423 48.2615C67.4701 48.3025 67.2978 48.1968 67.2551 48.0246Z" fill="#FFFBFC"/>
</g>
<g style="mix-blend-mode:lighten">
<path d="M66.1783 50.4576C66.151 50.3468 66.2192 50.2377 66.3301 50.2104C66.4409 50.1831 66.5501 50.2513 66.5774 50.3621C66.6047 50.473 66.5364 50.5821 66.4256 50.6093C66.3147 50.6366 66.2055 50.5684 66.1783 50.4576Z" fill="#FFFBFC"/>
</g>
<g style="mix-blend-mode:lighten">
<path d="M60.4454 47.2707C60.3891 47.0355 60.534 46.7985 60.7694 46.7422C61.0048 46.686 61.2419 46.8309 61.2982 47.0661C61.3545 47.3014 61.2095 47.5384 60.9741 47.5946C60.7387 47.6509 60.5016 47.506 60.4454 47.2707Z" fill="#FFFBFC"/>
</g>
<g style="mix-blend-mode:lighten">
<path d="M60.4458 47.2714C60.3896 47.0361 60.5345 46.7992 60.7699 46.7429C61.0053 46.6866 61.2424 46.8315 61.2987 47.0668C61.355 47.3021 61.21 47.539 60.9746 47.5953C60.7392 47.6516 60.5021 47.5066 60.4458 47.2714Z" fill="#FFFBFC"/>
</g>
<g style="mix-blend-mode:lighten">
<path d="M59.3047 53.8381C59.2501 53.6131 59.3899 53.3864 59.6151 53.3318C59.8402 53.2773 60.0671 53.4171 60.1217 53.6421C60.1762 53.8671 60.0364 54.0939 59.8112 54.1484C59.5861 54.203 59.3592 54.0632 59.3047 53.8381Z" fill="#FFFBFC"/>
</g>
<g style="mix-blend-mode:lighten">
<path d="M77.4673 63.2066C77.6259 63.1776 77.7794 63.2816 77.8084 63.4401C77.8374 63.5987 77.7334 63.7521 77.5747 63.7811C77.4161 63.8101 77.2626 63.7061 77.2336 63.5475C77.2046 63.389 77.3087 63.2355 77.4673 63.2066Z" fill="#FFFBFC"/>
</g>
<g style="mix-blend-mode:lighten">
<path d="M68.7152 63.3337C68.8175 63.3149 68.9147 63.3814 68.9335 63.4837C68.9522 63.586 68.8857 63.6832 68.7834 63.7019C68.681 63.7207 68.5838 63.6542 68.5651 63.5519C68.5463 63.4496 68.6128 63.3524 68.7152 63.3337Z" fill="#FFFBFC"/>
</g>
<g style="mix-blend-mode:lighten">
<path d="M69.1134 61.1321C69.3317 61.0912 69.5398 61.2344 69.5808 61.4526C69.6217 61.6708 69.4784 61.8788 69.2601 61.9197C69.0418 61.9606 68.8337 61.8174 68.7927 61.5992C68.7518 61.381 68.8951 61.173 69.1134 61.1321Z" fill="#FFFBFC"/>
</g>
<g style="mix-blend-mode:lighten">
<path d="M67.7128 59.9953C67.9209 59.9561 68.1222 60.0942 68.1614 60.3022C68.2007 60.5102 68.0625 60.7113 67.8544 60.7505C67.6463 60.7897 67.4451 60.6517 67.4058 60.4437C67.3666 60.2357 67.5048 60.0345 67.7128 59.9953Z" fill="#FFFBFC"/>
</g>
<g style="mix-blend-mode:lighten">
<path d="M68.0038 58.5759C68.1795 58.5435 68.3501 58.6594 68.3825 58.835C68.4149 59.0106 68.2989 59.1811 68.1232 59.2135C67.9475 59.2459 67.777 59.1299 67.7446 58.9543C67.7122 58.7787 67.8281 58.6083 68.0038 58.5759Z" fill="#FFFBFC"/>
</g>
<g style="mix-blend-mode:lighten">
<path d="M66.2323 57.5688C66.321 57.5518 66.408 57.6114 66.4233 57.7001C66.4404 57.7887 66.3807 57.8757 66.292 57.891C66.2033 57.9081 66.1163 57.8484 66.1009 57.7598C66.0839 57.6711 66.1436 57.5842 66.2323 57.5688Z" fill="#FFFBFC"/>
</g>
<g style="mix-blend-mode:lighten">
<path d="M73.5925 44.9836C73.7136 45.1353 73.6897 45.3553 73.5396 45.4763C73.3878 45.5973 73.1678 45.5735 73.0467 45.4235C72.9256 45.2717 72.9494 45.0518 73.0995 44.9308C73.2513 44.8097 73.4714 44.8336 73.5925 44.9836Z" fill="#FFFBFC"/>
</g>
<path d="M76.3488 41.4766C76.4154 41.5585 76.4017 41.6778 76.3198 41.7443C76.238 41.8108 76.1186 41.7972 76.0521 41.7153C75.9855 41.6335 75.9992 41.5142 76.0811 41.4477C76.1629 41.3812 76.2823 41.3948 76.3488 41.4766Z" fill="#FFFBFC"/>
<path d="M60.7184 40.4267L60.8152 40.9025L61.2886 40.9997L60.8152 41.097L60.7184 41.5728L60.6216 41.097L60.1482 40.9997L60.6216 40.9025L60.7184 40.4267Z" fill="white"/>
<g filter="url(#filter5_f_46_2949)">
<path d="M60.7184 40.4267L60.8152 40.9025L61.2886 40.9997L60.8152 41.097L60.7184 41.5728L60.6216 41.097L60.1482 40.9997L60.6216 40.9025L60.7184 40.4267Z" fill="white"/>
</g>
<path d="M85.6261 54.769L85.9585 55.1215L86.4115 54.9524L86.0609 55.2865L86.229 55.7418L85.8966 55.3894L85.4436 55.5584L85.7943 55.2243L85.6261 54.769Z" fill="white"/>
<g filter="url(#filter6_f_46_2949)">
<path d="M85.6261 54.769L85.9585 55.1215L86.4115 54.9524L86.0609 55.2865L86.229 55.7418L85.8966 55.3894L85.4436 55.5584L85.7943 55.2243L85.6261 54.769Z" fill="white"/>
</g>
<path d="M61.385 58.6107L61.5782 59.0558L62.0614 59.0518L61.6186 59.246L61.6226 59.7316L61.4293 59.2866L60.9461 59.2906L61.389 59.0963L61.385 58.6107Z" fill="white"/>
<g filter="url(#filter7_f_46_2949)">
<path d="M61.385 58.6107L61.5782 59.0558L62.0614 59.0518L61.6186 59.246L61.6226 59.7316L61.4293 59.2866L60.9461 59.2906L61.389 59.0963L61.385 58.6107Z" fill="white"/>
</g>
</g>
<g style="mix-blend-mode:overlay" filter="url(#filter8_f_46_2949)">
<g style="mix-blend-mode:lighten">
<path d="M56.2565 20.733C56.206 20.5096 56.3466 20.2827 56.57 20.2322C56.7934 20.1818 57.0204 20.3223 57.0708 20.5457C57.1213 20.769 56.9808 20.996 56.7573 21.0464C56.5339 21.0969 56.3069 20.9564 56.2565 20.733Z" fill="#FFFBFC"/>
</g>
<g style="mix-blend-mode:lighten">
<path d="M88.4942 49.2084C88.4149 48.8662 88.6311 48.5239 88.9734 48.4483C89.3157 48.369 89.6581 48.5852 89.7337 48.9274C89.813 49.2697 89.5968 49.6119 89.2545 49.6876C88.9122 49.7668 88.5698 49.5507 88.4942 49.2084Z" fill="#FFFBFC"/>
</g>
<g style="mix-blend-mode:lighten">
<path d="M48.8193 26.3173C48.7365 25.9462 48.9671 25.5752 49.3382 25.4923C49.7094 25.4095 50.0805 25.64 50.1634 26.0111C50.2463 26.3822 50.0157 26.7532 49.6445 26.8361C49.2734 26.919 48.9022 26.6884 48.8193 26.3173Z" fill="#FFFBFC"/>
</g>
<g style="mix-blend-mode:lighten">
<path d="M58.1303 30.3198C58.4365 30.7017 58.3789 31.2601 57.9969 31.5699C57.615 31.8762 57.0564 31.8185 56.7466 31.4366C56.4403 31.0548 56.4979 30.4963 56.8799 30.1865C57.2618 29.8803 57.8204 29.9379 58.1303 30.3198Z" fill="#FFFBFC"/>
</g>
<g style="mix-blend-mode:lighten">
<path d="M61.3407 29.3615C61.6001 29.6857 61.5497 30.1577 61.2253 30.417C60.901 30.6764 60.429 30.626 60.1696 30.3018C59.9101 29.9775 59.9606 29.5056 60.2849 29.2462C60.6092 28.9868 61.0812 29.0372 61.3407 29.3615Z" fill="#FFFBFC"/>
</g>
<g style="mix-blend-mode:lighten">
<path d="M61.4598 24.653C61.5895 24.8151 61.5643 25.0565 61.4021 25.1862C61.24 25.3159 60.9986 25.2907 60.8688 25.1286C60.7391 24.9665 60.7643 24.7251 60.9265 24.5954C61.0886 24.4657 61.3301 24.4909 61.4598 24.653Z" fill="#FFFBFC"/>
</g>
<g style="mix-blend-mode:lighten">
<path d="M70.6884 35.803C70.6344 35.5833 70.7713 35.3599 70.9911 35.3059C71.2109 35.2518 71.4343 35.3887 71.4884 35.6085C71.5424 35.8282 71.4055 36.0516 71.1857 36.1057C70.9659 36.1597 70.7425 36.0228 70.6884 35.803Z" fill="#FFFBFC"/>
</g>
<g style="mix-blend-mode:lighten">
<path d="M63.8561 28.9797C63.7948 28.7239 63.9533 28.4645 64.2092 28.4032C64.465 28.342 64.7245 28.5005 64.7857 28.7563C64.847 29.0121 64.6884 29.2715 64.4326 29.3327C64.1768 29.394 63.9173 29.2354 63.8561 28.9797Z" fill="#FFFBFC"/>
</g>
<g style="mix-blend-mode:lighten">
<path d="M56.5669 35.45C56.4804 35.0861 56.7039 34.7222 57.0678 34.6322C57.4317 34.5457 57.7957 34.7691 57.8858 35.1329C57.9722 35.4968 57.7488 35.8607 57.3849 35.9507C57.021 36.0372 56.657 35.8138 56.5669 35.45Z" fill="#FFFBFC"/>
</g>
<g style="mix-blend-mode:lighten">
<path d="M55.3881 40.5943C55.3304 40.3601 55.4745 40.1295 55.7088 40.0719C55.943 40.0143 56.1736 40.1584 56.2313 40.3925C56.2889 40.6267 56.1448 40.8573 55.9106 40.9149C55.6763 40.9726 55.4457 40.8285 55.3881 40.5943Z" fill="#FFFBFC"/>
</g>
<g style="mix-blend-mode:lighten">
<path d="M49.2265 31.2008C49.1076 30.7036 49.4139 30.2029 49.9112 30.084C50.4085 29.9651 50.9093 30.2713 51.0282 30.7685C51.1472 31.2656 50.8409 31.7664 50.3436 31.8853C49.8463 32.0042 49.3455 31.6979 49.2265 31.2008Z" fill="#FFFBFC"/>
</g>
<g style="mix-blend-mode:lighten">
<path d="M52.1082 45.9242C51.9929 45.4487 52.2884 44.9695 52.764 44.8542C53.2397 44.7389 53.7189 45.0344 53.8342 45.5099C53.9495 45.9855 53.6541 46.4646 53.1784 46.5799C52.7028 46.6952 52.2235 46.3998 52.1082 45.9242Z" fill="#FFFBFC"/>
</g>
<g style="mix-blend-mode:lighten">
<path d="M44.4884 42.792C44.3911 42.3885 44.6397 41.9815 45.0433 41.8878C45.4469 41.7905 45.8541 42.0391 45.9477 42.4426C46.045 42.8461 45.7964 43.2532 45.3928 43.3469C44.9892 43.4441 44.5821 43.1955 44.4884 42.792Z" fill="#FFFBFC"/>
</g>
<g style="mix-blend-mode:lighten">
<path d="M42.3657 47C42.3153 46.7946 42.4414 46.5929 42.6468 46.5424C42.8522 46.492 43.054 46.6181 43.1044 46.8234C43.1549 47.0288 43.0287 47.2305 42.8234 47.281C42.618 47.3314 42.4162 47.2053 42.3657 47Z" fill="#FFFBFC"/>
</g>
<g style="mix-blend-mode:lighten">
<path d="M80.6937 67.5359C81.0288 67.4747 81.3531 67.6944 81.4144 68.0295C81.4757 68.3645 81.2558 68.6888 80.9207 68.75C80.5856 68.8113 80.2613 68.5915 80.2001 68.2565C80.1388 67.9214 80.3586 67.5972 80.6937 67.5359Z" fill="#FFFBFC"/>
</g>
<g style="mix-blend-mode:lighten">
<path d="M62.206 67.8051C62.4222 67.7655 62.6276 67.906 62.6672 68.1222C62.7069 68.3383 62.5663 68.5437 62.3501 68.5833C62.1339 68.6229 61.9285 68.4824 61.8889 68.2663C61.8493 68.0501 61.9898 67.8448 62.206 67.8051Z" fill="#FFFBFC"/>
</g>
<g style="mix-blend-mode:lighten">
<path d="M63.0455 63.1504C63.5067 63.0639 63.9463 63.3665 64.0328 63.8277C64.1193 64.2888 63.8166 64.7283 63.3553 64.8148C62.8941 64.9012 62.4545 64.5986 62.368 64.1375C62.2815 63.6763 62.5842 63.2368 63.0455 63.1504Z" fill="#FFFBFC"/>
</g>
<g style="mix-blend-mode:lighten">
<path d="M60.0868 60.7512C60.5264 60.6683 60.9516 60.9601 61.0344 61.3997C61.1173 61.8392 60.8254 62.2643 60.3858 62.3472C59.9462 62.43 59.521 62.1382 59.4381 61.6987C59.3553 61.2592 59.6471 60.834 60.0868 60.7512Z" fill="#FFFBFC"/>
</g>
<g style="mix-blend-mode:lighten">
<path d="M60.7032 57.7501C61.0744 57.6817 61.4347 57.9266 61.5032 58.2977C61.5716 58.6688 61.3266 59.0291 60.9555 59.0975C60.5843 59.166 60.224 58.921 60.1555 58.5499C60.087 58.1788 60.3321 57.8186 60.7032 57.7501Z" fill="#FFFBFC"/>
</g>
<g style="mix-blend-mode:lighten">
<path d="M56.9593 55.6212C57.1466 55.5852 57.3304 55.7113 57.3629 55.8986C57.3989 56.0859 57.2728 56.2697 57.0854 56.3021C56.898 56.3381 56.7142 56.212 56.6818 56.0247C56.6458 55.8374 56.7719 55.6536 56.9593 55.6212Z" fill="#FFFBFC"/>
</g>
<g style="mix-blend-mode:lighten">
<path d="M64.7964 23.1539C65.0126 23.4205 64.9694 23.8096 64.7027 24.0258C64.4361 24.2419 64.0469 24.1987 63.8307 23.9321C63.6145 23.6655 63.6578 23.2764 63.9244 23.0602C64.1911 22.8441 64.5802 22.8873 64.7964 23.1539Z" fill="#FFFBFC"/>
</g>
<g style="mix-blend-mode:lighten">
<path d="M72.5078 29.0262C72.7636 29.3469 72.7132 29.8116 72.3961 30.0674C72.0754 30.3232 71.6105 30.2727 71.3547 29.9557C71.0989 29.6351 71.1493 29.1703 71.4664 28.9145C71.7871 28.6587 72.2519 28.7092 72.5078 29.0262Z" fill="#FFFBFC"/>
</g>
<path d="M71.7261 23.8711C71.8666 24.0477 71.8414 24.3035 71.6648 24.4476C71.4883 24.5881 71.2324 24.5628 71.0883 24.3863C70.9478 24.2098 70.973 23.954 71.1496 23.8099C71.3261 23.6694 71.582 23.6946 71.7261 23.8711Z" fill="#FFFBFC"/>
<path d="M78.3311 21.6121C78.4716 21.7851 78.4428 22.0372 78.2698 22.1777C78.0969 22.3182 77.8446 22.2894 77.7041 22.1165C77.5636 21.9436 77.5924 21.6914 77.7654 21.5509C77.9383 21.4104 78.1906 21.4392 78.3311 21.6121Z" fill="#FFFBFC"/>
</g>
<g style="mix-blend-mode:lighten">
<path d="M56.2564 20.733C56.2059 20.5096 56.3464 20.2827 56.5698 20.2322C56.7933 20.1818 57.0203 20.3223 57.0707 20.5457C57.1212 20.769 56.9806 20.996 56.7572 21.0464C56.5338 21.0969 56.3068 20.9564 56.2564 20.733Z" fill="#FFFBFC"/>
</g>
<g style="mix-blend-mode:lighten">
<path d="M88.494 49.2084C88.4148 48.8662 88.631 48.5239 88.9733 48.4483C89.3156 48.369 89.6579 48.5852 89.7336 48.9274C89.8129 49.2697 89.5967 49.6119 89.2544 49.6876C88.912 49.7668 88.5697 49.5507 88.494 49.2084Z" fill="#FFFBFC"/>
</g>
<g style="mix-blend-mode:lighten">
<path d="M48.8192 26.3173C48.7363 25.9462 48.967 25.5752 49.3381 25.4923C49.7093 25.4095 50.0804 25.64 50.1633 26.0111C50.2462 26.3822 50.0155 26.7532 49.6444 26.8361C49.2732 26.919 48.9021 26.6884 48.8192 26.3173Z" fill="#FFFBFC"/>
</g>
<g style="mix-blend-mode:lighten">
<path d="M58.1299 30.3199C58.4362 30.7018 58.3785 31.2602 57.9966 31.57C57.6146 31.8762 57.0561 31.8186 56.7462 31.4367C56.4399 31.0548 56.4976 30.4964 56.8795 30.1866C57.2615 29.8804 57.82 29.938 58.1299 30.3199Z" fill="#FFFBFC"/>
</g>
<g style="mix-blend-mode:lighten">
<path d="M61.3405 29.3614C61.6 29.6856 61.5495 30.1576 61.2252 30.417C60.9009 30.6764 60.4289 30.6259 60.1694 30.3017C59.91 29.9775 59.9604 29.5055 60.2847 29.2461C60.609 28.9867 61.0811 29.0372 61.3405 29.3614Z" fill="#FFFBFC"/>
</g>
<g style="mix-blend-mode:lighten">
<path d="M61.4597 24.653C61.5894 24.8151 61.5642 25.0565 61.402 25.1862C61.2399 25.3158 60.9984 25.2906 60.8687 25.1285C60.739 24.9664 60.7642 24.725 60.9264 24.5953C61.0885 24.4656 61.3299 24.4908 61.4597 24.653Z" fill="#FFFBFC"/>
</g>
<g style="mix-blend-mode:lighten">
<path d="M70.6881 35.803C70.634 35.5833 70.7709 35.3599 70.9908 35.3059C71.2106 35.2518 71.434 35.3887 71.488 35.6085C71.5421 35.8282 71.4051 36.0516 71.1853 36.1057C70.9655 36.1597 70.7421 36.0228 70.6881 35.803Z" fill="#FFFBFC"/>
</g>
<g style="mix-blend-mode:lighten">
<path d="M63.8559 28.9797C63.7947 28.7239 63.9532 28.4645 64.2091 28.4032C64.4649 28.342 64.7243 28.5005 64.7856 28.7563C64.8469 29.0121 64.6883 29.2715 64.4325 29.3327C64.1766 29.394 63.9172 29.2354 63.8559 28.9797Z" fill="#FFFBFC"/>
</g>
<g style="mix-blend-mode:lighten">
<path d="M56.5666 35.45C56.4801 35.0861 56.7035 34.7222 57.0674 34.6322C57.4314 34.5457 57.7953 34.7691 57.8854 35.1329C57.9719 35.4968 57.7485 35.8607 57.3845 35.9507C57.0206 36.0372 56.6566 35.8138 56.5666 35.45Z" fill="#FFFBFC"/>
</g>
<g style="mix-blend-mode:lighten">
<path d="M55.3879 40.5947C55.3303 40.3605 55.4744 40.1299 55.7086 40.0723C55.9429 40.0146 56.1735 40.1587 56.2311 40.3929C56.2888 40.6271 56.1447 40.8576 55.9104 40.9153C55.6762 40.9729 55.4456 40.8288 55.3879 40.5947Z" fill="#FFFBFC"/>
</g>
<g style="mix-blend-mode:lighten">
<path d="M49.2264 31.2008C49.1075 30.7037 49.4138 30.2029 49.9111 30.084C50.4083 29.9651 50.9092 30.2714 51.0281 30.7685C51.147 31.2657 50.8407 31.7665 50.3435 31.8853C49.8462 32.0042 49.3453 31.698 49.2264 31.2008Z" fill="#FFFBFC"/>
</g>
<g style="mix-blend-mode:lighten">
<path d="M52.1081 45.9242C51.9928 45.4487 52.2883 44.9695 52.7639 44.8542C53.2395 44.7389 53.7188 45.0344 53.8341 45.5099C53.9494 45.9855 53.6539 46.4646 53.1783 46.5799C52.7026 46.6952 52.2234 46.3998 52.1081 45.9242Z" fill="#FFFBFC"/>
</g>
<g style="mix-blend-mode:lighten">
<path d="M44.488 42.792C44.3907 42.3885 44.6393 41.9815 45.0429 41.8878C45.4465 41.7905 45.8537 42.0391 45.9474 42.4426C46.0447 42.8461 45.796 43.2532 45.3925 43.3469C44.9889 43.4441 44.5817 43.1955 44.488 42.792Z" fill="#FFFBFC"/>
</g>
<g style="mix-blend-mode:lighten">
<path d="M42.3654 46.9999C42.3149 46.7945 42.441 46.5928 42.6464 46.5424C42.8518 46.4919 43.0536 46.618 43.1041 46.8234C43.1545 47.0287 43.0284 47.2305 42.823 47.2809C42.6176 47.3313 42.4158 47.2052 42.3654 46.9999Z" fill="#FFFBFC"/>
</g>
<g style="mix-blend-mode:lighten">
<path d="M80.6935 67.5363C81.0286 67.4751 81.3529 67.6948 81.4142 68.0299C81.4754 68.3649 81.2556 68.6891 80.9205 68.7504C80.5854 68.8116 80.2611 68.5919 80.1998 68.2568C80.1386 67.9218 80.3584 67.5975 80.6935 67.5363Z" fill="#FFFBFC"/>
</g>
<g style="mix-blend-mode:lighten">
<path d="M62.2059 67.8051C62.4221 67.7655 62.6275 67.906 62.6671 68.1222C62.7067 68.3383 62.5662 68.5437 62.35 68.5833C62.1338 68.6229 61.9284 68.4824 61.8888 68.2663C61.8491 68.0501 61.9897 67.8448 62.2059 67.8051Z" fill="#FFFBFC"/>
</g>
<g style="mix-blend-mode:lighten">
<path d="M63.0451 63.1504C63.5063 63.064 63.9459 63.3666 64.0324 63.8277C64.1189 64.2889 63.8162 64.7284 63.355 64.8148C62.8937 64.9013 62.4541 64.5987 62.3677 64.1375C62.2812 63.6764 62.5839 63.2369 63.0451 63.1504Z" fill="#FFFBFC"/>
</g>
<g style="mix-blend-mode:lighten">
<path d="M60.0866 60.7512C60.5262 60.6683 60.9514 60.9601 61.0343 61.3997C61.1172 61.8392 60.8253 62.2643 60.3857 62.3472C59.9461 62.43 59.5209 62.1382 59.438 61.6987C59.3551 61.2592 59.647 60.834 60.0866 60.7512Z" fill="#FFFBFC"/>
</g>
<g style="mix-blend-mode:lighten">
<path d="M60.7031 57.7502C61.0743 57.6817 61.4346 57.9267 61.5031 58.2978C61.5715 58.6688 61.3265 59.0291 60.9553 59.0976C60.5842 59.166 60.2239 58.921 60.1554 58.55C60.0869 58.1789 60.332 57.8186 60.7031 57.7502Z" fill="#FFFBFC"/>
</g>
<g style="mix-blend-mode:lighten">
<path d="M56.9591 55.6211C57.1465 55.5851 57.3303 55.7112 57.3627 55.8985C57.3988 56.0859 57.2726 56.2696 57.0853 56.302C56.8979 56.3381 56.7141 56.212 56.6817 56.0246C56.6457 55.8373 56.7718 55.6536 56.9591 55.6211Z" fill="#FFFBFC"/>
</g>
<g style="mix-blend-mode:lighten">
<path d="M64.7962 23.1543C65.0124 23.4209 64.9691 23.81 64.7025 24.0261C64.4358 24.2423 64.0467 24.1991 63.8305 23.9325C63.6143 23.6659 63.6575 23.2768 63.9242 23.0606C64.1908 22.8445 64.58 22.8877 64.7962 23.1543Z" fill="#FFFBFC"/>
</g>
<g style="mix-blend-mode:lighten">
<path d="M72.5077 29.0262C72.7635 29.3469 72.713 29.8116 72.3959 30.0674C72.0752 30.3232 71.6104 30.2727 71.3546 29.9557C71.0987 29.6351 71.1492 29.1703 71.4663 28.9145C71.787 28.6587 72.2518 28.7092 72.5077 29.0262Z" fill="#FFFBFC"/>
</g>
<path d="M71.7258 23.8711C71.8664 24.0476 71.8412 24.3034 71.6646 24.4475C71.488 24.588 71.2322 24.5628 71.088 24.3863C70.9475 24.2097 70.9727 23.9539 71.1493 23.8098C71.3259 23.6693 71.5817 23.6945 71.7258 23.8711Z" fill="#FFFBFC"/>
<path d="M78.331 21.6121C78.4715 21.7851 78.4427 22.0372 78.2697 22.1777C78.0967 22.3182 77.8445 22.2894 77.704 22.1165C77.5634 21.9436 77.5923 21.6914 77.7652 21.5509C77.9382 21.4104 78.1904 21.4392 78.331 21.6121Z" fill="#FFFBFC"/>
<mask id="path-123-outside-1_46_2949" maskUnits="userSpaceOnUse" x="59" y="37" width="22" height="22" fill="black">
<rect fill="white" x="59" y="37" width="22" height="22"/>
<path d="M76.0028 40.3412L78.3649 57H74.5901L74.2398 53.5756H68.1029L66.2268 57H62.5877L72.0698 40.3412H76.0028ZM73.1887 44.1499L69.6513 50.7049H73.8781L73.1887 44.1499Z"/>
</mask>
<path d="M76.0028 40.3412L78.3649 57H74.5901L74.2398 53.5756H68.1029L66.2268 57H62.5877L72.0698 40.3412H76.0028ZM73.1887 44.1499L69.6513 50.7049H73.8781L73.1887 44.1499Z" fill="white"/>
<path d="M76.0028 40.3412L77.9126 40.0705L77.6775 38.4124H76.0028V40.3412ZM78.3649 57V58.9288H80.5865L80.2746 56.7292L78.3649 57ZM74.5901 57L72.6713 57.1963L72.8486 58.9288H74.5901V57ZM74.2398 53.5756L76.1586 53.3793L75.9813 51.6467H74.2398V53.5756ZM68.1029 53.5756V51.6467H66.9603L66.4113 52.6488L68.1029 53.5756ZM66.2268 57V58.9288H67.3695L67.9184 57.9268L66.2268 57ZM62.5877 57L60.9114 56.0459L59.2704 58.9288H62.5877V57ZM72.0698 40.3412V38.4124H70.9483L70.3935 39.3871L72.0698 40.3412ZM73.1887 44.1499L75.107 43.9482L74.4544 37.7432L71.4913 43.2339L73.1887 44.1499ZM69.6513 50.7049L67.9538 49.7889L66.4186 52.6338H69.6513V50.7049ZM73.8781 50.7049V52.6338H76.0204L75.7964 50.5032L73.8781 50.7049ZM74.0931 40.612L76.4552 57.2708L80.2746 56.7292L77.9126 40.0705L74.0931 40.612ZM78.3649 55.0712H74.5901V58.9288H78.3649V55.0712ZM76.5089 56.8037L76.1586 53.3793L72.321 53.7719L72.6713 57.1963L76.5089 56.8037ZM74.2398 51.6467H68.1029V55.5044H74.2398V51.6467ZM66.4113 52.6488L64.5352 56.0732L67.9184 57.9268L69.7945 54.5023L66.4113 52.6488ZM66.2268 55.0712H62.5877V58.9288H66.2268V55.0712ZM64.264 57.9541L73.7461 41.2954L70.3935 39.3871L60.9114 56.0459L64.264 57.9541ZM72.0698 42.2701H76.0028V38.4124H72.0698V42.2701ZM71.4913 43.2339L67.9538 49.7889L71.3487 51.621L74.8861 45.066L71.4913 43.2339ZM69.6513 52.6338H73.8781V48.7761H69.6513V52.6338ZM75.7964 50.5032L75.107 43.9482L71.2705 44.3517L71.9599 50.9067L75.7964 50.5032Z" fill="#0089A7" mask="url(#path-123-outside-1_46_2949)"/>
<defs>
<filter id="filter0_d_46_2949" x="-4.96484" y="-27.4465" width="152.528" height="152.528" filterUnits="userSpaceOnUse" color-interpolation-filters="sRGB">
<feFlood flood-opacity="0" result="BackgroundImageFix"/>
<feColorMatrix in="SourceAlpha" type="matrix" values="0 0 0 0 0 0 0 0 0 0 0 0 0 0 0 0 0 0 127 0" result="hardAlpha"/>
<feOffset/>
<feGaussianBlur stdDeviation="25"/>
<feComposite in2="hardAlpha" operator="out"/>
<feColorMatrix type="matrix" values="0 0 0 0 0.227451 0 0 0 0 0.909804 0 0 0 0 0.41851 0 0 0 0.6 0"/>
<feBlend mode="normal" in2="BackgroundImageFix" result="effect1_dropShadow_46_2949"/>
<feBlend mode="normal" in="SourceGraphic" in2="effect1_dropShadow_46_2949" result="shape"/>
</filter>
<clipPath id="paint1_diamond_46_2949_clip_path"><path d="M63.8718 56.3516L61.1088 46.9716L52.4102 44.6183C52.4102 44.6183 52.6143 57.7173 59.2674 65.3925L63.8718 56.3516Z"/></clipPath><clipPath id="paint2_diamond_46_2949_clip_path"><path d="M61.1088 46.9731C61.1088 46.9731 65.9865 40.4926 71.7526 38.4965V27.2209C71.7526 27.2209 57.1857 36.9102 52.4102 44.6183L61.1088 46.9716V46.9731Z"/></clipPath><clipPath id="paint5_diamond_46_2949_clip_path"><path d="M82.3947 46.9731C82.3947 46.9731 77.5171 40.4926 71.751 38.4965V27.2209C71.751 27.2209 86.3163 36.9087 91.0934 44.6183L82.3947 46.9716V46.9731Z"/></clipPath><clipPath id="paint6_diamond_46_2949_clip_path"><path d="M71.7512 38.4965V60.8811L63.872 56.3531L61.109 46.9731C61.109 46.9731 64.3838 40.5601 71.7527 38.4965H71.7512Z"/></clipPath><clipPath id="paint7_diamond_46_2949_clip_path"><path d="M71.751 38.4965V60.8811L79.6303 56.3531L82.3932 46.9731C82.3932 46.9731 79.1185 40.5601 71.7495 38.4965H71.751Z"/></clipPath><filter id="filter1_f_46_2949" x="70.2047" y="49.8241" width="27.9095" height="27.9095" filterUnits="userSpaceOnUse" color-interpolation-filters="sRGB">
<feFlood flood-opacity="0" result="BackgroundImageFix"/>
<feBlend mode="normal" in="SourceGraphic" in2="BackgroundImageFix" result="shape"/>
<feGaussianBlur stdDeviation="5.5" result="effect1_foregroundBlur_46_2949"/>
</filter>
<filter id="filter2_f_46_2949" x="39.7383" y="29.8633" width="28.91" height="28.91" filterUnits="userSpaceOnUse" color-interpolation-filters="sRGB">
<feFlood flood-opacity="0" result="BackgroundImageFix"/>
<feBlend mode="normal" in="SourceGraphic" in2="BackgroundImageFix" result="shape"/>
<feGaussianBlur stdDeviation="5.5" result="effect1_foregroundBlur_46_2949"/>
</filter>
<filter id="filter3_f_46_2949" x="70.9551" y="24.9106" width="26.4188" height="26.4188" filterUnits="userSpaceOnUse" color-interpolation-filters="sRGB">
<feFlood flood-opacity="0" result="BackgroundImageFix"/>
<feBlend mode="normal" in="SourceGraphic" in2="BackgroundImageFix" result="shape"/>
<feGaussianBlur stdDeviation="5.5" result="effect1_foregroundBlur_46_2949"/>
</filter>
<filter id="filter4_f_46_2949" x="46.0228" y="27.5482" width="49.0008" height="49.5076" filterUnits="userSpaceOnUse" color-interpolation-filters="sRGB">
<feFlood flood-opacity="0" result="BackgroundImageFix"/>
<feBlend mode="normal" in="SourceGraphic" in2="BackgroundImageFix" result="shape"/>
<feGaussianBlur stdDeviation="6.635" result="effect1_foregroundBlur_46_2949"/>
</filter>
<filter id="filter5_f_46_2949" x="54.1482" y="34.4267" width="13.1404" height="13.1461" filterUnits="userSpaceOnUse" color-interpolation-filters="sRGB">
<feFlood flood-opacity="0" result="BackgroundImageFix"/>
<feBlend mode="normal" in="SourceGraphic" in2="BackgroundImageFix" result="shape"/>
<feGaussianBlur stdDeviation="3" result="effect1_foregroundBlur_46_2949"/>
</filter>
<filter id="filter6_f_46_2949" x="79.4436" y="48.769" width="12.9679" height="12.9728" filterUnits="userSpaceOnUse" color-interpolation-filters="sRGB">
<feFlood flood-opacity="0" result="BackgroundImageFix"/>
<feBlend mode="normal" in="SourceGraphic" in2="BackgroundImageFix" result="shape"/>
<feGaussianBlur stdDeviation="3" result="effect1_foregroundBlur_46_2949"/>
</filter>
<filter id="filter7_f_46_2949" x="54.946" y="52.6107" width="13.1154" height="13.1209" filterUnits="userSpaceOnUse" color-interpolation-filters="sRGB">
<feFlood flood-opacity="0" result="BackgroundImageFix"/>
<feBlend mode="normal" in="SourceGraphic" in2="BackgroundImageFix" result="shape"/>
<feGaussianBlur stdDeviation="3" result="effect1_foregroundBlur_46_2949"/>
</filter>
<filter id="filter8_f_46_2949" x="39.0872" y="16.9546" width="53.9302" height="55.073" filterUnits="userSpaceOnUse" color-interpolation-filters="sRGB">
<feFlood flood-opacity="0" result="BackgroundImageFix"/>
<feBlend mode="normal" in="SourceGraphic" in2="BackgroundImageFix" result="shape"/>
<feGaussianBlur stdDeviation="1.63368" result="effect1_foregroundBlur_46_2949"/>
</filter>
<radialGradient id="paint0_radial_46_2949" cx="0" cy="0" r="1" gradientUnits="userSpaceOnUse" gradientTransform="translate(64.8457 56.922) rotate(63.435) scale(15.4372 12.9168)">
<stop stop-color="#006339"/>
<stop offset="0.414319" stop-color="#00BD79"/>
<stop offset="0.852751" stop-color="#00632E"/>
</radialGradient>
<linearGradient id="paint1_diamond_46_2949" x1="0" y1="0" x2="500" y2="500" gradientUnits="userSpaceOnUse">
<stop stop-color="#00FF93"/>
<stop offset="0.541667" stop-color="#469871"/>
<stop offset="1" stop-color="#006339"/>
</linearGradient>
<linearGradient id="paint2_diamond_46_2949" x1="0" y1="0" x2="500" y2="500" gradientUnits="userSpaceOnUse">
<stop stop-color="#006339"/>
<stop offset="0.473958" stop-color="#36D680"/>
<stop offset="1" stop-color="#22C778"/>
</linearGradient>
<radialGradient id="paint3_radial_46_2949" cx="0" cy="0" r="1" gradientUnits="userSpaceOnUse" gradientTransform="translate(84.2062 65.4766) rotate(-157.257) scale(16.1106 27.0715)">
<stop stop-color="#006339"/>
<stop offset="0.356211" stop-color="#27DD70"/>
<stop offset="0.763504" stop-color="#009C3E"/>
</radialGradient>
<radialGradient id="paint4_radial_46_2949" cx="0" cy="0" r="1" gradientUnits="userSpaceOnUse" gradientTransform="translate(83.756 64.426) rotate(-70.7873) scale(20.9791 37.3706)">
<stop stop-color="#006339"/>
<stop offset="0.338542" stop-color="#35D59B"/>
<stop offset="1" stop-color="#009C64"/>
</radialGradient>
<linearGradient id="paint5_diamond_46_2949" x1="0" y1="0" x2="500" y2="500" gradientUnits="userSpaceOnUse">
<stop stop-color="#006339"/>
<stop offset="0.447917" stop-color="#27DD91"/>
<stop offset="1" stop-color="#009C3E"/>
</linearGradient>
<linearGradient id="paint6_diamond_46_2949" x1="0" y1="0" x2="500" y2="500" gradientUnits="userSpaceOnUse">
<stop stop-color="#006339"/>
<stop offset="0.666667" stop-color="#2EE095"/>
<stop offset="1" stop-color="#00B65F"/>
</linearGradient>
<linearGradient id="paint7_diamond_46_2949" x1="0" y1="0" x2="500" y2="500" gradientUnits="userSpaceOnUse">
<stop stop-color="#006339"/>
<stop offset="1" stop-color="#36E390"/>
</linearGradient>
<linearGradient id="paint8_linear_46_2949" x1="68.898" y1="38.462" x2="75.8017" y2="56.3216" gradientUnits="userSpaceOnUse">
<stop stop-color="white" stop-opacity="0.4"/>
<stop offset="1" stop-color="white" stop-opacity="0"/>
</linearGradient>
<linearGradient id="paint9_linear_46_2949" x1="60.6435" y1="47.0166" x2="68.5978" y2="69.9039" gradientUnits="userSpaceOnUse">
<stop stop-color="white" stop-opacity="0.77"/>
<stop offset="0.642325" stop-color="white" stop-opacity="0"/>
</linearGradient>
<linearGradient id="paint10_linear_46_2949" x1="71.7495" y1="26.6806" x2="52.389" y2="44.6153" gradientUnits="userSpaceOnUse">
<stop stop-color="#DADADA"/>
<stop offset="1" stop-color="white" stop-opacity="0"/>
</linearGradient>
<linearGradient id="paint11_linear_46_2949" x1="71.7495" y1="26.6806" x2="52.389" y2="44.6153" gradientUnits="userSpaceOnUse">
<stop stop-color="#DADADA"/>
<stop offset="1" stop-color="white" stop-opacity="0"/>
</linearGradient>
<radialGradient id="paint12_radial_46_2949" cx="0" cy="0" r="1" gradientUnits="userSpaceOnUse" gradientTransform="translate(77.9936 68.0265) rotate(90) scale(2.63242 6.24261)">
<stop stop-color="white"/>
<stop offset="1" stop-color="white" stop-opacity="0"/>
</radialGradient>
<radialGradient id="paint13_radial_46_2949" cx="0" cy="0" r="1" gradientUnits="userSpaceOnUse" gradientTransform="translate(77.0728 42.7062) rotate(90) scale(4.2669 5.32187)">
<stop stop-color="white"/>
<stop offset="1" stop-color="white" stop-opacity="0"/>
</radialGradient>
<radialGradient id="paint14_radial_46_2949" cx="0" cy="0" r="1" gradientUnits="userSpaceOnUse" gradientTransform="translate(56.7595 45.6789) rotate(90.5567) scale(1.8631 6.26111)">
<stop stop-color="white"/>
<stop offset="1" stop-color="white" stop-opacity="0"/>
</radialGradient>
</defs>
</svg>
