<svg width="78" height="84" viewBox="0 0 78 84" fill="none" xmlns="http://www.w3.org/2000/svg">
<g filter="url(#filter0_d_46_2944)">
<path d="M40.141 64.1542L27.6575 58.8894L32.2619 49.8472L40.141 54.3766V64.1542Z" fill="url(#paint0_radial_46_2944)"/>
<g clip-path="url(#paint1_diamond_46_2944_clip_path)" data-figma-skip-parse="true"><g transform="matrix(0.00225117 0.0207858 -0.0228167 0.00247112 25.5819 37.1356)"><rect x="0" y="0" width="1087.99" height="326.696" fill="url(#paint1_diamond_46_2944)" opacity="1" shape-rendering="crispEdges"/><rect x="0" y="0" width="1087.99" height="326.696" transform="scale(1 -1)" fill="url(#paint1_diamond_46_2944)" opacity="1" shape-rendering="crispEdges"/><rect x="0" y="0" width="1087.99" height="326.696" transform="scale(-1 1)" fill="url(#paint1_diamond_46_2944)" opacity="1" shape-rendering="crispEdges"/><rect x="0" y="0" width="1087.99" height="326.696" transform="scale(-1)" fill="url(#paint1_diamond_46_2944)" opacity="1" shape-rendering="crispEdges"/></g></g><path d="M32.262 49.8472L29.4991 40.4673L20.8005 38.1141C20.8005 38.1141 21.0046 51.2129 27.6576 58.8879L32.262 49.8472Z" data-figma-gradient-fill="{&#34;type&#34;:&#34;GRADIENT_DIAMOND&#34;,&#34;stops&#34;:[{&#34;color&#34;:{&#34;r&#34;:0.93607842922210693,&#34;g&#34;:1.0,&#34;b&#34;:0.36078432202339172,&#34;a&#34;:1.0},&#34;position&#34;:0.0},{&#34;color&#34;:{&#34;r&#34;:0.56528496742248535,&#34;g&#34;:0.59773856401443481,&#34;b&#34;:0.27320262789726257,&#34;a&#34;:1.0},&#34;position&#34;:0.54166668653488159},{&#34;color&#34;:{&#34;r&#34;:0.34941178560256958,&#34;g&#34;:0.38823530077934265,&#34;b&#34;:0.0,&#34;a&#34;:1.0},&#34;position&#34;:1.0}],&#34;stopsVar&#34;:[],&#34;transform&#34;:{&#34;m00&#34;:4.5023469924926758,&#34;m01&#34;:-45.633304595947266,&#34;m02&#34;:46.147418975830078,&#34;m10&#34;:41.571674346923828,&#34;m11&#34;:4.9422345161437988,&#34;m12&#34;:13.878606796264648},&#34;opacity&#34;:1.0,&#34;blendMode&#34;:&#34;NORMAL&#34;,&#34;visible&#34;:true}"/>
<g clip-path="url(#paint2_diamond_46_2944_clip_path)" data-figma-skip-parse="true"><g transform="matrix(-0.0215362 0.01921 -0.00897287 -0.0396097 42.3157 18.676)"><rect x="0" y="0" width="1039.07" height="431.49" fill="url(#paint2_diamond_46_2944)" opacity="1" shape-rendering="crispEdges"/><rect x="0" y="0" width="1039.07" height="431.49" transform="scale(1 -1)" fill="url(#paint2_diamond_46_2944)" opacity="1" shape-rendering="crispEdges"/><rect x="0" y="0" width="1039.07" height="431.49" transform="scale(-1 1)" fill="url(#paint2_diamond_46_2944)" opacity="1" shape-rendering="crispEdges"/><rect x="0" y="0" width="1039.07" height="431.49" transform="scale(-1)" fill="url(#paint2_diamond_46_2944)" opacity="1" shape-rendering="crispEdges"/></g></g><path d="M29.4991 40.4688C29.4991 40.4688 34.3766 33.9885 40.1426 31.9924V20.717C40.1426 20.717 25.576 30.4061 20.8005 38.1141L29.4991 40.4673V40.4688Z" data-figma-gradient-fill="{&#34;type&#34;:&#34;GRADIENT_DIAMOND&#34;,&#34;stops&#34;:[{&#34;color&#34;:{&#34;r&#34;:0.93607842922210693,&#34;g&#34;:1.0,&#34;b&#34;:0.36078432202339172,&#34;a&#34;:1.0},&#34;position&#34;:0.0},{&#34;color&#34;:{&#34;r&#34;:0.77647060155868530,&#34;g&#34;:0.83921569585800171,&#34;b&#34;:0.21176470816135406,&#34;a&#34;:1.0},&#34;position&#34;:0.47395834326744080},{&#34;color&#34;:{&#34;r&#34;:0.71568626165390015,&#34;g&#34;:0.78039216995239258,&#34;b&#34;:0.13333334028720856,&#34;a&#34;:1.0},&#34;position&#34;:1.0}],&#34;stopsVar&#34;:[],&#34;transform&#34;:{&#34;m00&#34;:-43.072452545166016,&#34;m01&#34;:-17.945745468139648,&#34;m02&#34;:72.824752807617188,&#34;m10&#34;:38.420028686523438,&#34;m11&#34;:-79.219436645507812,&#34;m12&#34;:39.075668334960938},&#34;opacity&#34;:1.0,&#34;blendMode&#34;:&#34;NORMAL&#34;,&#34;visible&#34;:true}"/>
<path d="M40.141 64.1542L52.626 58.8894L48.0216 49.8472L40.141 54.3766V64.1542Z" fill="url(#paint3_radial_46_2944)"/>
<path d="M48.0219 49.8472L50.7848 40.4673L59.4833 38.1141C59.4833 38.1141 59.2792 51.2129 52.6263 58.8879L48.0219 49.8472Z" fill="url(#paint4_radial_46_2944)"/>
<g clip-path="url(#paint5_diamond_46_2944_clip_path)" data-figma-skip-parse="true"><g transform="matrix(-0.0206358 -0.0174091 0.0381804 -0.0349351 60.7753 38.4113)"><rect x="0" y="0" width="1027.07" height="299.915" fill="url(#paint5_diamond_46_2944)" opacity="1" shape-rendering="crispEdges"/><rect x="0" y="0" width="1027.07" height="299.915" transform="scale(1 -1)" fill="url(#paint5_diamond_46_2944)" opacity="1" shape-rendering="crispEdges"/><rect x="0" y="0" width="1027.07" height="299.915" transform="scale(-1 1)" fill="url(#paint5_diamond_46_2944)" opacity="1" shape-rendering="crispEdges"/><rect x="0" y="0" width="1027.07" height="299.915" transform="scale(-1)" fill="url(#paint5_diamond_46_2944)" opacity="1" shape-rendering="crispEdges"/></g></g><path d="M50.7845 40.4688C50.7845 40.4688 45.907 33.9885 40.141 31.9924V20.717C40.141 20.717 54.7061 30.4046 59.4831 38.1141L50.7845 40.4673V40.4688Z" data-figma-gradient-fill="{&#34;type&#34;:&#34;GRADIENT_DIAMOND&#34;,&#34;stops&#34;:[{&#34;color&#34;:{&#34;r&#34;:0.93607842922210693,&#34;g&#34;:1.0,&#34;b&#34;:0.36078432202339172,&#34;a&#34;:1.0},&#34;position&#34;:0.0},{&#34;color&#34;:{&#34;r&#34;:0.79529410600662231,&#34;g&#34;:0.86666667461395264,&#34;b&#34;:0.15294118225574493,&#34;a&#34;:1.0},&#34;position&#34;:0.44791665673255920},{&#34;color&#34;:{&#34;r&#34;:0.55058825016021729,&#34;g&#34;:0.61176472902297974,&#34;b&#34;:0.0,&#34;a&#34;:1.0},&#34;position&#34;:1.0}],&#34;stopsVar&#34;:[],&#34;transform&#34;:{&#34;m00&#34;:-41.271526336669922,&#34;m01&#34;:76.360839843750,&#34;m02&#34;:43.230632781982422,&#34;m10&#34;:-34.818153381347656,&#34;m11&#34;:-69.870300292968750,&#34;m12&#34;:90.755477905273438},&#34;opacity&#34;:1.0,&#34;blendMode&#34;:&#34;NORMAL&#34;,&#34;visible&#34;:true}"/>
<g clip-path="url(#paint6_diamond_46_2944_clip_path)" data-figma-skip-parse="true"><g transform="matrix(0.00300157 0.0207108 -0.0262091 0.00379841 37.138 33.6088)"><rect x="0" y="0" width="1022.47" height="413.543" fill="url(#paint6_diamond_46_2944)" opacity="1" shape-rendering="crispEdges"/><rect x="0" y="0" width="1022.47" height="413.543" transform="scale(1 -1)" fill="url(#paint6_diamond_46_2944)" opacity="1" shape-rendering="crispEdges"/><rect x="0" y="0" width="1022.47" height="413.543" transform="scale(-1 1)" fill="url(#paint6_diamond_46_2944)" opacity="1" shape-rendering="crispEdges"/><rect x="0" y="0" width="1022.47" height="413.543" transform="scale(-1)" fill="url(#paint6_diamond_46_2944)" opacity="1" shape-rendering="crispEdges"/></g></g><path d="M40.1413 31.9924V54.3766L32.2621 49.8487L29.4992 40.4689C29.4992 40.4689 32.7739 34.056 40.1428 31.9924H40.1413Z" data-figma-gradient-fill="{&#34;type&#34;:&#34;GRADIENT_DIAMOND&#34;,&#34;stops&#34;:[{&#34;color&#34;:{&#34;r&#34;:0.93607842922210693,&#34;g&#34;:1.0,&#34;b&#34;:0.36078432202339172,&#34;a&#34;:1.0},&#34;position&#34;:0.0},{&#34;color&#34;:{&#34;r&#34;:0.80862748622894287,&#34;g&#34;:0.87843137979507446,&#34;b&#34;:0.18039216101169586,&#34;a&#34;:1.0},&#34;position&#34;:0.66666668653488159},{&#34;color&#34;:{&#34;r&#34;:0.64235293865203857,&#34;g&#34;:0.71372550725936890,&#34;b&#34;:0.0,&#34;a&#34;:1.0},&#34;position&#34;:1.0}],&#34;stopsVar&#34;:[],&#34;transform&#34;:{&#34;m00&#34;:6.0031299591064453,&#34;m01&#34;:-52.418117523193359,&#34;m02&#34;:60.345451354980469,&#34;m10&#34;:41.421600341796875,&#34;m11&#34;:7.5968275070190430,&#34;m12&#34;:9.0995645523071289},&#34;opacity&#34;:1.0,&#34;blendMode&#34;:&#34;NORMAL&#34;,&#34;visible&#34;:true}"/>
<g clip-path="url(#paint7_diamond_46_2944_clip_path)" data-figma-skip-parse="true"><g transform="matrix(0.00367692 0.00802919 -0.0089731 0.00410918 41.7153 43.2138)"><rect x="0" y="0" width="1631.54" height="1357.76" fill="url(#paint7_diamond_46_2944)" opacity="1" shape-rendering="crispEdges"/><rect x="0" y="0" width="1631.54" height="1357.76" transform="scale(1 -1)" fill="url(#paint7_diamond_46_2944)" opacity="1" shape-rendering="crispEdges"/><rect x="0" y="0" width="1631.54" height="1357.76" transform="scale(-1 1)" fill="url(#paint7_diamond_46_2944)" opacity="1" shape-rendering="crispEdges"/><rect x="0" y="0" width="1631.54" height="1357.76" transform="scale(-1)" fill="url(#paint7_diamond_46_2944)" opacity="1" shape-rendering="crispEdges"/></g></g><path d="M40.141 31.9924V54.3766L48.0201 49.8487L50.7831 40.4689C50.7831 40.4689 47.5084 34.056 40.1395 31.9924H40.141Z" data-figma-gradient-fill="{&#34;type&#34;:&#34;GRADIENT_DIAMOND&#34;,&#34;stops&#34;:[{&#34;color&#34;:{&#34;r&#34;:0.93607842922210693,&#34;g&#34;:1.0,&#34;b&#34;:0.36078432202339172,&#34;a&#34;:1.0},&#34;position&#34;:0.0},{&#34;color&#34;:{&#34;r&#34;:0.82235294580459595,&#34;g&#34;:0.89019608497619629,&#34;b&#34;:0.21176470816135406,&#34;a&#34;:1.0},&#34;position&#34;:1.0}],&#34;stopsVar&#34;:[],&#34;transform&#34;:{&#34;m00&#34;:7.3538355827331543,&#34;m01&#34;:-17.946199417114258,&#34;m02&#34;:47.011528015136719,&#34;m10&#34;:16.058374404907227,&#34;m11&#34;:8.2183551788330078,&#34;m12&#34;:31.075420379638672},&#34;opacity&#34;:1.0,&#34;blendMode&#34;:&#34;NORMAL&#34;,&#34;visible&#34;:true}"/>
<g style="mix-blend-mode:soft-light">
<path d="M29.4992 40.4689C29.4992 40.4689 37.3783 48.2774 48.0219 49.8487L49.5241 44.7506C49.5241 44.7506 42.1898 39.1737 40.1428 31.9924C39.0127 32.3121 37.701 32.8029 36.3308 33.5743C32.5758 35.6889 30.4972 38.7219 29.4992 40.4689Z" fill="white"/>
</g>
<path d="M29.4992 40.4689C29.4992 40.4689 37.3783 48.2774 48.0219 49.8487L49.5241 44.7506C49.5241 44.7506 42.1898 39.1737 40.1428 31.9924C39.0127 32.3121 37.701 32.8029 36.3308 33.5743C32.5758 35.6889 30.4972 38.7219 29.4992 40.4689Z" fill="url(#paint8_linear_46_2944)"/>
<g style="mix-blend-mode:soft-light">
<path d="M31.486 47.2164C31.486 47.2164 40.054 51.4801 45.7089 51.1769L43.6393 52.3656C43.6393 52.3656 39.8003 53.1129 35.5186 51.7202L32.2604 49.8487L31.4845 47.2164H31.486Z" fill="white"/>
</g>
<g style="mix-blend-mode:soft-light">
<path d="M47.3389 39.2742C47.3389 39.2742 50.1363 36.1901 52.6261 30.4331C52.6261 30.4331 57.7093 34.8409 59.4832 38.1156C59.4832 38.1156 59.2896 44.8286 57.6432 49.1959C57.6432 49.1959 58.5287 45.6886 47.3389 39.2757V39.2742Z" fill="white"/>
</g>
<path opacity="0.3" d="M47.3389 39.2742C47.3389 39.2742 50.1363 36.1901 52.6261 30.4331C52.6261 30.4331 57.7093 34.8409 59.4832 38.1156C59.4832 38.1156 59.2896 44.8286 57.6432 49.1959C57.6432 49.1959 58.5287 45.6886 47.3389 39.2757V39.2742Z" fill="white"/>
<g style="mix-blend-mode:soft-light" opacity="0.5">
<path d="M40.1411 64.1542C40.1411 64.1542 28.1349 53.275 29.4976 40.4689C29.4976 40.4689 25.6436 46.439 27.6561 58.8895L40.1411 64.1542Z" fill="white"/>
</g>
<path d="M40.1411 64.1542C40.1411 64.1542 28.1349 53.275 29.4976 40.4689C29.4976 40.4689 25.6436 46.439 27.6561 58.8895L40.1411 64.1542Z" fill="url(#paint9_linear_46_2944)"/>
<g style="mix-blend-mode:soft-light">
<path d="M20.8005 38.1141C20.8005 38.1141 35.5621 22.8031 37.4472 25.6291C37.4472 25.6291 39.1536 26.8237 40.1426 31.9909V20.717C40.1426 20.717 25.9857 29.9273 20.8005 38.1141Z" fill="url(#paint10_linear_46_2944)"/>
</g>
<path opacity="0.8" d="M20.8005 38.1141C20.8005 38.1141 35.7122 22.7281 37.4472 25.6291C37.4472 25.6291 39.1536 26.8237 40.1426 31.9909V20.717C40.1426 20.717 25.9857 29.9273 20.8005 38.1141Z" fill="url(#paint11_linear_46_2944)"/>
<g style="mix-blend-mode:soft-light">
<path d="M48.0219 49.8472L52.6263 56.3306C52.6263 56.3306 58.4598 50.1909 59.4833 38.1141C59.4038 41.1156 59.0166 43.664 58.5964 45.6525C58.1086 47.9577 57.5458 49.6416 57.3342 50.2569C56.7114 52.0638 55.8829 54.4126 54.094 56.9939C53.5237 57.8163 52.9969 58.4587 52.6278 58.8879C51.0925 55.8743 49.5572 52.8608 48.0234 49.8472H48.0219Z" fill="white"/>
</g>
<path opacity="0.7" d="M48.0219 49.8472L52.6263 56.3306C52.6263 56.3306 58.4598 50.1909 59.4833 38.1141C59.4038 41.1156 59.0166 43.664 58.5964 45.6525C58.1086 47.9577 57.5458 49.6416 57.3342 50.2569C56.7114 52.0638 55.8829 54.4126 54.094 56.9939C53.5237 57.8163 52.9969 58.4587 52.6278 58.8879C51.0925 55.8743 49.5572 52.8608 48.0234 49.8472H48.0219Z" fill="white"/>
<g style="mix-blend-mode:soft-light">
<path d="M52.626 58.8895L40.141 64.1542C40.141 64.1542 44.7454 59.7419 52.626 58.8895Z" fill="white"/>
</g>
<path d="M52.626 58.8895L40.141 64.1542C40.141 64.1542 44.7454 59.7419 52.626 58.8895Z" fill="url(#paint12_radial_46_2944)"/>
<g style="mix-blend-mode:soft-light">
<path d="M40.141 31.9925C40.141 31.9925 46.5193 33.1346 50.7845 40.4689C50.7845 40.4689 48.772 31.122 40.141 31.9925Z" fill="white"/>
</g>
<path d="M40.141 31.9925C40.141 31.9925 46.5193 33.1346 50.7845 40.4689C50.7845 40.4689 48.772 31.122 40.141 31.9925Z" fill="url(#paint13_radial_46_2944)"/>
<g style="mix-blend-mode:soft-light">
<path d="M29.4991 40.4688L20.8005 38.1156C20.8005 38.1156 24.8496 36.7814 29.4991 40.4688Z" fill="white"/>
</g>
<path d="M29.4991 40.4688L20.8005 38.1156C20.8005 38.1156 24.8496 36.7814 29.4991 40.4688Z" fill="url(#paint14_radial_46_2944)"/>
<path d="M52.5493 54.3196L53.0507 56.7729L55.504 57.2743L53.0507 57.7757L52.5493 60.229L52.0479 57.7757L49.5946 57.2743L52.0479 56.7729L52.5493 54.3196Z" fill="white"/>
<g filter="url(#filter1_f_46_2944)">
<path d="M52.5493 54.3196L53.0507 56.7729L55.504 57.2743L53.0507 57.7757L52.5493 60.229L52.0479 57.7757L49.5946 57.2743L52.0479 56.7729L52.5493 54.3196Z" fill="white"/>
</g>
<path d="M22.5837 34.3591L23.17 37.2278L26.0386 37.8141L23.17 38.4004L22.5837 41.269L21.9974 38.4004L19.1287 37.8141L21.9974 37.2278L22.5837 34.3591Z" fill="white"/>
<g filter="url(#filter2_f_46_2944)">
<path d="M22.5837 34.3591L23.17 37.2278L26.0386 37.8141L23.17 38.4004L22.5837 41.269L21.9974 38.4004L19.1287 37.8141L21.9974 37.2278L22.5837 34.3591Z" fill="white"/>
</g>
<path d="M52.5544 29.4066L52.9293 31.241L54.7638 31.6159L52.9293 31.9909L52.5544 33.8253L52.1795 31.9909L50.345 31.6159L52.1795 31.241L52.5544 29.4066Z" fill="white"/>
<g filter="url(#filter3_f_46_2944)">
<path d="M52.5544 29.4066L52.9293 31.241L54.7638 31.6159L52.9293 31.9909L52.5544 33.8253L52.1795 31.9909L50.345 31.6159L52.1795 31.241L52.5544 29.4066Z" fill="white"/>
</g>
<g style="mix-blend-mode:overlay" filter="url(#filter4_f_46_2944)">
<g style="mix-blend-mode:lighten">
<path d="M34.2895 34.556C34.2656 34.4503 34.3322 34.3429 34.4379 34.319C34.5437 34.2951 34.6511 34.3616 34.675 34.4673C34.6989 34.573 34.6324 34.6804 34.5266 34.7043C34.4209 34.7281 34.3134 34.6617 34.2895 34.556Z" fill="#FFFBFC"/>
</g>
<g style="mix-blend-mode:lighten">
<path d="M49.549 48.0299C49.5115 47.8679 49.6138 47.706 49.7759 47.6702C49.9379 47.6327 50.0999 47.7349 50.1358 47.8969C50.1733 48.0589 50.0709 48.2208 49.9089 48.2566C49.7469 48.2941 49.5848 48.1918 49.549 48.0299Z" fill="#FFFBFC"/>
</g>
<g style="mix-blend-mode:lighten">
<path d="M30.7693 37.1983C30.73 37.0227 30.8392 36.8471 31.0149 36.8079C31.1906 36.7687 31.3662 36.8778 31.4055 37.0534C31.4447 37.229 31.3355 37.4046 31.1599 37.4438C30.9842 37.483 30.8085 37.3739 30.7693 37.1983Z" fill="#FFFBFC"/>
</g>
<g style="mix-blend-mode:lighten">
<path d="M35.1764 39.0922C35.3214 39.2729 35.2941 39.5372 35.1133 39.6838C34.9325 39.8287 34.6682 39.8014 34.5215 39.6207C34.3765 39.44 34.4038 39.1757 34.5846 39.0291C34.7654 38.8842 35.0298 38.9115 35.1764 39.0922Z" fill="#FFFBFC"/>
</g>
<g style="mix-blend-mode:lighten">
<path d="M36.6961 38.6387C36.8189 38.7922 36.795 39.0155 36.6415 39.1382C36.488 39.261 36.2646 39.2371 36.1418 39.0837C36.019 38.9302 36.0428 38.7069 36.1963 38.5842C36.3499 38.4614 36.5733 38.4853 36.6961 38.6387Z" fill="#FFFBFC"/>
</g>
<g style="mix-blend-mode:lighten">
<path d="M36.7525 36.4108C36.8139 36.4875 36.802 36.6018 36.7252 36.6631C36.6485 36.7245 36.5342 36.7126 36.4728 36.6359C36.4114 36.5591 36.4233 36.4449 36.5001 36.3835C36.5768 36.3222 36.6911 36.3341 36.7525 36.4108Z" fill="#FFFBFC"/>
</g>
<g style="mix-blend-mode:lighten">
<path d="M41.1208 41.6868C41.0952 41.5828 41.16 41.4771 41.264 41.4515C41.3681 41.4259 41.4738 41.4907 41.4994 41.5947C41.525 41.6987 41.4602 41.8044 41.3561 41.83C41.2521 41.8555 41.1463 41.7908 41.1208 41.6868Z" fill="#FFFBFC"/>
</g>
<g style="mix-blend-mode:lighten">
<path d="M37.8868 38.4581C37.8578 38.3371 37.9328 38.2143 38.0539 38.1854C38.175 38.1564 38.2978 38.2314 38.3268 38.3524C38.3558 38.4735 38.2808 38.5962 38.1597 38.6252C38.0386 38.6542 37.9158 38.5792 37.8868 38.4581Z" fill="#FFFBFC"/>
</g>
<g style="mix-blend-mode:lighten">
<path d="M27.6949 47.3338C27.6403 47.1088 27.7802 46.882 28.0053 46.8275C28.2305 46.7729 28.4573 46.9127 28.5119 47.1377C28.5665 47.3628 28.4266 47.5895 28.2015 47.6441C27.9763 47.6986 27.7495 47.5588 27.6949 47.3338Z" fill="#FFFBFC"/>
</g>
<g style="mix-blend-mode:lighten">
<path d="M45.8567 56.702C46.0153 56.673 46.1688 56.777 46.1978 56.9355C46.2268 57.0941 46.1228 57.2475 45.9641 57.2765C45.8055 57.3055 45.652 57.2015 45.623 57.0429C45.594 56.8844 45.6981 56.731 45.8567 56.702Z" fill="#FFFBFC"/>
</g>
<g style="mix-blend-mode:lighten">
<path d="M37.1057 56.8294C37.2081 56.8106 37.3053 56.8771 37.324 56.9794C37.3428 57.0817 37.2763 57.1789 37.1739 57.1976C37.0716 57.2164 36.9744 57.1499 36.9556 57.0476C36.9369 56.9453 37.0034 56.8481 37.1057 56.8294Z" fill="#FFFBFC"/>
</g>
<g style="mix-blend-mode:lighten">
<path d="M37.503 54.6268C37.7213 54.5859 37.9294 54.7291 37.9703 54.9473C38.0113 55.1656 37.868 55.3735 37.6497 55.4145C37.4314 55.4554 37.2233 55.3122 37.1823 55.094C37.1414 54.8757 37.2847 54.6678 37.503 54.6268Z" fill="#FFFBFC"/>
</g>
<g style="mix-blend-mode:lighten">
<path d="M36.1026 53.4916C36.3107 53.4524 36.512 53.5905 36.5512 53.7985C36.5904 54.0065 36.4523 54.2076 36.2442 54.2469C36.0361 54.2861 35.8348 54.148 35.7956 53.94C35.7564 53.732 35.8945 53.5309 36.1026 53.4916Z" fill="#FFFBFC"/>
</g>
<g style="mix-blend-mode:lighten">
<path d="M36.3943 52.0716C36.57 52.0392 36.7406 52.1551 36.773 52.3307C36.8054 52.5063 36.6894 52.6768 36.5137 52.7092C36.338 52.7416 36.1675 52.6256 36.1351 52.45C36.1027 52.2745 36.2186 52.104 36.3943 52.0716Z" fill="#FFFBFC"/>
</g>
<g style="mix-blend-mode:lighten">
<path d="M34.6222 51.0643C34.7109 51.0472 34.7978 51.1069 34.8132 51.1955C34.8302 51.2842 34.7706 51.3711 34.6819 51.3865C34.5932 51.4035 34.5062 51.3438 34.4908 51.2552C34.4738 51.1665 34.5335 51.0796 34.6222 51.0643Z" fill="#FFFBFC"/>
</g>
<g style="mix-blend-mode:lighten">
<path d="M41.9819 38.4801C42.103 38.6319 42.0791 38.8518 41.929 38.9728C41.7772 39.0939 41.5572 39.07 41.4361 38.92C41.315 38.7682 41.3389 38.5483 41.489 38.4273C41.6408 38.3062 41.8608 38.3301 41.9819 38.4801Z" fill="#FFFBFC"/>
</g>
<path d="M44.7384 34.9719C44.8049 35.0538 44.7912 35.1731 44.7094 35.2396C44.6275 35.3061 44.5081 35.2924 44.4416 35.2106C44.3751 35.1288 44.3887 35.0095 44.4706 34.943C44.5525 34.8765 44.6718 34.8901 44.7384 34.9719Z" fill="#FFFBFC"/>
</g>
<g style="mix-blend-mode:lighten">
<path d="M49.5492 48.0292C49.5117 47.8672 49.614 47.7053 49.776 47.6695C49.9381 47.632 50.1001 47.7343 50.1359 47.8962C50.1735 48.0582 50.0711 48.2201 49.9091 48.2559C49.7471 48.2934 49.585 48.1912 49.5492 48.0292Z" fill="#FFFBFC"/>
</g>
<g style="mix-blend-mode:lighten">
<path d="M30.77 37.1976C30.7308 37.022 30.8399 36.8464 31.0156 36.8072C31.1913 36.768 31.367 36.8771 31.4062 37.0527C31.4454 37.2282 31.3363 37.4038 31.1606 37.4431C30.9849 37.4823 30.8092 37.3732 30.77 37.1976Z" fill="#FFFBFC"/>
</g>
<g style="mix-blend-mode:lighten">
<path d="M35.1765 39.0929C35.3215 39.2736 35.2942 39.5379 35.1134 39.6845C34.9326 39.8294 34.6682 39.8021 34.5215 39.6214C34.3766 39.4407 34.4039 39.1765 34.5847 39.0299C34.7655 38.885 35.0298 38.9122 35.1765 39.0929Z" fill="#FFFBFC"/>
</g>
<g style="mix-blend-mode:lighten">
<path d="M38.596 41.0547C38.7188 41.2081 38.6949 41.4314 38.5414 41.5542C38.3879 41.6769 38.1645 41.6531 38.0417 41.4996C37.9189 41.3462 37.9427 41.1229 38.0962 41.0001C38.2498 40.8774 38.4732 40.9012 38.596 41.0547Z" fill="#FFFBFC"/>
</g>
<g style="mix-blend-mode:lighten">
<path d="M36.7524 36.4101C36.8138 36.4868 36.8019 36.601 36.7251 36.6624C36.6484 36.7238 36.5341 36.7118 36.4727 36.6351C36.4113 36.5584 36.4232 36.4442 36.5 36.3828C36.5767 36.3214 36.691 36.3334 36.7524 36.4101Z" fill="#FFFBFC"/>
</g>
<g style="mix-blend-mode:lighten">
<path d="M41.1202 41.6874C41.0946 41.5834 41.1594 41.4777 41.2635 41.4521C41.3675 41.4265 41.4733 41.4913 41.4989 41.5953C41.5244 41.6993 41.4596 41.805 41.3556 41.8306C41.2515 41.8561 41.1458 41.7914 41.1202 41.6874Z" fill="#FFFBFC"/>
</g>
<g style="mix-blend-mode:lighten">
<path d="M37.8874 38.4578C37.8584 38.3367 37.9334 38.214 38.0545 38.185C38.1756 38.156 38.2984 38.231 38.3274 38.3521C38.3564 38.4731 38.2814 38.5958 38.1603 38.6248C38.0392 38.6538 37.9164 38.5788 37.8874 38.4578Z" fill="#FFFBFC"/>
</g>
<g style="mix-blend-mode:lighten">
<path d="M35.6452 41.5204C35.6043 41.3482 35.71 41.176 35.8823 41.1334C36.0546 41.0925 36.2268 41.1981 36.2695 41.3703C36.3104 41.5425 36.2047 41.7147 36.0324 41.7573C35.8601 41.7982 35.6879 41.6925 35.6452 41.5204Z" fill="#FFFBFC"/>
</g>
<g style="mix-blend-mode:lighten">
<path d="M34.5684 43.9534C34.5411 43.8426 34.6093 43.7335 34.7202 43.7062C34.8311 43.6789 34.9402 43.7471 34.9675 43.8579C34.9948 43.9687 34.9266 44.0778 34.8157 44.1051C34.7048 44.1324 34.5957 44.0642 34.5684 43.9534Z" fill="#FFFBFC"/>
</g>
<g style="mix-blend-mode:lighten">
<path d="M28.8356 40.7665C28.7793 40.5312 28.9243 40.2943 29.1597 40.238C29.3951 40.1818 29.6321 40.3267 29.6884 40.5619C29.7447 40.7972 29.5997 41.0341 29.3644 41.0904C29.129 41.1467 28.8919 41.0018 28.8356 40.7665Z" fill="#FFFBFC"/>
</g>
<g style="mix-blend-mode:lighten">
<path d="M28.8362 40.7673C28.7799 40.532 28.9249 40.2951 29.1603 40.2388C29.3957 40.1825 29.6328 40.3275 29.689 40.5627C29.7453 40.798 29.6003 41.0349 29.365 41.0912C29.1296 41.1475 28.8925 41.0025 28.8362 40.7673Z" fill="#FFFBFC"/>
</g>
<g style="mix-blend-mode:lighten">
<path d="M27.6949 47.3338C27.6403 47.1088 27.7802 46.882 28.0053 46.8275C28.2305 46.7729 28.4573 46.9127 28.5119 47.1377C28.5665 47.3628 28.4266 47.5895 28.2015 47.6441C27.9763 47.6986 27.7495 47.5588 27.6949 47.3338Z" fill="#FFFBFC"/>
</g>
<g style="mix-blend-mode:lighten">
<path d="M45.8572 56.702C46.0158 56.6731 46.1693 56.7771 46.1983 56.9356C46.2273 57.0941 46.1232 57.2476 45.9646 57.2766C45.806 57.3055 45.6525 57.2015 45.6235 57.043C45.5945 56.8845 45.6985 56.731 45.8572 56.702Z" fill="#FFFBFC"/>
</g>
<g style="mix-blend-mode:lighten">
<path d="M37.1053 56.8292C37.2076 56.8105 37.3048 56.8769 37.3236 56.9792C37.3424 57.0815 37.2758 57.1787 37.1735 57.1974C37.0712 57.2162 36.974 57.1497 36.9552 57.0474C36.9364 56.9451 37.0029 56.848 37.1053 56.8292Z" fill="#FFFBFC"/>
</g>
<g style="mix-blend-mode:lighten">
<path d="M37.5035 54.6276C37.7218 54.5867 37.9299 54.7299 37.9708 54.9481C38.0118 55.1664 37.8685 55.3743 37.6502 55.4152C37.4318 55.4562 37.2238 55.313 37.1828 55.0948C37.1419 54.8765 37.2852 54.6686 37.5035 54.6276Z" fill="#FFFBFC"/>
</g>
<g style="mix-blend-mode:lighten">
<path d="M36.103 53.4908C36.3111 53.4516 36.5124 53.5897 36.5516 53.7977C36.5909 54.0057 36.4527 54.2069 36.2446 54.2461C36.0365 54.2853 35.8353 54.1472 35.796 53.9392C35.7568 53.7312 35.895 53.5301 36.103 53.4908Z" fill="#FFFBFC"/>
</g>
<g style="mix-blend-mode:lighten">
<path d="M36.3939 52.0715C36.5696 52.0391 36.7401 52.155 36.7725 52.3306C36.805 52.5062 36.689 52.6767 36.5133 52.7091C36.3376 52.7414 36.167 52.6255 36.1346 52.4499C36.1022 52.2743 36.2182 52.1039 36.3939 52.0715Z" fill="#FFFBFC"/>
</g>
<g style="mix-blend-mode:lighten">
<path d="M34.6225 51.0644C34.7112 51.0474 34.7981 51.1071 34.8135 51.1957C34.8306 51.2844 34.7709 51.3713 34.6822 51.3866C34.5935 51.4037 34.5065 51.344 34.4911 51.2554C34.4741 51.1667 34.5338 51.0798 34.6225 51.0644Z" fill="#FFFBFC"/>
</g>
<g style="mix-blend-mode:lighten">
<path d="M41.9825 38.4795C42.1036 38.6312 42.0797 38.8511 41.9296 38.9721C41.7778 39.0932 41.5578 39.0693 41.4367 38.9193C41.3156 38.7676 41.3394 38.5477 41.4895 38.4266C41.6413 38.3056 41.8614 38.3294 41.9825 38.4795Z" fill="#FFFBFC"/>
</g>
<path d="M44.7387 34.9726C44.8052 35.0544 44.7916 35.1737 44.7097 35.2402C44.6279 35.3067 44.5085 35.2931 44.442 35.2112C44.3754 35.1294 44.3891 35.0101 44.4709 34.9436C44.5528 34.8771 44.6722 34.8907 44.7387 34.9726Z" fill="#FFFBFC"/>
<path d="M29.1086 33.9225L29.2053 34.3983L29.6788 34.4956L29.2053 34.5928L29.1086 35.0686L29.0118 34.5928L28.5384 34.4956L29.0118 34.3983L29.1086 33.9225Z" fill="white"/>
<g filter="url(#filter5_f_46_2944)">
<path d="M29.1086 33.9225L29.2053 34.3983L29.6788 34.4956L29.2053 34.5928L29.1086 35.0686L29.0118 34.5928L28.5384 34.4956L29.0118 34.3983L29.1086 33.9225Z" fill="white"/>
</g>
<path d="M54.0169 48.265L54.3493 48.6174L54.8023 48.4483L54.4516 48.7825L54.6198 49.2377L54.2874 48.8853L53.8344 49.0543L54.1851 48.7202L54.0169 48.265Z" fill="white"/>
<g filter="url(#filter6_f_46_2944)">
<path d="M54.0169 48.265L54.3493 48.6174L54.8023 48.4483L54.4516 48.7825L54.6198 49.2377L54.2874 48.8853L53.8344 49.0543L54.1851 48.7202L54.0169 48.265Z" fill="white"/>
</g>
<path d="M29.7751 52.1063L29.9684 52.5513L30.4516 52.5473L30.0087 52.7416L30.0127 53.2272L29.8195 52.7821L29.3363 52.7861L29.7791 52.5919L29.7751 52.1063Z" fill="white"/>
<g filter="url(#filter7_f_46_2944)">
<path d="M29.7751 52.1063L29.9684 52.5513L30.4516 52.5473L30.0087 52.7416L30.0127 53.2272L29.8195 52.7821L29.3363 52.7861L29.7791 52.5919L29.7751 52.1063Z" fill="white"/>
</g>
</g>
<g style="mix-blend-mode:overlay" filter="url(#filter8_f_46_2944)">
<g style="mix-blend-mode:lighten">
<path d="M24.7167 13.733C24.6662 13.5096 24.8068 13.2827 25.0302 13.2322C25.2536 13.1818 25.4806 13.3223 25.531 13.5457C25.5815 13.769 25.441 13.996 25.2175 14.0464C24.9941 14.0969 24.7671 13.9564 24.7167 13.733Z" fill="#FFFBFC"/>
</g>
<g style="mix-blend-mode:lighten">
<path d="M56.9545 42.2084C56.8752 41.8662 57.0914 41.5239 57.4337 41.4483C57.7761 41.369 58.1184 41.5852 58.1941 41.9274C58.2733 42.2697 58.0571 42.6119 57.7148 42.6876C57.3725 42.7668 57.0302 42.5507 56.9545 42.2084Z" fill="#FFFBFC"/>
</g>
<g style="mix-blend-mode:lighten">
<path d="M17.2796 19.3173C17.1967 18.9462 17.4274 18.5752 17.7985 18.4923C18.1696 18.4095 18.5408 18.64 18.6237 19.0111C18.7065 19.3822 18.4759 19.7532 18.1048 19.8361C17.7336 19.919 17.3625 19.6884 17.2796 19.3173Z" fill="#FFFBFC"/>
</g>
<g style="mix-blend-mode:lighten">
<path d="M26.5905 23.3198C26.8968 23.7017 26.8392 24.2601 26.4572 24.5699C26.0752 24.8762 25.5167 24.8185 25.2068 24.4366C24.9005 24.0548 24.9582 23.4963 25.3401 23.1865C25.7221 22.8803 26.2806 22.9379 26.5905 23.3198Z" fill="#FFFBFC"/>
</g>
<g style="mix-blend-mode:lighten">
<path d="M29.8009 22.3615C30.0604 22.6857 30.0099 23.1577 29.6856 23.417C29.3613 23.6764 28.8893 23.626 28.6298 23.3018C28.3704 22.9775 28.4208 22.5056 28.7451 22.2462C29.0694 21.9868 29.5415 22.0372 29.8009 22.3615Z" fill="#FFFBFC"/>
</g>
<g style="mix-blend-mode:lighten">
<path d="M29.92 17.653C30.0497 17.8151 30.0245 18.0565 29.8623 18.1862C29.7002 18.3159 29.4588 18.2907 29.329 18.1286C29.1993 17.9665 29.2245 17.7251 29.3867 17.5954C29.5488 17.4657 29.7903 17.4909 29.92 17.653Z" fill="#FFFBFC"/>
</g>
<g style="mix-blend-mode:lighten">
<path d="M39.1486 28.803C39.0946 28.5833 39.2315 28.3599 39.4513 28.3059C39.6711 28.2518 39.8945 28.3887 39.9486 28.6085C40.0026 28.8282 39.8657 29.0516 39.6459 29.1057C39.4261 29.1597 39.2027 29.0228 39.1486 28.803Z" fill="#FFFBFC"/>
</g>
<g style="mix-blend-mode:lighten">
<path d="M32.3163 21.9797C32.2551 21.7239 32.4136 21.4645 32.6695 21.4032C32.9253 21.342 33.1847 21.5005 33.246 21.7563C33.3072 22.0121 33.1487 22.2715 32.8929 22.3327C32.637 22.394 32.3776 22.2354 32.3163 21.9797Z" fill="#FFFBFC"/>
</g>
<g style="mix-blend-mode:lighten">
<path d="M25.0272 28.45C24.9407 28.0861 25.1641 27.7222 25.5281 27.6322C25.892 27.5457 26.2559 27.7691 26.346 28.1329C26.4325 28.4968 26.2091 28.8607 25.8452 28.9507C25.4812 29.0372 25.1173 28.8138 25.0272 28.45Z" fill="#FFFBFC"/>
</g>
<g style="mix-blend-mode:lighten">
<path d="M23.8483 33.5943C23.7907 33.3601 23.9348 33.1295 24.169 33.0719C24.4033 33.0143 24.6339 33.1584 24.6915 33.3925C24.7492 33.6267 24.605 33.8573 24.3708 33.9149C24.1366 33.9726 23.906 33.8285 23.8483 33.5943Z" fill="#FFFBFC"/>
</g>
<g style="mix-blend-mode:lighten">
<path d="M17.6869 24.2008C17.568 23.7036 17.8743 23.2029 18.3715 23.084C18.8688 22.9651 19.3697 23.2713 19.4886 23.7685C19.6075 24.2656 19.3012 24.7664 18.8039 24.8853C18.3067 25.0042 17.8058 24.6979 17.6869 24.2008Z" fill="#FFFBFC"/>
</g>
<g style="mix-blend-mode:lighten">
<path d="M20.5685 38.9242C20.4532 38.4487 20.7486 37.9695 21.2243 37.8542C21.6999 37.7389 22.1792 38.0344 22.2945 38.5099C22.4098 38.9855 22.1143 39.4646 21.6387 39.5799C21.163 39.6952 20.6838 39.3998 20.5685 38.9242Z" fill="#FFFBFC"/>
</g>
<g style="mix-blend-mode:lighten">
<path d="M12.9486 35.792C12.8513 35.3885 13.1 34.9815 13.5036 34.8878C13.9071 34.7905 14.3143 35.0391 14.408 35.4426C14.5053 35.8461 14.2567 36.2532 13.8531 36.3469C13.4495 36.4441 13.0423 36.1955 12.9486 35.792Z" fill="#FFFBFC"/>
</g>
<g style="mix-blend-mode:lighten">
<path d="M10.826 40C10.7755 39.7946 10.9017 39.5929 11.1071 39.5424C11.3124 39.492 11.5142 39.6181 11.5647 39.8234C11.6151 40.0288 11.489 40.2305 11.2836 40.281C11.0782 40.3314 10.8764 40.2053 10.826 40Z" fill="#FFFBFC"/>
</g>
<g style="mix-blend-mode:lighten">
<path d="M49.154 60.5359C49.4892 60.4747 49.8135 60.6944 49.8747 61.0295C49.936 61.3645 49.7162 61.6888 49.3811 61.75C49.0459 61.8113 48.7216 61.5915 48.6604 61.2565C48.5991 60.9214 48.8189 60.5972 49.154 60.5359Z" fill="#FFFBFC"/>
</g>
<g style="mix-blend-mode:lighten">
<path d="M30.6663 60.8051C30.8825 60.7655 31.0878 60.906 31.1275 61.1222C31.1671 61.3383 31.0266 61.5437 30.8104 61.5833C30.5942 61.6229 30.3888 61.4824 30.3492 61.2663C30.3095 61.0501 30.45 60.8448 30.6663 60.8051Z" fill="#FFFBFC"/>
</g>
<g style="mix-blend-mode:lighten">
<path d="M31.5057 56.1504C31.967 56.064 32.4066 56.3666 32.493 56.8277C32.5795 57.2889 32.2768 57.7284 31.8156 57.8148C31.3544 57.9013 30.9148 57.5987 30.8283 57.1375C30.7418 56.6764 31.0445 56.2369 31.5057 56.1504Z" fill="#FFFBFC"/>
</g>
<g style="mix-blend-mode:lighten">
<path d="M28.5471 53.7512C28.9867 53.6683 29.4119 53.9601 29.4948 54.3997C29.5776 54.8392 29.2858 55.2643 28.8462 55.3472C28.4065 55.43 27.9813 55.1382 27.8985 54.6987C27.8156 54.2592 28.1075 53.834 28.5471 53.7512Z" fill="#FFFBFC"/>
</g>
<g style="mix-blend-mode:lighten">
<path d="M29.1635 50.7502C29.5346 50.6817 29.895 50.9267 29.9634 51.2978C30.0319 51.6688 29.7869 52.0291 29.4157 52.0976C29.0446 52.166 28.6842 51.921 28.6158 51.55C28.5473 51.1789 28.7923 50.8186 29.1635 50.7502Z" fill="#FFFBFC"/>
</g>
<g style="mix-blend-mode:lighten">
<path d="M25.4196 48.6212C25.607 48.5852 25.7907 48.7113 25.8232 48.8986C25.8592 49.0859 25.7331 49.2697 25.5457 49.3021C25.3583 49.3381 25.1746 49.212 25.1421 49.0247C25.1061 48.8374 25.2322 48.6536 25.4196 48.6212Z" fill="#FFFBFC"/>
</g>
<g style="mix-blend-mode:lighten">
<path d="M33.2568 16.1539C33.473 16.4205 33.4297 16.8096 33.1631 17.0258C32.8964 17.2419 32.5073 17.1987 32.2911 16.9321C32.0748 16.6655 32.1181 16.2764 32.3847 16.0602C32.6514 15.8441 33.0406 15.8873 33.2568 16.1539Z" fill="#FFFBFC"/>
</g>
<g style="mix-blend-mode:lighten">
<path d="M40.968 22.0262C41.2239 22.3469 41.1734 22.8116 40.8563 23.0674C40.5356 23.3232 40.0708 23.2727 39.815 22.9557C39.5591 22.6351 39.6096 22.1703 39.9267 21.9145C40.2474 21.6587 40.7122 21.7092 40.968 22.0262Z" fill="#FFFBFC"/>
</g>
<path d="M40.1863 16.8711C40.3268 17.0477 40.3016 17.3035 40.125 17.4476C39.9485 17.5881 39.6926 17.5628 39.5485 17.3863C39.408 17.2098 39.4332 16.954 39.6098 16.8099C39.7863 16.6694 40.0422 16.6946 40.1863 16.8711Z" fill="#FFFBFC"/>
<path d="M46.7914 14.6122C46.9319 14.7851 46.9031 15.0373 46.7302 15.1778C46.5572 15.3183 46.305 15.2895 46.1644 15.1166C46.0239 14.9436 46.0527 14.6914 46.2257 14.5509C46.3986 14.4104 46.6509 14.4393 46.7914 14.6122Z" fill="#FFFBFC"/>
</g>
<g style="mix-blend-mode:lighten">
<path d="M24.7166 13.733C24.6662 13.5096 24.8067 13.2827 25.0301 13.2322C25.2535 13.1818 25.4805 13.3223 25.531 13.5457C25.5814 13.769 25.4409 13.996 25.2175 14.0464C24.9941 14.0969 24.7671 13.9564 24.7166 13.733Z" fill="#FFFBFC"/>
</g>
<g style="mix-blend-mode:lighten">
<path d="M56.9544 42.2084C56.8751 41.8662 57.0913 41.5239 57.4336 41.4483C57.7759 41.369 58.1183 41.5852 58.1939 41.9274C58.2732 42.2697 58.057 42.6119 57.7147 42.6876C57.3724 42.7668 57.03 42.5507 56.9544 42.2084Z" fill="#FFFBFC"/>
</g>
<g style="mix-blend-mode:lighten">
<path d="M17.2796 19.3173C17.1967 18.9462 17.4273 18.5752 17.7984 18.4923C18.1696 18.4095 18.5407 18.64 18.6236 19.0111C18.7065 19.3822 18.4759 19.7532 18.1047 19.8361C17.7336 19.919 17.3624 19.6884 17.2796 19.3173Z" fill="#FFFBFC"/>
</g>
<g style="mix-blend-mode:lighten">
<path d="M26.5902 23.3199C26.8965 23.7018 26.8388 24.2602 26.4569 24.57C26.0749 24.8762 25.5164 24.8186 25.2065 24.4367C24.9002 24.0548 24.9579 23.4964 25.3398 23.1866C25.7218 22.8804 26.2803 22.938 26.5902 23.3199Z" fill="#FFFBFC"/>
</g>
<g style="mix-blend-mode:lighten">
<path d="M29.8008 22.3614C30.0602 22.6856 30.0098 23.1576 29.6855 23.417C29.3612 23.6764 28.8891 23.6259 28.6297 23.3017C28.3703 22.9775 28.4207 22.5055 28.745 22.2461C29.0693 21.9867 29.5414 22.0372 29.8008 22.3614Z" fill="#FFFBFC"/>
</g>
<g style="mix-blend-mode:lighten">
<path d="M29.9199 17.653C30.0497 17.8151 30.0244 18.0565 29.8623 18.1862C29.7001 18.3159 29.4587 18.2907 29.329 18.1286C29.1993 17.9665 29.2245 17.7251 29.3866 17.5954C29.5488 17.4657 29.7902 17.4909 29.9199 17.653Z" fill="#FFFBFC"/>
</g>
<g style="mix-blend-mode:lighten">
<path d="M39.1484 28.803C39.0943 28.5833 39.2313 28.3599 39.4511 28.3059C39.6709 28.2518 39.8943 28.3887 39.9483 28.6085C40.0024 28.8282 39.8655 29.0516 39.6457 29.1057C39.4259 29.1597 39.2024 29.0228 39.1484 28.803Z" fill="#FFFBFC"/>
</g>
<g style="mix-blend-mode:lighten">
<path d="M32.3163 21.9797C32.255 21.7239 32.4135 21.4645 32.6694 21.4032C32.9252 21.342 33.1847 21.5005 33.2459 21.7563C33.3072 22.0121 33.1486 22.2715 32.8928 22.3327C32.637 22.394 32.3775 22.2354 32.3163 21.9797Z" fill="#FFFBFC"/>
</g>
<g style="mix-blend-mode:lighten">
<path d="M25.0269 28.45C24.9404 28.0862 25.1638 27.7223 25.5278 27.6322C25.8917 27.5458 26.2556 27.7691 26.3457 28.133C26.4322 28.4969 26.2088 28.8607 25.8449 28.9508C25.4809 29.0373 25.117 28.8139 25.0269 28.45Z" fill="#FFFBFC"/>
</g>
<g style="mix-blend-mode:lighten">
<path d="M23.8482 33.5947C23.7906 33.3605 23.9347 33.1299 24.1689 33.0723C24.4031 33.0146 24.6337 33.1587 24.6914 33.3929C24.7491 33.6271 24.6049 33.8576 24.3707 33.9153C24.1365 33.9729 23.9059 33.8288 23.8482 33.5947Z" fill="#FFFBFC"/>
</g>
<g style="mix-blend-mode:lighten">
<path d="M17.6868 24.2008C17.5678 23.7037 17.8741 23.2029 18.3714 23.084C18.8687 22.9651 19.3695 23.2714 19.4884 23.7685C19.6074 24.2657 19.3011 24.7665 18.8038 24.8853C18.3065 25.0042 17.8057 24.698 17.6868 24.2008Z" fill="#FFFBFC"/>
</g>
<g style="mix-blend-mode:lighten">
<path d="M20.5683 38.9242C20.453 38.4487 20.7485 37.9695 21.2242 37.8542C21.6998 37.7389 22.1791 38.0344 22.2944 38.5099C22.4097 38.9855 22.1142 39.4646 21.6386 39.5799C21.1629 39.6952 20.6837 39.3998 20.5683 38.9242Z" fill="#FFFBFC"/>
</g>
<g style="mix-blend-mode:lighten">
<path d="M12.9483 35.792C12.851 35.3885 13.0996 34.9815 13.5032 34.8878C13.9068 34.7905 14.314 35.0391 14.4076 35.4426C14.5049 35.8461 14.2563 36.2532 13.8527 36.3469C13.4491 36.4441 13.042 36.1955 12.9483 35.792Z" fill="#FFFBFC"/>
</g>
<g style="mix-blend-mode:lighten">
<path d="M10.8257 39.9999C10.7752 39.7945 10.9014 39.5928 11.1068 39.5424C11.3121 39.4919 11.5139 39.618 11.5644 39.8234C11.6148 40.0287 11.4887 40.2305 11.2833 40.2809C11.0779 40.3313 10.8761 40.2052 10.8257 39.9999Z" fill="#FFFBFC"/>
</g>
<g style="mix-blend-mode:lighten">
<path d="M49.1537 60.5363C49.4889 60.4751 49.8132 60.6948 49.8744 61.0299C49.9357 61.3649 49.7159 61.6891 49.3808 61.7504C49.0456 61.8116 48.7213 61.5919 48.6601 61.2568C48.5988 60.9218 48.8186 60.5975 49.1537 60.5363Z" fill="#FFFBFC"/>
</g>
<g style="mix-blend-mode:lighten">
<path d="M30.6661 60.8051C30.8823 60.7655 31.0877 60.906 31.1274 61.1222C31.167 61.3383 31.0265 61.5437 30.8103 61.5833C30.5941 61.6229 30.3887 61.4824 30.349 61.2663C30.3094 61.0501 30.4499 60.8448 30.6661 60.8051Z" fill="#FFFBFC"/>
</g>
<g style="mix-blend-mode:lighten">
<path d="M31.5054 56.1504C31.9666 56.064 32.4063 56.3666 32.4927 56.8277C32.5792 57.2889 32.2765 57.7284 31.8153 57.8148C31.3541 57.9013 30.9145 57.5987 30.828 57.1375C30.7415 56.6764 31.0442 56.2369 31.5054 56.1504Z" fill="#FFFBFC"/>
</g>
<g style="mix-blend-mode:lighten">
<path d="M28.547 53.7512C28.9866 53.6683 29.4118 53.9601 29.4946 54.3997C29.5775 54.8392 29.2856 55.2643 28.846 55.3472C28.4064 55.43 27.9812 55.1382 27.8983 54.6987C27.8155 54.2592 28.1073 53.834 28.547 53.7512Z" fill="#FFFBFC"/>
</g>
<g style="mix-blend-mode:lighten">
<path d="M29.1634 50.7502C29.5345 50.6817 29.8949 50.9267 29.9633 51.2978C30.0318 51.6688 29.7868 52.0291 29.4156 52.0976C29.0445 52.166 28.6841 51.921 28.6157 51.55C28.5472 51.1789 28.7922 50.8186 29.1634 50.7502Z" fill="#FFFBFC"/>
</g>
<g style="mix-blend-mode:lighten">
<path d="M25.4194 48.6211C25.6068 48.5851 25.7906 48.7112 25.823 48.8985C25.859 49.0859 25.7329 49.2696 25.5455 49.302C25.3582 49.3381 25.1744 49.212 25.142 49.0246C25.1059 48.8373 25.232 48.6536 25.4194 48.6211Z" fill="#FFFBFC"/>
</g>
<g style="mix-blend-mode:lighten">
<path d="M33.2565 16.1543C33.4727 16.4209 33.4294 16.81 33.1628 17.0261C32.8961 17.2423 32.5069 17.1991 32.2907 16.9325C32.0745 16.6659 32.1178 16.2768 32.3844 16.0606C32.6511 15.8445 33.0402 15.8877 33.2565 16.1543Z" fill="#FFFBFC"/>
</g>
<g style="mix-blend-mode:lighten">
<path d="M40.968 22.0262C41.2238 22.3469 41.1734 22.8116 40.8563 23.0674C40.5356 23.3232 40.0707 23.2727 39.8149 22.9557C39.5591 22.6351 39.6095 22.1703 39.9266 21.9145C40.2473 21.6587 40.7121 21.7092 40.968 22.0262Z" fill="#FFFBFC"/>
</g>
<path d="M40.1862 16.8711C40.3267 17.0476 40.3015 17.3034 40.1249 17.4475C39.9483 17.588 39.6925 17.5628 39.5484 17.3863C39.4078 17.2097 39.4331 16.9539 39.6096 16.8098C39.7862 16.6693 40.042 16.6945 40.1862 16.8711Z" fill="#FFFBFC"/>
<path d="M46.7912 14.6122C46.9318 14.7851 46.9029 15.0373 46.73 15.1778C46.557 15.3183 46.3048 15.2895 46.1642 15.1166C46.0237 14.9436 46.0525 14.6914 46.2255 14.5509C46.3985 14.4104 46.6507 14.4393 46.7912 14.6122Z" fill="#FFFBFC"/>
<mask id="path-123-outside-1_46_2944" maskUnits="userSpaceOnUse" x="29" y="30" width="23" height="24" fill="black">
<rect fill="white" x="29" y="30" width="23" height="24"/>
<path d="M43.0957 50.7489C42.2503 50.9163 41.3546 51 40.4088 51H32.0215L35.9515 32.4927H44.9414C47.2015 32.5262 48.6663 33.1833 49.3359 34.464C49.7377 35.2508 49.8256 36.1925 49.5996 37.2891C49.3569 38.4191 48.8756 39.3273 48.1557 40.0137C47.7623 40.3987 47.2224 40.7503 46.536 41.0684C47.4065 41.4116 48.0008 41.9556 48.3189 42.7006C48.6454 43.4456 48.6956 44.3496 48.4696 45.4127C48.2352 46.5092 47.7497 47.4927 47.0131 48.3633C46.536 48.9408 45.9919 49.4263 45.3809 49.8198C44.6945 50.2718 43.9328 50.5815 43.0957 50.7489ZM42.041 42.8513H37.433L36.3909 47.7857H40.9361C41.748 47.7857 42.4009 47.6769 42.8948 47.4593C43.8072 47.0575 44.3848 46.2874 44.6275 45.149C44.8284 44.1864 44.5689 43.5251 43.8491 43.1652C43.4473 42.9643 42.8446 42.8597 42.041 42.8513ZM44.7154 39.3231C45.2846 39.0218 45.6529 38.4819 45.8203 37.7034C45.9961 36.8412 45.7826 36.272 45.18 35.9958C44.6359 35.8033 43.916 35.707 43.0204 35.707H38.9523L38.0859 39.7877H42.6311C43.4431 39.7877 44.1378 39.6328 44.7154 39.3231Z"/>
</mask>
<path d="M43.0957 50.7489C42.2503 50.9163 41.3546 51 40.4088 51H32.0215L35.9515 32.4927H44.9414C47.2015 32.5262 48.6663 33.1833 49.3359 34.464C49.7377 35.2508 49.8256 36.1925 49.5996 37.2891C49.3569 38.4191 48.8756 39.3273 48.1557 40.0137C47.7623 40.3987 47.2224 40.7503 46.536 41.0684C47.4065 41.4116 48.0008 41.9556 48.3189 42.7006C48.6454 43.4456 48.6956 44.3496 48.4696 45.4127C48.2352 46.5092 47.7497 47.4927 47.0131 48.3633C46.536 48.9408 45.9919 49.4263 45.3809 49.8198C44.6945 50.2718 43.9328 50.5815 43.0957 50.7489ZM42.041 42.8513H37.433L36.3909 47.7857H40.9361C41.748 47.7857 42.4009 47.6769 42.8948 47.4593C43.8072 47.0575 44.3848 46.2874 44.6275 45.149C44.8284 44.1864 44.5689 43.5251 43.8491 43.1652C43.4473 42.9643 42.8446 42.8597 42.041 42.8513ZM44.7154 39.3231C45.2846 39.0218 45.6529 38.4819 45.8203 37.7034C45.9961 36.8412 45.7826 36.272 45.18 35.9958C44.6359 35.8033 43.916 35.707 43.0204 35.707H38.9523L38.0859 39.7877H42.6311C43.4431 39.7877 44.1378 39.6328 44.7154 39.3231Z" fill="white"/>
<path d="M43.0957 50.7489L43.5119 52.8509L43.516 52.8501L43.0957 50.7489ZM32.0215 51L29.9254 50.5549L29.3758 53.1429H32.0215V51ZM35.9515 32.4927V30.3499H34.2158L33.8553 32.0476L35.9515 32.4927ZM44.9414 32.4927L44.9731 30.3501L44.9573 30.3499H44.9414V32.4927ZM49.3359 34.464L51.2444 33.4895L51.2397 33.4803L51.2349 33.4711L49.3359 34.464ZM49.5996 37.2891L51.6947 37.7391L51.6965 37.7304L51.6984 37.7216L49.5996 37.2891ZM48.1557 40.0137L46.677 38.4628L46.6668 38.4725L46.6568 38.4822L48.1557 40.0137ZM46.536 41.0684L45.635 39.1241L41.0965 41.2273L45.7501 43.0619L46.536 41.0684ZM48.3189 42.7006L46.3482 43.5421L46.3522 43.5514L46.3562 43.5607L48.3189 42.7006ZM48.4696 45.4127L50.5651 45.8606L50.5656 45.8583L48.4696 45.4127ZM47.0131 48.3633L45.3773 46.9791L45.3691 46.9888L45.3611 46.9985L47.0131 48.3633ZM45.3809 49.8198L44.2208 48.018L44.2115 48.024L44.2023 48.0301L45.3809 49.8198ZM42.041 42.8513L42.0633 40.7085L42.0522 40.7084H42.041V42.8513ZM37.433 42.8513V40.7084H35.6955L35.3364 42.4085L37.433 42.8513ZM36.3909 47.7857L34.2943 47.3429L33.7482 49.9286H36.3909V47.7857ZM42.8948 47.4593L42.0312 45.4981L42.0307 45.4984L42.8948 47.4593ZM44.6275 45.149L46.7233 45.5959L46.7252 45.5868L44.6275 45.149ZM44.7154 39.3231L43.7128 37.4292L43.7027 37.4346L44.7154 39.3231ZM45.8203 37.7034L47.9153 38.1539L47.9177 38.1427L47.92 38.1315L45.8203 37.7034ZM45.18 35.9958L46.0728 34.0478L45.9854 34.0078L45.8948 33.9757L45.18 35.9958ZM38.9523 35.707V33.5642H37.2166L36.8562 35.262L38.9523 35.707ZM38.0859 39.7877L35.9898 39.3426L35.4404 41.9305H38.0859V39.7877ZM42.6795 48.6468C41.9837 48.7846 41.2283 48.8571 40.4088 48.8571V53.1429C41.481 53.1429 42.5169 53.048 43.5119 52.8509L42.6795 48.6468ZM40.4088 48.8571H32.0215V53.1429H40.4088V48.8571ZM34.1176 51.4451L38.0476 32.9379L33.8553 32.0476L29.9254 50.5549L34.1176 51.4451ZM35.9515 34.6356H44.9414V30.3499H35.9515V34.6356ZM44.9097 34.6354C46.8627 34.6643 47.3099 35.2138 47.437 35.4569L51.2349 33.4711C50.0227 31.1528 47.5402 30.3882 44.9731 30.3501L44.9097 34.6354ZM47.4275 35.4385C47.5542 35.6866 47.6553 36.1071 47.5009 36.8565L51.6984 37.7216C51.9959 36.2779 51.9213 34.815 51.2444 33.4895L47.4275 35.4385ZM47.5045 36.839C47.3371 37.6185 47.0375 38.119 46.677 38.4628L49.6344 41.5645C50.7136 40.5356 51.3766 39.2196 51.6947 37.7391L47.5045 36.839ZM46.6568 38.4822C46.4895 38.646 46.177 38.873 45.635 39.1241L47.437 43.0126C48.2678 42.6276 49.0351 42.1514 49.6545 41.5451L46.6568 38.4822ZM45.7501 43.0619C46.1773 43.2303 46.2904 43.4067 46.3482 43.5421L50.2897 41.8592C49.7113 40.5046 48.6358 39.5928 47.3219 39.0748L45.7501 43.0619ZM46.3562 43.5607C46.4511 43.7771 46.5373 44.1969 46.3736 44.9671L50.5656 45.8583C50.8539 44.5023 50.8397 43.1141 50.2816 41.8406L46.3562 43.5607ZM46.3741 44.9648C46.2148 45.7101 45.8899 46.3733 45.3773 46.9791L48.6489 49.7474C49.6095 48.6122 50.2557 47.3084 50.5651 45.8606L46.3741 44.9648ZM45.3611 46.9985C45.0201 47.4113 44.6407 47.7477 44.2208 48.018L46.5409 51.6215C47.3432 51.1049 48.0519 50.4704 48.6652 49.728L45.3611 46.9985ZM44.2023 48.0301C43.7552 48.3246 43.2527 48.5322 42.6755 48.6476L43.516 52.8501C44.6128 52.6308 45.6338 52.219 46.5594 51.6094L44.2023 48.0301ZM42.041 40.7084H37.433V44.9941H42.041V40.7084ZM35.3364 42.4085L34.2943 47.3429L38.4875 48.2285L39.5296 43.2941L35.3364 42.4085ZM36.3909 49.9286H40.9361V45.6429H36.3909V49.9286ZM40.9361 49.9286C41.9094 49.9286 42.891 49.8027 43.7589 49.4202L42.0307 45.4984C41.9109 45.5511 41.5867 45.6429 40.9361 45.6429V49.9286ZM43.7584 49.4204C45.4125 48.692 46.3644 47.2788 46.7233 45.5959L42.5318 44.7021C42.4051 45.296 42.2018 45.423 42.0312 45.4981L43.7584 49.4204ZM46.7252 45.5868C46.8792 44.8487 46.9085 43.9897 46.5783 43.1483C46.2292 42.2586 45.5735 41.6316 44.8074 41.2485L42.8907 45.0818C42.8811 45.077 42.8251 45.0468 42.756 44.9748C42.6839 44.8997 42.6257 44.8079 42.5888 44.7138C42.5181 44.5338 42.5767 44.4867 42.5298 44.7112L46.7252 45.5868ZM44.8074 41.2485C43.9682 40.829 42.9742 40.718 42.0633 40.7085L42.0187 44.994C42.3387 44.9974 42.5704 45.0198 42.7292 45.0473C42.8937 45.0759 42.9302 45.1016 42.8907 45.0818L44.8074 41.2485ZM45.718 41.2169C46.9764 40.5507 47.6491 39.3916 47.9153 38.1539L43.7254 37.2529C43.6875 37.4287 43.6462 37.4877 43.6483 37.4846C43.6496 37.4827 43.6578 37.4716 43.6735 37.4575C43.6893 37.4433 43.7041 37.4339 43.7128 37.4293L45.718 41.2169ZM47.92 38.1315C48.0543 37.4728 48.0963 36.6718 47.7985 35.8775C47.4741 35.0123 46.8374 34.3983 46.0728 34.0478L44.2871 37.9438C44.2257 37.9157 44.1233 37.856 44.0173 37.7462C43.9086 37.6336 43.8316 37.5048 43.7856 37.3823C43.7012 37.1572 43.7621 37.0718 43.7207 37.2753L47.92 38.1315ZM45.8948 33.9757C45.0307 33.6699 44.0403 33.5642 43.0204 33.5642V37.8499C43.7917 37.8499 44.2411 37.9366 44.4652 38.0159L45.8948 33.9757ZM43.0204 33.5642H38.9523V37.8499H43.0204V33.5642ZM36.8562 35.262L35.9898 39.3426L40.1821 40.2327L41.0484 36.1521L36.8562 35.262ZM38.0859 41.9305H42.6311V37.6448H38.0859V41.9305ZM42.6311 41.9305C43.7133 41.9305 44.7732 41.7236 45.7281 41.2116L43.7027 37.4346C43.5024 37.542 43.1729 37.6448 42.6311 37.6448V41.9305Z" fill="#5A6401" mask="url(#path-123-outside-1_46_2944)"/>
<defs>
<filter id="filter0_d_46_2944" x="-4.92594" y="-2.32078" width="89.0063" height="89.0063" filterUnits="userSpaceOnUse" color-interpolation-filters="sRGB">
<feFlood flood-opacity="0" result="BackgroundImageFix"/>
<feColorMatrix in="SourceAlpha" type="matrix" values="0 0 0 0 0 0 0 0 0 0 0 0 0 0 0 0 0 0 127 0" result="hardAlpha"/>
<feOffset/>
<feGaussianBlur stdDeviation="9.1195"/>
<feComposite in2="hardAlpha" operator="out"/>
<feColorMatrix type="matrix" values="0 0 0 0 0.750588 0 0 0 0 0.909804 0 0 0 0 0.227451 0 0 0 0.6 0"/>
<feBlend mode="normal" in2="BackgroundImageFix" result="effect1_dropShadow_46_2944"/>
<feBlend mode="normal" in="SourceGraphic" in2="effect1_dropShadow_46_2944" result="shape"/>
</filter>
<clipPath id="paint1_diamond_46_2944_clip_path"><path d="M32.262 49.8472L29.4991 40.4673L20.8005 38.1141C20.8005 38.1141 21.0046 51.2129 27.6576 58.8879L32.262 49.8472Z"/></clipPath><clipPath id="paint2_diamond_46_2944_clip_path"><path d="M29.4991 40.4688C29.4991 40.4688 34.3766 33.9885 40.1426 31.9924V20.717C40.1426 20.717 25.576 30.4061 20.8005 38.1141L29.4991 40.4673V40.4688Z"/></clipPath><clipPath id="paint5_diamond_46_2944_clip_path"><path d="M50.7845 40.4688C50.7845 40.4688 45.907 33.9885 40.141 31.9924V20.717C40.141 20.717 54.7061 30.4046 59.4831 38.1141L50.7845 40.4673V40.4688Z"/></clipPath><clipPath id="paint6_diamond_46_2944_clip_path"><path d="M40.1413 31.9924V54.3766L32.2621 49.8487L29.4992 40.4689C29.4992 40.4689 32.7739 34.056 40.1428 31.9924H40.1413Z"/></clipPath><clipPath id="paint7_diamond_46_2944_clip_path"><path d="M40.141 31.9924V54.3766L48.0201 49.8487L50.7831 40.4689C50.7831 40.4689 47.5084 34.056 40.1395 31.9924H40.141Z"/></clipPath><filter id="filter1_f_46_2944" x="45.582" y="50.307" width="13.9346" height="13.9346" filterUnits="userSpaceOnUse" color-interpolation-filters="sRGB">
<feFlood flood-opacity="0" result="BackgroundImageFix"/>
<feBlend mode="normal" in="SourceGraphic" in2="BackgroundImageFix" result="shape"/>
<feGaussianBlur stdDeviation="2.00629" result="effect1_foregroundBlur_46_2944"/>
</filter>
<filter id="filter2_f_46_2944" x="15.1161" y="30.3466" width="14.9351" height="14.9351" filterUnits="userSpaceOnUse" color-interpolation-filters="sRGB">
<feFlood flood-opacity="0" result="BackgroundImageFix"/>
<feBlend mode="normal" in="SourceGraphic" in2="BackgroundImageFix" result="shape"/>
<feGaussianBlur stdDeviation="2.00629" result="effect1_foregroundBlur_46_2944"/>
</filter>
<filter id="filter3_f_46_2944" x="46.3325" y="25.394" width="12.4439" height="12.4439" filterUnits="userSpaceOnUse" color-interpolation-filters="sRGB">
<feFlood flood-opacity="0" result="BackgroundImageFix"/>
<feBlend mode="normal" in="SourceGraphic" in2="BackgroundImageFix" result="shape"/>
<feGaussianBlur stdDeviation="2.00629" result="effect1_foregroundBlur_46_2944"/>
</filter>
<filter id="filter4_f_46_2944" x="22.8425" y="29.4735" width="32.1416" height="32.6484" filterUnits="userSpaceOnUse" color-interpolation-filters="sRGB">
<feFlood flood-opacity="0" result="BackgroundImageFix"/>
<feBlend mode="normal" in="SourceGraphic" in2="BackgroundImageFix" result="shape"/>
<feGaussianBlur stdDeviation="2.42031" result="effect1_foregroundBlur_46_2944"/>
</filter>
<filter id="filter5_f_46_2944" x="26.3497" y="31.7339" width="5.51774" height="5.52342" filterUnits="userSpaceOnUse" color-interpolation-filters="sRGB">
<feFlood flood-opacity="0" result="BackgroundImageFix"/>
<feBlend mode="normal" in="SourceGraphic" in2="BackgroundImageFix" result="shape"/>
<feGaussianBlur stdDeviation="1.09434" result="effect1_foregroundBlur_46_2944"/>
</filter>
<filter id="filter6_f_46_2944" x="51.6457" y="46.0763" width="5.34531" height="5.35014" filterUnits="userSpaceOnUse" color-interpolation-filters="sRGB">
<feFlood flood-opacity="0" result="BackgroundImageFix"/>
<feBlend mode="normal" in="SourceGraphic" in2="BackgroundImageFix" result="shape"/>
<feGaussianBlur stdDeviation="1.09434" result="effect1_foregroundBlur_46_2944"/>
</filter>
<filter id="filter7_f_46_2944" x="27.1476" y="49.9176" width="5.49272" height="5.49827" filterUnits="userSpaceOnUse" color-interpolation-filters="sRGB">
<feFlood flood-opacity="0" result="BackgroundImageFix"/>
<feBlend mode="normal" in="SourceGraphic" in2="BackgroundImageFix" result="shape"/>
<feGaussianBlur stdDeviation="1.09434" result="effect1_foregroundBlur_46_2944"/>
</filter>
<filter id="filter8_f_46_2944" x="9.62301" y="12.0301" width="49.7793" height="50.922" filterUnits="userSpaceOnUse" color-interpolation-filters="sRGB">
<feFlood flood-opacity="0" result="BackgroundImageFix"/>
<feBlend mode="normal" in="SourceGraphic" in2="BackgroundImageFix" result="shape"/>
<feGaussianBlur stdDeviation="0.595935" result="effect1_foregroundBlur_46_2944"/>
</filter>
<radialGradient id="paint0_radial_46_2944" cx="0" cy="0" r="1" gradientUnits="userSpaceOnUse" gradientTransform="translate(30.2092 64.1542) rotate(-54.5036) scale(14.7046 11.3972)">
<stop stop-color="#EFFF5C"/>
<stop offset="0.414319" stop-color="#AABD00"/>
<stop offset="0.852751" stop-color="#596300"/>
</radialGradient>
<linearGradient id="paint1_diamond_46_2944" x1="0" y1="0" x2="500" y2="500" gradientUnits="userSpaceOnUse">
<stop stop-color="#EFFF5C"/>
<stop offset="0.541667" stop-color="#909846"/>
<stop offset="1" stop-color="#596300"/>
</linearGradient>
<linearGradient id="paint2_diamond_46_2944" x1="0" y1="0" x2="500" y2="500" gradientUnits="userSpaceOnUse">
<stop stop-color="#EFFF5C"/>
<stop offset="0.473958" stop-color="#C6D636"/>
<stop offset="1" stop-color="#B7C722"/>
</linearGradient>
<radialGradient id="paint3_radial_46_2944" cx="0" cy="0" r="1" gradientUnits="userSpaceOnUse" gradientTransform="translate(52.6156 58.972) rotate(-157.289) scale(16.1319 27.0774)">
<stop stop-color="#EFFF5C"/>
<stop offset="0.356211" stop-color="#CBDD27"/>
<stop offset="0.763504" stop-color="#8C9C00"/>
</radialGradient>
<radialGradient id="paint4_radial_46_2944" cx="0" cy="0" r="1" gradientUnits="userSpaceOnUse" gradientTransform="translate(52.1756 57.9152) rotate(-70.7725) scale(21.1149 37.6369)">
<stop stop-color="#EFFF5C"/>
<stop offset="0.338542" stop-color="#C5D535"/>
<stop offset="1" stop-color="#8C9C00"/>
</radialGradient>
<linearGradient id="paint5_diamond_46_2944" x1="0" y1="0" x2="500" y2="500" gradientUnits="userSpaceOnUse">
<stop stop-color="#EFFF5C"/>
<stop offset="0.447917" stop-color="#CBDD27"/>
<stop offset="1" stop-color="#8C9C00"/>
</linearGradient>
<linearGradient id="paint6_diamond_46_2944" x1="0" y1="0" x2="500" y2="500" gradientUnits="userSpaceOnUse">
<stop stop-color="#EFFF5C"/>
<stop offset="0.666667" stop-color="#CEE02E"/>
<stop offset="1" stop-color="#A4B600"/>
</linearGradient>
<linearGradient id="paint7_diamond_46_2944" x1="0" y1="0" x2="500" y2="500" gradientUnits="userSpaceOnUse">
<stop stop-color="#EFFF5C"/>
<stop offset="1" stop-color="#D2E336"/>
</linearGradient>
<linearGradient id="paint8_linear_46_2944" x1="37.288" y1="31.9579" x2="44.1916" y2="49.8172" gradientUnits="userSpaceOnUse">
<stop stop-color="white" stop-opacity="0.4"/>
<stop offset="1" stop-color="white" stop-opacity="0"/>
</linearGradient>
<linearGradient id="paint9_linear_46_2944" x1="29.0337" y1="40.5124" x2="36.9879" y2="63.3993" gradientUnits="userSpaceOnUse">
<stop stop-color="white" stop-opacity="0.77"/>
<stop offset="0.642325" stop-color="white" stop-opacity="0"/>
</linearGradient>
<linearGradient id="paint10_linear_46_2944" x1="40.1395" y1="20.1767" x2="20.7794" y2="38.1111" gradientUnits="userSpaceOnUse">
<stop stop-color="#DADADA"/>
<stop offset="1" stop-color="white" stop-opacity="0"/>
</linearGradient>
<linearGradient id="paint11_linear_46_2944" x1="40.1395" y1="20.1767" x2="20.7794" y2="38.1111" gradientUnits="userSpaceOnUse">
<stop stop-color="#DADADA"/>
<stop offset="1" stop-color="white" stop-opacity="0"/>
</linearGradient>
<radialGradient id="paint12_radial_46_2944" cx="0" cy="0" r="1" gradientUnits="userSpaceOnUse" gradientTransform="translate(46.3835 61.5218) rotate(90) scale(2.63237 6.2425)">
<stop stop-color="white"/>
<stop offset="1" stop-color="white" stop-opacity="0"/>
</radialGradient>
<radialGradient id="paint13_radial_46_2944" cx="0" cy="0" r="1" gradientUnits="userSpaceOnUse" gradientTransform="translate(45.4628 36.2021) rotate(90) scale(4.26683 5.32177)">
<stop stop-color="white"/>
<stop offset="1" stop-color="white" stop-opacity="0"/>
</radialGradient>
<radialGradient id="paint14_radial_46_2944" cx="0" cy="0" r="1" gradientUnits="userSpaceOnUse" gradientTransform="translate(25.1498 39.1746) rotate(90.5567) scale(1.86307 6.261)">
<stop stop-color="white"/>
<stop offset="1" stop-color="white" stop-opacity="0"/>
</radialGradient>
</defs>
</svg>
