<svg width="80" height="86" viewBox="0 0 80 86" fill="none" xmlns="http://www.w3.org/2000/svg">
<g filter="url(#filter0_d_46_2942)">
<path d="M40.5386 65.4046L27.7499 60.0112L32.4669 50.7479L40.5386 55.388V65.4046Z" fill="url(#paint0_radial_46_2942)"/>
<g clip-path="url(#paint1_diamond_46_2942_clip_path)" data-figma-skip-parse="true"><g transform="matrix(0.0023062 0.0212939 -0.0233744 0.00253152 25.6236 37.7256)"><rect x="0" y="0" width="1087.99" height="326.696" fill="url(#paint1_diamond_46_2942)" opacity="1" shape-rendering="crispEdges"/><rect x="0" y="0" width="1087.99" height="326.696" transform="scale(1 -1)" fill="url(#paint1_diamond_46_2942)" opacity="1" shape-rendering="crispEdges"/><rect x="0" y="0" width="1087.99" height="326.696" transform="scale(-1 1)" fill="url(#paint1_diamond_46_2942)" opacity="1" shape-rendering="crispEdges"/><rect x="0" y="0" width="1087.99" height="326.696" transform="scale(-1)" fill="url(#paint1_diamond_46_2942)" opacity="1" shape-rendering="crispEdges"/></g></g><path d="M32.467 50.7479L29.6365 41.1388L20.7253 38.728C20.7253 38.728 20.9344 52.147 27.75 60.0097L32.467 50.7479Z" data-figma-gradient-fill="{&#34;type&#34;:&#34;GRADIENT_DIAMOND&#34;,&#34;stops&#34;:[{&#34;color&#34;:{&#34;r&#34;:0.51764708757400513,&#34;g&#34;:0.51764708757400513,&#34;b&#34;:0.51764708757400513,&#34;a&#34;:1.0},&#34;position&#34;:0.0},{&#34;color&#34;:{&#34;r&#34;:0.37647059559822083,&#34;g&#34;:0.37647059559822083,&#34;b&#34;:0.37647059559822083,&#34;a&#34;:1.0},&#34;position&#34;:0.54166668653488159},{&#34;color&#34;:{&#34;r&#34;:0.16078431904315948,&#34;g&#34;:0.16078431904315948,&#34;b&#34;:0.16078431904315948,&#34;a&#34;:1.0},&#34;position&#34;:1.0}],&#34;stopsVar&#34;:[],&#34;transform&#34;:{&#34;m00&#34;:4.6124014854431152,&#34;m01&#34;:-46.748756408691406,&#34;m02&#34;:46.691795349121094,&#34;m10&#34;:42.587841033935547,&#34;m11&#34;:5.0630412101745605,&#34;m12&#34;:13.900152206420898},&#34;opacity&#34;:1.0,&#34;blendMode&#34;:&#34;NORMAL&#34;,&#34;visible&#34;:true}"/>
<g clip-path="url(#paint2_diamond_46_2942_clip_path)" data-figma-skip-parse="true"><g transform="matrix(-0.0220627 0.0196796 -0.0091922 -0.0405779 42.7664 18.8147)"><rect x="0" y="0" width="1039.07" height="431.49" fill="url(#paint2_diamond_46_2942)" opacity="1" shape-rendering="crispEdges"/><rect x="0" y="0" width="1039.07" height="431.49" transform="scale(1 -1)" fill="url(#paint2_diamond_46_2942)" opacity="1" shape-rendering="crispEdges"/><rect x="0" y="0" width="1039.07" height="431.49" transform="scale(-1 1)" fill="url(#paint2_diamond_46_2942)" opacity="1" shape-rendering="crispEdges"/><rect x="0" y="0" width="1039.07" height="431.49" transform="scale(-1)" fill="url(#paint2_diamond_46_2942)" opacity="1" shape-rendering="crispEdges"/></g></g><path d="M29.6365 41.1403C29.6365 41.1403 34.6333 34.5015 40.5402 32.4567V20.9057C40.5402 20.9057 25.6176 30.8316 20.7253 38.728L29.6365 41.1388V41.1403Z" data-figma-gradient-fill="{&#34;type&#34;:&#34;GRADIENT_DIAMOND&#34;,&#34;stops&#34;:[{&#34;color&#34;:{&#34;r&#34;:0.63873696327209473,&#34;g&#34;:0.63873696327209473,&#34;b&#34;:0.63873696327209473,&#34;a&#34;:1.0},&#34;position&#34;:0.0},{&#34;color&#34;:{&#34;r&#34;:0.34509804844856262,&#34;g&#34;:0.34509804844856262,&#34;b&#34;:0.34509804844856262,&#34;a&#34;:1.0},&#34;position&#34;:0.47395834326744080},{&#34;color&#34;:{&#34;r&#34;:0.34901961684226990,&#34;g&#34;:0.34901961684226990,&#34;b&#34;:0.34901961684226990,&#34;a&#34;:1.0},&#34;position&#34;:1.0}],&#34;stopsVar&#34;:[],&#34;transform&#34;:{&#34;m00&#34;:-44.125308990478516,&#34;m01&#34;:-18.384408950805664,&#34;m02&#34;:74.021232604980469,&#34;m10&#34;:39.359161376953125,&#34;m11&#34;:-81.155868530273438,&#34;m12&#34;:39.713081359863281},&#34;opacity&#34;:1.0,&#34;blendMode&#34;:&#34;NORMAL&#34;,&#34;visible&#34;:true}"/>
<path d="M40.5385 65.4046L53.3287 60.0112L48.6118 50.7479L40.5385 55.388V65.4046Z" fill="url(#paint3_radial_46_2942)"/>
<path d="M48.6121 50.7479L51.4425 41.1388L60.3537 38.728C60.3537 38.728 60.1446 52.147 53.329 60.0097L48.6121 50.7479Z" fill="url(#paint4_radial_46_2942)"/>
<g clip-path="url(#paint5_diamond_46_2942_clip_path)" data-figma-skip-parse="true"><g transform="matrix(-0.0211402 -0.0178346 0.0391137 -0.0357891 61.6772 39.0324)"><rect x="0" y="0" width="1027.07" height="299.915" fill="url(#paint5_diamond_46_2942)" opacity="1" shape-rendering="crispEdges"/><rect x="0" y="0" width="1027.07" height="299.915" transform="scale(1 -1)" fill="url(#paint5_diamond_46_2942)" opacity="1" shape-rendering="crispEdges"/><rect x="0" y="0" width="1027.07" height="299.915" transform="scale(-1 1)" fill="url(#paint5_diamond_46_2942)" opacity="1" shape-rendering="crispEdges"/><rect x="0" y="0" width="1027.07" height="299.915" transform="scale(-1)" fill="url(#paint5_diamond_46_2942)" opacity="1" shape-rendering="crispEdges"/></g></g><path d="M51.4422 41.1403C51.4422 41.1403 46.4455 34.5015 40.5385 32.4567V20.9057C40.5385 20.9057 55.4596 30.8301 60.3534 38.728L51.4422 41.1388V41.1403Z" data-figma-gradient-fill="{&#34;type&#34;:&#34;GRADIENT_DIAMOND&#34;,&#34;stops&#34;:[{&#34;color&#34;:{&#34;r&#34;:0.46274510025978088,&#34;g&#34;:0.46274510025978088,&#34;b&#34;:0.46274510025978088,&#34;a&#34;:1.0},&#34;position&#34;:0.0},{&#34;color&#34;:{&#34;r&#34;:0.30196079611778259,&#34;g&#34;:0.30196079611778259,&#34;b&#34;:0.30196079611778259,&#34;a&#34;:1.0},&#34;position&#34;:0.44791665673255920},{&#34;color&#34;:{&#34;r&#34;:0.21568627655506134,&#34;g&#34;:0.21568627655506134,&#34;b&#34;:0.21568627655506134,&#34;a&#34;:1.0},&#34;position&#34;:1.0}],&#34;stopsVar&#34;:[],&#34;transform&#34;:{&#34;m00&#34;:-42.280353546142578,&#34;m01&#34;:78.227378845214844,&#34;m02&#34;:43.703674316406250,&#34;m10&#34;:-35.669242858886719,&#34;m11&#34;:-71.578193664550781,&#34;m12&#34;:92.656143188476562},&#34;opacity&#34;:1.0,&#34;blendMode&#34;:&#34;NORMAL&#34;,&#34;visible&#34;:true}"/>
<g clip-path="url(#paint6_diamond_46_2942_clip_path)" data-figma-skip-parse="true"><g transform="matrix(0.00307493 0.021217 -0.0268497 0.00389126 37.4621 34.1125)"><rect x="0" y="0" width="1022.47" height="413.543" fill="url(#paint6_diamond_46_2942)" opacity="1" shape-rendering="crispEdges"/><rect x="0" y="0" width="1022.47" height="413.543" transform="scale(1 -1)" fill="url(#paint6_diamond_46_2942)" opacity="1" shape-rendering="crispEdges"/><rect x="0" y="0" width="1022.47" height="413.543" transform="scale(-1 1)" fill="url(#paint6_diamond_46_2942)" opacity="1" shape-rendering="crispEdges"/><rect x="0" y="0" width="1022.47" height="413.543" transform="scale(-1)" fill="url(#paint6_diamond_46_2942)" opacity="1" shape-rendering="crispEdges"/></g></g><path d="M40.5388 32.4567V55.388L32.4671 50.7495L29.6367 41.1403C29.6367 41.1403 32.9914 34.5707 40.5404 32.4567H40.5388Z" data-figma-gradient-fill="{&#34;type&#34;:&#34;GRADIENT_DIAMOND&#34;,&#34;stops&#34;:[{&#34;color&#34;:{&#34;r&#34;:0.55686277151107788,&#34;g&#34;:0.55686277151107788,&#34;b&#34;:0.55686277151107788,&#34;a&#34;:1.0},&#34;position&#34;:0.0},{&#34;color&#34;:{&#34;r&#34;:0.37254902720451355,&#34;g&#34;:0.37254902720451355,&#34;b&#34;:0.37254902720451355,&#34;a&#34;:1.0},&#34;position&#34;:0.66666668653488159},{&#34;color&#34;:{&#34;r&#34;:0.25882354378700256,&#34;g&#34;:0.25882354378700256,&#34;b&#34;:0.25882354378700256,&#34;a&#34;:1.0},&#34;position&#34;:1.0}],&#34;stopsVar&#34;:[],&#34;transform&#34;:{&#34;m00&#34;:6.1498689651489258,&#34;m01&#34;:-53.699413299560547,&#34;m02&#34;:61.236900329589844,&#34;m10&#34;:42.434093475341797,&#34;m11&#34;:7.7825222015380859,&#34;m12&#34;:9.004211425781250},&#34;opacity&#34;:1.0,&#34;blendMode&#34;:&#34;NORMAL&#34;,&#34;visible&#34;:true}"/>
<g clip-path="url(#paint7_diamond_46_2942_clip_path)" data-figma-skip-parse="true"><g transform="matrix(0.0037668 0.00822545 -0.00919244 0.00420962 42.1514 43.9523)"><rect x="0" y="0" width="1631.54" height="1357.76" fill="url(#paint7_diamond_46_2942)" opacity="1" shape-rendering="crispEdges"/><rect x="0" y="0" width="1631.54" height="1357.76" transform="scale(1 -1)" fill="url(#paint7_diamond_46_2942)" opacity="1" shape-rendering="crispEdges"/><rect x="0" y="0" width="1631.54" height="1357.76" transform="scale(-1 1)" fill="url(#paint7_diamond_46_2942)" opacity="1" shape-rendering="crispEdges"/><rect x="0" y="0" width="1631.54" height="1357.76" transform="scale(-1)" fill="url(#paint7_diamond_46_2942)" opacity="1" shape-rendering="crispEdges"/></g></g><path d="M40.5386 32.4567V55.388L48.6103 50.7495L51.4408 41.1403C51.4408 41.1403 48.0861 34.5707 40.5371 32.4567H40.5386Z" data-figma-gradient-fill="{&#34;type&#34;:&#34;GRADIENT_DIAMOND&#34;,&#34;stops&#34;:[{&#34;color&#34;:{&#34;r&#34;:0.7294117808341980,&#34;g&#34;:0.7294117808341980,&#34;b&#34;:0.7294117808341980,&#34;a&#34;:1.0},&#34;position&#34;:0.0},{&#34;color&#34;:{&#34;r&#34;:0.43921568989753723,&#34;g&#34;:0.43921568989753723,&#34;b&#34;:0.43921568989753723,&#34;a&#34;:1.0},&#34;position&#34;:1.0}],&#34;stopsVar&#34;:[],&#34;transform&#34;:{&#34;m00&#34;:7.5335917472839355,&#34;m01&#34;:-18.384874343872070,&#34;m02&#34;:47.577091217041016,&#34;m10&#34;:16.450899124145508,&#34;m11&#34;:8.4192419052124023,&#34;m12&#34;:31.517238616943359},&#34;opacity&#34;:1.0,&#34;blendMode&#34;:&#34;NORMAL&#34;,&#34;visible&#34;:true}"/>
<g style="mix-blend-mode:soft-light">
<path d="M29.6367 41.1403C29.6367 41.1403 37.7084 49.1397 48.6121 50.7495L50.1511 45.5267C50.1511 45.5267 42.6375 39.8134 40.5404 32.4567C39.3827 32.7841 38.0389 33.2869 36.6352 34.0772C32.7885 36.2434 30.6591 39.3507 29.6367 41.1403Z" fill="white"/>
</g>
<path d="M29.6367 41.1403C29.6367 41.1403 37.7084 49.1397 48.6121 50.7495L50.1511 45.5267C50.1511 45.5267 42.6375 39.8134 40.5404 32.4567C39.3827 32.7841 38.0389 33.2869 36.6352 34.0772C32.7885 36.2434 30.6591 39.3507 29.6367 41.1403Z" fill="url(#paint8_linear_46_2942)"/>
<g style="mix-blend-mode:soft-light">
<path d="M31.672 48.0528C31.672 48.0528 40.4494 52.4207 46.2426 52.1102L44.1224 53.3278C44.1224 53.3278 40.1896 54.0935 35.8032 52.6667L32.4653 50.7495L31.6705 48.0528H31.672Z" fill="white"/>
</g>
<g style="mix-blend-mode:soft-light">
<path d="M47.9124 39.9165C47.9124 39.9165 50.7782 36.757 53.3288 30.8593C53.3288 30.8593 58.5363 35.3748 60.3535 38.7295C60.3535 38.7295 60.1552 45.6066 58.4686 50.0807C58.4686 50.0807 59.3757 46.4876 47.9124 39.918V39.9165Z" fill="white"/>
</g>
<path opacity="0.3" d="M47.9124 39.9165C47.9124 39.9165 50.7782 36.757 53.3288 30.8593C53.3288 30.8593 58.5363 35.3748 60.3535 38.7295C60.3535 38.7295 60.1552 45.6066 58.4686 50.0807C58.4686 50.0807 59.3757 46.4876 47.9124 39.918V39.9165Z" fill="white"/>
<g style="mix-blend-mode:soft-light" opacity="0.5">
<path d="M40.5386 65.4046C40.5386 65.4046 28.2389 54.2595 29.6349 41.1403C29.6349 41.1403 25.6867 47.2564 27.7485 60.0112L40.5386 65.4046Z" fill="white"/>
</g>
<path d="M40.5386 65.4046C40.5386 65.4046 28.2389 54.2595 29.6349 41.1403C29.6349 41.1403 25.6867 47.2564 27.7485 60.0112L40.5386 65.4046Z" fill="url(#paint9_linear_46_2942)"/>
<g style="mix-blend-mode:soft-light">
<path d="M20.7253 38.728C20.7253 38.728 35.8478 23.0428 37.7789 25.9378C37.7789 25.9378 39.527 27.1617 40.5402 32.4552V20.9057C40.5402 20.9057 26.0373 30.3411 20.7253 38.728Z" fill="url(#paint10_linear_46_2942)"/>
</g>
<path opacity="0.8" d="M20.7253 38.728C20.7253 38.728 36.0015 22.9659 37.7789 25.9378C37.7789 25.9378 39.527 27.1617 40.5402 32.4552V20.9057C40.5402 20.9057 26.0373 30.3411 20.7253 38.728Z" fill="url(#paint11_linear_46_2942)"/>
<g style="mix-blend-mode:soft-light">
<path d="M48.6121 50.7479L53.329 57.3898C53.329 57.3898 59.3051 51.1 60.3537 38.728C60.2722 41.803 59.8755 44.4136 59.4451 46.4507C58.9454 48.8123 58.3688 50.5373 58.152 51.1677C57.514 53.0188 56.6653 55.4249 54.8327 58.0694C54.2484 58.9119 53.7088 59.5699 53.3305 60.0097C51.7577 56.9224 50.1849 53.8352 48.6136 50.7479H48.6121Z" fill="white"/>
</g>
<path opacity="0.7" d="M48.6121 50.7479L53.329 57.3898C53.329 57.3898 59.3051 51.1 60.3537 38.728C60.2722 41.803 59.8755 44.4136 59.4451 46.4507C58.9454 48.8123 58.3688 50.5373 58.152 51.1677C57.514 53.0188 56.6653 55.4249 54.8327 58.0694C54.2484 58.9119 53.7088 59.5699 53.3305 60.0097C51.7577 56.9224 50.1849 53.8352 48.6136 50.7479H48.6121Z" fill="white"/>
<g style="mix-blend-mode:soft-light">
<path d="M53.3287 60.0112L40.5385 65.4046C40.5385 65.4046 45.2555 60.8845 53.3287 60.0112Z" fill="white"/>
</g>
<path d="M53.3287 60.0112L40.5385 65.4046C40.5385 65.4046 45.2555 60.8845 53.3287 60.0112Z" fill="url(#paint12_radial_46_2942)"/>
<g style="mix-blend-mode:soft-light">
<path d="M40.5385 32.4567C40.5385 32.4567 47.0727 33.6267 51.4422 41.1403C51.4422 41.1403 49.3805 31.565 40.5385 32.4567Z" fill="white"/>
</g>
<path d="M40.5385 32.4567C40.5385 32.4567 47.0727 33.6267 51.4422 41.1403C51.4422 41.1403 49.3805 31.565 40.5385 32.4567Z" fill="url(#paint13_radial_46_2942)"/>
<g style="mix-blend-mode:soft-light">
<path d="M29.6365 41.1403L20.7253 38.7296C20.7253 38.7296 24.8734 37.3628 29.6365 41.1403Z" fill="white"/>
</g>
<path d="M29.6365 41.1403L20.7253 38.7296C20.7253 38.7296 24.8734 37.3628 29.6365 41.1403Z" fill="url(#paint14_radial_46_2942)"/>
<path d="M53.2501 55.3296L53.7638 57.8428L56.2771 58.3565L53.7638 58.8702L53.2501 61.3835L52.7365 58.8702L50.2232 58.3565L52.7365 57.8428L53.2501 55.3296Z" fill="white"/>
<g filter="url(#filter1_f_46_2942)">
<path d="M53.2501 55.3296L53.7638 57.8428L56.2771 58.3565L53.7638 58.8702L53.2501 61.3835L52.7365 58.8702L50.2232 58.3565L52.7365 57.8428L53.2501 55.3296Z" fill="white"/>
</g>
<path d="M22.552 34.8813L23.1527 37.82L26.0915 38.4207L23.1527 39.0214L22.552 41.9601L21.9514 39.0214L19.0126 38.4207L21.9514 37.82L22.552 34.8813Z" fill="white"/>
<g filter="url(#filter2_f_46_2942)">
<path d="M22.552 34.8813L23.1527 37.82L26.0915 38.4207L23.1527 39.0214L22.552 41.9601L21.9514 39.0214L19.0126 38.4207L21.9514 37.82L22.552 34.8813Z" fill="white"/>
</g>
<path d="M53.2553 29.8076L53.6394 31.6869L55.5187 32.071L53.6394 32.4551L53.2553 34.3344L52.8712 32.4551L50.9919 32.071L52.8712 31.6869L53.2553 29.8076Z" fill="white"/>
<g filter="url(#filter3_f_46_2942)">
<path d="M53.2553 29.8076L53.6394 31.6869L55.5187 32.071L53.6394 32.4551L53.2553 34.3344L52.8712 32.4551L50.9919 32.071L52.8712 31.6869L53.2553 29.8076Z" fill="white"/>
</g>
<g style="mix-blend-mode:overlay" filter="url(#filter4_f_46_2942)">
<g style="mix-blend-mode:lighten">
<path d="M34.5441 35.0829C34.5196 34.9746 34.5878 34.8646 34.6961 34.8401C34.8044 34.8157 34.9145 34.8838 34.939 34.9921C34.9635 35.1003 34.8953 35.2104 34.787 35.2348C34.6786 35.2593 34.5686 35.1912 34.5441 35.0829Z" fill="#FFFBFC"/>
</g>
<g style="mix-blend-mode:lighten">
<path d="M50.1766 48.8861C50.1381 48.7202 50.243 48.5543 50.409 48.5176C50.575 48.4792 50.741 48.584 50.7777 48.7499C50.8161 48.9158 50.7113 49.0817 50.5453 49.1184C50.3793 49.1568 50.2133 49.052 50.1766 48.8861Z" fill="#FFFBFC"/>
</g>
<g style="mix-blend-mode:lighten">
<path d="M30.9377 37.7898C30.8976 37.6099 31.0094 37.4301 31.1894 37.3899C31.3693 37.3497 31.5493 37.4615 31.5895 37.6414C31.6297 37.8213 31.5178 38.0011 31.3379 38.0413C31.1579 38.0815 30.9779 37.9697 30.9377 37.7898Z" fill="#FFFBFC"/>
</g>
<g style="mix-blend-mode:lighten">
<path d="M35.4527 39.73C35.6012 39.9151 35.5732 40.1858 35.388 40.336C35.2028 40.4845 34.932 40.4565 34.7817 40.2714C34.6332 40.0863 34.6611 39.8156 34.8463 39.6654C35.0316 39.5169 35.3024 39.5449 35.4527 39.73Z" fill="#FFFBFC"/>
</g>
<g style="mix-blend-mode:lighten">
<path d="M37.0095 39.2654C37.1353 39.4226 37.1108 39.6514 36.9536 39.7772C36.7963 39.9029 36.5674 39.8784 36.4416 39.7213C36.3158 39.5641 36.3402 39.3353 36.4975 39.2096C36.6548 39.0838 36.8837 39.1083 37.0095 39.2654Z" fill="#FFFBFC"/>
</g>
<g style="mix-blend-mode:lighten">
<path d="M37.0673 36.983C37.1302 37.0616 37.118 37.1786 37.0394 37.2415C36.9607 37.3043 36.8437 37.2921 36.7808 37.2135C36.7179 37.1349 36.7301 37.0179 36.8087 36.9551C36.8874 36.8922 37.0044 36.9044 37.0673 36.983Z" fill="#FFFBFC"/>
</g>
<g style="mix-blend-mode:lighten">
<path d="M41.5423 42.388C41.5161 42.2814 41.5825 42.1732 41.6891 42.147C41.7956 42.1208 41.904 42.1871 41.9302 42.2937C41.9564 42.4002 41.89 42.5085 41.7834 42.5347C41.6768 42.5609 41.5685 42.4945 41.5423 42.388Z" fill="#FFFBFC"/>
</g>
<g style="mix-blend-mode:lighten">
<path d="M38.2292 39.0804C38.1995 38.9564 38.2764 38.8306 38.4005 38.8009C38.5245 38.7712 38.6503 38.8481 38.68 38.9721C38.7097 39.0961 38.6329 39.2218 38.5088 39.2515C38.3847 39.2812 38.2589 39.2044 38.2292 39.0804Z" fill="#FFFBFC"/>
</g>
<g style="mix-blend-mode:lighten">
<path d="M27.7883 48.1731C27.7324 47.9425 27.8757 47.7103 28.1063 47.6544C28.3369 47.5985 28.5693 47.7417 28.6253 47.9722C28.6812 48.2028 28.5379 48.435 28.3072 48.4909C28.0766 48.5468 27.8442 48.4036 27.7883 48.1731Z" fill="#FFFBFC"/>
</g>
<g style="mix-blend-mode:lighten">
<path d="M46.394 57.7702C46.5565 57.7405 46.7138 57.8471 46.7435 58.0095C46.7732 58.1719 46.6666 58.3291 46.5041 58.3588C46.3416 58.3885 46.1843 58.2819 46.1546 58.1195C46.1249 57.9571 46.2315 57.7999 46.394 57.7702Z" fill="#FFFBFC"/>
</g>
<g style="mix-blend-mode:lighten">
<path d="M37.4291 57.9007C37.5339 57.8815 37.6335 57.9496 37.6528 58.0544C37.672 58.1592 37.6038 58.2587 37.499 58.2779C37.3942 58.2971 37.2946 58.229 37.2753 58.1242C37.2561 58.0195 37.3243 57.9199 37.4291 57.9007Z" fill="#FFFBFC"/>
</g>
<g style="mix-blend-mode:lighten">
<path d="M37.8361 55.6444C38.0598 55.6024 38.273 55.7491 38.3149 55.9727C38.3568 56.1962 38.2101 56.4093 37.9864 56.4512C37.7627 56.4931 37.5496 56.3464 37.5076 56.1229C37.4657 55.8993 37.6125 55.6863 37.8361 55.6444Z" fill="#FFFBFC"/>
</g>
<g style="mix-blend-mode:lighten">
<path d="M36.4015 54.4814C36.6147 54.4412 36.8209 54.5827 36.8611 54.7957C36.9013 55.0088 36.7597 55.2149 36.5466 55.255C36.3334 55.2952 36.1272 55.1538 36.087 54.9407C36.0468 54.7276 36.1884 54.5215 36.4015 54.4814Z" fill="#FFFBFC"/>
</g>
<g style="mix-blend-mode:lighten">
<path d="M36.7004 53.0266C36.8803 52.9934 37.0551 53.1122 37.0883 53.2921C37.1215 53.472 37.0026 53.6466 36.8227 53.6798C36.6427 53.713 36.468 53.5942 36.4348 53.4143C36.4016 53.2344 36.5204 53.0598 36.7004 53.0266Z" fill="#FFFBFC"/>
</g>
<g style="mix-blend-mode:lighten">
<path d="M34.8848 51.9946C34.9757 51.9772 35.0648 52.0383 35.0805 52.1291C35.098 52.2199 35.0369 52.309 34.946 52.3247C34.8551 52.3422 34.766 52.281 34.7503 52.1902C34.7328 52.0994 34.794 52.0103 34.8848 51.9946Z" fill="#FFFBFC"/>
</g>
<g style="mix-blend-mode:lighten">
<path d="M42.4245 39.1029C42.5485 39.2584 42.5241 39.4837 42.3703 39.6077C42.2148 39.7317 41.9894 39.7072 41.8653 39.5535C41.7413 39.3981 41.7657 39.1728 41.9195 39.0488C42.075 38.9248 42.3004 38.9493 42.4245 39.1029Z" fill="#FFFBFC"/>
</g>
<path d="M45.2484 35.509C45.3165 35.5929 45.3025 35.7151 45.2187 35.7832C45.1348 35.8513 45.0125 35.8374 44.9443 35.7535C44.8762 35.6697 44.8902 35.5475 44.974 35.4793C45.0579 35.4112 45.1802 35.4252 45.2484 35.509Z" fill="#FFFBFC"/>
</g>
<g style="mix-blend-mode:lighten">
<path d="M50.1768 48.8855C50.1383 48.7196 50.2432 48.5537 50.4092 48.517C50.5752 48.4786 50.7412 48.5833 50.7778 48.7493C50.8163 48.9152 50.7114 49.0811 50.5455 49.1178C50.3795 49.1562 50.2135 49.0514 50.1768 48.8855Z" fill="#FFFBFC"/>
</g>
<g style="mix-blend-mode:lighten">
<path d="M30.9385 37.789C30.8983 37.6091 31.0102 37.4293 31.1901 37.3891C31.3701 37.3489 31.5501 37.4607 31.5903 37.6406C31.6305 37.8205 31.5186 38.0003 31.3387 38.0405C31.1587 38.0807 30.9787 37.9689 30.9385 37.789Z" fill="#FFFBFC"/>
</g>
<g style="mix-blend-mode:lighten">
<path d="M35.4528 39.7307C35.6013 39.9158 35.5733 40.1865 35.3881 40.3367C35.2029 40.4851 34.9321 40.4572 34.7818 40.2721C34.6333 40.0869 34.6612 39.8162 34.8465 39.666C35.0317 39.5176 35.3025 39.5455 35.4528 39.7307Z" fill="#FFFBFC"/>
</g>
<g style="mix-blend-mode:lighten">
<path d="M38.9558 41.7404C39.0816 41.8976 39.0572 42.1264 38.8999 42.2521C38.7426 42.3779 38.5138 42.3534 38.3879 42.1962C38.2621 42.0391 38.2866 41.8103 38.4439 41.6845C38.6011 41.5588 38.83 41.5832 38.9558 41.7404Z" fill="#FFFBFC"/>
</g>
<g style="mix-blend-mode:lighten">
<path d="M37.0672 36.9823C37.1301 37.0609 37.1179 37.1779 37.0392 37.2408C36.9606 37.3037 36.8435 37.2915 36.7806 37.2129C36.7177 37.1343 36.73 37.0173 36.8086 36.9544C36.8872 36.8915 37.0043 36.9037 37.0672 36.9823Z" fill="#FFFBFC"/>
</g>
<g style="mix-blend-mode:lighten">
<path d="M41.5418 42.3886C41.5156 42.282 41.582 42.1738 41.6886 42.1476C41.7952 42.1214 41.9035 42.1877 41.9297 42.2943C41.9559 42.4008 41.8895 42.5091 41.7829 42.5353C41.6763 42.5615 41.568 42.4951 41.5418 42.3886Z" fill="#FFFBFC"/>
</g>
<g style="mix-blend-mode:lighten">
<path d="M38.2299 39.08C38.2002 38.956 38.2771 38.8303 38.4011 38.8006C38.5252 38.7709 38.651 38.8477 38.6807 38.9717C38.7104 39.0957 38.6335 39.2215 38.5095 39.2511C38.3854 39.2808 38.2596 39.204 38.2299 39.08Z" fill="#FFFBFC"/>
</g>
<g style="mix-blend-mode:lighten">
<path d="M35.9329 42.2175C35.891 42.0411 35.9993 41.8647 36.1758 41.821C36.3523 41.7791 36.5287 41.8874 36.5724 42.0638C36.6144 42.2402 36.506 42.4166 36.3295 42.4602C36.1531 42.5021 35.9766 42.3939 35.9329 42.2175Z" fill="#FFFBFC"/>
</g>
<g style="mix-blend-mode:lighten">
<path d="M34.8297 44.71C34.8017 44.5964 34.8716 44.4847 34.9852 44.4567C35.0988 44.4288 35.2106 44.4986 35.2386 44.6122C35.2665 44.7257 35.1966 44.8374 35.0831 44.8654C34.9695 44.8933 34.8577 44.8235 34.8297 44.71Z" fill="#FFFBFC"/>
</g>
<g style="mix-blend-mode:lighten">
<path d="M28.9569 41.4452C28.8992 41.2042 29.0477 40.9614 29.2889 40.9038C29.53 40.8461 29.7729 40.9946 29.8305 41.2356C29.8882 41.4766 29.7397 41.7194 29.4986 41.777C29.2574 41.8346 29.0145 41.6862 28.9569 41.4452Z" fill="#FFFBFC"/>
</g>
<g style="mix-blend-mode:lighten">
<path d="M28.9576 41.4462C28.8999 41.2051 29.0484 40.9624 29.2895 40.9048C29.5307 40.8471 29.7736 40.9956 29.8312 41.2366C29.8889 41.4776 29.7404 41.7203 29.4992 41.778C29.2581 41.8356 29.0152 41.6872 28.9576 41.4462Z" fill="#FFFBFC"/>
</g>
<g style="mix-blend-mode:lighten">
<path d="M27.7883 48.1731C27.7324 47.9425 27.8757 47.7103 28.1063 47.6544C28.3369 47.5985 28.5693 47.7417 28.6253 47.9722C28.6812 48.2028 28.5379 48.435 28.3072 48.4909C28.0766 48.5468 27.8442 48.4036 27.7883 48.1731Z" fill="#FFFBFC"/>
</g>
<g style="mix-blend-mode:lighten">
<path d="M46.3945 57.7703C46.557 57.7407 46.7143 57.8472 46.744 58.0096C46.7737 58.172 46.6671 58.3292 46.5046 58.3589C46.3421 58.3886 46.1848 58.2821 46.1551 58.1196C46.1254 57.9572 46.232 57.8 46.3945 57.7703Z" fill="#FFFBFC"/>
</g>
<g style="mix-blend-mode:lighten">
<path d="M37.4287 57.9005C37.5335 57.8813 37.6331 57.9494 37.6523 58.0542C37.6716 58.159 37.6034 58.2585 37.4986 58.2778C37.3937 58.297 37.2941 58.2289 37.2749 58.1241C37.2557 58.0193 37.3238 57.9197 37.4287 57.9005Z" fill="#FFFBFC"/>
</g>
<g style="mix-blend-mode:lighten">
<path d="M37.8366 55.6452C38.0603 55.6033 38.2735 55.75 38.3154 55.9735C38.3573 56.1971 38.2105 56.4102 37.9869 56.4521C37.7632 56.494 37.5501 56.3473 37.5081 56.1237C37.4662 55.9002 37.613 55.6871 37.8366 55.6452Z" fill="#FFFBFC"/>
</g>
<g style="mix-blend-mode:lighten">
<path d="M36.4019 54.4806C36.6151 54.4404 36.8213 54.5819 36.8615 54.7949C36.9016 55.008 36.7601 55.2141 36.5469 55.2543C36.3338 55.2944 36.1276 55.153 36.0874 54.9399C36.0472 54.7268 36.1887 54.5207 36.4019 54.4806Z" fill="#FFFBFC"/>
</g>
<g style="mix-blend-mode:lighten">
<path d="M36.6999 53.0265C36.8799 52.9933 37.0546 53.1121 37.0878 53.292C37.121 53.4718 37.0022 53.6465 36.8222 53.6797C36.6423 53.7128 36.4675 53.5941 36.4343 53.4142C36.4011 53.2343 36.52 53.0597 36.6999 53.0265Z" fill="#FFFBFC"/>
</g>
<g style="mix-blend-mode:lighten">
<path d="M34.8851 51.9949C34.976 51.9774 35.0651 52.0385 35.0808 52.1293C35.0983 52.2202 35.0372 52.3092 34.9463 52.3249C34.8554 52.3424 34.7663 52.2813 34.7506 52.1905C34.7331 52.0997 34.7943 52.0106 34.8851 51.9949Z" fill="#FFFBFC"/>
</g>
<g style="mix-blend-mode:lighten">
<path d="M42.4251 39.1023C42.5491 39.2577 42.5247 39.483 42.3709 39.607C42.2154 39.731 41.99 39.7065 41.8659 39.5529C41.7419 39.3974 41.7663 39.1721 41.9201 39.0481C42.0756 38.9241 42.301 38.9486 42.4251 39.1023Z" fill="#FFFBFC"/>
</g>
<path d="M45.2487 35.5096C45.3169 35.5935 45.3029 35.7157 45.219 35.7838C45.1352 35.8519 45.0128 35.838 44.9447 35.7541C44.8765 35.6703 44.8905 35.5481 44.9744 35.48C45.0583 35.4118 45.1806 35.4258 45.2487 35.5096Z" fill="#FFFBFC"/>
<path d="M29.2365 34.434L29.3356 34.9214L29.8206 35.0211L29.3356 35.1207L29.2365 35.6081L29.1373 35.1207L28.6523 35.0211L29.1373 34.9214L29.2365 34.434Z" fill="white"/>
<g filter="url(#filter5_f_46_2942)">
<path d="M29.2365 34.434L29.3356 34.9214L29.8206 35.0211L29.3356 35.1207L29.2365 35.6081L29.1373 35.1207L28.6523 35.0211L29.1373 34.9214L29.2365 34.434Z" fill="white"/>
</g>
<path d="M54.7526 49.1267L55.0932 49.4877L55.5572 49.3146L55.198 49.6568L55.3703 50.1232L55.0297 49.7622L54.5656 49.9353L54.9249 49.5931L54.7526 49.1267Z" fill="white"/>
<g filter="url(#filter6_f_46_2942)">
<path d="M54.7526 49.1267L55.0932 49.4877L55.5572 49.3146L55.198 49.6568L55.3703 50.1232L55.0297 49.7622L54.5656 49.9353L54.9249 49.5931L54.7526 49.1267Z" fill="white"/>
</g>
<path d="M29.9194 53.0622L30.1174 53.5182L30.6124 53.5141L30.1587 53.713L30.1628 54.2105L29.9648 53.7546L29.4698 53.7587L29.9235 53.5597L29.9194 53.0622Z" fill="white"/>
<g filter="url(#filter7_f_46_2942)">
<path d="M29.9194 53.0622L30.1174 53.5182L30.6124 53.5141L30.1587 53.713L30.1628 54.2105L29.9648 53.7546L29.4698 53.7587L29.9235 53.5597L29.9194 53.0622Z" fill="white"/>
</g>
</g>
<g style="mix-blend-mode:overlay" filter="url(#filter8_f_46_2942)">
<g style="mix-blend-mode:lighten">
<path d="M24.7372 13.7509C24.6855 13.5221 24.8295 13.2896 25.0584 13.2379C25.2872 13.1863 25.5198 13.3302 25.5715 13.559C25.6231 13.7878 25.4792 14.0204 25.2503 14.072C25.0214 14.1237 24.7889 13.9798 24.7372 13.7509Z" fill="#FFFBFC"/>
</g>
<g style="mix-blend-mode:lighten">
<path d="M57.7629 42.9224C57.6817 42.5718 57.9032 42.2212 58.2539 42.1437C58.6046 42.0625 58.9553 42.2839 59.0328 42.6345C59.114 42.9852 58.8925 43.3358 58.5418 43.4133C58.1912 43.4945 57.8405 43.273 57.7629 42.9224Z" fill="#FFFBFC"/>
</g>
<g style="mix-blend-mode:lighten">
<path d="M17.1183 19.4717C17.0334 19.0916 17.2696 18.7115 17.6499 18.6266C18.0301 18.5417 18.4103 18.7779 18.4952 19.158C18.5801 19.5382 18.3438 19.9183 17.9636 20.0032C17.5834 20.0881 17.2032 19.8519 17.1183 19.4717Z" fill="#FFFBFC"/>
</g>
<g style="mix-blend-mode:lighten">
<path d="M26.6569 23.5721C26.9706 23.9633 26.9116 24.5353 26.5203 24.8527C26.129 25.1665 25.5568 25.1074 25.2393 24.7162C24.9256 24.325 24.9846 23.7529 25.3759 23.4355C25.7672 23.1218 26.3394 23.1809 26.6569 23.5721Z" fill="#FFFBFC"/>
</g>
<g style="mix-blend-mode:lighten">
<path d="M29.9457 22.5903C30.2115 22.9225 30.1598 23.406 29.8276 23.6717C29.4954 23.9374 29.0118 23.8858 28.746 23.5536C28.4802 23.2214 28.5319 22.7379 28.8641 22.4722C29.1964 22.2065 29.6799 22.2582 29.9457 22.5903Z" fill="#FFFBFC"/>
</g>
<g style="mix-blend-mode:lighten">
<path d="M30.0677 17.7667C30.2006 17.9328 30.1747 18.1801 30.0086 18.313C29.8425 18.4458 29.5952 18.42 29.4623 18.2539C29.3294 18.0878 29.3552 17.8406 29.5214 17.7077C29.6875 17.5748 29.9348 17.6007 30.0677 17.7667Z" fill="#FFFBFC"/>
</g>
<g style="mix-blend-mode:lighten">
<path d="M39.522 29.1894C39.4666 28.9642 39.6069 28.7354 39.8321 28.6801C40.0572 28.6247 40.2861 28.7649 40.3415 28.9901C40.3969 29.2152 40.2566 29.444 40.0314 29.4994C39.8062 29.5548 39.5773 29.4145 39.522 29.1894Z" fill="#FFFBFC"/>
</g>
<g style="mix-blend-mode:lighten">
<path d="M32.5226 22.1991C32.4599 21.9371 32.6223 21.6714 32.8844 21.6086C33.1465 21.5459 33.4123 21.7083 33.475 21.9703C33.5378 22.2324 33.3754 22.4981 33.1133 22.5608C32.8512 22.6236 32.5854 22.4612 32.5226 22.1991Z" fill="#FFFBFC"/>
</g>
<g style="mix-blend-mode:lighten">
<path d="M25.0553 28.8277C24.9667 28.4549 25.1956 28.0821 25.5684 27.9899C25.9412 27.9013 26.3141 28.1301 26.4064 28.5029C26.495 28.8756 26.2661 29.2484 25.8933 29.3407C25.5204 29.4292 25.1476 29.2004 25.0553 28.8277Z" fill="#FFFBFC"/>
</g>
<g style="mix-blend-mode:lighten">
<path d="M23.8476 34.0977C23.7885 33.8578 23.9362 33.6216 24.1761 33.5625C24.4161 33.5035 24.6523 33.6511 24.7114 33.891C24.7705 34.1309 24.6228 34.3671 24.3829 34.4261C24.1429 34.4852 23.9067 34.3376 23.8476 34.0977Z" fill="#FFFBFC"/>
</g>
<g style="mix-blend-mode:lighten">
<path d="M17.5355 24.4746C17.4137 23.9653 17.7275 23.4523 18.2369 23.3305C18.7463 23.2087 19.2594 23.5224 19.3813 24.0317C19.5031 24.5411 19.1893 25.0541 18.6799 25.1759C18.1705 25.2976 17.6573 24.9839 17.5355 24.4746Z" fill="#FFFBFC"/>
</g>
<g style="mix-blend-mode:lighten">
<path d="M20.4875 39.5579C20.3694 39.0707 20.6721 38.5798 21.1594 38.4617C21.6467 38.3436 22.1376 38.6463 22.2557 39.1334C22.3739 39.6206 22.0712 40.1115 21.5839 40.2296C21.0966 40.3477 20.6057 40.045 20.4875 39.5579Z" fill="#FFFBFC"/>
</g>
<g style="mix-blend-mode:lighten">
<path d="M12.6815 36.3492C12.5818 35.9359 12.8366 35.5188 13.25 35.4228C13.6634 35.3232 14.0806 35.5779 14.1766 35.9912C14.2762 36.4046 14.0215 36.8216 13.6081 36.9176C13.1946 37.0172 12.7775 36.7626 12.6815 36.3492Z" fill="#FFFBFC"/>
</g>
<g style="mix-blend-mode:lighten">
<path d="M10.5069 40.6599C10.4552 40.4495 10.5844 40.2429 10.7949 40.1912C11.0053 40.1395 11.212 40.2687 11.2637 40.4791C11.3154 40.6894 11.1862 40.8961 10.9757 40.9478C10.7653 40.9995 10.5586 40.8703 10.5069 40.6599Z" fill="#FFFBFC"/>
</g>
<g style="mix-blend-mode:lighten">
<path d="M49.7718 61.6979C50.1151 61.6351 50.4474 61.8603 50.5101 62.2035C50.5729 62.5467 50.3477 62.8789 50.0044 62.9416C49.6611 63.0044 49.3289 62.7792 49.2661 62.436C49.2033 62.0928 49.4285 61.7606 49.7718 61.6979Z" fill="#FFFBFC"/>
</g>
<g style="mix-blend-mode:lighten">
<path d="M30.8322 61.9737C31.0537 61.9331 31.2641 62.077 31.3047 62.2985C31.3453 62.5199 31.2013 62.7303 30.9798 62.7709C30.7584 62.8115 30.5479 62.6676 30.5073 62.4461C30.4667 62.2247 30.6107 62.0143 30.8322 61.9737Z" fill="#FFFBFC"/>
</g>
<g style="mix-blend-mode:lighten">
<path d="M31.6921 57.2052C32.1646 57.1166 32.615 57.4266 32.7036 57.899C32.7922 58.3714 32.4821 58.8217 32.0096 58.9103C31.5371 58.9988 31.0867 58.6888 30.9981 58.2164C30.9095 57.744 31.2196 57.2937 31.6921 57.2052Z" fill="#FFFBFC"/>
</g>
<g style="mix-blend-mode:lighten">
<path d="M28.6612 54.7473C29.1115 54.6624 29.5471 54.9614 29.632 55.4116C29.7169 55.8619 29.4179 56.2974 28.9676 56.3823C28.5172 56.4672 28.0816 56.1682 27.9967 55.718C27.9118 55.2677 28.2108 54.8322 28.6612 54.7473Z" fill="#FFFBFC"/>
</g>
<g style="mix-blend-mode:lighten">
<path d="M29.2926 51.6729C29.6729 51.6028 30.042 51.8538 30.1121 52.2339C30.1823 52.6141 29.9313 52.9831 29.551 53.0533C29.1708 53.1234 28.8017 52.8724 28.7315 52.4923C28.6614 52.1121 28.9124 51.7431 29.2926 51.6729Z" fill="#FFFBFC"/>
</g>
<g style="mix-blend-mode:lighten">
<path d="M25.4572 49.4919C25.6492 49.455 25.8375 49.5842 25.8707 49.7761C25.9076 49.968 25.7784 50.1562 25.5864 50.1894C25.3945 50.2263 25.2062 50.0972 25.173 49.9053C25.1361 49.7133 25.2653 49.5251 25.4572 49.4919Z" fill="#FFFBFC"/>
</g>
<g style="mix-blend-mode:lighten">
<path d="M33.486 16.231C33.7075 16.5041 33.6632 16.9027 33.39 17.1241C33.1169 17.3456 32.7182 17.3013 32.4967 17.0282C32.2752 16.7551 32.3195 16.3565 32.5927 16.135C32.8658 15.9136 33.2645 15.9579 33.486 16.231Z" fill="#FFFBFC"/>
</g>
<g style="mix-blend-mode:lighten">
<path d="M41.3858 22.2469C41.6479 22.5753 41.5963 23.0514 41.2714 23.3135C40.9429 23.5755 40.4667 23.5238 40.2046 23.1991C39.9425 22.8706 39.9942 22.3945 40.319 22.1325C40.6475 21.8704 41.1237 21.9221 41.3858 22.2469Z" fill="#FFFBFC"/>
</g>
<path d="M40.585 16.9658C40.7289 17.1466 40.7031 17.4087 40.5222 17.5563C40.3413 17.7002 40.0792 17.6744 39.9316 17.4936C39.7876 17.3127 39.8134 17.0507 39.9943 16.903C40.1752 16.7591 40.4373 16.7849 40.585 16.9658Z" fill="#FFFBFC"/>
<path d="M47.3515 14.6516C47.4954 14.8287 47.4659 15.0871 47.2887 15.231C47.1115 15.3749 46.8531 15.3454 46.7091 15.1683C46.5652 14.9911 46.5947 14.7328 46.7719 14.5888C46.9491 14.4449 47.2075 14.4744 47.3515 14.6516Z" fill="#FFFBFC"/>
</g>
<g style="mix-blend-mode:lighten">
<path d="M24.7371 13.7509C24.6854 13.5221 24.8294 13.2896 25.0582 13.2379C25.2871 13.1863 25.5197 13.3302 25.5713 13.559C25.623 13.7878 25.4791 14.0204 25.2502 14.072C25.0213 14.1237 24.7888 13.9798 24.7371 13.7509Z" fill="#FFFBFC"/>
</g>
<g style="mix-blend-mode:lighten">
<path d="M57.7629 42.9224C57.6817 42.5718 57.9032 42.2212 58.2538 42.1437C58.6045 42.0625 58.9552 42.2839 59.0327 42.6345C59.114 42.9852 58.8925 43.3358 58.5418 43.4133C58.1911 43.4945 57.8404 43.273 57.7629 42.9224Z" fill="#FFFBFC"/>
</g>
<g style="mix-blend-mode:lighten">
<path d="M17.1182 19.4717C17.0333 19.0915 17.2696 18.7114 17.6498 18.6265C18.03 18.5416 18.4102 18.7778 18.4951 19.158C18.58 19.5381 18.3438 19.9183 17.9636 20.0031C17.5833 20.088 17.2031 19.8518 17.1182 19.4717Z" fill="#FFFBFC"/>
</g>
<g style="mix-blend-mode:lighten">
<path d="M26.6565 23.5721C26.9703 23.9634 26.9113 24.5354 26.52 24.8528C26.1287 25.1665 25.5565 25.1075 25.239 24.7163C24.9253 24.325 24.9843 23.753 25.3756 23.4356C25.7669 23.1219 26.3391 23.1809 26.6565 23.5721Z" fill="#FFFBFC"/>
</g>
<g style="mix-blend-mode:lighten">
<path d="M29.9456 22.5903C30.2114 22.9224 30.1597 23.4059 29.8275 23.6716C29.4952 23.9374 29.0117 23.8857 28.7459 23.5535C28.4801 23.2214 28.5318 22.7379 28.864 22.4722C29.1962 22.2064 29.6798 22.2581 29.9456 22.5903Z" fill="#FFFBFC"/>
</g>
<g style="mix-blend-mode:lighten">
<path d="M30.0676 17.7667C30.2005 17.9328 30.1747 18.1801 30.0086 18.313C29.8425 18.4458 29.5951 18.42 29.4622 18.2539C29.3293 18.0878 29.3552 17.8406 29.5213 17.7077C29.6874 17.5748 29.9347 17.6007 30.0676 17.7667Z" fill="#FFFBFC"/>
</g>
<g style="mix-blend-mode:lighten">
<path d="M39.5217 29.1893C39.4663 28.9642 39.6066 28.7354 39.8318 28.68C40.0569 28.6246 40.2858 28.7649 40.3412 28.99C40.3965 29.2151 40.2563 29.444 40.0311 29.4993C39.8059 29.5547 39.577 29.4144 39.5217 29.1893Z" fill="#FFFBFC"/>
</g>
<g style="mix-blend-mode:lighten">
<path d="M32.5225 22.1991C32.4598 21.9371 32.6222 21.6714 32.8843 21.6086C33.1464 21.5459 33.4122 21.7083 33.4749 21.9703C33.5377 22.2324 33.3752 22.4981 33.1131 22.5608C32.8511 22.6236 32.5853 22.4612 32.5225 22.1991Z" fill="#FFFBFC"/>
</g>
<g style="mix-blend-mode:lighten">
<path d="M25.0549 28.8277C24.9663 28.4549 25.1952 28.0821 25.568 27.9899C25.9409 27.9013 26.3137 28.1301 26.406 28.5029C26.4946 28.8756 26.2657 29.2484 25.8929 29.3407C25.5201 29.4292 25.1472 29.2004 25.0549 28.8277Z" fill="#FFFBFC"/>
</g>
<g style="mix-blend-mode:lighten">
<path d="M23.8475 34.098C23.7884 33.8581 23.9361 33.6219 24.176 33.5629C24.416 33.5038 24.6522 33.6515 24.7113 33.8913C24.7703 34.1312 24.6227 34.3674 24.3827 34.4265C24.1428 34.4856 23.9065 34.3379 23.8475 34.098Z" fill="#FFFBFC"/>
</g>
<g style="mix-blend-mode:lighten">
<path d="M17.5354 24.4746C17.4136 23.9653 17.7274 23.4523 18.2368 23.3305C18.7462 23.2087 19.2593 23.5224 19.3811 24.0317C19.503 24.5411 19.1892 25.0541 18.6798 25.1759C18.1703 25.2976 17.6572 24.9839 17.5354 24.4746Z" fill="#FFFBFC"/>
</g>
<g style="mix-blend-mode:lighten">
<path d="M20.4874 39.5579C20.3693 39.0707 20.672 38.5798 21.1593 38.4617C21.6465 38.3436 22.1375 38.6463 22.2556 39.1334C22.3738 39.6206 22.0711 40.1115 21.5838 40.2296C21.0965 40.3477 20.6055 40.045 20.4874 39.5579Z" fill="#FFFBFC"/>
</g>
<g style="mix-blend-mode:lighten">
<path d="M12.6811 36.3492C12.5814 35.9359 12.8361 35.5188 13.2496 35.4228C13.663 35.3232 14.0802 35.5779 14.1761 35.9912C14.2758 36.4046 14.0211 36.8216 13.6076 36.9176C13.1942 37.0172 12.7771 36.7626 12.6811 36.3492Z" fill="#FFFBFC"/>
</g>
<g style="mix-blend-mode:lighten">
<path d="M10.5066 40.6599C10.4549 40.4495 10.5841 40.2429 10.7946 40.1912C11.005 40.1395 11.2117 40.2687 11.2634 40.4791C11.3151 40.6894 11.1859 40.8961 10.9754 40.9478C10.765 40.9995 10.5583 40.8703 10.5066 40.6599Z" fill="#FFFBFC"/>
</g>
<g style="mix-blend-mode:lighten">
<path d="M49.7715 61.6982C50.1148 61.6355 50.4471 61.8606 50.5098 62.2039C50.5726 62.5471 50.3474 62.8793 50.0041 62.942C49.6608 63.0047 49.3286 62.7796 49.2658 62.4364C49.203 62.0931 49.4282 61.761 49.7715 61.6982Z" fill="#FFFBFC"/>
</g>
<g style="mix-blend-mode:lighten">
<path d="M30.8321 61.9737C31.0536 61.9331 31.264 62.077 31.3046 62.2985C31.3452 62.5199 31.2012 62.7303 30.9797 62.7709C30.7582 62.8115 30.5478 62.6676 30.5072 62.4461C30.4666 62.2247 30.6106 62.0143 30.8321 61.9737Z" fill="#FFFBFC"/>
</g>
<g style="mix-blend-mode:lighten">
<path d="M31.6918 57.2052C32.1643 57.1166 32.6147 57.4266 32.7033 57.899C32.7919 58.3714 32.4818 58.8217 32.0093 58.9103C31.5368 58.9988 31.0864 58.6888 30.9978 58.2164C30.9092 57.744 31.2193 57.2937 31.6918 57.2052Z" fill="#FFFBFC"/>
</g>
<g style="mix-blend-mode:lighten">
<path d="M28.6611 54.7473C29.1114 54.6624 29.547 54.9614 29.6319 55.4116C29.7168 55.8619 29.4178 56.2974 28.9674 56.3823C28.5171 56.4672 28.0815 56.1682 27.9966 55.718C27.9117 55.2677 28.2107 54.8322 28.6611 54.7473Z" fill="#FFFBFC"/>
</g>
<g style="mix-blend-mode:lighten">
<path d="M29.2925 51.6729C29.6727 51.6028 30.0419 51.8538 30.112 52.2339C30.1822 52.6141 29.9311 52.9831 29.5509 53.0533C29.1707 53.1234 28.8016 52.8724 28.7314 52.4923C28.6613 52.1121 28.9123 51.7431 29.2925 51.6729Z" fill="#FFFBFC"/>
</g>
<g style="mix-blend-mode:lighten">
<path d="M25.4571 49.4919C25.6491 49.455 25.8373 49.5842 25.8706 49.7761C25.9075 49.968 25.7783 50.1562 25.5863 50.1894C25.3944 50.2263 25.2061 50.0972 25.1729 49.9053C25.136 49.7133 25.2652 49.5251 25.4571 49.4919Z" fill="#FFFBFC"/>
</g>
<g style="mix-blend-mode:lighten">
<path d="M33.4857 16.2314C33.7072 16.5045 33.6629 16.9031 33.3897 17.1245C33.1166 17.3459 32.7179 17.3017 32.4964 17.0285C32.2749 16.7554 32.3192 16.3568 32.5924 16.1354C32.8655 15.914 33.2642 15.9582 33.4857 16.2314Z" fill="#FFFBFC"/>
</g>
<g style="mix-blend-mode:lighten">
<path d="M41.3857 22.2469C41.6477 22.5753 41.5961 23.0514 41.2712 23.3135C40.9427 23.5755 40.4665 23.5238 40.2044 23.1991C39.9423 22.8706 39.994 22.3945 40.3188 22.1325C40.6474 21.8704 41.1236 21.9221 41.3857 22.2469Z" fill="#FFFBFC"/>
</g>
<path d="M40.5848 16.9657C40.7287 17.1466 40.7029 17.4086 40.522 17.5562C40.3411 17.7002 40.079 17.6743 39.9314 17.4935C39.7874 17.3127 39.8133 17.0506 39.9941 16.903C40.175 16.759 40.4371 16.7849 40.5848 16.9657Z" fill="#FFFBFC"/>
<path d="M47.3513 14.6516C47.4953 14.8287 47.4658 15.0871 47.2886 15.231C47.1114 15.3749 46.853 15.3454 46.709 15.1683C46.5651 14.9911 46.5946 14.7328 46.7718 14.5888C46.949 14.4449 47.2074 14.4744 47.3513 14.6516Z" fill="#FFFBFC"/>
<mask id="path-123-outside-1_46_2942" maskUnits="userSpaceOnUse" x="30" y="29" width="24" height="26" fill="black">
<rect fill="white" x="30" y="29" width="24" height="26"/>
<path d="M51 35.1518C51.5893 36.375 51.7812 37.6027 51.5759 38.8348H47.4509C47.3884 37.8884 47.1964 37.1741 46.875 36.692C46.3125 35.8348 45.2946 35.4063 43.8214 35.4063C42.3214 35.4063 41.0089 36.0134 39.8839 37.2277C38.7589 38.433 37.9643 40.1429 37.5 42.3571C37.0268 44.5714 37.1295 46.2321 37.808 47.3393C38.4866 48.4375 39.5312 48.9866 40.942 48.9866C42.3884 48.9866 43.5937 48.5134 44.558 47.567C45.0848 47.058 45.5937 46.2946 46.0848 45.2768H50.1696C49.3571 47.4286 48.0714 49.1786 46.3125 50.5268C44.5625 51.875 42.5402 52.5491 40.2455 52.5491C37.4062 52.5491 35.3661 51.6384 34.125 49.817C32.8929 47.9866 32.6161 45.4777 33.2946 42.2902C34.0268 38.8438 35.5134 36.1875 37.7545 34.3214C39.7098 32.6964 41.9286 31.8839 44.4107 31.8839C47.7321 31.8839 49.9286 32.9732 51 35.1518Z"/>
</mask>
<path d="M51 35.1518C51.5893 36.375 51.7812 37.6027 51.5759 38.8348H47.4509C47.3884 37.8884 47.1964 37.1741 46.875 36.692C46.3125 35.8348 45.2946 35.4063 43.8214 35.4063C42.3214 35.4063 41.0089 36.0134 39.8839 37.2277C38.7589 38.433 37.9643 40.1429 37.5 42.3571C37.0268 44.5714 37.1295 46.2321 37.808 47.3393C38.4866 48.4375 39.5312 48.9866 40.942 48.9866C42.3884 48.9866 43.5937 48.5134 44.558 47.567C45.0848 47.058 45.5937 46.2946 46.0848 45.2768H50.1696C49.3571 47.4286 48.0714 49.1786 46.3125 50.5268C44.5625 51.875 42.5402 52.5491 40.2455 52.5491C37.4062 52.5491 35.3661 51.6384 34.125 49.817C32.8929 47.9866 32.6161 45.4777 33.2946 42.2902C34.0268 38.8438 35.5134 36.1875 37.7545 34.3214C39.7098 32.6964 41.9286 31.8839 44.4107 31.8839C47.7321 31.8839 49.9286 32.9732 51 35.1518Z" fill="white"/>
<path d="M51 35.1518L53.0592 34.1598L53.0552 34.1514L53.0511 34.1431L51 35.1518ZM51.5759 38.8348V41.1205H53.5122L53.8305 39.2106L51.5759 38.8348ZM47.4509 38.8348L45.1701 38.9854L45.3111 41.1205H47.4509V38.8348ZM46.875 36.692L44.964 37.946L44.9686 37.953L44.9732 37.9599L46.875 36.692ZM39.8839 37.2277L41.5549 38.7873L41.5606 38.7811L39.8839 37.2277ZM37.5 42.3571L39.7353 42.8348L39.7371 42.8262L37.5 42.3571ZM37.808 47.3393L35.8592 48.5337L35.8636 48.5407L37.808 47.3393ZM44.558 47.567L42.9699 45.9231L42.9634 45.9294L42.957 45.9357L44.558 47.567ZM46.0848 45.2768V42.9911H44.6498L44.0262 44.2836L46.0848 45.2768ZM50.1696 45.2768L52.308 46.0842L53.4759 42.9911H50.1696V45.2768ZM46.3125 50.5268L44.922 48.7127L44.9175 48.7161L46.3125 50.5268ZM34.125 49.817L32.2289 51.0934L32.2361 51.104L34.125 49.817ZM33.2946 42.2902L35.5303 42.7661L35.5305 42.7651L33.2946 42.2902ZM37.7545 34.3214L36.2936 32.5635L36.2919 32.5649L37.7545 34.3214ZM48.9408 36.1438C49.3441 36.981 49.4423 37.7329 49.3213 38.4591L53.8305 39.2106C54.1202 37.4725 53.8345 35.769 53.0592 34.1598L48.9408 36.1438ZM51.5759 36.5491H47.4509V41.1205H51.5759V36.5491ZM49.7316 38.6842C49.6578 37.5657 49.4192 36.3877 48.7768 35.4241L44.9732 37.9599C44.964 37.946 45.0042 38.0023 45.0527 38.1825C45.1006 38.361 45.1462 38.6222 45.1701 38.9854L49.7316 38.6842ZM48.786 35.4379C47.6342 33.6829 45.7012 33.1205 43.8214 33.1205V37.692C44.3496 37.692 44.6514 37.7706 44.8027 37.8343C44.9271 37.8866 44.9513 37.9266 44.964 37.946L48.786 35.4379ZM43.8214 33.1205C41.6152 33.1205 39.715 34.0468 38.2072 35.6743L41.5606 38.7811C42.3028 37.98 43.0276 37.692 43.8214 37.692V33.1205ZM38.2129 35.6681C36.7162 37.2717 35.7822 39.4115 35.2629 41.8881L39.7371 42.8262C40.1464 40.8742 40.8016 39.5944 41.5549 38.7873L38.2129 35.6681ZM35.2648 41.8795C34.7528 44.2749 34.7145 46.6659 35.8592 48.5337L39.7568 46.1449C39.5445 45.7983 39.3007 44.868 39.7352 42.8348L35.2648 41.8795ZM35.8636 48.5407C37.0029 50.3847 38.8271 51.2723 40.942 51.2723V46.7009C40.2354 46.7009 39.9703 46.4903 39.7525 46.1378L35.8636 48.5407ZM40.942 51.2723C42.9406 51.2723 44.7353 50.5957 46.1591 49.1982L42.957 45.9357C42.4522 46.4311 41.8362 46.7009 40.942 46.7009V51.2723ZM46.1462 49.2108C46.9427 48.4413 47.5919 47.4133 48.1435 46.27L44.0262 44.2836C43.5956 45.1759 43.227 45.6747 42.9699 45.9231L46.1462 49.2108ZM46.0848 47.5625H50.1696V42.9911H46.0848V47.5625ZM48.0313 44.4694C47.3634 46.2383 46.3295 47.6339 44.922 48.7127L47.703 52.3409C49.8134 50.7233 51.3509 48.6189 52.308 46.0842L48.0313 44.4694ZM44.9175 48.7161C43.5837 49.7437 42.0565 50.2634 40.2455 50.2634V54.8348C43.0238 54.8348 45.5413 54.0063 47.7075 52.3375L44.9175 48.7161ZM40.2455 50.2634C37.9188 50.2634 36.7084 49.5492 36.0139 48.5299L32.2361 51.104C34.0237 53.7276 36.8937 54.8348 40.2455 54.8348V50.2634ZM36.0211 48.5406C35.271 47.4262 34.9192 45.6365 35.5303 42.7661L31.059 41.8142C30.313 45.3188 30.5147 48.547 32.2289 51.0934L36.0211 48.5406ZM35.5305 42.7651C36.1789 39.7127 37.4474 37.5515 39.2171 36.0779L36.2919 32.5649C33.5794 34.8235 31.8747 37.9748 31.0588 41.8152L35.5305 42.7651ZM39.2154 36.0793C40.7712 34.7864 42.4762 34.1696 44.4107 34.1696V29.5982C41.381 29.5982 38.6485 30.6065 36.2936 32.5635L39.2154 36.0793ZM44.4107 34.1696C47.2336 34.1696 48.4027 35.0499 48.9489 36.1605L53.0511 34.1431C51.4544 30.8965 48.2307 29.5982 44.4107 29.5982V34.1696Z" fill="#484848" mask="url(#path-123-outside-1_46_2942)"/>
<defs>
<filter id="filter0_d_46_2942" x="-5.63001" y="-2.69526" width="91.182" height="91.182" filterUnits="userSpaceOnUse" color-interpolation-filters="sRGB">
<feFlood flood-opacity="0" result="BackgroundImageFix"/>
<feColorMatrix in="SourceAlpha" type="matrix" values="0 0 0 0 0 0 0 0 0 0 0 0 0 0 0 0 0 0 127 0" result="hardAlpha"/>
<feOffset/>
<feGaussianBlur stdDeviation="9.34241"/>
<feComposite in2="hardAlpha" operator="out"/>
<feColorMatrix type="matrix" values="0 0 0 0 0.272786 0 0 0 0 0.272786 0 0 0 0 0.272786 0 0 0 0.6 0"/>
<feBlend mode="normal" in2="BackgroundImageFix" result="effect1_dropShadow_46_2942"/>
<feBlend mode="normal" in="SourceGraphic" in2="effect1_dropShadow_46_2942" result="shape"/>
</filter>
<clipPath id="paint1_diamond_46_2942_clip_path"><path d="M32.467 50.7479L29.6365 41.1388L20.7253 38.728C20.7253 38.728 20.9344 52.147 27.75 60.0097L32.467 50.7479Z"/></clipPath><clipPath id="paint2_diamond_46_2942_clip_path"><path d="M29.6365 41.1403C29.6365 41.1403 34.6333 34.5015 40.5402 32.4567V20.9057C40.5402 20.9057 25.6176 30.8316 20.7253 38.728L29.6365 41.1388V41.1403Z"/></clipPath><clipPath id="paint5_diamond_46_2942_clip_path"><path d="M51.4422 41.1403C51.4422 41.1403 46.4455 34.5015 40.5385 32.4567V20.9057C40.5385 20.9057 55.4596 30.8301 60.3534 38.728L51.4422 41.1388V41.1403Z"/></clipPath><clipPath id="paint6_diamond_46_2942_clip_path"><path d="M40.5388 32.4567V55.388L32.4671 50.7495L29.6367 41.1403C29.6367 41.1403 32.9914 34.5707 40.5404 32.4567H40.5388Z"/></clipPath><clipPath id="paint7_diamond_46_2942_clip_path"><path d="M40.5386 32.4567V55.388L48.6103 50.7495L51.4408 41.1403C51.4408 41.1403 48.0861 34.5707 40.5371 32.4567H40.5386Z"/></clipPath><filter id="filter1_f_46_2942" x="46.1125" y="51.2189" width="14.2752" height="14.2752" filterUnits="userSpaceOnUse" color-interpolation-filters="sRGB">
<feFlood flood-opacity="0" result="BackgroundImageFix"/>
<feBlend mode="normal" in="SourceGraphic" in2="BackgroundImageFix" result="shape"/>
<feGaussianBlur stdDeviation="2.05533" result="effect1_foregroundBlur_46_2942"/>
</filter>
<filter id="filter2_f_46_2942" x="14.902" y="30.7706" width="15.3001" height="15.3001" filterUnits="userSpaceOnUse" color-interpolation-filters="sRGB">
<feFlood flood-opacity="0" result="BackgroundImageFix"/>
<feBlend mode="normal" in="SourceGraphic" in2="BackgroundImageFix" result="shape"/>
<feGaussianBlur stdDeviation="2.05533" result="effect1_foregroundBlur_46_2942"/>
</filter>
<filter id="filter3_f_46_2942" x="46.8813" y="25.697" width="12.7481" height="12.7481" filterUnits="userSpaceOnUse" color-interpolation-filters="sRGB">
<feFlood flood-opacity="0" result="BackgroundImageFix"/>
<feBlend mode="normal" in="SourceGraphic" in2="BackgroundImageFix" result="shape"/>
<feGaussianBlur stdDeviation="2.05533" result="effect1_foregroundBlur_46_2942"/>
</filter>
<filter id="filter4_f_46_2942" x="22.8172" y="29.8762" width="32.9273" height="33.4465" filterUnits="userSpaceOnUse" color-interpolation-filters="sRGB">
<feFlood flood-opacity="0" result="BackgroundImageFix"/>
<feBlend mode="normal" in="SourceGraphic" in2="BackgroundImageFix" result="shape"/>
<feGaussianBlur stdDeviation="2.47948" result="effect1_foregroundBlur_46_2942"/>
</filter>
<filter id="filter5_f_46_2942" x="26.4102" y="32.1918" width="5.65263" height="5.65843" filterUnits="userSpaceOnUse" color-interpolation-filters="sRGB">
<feFlood flood-opacity="0" result="BackgroundImageFix"/>
<feBlend mode="normal" in="SourceGraphic" in2="BackgroundImageFix" result="shape"/>
<feGaussianBlur stdDeviation="1.12109" result="effect1_foregroundBlur_46_2942"/>
</filter>
<filter id="filter6_f_46_2942" x="52.3234" y="46.8845" width="5.476" height="5.48088" filterUnits="userSpaceOnUse" color-interpolation-filters="sRGB">
<feFlood flood-opacity="0" result="BackgroundImageFix"/>
<feBlend mode="normal" in="SourceGraphic" in2="BackgroundImageFix" result="shape"/>
<feGaussianBlur stdDeviation="1.12109" result="effect1_foregroundBlur_46_2942"/>
</filter>
<filter id="filter7_f_46_2942" x="27.2276" y="50.82" width="5.627" height="5.63267" filterUnits="userSpaceOnUse" color-interpolation-filters="sRGB">
<feFlood flood-opacity="0" result="BackgroundImageFix"/>
<feBlend mode="normal" in="SourceGraphic" in2="BackgroundImageFix" result="shape"/>
<feGaussianBlur stdDeviation="1.12109" result="effect1_foregroundBlur_46_2942"/>
</filter>
<filter id="filter8_f_46_2942" x="9.27454" y="12.0064" width="50.996" height="52.1667" filterUnits="userSpaceOnUse" color-interpolation-filters="sRGB">
<feFlood flood-opacity="0" result="BackgroundImageFix"/>
<feBlend mode="normal" in="SourceGraphic" in2="BackgroundImageFix" result="shape"/>
<feGaussianBlur stdDeviation="0.610502" result="effect1_foregroundBlur_46_2942"/>
</filter>
<radialGradient id="paint0_radial_46_2942" cx="0" cy="0" r="1" gradientUnits="userSpaceOnUse" gradientTransform="translate(30.364 65.4046) rotate(-54.5036) scale(15.064 11.6758)">
<stop stop-color="#878787"/>
<stop offset="0.414319" stop-color="#2E2E2E"/>
<stop offset="0.852751" stop-color="#292929"/>
</radialGradient>
<linearGradient id="paint1_diamond_46_2942" x1="0" y1="0" x2="500" y2="500" gradientUnits="userSpaceOnUse">
<stop stop-color="#848484"/>
<stop offset="0.541667" stop-color="#606060"/>
<stop offset="1" stop-color="#292929"/>
</linearGradient>
<linearGradient id="paint2_diamond_46_2942" x1="0" y1="0" x2="500" y2="500" gradientUnits="userSpaceOnUse">
<stop stop-color="#A3A3A3"/>
<stop offset="0.473958" stop-color="#585858"/>
<stop offset="1" stop-color="#595959"/>
</linearGradient>
<radialGradient id="paint3_radial_46_2942" cx="0" cy="0" r="1" gradientUnits="userSpaceOnUse" gradientTransform="translate(53.3181 60.0957) rotate(-157.289) scale(16.5263 27.7393)">
<stop stop-color="#7E7E7E"/>
<stop offset="0.356211" stop-color="#484848"/>
<stop offset="0.763504" stop-color="#2C2C2C"/>
</radialGradient>
<radialGradient id="paint4_radial_46_2942" cx="0" cy="0" r="1" gradientUnits="userSpaceOnUse" gradientTransform="translate(52.8674 59.0132) rotate(-70.7725) scale(21.631 38.5569)">
<stop stop-color="#8F8F8F"/>
<stop offset="0.338542" stop-color="#4A4A4A"/>
<stop offset="1" stop-color="#2F2F2F"/>
</radialGradient>
<linearGradient id="paint5_diamond_46_2942" x1="0" y1="0" x2="500" y2="500" gradientUnits="userSpaceOnUse">
<stop stop-color="#767676"/>
<stop offset="0.447917" stop-color="#4D4D4D"/>
<stop offset="1" stop-color="#373737"/>
</linearGradient>
<linearGradient id="paint6_diamond_46_2942" x1="0" y1="0" x2="500" y2="500" gradientUnits="userSpaceOnUse">
<stop stop-color="#8E8E8E"/>
<stop offset="0.666667" stop-color="#5F5F5F"/>
<stop offset="1" stop-color="#424242"/>
</linearGradient>
<linearGradient id="paint7_diamond_46_2942" x1="0" y1="0" x2="500" y2="500" gradientUnits="userSpaceOnUse">
<stop stop-color="#BABABA"/>
<stop offset="1" stop-color="#707070"/>
</linearGradient>
<linearGradient id="paint8_linear_46_2942" x1="37.6159" y1="32.4213" x2="44.6882" y2="50.7172" gradientUnits="userSpaceOnUse">
<stop stop-color="white" stop-opacity="0.4"/>
<stop offset="1" stop-color="white" stop-opacity="0"/>
</linearGradient>
<linearGradient id="paint9_linear_46_2942" x1="29.1598" y1="41.1849" x2="37.3083" y2="64.6313" gradientUnits="userSpaceOnUse">
<stop stop-color="white" stop-opacity="0.77"/>
<stop offset="0.642325" stop-color="white" stop-opacity="0"/>
</linearGradient>
<linearGradient id="paint10_linear_46_2942" x1="40.537" y1="20.3522" x2="20.7037" y2="38.7249" gradientUnits="userSpaceOnUse">
<stop stop-color="#DADADA"/>
<stop offset="1" stop-color="white" stop-opacity="0"/>
</linearGradient>
<linearGradient id="paint11_linear_46_2942" x1="40.537" y1="20.3522" x2="20.7037" y2="38.7249" gradientUnits="userSpaceOnUse">
<stop stop-color="#DADADA"/>
<stop offset="1" stop-color="white" stop-opacity="0"/>
</linearGradient>
<radialGradient id="paint12_radial_46_2942" cx="0" cy="0" r="1" gradientUnits="userSpaceOnUse" gradientTransform="translate(46.9336 62.7079) rotate(90) scale(2.69672 6.39509)">
<stop stop-color="white"/>
<stop offset="1" stop-color="white" stop-opacity="0"/>
</radialGradient>
<radialGradient id="paint13_radial_46_2942" cx="0" cy="0" r="1" gradientUnits="userSpaceOnUse" gradientTransform="translate(45.9904 36.7692) rotate(90) scale(4.37112 5.45186)">
<stop stop-color="white"/>
<stop offset="1" stop-color="white" stop-opacity="0"/>
</radialGradient>
<radialGradient id="paint14_radial_46_2942" cx="0" cy="0" r="1" gradientUnits="userSpaceOnUse" gradientTransform="translate(25.1809 39.8145) rotate(90.5567) scale(1.90861 6.41405)">
<stop stop-color="white"/>
<stop offset="1" stop-color="white" stop-opacity="0"/>
</radialGradient>
</defs>
</svg>
