<svg width="123" height="39" viewBox="0 0 123 39" fill="none" xmlns="http://www.w3.org/2000/svg">
<rect x="14.4907" y="5.17383" width="108.182" height="27.9388" rx="3.89804" fill="url(#paint0_linear_322_49008)"/>
<path d="M44.2804 24.3083C43.6727 24.3083 43.1202 24.1592 42.6229 23.8608C42.1367 23.5514 41.7499 23.1425 41.4626 22.6342C41.1753 22.1259 41.0316 21.5568 41.0316 20.9269L41.0482 15.7554C41.0482 15.1476 41.1864 14.5951 41.4626 14.0979C41.7499 13.5895 42.1367 13.1862 42.6229 12.8878C43.1202 12.5784 43.6727 12.4237 44.2804 12.4237C44.8882 12.4237 45.4352 12.5729 45.9214 12.8713C46.4076 13.1696 46.7944 13.573 47.0817 14.0813C47.369 14.5785 47.5127 15.1366 47.5127 15.7554V16.5179C47.5127 16.5621 47.4906 16.5842 47.4463 16.5842H45.5899C45.5457 16.5842 45.5236 16.5621 45.5236 16.5179V15.7554C45.5236 15.3907 45.402 15.0758 45.1589 14.8106C44.9269 14.5454 44.634 14.4128 44.2804 14.4128C43.8826 14.4128 43.5787 14.5509 43.3688 14.8272C43.1588 15.0924 43.0539 15.4018 43.0539 15.7554V20.9269C43.0539 21.3358 43.1699 21.6673 43.4019 21.9215C43.645 22.1756 43.9379 22.3027 44.2804 22.3027C44.634 22.3027 44.9269 22.1646 45.1589 21.8883C45.402 21.601 45.5236 21.2805 45.5236 20.9269V20.1645C45.5236 20.1203 45.5457 20.0982 45.5899 20.0982H47.4629C47.5071 20.0982 47.5292 20.1203 47.5292 20.1645V20.9269C47.5292 21.5568 47.38 22.1259 47.0817 22.6342C46.7944 23.1425 46.4076 23.5514 45.9214 23.8608C45.4352 24.1592 44.8882 24.3083 44.2804 24.3083ZM51.8078 24.3083C51.211 24.3083 50.6641 24.1592 50.1668 23.8608C49.6806 23.5514 49.2883 23.1481 48.9899 22.6508C48.6916 22.1425 48.5424 21.5844 48.5424 20.9767L48.559 15.7222C48.559 15.1145 48.7026 14.562 48.9899 14.0647C49.2883 13.5674 49.6861 13.1696 50.1834 12.8713C50.6806 12.5729 51.2221 12.4237 51.8078 12.4237C52.4045 12.4237 52.9459 12.5729 53.4322 12.8713C53.9184 13.1696 54.3051 13.5674 54.5924 14.0647C54.8908 14.562 55.04 15.1145 55.04 15.7222L55.0566 20.9767C55.0566 21.5844 54.9074 22.1425 54.609 22.6508C54.3217 23.1481 53.9294 23.5514 53.4322 23.8608C52.9459 24.1592 52.4045 24.3083 51.8078 24.3083ZM51.8078 22.3027C52.1393 22.3027 52.4266 22.1701 52.6697 21.9049C52.9238 21.6286 53.0509 21.3192 53.0509 20.9767L53.0343 15.7222C53.0343 15.3576 52.9183 15.0482 52.6863 14.794C52.4542 14.5399 52.1614 14.4128 51.8078 14.4128C51.4652 14.4128 51.1724 14.5399 50.9293 14.794C50.6862 15.0371 50.5646 15.3465 50.5646 15.7222V20.9767C50.5646 21.3413 50.6862 21.6563 50.9293 21.9215C51.1724 22.1756 51.4652 22.3027 51.8078 22.3027ZM56.3831 24.1426C56.3389 24.1426 56.3168 24.115 56.3168 24.0597L56.35 12.6724C56.35 12.6282 56.3721 12.6061 56.4163 12.6061H58.4385C58.4827 12.6061 58.5213 12.6282 58.5545 12.6724L60.0629 14.8603L61.5712 12.6724C61.6044 12.6282 61.6431 12.6061 61.6873 12.6061H63.726C63.7702 12.6061 63.7923 12.6282 63.7923 12.6724L63.8255 24.0597C63.8255 24.115 63.8034 24.1426 63.7592 24.1426H61.8862C61.842 24.1426 61.8199 24.115 61.8199 24.0597L61.8033 15.6062L60.0629 18.1257L58.339 15.6062L58.3224 24.0597C58.3224 24.115 58.3003 24.1426 58.2561 24.1426H56.3831ZM65.3025 24.1426C65.2473 24.1426 65.2196 24.115 65.2196 24.0597L65.2528 12.6724C65.2528 12.6282 65.2749 12.6061 65.3191 12.6061H68.5016C69.5182 12.6061 70.3194 12.9155 70.905 13.5343C71.5017 14.1531 71.8001 14.9929 71.8001 16.0538C71.8001 16.8383 71.6454 17.5179 71.336 18.0925C71.0266 18.6672 70.6232 19.1092 70.126 19.4186C69.6287 19.728 69.0872 19.8827 68.5016 19.8827H67.2418V24.0597C67.2418 24.115 67.2142 24.1426 67.159 24.1426H65.3025ZM67.2418 17.8771H68.5016C68.8552 17.8771 69.1591 17.7113 69.4132 17.3798C69.6784 17.0372 69.811 16.5952 69.811 16.0538C69.811 15.6228 69.695 15.2692 69.463 14.9929C69.2309 14.7167 68.9104 14.5785 68.5016 14.5785L67.2418 14.5951V17.8771ZM72.8614 24.1426C72.8172 24.1426 72.7951 24.115 72.7951 24.0597L72.8117 12.6724C72.8117 12.6282 72.8338 12.6061 72.878 12.6061H78.1987C78.2429 12.6061 78.265 12.6337 78.265 12.6889V14.5454C78.265 14.5896 78.2429 14.6117 78.1987 14.6117H74.8008V17.1975H78.1987C78.2429 17.1975 78.265 17.2196 78.265 17.2638L78.2816 19.1368C78.2816 19.181 78.2595 19.2031 78.2153 19.2031H74.8008V22.1038H78.2153C78.2595 22.1038 78.2816 22.1314 78.2816 22.1867V24.0763C78.2816 24.1205 78.2595 24.1426 78.2153 24.1426H72.8614ZM82.2823 24.1426C82.2381 24.1426 82.216 24.115 82.216 24.0597L82.2491 12.6724C82.2491 12.6282 82.2712 12.6061 82.3154 12.6061H84.3376C84.3818 12.6061 84.4205 12.6282 84.4536 12.6724L85.962 14.8603L87.4704 12.6724C87.5035 12.6282 87.5422 12.6061 87.5864 12.6061H89.6252C89.6694 12.6061 89.6915 12.6282 89.6915 12.6724L89.7246 24.0597C89.7246 24.115 89.7025 24.1426 89.6583 24.1426H87.7853C87.7411 24.1426 87.719 24.115 87.719 24.0597L87.7024 15.6062L85.962 18.1257L84.2382 15.6062L84.2216 24.0597C84.2216 24.115 84.1995 24.1426 84.1553 24.1426H82.2823ZM94.1852 24.3083C93.5885 24.3083 93.0415 24.1592 92.5443 23.8608C92.0581 23.5514 91.6658 23.1481 91.3674 22.6508C91.0691 22.1425 90.9199 21.5844 90.9199 20.9767L90.9365 15.7222C90.9365 15.1145 91.0801 14.562 91.3674 14.0647C91.6658 13.5674 92.0636 13.1696 92.5609 12.8713C93.0581 12.5729 93.5996 12.4237 94.1852 12.4237C94.782 12.4237 95.3234 12.5729 95.8096 12.8713C96.2959 13.1696 96.6826 13.5674 96.9699 14.0647C97.2683 14.562 97.4175 15.1145 97.4175 15.7222L97.434 20.9767C97.434 21.5844 97.2849 22.1425 96.9865 22.6508C96.6992 23.1481 96.3069 23.5514 95.8096 23.8608C95.3234 24.1592 94.782 24.3083 94.1852 24.3083ZM94.1852 22.3027C94.5168 22.3027 94.8041 22.1701 95.0472 21.9049C95.3013 21.6286 95.4284 21.3192 95.4284 20.9767L95.4118 15.7222C95.4118 15.3576 95.2958 15.0482 95.0637 14.794C94.8317 14.5399 94.5389 14.4128 94.1852 14.4128C93.8427 14.4128 93.5499 14.5399 93.3067 14.794C93.0636 15.0371 92.9421 15.3465 92.9421 15.7222V20.9767C92.9421 21.3413 93.0636 21.6563 93.3067 21.9215C93.5499 22.1756 93.8427 22.3027 94.1852 22.3027ZM98.7772 24.1426C98.7219 24.1426 98.6943 24.115 98.6943 24.0597L98.7274 12.6724C98.7274 12.6282 98.7495 12.6061 98.7937 12.6061L101.893 12.5895C102.501 12.5784 103.054 12.7221 103.551 13.0204C104.059 13.3188 104.463 13.7221 104.761 14.2305C105.059 14.7277 105.208 15.2802 105.208 15.888V20.6452C105.208 21.2861 105.054 21.8717 104.744 22.4022C104.435 22.9215 104.021 23.3359 103.501 23.6453C102.982 23.9547 102.396 24.115 101.744 24.126L98.7772 24.1426ZM100.716 22.1038H101.744C102.153 22.1038 102.496 21.9601 102.772 21.6728C103.059 21.3855 103.203 21.043 103.203 20.6452V15.8714C103.203 15.5178 103.07 15.2139 102.805 14.9598C102.551 14.6946 102.247 14.5675 101.893 14.5785L100.733 14.5951L100.716 22.1038ZM106.579 24.1426C106.535 24.1426 106.513 24.115 106.513 24.0597L106.529 12.6724C106.529 12.6282 106.551 12.6061 106.595 12.6061H111.916C111.96 12.6061 111.982 12.6337 111.982 12.6889V14.5454C111.982 14.5896 111.96 14.6117 111.916 14.6117H108.518V17.1975H111.916C111.96 17.1975 111.982 17.2196 111.982 17.2638L111.999 19.1368C111.999 19.181 111.977 19.2031 111.933 19.2031H108.518V22.1038H111.933C111.977 22.1038 111.999 22.1314 111.999 22.1867V24.0763C111.999 24.1205 111.977 24.1426 111.933 24.1426H106.579Z" fill="white"/>
<rect x="0.62704" y="0.62704" width="37.5384" height="37.7066" rx="18.7692" fill="url(#paint1_linear_322_49008)"/>
<rect x="0.62704" y="0.62704" width="37.5384" height="37.7066" rx="18.7692" stroke="url(#paint2_linear_322_49008)" stroke-width="1.25408"/>
<path fill-rule="evenodd" clip-rule="evenodd" d="M15.7356 7.15361C15.895 6.98343 16.1366 6.91902 16.3592 6.98681L26.3931 10.05L27.6054 10.4377C27.8008 10.5004 27.9518 10.6576 28.0069 10.8556L29.1026 14.792C29.1541 14.9769 29.1157 15.1758 28.9991 15.3285L28.7827 15.6123C28.6674 15.7632 28.6276 15.9591 28.6766 16.1425L30.3506 22.4171C30.4068 22.6278 30.3468 22.8531 30.1928 23.0077L26.0213 27.1966C25.8673 27.3512 25.8073 27.5765 25.8635 27.7872L26.0166 28.3609C26.0728 28.5715 26.0127 28.7968 25.8588 28.9514L22.986 31.8371C22.8258 31.9981 22.5895 32.0566 22.3729 31.99L18.3748 30.7602C18.1742 30.6983 18.0194 30.5375 17.9651 30.3344L17.8566 29.9278C17.8024 29.7244 17.6477 29.5627 17.4467 29.5011L11.8466 27.7861C11.6455 27.7245 11.4902 27.564 11.4359 27.3606L9.80418 21.2445C9.75189 21.0489 9.60643 20.8916 9.41539 20.8253L9.0402 20.6956C8.84921 20.6292 8.7036 20.472 8.65142 20.2764L7.59161 16.304C7.53771 16.1016 7.59091 15.886 7.73312 15.732C9.97489 13.3064 14.5929 8.37364 15.7356 7.15361ZM16.7329 8.37994C16.5267 8.3161 16.3028 8.37413 16.1562 8.53311L9.27738 15.993C9.14702 16.1344 9.09794 16.3317 9.14744 16.5174L11.9095 26.8701C11.9588 27.0547 12.0991 27.2009 12.281 27.2586L21.8847 30.3041C22.0905 30.3693 22.3161 30.3103 22.4638 30.1523L29.5001 22.6237C29.6324 22.4822 29.683 22.2825 29.6331 22.0955L26.8856 11.7975C26.836 11.6115 26.6942 11.4638 26.5106 11.4069L16.7329 8.37994Z" fill="url(#paint3_linear_322_49008)"/>
<path d="M14.4473 18.1274L13.5391 14.7233C13.5012 14.5815 13.6655 14.4727 13.7809 14.5631L21.064 20.2688C21.1631 20.3464 21.1308 20.5042 21.0092 20.5369L18.457 21.2237C18.4107 21.2362 18.3612 21.2262 18.3234 21.1967L14.5007 18.2083C14.4746 18.1879 14.4558 18.1595 14.4473 18.1274Z" fill="url(#paint4_linear_322_49008)"/>
<path d="M21.7714 12.4321L19.6662 17.9786C19.622 18.0952 19.7281 18.2127 19.8484 18.1803L21.8817 17.6331C21.9201 17.6228 21.9529 17.598 21.9733 17.5639L22.9457 15.94C22.967 15.9045 22.973 15.8618 22.9623 15.8218L22.0618 12.4464C22.0235 12.3031 21.8241 12.2932 21.7714 12.4321Z" fill="url(#paint5_linear_322_49008)"/>
<path d="M14.691 22.8577C14.7013 22.6602 14.9581 22.5911 15.0653 22.7569L15.7194 23.7685C15.7674 23.8426 15.8577 23.8773 15.943 23.8544L17.1046 23.5418C17.295 23.4905 17.4394 23.7128 17.3155 23.8665L16.5576 24.8064C16.5023 24.875 16.4972 24.9714 16.545 25.0453L17.2003 26.0587C17.3075 26.2244 17.1398 26.431 16.9558 26.36L15.835 25.9279C15.7524 25.8961 15.6587 25.9213 15.6031 25.9903L14.8475 26.9273C14.7235 27.0812 14.4755 26.9865 14.4858 26.7892L14.5488 25.5825C14.5534 25.4945 14.501 25.4136 14.4189 25.3819L13.2947 24.9485C13.1109 24.8777 13.1252 24.6126 13.3157 24.5614L14.4772 24.2488C14.5626 24.2258 14.6235 24.1505 14.6281 24.0622L14.691 22.8577Z" fill="url(#paint6_linear_322_49008)"/>
<path d="M20.2641 23.6292C20.2744 23.4317 20.5312 23.3626 20.6385 23.5284L21.2926 24.54C21.3405 24.6141 21.4308 24.6488 21.5161 24.6258L22.6777 24.3132C22.8681 24.262 23.0125 24.4843 22.8886 24.638L22.1308 25.5779C22.0754 25.6465 22.0703 25.7428 22.1181 25.8167L22.7734 26.8302C22.8806 26.9959 22.713 27.2024 22.5289 27.1315L21.4081 26.6994C21.3255 26.6676 21.2318 26.6928 21.1762 26.7618L20.4207 27.6988C20.2966 27.8527 20.0486 27.758 20.0589 27.5607L20.1219 26.354C20.1265 26.266 20.0741 26.1851 19.992 26.1534L18.8678 25.72C18.684 25.6492 18.6983 25.3841 18.8888 25.3329L20.0504 25.0203C20.1357 24.9973 20.1966 24.922 20.2012 24.8337L20.2641 23.6292Z" fill="url(#paint7_linear_322_49008)"/>
<path d="M24.8048 20.135C24.8151 19.9375 25.072 19.8684 25.1792 20.0343L25.8333 21.0458C25.8813 21.12 25.9715 21.1547 26.0569 21.1317L27.2185 20.8191C27.4089 20.7679 27.5533 20.9902 27.4294 21.1438L26.6715 22.0837C26.6162 22.1524 26.6111 22.2487 26.6589 22.3226L27.3142 23.3361C27.4213 23.5018 27.2537 23.7083 27.0697 23.6373L25.9489 23.2052C25.8663 23.1734 25.7726 23.1986 25.717 23.2676L24.9614 24.2047C24.8374 24.3586 24.5894 24.2639 24.5997 24.0666L24.6627 22.8598C24.6672 22.7718 24.6149 22.6909 24.5328 22.6593L23.4086 22.2259C23.2248 22.155 23.2391 21.89 23.4295 21.8387L24.5911 21.5261C24.6765 21.5032 24.7374 21.4278 24.742 21.3395L24.8048 20.135Z" fill="url(#paint8_linear_322_49008)"/>
<defs>
<linearGradient id="paint0_linear_322_49008" x1="10.0713" y1="-6.98552" x2="104.124" y2="106.794" gradientUnits="userSpaceOnUse">
<stop stop-color="#2F40FF"/>
<stop offset="1" stop-color="#61020A"/>
</linearGradient>
<linearGradient id="paint1_linear_322_49008" x1="11.1998" y1="3.58187" x2="31.1018" y2="38.8872" gradientUnits="userSpaceOnUse">
<stop stop-color="#3C31C1"/>
<stop offset="1" stop-color="#1C175B"/>
</linearGradient>
<linearGradient id="paint2_linear_322_49008" x1="-6.80565" y1="-9.95867" x2="27.9093" y2="39.0515" gradientUnits="userSpaceOnUse">
<stop stop-color="white"/>
<stop offset="1" stop-color="#999999"/>
</linearGradient>
<linearGradient id="paint3_linear_322_49008" x1="16.059" y1="6.97148" x2="25.3274" y2="41.198" gradientUnits="userSpaceOnUse">
<stop stop-color="white"/>
</linearGradient>
<linearGradient id="paint4_linear_322_49008" x1="17.6804" y1="13.135" x2="20.5442" y2="23.7274" gradientUnits="userSpaceOnUse">
<stop stop-color="white"/>
</linearGradient>
<linearGradient id="paint5_linear_322_49008" x1="17.6804" y1="13.135" x2="20.5442" y2="23.7274" gradientUnits="userSpaceOnUse">
<stop stop-color="white"/>
</linearGradient>
<linearGradient id="paint6_linear_322_49008" x1="14.7238" y1="22.2287" x2="16.6764" y2="29.4474" gradientUnits="userSpaceOnUse">
<stop stop-color="white"/>
</linearGradient>
<linearGradient id="paint7_linear_322_49008" x1="20.2969" y1="23.0001" x2="22.2495" y2="30.2189" gradientUnits="userSpaceOnUse">
<stop stop-color="white"/>
</linearGradient>
<linearGradient id="paint8_linear_322_49008" x1="24.8377" y1="19.506" x2="26.7903" y2="26.7248" gradientUnits="userSpaceOnUse">
<stop stop-color="white"/>
</linearGradient>
</defs>
</svg>
