<svg width="141" height="122" viewBox="0 0 141 122" fill="none" xmlns="http://www.w3.org/2000/svg">
<g filter="url(#filter0_f_46_2948)">
<path fill-rule="evenodd" clip-rule="evenodd" d="M76.0367 30.5681C80.0001 30.4535 84.4328 29.3514 87.6806 31.6265C90.9315 33.9038 91.3206 38.4853 92.6705 42.2202C94.0616 46.0691 97.5958 50.2525 95.7293 53.8955C93.7028 57.8509 87.8582 57.5 83.8554 59.4257C81.4271 60.5939 78.8229 61.2746 76.7673 63.0179C72.999 66.2136 71.8081 72.9644 66.9363 73.774C62.6661 74.4836 58.4587 70.2583 56.5298 66.3808C54.6416 62.5852 58.7942 57.7463 57.0425 53.8856C54.9253 49.2193 47.2373 48.4501 46.1244 43.4473C45.096 38.8247 47.7335 32.991 51.8907 30.7269C56.3303 28.3091 61.6627 32.2662 66.7161 32.2329C69.9265 32.2118 72.8276 30.661 76.0367 30.5681Z" fill="url(#paint0_linear_46_2948)"/>
</g>
<g filter="url(#filter1_d_46_2948)">
<path d="M71.3861 70.6589L58.9023 65.3941L63.5068 56.3517L71.3861 60.8811V70.6589Z" fill="url(#paint1_radial_46_2948)"/>
<g clip-path="url(#paint2_diamond_46_2948_clip_path)" data-figma-skip-parse="true"><g transform="matrix(0.00225121 0.0207862 -0.0228171 0.00247116 56.8268 43.6398)"><rect x="0" y="0" width="1121.47" height="357.193" fill="url(#paint2_diamond_46_2948)" opacity="1" shape-rendering="crispEdges"/><rect x="0" y="0" width="1121.47" height="357.193" transform="scale(1 -1)" fill="url(#paint2_diamond_46_2948)" opacity="1" shape-rendering="crispEdges"/><rect x="0" y="0" width="1121.47" height="357.193" transform="scale(-1 1)" fill="url(#paint2_diamond_46_2948)" opacity="1" shape-rendering="crispEdges"/><rect x="0" y="0" width="1121.47" height="357.193" transform="scale(-1)" fill="url(#paint2_diamond_46_2948)" opacity="1" shape-rendering="crispEdges"/></g></g><path d="M63.507 56.3516L60.744 46.9716L52.0453 44.6183C52.0453 44.6183 52.2494 57.7173 58.9025 65.3925L63.507 56.3516Z" data-figma-gradient-fill="{&#34;type&#34;:&#34;GRADIENT_DIAMOND&#34;,&#34;stops&#34;:[{&#34;color&#34;:{&#34;r&#34;:0.0,&#34;g&#34;:1.0,&#34;b&#34;:0.57575756311416626,&#34;a&#34;:1.0},&#34;position&#34;:0.0},{&#34;color&#34;:{&#34;r&#34;:0.27320262789726257,&#34;g&#34;:0.59773856401443481,&#34;b&#34;:0.44196131825447083,&#34;a&#34;:1.0},&#34;position&#34;:0.54166668653488159},{&#34;color&#34;:{&#34;r&#34;:0.0,&#34;g&#34;:0.38823530077934265,&#34;b&#34;:0.22517646849155426,&#34;a&#34;:1.0},&#34;position&#34;:1.0}],&#34;stopsVar&#34;:[],&#34;transform&#34;:{&#34;m00&#34;:4.5024251937866211,&#34;m01&#34;:-45.634101867675781,&#34;m02&#34;:77.392608642578125,&#34;m10&#34;:41.572399139404297,&#34;m11&#34;:4.9423208236694336,&#34;m12&#34;:20.382394790649414},&#34;opacity&#34;:1.0,&#34;blendMode&#34;:&#34;NORMAL&#34;,&#34;visible&#34;:true}"/>
<g clip-path="url(#paint3_diamond_46_2948_clip_path)" data-figma-skip-parse="true"><g transform="matrix(-0.0215366 0.0192104 -0.00897303 -0.0396104 73.5608 25.1798)"><rect x="0" y="0" width="1069.16" height="456.731" fill="url(#paint3_diamond_46_2948)" opacity="1" shape-rendering="crispEdges"/><rect x="0" y="0" width="1069.16" height="456.731" transform="scale(1 -1)" fill="url(#paint3_diamond_46_2948)" opacity="1" shape-rendering="crispEdges"/><rect x="0" y="0" width="1069.16" height="456.731" transform="scale(-1 1)" fill="url(#paint3_diamond_46_2948)" opacity="1" shape-rendering="crispEdges"/><rect x="0" y="0" width="1069.16" height="456.731" transform="scale(-1)" fill="url(#paint3_diamond_46_2948)" opacity="1" shape-rendering="crispEdges"/></g></g><path d="M60.744 46.9731C60.744 46.9731 65.6216 40.4926 71.3877 38.4965V27.2209C71.3877 27.2209 56.8209 36.9102 52.0453 44.6183L60.744 46.9716V46.9731Z" data-figma-gradient-fill="{&#34;type&#34;:&#34;GRADIENT_DIAMOND&#34;,&#34;stops&#34;:[{&#34;color&#34;:{&#34;r&#34;:0.0,&#34;g&#34;:0.38823530077934265,&#34;b&#34;:0.22352941334247589,&#34;a&#34;:1.0},&#34;position&#34;:0.0},{&#34;color&#34;:{&#34;r&#34;:0.21176470816135406,&#34;g&#34;:0.83921569585800171,&#34;b&#34;:0.50039213895797729,&#34;a&#34;:1.0},&#34;position&#34;:0.47395834326744080},{&#34;color&#34;:{&#34;r&#34;:0.13333334028720856,&#34;g&#34;:0.78039216995239258,&#34;b&#34;:0.46980392932891846,&#34;a&#34;:1.0},&#34;position&#34;:1.0}],&#34;stopsVar&#34;:[],&#34;transform&#34;:{&#34;m00&#34;:-43.073207855224609,&#34;m01&#34;:-17.946060180664062,&#34;m02&#34;:104.07041931152344,&#34;m10&#34;:38.420700073242188,&#34;m11&#34;:-79.22082519531250,&#34;m12&#34;:45.579895019531250},&#34;opacity&#34;:1.0,&#34;blendMode&#34;:&#34;NORMAL&#34;,&#34;visible&#34;:true}"/>
<path d="M71.3861 70.6589L83.8713 65.3941L79.2669 56.3517L71.3861 60.8811V70.6589Z" fill="url(#paint4_radial_46_2948)"/>
<path d="M79.2671 56.3516L82.0301 46.9716L90.7288 44.6183C90.7288 44.6183 90.5247 57.7173 83.8716 65.3925L79.2671 56.3516Z" fill="url(#paint5_radial_46_2948)"/>
<g clip-path="url(#paint6_diamond_46_2948_clip_path)" data-figma-skip-parse="true"><g transform="matrix(-0.0206361 -0.0174094 0.0381811 -0.0349358 92.0208 44.9155)"><rect x="0" y="0" width="1060.59" height="317.356" fill="url(#paint6_diamond_46_2948)" opacity="1" shape-rendering="crispEdges"/><rect x="0" y="0" width="1060.59" height="317.356" transform="scale(1 -1)" fill="url(#paint6_diamond_46_2948)" opacity="1" shape-rendering="crispEdges"/><rect x="0" y="0" width="1060.59" height="317.356" transform="scale(-1 1)" fill="url(#paint6_diamond_46_2948)" opacity="1" shape-rendering="crispEdges"/><rect x="0" y="0" width="1060.59" height="317.356" transform="scale(-1)" fill="url(#paint6_diamond_46_2948)" opacity="1" shape-rendering="crispEdges"/></g></g><path d="M82.0298 46.9731C82.0298 46.9731 77.1522 40.4926 71.3861 38.4965V27.2209C71.3861 27.2209 85.9515 36.9087 90.7285 44.6183L82.0298 46.9716V46.9731Z" data-figma-gradient-fill="{&#34;type&#34;:&#34;GRADIENT_DIAMOND&#34;,&#34;stops&#34;:[{&#34;color&#34;:{&#34;r&#34;:0.0,&#34;g&#34;:0.38823530077934265,&#34;b&#34;:0.22352941334247589,&#34;a&#34;:1.0},&#34;position&#34;:0.0},{&#34;color&#34;:{&#34;r&#34;:0.15294118225574493,&#34;g&#34;:0.86666667461395264,&#34;b&#34;:0.56690198183059692,&#34;a&#34;:1.0},&#34;position&#34;:0.44791665673255920},{&#34;color&#34;:{&#34;r&#34;:0.0,&#34;g&#34;:0.61176472902297974,&#34;b&#34;:0.24470588564872742,&#34;a&#34;:1.0},&#34;position&#34;:1.0}],&#34;stopsVar&#34;:[],&#34;transform&#34;:{&#34;m00&#34;:-41.272239685058594,&#34;m01&#34;:76.362152099609375,&#34;m02&#34;:74.475799560546875,&#34;m10&#34;:-34.818763732910156,&#34;m11&#34;:-69.871520996093750,&#34;m12&#34;:97.260612487792969},&#34;opacity&#34;:1.0,&#34;blendMode&#34;:&#34;NORMAL&#34;,&#34;visible&#34;:true}"/>
<g clip-path="url(#paint7_diamond_46_2948_clip_path)" data-figma-skip-parse="true"><g transform="matrix(0.00300162 0.0207112 -0.0262095 0.00379848 68.383 40.1129)"><rect x="0" y="0" width="1056.86" height="440.721" fill="url(#paint7_diamond_46_2948)" opacity="1" shape-rendering="crispEdges"/><rect x="0" y="0" width="1056.86" height="440.721" transform="scale(1 -1)" fill="url(#paint7_diamond_46_2948)" opacity="1" shape-rendering="crispEdges"/><rect x="0" y="0" width="1056.86" height="440.721" transform="scale(-1 1)" fill="url(#paint7_diamond_46_2948)" opacity="1" shape-rendering="crispEdges"/><rect x="0" y="0" width="1056.86" height="440.721" transform="scale(-1)" fill="url(#paint7_diamond_46_2948)" opacity="1" shape-rendering="crispEdges"/></g></g><path d="M71.3864 38.4965V60.8811L63.5071 56.3531L60.7441 46.9731C60.7441 46.9731 64.0189 40.5601 71.3879 38.4965H71.3864Z" data-figma-gradient-fill="{&#34;type&#34;:&#34;GRADIENT_DIAMOND&#34;,&#34;stops&#34;:[{&#34;color&#34;:{&#34;r&#34;:0.0,&#34;g&#34;:0.38823530077934265,&#34;b&#34;:0.22352941334247589,&#34;a&#34;:1.0},&#34;position&#34;:0.0},{&#34;color&#34;:{&#34;r&#34;:0.18039216101169586,&#34;g&#34;:0.87843137979507446,&#34;b&#34;:0.58525490760803223,&#34;a&#34;:1.0},&#34;position&#34;:0.66666668653488159},{&#34;color&#34;:{&#34;r&#34;:0.0,&#34;g&#34;:0.71372550725936890,&#34;b&#34;:0.37113726139068604,&#34;a&#34;:1.0},&#34;position&#34;:1.0}],&#34;stopsVar&#34;:[],&#34;transform&#34;:{&#34;m00&#34;:6.0032343864440918,&#34;m01&#34;:-52.419029235839844,&#34;m02&#34;:91.590919494628906,&#34;m10&#34;:41.422321319580078,&#34;m11&#34;:7.5969600677490234,&#34;m12&#34;:15.603253364562988},&#34;opacity&#34;:1.0,&#34;blendMode&#34;:&#34;NORMAL&#34;,&#34;visible&#34;:true}"/>
<g clip-path="url(#paint8_diamond_46_2948_clip_path)" data-figma-skip-parse="true"><g transform="matrix(0.00367698 0.00802933 -0.00897326 0.00410925 72.9605 49.7181)"><rect x="0" y="0" width="1726.88" height="1443.08" fill="url(#paint8_diamond_46_2948)" opacity="1" shape-rendering="crispEdges"/><rect x="0" y="0" width="1726.88" height="1443.08" transform="scale(1 -1)" fill="url(#paint8_diamond_46_2948)" opacity="1" shape-rendering="crispEdges"/><rect x="0" y="0" width="1726.88" height="1443.08" transform="scale(-1 1)" fill="url(#paint8_diamond_46_2948)" opacity="1" shape-rendering="crispEdges"/><rect x="0" y="0" width="1726.88" height="1443.08" transform="scale(-1)" fill="url(#paint8_diamond_46_2948)" opacity="1" shape-rendering="crispEdges"/></g></g><path d="M71.3861 38.4965V60.8811L79.2654 56.3531L82.0284 46.9731C82.0284 46.9731 78.7536 40.5601 71.3846 38.4965H71.3861Z" data-figma-gradient-fill="{&#34;type&#34;:&#34;GRADIENT_DIAMOND&#34;,&#34;stops&#34;:[{&#34;color&#34;:{&#34;r&#34;:0.0,&#34;g&#34;:0.38823530077934265,&#34;b&#34;:0.22352941334247589,&#34;a&#34;:1.0},&#34;position&#34;:0.0},{&#34;color&#34;:{&#34;r&#34;:0.21176470816135406,&#34;g&#34;:0.89019608497619629,&#34;b&#34;:0.56454902887344360,&#34;a&#34;:1.0},&#34;position&#34;:1.0}],&#34;stopsVar&#34;:[],&#34;transform&#34;:{&#34;m00&#34;:7.3539633750915527,&#34;m01&#34;:-17.946512222290039,&#34;m02&#34;:78.256767272949219,&#34;m10&#34;:16.058654785156250,&#34;m11&#34;:8.2184982299804688,&#34;m12&#34;:37.579494476318359},&#34;opacity&#34;:1.0,&#34;blendMode&#34;:&#34;NORMAL&#34;,&#34;visible&#34;:true}"/>
<g style="mix-blend-mode:soft-light">
<path d="M60.7441 46.9731C60.7441 46.9731 68.6234 54.7818 79.2671 56.3531L80.7694 51.2549C80.7694 51.2549 73.435 45.6779 71.3879 38.4965C70.2578 38.8162 68.9461 39.307 67.5758 40.0784C63.8208 42.193 61.7422 45.2261 60.7441 46.9731Z" fill="white"/>
</g>
<path opacity="0.8" d="M60.7441 46.9731C60.7441 46.9731 68.6234 54.7818 79.2671 56.3531L80.7694 51.2549C80.7694 51.2549 73.435 45.6779 71.3879 38.4965C70.2578 38.8162 68.9461 39.307 67.5758 40.0784C63.8208 42.193 61.7422 45.2261 60.7441 46.9731Z" fill="url(#paint9_linear_46_2948)"/>
<g style="mix-blend-mode:soft-light">
<path d="M62.731 53.7208C62.731 53.7208 71.2991 57.9846 76.9542 57.6814L74.8845 58.87C74.8845 58.87 71.0455 59.6174 66.7637 58.2247L63.5054 56.3532L62.7295 53.7208H62.731Z" fill="white"/>
</g>
<g style="mix-blend-mode:soft-light">
<path d="M78.5841 45.7785C78.5841 45.7785 81.3816 42.6943 83.8715 36.9372C83.8715 36.9372 88.9547 41.3451 90.7287 44.6198C90.7287 44.6198 90.535 51.333 88.8887 55.7003C88.8887 55.7003 89.7741 52.1929 78.5841 45.78V45.7785Z" fill="white"/>
</g>
<path opacity="0.2" d="M78.5841 45.7785C78.5841 45.7785 81.3816 42.6943 83.8715 36.9372C83.8715 36.9372 88.9547 41.3451 90.7287 44.6198C90.7287 44.6198 90.535 51.333 88.8887 55.7003C88.8887 55.7003 89.7741 52.1929 78.5841 45.78V45.7785Z" fill="white"/>
<g style="mix-blend-mode:soft-light" opacity="0.5">
<path d="M71.3862 70.6588C71.3862 70.6588 59.3797 59.7795 60.7425 46.9731C60.7425 46.9731 56.8884 52.9433 58.901 65.394L71.3862 70.6588Z" fill="white"/>
</g>
<path d="M71.3862 70.6588C71.3862 70.6588 59.3797 59.7795 60.7425 46.9731C60.7425 46.9731 56.8884 52.9433 58.901 65.394L71.3862 70.6588Z" fill="url(#paint10_linear_46_2948)"/>
<g style="mix-blend-mode:soft-light">
<path d="M52.0453 44.6183C52.0453 44.6183 66.8071 29.3071 68.6923 32.1331C68.6923 32.1331 70.3987 33.3277 71.3877 38.495V27.2209C71.3877 27.2209 57.2306 36.4314 52.0453 44.6183Z" fill="url(#paint11_linear_46_2948)"/>
</g>
<path opacity="0.5" d="M52.0453 44.6183C52.0453 44.6183 66.9572 29.232 68.6923 32.1331C68.6923 32.1331 70.3987 33.3277 71.3877 38.495V27.2209C71.3877 27.2209 57.2306 36.4314 52.0453 44.6183Z" fill="url(#paint12_linear_46_2948)"/>
<g style="mix-blend-mode:soft-light">
<path d="M79.2671 56.3516L83.8716 62.8351C83.8716 62.8351 89.7052 56.6953 90.7288 44.6183C90.6492 47.6199 90.262 50.1683 89.8418 52.1568C89.354 54.4621 88.7912 56.146 88.5796 56.7613C87.9568 58.5683 87.1283 60.9171 85.3394 63.4985C84.7691 64.3209 84.2423 64.9632 83.8731 65.3925C82.3377 62.3789 80.8024 59.3652 79.2686 56.3516H79.2671Z" fill="white"/>
</g>
<path opacity="0.6" d="M79.2671 56.3516L83.8716 62.8351C83.8716 62.8351 89.7052 56.6953 90.7288 44.6183C90.6492 47.6199 90.262 50.1683 89.8418 52.1568C89.354 54.4621 88.7912 56.146 88.5796 56.7613C87.9568 58.5683 87.1283 60.9171 85.3394 63.4985C84.7691 64.3209 84.2423 64.9632 83.8731 65.3925C82.3377 62.3789 80.8024 59.3652 79.2686 56.3516H79.2671Z" fill="white"/>
<g style="mix-blend-mode:soft-light">
<path d="M83.8713 65.394L71.3861 70.6589C71.3861 70.6589 75.9906 66.2465 83.8713 65.394Z" fill="white"/>
</g>
<path opacity="0.6" d="M83.8713 65.394L71.3861 70.6589C71.3861 70.6589 75.9906 66.2465 83.8713 65.394Z" fill="url(#paint13_radial_46_2948)"/>
<g style="mix-blend-mode:soft-light">
<path d="M71.3861 38.4966C71.3861 38.4966 77.7645 39.6387 82.0298 46.9731C82.0298 46.9731 80.0173 37.6261 71.3861 38.4966Z" fill="white"/>
</g>
<path opacity="0.9" d="M71.3861 38.4966C71.3861 38.4966 77.7645 39.6387 82.0298 46.9731C82.0298 46.9731 80.0173 37.6261 71.3861 38.4966Z" fill="url(#paint14_radial_46_2948)"/>
<g style="mix-blend-mode:soft-light">
<path d="M60.744 46.9731L52.0453 44.6198C52.0453 44.6198 56.0945 43.2856 60.744 46.9731Z" fill="white"/>
</g>
<path opacity="0.5" d="M60.744 46.9731L52.0453 44.6198C52.0453 44.6198 56.0945 43.2856 60.744 46.9731Z" fill="url(#paint15_radial_46_2948)"/>
<path d="M83.7946 60.8241L84.296 63.2774L86.7494 63.7789L84.296 64.2803L83.7946 66.7336L83.2932 64.2803L80.8398 63.7789L83.2932 63.2774L83.7946 60.8241Z" fill="white"/>
<g filter="url(#filter2_f_46_2948)">
<path d="M83.7946 60.8241L84.296 63.2774L86.7494 63.7789L84.296 64.2803L83.7946 66.7336L83.2932 64.2803L80.8398 63.7789L83.2932 63.2774L83.7946 60.8241Z" fill="white"/>
</g>
<path d="M53.8284 40.8633L54.4148 43.732L57.2834 44.3184L54.4148 44.9047L53.8284 47.7734L53.2421 44.9047L50.3734 44.3184L53.2421 43.732L53.8284 40.8633Z" fill="white"/>
<g filter="url(#filter3_f_46_2948)">
<path d="M53.8284 40.8633L54.4148 43.732L57.2834 44.3184L54.4148 44.9047L53.8284 47.7734L53.2421 44.9047L50.3734 44.3184L53.2421 43.732L53.8284 40.8633Z" fill="white"/>
</g>
<path d="M83.7996 35.9106L84.1746 37.7451L86.009 38.12L84.1746 38.495L83.7996 40.3294L83.4247 38.495L81.5902 38.12L83.4247 37.7451L83.7996 35.9106Z" fill="white"/>
<g filter="url(#filter4_f_46_2948)">
<path d="M83.7996 35.9106L84.1746 37.7451L86.009 38.12L84.1746 38.495L83.7996 40.3294L83.4247 38.495L81.5902 38.12L83.4247 37.7451L83.7996 35.9106Z" fill="white"/>
</g>
<g style="mix-blend-mode:overlay" filter="url(#filter5_f_46_2948)">
<g style="mix-blend-mode:lighten">
<path d="M65.5345 41.0601C65.5106 40.9544 65.5772 40.847 65.6829 40.8231C65.7887 40.7992 65.8961 40.8657 65.92 40.9714C65.9439 41.0771 65.8774 41.1845 65.7716 41.2084C65.6659 41.2322 65.5584 41.1658 65.5345 41.0601Z" fill="#FFFBFC"/>
</g>
<g style="mix-blend-mode:lighten">
<path d="M80.7943 54.5342C80.7567 54.3723 80.8591 54.2103 81.0211 54.1745C81.1831 54.137 81.3452 54.2393 81.381 54.4012C81.4185 54.5632 81.3162 54.7252 81.1541 54.761C80.9921 54.7985 80.8301 54.6962 80.7943 54.5342Z" fill="#FFFBFC"/>
</g>
<g style="mix-blend-mode:lighten">
<path d="M62.0142 43.7025C61.975 43.5269 62.0841 43.3513 62.2598 43.3121C62.4355 43.2728 62.6112 43.3819 62.6504 43.5575C62.6896 43.7331 62.5805 43.9087 62.4048 43.9479C62.2291 43.9872 62.0534 43.878 62.0142 43.7025Z" fill="#FFFBFC"/>
</g>
<g style="mix-blend-mode:lighten">
<path d="M66.4215 45.5964C66.5665 45.7771 66.5392 46.0413 66.3584 46.1879C66.1776 46.3328 65.9132 46.3056 65.7665 46.1248C65.6216 45.9441 65.6489 45.6799 65.8297 45.5333C66.0105 45.3884 66.2748 45.4156 66.4215 45.5964Z" fill="#FFFBFC"/>
</g>
<g style="mix-blend-mode:lighten">
<path d="M67.9411 45.1429C68.0639 45.2963 68.04 45.5196 67.8865 45.6424C67.733 45.7651 67.5096 45.7413 67.3868 45.5878C67.264 45.4344 67.2878 45.2111 67.4413 45.0883C67.5949 44.9656 67.8183 44.9894 67.9411 45.1429Z" fill="#FFFBFC"/>
</g>
<g style="mix-blend-mode:lighten">
<path d="M67.9975 42.9149C68.0589 42.9916 68.047 43.1059 67.9702 43.1672C67.8935 43.2286 67.7792 43.2167 67.7178 43.1399C67.6564 43.0632 67.6683 42.949 67.7451 42.8876C67.8218 42.8263 67.9361 42.8382 67.9975 42.9149Z" fill="#FFFBFC"/>
</g>
<g style="mix-blend-mode:lighten">
<path d="M72.3659 48.191C72.3404 48.087 72.4052 47.9813 72.5092 47.9557C72.6133 47.9301 72.719 47.9949 72.7446 48.0989C72.7702 48.2029 72.7054 48.3086 72.6013 48.3342C72.4973 48.3598 72.3915 48.295 72.3659 48.191Z" fill="#FFFBFC"/>
</g>
<g style="mix-blend-mode:lighten">
<path d="M69.1318 44.9622C69.1028 44.8412 69.1779 44.7184 69.299 44.6895C69.4201 44.6605 69.5429 44.7355 69.5719 44.8565C69.6009 44.9776 69.5258 45.1003 69.4047 45.1293C69.2836 45.1583 69.1608 45.0833 69.1318 44.9622Z" fill="#FFFBFC"/>
</g>
<g style="mix-blend-mode:lighten">
<path d="M58.9398 53.8381C58.8852 53.6131 59.0251 53.3864 59.2502 53.3318C59.4754 53.2773 59.7022 53.4171 59.7568 53.6421C59.8114 53.8671 59.6715 54.0939 59.4464 54.1484C59.2212 54.203 58.9944 54.0632 58.9398 53.8381Z" fill="#FFFBFC"/>
</g>
<g style="mix-blend-mode:lighten">
<path d="M77.1019 63.2064C77.2606 63.1775 77.4141 63.2815 77.4431 63.44C77.4721 63.5985 77.368 63.752 77.2094 63.781C77.0508 63.8099 76.8972 63.706 76.8682 63.5474C76.8393 63.3889 76.9433 63.2354 77.1019 63.2064Z" fill="#FFFBFC"/>
</g>
<g style="mix-blend-mode:lighten">
<path d="M68.3508 63.3339C68.4531 63.3151 68.5503 63.3816 68.5691 63.4839C68.5879 63.5862 68.5213 63.6833 68.419 63.7021C68.3167 63.7208 68.2194 63.6544 68.2007 63.5521C68.1819 63.4498 68.2484 63.3526 68.3508 63.3339Z" fill="#FFFBFC"/>
</g>
<g style="mix-blend-mode:lighten">
<path d="M68.7481 61.1313C68.9664 61.0904 69.1745 61.2336 69.2154 61.4518C69.2563 61.67 69.1131 61.878 68.8947 61.9189C68.6764 61.9598 68.4683 61.8166 68.4274 61.5984C68.3865 61.3802 68.5297 61.1722 68.7481 61.1313Z" fill="#FFFBFC"/>
</g>
<g style="mix-blend-mode:lighten">
<path d="M67.3476 59.996C67.5557 59.9568 67.757 60.0949 67.7962 60.3029C67.8354 60.5109 67.6973 60.7121 67.4892 60.7513C67.2811 60.7905 67.0798 60.6524 67.0406 60.4444C67.0014 60.2364 67.1395 60.0352 67.3476 59.996Z" fill="#FFFBFC"/>
</g>
<g style="mix-blend-mode:lighten">
<path d="M67.6393 58.576C67.815 58.5436 67.9856 58.6595 68.018 58.8351C68.0504 59.0107 67.9344 59.1812 67.7587 59.2136C67.583 59.246 67.4125 59.13 67.3801 58.9544C67.3477 58.7789 67.4636 58.6084 67.6393 58.576Z" fill="#FFFBFC"/>
</g>
<g style="mix-blend-mode:lighten">
<path d="M65.8672 57.5686C65.9559 57.5515 66.0428 57.6112 66.0582 57.6999C66.0752 57.7885 66.0156 57.8754 65.9269 57.8908C65.8382 57.9078 65.7512 57.8482 65.7358 57.7595C65.7188 57.6709 65.7785 57.5839 65.8672 57.5686Z" fill="#FFFBFC"/>
</g>
<g style="mix-blend-mode:lighten">
<path d="M73.2271 44.9843C73.3482 45.136 73.3243 45.3559 73.1742 45.477C73.0224 45.598 72.8024 45.5742 72.6813 45.4241C72.5602 45.2724 72.5841 45.0525 72.7342 44.9314C72.886 44.8104 73.106 44.8343 73.2271 44.9843Z" fill="#FFFBFC"/>
</g>
<path d="M75.9836 41.476C76.0501 41.5579 76.0365 41.6772 75.9546 41.7437C75.8727 41.8102 75.7533 41.7965 75.6868 41.7147C75.6203 41.6329 75.6339 41.5135 75.7158 41.4471C75.7977 41.3806 75.9171 41.3942 75.9836 41.476Z" fill="#FFFBFC"/>
</g>
<g style="mix-blend-mode:lighten">
<path d="M80.7945 54.5335C80.757 54.3716 80.8593 54.2096 81.0214 54.1738C81.1834 54.1363 81.3454 54.2386 81.3812 54.4006C81.4188 54.5625 81.3164 54.7245 81.1544 54.7603C80.9924 54.7978 80.8303 54.6955 80.7945 54.5335Z" fill="#FFFBFC"/>
</g>
<g style="mix-blend-mode:lighten">
<path d="M62.0149 43.7017C61.9757 43.5261 62.0849 43.3505 62.2606 43.3113C62.4362 43.2721 62.6119 43.3812 62.6511 43.5568C62.6904 43.7324 62.5812 43.908 62.4055 43.9472C62.2298 43.9864 62.0542 43.8773 62.0149 43.7017Z" fill="#FFFBFC"/>
</g>
<g style="mix-blend-mode:lighten">
<path d="M66.4215 45.5971C66.5665 45.7778 66.5392 46.042 66.3584 46.1887C66.1776 46.3336 65.9132 46.3063 65.7665 46.1256C65.6216 45.9449 65.6489 45.6806 65.8297 45.534C66.0105 45.3891 66.2748 45.4164 66.4215 45.5971Z" fill="#FFFBFC"/>
</g>
<g style="mix-blend-mode:lighten">
<path d="M69.8411 47.5589C69.9639 47.7123 69.9401 47.9357 69.7865 48.0584C69.633 48.1811 69.4096 48.1573 69.2868 48.0038C69.164 47.8504 69.1879 47.6271 69.3414 47.5043C69.4949 47.3816 69.7183 47.4055 69.8411 47.5589Z" fill="#FFFBFC"/>
</g>
<g style="mix-blend-mode:lighten">
<path d="M67.9974 42.9142C68.0588 42.991 68.0469 43.1052 67.9701 43.1666C67.8934 43.2279 67.7791 43.216 67.7177 43.1393C67.6563 43.0626 67.6682 42.9483 67.745 42.887C67.8217 42.8256 67.936 42.8375 67.9974 42.9142Z" fill="#FFFBFC"/>
</g>
<g style="mix-blend-mode:lighten">
<path d="M72.3653 48.1916C72.3397 48.0876 72.4046 47.9819 72.5086 47.9563C72.6126 47.9308 72.7184 47.9955 72.744 48.0995C72.7696 48.2035 72.7048 48.3092 72.6007 48.3348C72.4967 48.3604 72.3909 48.2956 72.3653 48.1916Z" fill="#FFFBFC"/>
</g>
<g style="mix-blend-mode:lighten">
<path d="M69.1324 44.9619C69.1035 44.8409 69.1785 44.7181 69.2996 44.6891C69.4207 44.6602 69.5435 44.7352 69.5725 44.8562C69.6015 44.9773 69.5265 45.1 69.4054 45.129C69.2843 45.158 69.1614 45.083 69.1324 44.9619Z" fill="#FFFBFC"/>
</g>
<g style="mix-blend-mode:lighten">
<path d="M66.8903 48.0246C66.8493 47.8524 66.9551 47.6802 67.1274 47.6376C67.2996 47.5967 67.4719 47.7024 67.5145 47.8745C67.5555 48.0467 67.4497 48.2189 67.2775 48.2615C67.1052 48.3025 66.9329 48.1968 66.8903 48.0246Z" fill="#FFFBFC"/>
</g>
<g style="mix-blend-mode:lighten">
<path d="M65.8134 50.4576C65.7861 50.3468 65.8543 50.2377 65.9652 50.2104C66.0761 50.1831 66.1852 50.2513 66.2125 50.3621C66.2398 50.473 66.1716 50.5821 66.0607 50.6093C65.9498 50.6366 65.8407 50.5684 65.8134 50.4576Z" fill="#FFFBFC"/>
</g>
<g style="mix-blend-mode:lighten">
<path d="M60.0805 47.2707C60.0242 47.0355 60.1692 46.7985 60.4046 46.7422C60.6399 46.686 60.877 46.8309 60.9333 47.0661C60.9896 47.3014 60.8446 47.5384 60.6092 47.5946C60.3739 47.6509 60.1368 47.506 60.0805 47.2707Z" fill="#FFFBFC"/>
</g>
<g style="mix-blend-mode:lighten">
<path d="M60.081 47.2714C60.0247 47.0361 60.1697 46.7992 60.4051 46.7429C60.6404 46.6866 60.8775 46.8315 60.9338 47.0668C60.9901 47.3021 60.8451 47.539 60.6097 47.5953C60.3743 47.6516 60.1373 47.5066 60.081 47.2714Z" fill="#FFFBFC"/>
</g>
<g style="mix-blend-mode:lighten">
<path d="M58.9398 53.8381C58.8852 53.6131 59.0251 53.3864 59.2502 53.3318C59.4754 53.2773 59.7022 53.4171 59.7568 53.6421C59.8114 53.8671 59.6715 54.0939 59.4464 54.1484C59.2212 54.203 58.9944 54.0632 58.9398 53.8381Z" fill="#FFFBFC"/>
</g>
<g style="mix-blend-mode:lighten">
<path d="M77.1024 63.2066C77.261 63.1776 77.4145 63.2816 77.4435 63.4401C77.4725 63.5987 77.3685 63.7521 77.2099 63.7811C77.0512 63.8101 76.8977 63.7061 76.8687 63.5475C76.8397 63.389 76.9438 63.2355 77.1024 63.2066Z" fill="#FFFBFC"/>
</g>
<g style="mix-blend-mode:lighten">
<path d="M68.3503 63.3337C68.4526 63.3149 68.5498 63.3814 68.5686 63.4837C68.5874 63.586 68.5209 63.6832 68.4185 63.7019C68.3162 63.7207 68.2189 63.6542 68.2002 63.5519C68.1814 63.4496 68.2479 63.3524 68.3503 63.3337Z" fill="#FFFBFC"/>
</g>
<g style="mix-blend-mode:lighten">
<path d="M68.7485 61.1321C68.9669 61.0912 69.175 61.2344 69.2159 61.4526C69.2568 61.6708 69.1136 61.8788 68.8952 61.9197C68.6769 61.9606 68.4688 61.8174 68.4279 61.5992C68.3869 61.381 68.5302 61.173 68.7485 61.1321Z" fill="#FFFBFC"/>
</g>
<g style="mix-blend-mode:lighten">
<path d="M67.348 59.9953C67.5561 59.9561 67.7573 60.0942 67.7966 60.3022C67.8358 60.5102 67.6976 60.7113 67.4895 60.7505C67.2815 60.7897 67.0802 60.6517 67.041 60.4437C67.0017 60.2357 67.1399 60.0345 67.348 59.9953Z" fill="#FFFBFC"/>
</g>
<g style="mix-blend-mode:lighten">
<path d="M67.639 58.5759C67.8146 58.5435 67.9852 58.6594 68.0176 58.835C68.05 59.0106 67.934 59.1811 67.7584 59.2135C67.5827 59.2459 67.4121 59.1299 67.3797 58.9543C67.3473 58.7787 67.4633 58.6083 67.639 58.5759Z" fill="#FFFBFC"/>
</g>
<g style="mix-blend-mode:lighten">
<path d="M65.8674 57.5688C65.9561 57.5518 66.0431 57.6114 66.0584 57.7001C66.0755 57.7887 66.0158 57.8757 65.9271 57.891C65.8384 57.9081 65.7514 57.8484 65.7361 57.7598C65.719 57.6711 65.7787 57.5842 65.8674 57.5688Z" fill="#FFFBFC"/>
</g>
<g style="mix-blend-mode:lighten">
<path d="M73.2276 44.9836C73.3487 45.1353 73.3248 45.3553 73.1747 45.4763C73.0229 45.5973 72.8029 45.5735 72.6818 45.4235C72.5607 45.2717 72.5846 45.0518 72.7347 44.9308C72.8865 44.8097 73.1065 44.8336 73.2276 44.9836Z" fill="#FFFBFC"/>
</g>
<path d="M75.984 41.4766C76.0505 41.5585 76.0369 41.6778 75.955 41.7443C75.8731 41.8108 75.7537 41.7972 75.6872 41.7153C75.6207 41.6335 75.6343 41.5142 75.7162 41.4477C75.7981 41.3812 75.9175 41.3948 75.984 41.4766Z" fill="#FFFBFC"/>
<path d="M60.3535 40.4267L60.4503 40.9025L60.9237 40.9997L60.4503 41.097L60.3535 41.5728L60.2568 41.097L59.7833 40.9997L60.2568 40.9025L60.3535 40.4267Z" fill="white"/>
<g filter="url(#filter6_f_46_2948)">
<path d="M60.3535 40.4267L60.4503 40.9025L60.9237 40.9997L60.4503 41.097L60.3535 41.5728L60.2568 41.097L59.7833 40.9997L60.2568 40.9025L60.3535 40.4267Z" fill="white"/>
</g>
<path d="M85.2612 54.769L85.5937 55.1215L86.0467 54.9524L85.696 55.2865L85.8642 55.7418L85.5317 55.3894L85.0787 55.5584L85.4294 55.2243L85.2612 54.769Z" fill="white"/>
<g filter="url(#filter7_f_46_2948)">
<path d="M85.2612 54.769L85.5937 55.1215L86.0467 54.9524L85.696 55.2865L85.8642 55.7418L85.5317 55.3894L85.0787 55.5584L85.4294 55.2243L85.2612 54.769Z" fill="white"/>
</g>
<path d="M61.0201 58.6107L61.2134 59.0558L61.6966 59.0518L61.2537 59.246L61.2577 59.7316L61.0644 59.2866L60.5812 59.2906L61.0241 59.0963L61.0201 58.6107Z" fill="white"/>
<g filter="url(#filter8_f_46_2948)">
<path d="M61.0201 58.6107L61.2134 59.0558L61.6966 59.0518L61.2537 59.246L61.2577 59.7316L61.0644 59.2866L60.5812 59.2906L61.0241 59.0963L61.0201 58.6107Z" fill="white"/>
</g>
</g>
<g style="mix-blend-mode:overlay" filter="url(#filter9_f_46_2948)">
<g style="mix-blend-mode:lighten">
<path d="M55.8916 20.733C55.8412 20.5096 55.9817 20.2827 56.2051 20.2322C56.4285 20.1818 56.6555 20.3223 56.706 20.5457C56.7564 20.769 56.6159 20.996 56.3925 21.0464C56.1691 21.0969 55.9421 20.9564 55.8916 20.733Z" fill="#FFFBFC"/>
</g>
<g style="mix-blend-mode:lighten">
<path d="M88.1293 49.2084C88.05 48.8662 88.2662 48.5239 88.6086 48.4483C88.9509 48.369 89.2932 48.5852 89.3689 48.9274C89.4481 49.2697 89.2319 49.6119 88.8896 49.6876C88.5473 49.7668 88.205 49.5507 88.1293 49.2084Z" fill="#FFFBFC"/>
</g>
<g style="mix-blend-mode:lighten">
<path d="M48.4545 26.3173C48.3716 25.9462 48.6022 25.5752 48.9734 25.4923C49.3445 25.4095 49.7157 25.64 49.7985 26.0111C49.8814 26.3822 49.6508 26.7532 49.2797 26.8361C48.9085 26.919 48.5374 26.6884 48.4545 26.3173Z" fill="#FFFBFC"/>
</g>
<g style="mix-blend-mode:lighten">
<path d="M57.7654 30.3198C58.0717 30.7017 58.014 31.2601 57.6321 31.5699C57.2501 31.8762 56.6916 31.8185 56.3817 31.4366C56.0754 31.0548 56.1331 30.4963 56.515 30.1865C56.897 29.8803 57.4555 29.9379 57.7654 30.3198Z" fill="#FFFBFC"/>
</g>
<g style="mix-blend-mode:lighten">
<path d="M60.9758 29.3615C61.2352 29.6857 61.1848 30.1577 60.8605 30.417C60.5362 30.6764 60.0641 30.626 59.8047 30.3018C59.5452 29.9775 59.5957 29.5056 59.92 29.2462C60.2443 28.9868 60.7163 29.0372 60.9758 29.3615Z" fill="#FFFBFC"/>
</g>
<g style="mix-blend-mode:lighten">
<path d="M61.0949 24.653C61.2246 24.8151 61.1994 25.0565 61.0373 25.1862C60.8751 25.3159 60.6337 25.2907 60.504 25.1286C60.3742 24.9665 60.3995 24.7251 60.5616 24.5954C60.7238 24.4657 60.9652 24.4909 61.0949 24.653Z" fill="#FFFBFC"/>
</g>
<g style="mix-blend-mode:lighten">
<path d="M70.3236 35.803C70.2695 35.5833 70.4064 35.3599 70.6263 35.3059C70.8461 35.2518 71.0695 35.3887 71.1235 35.6085C71.1776 35.8282 71.0406 36.0516 70.8208 36.1057C70.601 36.1597 70.3776 36.0228 70.3236 35.803Z" fill="#FFFBFC"/>
</g>
<g style="mix-blend-mode:lighten">
<path d="M63.4912 28.9797C63.4299 28.7239 63.5885 28.4645 63.8443 28.4032C64.1002 28.342 64.3596 28.5005 64.4209 28.7563C64.4821 29.0121 64.3236 29.2715 64.0677 29.3327C63.8119 29.394 63.5524 29.2354 63.4912 28.9797Z" fill="#FFFBFC"/>
</g>
<g style="mix-blend-mode:lighten">
<path d="M56.2021 35.45C56.1156 35.0861 56.339 34.7222 56.7029 34.6322C57.0669 34.5457 57.4308 34.7691 57.5209 35.1329C57.6074 35.4968 57.384 35.8607 57.02 35.9507C56.6561 36.0372 56.2921 35.8138 56.2021 35.45Z" fill="#FFFBFC"/>
</g>
<g style="mix-blend-mode:lighten">
<path d="M55.0232 40.5943C54.9655 40.3601 55.1097 40.1295 55.3439 40.0719C55.5781 40.0143 55.8087 40.1584 55.8664 40.3925C55.924 40.6267 55.7799 40.8573 55.5457 40.9149C55.3115 40.9726 55.0809 40.8285 55.0232 40.5943Z" fill="#FFFBFC"/>
</g>
<g style="mix-blend-mode:lighten">
<path d="M48.8617 31.2008C48.7428 30.7036 49.0491 30.2029 49.5463 30.084C50.0436 29.9651 50.5445 30.2713 50.6634 30.7685C50.7823 31.2656 50.476 31.7664 49.9787 31.8853C49.4815 32.0042 48.9806 31.6979 48.8617 31.2008Z" fill="#FFFBFC"/>
</g>
<g style="mix-blend-mode:lighten">
<path d="M51.7433 45.9242C51.628 45.4487 51.9235 44.9695 52.3992 44.8542C52.8748 44.7389 53.354 45.0344 53.4694 45.5099C53.5847 45.9855 53.2892 46.4646 52.8135 46.5799C52.3379 46.6952 51.8586 46.3998 51.7433 45.9242Z" fill="#FFFBFC"/>
</g>
<g style="mix-blend-mode:lighten">
<path d="M44.1235 42.792C44.0262 42.3885 44.2748 41.9815 44.6784 41.8878C45.082 41.7905 45.4892 42.0391 45.5829 42.4426C45.6802 42.8461 45.4315 43.2532 45.028 43.3469C44.6244 43.4441 44.2172 43.1955 44.1235 42.792Z" fill="#FFFBFC"/>
</g>
<g style="mix-blend-mode:lighten">
<path d="M42.0009 47C41.9504 46.7946 42.0765 46.5929 42.2819 46.5424C42.4873 46.492 42.6891 46.6181 42.7396 46.8234C42.79 47.0288 42.6639 47.2305 42.4585 47.281C42.2531 47.3314 42.0513 47.2053 42.0009 47Z" fill="#FFFBFC"/>
</g>
<g style="mix-blend-mode:lighten">
<path d="M80.3289 67.5359C80.664 67.4747 80.9883 67.6944 81.0495 68.0295C81.1108 68.3645 80.891 68.6888 80.5559 68.75C80.2208 68.8113 79.8964 68.5915 79.8352 68.2565C79.7739 67.9214 79.9937 67.5972 80.3289 67.5359Z" fill="#FFFBFC"/>
</g>
<g style="mix-blend-mode:lighten">
<path d="M61.8411 67.8051C62.0573 67.7655 62.2627 67.906 62.3024 68.1222C62.342 68.3383 62.2015 68.5437 61.9853 68.5833C61.7691 68.6229 61.5637 68.4824 61.524 68.2663C61.4844 68.0501 61.6249 67.8448 61.8411 67.8051Z" fill="#FFFBFC"/>
</g>
<g style="mix-blend-mode:lighten">
<path d="M62.6806 63.1504C63.1418 63.0639 63.5814 63.3665 63.6679 63.8277C63.7544 64.2888 63.4517 64.7283 62.9905 64.8148C62.5292 64.9012 62.0896 64.5986 62.0031 64.1375C61.9167 63.6763 62.2194 63.2368 62.6806 63.1504Z" fill="#FFFBFC"/>
</g>
<g style="mix-blend-mode:lighten">
<path d="M59.7219 60.7512C60.1615 60.6683 60.5867 60.9601 60.6696 61.3997C60.7524 61.8392 60.4606 62.2643 60.021 62.3472C59.5814 62.43 59.1562 62.1382 59.0733 61.6987C58.9904 61.2592 59.2823 60.834 59.7219 60.7512Z" fill="#FFFBFC"/>
</g>
<g style="mix-blend-mode:lighten">
<path d="M60.3384 57.7501C60.7095 57.6817 61.0698 57.9266 61.1383 58.2977C61.2068 58.6688 60.9617 59.0291 60.5906 59.0975C60.2194 59.166 59.8591 58.921 59.7906 58.5499C59.7222 58.1788 59.9672 57.8186 60.3384 57.7501Z" fill="#FFFBFC"/>
</g>
<g style="mix-blend-mode:lighten">
<path d="M56.5944 55.6212C56.7818 55.5852 56.9656 55.7113 56.998 55.8986C57.034 56.0859 56.9079 56.2697 56.7205 56.3021C56.5331 56.3381 56.3494 56.212 56.3169 56.0247C56.2809 55.8374 56.407 55.6536 56.5944 55.6212Z" fill="#FFFBFC"/>
</g>
<g style="mix-blend-mode:lighten">
<path d="M64.4316 23.1539C64.6478 23.4205 64.6045 23.8096 64.3379 24.0258C64.0712 24.2419 63.6821 24.1987 63.4659 23.9321C63.2497 23.6655 63.2929 23.2764 63.5595 23.0602C63.8262 22.8441 64.2154 22.8873 64.4316 23.1539Z" fill="#FFFBFC"/>
</g>
<g style="mix-blend-mode:lighten">
<path d="M72.1429 29.0262C72.3987 29.3469 72.3483 29.8116 72.0312 30.0674C71.7105 30.3232 71.2457 30.2727 70.9898 29.9557C70.734 29.6351 70.7844 29.1703 71.1015 28.9145C71.4222 28.6587 71.8871 28.7092 72.1429 29.0262Z" fill="#FFFBFC"/>
</g>
<path d="M71.3611 23.8711C71.5016 24.0477 71.4764 24.3035 71.2998 24.4476C71.1233 24.5881 70.8674 24.5628 70.7233 24.3863C70.5828 24.2098 70.608 23.954 70.7846 23.8099C70.9611 23.6694 71.217 23.6946 71.3611 23.8711Z" fill="#FFFBFC"/>
<path d="M77.9662 21.6121C78.1067 21.7851 78.0779 22.0372 77.905 22.1777C77.732 22.3182 77.4798 22.2894 77.3392 22.1165C77.1987 21.9436 77.2275 21.6914 77.4005 21.5509C77.5734 21.4104 77.8257 21.4392 77.9662 21.6121Z" fill="#FFFBFC"/>
</g>
<g style="mix-blend-mode:lighten">
<path d="M55.8915 20.733C55.841 20.5096 55.9816 20.2827 56.205 20.2322C56.4284 20.1818 56.6554 20.3223 56.7058 20.5457C56.7563 20.769 56.6158 20.996 56.3924 21.0464C56.1689 21.0969 55.9419 20.9564 55.8915 20.733Z" fill="#FFFBFC"/>
</g>
<g style="mix-blend-mode:lighten">
<path d="M88.1292 49.2084C88.0499 48.8662 88.2661 48.5239 88.6084 48.4483C88.9507 48.369 89.2931 48.5852 89.3687 48.9274C89.448 49.2697 89.2318 49.6119 88.8895 49.6876C88.5472 49.7668 88.2048 49.5507 88.1292 49.2084Z" fill="#FFFBFC"/>
</g>
<g style="mix-blend-mode:lighten">
<path d="M48.4544 26.3173C48.3715 25.9462 48.6021 25.5752 48.9732 25.4923C49.3444 25.4095 49.7155 25.64 49.7984 26.0111C49.8813 26.3822 49.6507 26.7532 49.2795 26.8361C48.9084 26.919 48.5372 26.6884 48.4544 26.3173Z" fill="#FFFBFC"/>
</g>
<g style="mix-blend-mode:lighten">
<path d="M57.7651 30.3199C58.0714 30.7018 58.0138 31.2602 57.6318 31.57C57.2499 31.8762 56.6913 31.8186 56.3814 31.4367C56.0752 31.0548 56.1328 30.4964 56.5148 30.1866C56.8967 29.8804 57.4552 29.938 57.7651 30.3199Z" fill="#FFFBFC"/>
</g>
<g style="mix-blend-mode:lighten">
<path d="M60.9757 29.3614C61.2351 29.6856 61.1847 30.1576 60.8604 30.417C60.5361 30.6764 60.064 30.6259 59.8046 30.3017C59.5451 29.9775 59.5956 29.5055 59.9199 29.2461C60.2442 28.9867 60.7162 29.0372 60.9757 29.3614Z" fill="#FFFBFC"/>
</g>
<g style="mix-blend-mode:lighten">
<path d="M61.0948 24.653C61.2245 24.8151 61.1993 25.0565 61.0371 25.1862C60.875 25.3158 60.6336 25.2906 60.5038 25.1285C60.3741 24.9664 60.3993 24.725 60.5615 24.5953C60.7237 24.4656 60.9651 24.4908 61.0948 24.653Z" fill="#FFFBFC"/>
</g>
<g style="mix-blend-mode:lighten">
<path d="M70.3232 35.803C70.2691 35.5833 70.4061 35.3599 70.6259 35.3059C70.8457 35.2518 71.0691 35.3887 71.1232 35.6085C71.1772 35.8282 71.0403 36.0516 70.8205 36.1057C70.6007 36.1597 70.3773 36.0228 70.3232 35.803Z" fill="#FFFBFC"/>
</g>
<g style="mix-blend-mode:lighten">
<path d="M63.4911 28.9797C63.4298 28.7239 63.5884 28.4645 63.8442 28.4032C64.1 28.342 64.3595 28.5005 64.4207 28.7563C64.482 29.0121 64.3234 29.2715 64.0676 29.3327C63.8118 29.394 63.5523 29.2354 63.4911 28.9797Z" fill="#FFFBFC"/>
</g>
<g style="mix-blend-mode:lighten">
<path d="M56.2017 35.45C56.1152 35.0861 56.3386 34.7222 56.7026 34.6322C57.0665 34.5457 57.4304 34.7691 57.5205 35.1329C57.607 35.4968 57.3836 35.8607 57.0197 35.9507C56.6557 36.0372 56.2918 35.8138 56.2017 35.45Z" fill="#FFFBFC"/>
</g>
<g style="mix-blend-mode:lighten">
<path d="M55.0231 40.5947C54.9654 40.3605 55.1096 40.1299 55.3438 40.0723C55.578 40.0146 55.8086 40.1587 55.8663 40.3929C55.9239 40.6271 55.7798 40.8576 55.5456 40.9153C55.3113 40.9729 55.0807 40.8288 55.0231 40.5947Z" fill="#FFFBFC"/>
</g>
<g style="mix-blend-mode:lighten">
<path d="M48.8616 31.2008C48.7426 30.7037 49.0489 30.2029 49.5462 30.084C50.0435 29.9651 50.5443 30.2714 50.6632 30.7685C50.7822 31.2657 50.4759 31.7665 49.9786 31.8853C49.4813 32.0042 48.9805 31.698 48.8616 31.2008Z" fill="#FFFBFC"/>
</g>
<g style="mix-blend-mode:lighten">
<path d="M51.7432 45.9242C51.6279 45.4487 51.9234 44.9695 52.399 44.8542C52.8747 44.7389 53.3539 45.0344 53.4692 45.5099C53.5845 45.9855 53.2891 46.4646 52.8134 46.5799C52.3378 46.6952 51.8585 46.3998 51.7432 45.9242Z" fill="#FFFBFC"/>
</g>
<g style="mix-blend-mode:lighten">
<path d="M44.1231 42.792C44.0258 42.3885 44.2745 41.9815 44.6781 41.8878C45.0816 41.7905 45.4888 42.0391 45.5825 42.4426C45.6798 42.8461 45.4312 43.2532 45.0276 43.3469C44.624 43.4441 44.2168 43.1955 44.1231 42.792Z" fill="#FFFBFC"/>
</g>
<g style="mix-blend-mode:lighten">
<path d="M42.0005 46.9999C41.95 46.7945 42.0762 46.5928 42.2816 46.5424C42.4869 46.4919 42.6887 46.618 42.7392 46.8234C42.7896 47.0287 42.6635 47.2305 42.4581 47.2809C42.2527 47.3313 42.0509 47.2052 42.0005 46.9999Z" fill="#FFFBFC"/>
</g>
<g style="mix-blend-mode:lighten">
<path d="M80.3286 67.5363C80.6637 67.4751 80.988 67.6948 81.0493 68.0299C81.1105 68.3649 80.8907 68.6891 80.5556 68.7504C80.2205 68.8116 79.8962 68.5919 79.8349 68.2568C79.7737 67.9218 79.9935 67.5975 80.3286 67.5363Z" fill="#FFFBFC"/>
</g>
<g style="mix-blend-mode:lighten">
<path d="M61.841 67.8051C62.0572 67.7655 62.2626 67.906 62.3022 68.1222C62.3419 68.3383 62.2013 68.5437 61.9851 68.5833C61.7689 68.6229 61.5635 68.4824 61.5239 68.2663C61.4843 68.0501 61.6248 67.8448 61.841 67.8051Z" fill="#FFFBFC"/>
</g>
<g style="mix-blend-mode:lighten">
<path d="M62.6802 63.1504C63.1415 63.064 63.5811 63.3666 63.6675 63.8277C63.754 64.2889 63.4513 64.7284 62.9901 64.8148C62.5289 64.9013 62.0893 64.5987 62.0028 64.1375C61.9163 63.6764 62.219 63.2369 62.6802 63.1504Z" fill="#FFFBFC"/>
</g>
<g style="mix-blend-mode:lighten">
<path d="M59.7218 60.7512C60.1614 60.6683 60.5866 60.9601 60.6694 61.3997C60.7523 61.8392 60.4605 62.2643 60.0208 62.3472C59.5812 62.43 59.156 62.1382 59.0732 61.6987C58.9903 61.2592 59.2821 60.834 59.7218 60.7512Z" fill="#FFFBFC"/>
</g>
<g style="mix-blend-mode:lighten">
<path d="M60.3382 57.7502C60.7094 57.6817 61.0697 57.9267 61.1382 58.2978C61.2067 58.6688 60.9616 59.0291 60.5905 59.0976C60.2193 59.166 59.859 58.921 59.7905 58.55C59.7221 58.1789 59.9671 57.8186 60.3382 57.7502Z" fill="#FFFBFC"/>
</g>
<g style="mix-blend-mode:lighten">
<path d="M56.5943 55.6211C56.7817 55.5851 56.9654 55.7112 56.9979 55.8985C57.0339 56.0859 56.9078 56.2696 56.7204 56.302C56.533 56.3381 56.3493 56.212 56.3168 56.0246C56.2808 55.8373 56.4069 55.6536 56.5943 55.6211Z" fill="#FFFBFC"/>
</g>
<g style="mix-blend-mode:lighten">
<path d="M64.4313 23.1543C64.6475 23.4209 64.6043 23.81 64.3376 24.0261C64.071 24.2423 63.6818 24.1991 63.4656 23.9325C63.2494 23.6659 63.2927 23.2768 63.5593 23.0606C63.826 22.8445 64.2151 22.8877 64.4313 23.1543Z" fill="#FFFBFC"/>
</g>
<g style="mix-blend-mode:lighten">
<path d="M72.1428 29.0262C72.3986 29.3469 72.3482 29.8116 72.0311 30.0674C71.7104 30.3232 71.2455 30.2727 70.9897 29.9557C70.7339 29.6351 70.7843 29.1703 71.1014 28.9145C71.4221 28.6587 71.8869 28.7092 72.1428 29.0262Z" fill="#FFFBFC"/>
</g>
<path d="M71.361 23.8711C71.5015 24.0476 71.4763 24.3034 71.2997 24.4475C71.1232 24.588 70.8673 24.5628 70.7232 24.3863C70.5826 24.2097 70.6079 23.9539 70.7844 23.8098C70.961 23.6693 71.2168 23.6945 71.361 23.8711Z" fill="#FFFBFC"/>
<path d="M77.9661 21.6121C78.1066 21.7851 78.0778 22.0372 77.9048 22.1777C77.7319 22.3182 77.4796 22.2894 77.3391 22.1165C77.1986 21.9436 77.2274 21.6914 77.4004 21.5509C77.5733 21.4104 77.8256 21.4392 77.9661 21.6121Z" fill="#FFFBFC"/>
<mask id="path-124-outside-1_46_2948" maskUnits="userSpaceOnUse" x="47" y="41" width="48" height="18" fill="black">
<rect fill="white" x="47" y="41" width="48" height="18"/>
<path d="M55.1543 43.428L52.7879 54.56H59.5095L58.9939 57H49.4364L52.3184 43.428H55.1543ZM69.1959 56.2726C69.202 55.892 69.245 55.5022 69.3248 55.1032L69.5734 53.8418C69.7453 52.9763 69.7084 52.3993 69.4629 52.1108C69.2235 51.8223 68.6864 51.678 67.8516 51.678H64.9235L63.8002 57H61.0287L63.9107 43.428H70.5678C71.5131 43.4464 72.219 43.5631 72.6855 43.7779C73.1521 43.9927 73.5204 44.3089 73.7905 44.7263C74.0114 45.07 74.1618 45.4506 74.2416 45.868C74.3276 46.2854 74.3153 46.7612 74.2048 47.2952C74.0636 47.9397 73.7628 48.5751 73.3025 49.2012C72.8482 49.8211 72.219 50.26 71.4149 50.5179C71.9858 50.7695 72.351 51.1286 72.5106 51.5951C72.6763 52.0555 72.6579 52.7614 72.4554 53.7129L72.262 54.6244C72.1331 55.2444 72.0686 55.6649 72.0686 55.8859C72.0686 56.2358 72.1853 56.4936 72.4185 56.6593L72.3541 57H69.2327C69.2081 56.6992 69.1959 56.4568 69.1959 56.2726ZM69.4721 45.7852H66.1758L65.4023 49.4314H68.6158C69.2542 49.4314 69.7483 49.3577 70.0982 49.2104C70.7182 48.9526 71.111 48.4431 71.2768 47.6819C71.4487 46.8594 71.2921 46.3069 70.8072 46.0246C70.531 45.865 70.0859 45.7852 69.4721 45.7852ZM74.435 52.9855L74.969 50.4994H80.2542L79.7201 52.9855H74.435ZM90.8429 43.428L92.7673 57H89.692L89.4065 54.2101H84.4068L82.8783 57H79.9135L87.6387 43.428H90.8429ZM88.5502 46.531L85.6682 51.8714H89.1119L88.5502 46.531Z"/>
</mask>
<path d="M55.1543 43.428L52.7879 54.56H59.5095L58.9939 57H49.4364L52.3184 43.428H55.1543ZM69.1959 56.2726C69.202 55.892 69.245 55.5022 69.3248 55.1032L69.5734 53.8418C69.7453 52.9763 69.7084 52.3993 69.4629 52.1108C69.2235 51.8223 68.6864 51.678 67.8516 51.678H64.9235L63.8002 57H61.0287L63.9107 43.428H70.5678C71.5131 43.4464 72.219 43.5631 72.6855 43.7779C73.1521 43.9927 73.5204 44.3089 73.7905 44.7263C74.0114 45.07 74.1618 45.4506 74.2416 45.868C74.3276 46.2854 74.3153 46.7612 74.2048 47.2952C74.0636 47.9397 73.7628 48.5751 73.3025 49.2012C72.8482 49.8211 72.219 50.26 71.4149 50.5179C71.9858 50.7695 72.351 51.1286 72.5106 51.5951C72.6763 52.0555 72.6579 52.7614 72.4554 53.7129L72.262 54.6244C72.1331 55.2444 72.0686 55.6649 72.0686 55.8859C72.0686 56.2358 72.1853 56.4936 72.4185 56.6593L72.3541 57H69.2327C69.2081 56.6992 69.1959 56.4568 69.1959 56.2726ZM69.4721 45.7852H66.1758L65.4023 49.4314H68.6158C69.2542 49.4314 69.7483 49.3577 70.0982 49.2104C70.7182 48.9526 71.111 48.4431 71.2768 47.6819C71.4487 46.8594 71.2921 46.3069 70.8072 46.0246C70.531 45.865 70.0859 45.7852 69.4721 45.7852ZM74.435 52.9855L74.969 50.4994H80.2542L79.7201 52.9855H74.435ZM90.8429 43.428L92.7673 57H89.692L89.4065 54.2101H84.4068L82.8783 57H79.9135L87.6387 43.428H90.8429ZM88.5502 46.531L85.6682 51.8714H89.1119L88.5502 46.531Z" fill="white"/>
<path d="M55.1543 43.428L56.6914 43.7548L57.0949 41.8566H55.1543V43.428ZM52.7879 54.56L51.2509 54.2332L50.8474 56.1314H52.7879V54.56ZM59.5095 54.56L61.047 54.8849L61.4477 52.9886H59.5095V54.56ZM58.9939 57V58.5714H60.2679L60.5313 57.3249L58.9939 57ZM49.4364 57L47.8992 56.6736L47.4962 58.5714H49.4364V57ZM52.3184 43.428V41.8566H51.0456L50.7812 43.1016L52.3184 43.428ZM53.6172 43.1013L51.2509 54.2332L54.325 54.8867L56.6914 43.7548L53.6172 43.1013ZM52.7879 56.1314H59.5095V52.9886H52.7879V56.1314ZM57.972 54.2351L57.4564 56.6751L60.5313 57.3249L61.047 54.8849L57.972 54.2351ZM58.9939 55.4286H49.4364V58.5714H58.9939V55.4286ZM50.9735 57.3264L53.8555 43.7544L50.7812 43.1016L47.8992 56.6736L50.9735 57.3264ZM52.3184 44.9994H55.1543V41.8566H52.3184V44.9994ZM69.1959 56.2726L67.6246 56.2473L67.6244 56.2599V56.2726H69.1959ZM69.3248 55.1032L70.8657 55.4114L70.8665 55.4071L69.3248 55.1032ZM69.5734 53.8418L68.032 53.5357L68.0316 53.5379L69.5734 53.8418ZM69.4629 52.1108L68.2536 53.1142L68.2598 53.1218L68.2662 53.1292L69.4629 52.1108ZM64.9235 51.678V50.1066H63.6492L63.386 51.3535L64.9235 51.678ZM63.8002 57V58.5714H65.0746L65.3378 57.3245L63.8002 57ZM61.0287 57L59.4916 56.6736L59.0886 58.5714H61.0287V57ZM63.9107 43.428V41.8566H62.6379L62.3736 43.1016L63.9107 43.428ZM70.5678 43.428L70.5984 41.8569L70.5831 41.8566H70.5678V43.428ZM73.7905 44.7263L75.1123 43.8765L75.1098 43.8726L73.7905 44.7263ZM74.2416 45.868L72.6982 46.1631L72.7002 46.174L72.7025 46.1849L74.2416 45.868ZM74.2048 47.2952L75.7398 47.6314L75.7418 47.6225L75.7436 47.6136L74.2048 47.2952ZM73.3025 49.2012L72.0364 48.2703L72.0348 48.2724L73.3025 49.2012ZM71.4149 50.5179L70.9351 49.0215L66.9924 50.2855L70.781 51.9558L71.4149 50.5179ZM72.5106 51.5951L71.0238 52.1038L71.0278 52.1156L71.0321 52.1274L72.5106 51.5951ZM72.4554 53.7129L70.9184 53.3857L70.9181 53.3868L72.4554 53.7129ZM72.262 54.6244L70.7248 54.2984L70.7235 54.3046L72.262 54.6244ZM72.4185 56.6593L73.9626 56.9514L74.1498 55.9617L73.3287 55.3783L72.4185 56.6593ZM72.3541 57V58.5714H73.6561L73.8981 57.2921L72.3541 57ZM69.2327 57L67.6665 57.1279L67.7843 58.5714H69.2327V57ZM66.1758 45.7852V44.2137H64.9027L64.6386 45.4591L66.1758 45.7852ZM65.4023 49.4314L63.8651 49.1053L63.4626 51.0028H65.4023V49.4314ZM70.0982 49.2104L69.4948 47.7594L69.4884 47.7621L70.0982 49.2104ZM71.2768 47.6819L72.8123 48.0163L72.815 48.0033L71.2768 47.6819ZM70.8072 46.0246L71.5979 44.6666L71.5933 44.6639L70.8072 46.0246ZM70.7671 56.2979C70.7716 56.0186 70.8033 55.7236 70.8657 55.4114L67.7839 54.7951C67.6867 55.2809 67.6324 55.7654 67.6246 56.2473L70.7671 56.2979ZM70.8665 55.4071L71.1152 54.1456L68.0316 53.5379L67.783 54.7994L70.8665 55.4071ZM71.1147 54.1479C71.2148 53.6437 71.2733 53.1357 71.2429 52.6598C71.2136 52.201 71.0905 51.5986 70.6596 51.0923L68.2662 53.1292C68.171 53.0174 68.1297 52.9168 68.114 52.8686C68.0991 52.8229 68.1035 52.8138 68.1064 52.86C68.1129 52.9611 68.1038 53.1744 68.0321 53.5357L71.1147 54.1479ZM70.6722 51.1073C70.2666 50.6185 69.7267 50.3863 69.2881 50.2686C68.8381 50.1477 68.3452 50.1066 67.8516 50.1066V53.2494C68.1928 53.2494 68.3858 53.2805 68.4729 53.3038C68.5123 53.3144 68.5022 53.3162 68.4625 53.2941C68.4208 53.2708 68.3384 53.2165 68.2536 53.1142L70.6722 51.1073ZM67.8516 50.1066H64.9235V53.2494H67.8516V50.1066ZM63.386 51.3535L62.2627 56.6755L65.3378 57.3245L66.4611 52.0025L63.386 51.3535ZM63.8002 55.4286H61.0287V58.5714H63.8002V55.4286ZM62.5659 57.3264L65.4479 43.7544L62.3736 43.1016L59.4916 56.6736L62.5659 57.3264ZM63.9107 44.9994H70.5678V41.8566H63.9107V44.9994ZM70.5372 44.9991C71.4176 45.0163 71.8608 45.1281 72.0282 45.2052L73.3429 42.3506C72.5773 41.998 71.6086 41.8766 70.5984 41.8569L70.5372 44.9991ZM72.0282 45.2052C72.2336 45.2998 72.3684 45.4212 72.4711 45.58L75.1098 43.8726C74.6723 43.1965 74.0705 42.6857 73.3429 42.3506L72.0282 45.2052ZM72.4686 45.576C72.5766 45.744 72.6546 45.935 72.6982 46.1631L75.7851 45.5729C75.6691 44.9662 75.4463 44.396 75.1123 43.8765L72.4686 45.576ZM72.7025 46.1849C72.735 46.343 72.7447 46.596 72.666 46.9768L75.7436 47.6136C75.8858 46.9263 75.9201 46.2279 75.7808 45.5511L72.7025 46.1849ZM72.6698 46.959C72.5833 47.3538 72.3894 47.7902 72.0364 48.2703L74.5685 50.1321C75.1363 49.3599 75.544 48.5256 75.7398 47.6314L72.6698 46.959ZM72.0348 48.2724C71.7961 48.5982 71.4561 48.8544 70.9351 49.0215L71.8947 52.0143C72.9819 51.6657 73.9003 51.0441 74.5701 50.1299L72.0348 48.2724ZM70.781 51.9558C70.9293 52.0212 70.9941 52.0756 71.0153 52.0965C71.0255 52.1065 71.0276 52.1106 71.0262 52.1084C71.0247 52.1061 71.0237 52.1036 71.0238 52.1038L73.9974 51.0865C73.66 50.1003 72.9077 49.4586 72.0488 49.08L70.781 51.9558ZM71.0321 52.1274C71.0264 52.1118 71.0564 52.1919 71.0502 52.4289C71.0442 52.6573 71.0065 52.9716 70.9184 53.3857L73.9923 54.0401C74.2063 53.0353 74.3119 51.9593 73.9891 51.0629L71.0321 52.1274ZM70.9181 53.3868L70.7248 54.2984L73.7992 54.9505L73.9926 54.039L70.9181 53.3868ZM70.7235 54.3046C70.5991 54.9029 70.4972 55.4782 70.4972 55.8859H73.6401C73.6401 55.8977 73.6412 55.8323 73.6703 55.6429C73.6968 55.4697 73.7393 55.2389 73.8005 54.9443L70.7235 54.3046ZM70.4972 55.8859C70.4972 56.6167 70.7659 57.4128 71.5083 57.9403L73.3287 55.3783C73.4363 55.4547 73.5301 55.5663 73.5879 55.694C73.6407 55.8107 73.6401 55.8889 73.6401 55.8859H70.4972ZM70.8745 56.3672L70.81 56.7079L73.8981 57.2921L73.9626 56.9514L70.8745 56.3672ZM72.3541 55.4286H69.2327V58.5714H72.3541V55.4286ZM70.7989 56.8721C70.776 56.5908 70.7673 56.3959 70.7673 56.2726H67.6244C67.6244 56.5176 67.6403 56.8077 67.6665 57.1279L70.7989 56.8721ZM69.4721 44.2137H66.1758V47.3566H69.4721V44.2137ZM64.6386 45.4591L63.8651 49.1053L66.9396 49.7574L67.713 46.1112L64.6386 45.4591ZM65.4023 51.0028H68.6158V47.8599H65.4023V51.0028ZM68.6158 51.0028C69.3401 51.0028 70.0769 50.9244 70.708 50.6587L69.4884 47.7621C69.4197 47.791 69.1682 47.8599 68.6158 47.8599V51.0028ZM70.7016 50.6614C71.8775 50.1724 72.5573 49.187 72.8122 48.0163L69.7413 47.3476C69.6648 47.6991 69.5589 47.7328 69.4948 47.7594L70.7016 50.6614ZM72.815 48.0033C72.9305 47.4504 72.9723 46.8295 72.8002 46.2223C72.6139 45.5646 72.2011 45.0178 71.5979 44.6666L70.0165 47.3825C69.9731 47.3573 69.9155 47.3123 69.8633 47.2444C69.8115 47.1771 69.7866 47.1151 69.7764 47.079C69.7673 47.0469 69.7733 47.0482 69.7728 47.0981C69.7722 47.1483 69.7651 47.2337 69.7386 47.3605L72.815 48.0033ZM71.5933 44.6639C70.9446 44.289 70.1499 44.2137 69.4721 44.2137V47.3566C69.7166 47.3566 69.8837 47.3729 69.9889 47.3918C70.101 47.4119 70.0913 47.4258 70.021 47.3852L71.5933 44.6639ZM74.435 52.9855L72.8986 52.6555L72.4901 54.5569H74.435V52.9855ZM74.969 50.4994V48.928H73.6993L73.4326 50.1694L74.969 50.4994ZM80.2542 50.4994L81.7906 50.8295L82.199 48.928H80.2542V50.4994ZM79.7201 52.9855V54.5569H80.9899L81.2565 53.3155L79.7201 52.9855ZM75.9714 53.3155L76.5054 50.8295L73.4326 50.1694L72.8986 52.6555L75.9714 53.3155ZM74.969 52.0709H80.2542V48.928H74.969V52.0709ZM78.7178 50.1694L78.1838 52.6555L81.2565 53.3155L81.7906 50.8295L78.7178 50.1694ZM79.7201 51.4141H74.435V54.5569H79.7201V51.4141ZM90.8429 43.428L92.3988 43.2074L92.2072 41.8566H90.8429V43.428ZM92.7673 57V58.5714H94.5773L94.3232 56.7794L92.7673 57ZM89.692 57L88.1287 57.1599L88.2731 58.5714H89.692V57ZM89.4065 54.2101L90.9698 54.0502L90.8254 52.6387H89.4065V54.2101ZM84.4068 54.2101V52.6387H83.4759L83.0287 53.4551L84.4068 54.2101ZM82.8783 57V58.5714H83.8092L84.2565 57.755L82.8783 57ZM79.9135 57L78.5478 56.2226L77.2109 58.5714H79.9135V57ZM87.6387 43.428V41.8566H86.725L86.273 42.6507L87.6387 43.428ZM88.5502 46.531L90.113 46.3666L89.5814 41.3114L87.1673 45.7847L88.5502 46.531ZM85.6683 51.8714L84.2853 51.1251L83.0346 53.4428H85.6683V51.8714ZM89.1119 51.8714V53.4428H90.8573L90.6747 51.707L89.1119 51.8714ZM89.287 43.6486L91.2114 57.2206L94.3232 56.7794L92.3988 43.2074L89.287 43.6486ZM92.7673 55.4286H89.692V58.5714H92.7673V55.4286ZM91.2552 56.8401L90.9698 54.0502L87.8433 54.37L88.1287 57.1599L91.2552 56.8401ZM89.4065 52.6387H84.4068V55.7815H89.4065V52.6387ZM83.0287 53.4551L81.5002 56.245L84.2565 57.755L85.785 54.9651L83.0287 53.4551ZM82.8783 55.4286H79.9135V58.5714H82.8783V55.4286ZM81.2792 57.7774L89.0044 44.2054L86.273 42.6507L78.5478 56.2226L81.2792 57.7774ZM87.6387 44.9994H90.8429V41.8566H87.6387V44.9994ZM87.1673 45.7847L84.2853 51.1251L87.0512 52.6177L89.9331 47.2773L87.1673 45.7847ZM85.6683 53.4428H89.1119V50.2999H85.6683V53.4428ZM90.6747 51.707L90.113 46.3666L86.9874 46.6953L87.5491 52.0357L90.6747 51.707Z" fill="#0089A7" mask="url(#path-124-outside-1_46_2948)"/>
<defs>
<filter id="filter0_f_46_2948" x="31.6596" y="15.7019" width="78.8439" height="72.3928" filterUnits="userSpaceOnUse" color-interpolation-filters="sRGB">
<feFlood flood-opacity="0" result="BackgroundImageFix"/>
<feBlend mode="normal" in="SourceGraphic" in2="BackgroundImageFix" result="shape"/>
<feGaussianBlur stdDeviation="7.12105" result="effect1_foregroundBlur_46_2948"/>
</filter>
<filter id="filter1_d_46_2948" x="-5.32971" y="-27.4465" width="152.528" height="152.528" filterUnits="userSpaceOnUse" color-interpolation-filters="sRGB">
<feFlood flood-opacity="0" result="BackgroundImageFix"/>
<feColorMatrix in="SourceAlpha" type="matrix" values="0 0 0 0 0 0 0 0 0 0 0 0 0 0 0 0 0 0 127 0" result="hardAlpha"/>
<feOffset/>
<feGaussianBlur stdDeviation="25"/>
<feComposite in2="hardAlpha" operator="out"/>
<feColorMatrix type="matrix" values="0 0 0 0 0.227451 0 0 0 0 0.909804 0 0 0 0 0.41851 0 0 0 0.6 0"/>
<feBlend mode="normal" in2="BackgroundImageFix" result="effect1_dropShadow_46_2948"/>
<feBlend mode="normal" in="SourceGraphic" in2="effect1_dropShadow_46_2948" result="shape"/>
</filter>
<clipPath id="paint2_diamond_46_2948_clip_path"><path d="M63.507 56.3516L60.744 46.9716L52.0453 44.6183C52.0453 44.6183 52.2494 57.7173 58.9025 65.3925L63.507 56.3516Z"/></clipPath><clipPath id="paint3_diamond_46_2948_clip_path"><path d="M60.744 46.9731C60.744 46.9731 65.6216 40.4926 71.3877 38.4965V27.2209C71.3877 27.2209 56.8209 36.9102 52.0453 44.6183L60.744 46.9716V46.9731Z"/></clipPath><clipPath id="paint6_diamond_46_2948_clip_path"><path d="M82.0298 46.9731C82.0298 46.9731 77.1522 40.4926 71.3861 38.4965V27.2209C71.3861 27.2209 85.9515 36.9087 90.7285 44.6183L82.0298 46.9716V46.9731Z"/></clipPath><clipPath id="paint7_diamond_46_2948_clip_path"><path d="M71.3864 38.4965V60.8811L63.5071 56.3531L60.7441 46.9731C60.7441 46.9731 64.0189 40.5601 71.3879 38.4965H71.3864Z"/></clipPath><clipPath id="paint8_diamond_46_2948_clip_path"><path d="M71.3861 38.4965V60.8811L79.2654 56.3531L82.0284 46.9731C82.0284 46.9731 78.7536 40.5601 71.3846 38.4965H71.3861Z"/></clipPath><filter id="filter2_f_46_2948" x="69.8398" y="49.8241" width="27.9095" height="27.9095" filterUnits="userSpaceOnUse" color-interpolation-filters="sRGB">
<feFlood flood-opacity="0" result="BackgroundImageFix"/>
<feBlend mode="normal" in="SourceGraphic" in2="BackgroundImageFix" result="shape"/>
<feGaussianBlur stdDeviation="5.5" result="effect1_foregroundBlur_46_2948"/>
</filter>
<filter id="filter3_f_46_2948" x="39.3734" y="29.8633" width="28.91" height="28.91" filterUnits="userSpaceOnUse" color-interpolation-filters="sRGB">
<feFlood flood-opacity="0" result="BackgroundImageFix"/>
<feBlend mode="normal" in="SourceGraphic" in2="BackgroundImageFix" result="shape"/>
<feGaussianBlur stdDeviation="5.5" result="effect1_foregroundBlur_46_2948"/>
</filter>
<filter id="filter4_f_46_2948" x="70.5902" y="24.9106" width="26.4188" height="26.4188" filterUnits="userSpaceOnUse" color-interpolation-filters="sRGB">
<feFlood flood-opacity="0" result="BackgroundImageFix"/>
<feBlend mode="normal" in="SourceGraphic" in2="BackgroundImageFix" result="shape"/>
<feGaussianBlur stdDeviation="5.5" result="effect1_foregroundBlur_46_2948"/>
</filter>
<filter id="filter5_f_46_2948" x="45.658" y="27.5482" width="49.0008" height="49.5076" filterUnits="userSpaceOnUse" color-interpolation-filters="sRGB">
<feFlood flood-opacity="0" result="BackgroundImageFix"/>
<feBlend mode="normal" in="SourceGraphic" in2="BackgroundImageFix" result="shape"/>
<feGaussianBlur stdDeviation="6.635" result="effect1_foregroundBlur_46_2948"/>
</filter>
<filter id="filter6_f_46_2948" x="53.7833" y="34.4267" width="13.1404" height="13.1461" filterUnits="userSpaceOnUse" color-interpolation-filters="sRGB">
<feFlood flood-opacity="0" result="BackgroundImageFix"/>
<feBlend mode="normal" in="SourceGraphic" in2="BackgroundImageFix" result="shape"/>
<feGaussianBlur stdDeviation="3" result="effect1_foregroundBlur_46_2948"/>
</filter>
<filter id="filter7_f_46_2948" x="79.0787" y="48.769" width="12.9679" height="12.9728" filterUnits="userSpaceOnUse" color-interpolation-filters="sRGB">
<feFlood flood-opacity="0" result="BackgroundImageFix"/>
<feBlend mode="normal" in="SourceGraphic" in2="BackgroundImageFix" result="shape"/>
<feGaussianBlur stdDeviation="3" result="effect1_foregroundBlur_46_2948"/>
</filter>
<filter id="filter8_f_46_2948" x="54.5812" y="52.6107" width="13.1154" height="13.1209" filterUnits="userSpaceOnUse" color-interpolation-filters="sRGB">
<feFlood flood-opacity="0" result="BackgroundImageFix"/>
<feBlend mode="normal" in="SourceGraphic" in2="BackgroundImageFix" result="shape"/>
<feGaussianBlur stdDeviation="3" result="effect1_foregroundBlur_46_2948"/>
</filter>
<filter id="filter9_f_46_2948" x="38.7224" y="16.9546" width="53.9302" height="55.073" filterUnits="userSpaceOnUse" color-interpolation-filters="sRGB">
<feFlood flood-opacity="0" result="BackgroundImageFix"/>
<feBlend mode="normal" in="SourceGraphic" in2="BackgroundImageFix" result="shape"/>
<feGaussianBlur stdDeviation="1.63368" result="effect1_foregroundBlur_46_2948"/>
</filter>
<linearGradient id="paint0_linear_46_2948" x1="44.7266" y1="45.7513" x2="100.341" y2="82.896" gradientUnits="userSpaceOnUse">
<stop stop-color="#B6FFEA"/>
<stop offset="1" stop-color="#31D17E"/>
</linearGradient>
<radialGradient id="paint1_radial_46_2948" cx="0" cy="0" r="1" gradientUnits="userSpaceOnUse" gradientTransform="translate(64.4808 56.922) rotate(63.435) scale(15.4372 12.9168)">
<stop stop-color="#006339"/>
<stop offset="0.414319" stop-color="#00BD79"/>
<stop offset="0.852751" stop-color="#00632E"/>
</radialGradient>
<linearGradient id="paint2_diamond_46_2948" x1="0" y1="0" x2="500" y2="500" gradientUnits="userSpaceOnUse">
<stop stop-color="#00FF93"/>
<stop offset="0.541667" stop-color="#469871"/>
<stop offset="1" stop-color="#006339"/>
</linearGradient>
<linearGradient id="paint3_diamond_46_2948" x1="0" y1="0" x2="500" y2="500" gradientUnits="userSpaceOnUse">
<stop stop-color="#006339"/>
<stop offset="0.473958" stop-color="#36D680"/>
<stop offset="1" stop-color="#22C778"/>
</linearGradient>
<radialGradient id="paint4_radial_46_2948" cx="0" cy="0" r="1" gradientUnits="userSpaceOnUse" gradientTransform="translate(83.8414 65.4766) rotate(-157.257) scale(16.1106 27.0715)">
<stop stop-color="#006339"/>
<stop offset="0.356211" stop-color="#27DD70"/>
<stop offset="0.763504" stop-color="#009C3E"/>
</radialGradient>
<radialGradient id="paint5_radial_46_2948" cx="0" cy="0" r="1" gradientUnits="userSpaceOnUse" gradientTransform="translate(83.3911 64.426) rotate(-70.7873) scale(20.9791 37.3706)">
<stop stop-color="#006339"/>
<stop offset="0.338542" stop-color="#35D59B"/>
<stop offset="1" stop-color="#009C64"/>
</radialGradient>
<linearGradient id="paint6_diamond_46_2948" x1="0" y1="0" x2="500" y2="500" gradientUnits="userSpaceOnUse">
<stop stop-color="#006339"/>
<stop offset="0.447917" stop-color="#27DD91"/>
<stop offset="1" stop-color="#009C3E"/>
</linearGradient>
<linearGradient id="paint7_diamond_46_2948" x1="0" y1="0" x2="500" y2="500" gradientUnits="userSpaceOnUse">
<stop stop-color="#006339"/>
<stop offset="0.666667" stop-color="#2EE095"/>
<stop offset="1" stop-color="#00B65F"/>
</linearGradient>
<linearGradient id="paint8_diamond_46_2948" x1="0" y1="0" x2="500" y2="500" gradientUnits="userSpaceOnUse">
<stop stop-color="#006339"/>
<stop offset="1" stop-color="#36E390"/>
</linearGradient>
<linearGradient id="paint9_linear_46_2948" x1="68.5331" y1="38.462" x2="75.4368" y2="56.3216" gradientUnits="userSpaceOnUse">
<stop stop-color="white" stop-opacity="0.4"/>
<stop offset="1" stop-color="white" stop-opacity="0"/>
</linearGradient>
<linearGradient id="paint10_linear_46_2948" x1="60.2786" y1="47.0166" x2="68.2329" y2="69.9039" gradientUnits="userSpaceOnUse">
<stop stop-color="white" stop-opacity="0.77"/>
<stop offset="0.642325" stop-color="white" stop-opacity="0"/>
</linearGradient>
<linearGradient id="paint11_linear_46_2948" x1="71.3846" y1="26.6806" x2="52.0242" y2="44.6153" gradientUnits="userSpaceOnUse">
<stop stop-color="#DADADA"/>
<stop offset="1" stop-color="white" stop-opacity="0"/>
</linearGradient>
<linearGradient id="paint12_linear_46_2948" x1="71.3846" y1="26.6806" x2="52.0242" y2="44.6153" gradientUnits="userSpaceOnUse">
<stop stop-color="#DADADA"/>
<stop offset="1" stop-color="white" stop-opacity="0"/>
</linearGradient>
<radialGradient id="paint13_radial_46_2948" cx="0" cy="0" r="1" gradientUnits="userSpaceOnUse" gradientTransform="translate(77.6287 68.0265) rotate(90) scale(2.63242 6.24261)">
<stop stop-color="white"/>
<stop offset="1" stop-color="white" stop-opacity="0"/>
</radialGradient>
<radialGradient id="paint14_radial_46_2948" cx="0" cy="0" r="1" gradientUnits="userSpaceOnUse" gradientTransform="translate(76.708 42.7062) rotate(90) scale(4.2669 5.32187)">
<stop stop-color="white"/>
<stop offset="1" stop-color="white" stop-opacity="0"/>
</radialGradient>
<radialGradient id="paint15_radial_46_2948" cx="0" cy="0" r="1" gradientUnits="userSpaceOnUse" gradientTransform="translate(56.3946 45.6789) rotate(90.5567) scale(1.8631 6.26111)">
<stop stop-color="white"/>
<stop offset="1" stop-color="white" stop-opacity="0"/>
</radialGradient>
</defs>
</svg>
