<svg width="73" height="74" viewBox="0 0 73 74" fill="none" xmlns="http://www.w3.org/2000/svg">
<g filter="url(#filter0_f_46_2945)">
<path fill-rule="evenodd" clip-rule="evenodd" d="M42.0853 18.7401C46.1387 18.6228 50.6721 17.4957 53.9937 19.8225C57.3184 22.1515 57.7164 26.8371 59.0969 30.6569C60.5196 34.5932 64.1342 38.8717 62.2253 42.5975C60.1527 46.6428 54.1753 46.2839 50.0816 48.2533C47.5982 49.4481 44.9348 50.1442 42.8324 51.9271C38.9785 55.1954 37.7606 62.0996 32.7781 62.9276C28.4109 63.6533 24.1079 59.3321 22.1352 55.3665C20.204 51.4846 24.451 46.5358 22.6595 42.5874C20.4942 37.815 12.6315 37.0283 11.4933 31.9119C10.4416 27.1843 13.139 21.218 17.3906 18.9025C21.9311 16.4297 27.3846 20.4767 32.5528 20.4427C35.8362 20.4211 38.8032 18.835 42.0853 18.7401Z" fill="url(#paint0_linear_46_2945)"/>
</g>
<g filter="url(#filter1_d_46_2945)">
<path d="M34.9982 55.9805L24.0214 51.3511L28.0701 43.4002L34.9982 47.3829V55.9805Z" fill="url(#paint1_radial_46_2945)"/>
<g clip-path="url(#paint2_diamond_46_2945_clip_path)" data-figma-skip-parse="true"><g transform="matrix(0.00197948 0.0182772 -0.0200629 0.00217288 22.1963 32.2227)"><rect x="0" y="0" width="1087.99" height="326.696" fill="url(#paint2_diamond_46_2945)" opacity="1" shape-rendering="crispEdges"/><rect x="0" y="0" width="1087.99" height="326.696" transform="scale(1 -1)" fill="url(#paint2_diamond_46_2945)" opacity="1" shape-rendering="crispEdges"/><rect x="0" y="0" width="1087.99" height="326.696" transform="scale(-1 1)" fill="url(#paint2_diamond_46_2945)" opacity="1" shape-rendering="crispEdges"/><rect x="0" y="0" width="1087.99" height="326.696" transform="scale(-1)" fill="url(#paint2_diamond_46_2945)" opacity="1" shape-rendering="crispEdges"/></g></g><path d="M28.0701 43.4002L25.6407 35.1523L17.9919 33.0831C17.9919 33.0831 18.1714 44.6011 24.0214 51.3498L28.0701 43.4002Z" data-figma-gradient-fill="{&#34;type&#34;:&#34;GRADIENT_DIAMOND&#34;,&#34;stops&#34;:[{&#34;color&#34;:{&#34;r&#34;:0.93607842922210693,&#34;g&#34;:1.0,&#34;b&#34;:0.36078432202339172,&#34;a&#34;:1.0},&#34;position&#34;:0.0},{&#34;color&#34;:{&#34;r&#34;:0.56528496742248535,&#34;g&#34;:0.59773856401443481,&#34;b&#34;:0.27320262789726257,&#34;a&#34;:1.0},&#34;position&#34;:0.54166668653488159},{&#34;color&#34;:{&#34;r&#34;:0.34941178560256958,&#34;g&#34;:0.38823530077934265,&#34;b&#34;:0.0,&#34;a&#34;:1.0},&#34;position&#34;:1.0}],&#34;stopsVar&#34;:[],&#34;transform&#34;:{&#34;m00&#34;:3.9589602947235107,&#34;m01&#34;:-40.125839233398438,&#34;m02&#34;:40.279716491699219,&#34;m10&#34;:36.554401397705078,&#34;m11&#34;:4.3457579612731934,&#34;m12&#34;:11.772632598876953},&#34;opacity&#34;:1.0,&#34;blendMode&#34;:&#34;NORMAL&#34;,&#34;visible&#34;:true}"/>
<g clip-path="url(#paint3_diamond_46_2945_clip_path)" data-figma-skip-parse="true"><g transform="matrix(-0.018937 0.0168916 -0.00788994 -0.0348292 36.9104 15.991)"><rect x="0" y="0" width="1039.07" height="431.49" fill="url(#paint3_diamond_46_2945)" opacity="1" shape-rendering="crispEdges"/><rect x="0" y="0" width="1039.07" height="431.49" transform="scale(1 -1)" fill="url(#paint3_diamond_46_2945)" opacity="1" shape-rendering="crispEdges"/><rect x="0" y="0" width="1039.07" height="431.49" transform="scale(-1 1)" fill="url(#paint3_diamond_46_2945)" opacity="1" shape-rendering="crispEdges"/><rect x="0" y="0" width="1039.07" height="431.49" transform="scale(-1)" fill="url(#paint3_diamond_46_2945)" opacity="1" shape-rendering="crispEdges"/></g></g><path d="M25.6407 35.1537C25.6407 35.1537 29.9295 29.4554 34.9996 27.7003V17.7857C34.9996 17.7857 22.1911 26.3054 17.9919 33.0831L25.6407 35.1523V35.1537Z" data-figma-gradient-fill="{&#34;type&#34;:&#34;GRADIENT_DIAMOND&#34;,&#34;stops&#34;:[{&#34;color&#34;:{&#34;r&#34;:0.93607842922210693,&#34;g&#34;:1.0,&#34;b&#34;:0.36078432202339172,&#34;a&#34;:1.0},&#34;position&#34;:0.0},{&#34;color&#34;:{&#34;r&#34;:0.77647060155868530,&#34;g&#34;:0.83921569585800171,&#34;b&#34;:0.21176470816135406,&#34;a&#34;:1.0},&#34;position&#34;:0.47395834326744080},{&#34;color&#34;:{&#34;r&#34;:0.71568626165390015,&#34;g&#34;:0.78039216995239258,&#34;b&#34;:0.13333334028720856,&#34;a&#34;:1.0},&#34;position&#34;:1.0}],&#34;stopsVar&#34;:[],&#34;transform&#34;:{&#34;m00&#34;:-37.874053955078125,&#34;m01&#34;:-15.779880523681641,&#34;m02&#34;:63.737377166748047,&#34;m10&#34;:33.783130645751953,&#34;m11&#34;:-69.658477783203125,&#34;m12&#34;:33.928634643554688},&#34;opacity&#34;:1.0,&#34;blendMode&#34;:&#34;NORMAL&#34;,&#34;visible&#34;:true}"/>
<path d="M34.9982 55.9805L45.9764 51.3511L41.9277 43.4002L34.9982 47.3829V55.9805Z" fill="url(#paint4_radial_46_2945)"/>
<path d="M41.928 43.4002L44.3575 35.1523L52.0062 33.0831C52.0062 33.0831 51.8267 44.6011 45.9767 51.3498L41.928 43.4002Z" fill="url(#paint5_radial_46_2945)"/>
<g clip-path="url(#paint6_diamond_46_2945_clip_path)" data-figma-skip-parse="true"><g transform="matrix(-0.0181452 -0.015308 0.0335724 -0.0307188 53.1421 33.3444)"><rect x="0" y="0" width="1027.07" height="299.915" fill="url(#paint6_diamond_46_2945)" opacity="1" shape-rendering="crispEdges"/><rect x="0" y="0" width="1027.07" height="299.915" transform="scale(1 -1)" fill="url(#paint6_diamond_46_2945)" opacity="1" shape-rendering="crispEdges"/><rect x="0" y="0" width="1027.07" height="299.915" transform="scale(-1 1)" fill="url(#paint6_diamond_46_2945)" opacity="1" shape-rendering="crispEdges"/><rect x="0" y="0" width="1027.07" height="299.915" transform="scale(-1)" fill="url(#paint6_diamond_46_2945)" opacity="1" shape-rendering="crispEdges"/></g></g><path d="M44.3572 35.1537C44.3572 35.1537 40.0683 29.4554 34.9982 27.7003V17.7857C34.9982 17.7857 47.8054 26.3041 52.0059 33.0831L44.3572 35.1523V35.1537Z" data-figma-gradient-fill="{&#34;type&#34;:&#34;GRADIENT_DIAMOND&#34;,&#34;stops&#34;:[{&#34;color&#34;:{&#34;r&#34;:0.93607842922210693,&#34;g&#34;:1.0,&#34;b&#34;:0.36078432202339172,&#34;a&#34;:1.0},&#34;position&#34;:0.0},{&#34;color&#34;:{&#34;r&#34;:0.79529410600662231,&#34;g&#34;:0.86666667461395264,&#34;b&#34;:0.15294118225574493,&#34;a&#34;:1.0},&#34;position&#34;:0.44791665673255920},{&#34;color&#34;:{&#34;r&#34;:0.55058825016021729,&#34;g&#34;:0.61176472902297974,&#34;b&#34;:0.0,&#34;a&#34;:1.0},&#34;position&#34;:1.0}],&#34;stopsVar&#34;:[],&#34;transform&#34;:{&#34;m00&#34;:-36.290481567382812,&#34;m01&#34;:67.144874572753906,&#34;m02&#34;:37.714920043945312,&#34;m10&#34;:-30.615964889526367,&#34;m11&#34;:-61.437679290771484,&#34;m12&#34;:79.371231079101562},&#34;opacity&#34;:1.0,&#34;blendMode&#34;:&#34;NORMAL&#34;,&#34;visible&#34;:true}"/>
<g clip-path="url(#paint7_diamond_46_2945_clip_path)" data-figma-skip-parse="true"><g transform="matrix(0.00263931 0.0182112 -0.0230459 0.00333998 32.3576 29.1215)"><rect x="0" y="0" width="1022.47" height="413.543" fill="url(#paint7_diamond_46_2945)" opacity="1" shape-rendering="crispEdges"/><rect x="0" y="0" width="1022.47" height="413.543" transform="scale(1 -1)" fill="url(#paint7_diamond_46_2945)" opacity="1" shape-rendering="crispEdges"/><rect x="0" y="0" width="1022.47" height="413.543" transform="scale(-1 1)" fill="url(#paint7_diamond_46_2945)" opacity="1" shape-rendering="crispEdges"/><rect x="0" y="0" width="1022.47" height="413.543" transform="scale(-1)" fill="url(#paint7_diamond_46_2945)" opacity="1" shape-rendering="crispEdges"/></g></g><path d="M34.9984 27.7003V47.3829L28.0702 43.4015L25.6407 35.1537C25.6407 35.1537 28.5202 29.5148 34.9997 27.7003H34.9984Z" data-figma-gradient-fill="{&#34;type&#34;:&#34;GRADIENT_DIAMOND&#34;,&#34;stops&#34;:[{&#34;color&#34;:{&#34;r&#34;:0.93607842922210693,&#34;g&#34;:1.0,&#34;b&#34;:0.36078432202339172,&#34;a&#34;:1.0},&#34;position&#34;:0.0},{&#34;color&#34;:{&#34;r&#34;:0.80862748622894287,&#34;g&#34;:0.87843137979507446,&#34;b&#34;:0.18039216101169586,&#34;a&#34;:1.0},&#34;position&#34;:0.66666668653488159},{&#34;color&#34;:{&#34;r&#34;:0.64235293865203857,&#34;g&#34;:0.71372550725936890,&#34;b&#34;:0.0,&#34;a&#34;:1.0},&#34;position&#34;:1.0}],&#34;stopsVar&#34;:[],&#34;transform&#34;:{&#34;m00&#34;:5.2786140441894531,&#34;m01&#34;:-46.091793060302734,&#34;m02&#34;:52.764167785644531,&#34;m10&#34;:36.422439575195312,&#34;m11&#34;:6.6799688339233398,&#34;m12&#34;:7.5703215599060059},&#34;opacity&#34;:1.0,&#34;blendMode&#34;:&#34;NORMAL&#34;,&#34;visible&#34;:true}"/>
<g clip-path="url(#paint8_diamond_46_2945_clip_path)" data-figma-skip-parse="true"><g transform="matrix(0.00323315 0.00706015 -0.00789014 0.00361324 36.3826 37.5673)"><rect x="0" y="0" width="1631.54" height="1357.76" fill="url(#paint8_diamond_46_2945)" opacity="1" shape-rendering="crispEdges"/><rect x="0" y="0" width="1631.54" height="1357.76" transform="scale(1 -1)" fill="url(#paint8_diamond_46_2945)" opacity="1" shape-rendering="crispEdges"/><rect x="0" y="0" width="1631.54" height="1357.76" transform="scale(-1 1)" fill="url(#paint8_diamond_46_2945)" opacity="1" shape-rendering="crispEdges"/><rect x="0" y="0" width="1631.54" height="1357.76" transform="scale(-1)" fill="url(#paint8_diamond_46_2945)" opacity="1" shape-rendering="crispEdges"/></g></g><path d="M34.9983 27.7003V47.3829L41.9264 43.4015L44.3559 35.1537C44.3559 35.1537 41.4764 29.5148 34.9969 27.7003H34.9983Z" data-figma-gradient-fill="{&#34;type&#34;:&#34;GRADIENT_DIAMOND&#34;,&#34;stops&#34;:[{&#34;color&#34;:{&#34;r&#34;:0.93607842922210693,&#34;g&#34;:1.0,&#34;b&#34;:0.36078432202339172,&#34;a&#34;:1.0},&#34;position&#34;:0.0},{&#34;color&#34;:{&#34;r&#34;:0.82235294580459595,&#34;g&#34;:0.89019608497619629,&#34;b&#34;:0.21176470816135406,&#34;a&#34;:1.0},&#34;position&#34;:1.0}],&#34;stopsVar&#34;:[],&#34;transform&#34;:{&#34;m00&#34;:6.4663043022155762,&#34;m01&#34;:-15.780280113220215,&#34;m02&#34;:41.039569854736328,&#34;m10&#34;:14.120293617248535,&#34;m11&#34;:7.2264842987060547,&#34;m12&#34;:26.893918991088867},&#34;opacity&#34;:1.0,&#34;blendMode&#34;:&#34;NORMAL&#34;,&#34;visible&#34;:true}"/>
<g style="mix-blend-mode:soft-light">
<path d="M25.6407 35.1537C25.6407 35.1537 32.5689 42.0198 41.9279 43.4015L43.2489 38.9186C43.2489 38.9186 36.7997 34.0148 34.9997 27.7003C34.006 27.9813 32.8527 28.4129 31.6478 29.0912C28.346 30.9506 26.5183 33.6176 25.6407 35.1537Z" fill="white"/>
</g>
<path d="M25.6407 35.1537C25.6407 35.1537 32.5689 42.0198 41.9279 43.4015L43.2489 38.9186C43.2489 38.9186 36.7997 34.0148 34.9997 27.7003C34.006 27.9813 32.8527 28.4129 31.6478 29.0912C28.346 30.9506 26.5183 33.6176 25.6407 35.1537Z" fill="url(#paint9_linear_46_2945)"/>
<g style="mix-blend-mode:soft-light">
<path d="M27.3878 41.0869C27.3878 41.0869 34.9217 44.836 39.8942 44.5694L38.0743 45.6146C38.0743 45.6146 34.6987 46.2718 30.9337 45.0471L28.0687 43.4015L27.3865 41.0869H27.3878Z" fill="white"/>
</g>
<g style="mix-blend-mode:soft-light">
<path d="M41.3274 34.1032C41.3274 34.1032 43.7872 31.3914 45.9765 26.3292C45.9765 26.3292 50.4462 30.205 52.006 33.0845C52.006 33.0845 51.8358 38.9873 50.3881 42.8275C50.3881 42.8275 51.1667 39.7434 41.3274 34.1046V34.1032Z" fill="white"/>
</g>
<path opacity="0.3" d="M41.3274 34.1032C41.3274 34.1032 43.7872 31.3914 45.9765 26.3292C45.9765 26.3292 50.4462 30.205 52.006 33.0845C52.006 33.0845 51.8358 38.9873 50.3881 42.8275C50.3881 42.8275 51.1667 39.7434 41.3274 34.1046V34.1032Z" fill="white"/>
<g style="mix-blend-mode:soft-light" opacity="0.5">
<path d="M34.9983 55.9805C34.9983 55.9805 24.441 46.4143 25.6393 35.1537C25.6393 35.1537 22.2504 40.4033 24.0201 51.3511L34.9983 55.9805Z" fill="white"/>
</g>
<path d="M34.9983 55.9805C34.9983 55.9805 24.441 46.4143 25.6393 35.1537C25.6393 35.1537 22.2504 40.4033 24.0201 51.3511L34.9983 55.9805Z" fill="url(#paint10_linear_46_2945)"/>
<g style="mix-blend-mode:soft-light">
<path d="M17.9919 33.0831C17.9919 33.0831 30.972 19.62 32.6295 22.1049C32.6295 22.1049 34.13 23.1554 34.9996 27.6989V17.7857C34.9996 17.7857 22.5513 25.8844 17.9919 33.0831Z" fill="url(#paint11_linear_46_2945)"/>
</g>
<path opacity="0.8" d="M17.9919 33.0831C17.9919 33.0831 31.1039 19.554 32.6295 22.1049C32.6295 22.1049 34.13 23.1554 34.9996 27.6989V17.7857C34.9996 17.7857 22.5513 25.8844 17.9919 33.0831Z" fill="url(#paint12_linear_46_2945)"/>
<g style="mix-blend-mode:soft-light">
<path d="M41.928 43.4002L45.9767 49.1011C45.9767 49.1011 51.1062 43.7024 52.0062 33.0831C51.9362 35.7224 51.5958 37.9632 51.2263 39.7118C50.7974 41.7387 50.3025 43.2194 50.1164 43.7604C49.5688 45.3493 48.8403 47.4146 47.2673 49.6844C46.7658 50.4075 46.3026 50.9724 45.978 51.3498C44.628 48.6999 43.278 46.05 41.9293 43.4002H41.928Z" fill="white"/>
</g>
<path opacity="0.7" d="M41.928 43.4002L45.9767 49.1011C45.9767 49.1011 51.1062 43.7024 52.0062 33.0831C51.9362 35.7224 51.5958 37.9632 51.2263 39.7118C50.7974 41.7387 50.3025 43.2194 50.1164 43.7604C49.5688 45.3493 48.8403 47.4146 47.2673 49.6844C46.7658 50.4075 46.3026 50.9724 45.978 51.3498C44.628 48.6999 43.278 46.05 41.9293 43.4002H41.928Z" fill="white"/>
<g style="mix-blend-mode:soft-light">
<path d="M45.9764 51.3511L34.9982 55.9805C34.9982 55.9805 39.0469 52.1007 45.9764 51.3511Z" fill="white"/>
</g>
<path d="M45.9764 51.3511L34.9982 55.9805C34.9982 55.9805 39.0469 52.1007 45.9764 51.3511Z" fill="url(#paint13_radial_46_2945)"/>
<g style="mix-blend-mode:soft-light">
<path d="M34.9982 27.7003C34.9982 27.7003 40.6067 28.7045 44.3572 35.1537C44.3572 35.1537 42.5875 26.9349 34.9982 27.7003Z" fill="white"/>
</g>
<path d="M34.9982 27.7003C34.9982 27.7003 40.6067 28.7045 44.3572 35.1537C44.3572 35.1537 42.5875 26.9349 34.9982 27.7003Z" fill="url(#paint14_radial_46_2945)"/>
<g style="mix-blend-mode:soft-light">
<path d="M25.6407 35.1537L17.9919 33.0845C17.9919 33.0845 21.5524 31.9113 25.6407 35.1537Z" fill="white"/>
</g>
<path d="M25.6407 35.1537L17.9919 33.0845C17.9919 33.0845 21.5524 31.9113 25.6407 35.1537Z" fill="url(#paint15_radial_46_2945)"/>
<path d="M45.9089 47.3327L46.3498 49.4899L48.507 49.9308L46.3498 50.3717L45.9089 52.5289L45.468 50.3717L43.3108 49.9308L45.468 49.4899L45.9089 47.3327Z" fill="white"/>
<g filter="url(#filter2_f_46_2945)">
<path d="M45.9089 47.3327L46.3498 49.4899L48.507 49.9308L46.3498 50.3717L45.9089 52.5289L45.468 50.3717L43.3108 49.9308L45.468 49.4899L45.9089 47.3327Z" fill="white"/>
</g>
<path d="M19.5598 29.7813L20.0754 32.3037L22.5978 32.8193L20.0754 33.3349L19.5598 35.8573L19.0443 33.3349L16.5219 32.8193L19.0443 32.3037L19.5598 29.7813Z" fill="white"/>
<g filter="url(#filter3_f_46_2945)">
<path d="M19.5598 29.7813L20.0754 32.3037L22.5978 32.8193L20.0754 33.3349L19.5598 35.8573L19.0443 33.3349L16.5219 32.8193L19.0443 32.3037L19.5598 29.7813Z" fill="white"/>
</g>
<path d="M45.9134 25.4265L46.2431 27.0395L47.8561 27.3692L46.2431 27.6989L45.9134 29.3119L45.5837 27.6989L43.9707 27.3692L45.5837 27.0395L45.9134 25.4265Z" fill="white"/>
<g filter="url(#filter4_f_46_2945)">
<path d="M45.9134 25.4265L46.2431 27.0395L47.8561 27.3692L46.2431 27.6989L45.9134 29.3119L45.5837 27.6989L43.9707 27.3692L45.5837 27.0395L45.9134 25.4265Z" fill="white"/>
</g>
<g style="mix-blend-mode:overlay" filter="url(#filter5_f_46_2945)">
<g style="mix-blend-mode:lighten">
<path d="M29.8529 29.9543C29.8319 29.8614 29.8904 29.767 29.9834 29.746C30.0764 29.725 30.1709 29.7834 30.1919 29.8764C30.2128 29.9693 30.1544 30.0638 30.0614 30.0847C29.9684 30.1057 29.8739 30.0473 29.8529 29.9543Z" fill="#FFFBFC"/>
</g>
<g style="mix-blend-mode:lighten">
<path d="M43.2707 41.8021C43.2377 41.6596 43.3277 41.5172 43.4702 41.4858C43.6127 41.4528 43.7552 41.5427 43.7867 41.6851C43.8197 41.8275 43.7297 41.9699 43.5872 42.0014C43.4447 42.0344 43.3022 41.9445 43.2707 41.8021Z" fill="#FFFBFC"/>
</g>
<g style="mix-blend-mode:lighten">
<path d="M26.7575 32.2778C26.723 32.1234 26.819 31.969 26.9735 31.9345C27.1279 31.9 27.2824 31.996 27.3169 32.1504C27.3514 32.3048 27.2554 32.4592 27.101 32.4936C26.9465 32.5281 26.792 32.4322 26.7575 32.2778Z" fill="#FFFBFC"/>
</g>
<g style="mix-blend-mode:lighten">
<path d="M30.6327 33.9431C30.7602 34.102 30.7362 34.3344 30.5773 34.4633C30.4183 34.5907 30.1858 34.5667 30.0568 34.4078C29.9294 34.2489 29.9534 34.0166 30.1123 33.8877C30.2713 33.7602 30.5038 33.7842 30.6327 33.9431Z" fill="#FFFBFC"/>
</g>
<g style="mix-blend-mode:lighten">
<path d="M31.9691 33.5444C32.0771 33.6793 32.0561 33.8757 31.9211 33.9836C31.7861 34.0915 31.5896 34.0705 31.4817 33.9356C31.3737 33.8007 31.3947 33.6043 31.5297 33.4964C31.6646 33.3885 31.8611 33.4095 31.9691 33.5444Z" fill="#FFFBFC"/>
</g>
<g style="mix-blend-mode:lighten">
<path d="M32.0186 31.5853C32.0726 31.6528 32.0621 31.7532 31.9946 31.8072C31.9271 31.8611 31.8266 31.8506 31.7726 31.7832C31.7186 31.7157 31.7291 31.6153 31.7966 31.5613C31.8641 31.5073 31.9646 31.5178 32.0186 31.5853Z" fill="#FFFBFC"/>
</g>
<g style="mix-blend-mode:lighten">
<path d="M35.8598 36.2245C35.8373 36.133 35.8943 36.0401 35.9858 36.0176C36.0772 35.9951 36.1702 36.0521 36.1927 36.1435C36.2152 36.235 36.1582 36.3279 36.0667 36.3504C35.9753 36.3729 35.8823 36.3159 35.8598 36.2245Z" fill="#FFFBFC"/>
</g>
<g style="mix-blend-mode:lighten">
<path d="M33.016 33.3855C32.9905 33.2791 33.0565 33.1712 33.163 33.1457C33.2694 33.1202 33.3774 33.1861 33.4029 33.2926C33.4284 33.399 33.3624 33.5069 33.2559 33.5324C33.1495 33.5579 33.0415 33.4919 33.016 33.3855Z" fill="#FFFBFC"/>
</g>
<g style="mix-blend-mode:lighten">
<path d="M24.0542 41.19C24.0062 40.9922 24.1292 40.7928 24.3272 40.7448C24.5251 40.6968 24.7246 40.8198 24.7726 41.0176C24.8206 41.2155 24.6976 41.4149 24.4996 41.4629C24.3017 41.5108 24.1022 41.3879 24.0542 41.19Z" fill="#FFFBFC"/>
</g>
<g style="mix-blend-mode:lighten">
<path d="M40.0241 49.4275C40.1635 49.4021 40.2985 49.4935 40.324 49.6329C40.3495 49.7723 40.258 49.9072 40.1185 49.9327C39.9791 49.9582 39.8441 49.8668 39.8186 49.7273C39.7931 49.5879 39.8846 49.453 40.0241 49.4275Z" fill="#FFFBFC"/>
</g>
<g style="mix-blend-mode:lighten">
<path d="M32.3292 49.5396C32.4192 49.5231 32.5047 49.5816 32.5212 49.6715C32.5377 49.7614 32.4792 49.8469 32.3892 49.8634C32.2992 49.8799 32.2137 49.8214 32.1972 49.7315C32.1807 49.6415 32.2392 49.5561 32.3292 49.5396Z" fill="#FFFBFC"/>
</g>
<g style="mix-blend-mode:lighten">
<path d="M32.6786 47.6029C32.8706 47.5669 33.0535 47.6928 33.0895 47.8847C33.1255 48.0766 32.9996 48.2594 32.8076 48.2954C32.6156 48.3314 32.4326 48.2055 32.3966 48.0136C32.3606 47.8217 32.4866 47.6389 32.6786 47.6029Z" fill="#FFFBFC"/>
</g>
<g style="mix-blend-mode:lighten">
<path d="M31.4472 46.6046C31.6302 46.5701 31.8071 46.6916 31.8416 46.8744C31.8761 47.0573 31.7547 47.2342 31.5717 47.2687C31.3887 47.3032 31.2117 47.1817 31.1772 46.9989C31.1427 46.816 31.2642 46.6391 31.4472 46.6046Z" fill="#FFFBFC"/>
</g>
<g style="mix-blend-mode:lighten">
<path d="M31.7037 45.356C31.8582 45.3275 32.0081 45.4294 32.0366 45.5838C32.0651 45.7382 31.9631 45.8881 31.8087 45.9166C31.6542 45.9451 31.5042 45.8432 31.4757 45.6888C31.4472 45.5344 31.5492 45.3844 31.7037 45.356Z" fill="#FFFBFC"/>
</g>
<g style="mix-blend-mode:lighten">
<path d="M30.1454 44.4702C30.2234 44.4552 30.2999 44.5077 30.3134 44.5856C30.3284 44.6636 30.2759 44.74 30.1979 44.7535C30.1199 44.7685 30.0434 44.7161 30.0299 44.6381C30.0149 44.5602 30.0674 44.4837 30.1454 44.4702Z" fill="#FFFBFC"/>
</g>
<g style="mix-blend-mode:lighten">
<path d="M36.617 33.4049C36.7235 33.5383 36.7025 33.7317 36.5705 33.8381C36.437 33.9445 36.2435 33.9235 36.1371 33.7916C36.0306 33.6582 36.0516 33.4648 36.1835 33.3584C36.317 33.252 36.5105 33.273 36.617 33.4049Z" fill="#FFFBFC"/>
</g>
<path d="M39.0407 30.3201C39.0992 30.3921 39.0872 30.497 39.0152 30.5554C38.9432 30.6139 38.8382 30.6019 38.7797 30.53C38.7213 30.458 38.7332 30.3531 38.8052 30.2946C38.8772 30.2362 38.9822 30.2481 39.0407 30.3201Z" fill="#FFFBFC"/>
</g>
<g style="mix-blend-mode:lighten">
<path d="M43.2709 41.8015C43.2379 41.6591 43.3278 41.5167 43.4703 41.4852C43.6128 41.4522 43.7553 41.5422 43.7868 41.6846C43.8198 41.827 43.7298 41.9694 43.5873 42.0009C43.4448 42.0339 43.3024 41.9439 43.2709 41.8015Z" fill="#FFFBFC"/>
</g>
<g style="mix-blend-mode:lighten">
<path d="M26.7581 32.2771C26.7236 32.1227 26.8196 31.9683 26.9741 31.9338C27.1286 31.8994 27.283 31.9953 27.3175 32.1497C27.352 32.3041 27.256 32.4585 27.1016 32.493C26.9471 32.5274 26.7926 32.4315 26.7581 32.2771Z" fill="#FFFBFC"/>
</g>
<g style="mix-blend-mode:lighten">
<path d="M30.6329 33.9437C30.7604 34.1026 30.7364 34.335 30.5774 34.4639C30.4184 34.5913 30.1859 34.5673 30.057 34.4084C29.9295 34.2495 29.9535 34.0172 30.1124 33.8883C30.2714 33.7609 30.5039 33.7848 30.6329 33.9437Z" fill="#FFFBFC"/>
</g>
<g style="mix-blend-mode:lighten">
<path d="M33.6396 35.6687C33.7476 35.8036 33.7266 36 33.5916 36.1079C33.4567 36.2158 33.2602 36.1949 33.1522 36.0599C33.0442 35.925 33.0652 35.7287 33.2002 35.6207C33.3352 35.5128 33.5316 35.5338 33.6396 35.6687Z" fill="#FFFBFC"/>
</g>
<g style="mix-blend-mode:lighten">
<path d="M32.0186 31.5847C32.0726 31.6521 32.0621 31.7526 31.9946 31.8065C31.9271 31.8605 31.8266 31.85 31.7726 31.7826C31.7186 31.7151 31.7291 31.6147 31.7966 31.5607C31.8641 31.5067 31.9646 31.5172 32.0186 31.5847Z" fill="#FFFBFC"/>
</g>
<g style="mix-blend-mode:lighten">
<path d="M35.8593 36.225C35.8368 36.1336 35.8938 36.0406 35.9853 36.0182C36.0767 35.9957 36.1697 36.0526 36.1922 36.1441C36.2147 36.2355 36.1577 36.3285 36.0663 36.3509C35.9748 36.3734 35.8818 36.3165 35.8593 36.225Z" fill="#FFFBFC"/>
</g>
<g style="mix-blend-mode:lighten">
<path d="M33.0166 33.3852C32.9911 33.2788 33.0571 33.1708 33.1636 33.1454C33.27 33.1199 33.378 33.1858 33.4035 33.2923C33.429 33.3987 33.363 33.5066 33.2565 33.5321C33.1501 33.5576 33.0421 33.4916 33.0166 33.3852Z" fill="#FFFBFC"/>
</g>
<g style="mix-blend-mode:lighten">
<path d="M31.045 36.0782C31.009 35.9268 31.102 35.7754 31.2534 35.7379C31.4049 35.7019 31.5564 35.7949 31.5939 35.9463C31.6299 36.0977 31.5369 36.2491 31.3854 36.2865C31.2339 36.3225 31.0825 36.2296 31.045 36.0782Z" fill="#FFFBFC"/>
</g>
<g style="mix-blend-mode:lighten">
<path d="M30.0981 38.2176C30.0741 38.1201 30.1341 38.0242 30.2315 38.0002C30.329 37.9762 30.425 38.0362 30.449 38.1336C30.473 38.2311 30.413 38.327 30.3155 38.351C30.218 38.375 30.1221 38.315 30.0981 38.2176Z" fill="#FFFBFC"/>
</g>
<g style="mix-blend-mode:lighten">
<path d="M25.0573 35.4153C25.0078 35.2084 25.1353 35.0001 25.3423 34.9506C25.5492 34.9011 25.7577 35.0285 25.8072 35.2354C25.8567 35.4423 25.7292 35.6506 25.5222 35.7001C25.3153 35.7496 25.1068 35.6222 25.0573 35.4153Z" fill="#FFFBFC"/>
</g>
<g style="mix-blend-mode:lighten">
<path d="M25.0579 35.4161C25.0084 35.2092 25.1359 35.0009 25.3429 34.9514C25.5498 34.9019 25.7583 35.0293 25.8078 35.2362C25.8573 35.4431 25.7298 35.6514 25.5228 35.7009C25.3159 35.7504 25.1074 35.623 25.0579 35.4161Z" fill="#FFFBFC"/>
</g>
<g style="mix-blend-mode:lighten">
<path d="M24.0542 41.19C24.0062 40.9922 24.1292 40.7928 24.3272 40.7448C24.5251 40.6968 24.7246 40.8198 24.7726 41.0176C24.8206 41.2155 24.6976 41.4149 24.4996 41.4629C24.3017 41.5108 24.1022 41.3879 24.0542 41.19Z" fill="#FFFBFC"/>
</g>
<g style="mix-blend-mode:lighten">
<path d="M40.0246 49.4277C40.164 49.4022 40.299 49.4936 40.3245 49.633C40.35 49.7724 40.2585 49.9073 40.119 49.9328C39.9796 49.9583 39.8446 49.8669 39.8191 49.7275C39.7936 49.5881 39.8851 49.4531 40.0246 49.4277Z" fill="#FFFBFC"/>
</g>
<g style="mix-blend-mode:lighten">
<path d="M32.3289 49.5394C32.4188 49.5229 32.5043 49.5814 32.5208 49.6713C32.5373 49.7613 32.4788 49.8467 32.3888 49.8632C32.2989 49.8797 32.2134 49.8212 32.1969 49.7313C32.1804 49.6413 32.2389 49.5559 32.3289 49.5394Z" fill="#FFFBFC"/>
</g>
<g style="mix-blend-mode:lighten">
<path d="M32.679 47.6036C32.8709 47.5676 33.0539 47.6935 33.0899 47.8854C33.1259 48.0773 32.9999 48.2602 32.8079 48.2962C32.616 48.3321 32.433 48.2062 32.397 48.0143C32.361 47.8225 32.487 47.6396 32.679 47.6036Z" fill="#FFFBFC"/>
</g>
<g style="mix-blend-mode:lighten">
<path d="M31.4476 46.604C31.6305 46.5695 31.8075 46.6909 31.842 46.8738C31.8765 47.0567 31.755 47.2336 31.5721 47.2681C31.3891 47.3025 31.2121 47.1811 31.1776 46.9982C31.1431 46.8154 31.2646 46.6385 31.4476 46.604Z" fill="#FFFBFC"/>
</g>
<g style="mix-blend-mode:lighten">
<path d="M31.7033 45.3558C31.8578 45.3274 32.0078 45.4293 32.0363 45.5837C32.0648 45.7381 31.9628 45.888 31.8083 45.9165C31.6538 45.945 31.5039 45.843 31.4754 45.6886C31.4469 45.5342 31.5488 45.3843 31.7033 45.3558Z" fill="#FFFBFC"/>
</g>
<g style="mix-blend-mode:lighten">
<path d="M30.1456 44.4704C30.2236 44.4554 30.3001 44.5079 30.3136 44.5858C30.3286 44.6638 30.2761 44.7402 30.1981 44.7537C30.1201 44.7687 30.0436 44.7162 30.0301 44.6383C30.0152 44.5603 30.0676 44.4839 30.1456 44.4704Z" fill="#FFFBFC"/>
</g>
<g style="mix-blend-mode:lighten">
<path d="M36.6173 33.4043C36.7238 33.5377 36.7028 33.7311 36.5709 33.8375C36.4374 33.944 36.2439 33.923 36.1374 33.7911C36.0309 33.6577 36.0519 33.4643 36.1839 33.3578C36.3174 33.2514 36.5109 33.2724 36.6173 33.4043Z" fill="#FFFBFC"/>
</g>
<path d="M39.0411 30.3206C39.0996 30.3926 39.0876 30.4975 39.0156 30.556C38.9436 30.6145 38.8386 30.6025 38.7801 30.5305C38.7216 30.4586 38.7336 30.3536 38.8056 30.2952C38.8776 30.2367 38.9826 30.2487 39.0411 30.3206Z" fill="#FFFBFC"/>
<path d="M25.2973 29.3974L25.3824 29.8158L25.7987 29.9013L25.3824 29.9868L25.2973 30.4051L25.2122 29.9868L24.7959 29.9013L25.2122 29.8158L25.2973 29.3974Z" fill="white"/>
<g filter="url(#filter6_f_46_2945)">
<path d="M25.2973 29.3974L25.3824 29.8158L25.7987 29.9013L25.3824 29.9868L25.2973 30.4051L25.2122 29.9868L24.7959 29.9013L25.2122 29.8158L25.2973 29.3974Z" fill="white"/>
</g>
<path d="M47.1999 42.009L47.4922 42.3189L47.8905 42.1702L47.5822 42.464L47.73 42.8643L47.4377 42.5544L47.0394 42.7031L47.3477 42.4093L47.1999 42.009Z" fill="white"/>
<g filter="url(#filter7_f_46_2945)">
<path d="M47.1999 42.009L47.4922 42.3189L47.8905 42.1702L47.5822 42.464L47.73 42.8643L47.4377 42.5544L47.0394 42.7031L47.3477 42.4093L47.1999 42.009Z" fill="white"/>
</g>
<path d="M25.8836 45.3866L26.0535 45.778L26.4784 45.7744L26.089 45.9452L26.0925 46.3722L25.9225 45.9809L25.4976 45.9844L25.8871 45.8136L25.8836 45.3866Z" fill="white"/>
<g filter="url(#filter8_f_46_2945)">
<path d="M25.8836 45.3866L26.0535 45.778L26.4784 45.7744L26.089 45.9452L26.0925 46.3722L25.9225 45.9809L25.4976 45.9844L25.8871 45.8136L25.8836 45.3866Z" fill="white"/>
</g>
</g>
<g style="mix-blend-mode:overlay" filter="url(#filter9_f_46_2945)">
<g style="mix-blend-mode:lighten">
<path d="M21.4354 11.6445C21.3911 11.4481 21.5146 11.2486 21.7111 11.2042C21.9075 11.1599 22.1071 11.2834 22.1515 11.4798C22.1958 11.6762 22.0723 11.8758 21.8758 11.9201C21.6794 11.9645 21.4798 11.8409 21.4354 11.6445Z" fill="#FFFBFC"/>
</g>
<g style="mix-blend-mode:lighten">
<path d="M49.7825 36.6832C49.7128 36.3823 49.9029 36.0814 50.2039 36.0148C50.5049 35.9451 50.8059 36.1352 50.8724 36.4362C50.9421 36.7371 50.752 37.038 50.451 37.1046C50.15 37.1743 49.849 36.9842 49.7825 36.6832Z" fill="#FFFBFC"/>
</g>
<g style="mix-blend-mode:lighten">
<path d="M14.8959 16.5549C14.823 16.2286 15.0258 15.9023 15.3522 15.8295C15.6785 15.7566 16.0049 15.9593 16.0778 16.2856C16.1506 16.6119 15.9479 16.9382 15.6215 17.0111C15.2952 17.0839 14.9688 16.8812 14.8959 16.5549Z" fill="#FFFBFC"/>
</g>
<g style="mix-blend-mode:lighten">
<path d="M23.0831 20.0743C23.3524 20.4101 23.3017 20.9011 22.9659 21.1735C22.63 21.4428 22.1389 21.3921 21.8664 21.0563C21.5971 20.7205 21.6478 20.2295 21.9836 19.9571C22.3195 19.6878 22.8106 19.7385 23.0831 20.0743Z" fill="#FFFBFC"/>
</g>
<g style="mix-blend-mode:lighten">
<path d="M25.906 19.2316C26.1341 19.5167 26.0898 19.9317 25.8046 20.1598C25.5195 20.3879 25.1044 20.3435 24.8762 20.0584C24.6481 19.7733 24.6925 19.3583 24.9776 19.1302C25.2628 18.9022 25.6779 18.9465 25.906 19.2316Z" fill="#FFFBFC"/>
</g>
<g style="mix-blend-mode:lighten">
<path d="M26.0108 15.0915C26.1249 15.234 26.1027 15.4463 25.9601 15.5603C25.8175 15.6743 25.6052 15.6522 25.4912 15.5096C25.3771 15.3671 25.3993 15.1548 25.5419 15.0408C25.6844 14.9267 25.8967 14.9489 26.0108 15.0915Z" fill="#FFFBFC"/>
</g>
<g style="mix-blend-mode:lighten">
<path d="M34.1256 24.8958C34.0781 24.7025 34.1985 24.5061 34.3918 24.4586C34.585 24.4111 34.7815 24.5315 34.829 24.7247C34.8765 24.918 34.7561 25.1144 34.5629 25.1619C34.3696 25.2094 34.1731 25.089 34.1256 24.8958Z" fill="#FFFBFC"/>
</g>
<g style="mix-blend-mode:lighten">
<path d="M28.1179 18.8959C28.064 18.671 28.2034 18.4429 28.4284 18.3891C28.6534 18.3352 28.8815 18.4746 28.9354 18.6995C28.9892 18.9244 28.8498 19.1525 28.6249 19.2064C28.3999 19.2602 28.1718 19.1208 28.1179 18.8959Z" fill="#FFFBFC"/>
</g>
<g style="mix-blend-mode:lighten">
<path d="M21.7085 24.5853C21.6324 24.2653 21.8289 23.9454 22.1489 23.8662C22.4689 23.7902 22.7889 23.9866 22.8682 24.3065C22.9442 24.6265 22.7477 24.9464 22.4277 25.0256C22.1077 25.1017 21.7877 24.9052 21.7085 24.5853Z" fill="#FFFBFC"/>
</g>
<g style="mix-blend-mode:lighten">
<path d="M20.6719 29.1087C20.6212 28.9028 20.748 28.7001 20.9539 28.6494C21.1599 28.5987 21.3627 28.7254 21.4134 28.9313C21.4641 29.1373 21.3373 29.34 21.1314 29.3907C20.9254 29.4414 20.7226 29.3147 20.6719 29.1087Z" fill="#FFFBFC"/>
</g>
<g style="mix-blend-mode:lighten">
<path d="M15.254 20.849C15.1494 20.4118 15.4187 19.9715 15.856 19.8669C16.2932 19.7624 16.7337 20.0317 16.8382 20.4688C16.9428 20.906 16.6735 21.3463 16.2362 21.4509C15.799 21.5554 15.3585 21.2861 15.254 20.849Z" fill="#FFFBFC"/>
</g>
<g style="mix-blend-mode:lighten">
<path d="M17.7878 33.7954C17.6864 33.3773 17.9462 32.956 18.3645 32.8546C18.7827 32.7532 19.2041 33.013 19.3055 33.4311C19.4069 33.8493 19.1471 34.2706 18.7289 34.372C18.3106 34.4733 17.8892 34.2136 17.7878 33.7954Z" fill="#FFFBFC"/>
</g>
<g style="mix-blend-mode:lighten">
<path d="M11.0876 31.0413C11.0021 30.6865 11.2207 30.3285 11.5756 30.2461C11.9305 30.1606 12.2885 30.3792 12.3709 30.734C12.4564 31.0888 12.2378 31.4468 11.8829 31.5291C11.5281 31.6146 11.17 31.3961 11.0876 31.0413Z" fill="#FFFBFC"/>
</g>
<g style="mix-blend-mode:lighten">
<path d="M9.2212 34.7413C9.17684 34.5607 9.28773 34.3833 9.46834 34.339C9.64894 34.2946 9.82638 34.4055 9.87074 34.5861C9.9151 34.7667 9.8042 34.944 9.62359 34.9884C9.44299 35.0327 9.26556 34.9219 9.2212 34.7413Z" fill="#FFFBFC"/>
</g>
<g style="mix-blend-mode:lighten">
<path d="M42.9234 52.7988C43.2181 52.7449 43.5033 52.9382 43.5571 53.2328C43.611 53.5274 43.4177 53.8125 43.123 53.8664C42.8284 53.9202 42.5432 53.727 42.4893 53.4324C42.4355 53.1378 42.6288 52.8526 42.9234 52.7988Z" fill="#FFFBFC"/>
</g>
<g style="mix-blend-mode:lighten">
<path d="M26.6669 53.0355C26.857 53.0007 27.0376 53.1242 27.0725 53.3143C27.1073 53.5044 26.9838 53.6849 26.7936 53.7198C26.6035 53.7546 26.4229 53.6311 26.3881 53.441C26.3532 53.251 26.4768 53.0704 26.6669 53.0355Z" fill="#FFFBFC"/>
</g>
<g style="mix-blend-mode:lighten">
<path d="M27.405 48.9426C27.8106 48.8666 28.1972 49.1327 28.2732 49.5381C28.3492 49.9436 28.0831 50.3301 27.6775 50.4061C27.272 50.4822 26.8854 50.2161 26.8094 49.8106C26.7333 49.4051 26.9995 49.0186 27.405 48.9426Z" fill="#FFFBFC"/>
</g>
<g style="mix-blend-mode:lighten">
<path d="M24.8035 46.8329C25.1901 46.7601 25.564 47.0167 25.6368 47.4031C25.7097 47.7896 25.4531 48.1634 25.0665 48.2363C24.68 48.3091 24.3061 48.0525 24.2332 47.6661C24.1603 47.2796 24.417 46.9058 24.8035 46.8329Z" fill="#FFFBFC"/>
</g>
<g style="mix-blend-mode:lighten">
<path d="M25.3456 44.1941C25.6719 44.1339 25.9888 44.3493 26.049 44.6756C26.1092 45.0019 25.8937 45.3187 25.5674 45.3789C25.241 45.4391 24.9242 45.2237 24.864 44.8974C24.8038 44.5711 25.0192 44.2543 25.3456 44.1941Z" fill="#FFFBFC"/>
</g>
<g style="mix-blend-mode:lighten">
<path d="M22.0535 42.3221C22.2182 42.2904 22.3798 42.4013 22.4083 42.566C22.44 42.7307 22.3291 42.8923 22.1644 42.9208C21.9996 42.9525 21.838 42.8416 21.8095 42.6769C21.7778 42.5121 21.8887 42.3506 22.0535 42.3221Z" fill="#FFFBFC"/>
</g>
<g style="mix-blend-mode:lighten">
<path d="M28.9447 13.7733C29.1348 14.0077 29.0968 14.3498 28.8624 14.5399C28.6279 14.7299 28.2857 14.6919 28.0956 14.4575C27.9055 14.2231 27.9435 13.881 28.178 13.6909C28.4124 13.5008 28.7546 13.5388 28.9447 13.7733Z" fill="#FFFBFC"/>
</g>
<g style="mix-blend-mode:lighten">
<path d="M35.7255 18.9369C35.9505 19.2188 35.9061 19.6275 35.6273 19.8524C35.3453 20.0773 34.9365 20.033 34.7116 19.7542C34.4866 19.4722 34.531 19.0636 34.8098 18.8387C35.0918 18.6138 35.5005 18.6581 35.7255 18.9369Z" fill="#FFFBFC"/>
</g>
<path d="M35.038 14.404C35.1615 14.5592 35.1394 14.7841 34.9841 14.9108C34.8289 15.0344 34.6039 15.0122 34.4772 14.857C34.3536 14.7018 34.3758 14.4768 34.531 14.3501C34.6863 14.2266 34.9112 14.2487 35.038 14.404Z" fill="#FFFBFC"/>
<path d="M40.8459 12.4176C40.9695 12.5696 40.9442 12.7914 40.7921 12.9149C40.64 13.0385 40.4182 13.0131 40.2946 12.8611C40.1711 12.709 40.1964 12.4873 40.3485 12.3637C40.5006 12.2402 40.7224 12.2655 40.8459 12.4176Z" fill="#FFFBFC"/>
</g>
<g style="mix-blend-mode:lighten">
<path d="M21.4354 11.6445C21.3911 11.4481 21.5146 11.2486 21.7111 11.2042C21.9075 11.1599 22.1071 11.2834 22.1515 11.4798C22.1958 11.6762 22.0723 11.8758 21.8758 11.9201C21.6794 11.9645 21.4798 11.8409 21.4354 11.6445Z" fill="#FFFBFC"/>
</g>
<g style="mix-blend-mode:lighten">
<path d="M49.7824 36.6832C49.7126 36.3823 49.9028 36.0814 50.2038 36.0148C50.5048 35.9451 50.8058 36.1352 50.8723 36.4362C50.942 36.7371 50.7519 37.038 50.4509 37.1046C50.1499 37.1743 49.8489 36.9842 49.7824 36.6832Z" fill="#FFFBFC"/>
</g>
<g style="mix-blend-mode:lighten">
<path d="M14.8959 16.5549C14.823 16.2286 15.0258 15.9023 15.3522 15.8295C15.6785 15.7566 16.0049 15.9593 16.0778 16.2856C16.1506 16.6119 15.9479 16.9382 15.6215 17.0111C15.2952 17.0839 14.9688 16.8812 14.8959 16.5549Z" fill="#FFFBFC"/>
</g>
<g style="mix-blend-mode:lighten">
<path d="M23.0829 20.0744C23.3522 20.4102 23.3015 20.9012 22.9656 21.1736C22.6298 21.4429 22.1387 21.3922 21.8662 21.0564C21.5968 20.7206 21.6475 20.2296 21.9834 19.9572C22.3193 19.6879 22.8104 19.7386 23.0829 20.0744Z" fill="#FFFBFC"/>
</g>
<g style="mix-blend-mode:lighten">
<path d="M25.906 19.2316C26.1341 19.5167 26.0898 19.9317 25.8046 20.1597C25.5195 20.3878 25.1044 20.3435 24.8762 20.0584C24.6481 19.7733 24.6925 19.3583 24.9776 19.1302C25.2628 18.9021 25.6779 18.9465 25.906 19.2316Z" fill="#FFFBFC"/>
</g>
<g style="mix-blend-mode:lighten">
<path d="M26.0107 15.0915C26.1247 15.234 26.1026 15.4463 25.96 15.5603C25.8174 15.6743 25.6051 15.6522 25.491 15.5096C25.377 15.3671 25.3992 15.1548 25.5417 15.0408C25.6843 14.9267 25.8966 14.9489 26.0107 15.0915Z" fill="#FFFBFC"/>
</g>
<g style="mix-blend-mode:lighten">
<path d="M34.1254 24.8958C34.0778 24.7025 34.1982 24.5061 34.3915 24.4586C34.5848 24.4111 34.7812 24.5315 34.8288 24.7247C34.8763 24.918 34.7559 25.1144 34.5626 25.1619C34.3693 25.2094 34.1729 25.089 34.1254 24.8958Z" fill="#FFFBFC"/>
</g>
<g style="mix-blend-mode:lighten">
<path d="M28.1179 18.8959C28.064 18.6709 28.2034 18.4429 28.4284 18.389C28.6534 18.3352 28.8815 18.4745 28.9354 18.6995C28.9892 18.9244 28.8498 19.1525 28.6249 19.2063C28.3999 19.2602 28.1718 19.1208 28.1179 18.8959Z" fill="#FFFBFC"/>
</g>
<g style="mix-blend-mode:lighten">
<path d="M21.7081 24.5854C21.6321 24.2654 21.8285 23.9455 22.1485 23.8663C22.4686 23.7902 22.7886 23.9866 22.8678 24.3066C22.9438 24.6265 22.7474 24.9465 22.4274 25.0257C22.1073 25.1017 21.7873 24.9053 21.7081 24.5854Z" fill="#FFFBFC"/>
</g>
<g style="mix-blend-mode:lighten">
<path d="M20.6718 29.1091C20.6211 28.9031 20.7479 28.7004 20.9538 28.6497C21.1598 28.599 21.3625 28.7257 21.4132 28.9317C21.4639 29.1376 21.3372 29.3403 21.1312 29.391C20.9253 29.4417 20.7225 29.315 20.6718 29.1091Z" fill="#FFFBFC"/>
</g>
<g style="mix-blend-mode:lighten">
<path d="M15.254 20.849C15.1494 20.4118 15.4187 19.9715 15.856 19.8669C16.2932 19.7624 16.7337 20.0317 16.8382 20.4688C16.9428 20.906 16.6735 21.3463 16.2362 21.4509C15.799 21.5554 15.3585 21.2861 15.254 20.849Z" fill="#FFFBFC"/>
</g>
<g style="mix-blend-mode:lighten">
<path d="M17.7878 33.7954C17.6864 33.3773 17.9462 32.956 18.3645 32.8546C18.7827 32.7532 19.2041 33.013 19.3055 33.4311C19.4069 33.8493 19.1471 34.2706 18.7289 34.372C18.3106 34.4733 17.8892 34.2136 17.7878 33.7954Z" fill="#FFFBFC"/>
</g>
<g style="mix-blend-mode:lighten">
<path d="M11.0874 31.0413C11.0018 30.6865 11.2205 30.3285 11.5753 30.2461C11.9302 30.1606 12.2882 30.3792 12.3706 30.734C12.4562 31.0888 12.2376 31.4468 11.8827 31.5291C11.5278 31.6146 11.1698 31.3961 11.0874 31.0413Z" fill="#FFFBFC"/>
</g>
<g style="mix-blend-mode:lighten">
<path d="M9.22095 34.7413C9.17659 34.5607 9.28749 34.3833 9.46809 34.339C9.6487 34.2946 9.82613 34.4055 9.87049 34.5861C9.91485 34.7667 9.80395 34.944 9.62335 34.9884C9.44275 35.0327 9.26531 34.9219 9.22095 34.7413Z" fill="#FFFBFC"/>
</g>
<g style="mix-blend-mode:lighten">
<path d="M42.9232 52.7992C43.2179 52.7453 43.503 52.9385 43.5569 53.2332C43.6108 53.5278 43.4175 53.8129 43.1228 53.8667C42.8281 53.9206 42.543 53.7273 42.4891 53.4327C42.4352 53.1381 42.6285 52.853 42.9232 52.7992Z" fill="#FFFBFC"/>
</g>
<g style="mix-blend-mode:lighten">
<path d="M26.6668 53.0355C26.8569 53.0007 27.0375 53.1242 27.0724 53.3143C27.1072 53.5044 26.9836 53.6849 26.7935 53.7198C26.6034 53.7546 26.4228 53.6311 26.388 53.441C26.3531 53.251 26.4767 53.0704 26.6668 53.0355Z" fill="#FFFBFC"/>
</g>
<g style="mix-blend-mode:lighten">
<path d="M27.4049 48.9426C27.8105 48.8666 28.197 49.1327 28.2731 49.5381C28.3491 49.9436 28.083 50.3301 27.6774 50.4061C27.2718 50.4822 26.8853 50.2161 26.8092 49.8106C26.7332 49.4051 26.9993 49.0186 27.4049 48.9426Z" fill="#FFFBFC"/>
</g>
<g style="mix-blend-mode:lighten">
<path d="M24.8034 46.8329C25.19 46.7601 25.5638 47.0167 25.6367 47.4031C25.7096 47.7896 25.4529 48.1634 25.0664 48.2363C24.6798 48.3091 24.306 48.0525 24.2331 47.6661C24.1602 47.2796 24.4168 46.9058 24.8034 46.8329Z" fill="#FFFBFC"/>
</g>
<g style="mix-blend-mode:lighten">
<path d="M25.3455 44.1941C25.6718 44.1339 25.9887 44.3493 26.0489 44.6756C26.1091 45.0019 25.8936 45.3187 25.5672 45.3789C25.2409 45.4391 24.924 45.2237 24.8638 44.8974C24.8036 44.5711 25.0191 44.2543 25.3455 44.1941Z" fill="#FFFBFC"/>
</g>
<g style="mix-blend-mode:lighten">
<path d="M22.0533 42.3221C22.2181 42.2904 22.3797 42.4013 22.4082 42.566C22.4399 42.7307 22.329 42.8923 22.1642 42.9208C21.9995 42.9525 21.8379 42.8416 21.8094 42.6769C21.7777 42.5121 21.8886 42.3506 22.0533 42.3221Z" fill="#FFFBFC"/>
</g>
<g style="mix-blend-mode:lighten">
<path d="M28.9445 13.7736C29.1346 14.008 29.0966 14.3501 28.8621 14.5402C28.6276 14.7302 28.2854 14.6922 28.0953 14.4578C27.9052 14.2234 27.9433 13.8813 28.1777 13.6912C28.4122 13.5011 28.7544 13.5391 28.9445 13.7736Z" fill="#FFFBFC"/>
</g>
<g style="mix-blend-mode:lighten">
<path d="M35.7254 18.9369C35.9503 19.2188 35.906 19.6275 35.6271 19.8524C35.3451 20.0773 34.9364 20.033 34.7115 19.7542C34.4865 19.4722 34.5308 19.0636 34.8097 18.8387C35.0917 18.6138 35.5004 18.6581 35.7254 18.9369Z" fill="#FFFBFC"/>
</g>
<path d="M35.0379 14.4039C35.1614 14.5591 35.1392 14.7841 34.984 14.9108C34.8287 15.0343 34.6038 15.0121 34.477 14.8569C34.3535 14.7017 34.3756 14.4768 34.5309 14.3501C34.6862 14.2265 34.9111 14.2487 35.0379 14.4039Z" fill="#FFFBFC"/>
<path d="M40.8458 12.4176C40.9694 12.5696 40.944 12.7914 40.792 12.9149C40.6399 13.0385 40.4181 13.0131 40.2945 12.8611C40.1709 12.709 40.1963 12.4873 40.3484 12.3637C40.5005 12.2402 40.7223 12.2655 40.8458 12.4176Z" fill="#FFFBFC"/>
<mask id="path-124-outside-1_46_2945" maskUnits="userSpaceOnUse" x="13" y="29" width="45" height="16" fill="black">
<rect fill="white" x="13" y="29" width="45" height="16"/>
<path d="M20.5039 30.6618L18.3527 40.7818H24.4632L23.9944 43H15.3058L17.9258 30.6618H20.5039ZM33.269 42.3387C33.2746 41.9927 33.3136 41.6384 33.3862 41.2757L33.6122 40.1289C33.7684 39.3421 33.7349 38.8175 33.5117 38.5552C33.2941 38.293 32.8058 38.1618 32.0469 38.1618H29.385L28.3638 43H25.8443L28.4643 30.6618H34.5162C35.3756 30.6786 36.0173 30.7846 36.4414 30.9799C36.8655 31.1752 37.2003 31.4626 37.4459 31.8421C37.6468 32.1546 37.7835 32.5006 37.856 32.88C37.9342 33.2595 37.923 33.692 37.8225 34.1775C37.6942 34.7634 37.4208 35.341 37.0022 35.9102C36.5893 36.4738 36.0173 36.8728 35.2863 37.1071C35.8052 37.3359 36.1373 37.6624 36.2824 38.0865C36.433 38.505 36.4163 39.1468 36.2321 40.0117L36.0564 40.8404C35.9392 41.404 35.8806 41.7863 35.8806 41.9872C35.8806 42.3052 35.9866 42.5396 36.1987 42.6903L36.1401 43H33.3025C33.2801 42.7266 33.269 42.5061 33.269 42.3387ZM33.5201 32.8047H30.5234L29.8203 36.1194H32.7416C33.322 36.1194 33.7712 36.0525 34.0893 35.9185C34.6529 35.6842 35.01 35.221 35.1607 34.529C35.317 33.7813 35.1747 33.279 34.7338 33.0223C34.4827 32.8772 34.0781 32.8047 33.5201 32.8047ZM38.0318 39.3504L38.5173 37.0904H43.322L42.8365 39.3504H38.0318ZM51.3075 42.8326C50.7439 42.9442 50.1468 43 49.5162 43H43.9247L46.5446 30.6618H52.5379C54.0446 30.6842 55.0212 31.1222 55.4676 31.976C55.7355 32.5006 55.7941 33.1283 55.6434 33.8594C55.4816 34.6127 55.1607 35.2182 54.6808 35.6758C54.4185 35.9325 54.0586 36.1669 53.601 36.3789C54.1814 36.6077 54.5776 36.9704 54.7896 37.4671C55.0073 37.9637 55.0407 38.5664 54.8901 39.2751C54.7338 40.0061 54.4102 40.6618 53.9191 41.2422C53.601 41.6272 53.2383 41.9509 52.8309 42.2132C52.3733 42.5145 51.8655 42.721 51.3075 42.8326ZM50.6044 37.5675H47.5324L46.8376 40.8571H49.8677C50.409 40.8571 50.8443 40.7846 51.1735 40.6395C51.7818 40.3717 52.1669 39.8583 52.3287 39.0993C52.4626 38.4576 52.2896 38.0167 51.8097 37.7768C51.5419 37.6429 51.1401 37.5731 50.6044 37.5675ZM52.3873 35.2154C52.7667 35.0145 53.0123 34.6546 53.1239 34.1356C53.2411 33.5608 53.0988 33.1814 52.697 32.9972C52.3343 32.8689 51.8544 32.8047 51.2573 32.8047H48.5452L47.9676 35.5251H50.9978C51.5391 35.5251 52.0022 35.4219 52.3873 35.2154Z"/>
</mask>
<path d="M20.5039 30.6618L18.3527 40.7818H24.4632L23.9944 43H15.3058L17.9258 30.6618H20.5039ZM33.269 42.3387C33.2746 41.9927 33.3136 41.6384 33.3862 41.2757L33.6122 40.1289C33.7684 39.3421 33.7349 38.8175 33.5117 38.5552C33.2941 38.293 32.8058 38.1618 32.0469 38.1618H29.385L28.3638 43H25.8443L28.4643 30.6618H34.5162C35.3756 30.6786 36.0173 30.7846 36.4414 30.9799C36.8655 31.1752 37.2003 31.4626 37.4459 31.8421C37.6468 32.1546 37.7835 32.5006 37.856 32.88C37.9342 33.2595 37.923 33.692 37.8225 34.1775C37.6942 34.7634 37.4208 35.341 37.0022 35.9102C36.5893 36.4738 36.0173 36.8728 35.2863 37.1071C35.8052 37.3359 36.1373 37.6624 36.2824 38.0865C36.433 38.505 36.4163 39.1468 36.2321 40.0117L36.0564 40.8404C35.9392 41.404 35.8806 41.7863 35.8806 41.9872C35.8806 42.3052 35.9866 42.5396 36.1987 42.6903L36.1401 43H33.3025C33.2801 42.7266 33.269 42.5061 33.269 42.3387ZM33.5201 32.8047H30.5234L29.8203 36.1194H32.7416C33.322 36.1194 33.7712 36.0525 34.0893 35.9185C34.6529 35.6842 35.01 35.221 35.1607 34.529C35.317 33.7813 35.1747 33.279 34.7338 33.0223C34.4827 32.8772 34.0781 32.8047 33.5201 32.8047ZM38.0318 39.3504L38.5173 37.0904H43.322L42.8365 39.3504H38.0318ZM51.3075 42.8326C50.7439 42.9442 50.1468 43 49.5162 43H43.9247L46.5446 30.6618H52.5379C54.0446 30.6842 55.0212 31.1222 55.4676 31.976C55.7355 32.5006 55.7941 33.1283 55.6434 33.8594C55.4816 34.6127 55.1607 35.2182 54.6808 35.6758C54.4185 35.9325 54.0586 36.1669 53.601 36.3789C54.1814 36.6077 54.5776 36.9704 54.7896 37.4671C55.0073 37.9637 55.0407 38.5664 54.8901 39.2751C54.7338 40.0061 54.4102 40.6618 53.9191 41.2422C53.601 41.6272 53.2383 41.9509 52.8309 42.2132C52.3733 42.5145 51.8655 42.721 51.3075 42.8326ZM50.6044 37.5675H47.5324L46.8376 40.8571H49.8677C50.409 40.8571 50.8443 40.7846 51.1735 40.6395C51.7818 40.3717 52.1669 39.8583 52.3287 39.0993C52.4626 38.4576 52.2896 38.0167 51.8097 37.7768C51.5419 37.6429 51.1401 37.5731 50.6044 37.5675ZM52.3873 35.2154C52.7667 35.0145 53.0123 34.6546 53.1239 34.1356C53.2411 33.5608 53.0988 33.1814 52.697 32.9972C52.3343 32.8689 51.8544 32.8047 51.2573 32.8047H48.5452L47.9676 35.5251H50.9978C51.5391 35.5251 52.0022 35.4219 52.3873 35.2154Z" fill="white"/>
<path d="M20.5039 30.6618L21.9013 30.9589L22.2681 29.2333H20.5039V30.6618ZM18.3527 40.7818L16.9553 40.4848L16.5885 42.2104H18.3527V40.7818ZM24.4632 40.7818L25.8609 41.0772L26.2252 39.3532H24.4632V40.7818ZM23.9944 43V44.4286H25.1527L25.3921 43.2954L23.9944 43ZM15.3058 43L13.9084 42.7033L13.542 44.4286H15.3058V43ZM17.9258 30.6618V29.2333H16.7687L16.5284 30.3651L17.9258 30.6618ZM19.1066 30.3648L16.9553 40.4848L19.75 41.0788L21.9013 30.9589L19.1066 30.3648ZM18.3527 42.2104H24.4632V39.3532H18.3527V42.2104ZM23.0655 40.4864L22.5967 42.7046L25.3921 43.2954L25.8609 41.0772L23.0655 40.4864ZM23.9944 41.5714H15.3058V44.4286H23.9944V41.5714ZM16.7032 43.2967L19.3232 30.9586L16.5284 30.3651L13.9084 42.7033L16.7032 43.2967ZM17.9258 32.0904H20.5039V29.2333H17.9258V32.0904ZM33.269 42.3387L31.8406 42.3157L31.8404 42.3272V42.3387H33.269ZM33.3862 41.2757L34.787 41.5558L34.7878 41.5519L33.3862 41.2757ZM33.6122 40.1289L32.211 39.8507L32.2106 39.8527L33.6122 40.1289ZM33.5117 38.5552L32.4123 39.4675L32.418 39.4743L32.4238 39.4811L33.5117 38.5552ZM29.385 38.1618V36.7333H28.2265L27.9873 37.8668L29.385 38.1618ZM28.3638 43V44.4286H29.5224L29.7616 43.295L28.3638 43ZM25.8443 43L24.4469 42.7033L24.0805 44.4286H25.8443V43ZM28.4643 30.6618V29.2333H27.3072L27.0669 30.3651L28.4643 30.6618ZM34.5162 30.6618L34.544 29.2335L34.5301 29.2333H34.5162V30.6618ZM37.4459 31.8421L38.6476 31.0696L38.6453 31.066L37.4459 31.8421ZM37.856 32.88L36.4529 33.1483L36.4548 33.1582L36.4568 33.1681L37.856 32.88ZM37.8225 34.1775L39.218 34.4831L39.2198 34.475L39.2215 34.4669L37.8225 34.1775ZM37.0022 35.9102L35.8513 35.0639L35.8499 35.0658L37.0022 35.9102ZM35.2863 37.1071L34.8501 35.7468L31.2658 36.8959L34.71 38.4143L35.2863 37.1071ZM36.2824 38.0865L34.9307 38.5489L34.9344 38.5597L34.9382 38.5704L36.2824 38.0865ZM36.2321 40.0117L34.8349 39.7142L34.8347 39.7153L36.2321 40.0117ZM36.0564 40.8404L34.6589 40.544L34.6577 40.5496L36.0564 40.8404ZM36.1987 42.6903L37.6023 42.9558L37.7726 42.0561L37.0261 41.5257L36.1987 42.6903ZM36.1401 43V44.4286H37.3237L37.5437 43.2656L36.1401 43ZM33.3025 43L31.8786 43.1162L31.9858 44.4286H33.3025V43ZM30.5234 32.8047V31.3761H29.3661L29.126 32.5083L30.5234 32.8047ZM29.8203 36.1194L28.4228 35.823L28.0569 37.548H29.8203V36.1194ZM34.0893 35.9185L33.5408 34.5994L33.5349 34.6019L34.0893 35.9185ZM35.1607 34.529L36.5566 34.833L36.5591 34.8212L35.1607 34.529ZM34.7338 33.0223L35.4527 31.7878L35.4485 31.7854L34.7338 33.0223ZM34.6974 42.3618C34.7015 42.1079 34.7302 41.8396 34.787 41.5558L31.9853 40.9955C31.897 41.4371 31.8477 41.8776 31.8406 42.3157L34.6974 42.3618ZM34.7878 41.5519L35.0138 40.4051L32.2106 39.8527L31.9846 40.9994L34.7878 41.5519ZM35.0134 40.4072C35.1044 39.9488 35.1575 39.487 35.1299 39.0544C35.1033 38.6373 34.9913 38.0896 34.5996 37.6294L32.4238 39.4811C32.3372 39.3794 32.2997 39.288 32.2854 39.2442C32.2719 39.2027 32.2759 39.1944 32.2786 39.2364C32.2844 39.3283 32.2762 39.5222 32.211 39.8507L35.0134 40.4072ZM34.6111 37.643C34.2423 37.1986 33.7515 36.9876 33.3528 36.8805C32.9437 36.7706 32.4956 36.7333 32.0469 36.7333V39.5904C32.3571 39.5904 32.5326 39.6186 32.6117 39.6399C32.6475 39.6495 32.6384 39.6511 32.6023 39.631C32.5643 39.6098 32.4895 39.5605 32.4123 39.4675L34.6111 37.643ZM32.0469 36.7333H29.385V39.5904H32.0469V36.7333ZM27.9873 37.8668L26.9661 42.705L29.7616 43.295L30.7828 38.4569L27.9873 37.8668ZM28.3638 41.5714H25.8443V44.4286H28.3638V41.5714ZM27.2417 43.2967L29.8617 30.9586L27.0669 30.3651L24.4469 42.7033L27.2417 43.2967ZM28.4643 32.0904H34.5162V29.2333H28.4643V32.0904ZM34.4884 32.0901C35.2887 32.1057 35.6916 32.2074 35.8438 32.2775L37.039 29.6823C36.343 29.3618 35.4624 29.2514 34.544 29.2335L34.4884 32.0901ZM35.8438 32.2775C36.0305 32.3635 36.1531 32.4738 36.2465 32.6181L38.6453 31.066C38.2476 30.4514 37.7005 29.987 37.039 29.6823L35.8438 32.2775ZM36.2442 32.6146C36.3424 32.7673 36.4132 32.9409 36.4529 33.1483L39.2592 32.6118C39.1537 32.0602 38.9512 31.5418 38.6476 31.0696L36.2442 32.6146ZM36.4568 33.1681C36.4864 33.3118 36.4952 33.5418 36.4236 33.888L39.2215 34.4669C39.3508 33.8421 39.3819 33.2072 39.2553 32.5919L36.4568 33.1681ZM36.4271 33.8718C36.3484 34.2308 36.1722 34.6275 35.8513 35.0639L38.1532 36.7564C38.6693 36.0544 39.04 35.296 39.218 34.4831L36.4271 33.8718ZM35.8499 35.0658C35.6328 35.362 35.3237 35.5949 34.8501 35.7468L35.7224 38.4675C36.7109 38.1506 37.5457 37.5855 38.1546 36.7545L35.8499 35.0658ZM34.71 38.4143C34.8449 38.4738 34.9037 38.5233 34.923 38.5423C34.9322 38.5514 34.9341 38.5551 34.9329 38.5531C34.9315 38.551 34.9307 38.5488 34.9307 38.5489L37.634 37.6241C37.3273 36.7275 36.6434 36.1442 35.8626 35.8L34.71 38.4143ZM34.9382 38.5704C34.9331 38.5561 34.9603 38.629 34.9547 38.8444C34.9493 39.0521 34.915 39.3378 34.8349 39.7142L37.6294 40.3092C37.8239 39.3957 37.9199 38.4176 37.6265 37.6026L34.9382 38.5704ZM34.8347 39.7153L34.6589 40.544L37.4538 41.1368L37.6296 40.3082L34.8347 39.7153ZM34.6577 40.5496C34.5446 41.0935 34.452 41.6165 34.452 41.9872H37.3092C37.3092 41.9979 37.3102 41.9384 37.3366 41.7663C37.3607 41.6089 37.3993 41.399 37.455 41.1312L34.6577 40.5496ZM34.452 41.9872C34.452 42.6516 34.6963 43.3753 35.3712 43.8548L37.0261 41.5257C37.1239 41.5952 37.2092 41.6967 37.2617 41.8127C37.3097 41.9189 37.3092 41.9899 37.3092 41.9872H34.452ZM34.795 42.4247L34.7364 42.7344L37.5437 43.2656L37.6023 42.9558L34.795 42.4247ZM36.1401 41.5714H33.3025V44.4286H36.1401V41.5714ZM34.7263 42.8838C34.7054 42.628 34.6975 42.4508 34.6975 42.3387H31.8404C31.8404 42.5615 31.8549 42.8251 31.8786 43.1162L34.7263 42.8838ZM33.5201 31.3761H30.5234V34.2333H33.5201V31.3761ZM29.126 32.5083L28.4228 35.823L31.2178 36.4159L31.9209 33.1011L29.126 32.5083ZM29.8203 37.548H32.7416V34.6908H29.8203V37.548ZM32.7416 37.548C33.4001 37.548 34.0699 37.4767 34.6437 37.2351L33.5349 34.6019C33.4725 34.6282 33.2438 34.6908 32.7416 34.6908V37.548ZM34.6378 37.2376C35.7068 36.7931 36.3248 35.8973 36.5566 34.833L33.7648 34.2251C33.6953 34.5447 33.599 34.5752 33.5408 34.5995L34.6378 37.2376ZM36.5591 34.8212C36.6641 34.3186 36.7021 33.7541 36.5456 33.2021C36.3762 32.6042 36.001 32.1071 35.4527 31.7878L34.015 34.2569C33.9756 34.2339 33.9231 34.193 33.8757 34.1313C33.8286 34.0701 33.806 34.0137 33.7967 33.981C33.7884 33.9517 33.7939 33.9529 33.7934 33.9983C33.7929 34.0439 33.7864 34.1215 33.7623 34.2368L36.5591 34.8212ZM35.4485 31.7854C34.8587 31.4446 34.1363 31.3761 33.5201 31.3761V34.2333C33.7423 34.2333 33.8943 34.2481 33.9899 34.2652C34.0918 34.2835 34.083 34.2962 34.0191 34.2593L35.4485 31.7854ZM38.0318 39.3504L36.6351 39.0504L36.2638 40.779H38.0318V39.3504ZM38.5173 37.0904V35.6618H37.363L37.1206 36.7904L38.5173 37.0904ZM43.322 37.0904L44.7187 37.3904L45.09 35.6618H43.322V37.0904ZM42.8365 39.3504V40.779H43.9908L44.2332 39.6505L42.8365 39.3504ZM39.4285 39.6505L39.914 37.3904L37.1206 36.7904L36.6351 39.0504L39.4285 39.6505ZM38.5173 38.519H43.322V35.6618H38.5173V38.519ZM41.9253 36.7904L41.4398 39.0504L44.2332 39.6505L44.7187 37.3904L41.9253 36.7904ZM42.8365 37.9219H38.0318V40.779H42.8365V37.9219ZM51.3075 42.8326L51.585 44.234L51.5876 44.2334L51.3075 42.8326ZM43.9247 43L42.5273 42.7033L42.1609 44.4286H43.9247V43ZM46.5446 30.6618V29.2333H45.3876L45.1472 30.3651L46.5446 30.6618ZM52.5379 30.6618L52.5591 29.2334L52.5485 29.2333H52.5379V30.6618ZM55.4676 31.976L56.74 31.3263L56.7336 31.3141L55.4676 31.976ZM55.6434 33.8594L57.0402 34.1594L57.0426 34.1478L55.6434 33.8594ZM54.6808 35.6758L53.695 34.6419L53.6882 34.6483L53.6816 34.6548L54.6808 35.6758ZM53.601 36.3789L53.0003 35.0827L49.9747 36.4849L53.0771 37.7079L53.601 36.3789ZM54.7896 37.4671L53.4757 38.0281L53.4812 38.0404L54.7896 37.4671ZM54.8901 39.2751L56.2871 39.5737L56.2874 39.5722L54.8901 39.2751ZM53.9191 41.2422L52.8285 40.3194L52.8231 40.3259L52.8177 40.3324L53.9191 41.2422ZM52.8309 42.2132L52.0576 41.012L52.0514 41.016L52.0452 41.0201L52.8309 42.2132ZM50.6044 37.5675L50.6192 36.139L50.6118 36.139H50.6044V37.5675ZM47.5324 37.5675V36.139H46.374L46.1346 37.2723L47.5324 37.5675ZM46.8376 40.8571L45.4399 40.5619L45.0758 42.2857H46.8376V40.8571ZM51.1735 40.6395L50.5978 39.3321L50.5975 39.3322L51.1735 40.6395ZM52.3287 39.0993L53.7259 39.3973L53.7271 39.3912L52.3287 39.0993ZM52.3873 35.2154L51.7189 33.9528L51.7122 33.9564L52.3873 35.2154ZM53.1239 34.1356L54.5205 34.436L54.5221 34.4285L54.5237 34.421L53.1239 34.1356ZM52.697 32.9972L53.2922 31.6985L53.2339 31.6718L53.1735 31.6505L52.697 32.9972ZM48.5452 32.8047V31.3761H47.3881L47.1478 32.508L48.5452 32.8047ZM47.9676 35.5251L46.5702 35.2284L46.2039 36.9537H47.9676V35.5251ZM51.03 41.4312C50.5661 41.5231 50.0625 41.5714 49.5162 41.5714V44.4286C50.231 44.4286 50.9216 44.3653 51.585 44.2339L51.03 41.4312ZM49.5162 41.5714H43.9247V44.4286H49.5162V41.5714ZM45.3221 43.2967L47.9421 30.9586L45.1472 30.3651L42.5273 42.7033L45.3221 43.2967ZM46.5446 32.0904H52.5379V29.2333H46.5446V32.0904ZM52.5168 32.0902C53.8188 32.1095 54.1169 32.4759 54.2017 32.6379L56.7336 31.3141C55.9255 29.7685 54.2705 29.2588 52.5591 29.2334L52.5168 32.0902ZM54.1953 32.6257C54.2798 32.7911 54.3472 33.0714 54.2443 33.571L57.0426 34.1478C57.2409 33.1853 57.1912 32.21 56.7399 31.3263L54.1953 32.6257ZM54.2467 33.5593C54.1351 34.079 53.9353 34.4127 53.695 34.6419L55.6666 36.7097C56.3861 36.0237 56.8281 35.1464 57.0401 34.1594L54.2467 33.5593ZM53.6816 34.6548C53.57 34.764 53.3617 34.9153 53.0003 35.0827L54.2017 37.6751C54.7555 37.4184 55.267 37.1009 55.68 36.6967L53.6816 34.6548ZM53.0771 37.7079C53.3619 37.8202 53.4373 37.9378 53.4758 38.028L56.1034 36.9061C55.7179 36.0031 55.0009 35.3952 54.1249 35.0499L53.0771 37.7079ZM53.4812 38.0404C53.5444 38.1847 53.6019 38.4646 53.4927 38.978L56.2874 39.5722C56.4796 38.6682 56.4701 37.7427 56.0981 36.8937L53.4812 38.0404ZM53.493 38.9765C53.3868 39.4734 53.1703 39.9155 52.8285 40.3194L55.0096 42.165C55.65 41.4081 56.0808 40.5389 56.2871 39.5737L53.493 38.9765ZM52.8177 40.3324C52.5904 40.6075 52.3375 40.8318 52.0576 41.012L53.6043 43.4143C54.1391 43.07 54.6116 42.6469 55.0205 42.152L52.8177 40.3324ZM52.0452 41.0201C51.7471 41.2164 51.4121 41.3548 51.0273 41.4318L51.5876 44.2334C52.3189 44.0872 52.9995 43.8127 53.6166 43.4063L52.0452 41.0201ZM50.6044 36.139H47.5324V38.9961H50.6044V36.139ZM46.1346 37.2723L45.4399 40.5619L48.2353 41.1523L48.9301 37.8627L46.1346 37.2723ZM46.8376 42.2857H49.8677V39.4286H46.8376V42.2857ZM49.8677 42.2857C50.5166 42.2857 51.171 42.2018 51.7496 41.9468L50.5975 39.3322C50.5176 39.3674 50.3015 39.4286 49.8677 39.4286V42.2857ZM51.7493 41.9469C52.852 41.4613 53.4866 40.5192 53.7258 39.3973L50.9315 38.8014C50.8471 39.1973 50.7116 39.282 50.5978 39.3321L51.7493 41.9469ZM53.7271 39.3912C53.8298 38.8991 53.8493 38.3264 53.6292 37.7655C53.3965 37.1724 52.9593 36.7544 52.4486 36.499L51.1708 39.0545C51.1644 39.0513 51.1271 39.0312 51.081 38.9832C51.033 38.9331 50.9941 38.872 50.9695 38.8092C50.9224 38.6892 50.9615 38.6578 50.9302 38.8075L53.7271 39.3912ZM52.4486 36.499C51.8891 36.2193 51.2265 36.1454 50.6192 36.139L50.5895 38.996C50.8028 38.9982 50.9573 39.0132 51.0631 39.0315C51.1728 39.0506 51.1972 39.0677 51.1708 39.0545L52.4486 36.499ZM53.0557 36.478C53.8946 36.0338 54.3431 35.2611 54.5205 34.436L51.7272 33.8353C51.702 33.9525 51.6745 33.9918 51.6759 33.9897C51.6768 33.9885 51.6822 33.9811 51.6927 33.9716C51.7032 33.9622 51.7131 33.9559 51.7189 33.9528L53.0557 36.478ZM54.5237 34.421C54.6132 33.9819 54.6412 33.4478 54.4427 32.9183C54.2264 32.3416 53.8019 31.9322 53.2922 31.6985L52.1018 34.2959C52.0608 34.2771 51.9925 34.2373 51.9219 34.1641C51.8494 34.0891 51.798 34.0032 51.7674 33.9215C51.7112 33.7715 51.7518 33.7145 51.7241 33.8502L54.5237 34.421ZM53.1735 31.6505C52.5975 31.4466 51.9372 31.3761 51.2573 31.3761V34.2333C51.7715 34.2333 52.0711 34.2911 52.2204 34.344L53.1735 31.6505ZM51.2573 31.3761H48.5452V34.2333H51.2573V31.3761ZM47.1478 32.508L46.5702 35.2284L49.3651 35.8218L49.9426 33.1014L47.1478 32.508ZM47.9676 36.9537H50.9978V34.0965H47.9676V36.9537ZM50.9978 36.9537C51.7192 36.9537 52.4258 36.8157 53.0624 36.4744L51.7122 33.9564C51.5786 34.028 51.3589 34.0965 50.9978 34.0965V36.9537Z" fill="#5A6401" mask="url(#path-124-outside-1_46_2945)"/>
<defs>
<filter id="filter0_f_46_2945" x="1.86146" y="8.6977" width="70.3121" height="63.7143" filterUnits="userSpaceOnUse" color-interpolation-filters="sRGB">
<feFlood flood-opacity="0" result="BackgroundImageFix"/>
<feBlend mode="normal" in="SourceGraphic" in2="BackgroundImageFix" result="shape"/>
<feGaussianBlur stdDeviation="4.70202" result="effect1_foregroundBlur_46_2945"/>
</filter>
<filter id="filter1_d_46_2945" x="-4.62965" y="-2.47169" width="78.2642" height="78.2641" filterUnits="userSpaceOnUse" color-interpolation-filters="sRGB">
<feFlood flood-opacity="0" result="BackgroundImageFix"/>
<feColorMatrix in="SourceAlpha" type="matrix" values="0 0 0 0 0 0 0 0 0 0 0 0 0 0 0 0 0 0 127 0" result="hardAlpha"/>
<feOffset/>
<feGaussianBlur stdDeviation="8.01887"/>
<feComposite in2="hardAlpha" operator="out"/>
<feColorMatrix type="matrix" values="0 0 0 0 0.750588 0 0 0 0 0.909804 0 0 0 0 0.227451 0 0 0 0.6 0"/>
<feBlend mode="normal" in2="BackgroundImageFix" result="effect1_dropShadow_46_2945"/>
<feBlend mode="normal" in="SourceGraphic" in2="effect1_dropShadow_46_2945" result="shape"/>
</filter>
<clipPath id="paint2_diamond_46_2945_clip_path"><path d="M28.0701 43.4002L25.6407 35.1523L17.9919 33.0831C17.9919 33.0831 18.1714 44.6011 24.0214 51.3498L28.0701 43.4002Z"/></clipPath><clipPath id="paint3_diamond_46_2945_clip_path"><path d="M25.6407 35.1537C25.6407 35.1537 29.9295 29.4554 34.9996 27.7003V17.7857C34.9996 17.7857 22.1911 26.3054 17.9919 33.0831L25.6407 35.1523V35.1537Z"/></clipPath><clipPath id="paint6_diamond_46_2945_clip_path"><path d="M44.3572 35.1537C44.3572 35.1537 40.0683 29.4554 34.9982 27.7003V17.7857C34.9982 17.7857 47.8054 26.3041 52.0059 33.0831L44.3572 35.1523V35.1537Z"/></clipPath><clipPath id="paint7_diamond_46_2945_clip_path"><path d="M34.9984 27.7003V47.3829L28.0702 43.4015L25.6407 35.1537C25.6407 35.1537 28.5202 29.5148 34.9997 27.7003H34.9984Z"/></clipPath><clipPath id="paint8_diamond_46_2945_clip_path"><path d="M34.9983 27.7003V47.3829L41.9264 43.4015L44.3559 35.1537C44.3559 35.1537 41.4764 29.5148 34.9969 27.7003H34.9983Z"/></clipPath><filter id="filter2_f_46_2945" x="39.7825" y="43.8044" width="12.2528" height="12.2528" filterUnits="userSpaceOnUse" color-interpolation-filters="sRGB">
<feFlood flood-opacity="0" result="BackgroundImageFix"/>
<feBlend mode="normal" in="SourceGraphic" in2="BackgroundImageFix" result="shape"/>
<feGaussianBlur stdDeviation="1.76415" result="effect1_foregroundBlur_46_2945"/>
</filter>
<filter id="filter3_f_46_2945" x="12.9935" y="26.253" width="13.1325" height="13.1325" filterUnits="userSpaceOnUse" color-interpolation-filters="sRGB">
<feFlood flood-opacity="0" result="BackgroundImageFix"/>
<feBlend mode="normal" in="SourceGraphic" in2="BackgroundImageFix" result="shape"/>
<feGaussianBlur stdDeviation="1.76415" result="effect1_foregroundBlur_46_2945"/>
</filter>
<filter id="filter4_f_46_2945" x="40.4424" y="21.8982" width="10.942" height="10.942" filterUnits="userSpaceOnUse" color-interpolation-filters="sRGB">
<feFlood flood-opacity="0" result="BackgroundImageFix"/>
<feBlend mode="normal" in="SourceGraphic" in2="BackgroundImageFix" result="shape"/>
<feGaussianBlur stdDeviation="1.76415" result="effect1_foregroundBlur_46_2945"/>
</filter>
<filter id="filter5_f_46_2945" x="19.7874" y="25.4853" width="28.2625" height="28.7081" filterUnits="userSpaceOnUse" color-interpolation-filters="sRGB">
<feFlood flood-opacity="0" result="BackgroundImageFix"/>
<feBlend mode="normal" in="SourceGraphic" in2="BackgroundImageFix" result="shape"/>
<feGaussianBlur stdDeviation="2.12821" result="effect1_foregroundBlur_46_2945"/>
</filter>
<filter id="filter6_f_46_2945" x="22.8714" y="27.4729" width="4.85186" height="4.85681" filterUnits="userSpaceOnUse" color-interpolation-filters="sRGB">
<feFlood flood-opacity="0" result="BackgroundImageFix"/>
<feBlend mode="normal" in="SourceGraphic" in2="BackgroundImageFix" result="shape"/>
<feGaussianBlur stdDeviation="0.962264" result="effect1_foregroundBlur_46_2945"/>
</filter>
<filter id="filter7_f_46_2945" x="45.1149" y="40.0844" width="4.70013" height="4.7044" filterUnits="userSpaceOnUse" color-interpolation-filters="sRGB">
<feFlood flood-opacity="0" result="BackgroundImageFix"/>
<feBlend mode="normal" in="SourceGraphic" in2="BackgroundImageFix" result="shape"/>
<feGaussianBlur stdDeviation="0.962264" result="effect1_foregroundBlur_46_2945"/>
</filter>
<filter id="filter8_f_46_2945" x="23.5732" y="43.4621" width="4.82977" height="4.83471" filterUnits="userSpaceOnUse" color-interpolation-filters="sRGB">
<feFlood flood-opacity="0" result="BackgroundImageFix"/>
<feBlend mode="normal" in="SourceGraphic" in2="BackgroundImageFix" result="shape"/>
<feGaussianBlur stdDeviation="0.962264" result="effect1_foregroundBlur_46_2945"/>
</filter>
<filter id="filter9_f_46_2945" x="8.1634" y="10.1472" width="43.7715" height="44.7762" filterUnits="userSpaceOnUse" color-interpolation-filters="sRGB">
<feFlood flood-opacity="0" result="BackgroundImageFix"/>
<feBlend mode="normal" in="SourceGraphic" in2="BackgroundImageFix" result="shape"/>
<feGaussianBlur stdDeviation="0.524012" result="effect1_foregroundBlur_46_2945"/>
</filter>
<linearGradient id="paint0_linear_46_2945" x1="10.0638" y1="34.2682" x2="64.2284" y2="44.5909" gradientUnits="userSpaceOnUse">
<stop stop-color="#F8FFB5"/>
<stop offset="1" stop-color="#A08601"/>
</linearGradient>
<radialGradient id="paint1_radial_46_2945" cx="0" cy="0" r="1" gradientUnits="userSpaceOnUse" gradientTransform="translate(26.2651 55.9805) rotate(-54.5036) scale(12.9299 10.0217)">
<stop stop-color="#EFFF5C"/>
<stop offset="0.414319" stop-color="#AABD00"/>
<stop offset="0.852751" stop-color="#596300"/>
</radialGradient>
<linearGradient id="paint2_diamond_46_2945" x1="0" y1="0" x2="500" y2="500" gradientUnits="userSpaceOnUse">
<stop stop-color="#EFFF5C"/>
<stop offset="0.541667" stop-color="#909846"/>
<stop offset="1" stop-color="#596300"/>
</linearGradient>
<linearGradient id="paint3_diamond_46_2945" x1="0" y1="0" x2="500" y2="500" gradientUnits="userSpaceOnUse">
<stop stop-color="#EFFF5C"/>
<stop offset="0.473958" stop-color="#C6D636"/>
<stop offset="1" stop-color="#B7C722"/>
</linearGradient>
<radialGradient id="paint4_radial_46_2945" cx="0" cy="0" r="1" gradientUnits="userSpaceOnUse" gradientTransform="translate(45.9673 51.4237) rotate(-157.289) scale(14.185 23.8095)">
<stop stop-color="#EFFF5C"/>
<stop offset="0.356211" stop-color="#CBDD27"/>
<stop offset="0.763504" stop-color="#8C9C00"/>
</radialGradient>
<radialGradient id="paint5_radial_46_2945" cx="0" cy="0" r="1" gradientUnits="userSpaceOnUse" gradientTransform="translate(45.5804 50.4945) rotate(-70.7725) scale(18.5665 33.0945)">
<stop stop-color="#EFFF5C"/>
<stop offset="0.338542" stop-color="#C5D535"/>
<stop offset="1" stop-color="#8C9C00"/>
</radialGradient>
<linearGradient id="paint6_diamond_46_2945" x1="0" y1="0" x2="500" y2="500" gradientUnits="userSpaceOnUse">
<stop stop-color="#EFFF5C"/>
<stop offset="0.447917" stop-color="#CBDD27"/>
<stop offset="1" stop-color="#8C9C00"/>
</linearGradient>
<linearGradient id="paint7_diamond_46_2945" x1="0" y1="0" x2="500" y2="500" gradientUnits="userSpaceOnUse">
<stop stop-color="#EFFF5C"/>
<stop offset="0.666667" stop-color="#CEE02E"/>
<stop offset="1" stop-color="#A4B600"/>
</linearGradient>
<linearGradient id="paint8_diamond_46_2945" x1="0" y1="0" x2="500" y2="500" gradientUnits="userSpaceOnUse">
<stop stop-color="#EFFF5C"/>
<stop offset="1" stop-color="#D2E336"/>
</linearGradient>
<linearGradient id="paint9_linear_46_2945" x1="32.4895" y1="27.6699" x2="38.5599" y2="43.3738" gradientUnits="userSpaceOnUse">
<stop stop-color="white" stop-opacity="0.4"/>
<stop offset="1" stop-color="white" stop-opacity="0"/>
</linearGradient>
<linearGradient id="paint10_linear_46_2945" x1="25.2314" y1="35.1919" x2="32.2256" y2="55.3166" gradientUnits="userSpaceOnUse">
<stop stop-color="white" stop-opacity="0.77"/>
<stop offset="0.642325" stop-color="white" stop-opacity="0"/>
</linearGradient>
<linearGradient id="paint11_linear_46_2945" x1="34.9969" y1="17.3106" x2="17.9734" y2="33.0805" gradientUnits="userSpaceOnUse">
<stop stop-color="#DADADA"/>
<stop offset="1" stop-color="white" stop-opacity="0"/>
</linearGradient>
<linearGradient id="paint12_linear_46_2945" x1="34.9969" y1="17.3106" x2="17.9734" y2="33.0805" gradientUnits="userSpaceOnUse">
<stop stop-color="#DADADA"/>
<stop offset="1" stop-color="white" stop-opacity="0"/>
</linearGradient>
<radialGradient id="paint13_radial_46_2945" cx="0" cy="0" r="1" gradientUnits="userSpaceOnUse" gradientTransform="translate(40.4873 53.6658) rotate(90) scale(2.31467 5.4891)">
<stop stop-color="white"/>
<stop offset="1" stop-color="white" stop-opacity="0"/>
</radialGradient>
<radialGradient id="paint14_radial_46_2945" cx="0" cy="0" r="1" gradientUnits="userSpaceOnUse" gradientTransform="translate(39.6777 31.4018) rotate(90) scale(3.75186 4.67949)">
<stop stop-color="white"/>
<stop offset="1" stop-color="white" stop-opacity="0"/>
</radialGradient>
<radialGradient id="paint15_radial_46_2945" cx="0" cy="0" r="1" gradientUnits="userSpaceOnUse" gradientTransform="translate(21.8163 34.0157) rotate(90.5567) scale(1.63821 5.50537)">
<stop stop-color="white"/>
<stop offset="1" stop-color="white" stop-opacity="0"/>
</radialGradient>
</defs>
</svg>
