<svg width="79" height="86" viewBox="0 0 79 86" fill="none" xmlns="http://www.w3.org/2000/svg">
<g filter="url(#filter0_d_46_2947)">
<path d="M40.4944 65.4046L27.7057 60.0112L32.4227 50.7479L40.4944 55.388V65.4046Z" fill="url(#paint0_radial_46_2947)"/>
<g clip-path="url(#paint1_diamond_46_2947_clip_path)" data-figma-skip-parse="true"><g transform="matrix(0.0023062 0.0212939 -0.0233744 0.00253152 25.5794 37.7256)"><rect x="0" y="0" width="1087.99" height="326.696" fill="url(#paint1_diamond_46_2947)" opacity="1" shape-rendering="crispEdges"/><rect x="0" y="0" width="1087.99" height="326.696" transform="scale(1 -1)" fill="url(#paint1_diamond_46_2947)" opacity="1" shape-rendering="crispEdges"/><rect x="0" y="0" width="1087.99" height="326.696" transform="scale(-1 1)" fill="url(#paint1_diamond_46_2947)" opacity="1" shape-rendering="crispEdges"/><rect x="0" y="0" width="1087.99" height="326.696" transform="scale(-1)" fill="url(#paint1_diamond_46_2947)" opacity="1" shape-rendering="crispEdges"/></g></g><path d="M32.4228 50.7479L29.5923 41.1388L20.6812 38.728C20.6812 38.728 20.8902 52.147 27.7058 60.0097L32.4228 50.7479Z" data-figma-gradient-fill="{&#34;type&#34;:&#34;GRADIENT_DIAMOND&#34;,&#34;stops&#34;:[{&#34;color&#34;:{&#34;r&#34;:0.51764708757400513,&#34;g&#34;:0.51764708757400513,&#34;b&#34;:0.51764708757400513,&#34;a&#34;:1.0},&#34;position&#34;:0.0},{&#34;color&#34;:{&#34;r&#34;:0.37647059559822083,&#34;g&#34;:0.37647059559822083,&#34;b&#34;:0.37647059559822083,&#34;a&#34;:1.0},&#34;position&#34;:0.54166668653488159},{&#34;color&#34;:{&#34;r&#34;:0.16078431904315948,&#34;g&#34;:0.16078431904315948,&#34;b&#34;:0.16078431904315948,&#34;a&#34;:1.0},&#34;position&#34;:1.0}],&#34;stopsVar&#34;:[],&#34;transform&#34;:{&#34;m00&#34;:4.6124014854431152,&#34;m01&#34;:-46.748756408691406,&#34;m02&#34;:46.647605895996094,&#34;m10&#34;:42.587841033935547,&#34;m11&#34;:5.0630412101745605,&#34;m12&#34;:13.900152206420898},&#34;opacity&#34;:1.0,&#34;blendMode&#34;:&#34;NORMAL&#34;,&#34;visible&#34;:true}"/>
<g clip-path="url(#paint2_diamond_46_2947_clip_path)" data-figma-skip-parse="true"><g transform="matrix(-0.0220627 0.0196796 -0.0091922 -0.0405779 42.7222 18.8147)"><rect x="0" y="0" width="1039.07" height="431.49" fill="url(#paint2_diamond_46_2947)" opacity="1" shape-rendering="crispEdges"/><rect x="0" y="0" width="1039.07" height="431.49" transform="scale(1 -1)" fill="url(#paint2_diamond_46_2947)" opacity="1" shape-rendering="crispEdges"/><rect x="0" y="0" width="1039.07" height="431.49" transform="scale(-1 1)" fill="url(#paint2_diamond_46_2947)" opacity="1" shape-rendering="crispEdges"/><rect x="0" y="0" width="1039.07" height="431.49" transform="scale(-1)" fill="url(#paint2_diamond_46_2947)" opacity="1" shape-rendering="crispEdges"/></g></g><path d="M29.5923 41.1403C29.5923 41.1403 34.5891 34.5015 40.496 32.4567V20.9057C40.496 20.9057 25.5734 30.8316 20.6812 38.728L29.5923 41.1388V41.1403Z" data-figma-gradient-fill="{&#34;type&#34;:&#34;GRADIENT_DIAMOND&#34;,&#34;stops&#34;:[{&#34;color&#34;:{&#34;r&#34;:0.63873696327209473,&#34;g&#34;:0.63873696327209473,&#34;b&#34;:0.63873696327209473,&#34;a&#34;:1.0},&#34;position&#34;:0.0},{&#34;color&#34;:{&#34;r&#34;:0.34509804844856262,&#34;g&#34;:0.34509804844856262,&#34;b&#34;:0.34509804844856262,&#34;a&#34;:1.0},&#34;position&#34;:0.47395834326744080},{&#34;color&#34;:{&#34;r&#34;:0.34901961684226990,&#34;g&#34;:0.34901961684226990,&#34;b&#34;:0.34901961684226990,&#34;a&#34;:1.0},&#34;position&#34;:1.0}],&#34;stopsVar&#34;:[],&#34;transform&#34;:{&#34;m00&#34;:-44.125308990478516,&#34;m01&#34;:-18.384408950805664,&#34;m02&#34;:73.977043151855469,&#34;m10&#34;:39.359161376953125,&#34;m11&#34;:-81.155868530273438,&#34;m12&#34;:39.713081359863281},&#34;opacity&#34;:1.0,&#34;blendMode&#34;:&#34;NORMAL&#34;,&#34;visible&#34;:true}"/>
<path d="M40.4943 65.4046L53.2845 60.0112L48.5676 50.7479L40.4943 55.388V65.4046Z" fill="url(#paint3_radial_46_2947)"/>
<path d="M48.5679 50.7479L51.3983 41.1388L60.3095 38.728C60.3095 38.728 60.1004 52.147 53.2848 60.0097L48.5679 50.7479Z" fill="url(#paint4_radial_46_2947)"/>
<g clip-path="url(#paint5_diamond_46_2947_clip_path)" data-figma-skip-parse="true"><g transform="matrix(-0.0211402 -0.0178346 0.0391137 -0.0357891 61.633 39.0324)"><rect x="0" y="0" width="1027.07" height="299.915" fill="url(#paint5_diamond_46_2947)" opacity="1" shape-rendering="crispEdges"/><rect x="0" y="0" width="1027.07" height="299.915" transform="scale(1 -1)" fill="url(#paint5_diamond_46_2947)" opacity="1" shape-rendering="crispEdges"/><rect x="0" y="0" width="1027.07" height="299.915" transform="scale(-1 1)" fill="url(#paint5_diamond_46_2947)" opacity="1" shape-rendering="crispEdges"/><rect x="0" y="0" width="1027.07" height="299.915" transform="scale(-1)" fill="url(#paint5_diamond_46_2947)" opacity="1" shape-rendering="crispEdges"/></g></g><path d="M51.398 41.1403C51.398 41.1403 46.4013 34.5015 40.4943 32.4567V20.9057C40.4943 20.9057 55.4154 30.8301 60.3092 38.728L51.398 41.1388V41.1403Z" data-figma-gradient-fill="{&#34;type&#34;:&#34;GRADIENT_DIAMOND&#34;,&#34;stops&#34;:[{&#34;color&#34;:{&#34;r&#34;:0.46274510025978088,&#34;g&#34;:0.46274510025978088,&#34;b&#34;:0.46274510025978088,&#34;a&#34;:1.0},&#34;position&#34;:0.0},{&#34;color&#34;:{&#34;r&#34;:0.30196079611778259,&#34;g&#34;:0.30196079611778259,&#34;b&#34;:0.30196079611778259,&#34;a&#34;:1.0},&#34;position&#34;:0.44791665673255920},{&#34;color&#34;:{&#34;r&#34;:0.21568627655506134,&#34;g&#34;:0.21568627655506134,&#34;b&#34;:0.21568627655506134,&#34;a&#34;:1.0},&#34;position&#34;:1.0}],&#34;stopsVar&#34;:[],&#34;transform&#34;:{&#34;m00&#34;:-42.280353546142578,&#34;m01&#34;:78.227378845214844,&#34;m02&#34;:43.659484863281250,&#34;m10&#34;:-35.669242858886719,&#34;m11&#34;:-71.578193664550781,&#34;m12&#34;:92.656143188476562},&#34;opacity&#34;:1.0,&#34;blendMode&#34;:&#34;NORMAL&#34;,&#34;visible&#34;:true}"/>
<g clip-path="url(#paint6_diamond_46_2947_clip_path)" data-figma-skip-parse="true"><g transform="matrix(0.00307493 0.021217 -0.0268497 0.00389126 37.4179 34.1125)"><rect x="0" y="0" width="1022.47" height="413.543" fill="url(#paint6_diamond_46_2947)" opacity="1" shape-rendering="crispEdges"/><rect x="0" y="0" width="1022.47" height="413.543" transform="scale(1 -1)" fill="url(#paint6_diamond_46_2947)" opacity="1" shape-rendering="crispEdges"/><rect x="0" y="0" width="1022.47" height="413.543" transform="scale(-1 1)" fill="url(#paint6_diamond_46_2947)" opacity="1" shape-rendering="crispEdges"/><rect x="0" y="0" width="1022.47" height="413.543" transform="scale(-1)" fill="url(#paint6_diamond_46_2947)" opacity="1" shape-rendering="crispEdges"/></g></g><path d="M40.4946 32.4567V55.388L32.4229 50.7495L29.5925 41.1403C29.5925 41.1403 32.9472 34.5707 40.4962 32.4567H40.4946Z" data-figma-gradient-fill="{&#34;type&#34;:&#34;GRADIENT_DIAMOND&#34;,&#34;stops&#34;:[{&#34;color&#34;:{&#34;r&#34;:0.55686277151107788,&#34;g&#34;:0.55686277151107788,&#34;b&#34;:0.55686277151107788,&#34;a&#34;:1.0},&#34;position&#34;:0.0},{&#34;color&#34;:{&#34;r&#34;:0.37254902720451355,&#34;g&#34;:0.37254902720451355,&#34;b&#34;:0.37254902720451355,&#34;a&#34;:1.0},&#34;position&#34;:0.66666668653488159},{&#34;color&#34;:{&#34;r&#34;:0.25882354378700256,&#34;g&#34;:0.25882354378700256,&#34;b&#34;:0.25882354378700256,&#34;a&#34;:1.0},&#34;position&#34;:1.0}],&#34;stopsVar&#34;:[],&#34;transform&#34;:{&#34;m00&#34;:6.1498689651489258,&#34;m01&#34;:-53.699413299560547,&#34;m02&#34;:61.192710876464844,&#34;m10&#34;:42.434093475341797,&#34;m11&#34;:7.7825222015380859,&#34;m12&#34;:9.004211425781250},&#34;opacity&#34;:1.0,&#34;blendMode&#34;:&#34;NORMAL&#34;,&#34;visible&#34;:true}"/>
<g clip-path="url(#paint7_diamond_46_2947_clip_path)" data-figma-skip-parse="true"><g transform="matrix(0.0037668 0.00822545 -0.00919244 0.00420962 42.1073 43.9523)"><rect x="0" y="0" width="1631.54" height="1357.76" fill="url(#paint7_diamond_46_2947)" opacity="1" shape-rendering="crispEdges"/><rect x="0" y="0" width="1631.54" height="1357.76" transform="scale(1 -1)" fill="url(#paint7_diamond_46_2947)" opacity="1" shape-rendering="crispEdges"/><rect x="0" y="0" width="1631.54" height="1357.76" transform="scale(-1 1)" fill="url(#paint7_diamond_46_2947)" opacity="1" shape-rendering="crispEdges"/><rect x="0" y="0" width="1631.54" height="1357.76" transform="scale(-1)" fill="url(#paint7_diamond_46_2947)" opacity="1" shape-rendering="crispEdges"/></g></g><path d="M40.4945 32.4567V55.388L48.5662 50.7495L51.3966 41.1403C51.3966 41.1403 48.0419 34.5707 40.4929 32.4567H40.4945Z" data-figma-gradient-fill="{&#34;type&#34;:&#34;GRADIENT_DIAMOND&#34;,&#34;stops&#34;:[{&#34;color&#34;:{&#34;r&#34;:0.7294117808341980,&#34;g&#34;:0.7294117808341980,&#34;b&#34;:0.7294117808341980,&#34;a&#34;:1.0},&#34;position&#34;:0.0},{&#34;color&#34;:{&#34;r&#34;:0.43921568989753723,&#34;g&#34;:0.43921568989753723,&#34;b&#34;:0.43921568989753723,&#34;a&#34;:1.0},&#34;position&#34;:1.0}],&#34;stopsVar&#34;:[],&#34;transform&#34;:{&#34;m00&#34;:7.5335917472839355,&#34;m01&#34;:-18.384874343872070,&#34;m02&#34;:47.532901763916016,&#34;m10&#34;:16.450899124145508,&#34;m11&#34;:8.4192419052124023,&#34;m12&#34;:31.517238616943359},&#34;opacity&#34;:1.0,&#34;blendMode&#34;:&#34;NORMAL&#34;,&#34;visible&#34;:true}"/>
<g style="mix-blend-mode:soft-light">
<path d="M29.5925 41.1403C29.5925 41.1403 37.6642 49.1397 48.5679 50.7495L50.1069 45.5267C50.1069 45.5267 42.5933 39.8134 40.4962 32.4567C39.3385 32.7841 37.9947 33.2869 36.591 34.0772C32.7443 36.2434 30.6149 39.3507 29.5925 41.1403Z" fill="white"/>
</g>
<path d="M29.5925 41.1403C29.5925 41.1403 37.6642 49.1397 48.5679 50.7495L50.1069 45.5267C50.1069 45.5267 42.5933 39.8134 40.4962 32.4567C39.3385 32.7841 37.9947 33.2869 36.591 34.0772C32.7443 36.2434 30.6149 39.3507 29.5925 41.1403Z" fill="url(#paint8_linear_46_2947)"/>
<g style="mix-blend-mode:soft-light">
<path d="M31.6278 48.0528C31.6278 48.0528 40.4052 52.4207 46.1984 52.1102L44.0782 53.3278C44.0782 53.3278 40.1454 54.0935 35.759 52.6667L32.4212 50.7495L31.6263 48.0528H31.6278Z" fill="white"/>
</g>
<g style="mix-blend-mode:soft-light">
<path d="M47.8682 39.9165C47.8682 39.9165 50.734 36.757 53.2847 30.8593C53.2847 30.8593 58.4921 35.3748 60.3094 38.7295C60.3094 38.7295 60.111 45.6066 58.4244 50.0807C58.4244 50.0807 59.3315 46.4876 47.8682 39.918V39.9165Z" fill="white"/>
</g>
<path opacity="0.3" d="M47.8682 39.9165C47.8682 39.9165 50.734 36.757 53.2847 30.8593C53.2847 30.8593 58.4921 35.3748 60.3094 38.7295C60.3094 38.7295 60.111 45.6066 58.4244 50.0807C58.4244 50.0807 59.3315 46.4876 47.8682 39.918V39.9165Z" fill="white"/>
<g style="mix-blend-mode:soft-light" opacity="0.5">
<path d="M40.4945 65.4046C40.4945 65.4046 28.1947 54.2595 29.5907 41.1403C29.5907 41.1403 25.6425 47.2564 27.7043 60.0112L40.4945 65.4046Z" fill="white"/>
</g>
<path d="M40.4945 65.4046C40.4945 65.4046 28.1947 54.2595 29.5907 41.1403C29.5907 41.1403 25.6425 47.2564 27.7043 60.0112L40.4945 65.4046Z" fill="url(#paint9_linear_46_2947)"/>
<g style="mix-blend-mode:soft-light">
<path d="M20.6812 38.728C20.6812 38.728 35.8036 23.0428 37.7347 25.9378C37.7347 25.9378 39.4828 27.1617 40.496 32.4552V20.9057C40.496 20.9057 25.9931 30.3411 20.6812 38.728Z" fill="url(#paint10_linear_46_2947)"/>
</g>
<path opacity="0.8" d="M20.6812 38.728C20.6812 38.728 35.9573 22.9659 37.7347 25.9378C37.7347 25.9378 39.4828 27.1617 40.496 32.4552V20.9057C40.496 20.9057 25.9931 30.3411 20.6812 38.728Z" fill="url(#paint11_linear_46_2947)"/>
<g style="mix-blend-mode:soft-light">
<path d="M48.5679 50.7479L53.2848 57.3898C53.2848 57.3898 59.261 51.1 60.3095 38.728C60.228 41.803 59.8314 44.4136 59.4009 46.4507C58.9012 48.8123 58.3246 50.5373 58.1079 51.1677C57.4698 53.0188 56.6211 55.4249 54.7885 58.0694C54.2042 58.9119 53.6646 59.5699 53.2864 60.0097C51.7135 56.9224 50.1407 53.8352 48.5694 50.7479H48.5679Z" fill="white"/>
</g>
<path opacity="0.7" d="M48.5679 50.7479L53.2848 57.3898C53.2848 57.3898 59.261 51.1 60.3095 38.728C60.228 41.803 59.8314 44.4136 59.4009 46.4507C58.9012 48.8123 58.3246 50.5373 58.1079 51.1677C57.4698 53.0188 56.6211 55.4249 54.7885 58.0694C54.2042 58.9119 53.6646 59.5699 53.2864 60.0097C51.7135 56.9224 50.1407 53.8352 48.5694 50.7479H48.5679Z" fill="white"/>
<g style="mix-blend-mode:soft-light">
<path d="M53.2845 60.0112L40.4943 65.4046C40.4943 65.4046 45.2113 60.8845 53.2845 60.0112Z" fill="white"/>
</g>
<path d="M53.2845 60.0112L40.4943 65.4046C40.4943 65.4046 45.2113 60.8845 53.2845 60.0112Z" fill="url(#paint12_radial_46_2947)"/>
<g style="mix-blend-mode:soft-light">
<path d="M40.4943 32.4567C40.4943 32.4567 47.0286 33.6267 51.398 41.1403C51.398 41.1403 49.3363 31.565 40.4943 32.4567Z" fill="white"/>
</g>
<path d="M40.4943 32.4567C40.4943 32.4567 47.0286 33.6267 51.398 41.1403C51.398 41.1403 49.3363 31.565 40.4943 32.4567Z" fill="url(#paint13_radial_46_2947)"/>
<g style="mix-blend-mode:soft-light">
<path d="M29.5923 41.1403L20.6812 38.7296C20.6812 38.7296 24.8292 37.3628 29.5923 41.1403Z" fill="white"/>
</g>
<path d="M29.5923 41.1403L20.6812 38.7296C20.6812 38.7296 24.8292 37.3628 29.5923 41.1403Z" fill="url(#paint14_radial_46_2947)"/>
<path d="M53.206 55.3296L53.7196 57.8428L56.2329 58.3565L53.7196 58.8702L53.206 61.3835L52.6923 58.8702L50.179 58.3565L52.6923 57.8428L53.206 55.3296Z" fill="white"/>
<g filter="url(#filter1_f_46_2947)">
<path d="M53.206 55.3296L53.7196 57.8428L56.2329 58.3565L53.7196 58.8702L53.206 61.3835L52.6923 58.8702L50.179 58.3565L52.6923 57.8428L53.206 55.3296Z" fill="white"/>
</g>
<path d="M22.5079 34.8813L23.1085 37.82L26.0473 38.4207L23.1085 39.0214L22.5079 41.9601L21.9072 39.0214L18.9684 38.4207L21.9072 37.82L22.5079 34.8813Z" fill="white"/>
<g filter="url(#filter2_f_46_2947)">
<path d="M22.5079 34.8813L23.1085 37.82L26.0473 38.4207L23.1085 39.0214L22.5079 41.9601L21.9072 39.0214L18.9684 38.4207L21.9072 37.82L22.5079 34.8813Z" fill="white"/>
</g>
<path d="M53.2111 29.8076L53.5952 31.6869L55.4745 32.071L53.5952 32.4551L53.2111 34.3344L52.827 32.4551L50.9478 32.071L52.827 31.6869L53.2111 29.8076Z" fill="white"/>
<g filter="url(#filter3_f_46_2947)">
<path d="M53.2111 29.8076L53.5952 31.6869L55.4745 32.071L53.5952 32.4551L53.2111 34.3344L52.827 32.4551L50.9478 32.071L52.827 31.6869L53.2111 29.8076Z" fill="white"/>
</g>
<g style="mix-blend-mode:overlay" filter="url(#filter4_f_46_2947)">
<g style="mix-blend-mode:lighten">
<path d="M34.4999 35.0829C34.4754 34.9746 34.5436 34.8646 34.6519 34.8401C34.7603 34.8157 34.8703 34.8838 34.8948 34.9921C34.9193 35.1003 34.8511 35.2104 34.7428 35.2348C34.6345 35.2593 34.5244 35.1912 34.4999 35.0829Z" fill="#FFFBFC"/>
</g>
<g style="mix-blend-mode:lighten">
<path d="M50.1324 48.8861C50.094 48.7202 50.1988 48.5543 50.3648 48.5176C50.5308 48.4792 50.6968 48.584 50.7335 48.7499C50.7719 48.9158 50.6671 49.0817 50.5011 49.1184C50.3351 49.1568 50.1691 49.052 50.1324 48.8861Z" fill="#FFFBFC"/>
</g>
<g style="mix-blend-mode:lighten">
<path d="M30.8935 37.7898C30.8534 37.6099 30.9652 37.4301 31.1452 37.3899C31.3251 37.3497 31.5051 37.4615 31.5453 37.6414C31.5855 37.8213 31.4737 38.0011 31.2937 38.0413C31.1137 38.0815 30.9337 37.9697 30.8935 37.7898Z" fill="#FFFBFC"/>
</g>
<g style="mix-blend-mode:lighten">
<path d="M35.4085 39.73C35.557 39.9151 35.529 40.1858 35.3438 40.336C35.1586 40.4845 34.8878 40.4565 34.7375 40.2714C34.589 40.0863 34.6169 39.8156 34.8022 39.6654C34.9874 39.5169 35.2582 39.5449 35.4085 39.73Z" fill="#FFFBFC"/>
</g>
<g style="mix-blend-mode:lighten">
<path d="M36.9653 39.2654C37.0911 39.4226 37.0666 39.6514 36.9094 39.7772C36.7521 39.9029 36.5232 39.8784 36.3974 39.7213C36.2716 39.5641 36.2961 39.3353 36.4533 39.2096C36.6106 39.0838 36.8395 39.1083 36.9653 39.2654Z" fill="#FFFBFC"/>
</g>
<g style="mix-blend-mode:lighten">
<path d="M37.0231 36.983C37.086 37.0616 37.0738 37.1786 36.9952 37.2415C36.9165 37.3043 36.7995 37.2921 36.7366 37.2135C36.6737 37.1349 36.6859 37.0179 36.7645 36.9551C36.8432 36.8922 36.9602 36.9044 37.0231 36.983Z" fill="#FFFBFC"/>
</g>
<g style="mix-blend-mode:lighten">
<path d="M41.4981 42.388C41.4719 42.2814 41.5383 42.1732 41.6449 42.147C41.7515 42.1208 41.8598 42.1871 41.886 42.2937C41.9122 42.4002 41.8458 42.5085 41.7392 42.5347C41.6326 42.5609 41.5243 42.4945 41.4981 42.388Z" fill="#FFFBFC"/>
</g>
<g style="mix-blend-mode:lighten">
<path d="M38.185 39.0804C38.1553 38.9564 38.2322 38.8306 38.3563 38.8009C38.4803 38.7712 38.6061 38.8481 38.6358 38.9721C38.6655 39.0961 38.5887 39.2218 38.4646 39.2515C38.3405 39.2812 38.2147 39.2044 38.185 39.0804Z" fill="#FFFBFC"/>
</g>
<g style="mix-blend-mode:lighten">
<path d="M27.7441 48.1731C27.6882 47.9425 27.8315 47.7103 28.0621 47.6544C28.2928 47.5985 28.5251 47.7417 28.5811 47.9722C28.637 48.2028 28.4937 48.435 28.263 48.4909C28.0324 48.5468 27.8 48.4036 27.7441 48.1731Z" fill="#FFFBFC"/>
</g>
<g style="mix-blend-mode:lighten">
<path d="M46.3498 57.7702C46.5123 57.7405 46.6696 57.8471 46.6993 58.0095C46.729 58.1719 46.6224 58.3291 46.4599 58.3588C46.2974 58.3885 46.1401 58.2819 46.1104 58.1195C46.0807 57.9571 46.1873 57.7999 46.3498 57.7702Z" fill="#FFFBFC"/>
</g>
<g style="mix-blend-mode:lighten">
<path d="M37.3849 57.9007C37.4898 57.8815 37.5893 57.9496 37.6086 58.0544C37.6278 58.1592 37.5596 58.2587 37.4548 58.2779C37.35 58.2971 37.2504 58.229 37.2311 58.1242C37.2119 58.0195 37.2801 57.9199 37.3849 57.9007Z" fill="#FFFBFC"/>
</g>
<g style="mix-blend-mode:lighten">
<path d="M37.7919 55.6444C38.0156 55.6024 38.2288 55.7491 38.2707 55.9727C38.3126 56.1962 38.1659 56.4093 37.9422 56.4512C37.7186 56.4931 37.5054 56.3464 37.4634 56.1229C37.4215 55.8993 37.5683 55.6863 37.7919 55.6444Z" fill="#FFFBFC"/>
</g>
<g style="mix-blend-mode:lighten">
<path d="M36.3574 54.4814C36.5705 54.4412 36.7767 54.5827 36.8169 54.7957C36.8571 55.0088 36.7156 55.2149 36.5024 55.255C36.2892 55.2952 36.083 55.1538 36.0428 54.9407C36.0026 54.7276 36.1442 54.5215 36.3574 54.4814Z" fill="#FFFBFC"/>
</g>
<g style="mix-blend-mode:lighten">
<path d="M36.6562 53.0266C36.8361 52.9934 37.0109 53.1122 37.0441 53.2921C37.0773 53.472 36.9585 53.6466 36.7785 53.6798C36.5985 53.713 36.4238 53.5942 36.3906 53.4143C36.3574 53.2344 36.4762 53.0598 36.6562 53.0266Z" fill="#FFFBFC"/>
</g>
<g style="mix-blend-mode:lighten">
<path d="M34.8407 51.9946C34.9315 51.9772 35.0206 52.0383 35.0364 52.1291C35.0538 52.2199 34.9927 52.309 34.9018 52.3247C34.8109 52.3422 34.7218 52.281 34.7061 52.1902C34.6886 52.0994 34.7498 52.0103 34.8407 51.9946Z" fill="#FFFBFC"/>
</g>
<g style="mix-blend-mode:lighten">
<path d="M42.3803 39.1029C42.5043 39.2584 42.4799 39.4837 42.3261 39.6077C42.1706 39.7317 41.9452 39.7072 41.8211 39.5535C41.6971 39.3981 41.7215 39.1728 41.8753 39.0488C42.0308 38.9248 42.2562 38.9493 42.3803 39.1029Z" fill="#FFFBFC"/>
</g>
<path d="M45.2042 35.509C45.2723 35.5929 45.2583 35.7151 45.1745 35.7832C45.0906 35.8513 44.9683 35.8374 44.9001 35.7535C44.832 35.6697 44.846 35.5475 44.9298 35.4793C45.0137 35.4112 45.136 35.4252 45.2042 35.509Z" fill="#FFFBFC"/>
</g>
<g style="mix-blend-mode:lighten">
<path d="M50.1326 48.8855C50.0941 48.7196 50.199 48.5537 50.365 48.517C50.531 48.4786 50.697 48.5833 50.7337 48.7493C50.7721 48.9152 50.6673 49.0811 50.5013 49.1178C50.3353 49.1562 50.1693 49.0514 50.1326 48.8855Z" fill="#FFFBFC"/>
</g>
<g style="mix-blend-mode:lighten">
<path d="M30.8943 37.789C30.8542 37.6091 30.966 37.4293 31.146 37.3891C31.3259 37.3489 31.5059 37.4607 31.5461 37.6406C31.5863 37.8205 31.4745 38.0003 31.2945 38.0405C31.1145 38.0807 30.9345 37.9689 30.8943 37.789Z" fill="#FFFBFC"/>
</g>
<g style="mix-blend-mode:lighten">
<path d="M35.4086 39.7307C35.5571 39.9158 35.5292 40.1865 35.3439 40.3367C35.1587 40.4851 34.8879 40.4572 34.7376 40.2721C34.5891 40.0869 34.6171 39.8162 34.8023 39.666C34.9875 39.5176 35.2583 39.5455 35.4086 39.7307Z" fill="#FFFBFC"/>
</g>
<g style="mix-blend-mode:lighten">
<path d="M38.9116 41.7404C39.0374 41.8976 39.013 42.1264 38.8557 42.2521C38.6985 42.3779 38.4696 42.3534 38.3438 42.1962C38.2179 42.0391 38.2424 41.8103 38.3997 41.6845C38.5569 41.5588 38.7858 41.5832 38.9116 41.7404Z" fill="#FFFBFC"/>
</g>
<g style="mix-blend-mode:lighten">
<path d="M37.023 36.9823C37.0859 37.0609 37.0737 37.1779 36.9951 37.2408C36.9164 37.3037 36.7994 37.2915 36.7365 37.2129C36.6735 37.1343 36.6858 37.0173 36.7644 36.9544C36.843 36.8915 36.9601 36.9037 37.023 36.9823Z" fill="#FFFBFC"/>
</g>
<g style="mix-blend-mode:lighten">
<path d="M41.4976 42.3886C41.4714 42.282 41.5378 42.1738 41.6444 42.1476C41.751 42.1214 41.8593 42.1877 41.8855 42.2943C41.9117 42.4008 41.8453 42.5091 41.7387 42.5353C41.6321 42.5615 41.5238 42.4951 41.4976 42.3886Z" fill="#FFFBFC"/>
</g>
<g style="mix-blend-mode:lighten">
<path d="M38.1857 39.08C38.156 38.956 38.2329 38.8303 38.3569 38.8006C38.481 38.7709 38.6068 38.8477 38.6365 38.9717C38.6662 39.0957 38.5893 39.2215 38.4653 39.2511C38.3412 39.2808 38.2154 39.204 38.1857 39.08Z" fill="#FFFBFC"/>
</g>
<g style="mix-blend-mode:lighten">
<path d="M35.8887 42.2175C35.8468 42.0411 35.9551 41.8647 36.1316 41.821C36.3081 41.7791 36.4845 41.8874 36.5282 42.0638C36.5702 42.2402 36.4618 42.4166 36.2854 42.4602C36.1089 42.5021 35.9324 42.3939 35.8887 42.2175Z" fill="#FFFBFC"/>
</g>
<g style="mix-blend-mode:lighten">
<path d="M34.7855 44.71C34.7576 44.5964 34.8275 44.4847 34.941 44.4567C35.0546 44.4288 35.1664 44.4986 35.1944 44.6122C35.2223 44.7257 35.1525 44.8374 35.0389 44.8654C34.9253 44.8933 34.8135 44.8235 34.7855 44.71Z" fill="#FFFBFC"/>
</g>
<g style="mix-blend-mode:lighten">
<path d="M28.9127 41.4452C28.855 41.2042 29.0036 40.9614 29.2447 40.9038C29.4858 40.8461 29.7287 40.9946 29.7864 41.2356C29.844 41.4766 29.6955 41.7194 29.4544 41.777C29.2132 41.8346 28.9704 41.6862 28.9127 41.4452Z" fill="#FFFBFC"/>
</g>
<g style="mix-blend-mode:lighten">
<path d="M28.9134 41.4462C28.8557 41.2051 29.0042 40.9624 29.2454 40.9048C29.4865 40.8471 29.7294 40.9956 29.787 41.2366C29.8447 41.4776 29.6962 41.7203 29.455 41.778C29.2139 41.8356 28.971 41.6872 28.9134 41.4462Z" fill="#FFFBFC"/>
</g>
<g style="mix-blend-mode:lighten">
<path d="M27.7441 48.1731C27.6882 47.9425 27.8315 47.7103 28.0621 47.6544C28.2928 47.5985 28.5251 47.7417 28.5811 47.9722C28.637 48.2028 28.4937 48.435 28.263 48.4909C28.0324 48.5468 27.8 48.4036 27.7441 48.1731Z" fill="#FFFBFC"/>
</g>
<g style="mix-blend-mode:lighten">
<path d="M46.3503 57.7703C46.5128 57.7407 46.6701 57.8472 46.6998 58.0096C46.7295 58.172 46.6229 58.3292 46.4604 58.3589C46.2979 58.3886 46.1406 58.2821 46.1109 58.1196C46.0812 57.9572 46.1878 57.8 46.3503 57.7703Z" fill="#FFFBFC"/>
</g>
<g style="mix-blend-mode:lighten">
<path d="M37.3845 57.9005C37.4893 57.8813 37.5889 57.9494 37.6081 58.0542C37.6274 58.159 37.5592 58.2585 37.4544 58.2778C37.3495 58.297 37.2499 58.2289 37.2307 58.1241C37.2115 58.0193 37.2796 57.9197 37.3845 57.9005Z" fill="#FFFBFC"/>
</g>
<g style="mix-blend-mode:lighten">
<path d="M37.7924 55.6452C38.0161 55.6033 38.2293 55.75 38.2712 55.9735C38.3131 56.1971 38.1664 56.4102 37.9427 56.4521C37.719 56.494 37.5059 56.3473 37.4639 56.1237C37.422 55.9002 37.5688 55.6871 37.7924 55.6452Z" fill="#FFFBFC"/>
</g>
<g style="mix-blend-mode:lighten">
<path d="M36.3577 54.4806C36.5709 54.4404 36.7771 54.5819 36.8173 54.7949C36.8575 55.008 36.7159 55.2141 36.5027 55.2543C36.2896 55.2944 36.0834 55.153 36.0432 54.9399C36.003 54.7268 36.1445 54.5207 36.3577 54.4806Z" fill="#FFFBFC"/>
</g>
<g style="mix-blend-mode:lighten">
<path d="M36.6557 53.0265C36.8357 52.9933 37.0104 53.1121 37.0436 53.292C37.0768 53.4718 36.958 53.6465 36.778 53.6797C36.5981 53.7128 36.4233 53.5941 36.3901 53.4142C36.3569 53.2343 36.4758 53.0597 36.6557 53.0265Z" fill="#FFFBFC"/>
</g>
<g style="mix-blend-mode:lighten">
<path d="M34.841 51.9949C34.9318 51.9774 35.0209 52.0385 35.0367 52.1293C35.0541 52.2202 34.993 52.3092 34.9021 52.3249C34.8113 52.3424 34.7221 52.2813 34.7064 52.1905C34.6889 52.0997 34.7501 52.0106 34.841 51.9949Z" fill="#FFFBFC"/>
</g>
<g style="mix-blend-mode:lighten">
<path d="M42.3809 39.1023C42.5049 39.2577 42.4805 39.483 42.3267 39.607C42.1712 39.731 41.9458 39.7065 41.8217 39.5529C41.6977 39.3974 41.7221 39.1721 41.8759 39.0481C42.0314 38.9241 42.2568 38.9486 42.3809 39.1023Z" fill="#FFFBFC"/>
</g>
<path d="M45.2045 35.5096C45.2727 35.5935 45.2587 35.7157 45.1748 35.7838C45.091 35.8519 44.9686 35.838 44.9005 35.7541C44.8324 35.6703 44.8463 35.5481 44.9302 35.48C45.0141 35.4118 45.1364 35.4258 45.2045 35.5096Z" fill="#FFFBFC"/>
<path d="M29.1923 34.434L29.2914 34.9214L29.7764 35.0211L29.2914 35.1207L29.1923 35.6081L29.0932 35.1207L28.6082 35.0211L29.0932 34.9214L29.1923 34.434Z" fill="white"/>
<g filter="url(#filter5_f_46_2947)">
<path d="M29.1923 34.434L29.2914 34.9214L29.7764 35.0211L29.2914 35.1207L29.1923 35.6081L29.0932 35.1207L28.6082 35.0211L29.0932 34.9214L29.1923 34.434Z" fill="white"/>
</g>
<path d="M54.7084 49.1267L55.049 49.4877L55.513 49.3146L55.1538 49.6568L55.3261 50.1232L54.9855 49.7622L54.5214 49.9353L54.8807 49.5931L54.7084 49.1267Z" fill="white"/>
<g filter="url(#filter6_f_46_2947)">
<path d="M54.7084 49.1267L55.049 49.4877L55.513 49.3146L55.1538 49.6568L55.3261 50.1232L54.9855 49.7622L54.5214 49.9353L54.8807 49.5931L54.7084 49.1267Z" fill="white"/>
</g>
<path d="M29.8752 53.0622L30.0732 53.5182L30.5682 53.5141L30.1145 53.713L30.1186 54.2105L29.9206 53.7546L29.4256 53.7587L29.8793 53.5597L29.8752 53.0622Z" fill="white"/>
<g filter="url(#filter7_f_46_2947)">
<path d="M29.8752 53.0622L30.0732 53.5182L30.5682 53.5141L30.1145 53.713L30.1186 54.2105L29.9206 53.7546L29.4256 53.7587L29.8793 53.5597L29.8752 53.0622Z" fill="white"/>
</g>
</g>
<g style="mix-blend-mode:overlay" filter="url(#filter8_f_46_2947)">
<g style="mix-blend-mode:lighten">
<path d="M24.693 13.7509C24.6413 13.5221 24.7853 13.2896 25.0142 13.2379C25.243 13.1863 25.4756 13.3302 25.5273 13.559C25.579 13.7878 25.435 14.0204 25.2061 14.072C24.9772 14.1237 24.7447 13.9798 24.693 13.7509Z" fill="#FFFBFC"/>
</g>
<g style="mix-blend-mode:lighten">
<path d="M57.7188 42.9224C57.6375 42.5718 57.859 42.2212 58.2097 42.1437C58.5604 42.0625 58.9111 42.2839 58.9886 42.6345C59.0698 42.9852 58.8483 43.3358 58.4976 43.4133C58.147 43.4945 57.7963 43.273 57.7188 42.9224Z" fill="#FFFBFC"/>
</g>
<g style="mix-blend-mode:lighten">
<path d="M17.0741 19.4717C16.9892 19.0916 17.2254 18.7115 17.6057 18.6266C17.9859 18.5417 18.3661 18.7779 18.451 19.158C18.5359 19.5382 18.2997 19.9183 17.9194 20.0032C17.5392 20.0881 17.159 19.8519 17.0741 19.4717Z" fill="#FFFBFC"/>
</g>
<g style="mix-blend-mode:lighten">
<path d="M26.6127 23.5721C26.9264 23.9633 26.8674 24.5353 26.4761 24.8527C26.0848 25.1665 25.5126 25.1074 25.1951 24.7162C24.8814 24.325 24.9404 23.7529 25.3317 23.4355C25.723 23.1218 26.2952 23.1809 26.6127 23.5721Z" fill="#FFFBFC"/>
</g>
<g style="mix-blend-mode:lighten">
<path d="M29.9015 22.5903C30.1673 22.9225 30.1156 23.406 29.7834 23.6717C29.4512 23.9374 28.9676 23.8858 28.7018 23.5536C28.436 23.2214 28.4877 22.7379 28.8199 22.4722C29.1522 22.2065 29.6357 22.2582 29.9015 22.5903Z" fill="#FFFBFC"/>
</g>
<g style="mix-blend-mode:lighten">
<path d="M30.0235 17.7667C30.1564 17.9328 30.1306 18.1801 29.9644 18.313C29.7983 18.4458 29.551 18.42 29.4181 18.2539C29.2852 18.0878 29.311 17.8406 29.4772 17.7077C29.6433 17.5748 29.8906 17.6007 30.0235 17.7667Z" fill="#FFFBFC"/>
</g>
<g style="mix-blend-mode:lighten">
<path d="M39.4778 29.1894C39.4224 28.9642 39.5627 28.7354 39.7879 28.6801C40.013 28.6247 40.2419 28.7649 40.2973 28.9901C40.3527 29.2152 40.2124 29.444 39.9872 29.4994C39.762 29.5548 39.5332 29.4145 39.4778 29.1894Z" fill="#FFFBFC"/>
</g>
<g style="mix-blend-mode:lighten">
<path d="M32.4784 22.1991C32.4157 21.9371 32.5781 21.6714 32.8402 21.6086C33.1023 21.5459 33.3681 21.7083 33.4308 21.9703C33.4936 22.2324 33.3312 22.4981 33.0691 22.5608C32.807 22.6236 32.5412 22.4612 32.4784 22.1991Z" fill="#FFFBFC"/>
</g>
<g style="mix-blend-mode:lighten">
<path d="M25.0111 28.8277C24.9225 28.4549 25.1514 28.0821 25.5242 27.9899C25.8971 27.9013 26.2699 28.1301 26.3622 28.5029C26.4508 28.8756 26.2219 29.2484 25.8491 29.3407C25.4762 29.4292 25.1034 29.2004 25.0111 28.8277Z" fill="#FFFBFC"/>
</g>
<g style="mix-blend-mode:lighten">
<path d="M23.8034 34.0977C23.7444 33.8578 23.892 33.6216 24.132 33.5625C24.3719 33.5035 24.6082 33.6511 24.6672 33.891C24.7263 34.1309 24.5786 34.3671 24.3387 34.4261C24.0987 34.4852 23.8625 34.3376 23.8034 34.0977Z" fill="#FFFBFC"/>
</g>
<g style="mix-blend-mode:lighten">
<path d="M17.4913 24.4746C17.3695 23.9653 17.6833 23.4523 18.1927 23.3305C18.7021 23.2087 19.2152 23.5224 19.3371 24.0317C19.4589 24.5411 19.1451 25.0541 18.6357 25.1759C18.1263 25.2976 17.6132 24.9839 17.4913 24.4746Z" fill="#FFFBFC"/>
</g>
<g style="mix-blend-mode:lighten">
<path d="M20.4433 39.5579C20.3252 39.0707 20.6279 38.5798 21.1152 38.4617C21.6025 38.3436 22.0934 38.6463 22.2116 39.1334C22.3297 39.6206 22.027 40.1115 21.5397 40.2296C21.0524 40.3477 20.5615 40.045 20.4433 39.5579Z" fill="#FFFBFC"/>
</g>
<g style="mix-blend-mode:lighten">
<path d="M12.6373 36.3492C12.5377 35.9359 12.7924 35.5188 13.2058 35.4228C13.6193 35.3232 14.0364 35.5779 14.1324 35.9912C14.232 36.4046 13.9773 36.8216 13.5639 36.9176C13.1504 37.0172 12.7333 36.7626 12.6373 36.3492Z" fill="#FFFBFC"/>
</g>
<g style="mix-blend-mode:lighten">
<path d="M10.4627 40.6599C10.4111 40.4495 10.5403 40.2429 10.7507 40.1912C10.9611 40.1395 11.1678 40.2687 11.2195 40.4791C11.2712 40.6894 11.142 40.8961 10.9316 40.9478C10.7211 40.9995 10.5144 40.8703 10.4627 40.6599Z" fill="#FFFBFC"/>
</g>
<g style="mix-blend-mode:lighten">
<path d="M49.7276 61.6979C50.071 61.6351 50.4032 61.8603 50.4659 62.2035C50.5287 62.5467 50.3035 62.8789 49.9602 62.9416C49.6169 63.0044 49.2847 62.7792 49.2219 62.436C49.1592 62.0928 49.3843 61.7606 49.7276 61.6979Z" fill="#FFFBFC"/>
</g>
<g style="mix-blend-mode:lighten">
<path d="M30.788 61.9737C31.0095 61.9331 31.2199 62.077 31.2605 62.2985C31.3011 62.5199 31.1571 62.7303 30.9357 62.7709C30.7142 62.8115 30.5038 62.6676 30.4631 62.4461C30.4225 62.2247 30.5665 62.0143 30.788 61.9737Z" fill="#FFFBFC"/>
</g>
<g style="mix-blend-mode:lighten">
<path d="M31.6479 57.2052C32.1205 57.1166 32.5708 57.4266 32.6594 57.899C32.748 58.3714 32.4379 58.8217 31.9654 58.9103C31.4929 58.9988 31.0425 58.6888 30.9539 58.2164C30.8654 57.744 31.1754 57.2937 31.6479 57.2052Z" fill="#FFFBFC"/>
</g>
<g style="mix-blend-mode:lighten">
<path d="M28.617 54.7473C29.0673 54.6624 29.5029 54.9614 29.5878 55.4116C29.6727 55.8619 29.3737 56.2974 28.9234 56.3823C28.473 56.4672 28.0374 56.1682 27.9525 55.718C27.8676 55.2677 28.1666 54.8322 28.617 54.7473Z" fill="#FFFBFC"/>
</g>
<g style="mix-blend-mode:lighten">
<path d="M29.2484 51.6729C29.6287 51.6028 29.9978 51.8538 30.068 52.2339C30.1381 52.6141 29.8871 52.9831 29.5069 53.0533C29.1266 53.1234 28.7575 52.8724 28.6873 52.4923C28.6172 52.1121 28.8682 51.7431 29.2484 51.6729Z" fill="#FFFBFC"/>
</g>
<g style="mix-blend-mode:lighten">
<path d="M25.413 49.4919C25.605 49.455 25.7933 49.5842 25.8265 49.7761C25.8634 49.968 25.7342 50.1562 25.5422 50.1894C25.3503 50.2263 25.162 50.0972 25.1288 49.9053C25.0919 49.7133 25.2211 49.5251 25.413 49.4919Z" fill="#FFFBFC"/>
</g>
<g style="mix-blend-mode:lighten">
<path d="M33.4418 16.231C33.6633 16.5041 33.619 16.9027 33.3458 17.1241C33.0727 17.3456 32.674 17.3013 32.4525 17.0282C32.231 16.7551 32.2753 16.3565 32.5485 16.135C32.8216 15.9136 33.2203 15.9579 33.4418 16.231Z" fill="#FFFBFC"/>
</g>
<g style="mix-blend-mode:lighten">
<path d="M41.3416 22.2469C41.6037 22.5753 41.5521 23.0514 41.2272 23.3135C40.8987 23.5755 40.4225 23.5238 40.1604 23.1991C39.8983 22.8706 39.95 22.3945 40.2748 22.1325C40.6034 21.8704 41.0796 21.9221 41.3416 22.2469Z" fill="#FFFBFC"/>
</g>
<path d="M40.5408 16.9658C40.6847 17.1466 40.6589 17.4087 40.478 17.5563C40.2971 17.7002 40.035 17.6744 39.8874 17.4936C39.7434 17.3127 39.7693 17.0507 39.9501 16.903C40.131 16.7591 40.3931 16.7849 40.5408 16.9658Z" fill="#FFFBFC"/>
<path d="M47.3073 14.6516C47.4512 14.8287 47.4217 15.0871 47.2445 15.231C47.0673 15.3749 46.8089 15.3454 46.665 15.1683C46.521 14.9911 46.5505 14.7328 46.7277 14.5888C46.9049 14.4449 47.1633 14.4744 47.3073 14.6516Z" fill="#FFFBFC"/>
</g>
<g style="mix-blend-mode:lighten">
<path d="M24.6929 13.7509C24.6412 13.5221 24.7852 13.2896 25.014 13.2379C25.2429 13.1863 25.4755 13.3302 25.5272 13.559C25.5788 13.7878 25.4349 14.0204 25.206 14.072C24.9771 14.1237 24.7446 13.9798 24.6929 13.7509Z" fill="#FFFBFC"/>
</g>
<g style="mix-blend-mode:lighten">
<path d="M57.7187 42.9224C57.6375 42.5718 57.859 42.2212 58.2097 42.1437C58.5603 42.0625 58.911 42.2839 58.9886 42.6345C59.0698 42.9852 58.8483 43.3358 58.4976 43.4133C58.1469 43.4945 57.7962 43.273 57.7187 42.9224Z" fill="#FFFBFC"/>
</g>
<g style="mix-blend-mode:lighten">
<path d="M17.074 19.4717C16.9891 19.0915 17.2254 18.7114 17.6056 18.6265C17.9858 18.5416 18.366 18.7778 18.4509 19.158C18.5358 19.5381 18.2996 19.9183 17.9194 20.0031C17.5392 20.088 17.1589 19.8518 17.074 19.4717Z" fill="#FFFBFC"/>
</g>
<g style="mix-blend-mode:lighten">
<path d="M26.6124 23.5721C26.9261 23.9634 26.8671 24.5354 26.4758 24.8528C26.0845 25.1665 25.5123 25.1075 25.1948 24.7163C24.8811 24.325 24.9401 23.753 25.3314 23.4356C25.7227 23.1219 26.2949 23.1809 26.6124 23.5721Z" fill="#FFFBFC"/>
</g>
<g style="mix-blend-mode:lighten">
<path d="M29.9014 22.5903C30.1672 22.9224 30.1155 23.4059 29.7833 23.6716C29.451 23.9374 28.9675 23.8857 28.7017 23.5535C28.4359 23.2214 28.4876 22.7379 28.8198 22.4722C29.152 22.2064 29.6356 22.2581 29.9014 22.5903Z" fill="#FFFBFC"/>
</g>
<g style="mix-blend-mode:lighten">
<path d="M30.0234 17.7667C30.1563 17.9328 30.1305 18.1801 29.9644 18.313C29.7983 18.4458 29.5509 18.42 29.418 18.2539C29.2851 18.0878 29.311 17.8406 29.4771 17.7077C29.6432 17.5748 29.8905 17.6007 30.0234 17.7667Z" fill="#FFFBFC"/>
</g>
<g style="mix-blend-mode:lighten">
<path d="M39.4775 29.1893C39.4221 28.9642 39.5624 28.7354 39.7876 28.68C40.0127 28.6246 40.2416 28.7649 40.297 28.99C40.3524 29.2151 40.2121 29.444 39.9869 29.4993C39.7617 29.5547 39.5329 29.4144 39.4775 29.1893Z" fill="#FFFBFC"/>
</g>
<g style="mix-blend-mode:lighten">
<path d="M32.4783 22.1991C32.4156 21.9371 32.578 21.6714 32.8401 21.6086C33.1022 21.5459 33.368 21.7083 33.4307 21.9703C33.4935 22.2324 33.331 22.4981 33.069 22.5608C32.8069 22.6236 32.5411 22.4612 32.4783 22.1991Z" fill="#FFFBFC"/>
</g>
<g style="mix-blend-mode:lighten">
<path d="M25.0107 28.8277C24.9221 28.4549 25.151 28.0821 25.5239 27.9899C25.8967 27.9013 26.2695 28.1301 26.3618 28.5029C26.4504 28.8756 26.2215 29.2484 25.8487 29.3407C25.4759 29.4292 25.103 29.2004 25.0107 28.8277Z" fill="#FFFBFC"/>
</g>
<g style="mix-blend-mode:lighten">
<path d="M23.8033 34.098C23.7442 33.8581 23.8919 33.6219 24.1318 33.5629C24.3718 33.5038 24.608 33.6515 24.6671 33.8913C24.7262 34.1312 24.5785 34.3674 24.3386 34.4265C24.0986 34.4856 23.8624 34.3379 23.8033 34.098Z" fill="#FFFBFC"/>
</g>
<g style="mix-blend-mode:lighten">
<path d="M17.4912 24.4746C17.3694 23.9653 17.6832 23.4523 18.1926 23.3305C18.702 23.2087 19.2151 23.5224 19.3369 24.0317C19.4588 24.5411 19.145 25.0541 18.6356 25.1759C18.1261 25.2976 17.613 24.9839 17.4912 24.4746Z" fill="#FFFBFC"/>
</g>
<g style="mix-blend-mode:lighten">
<path d="M20.4432 39.5579C20.3251 39.0707 20.6278 38.5798 21.1151 38.4617C21.6023 38.3436 22.0933 38.6463 22.2114 39.1334C22.3296 39.6206 22.0269 40.1115 21.5396 40.2296C21.0523 40.3477 20.5614 40.045 20.4432 39.5579Z" fill="#FFFBFC"/>
</g>
<g style="mix-blend-mode:lighten">
<path d="M12.6369 36.3492C12.5372 35.9359 12.7919 35.5188 13.2054 35.4228C13.6188 35.3232 14.036 35.5779 14.1319 35.9912C14.2316 36.4046 13.9769 36.8216 13.5635 36.9176C13.15 37.0172 12.7329 36.7626 12.6369 36.3492Z" fill="#FFFBFC"/>
</g>
<g style="mix-blend-mode:lighten">
<path d="M10.4624 40.6599C10.4108 40.4495 10.54 40.2429 10.7504 40.1912C10.9608 40.1395 11.1675 40.2687 11.2192 40.4791C11.2709 40.6894 11.1417 40.8961 10.9312 40.9478C10.7208 40.9995 10.5141 40.8703 10.4624 40.6599Z" fill="#FFFBFC"/>
</g>
<g style="mix-blend-mode:lighten">
<path d="M49.7273 61.6982C50.0706 61.6355 50.4029 61.8606 50.4656 62.2039C50.5284 62.5471 50.3032 62.8793 49.9599 62.942C49.6166 63.0047 49.2844 62.7796 49.2216 62.4364C49.1589 62.0931 49.384 61.761 49.7273 61.6982Z" fill="#FFFBFC"/>
</g>
<g style="mix-blend-mode:lighten">
<path d="M30.7879 61.9737C31.0094 61.9331 31.2198 62.077 31.2604 62.2985C31.301 62.5199 31.157 62.7303 30.9355 62.7709C30.714 62.8115 30.5036 62.6676 30.463 62.4461C30.4224 62.2247 30.5664 62.0143 30.7879 61.9737Z" fill="#FFFBFC"/>
</g>
<g style="mix-blend-mode:lighten">
<path d="M31.6476 57.2052C32.1201 57.1166 32.5705 57.4266 32.6591 57.899C32.7477 58.3714 32.4376 58.8217 31.9651 58.9103C31.4926 58.9988 31.0422 58.6888 30.9536 58.2164C30.865 57.744 31.1751 57.2937 31.6476 57.2052Z" fill="#FFFBFC"/>
</g>
<g style="mix-blend-mode:lighten">
<path d="M28.6169 54.7473C29.0672 54.6624 29.5028 54.9614 29.5877 55.4116C29.6726 55.8619 29.3736 56.2974 28.9233 56.3823C28.4729 56.4672 28.0373 56.1682 27.9524 55.718C27.8675 55.2677 28.1665 54.8322 28.6169 54.7473Z" fill="#FFFBFC"/>
</g>
<g style="mix-blend-mode:lighten">
<path d="M29.2483 51.6729C29.6285 51.6028 29.9977 51.8538 30.0678 52.2339C30.138 52.6141 29.887 52.9831 29.5067 53.0533C29.1265 53.1234 28.7574 52.8724 28.6872 52.4923C28.6171 52.1121 28.8681 51.7431 29.2483 51.6729Z" fill="#FFFBFC"/>
</g>
<g style="mix-blend-mode:lighten">
<path d="M25.4129 49.4919C25.6049 49.455 25.7931 49.5842 25.8264 49.7761C25.8633 49.968 25.7341 50.1562 25.5421 50.1894C25.3502 50.2263 25.1619 50.0972 25.1287 49.9053C25.0918 49.7133 25.221 49.5251 25.4129 49.4919Z" fill="#FFFBFC"/>
</g>
<g style="mix-blend-mode:lighten">
<path d="M33.4415 16.2314C33.663 16.5045 33.6187 16.9031 33.3455 17.1245C33.0724 17.3459 32.6737 17.3017 32.4522 17.0285C32.2307 16.7554 32.275 16.3568 32.5482 16.1354C32.8213 15.914 33.22 15.9582 33.4415 16.2314Z" fill="#FFFBFC"/>
</g>
<g style="mix-blend-mode:lighten">
<path d="M41.3415 22.2469C41.6036 22.5753 41.5519 23.0514 41.227 23.3135C40.8985 23.5755 40.4223 23.5238 40.1602 23.1991C39.8981 22.8706 39.9498 22.3945 40.2746 22.1325C40.6032 21.8704 41.0794 21.9221 41.3415 22.2469Z" fill="#FFFBFC"/>
</g>
<path d="M40.5406 16.9657C40.6846 17.1466 40.6587 17.4086 40.4778 17.5562C40.2969 17.7002 40.0349 17.6743 39.8872 17.4935C39.7432 17.3127 39.7691 17.0506 39.95 16.903C40.1308 16.759 40.3929 16.7849 40.5406 16.9657Z" fill="#FFFBFC"/>
<path d="M47.3071 14.6516C47.4511 14.8287 47.4216 15.0871 47.2444 15.231C47.0672 15.3749 46.8088 15.3454 46.6648 15.1683C46.5209 14.9911 46.5504 14.7328 46.7276 14.5888C46.9048 14.4449 47.1632 14.4744 47.3071 14.6516Z" fill="#FFFBFC"/>
<mask id="path-123-outside-1_46_2947" maskUnits="userSpaceOnUse" x="17" y="35" width="47" height="17" fill="black">
<rect fill="white" x="17" y="35" width="47" height="17"/>
<path d="M24.8291 37.0449L22.5703 47.6709H28.9863L28.4941 50H19.3711L22.1221 37.0449H24.8291ZM38.2324 49.3057C38.2383 48.9424 38.2793 48.5703 38.3555 48.1895L38.5928 46.9854C38.7568 46.1592 38.7217 45.6084 38.4873 45.333C38.2588 45.0576 37.7461 44.9199 36.9492 44.9199H34.1543L33.082 50H30.4365L33.1875 37.0449H39.542C40.4443 37.0625 41.1182 37.1738 41.5635 37.3789C42.0088 37.584 42.3604 37.8857 42.6182 38.2842C42.8291 38.6123 42.9727 38.9756 43.0488 39.374C43.1309 39.7725 43.1191 40.2266 43.0137 40.7363C42.8789 41.3516 42.5918 41.958 42.1523 42.5557C41.7188 43.1475 41.1182 43.5664 40.3506 43.8125C40.8955 44.0527 41.2441 44.3955 41.3965 44.8408C41.5547 45.2803 41.5371 45.9541 41.3438 46.8623L41.1592 47.7324C41.0361 48.3242 40.9746 48.7256 40.9746 48.9365C40.9746 49.2705 41.0859 49.5166 41.3086 49.6748L41.2471 50H38.2676C38.2441 49.7129 38.2324 49.4814 38.2324 49.3057ZM38.4961 39.2949H35.3496L34.6113 42.7754H37.6787C38.2881 42.7754 38.7598 42.7051 39.0938 42.5645C39.6855 42.3184 40.0605 41.832 40.2188 41.1055C40.3828 40.3203 40.2334 39.793 39.7705 39.5234C39.5068 39.3711 39.082 39.2949 38.4961 39.2949ZM43.2334 46.168L43.7432 43.7949H48.7881L48.2783 46.168H43.2334ZM61.7871 38.9434C62.1738 39.7461 62.2998 40.5518 62.165 41.3604H59.458C59.417 40.7393 59.291 40.2705 59.0801 39.9541C58.7109 39.3916 58.043 39.1104 57.0762 39.1104C56.0918 39.1104 55.2305 39.5088 54.4922 40.3057C53.7539 41.0967 53.2324 42.2188 52.9277 43.6719C52.6172 45.125 52.6846 46.2148 53.1299 46.9414C53.5752 47.6621 54.2607 48.0225 55.1865 48.0225C56.1357 48.0225 56.9268 47.7119 57.5596 47.0908C57.9053 46.7568 58.2393 46.2559 58.5615 45.5879H61.2422C60.709 47 59.8652 48.1484 58.7109 49.0332C57.5625 49.918 56.2354 50.3604 54.7295 50.3604C52.8662 50.3604 51.5273 49.7627 50.7129 48.5674C49.9043 47.3662 49.7227 45.7197 50.168 43.6279C50.6484 41.3662 51.624 39.623 53.0947 38.3984C54.3779 37.332 55.834 36.7988 57.4629 36.7988C59.6426 36.7988 61.084 37.5137 61.7871 38.9434Z"/>
</mask>
<path d="M24.8291 37.0449L22.5703 47.6709H28.9863L28.4941 50H19.3711L22.1221 37.0449H24.8291ZM38.2324 49.3057C38.2383 48.9424 38.2793 48.5703 38.3555 48.1895L38.5928 46.9854C38.7568 46.1592 38.7217 45.6084 38.4873 45.333C38.2588 45.0576 37.7461 44.9199 36.9492 44.9199H34.1543L33.082 50H30.4365L33.1875 37.0449H39.542C40.4443 37.0625 41.1182 37.1738 41.5635 37.3789C42.0088 37.584 42.3604 37.8857 42.6182 38.2842C42.8291 38.6123 42.9727 38.9756 43.0488 39.374C43.1309 39.7725 43.1191 40.2266 43.0137 40.7363C42.8789 41.3516 42.5918 41.958 42.1523 42.5557C41.7188 43.1475 41.1182 43.5664 40.3506 43.8125C40.8955 44.0527 41.2441 44.3955 41.3965 44.8408C41.5547 45.2803 41.5371 45.9541 41.3438 46.8623L41.1592 47.7324C41.0361 48.3242 40.9746 48.7256 40.9746 48.9365C40.9746 49.2705 41.0859 49.5166 41.3086 49.6748L41.2471 50H38.2676C38.2441 49.7129 38.2324 49.4814 38.2324 49.3057ZM38.4961 39.2949H35.3496L34.6113 42.7754H37.6787C38.2881 42.7754 38.7598 42.7051 39.0938 42.5645C39.6855 42.3184 40.0605 41.832 40.2188 41.1055C40.3828 40.3203 40.2334 39.793 39.7705 39.5234C39.5068 39.3711 39.082 39.2949 38.4961 39.2949ZM43.2334 46.168L43.7432 43.7949H48.7881L48.2783 46.168H43.2334ZM61.7871 38.9434C62.1738 39.7461 62.2998 40.5518 62.165 41.3604H59.458C59.417 40.7393 59.291 40.2705 59.0801 39.9541C58.7109 39.3916 58.043 39.1104 57.0762 39.1104C56.0918 39.1104 55.2305 39.5088 54.4922 40.3057C53.7539 41.0967 53.2324 42.2188 52.9277 43.6719C52.6172 45.125 52.6846 46.2148 53.1299 46.9414C53.5752 47.6621 54.2607 48.0225 55.1865 48.0225C56.1357 48.0225 56.9268 47.7119 57.5596 47.0908C57.9053 46.7568 58.2393 46.2559 58.5615 45.5879H61.2422C60.709 47 59.8652 48.1484 58.7109 49.0332C57.5625 49.918 56.2354 50.3604 54.7295 50.3604C52.8662 50.3604 51.5273 49.7627 50.7129 48.5674C49.9043 47.3662 49.7227 45.7197 50.168 43.6279C50.6484 41.3662 51.624 39.623 53.0947 38.3984C54.3779 37.332 55.834 36.7988 57.4629 36.7988C59.6426 36.7988 61.084 37.5137 61.7871 38.9434Z" fill="white"/>
<path d="M24.8291 37.0449L26.2963 37.3568L26.6815 35.5449H24.8291V37.0449ZM22.5703 47.6709L21.1031 47.359L20.7179 49.1709H22.5703V47.6709ZM28.9863 47.6709L30.4539 47.981L30.8364 46.1709H28.9863V47.6709ZM28.4941 50V51.5H29.7103L29.9617 50.3101L28.4941 50ZM19.3711 50L17.9038 49.6884L17.5191 51.5H19.3711V50ZM22.1221 37.0449V35.5449H20.9071L20.6548 36.7333L22.1221 37.0449ZM23.3619 36.733L21.1031 47.359L24.0375 47.9828L26.2963 37.3568L23.3619 36.733ZM22.5703 49.1709H28.9863V46.1709H22.5703V49.1709ZM27.5187 47.3608L27.0266 49.6899L29.9617 50.3101L30.4539 47.981L27.5187 47.3608ZM28.4941 48.5H19.3711V51.5H28.4941V48.5ZM20.8384 50.3116L23.5894 37.3565L20.6548 36.7333L17.9038 49.6884L20.8384 50.3116ZM22.1221 38.5449H24.8291V35.5449H22.1221V38.5449ZM38.2324 49.3057L36.7326 49.2815L36.7324 49.2936V49.3057H38.2324ZM38.3555 48.1895L39.8263 48.4836L39.8272 48.4795L38.3555 48.1895ZM38.5928 46.9854L37.1215 46.6932L37.1211 46.6953L38.5928 46.9854ZM38.4873 45.333L37.333 46.2909L37.3389 46.2981L37.345 46.3052L38.4873 45.333ZM34.1543 44.9199V43.4199H32.9379L32.6866 44.6101L34.1543 44.9199ZM33.082 50V51.5H34.2985L34.5497 50.3098L33.082 50ZM30.4365 50L28.9692 49.6884L28.5846 51.5H30.4365V50ZM33.1875 37.0449V35.5449H31.9726L31.7202 36.7333L33.1875 37.0449ZM39.542 37.0449L39.5712 35.5452L39.5566 35.5449H39.542V37.0449ZM42.6182 38.2842L43.8799 37.473L43.8775 37.4693L42.6182 38.2842ZM43.0488 39.374L41.5755 39.6557L41.5775 39.6661L41.5796 39.6765L43.0488 39.374ZM43.0137 40.7363L44.4789 41.0573L44.4808 41.0488L44.4826 41.0402L43.0137 40.7363ZM42.1523 42.5557L40.9439 41.6671L40.9424 41.6691L42.1523 42.5557ZM40.3506 43.8125L39.8926 42.3841L36.1291 43.5907L39.7455 45.185L40.3506 43.8125ZM41.3965 44.8408L39.9772 45.3264L39.9811 45.3377L39.9852 45.3489L41.3965 44.8408ZM41.3438 46.8623L39.8766 46.55L39.8764 46.551L41.3438 46.8623ZM41.1592 47.7324L39.6918 47.4212L39.6906 47.4271L41.1592 47.7324ZM41.3086 49.6748L42.7824 49.9536L42.9612 49.0089L42.1774 48.452L41.3086 49.6748ZM41.2471 50V51.5H42.4899L42.7209 50.2788L41.2471 50ZM38.2676 50L36.7726 50.122L36.885 51.5H38.2676V50ZM35.3496 39.2949V37.7949H34.1344L33.8823 38.9837L35.3496 39.2949ZM34.6113 42.7754L33.144 42.4641L32.7598 44.2754H34.6113V42.7754ZM39.0938 42.5645L38.5178 41.1794L38.5117 41.182L39.0938 42.5645ZM40.2188 41.1055L41.6845 41.4246L41.687 41.4123L40.2188 41.1055ZM39.7705 39.5234L40.5253 38.2272L40.5209 38.2246L39.7705 39.5234ZM39.7322 49.3299C39.7365 49.0632 39.7667 48.7816 39.8263 48.4836L36.8846 47.8953C36.7919 48.359 36.74 48.8215 36.7326 49.2815L39.7322 49.3299ZM39.8272 48.4795L40.0645 47.2754L37.1211 46.6953L36.8838 47.8994L39.8272 48.4795ZM40.064 47.2775C40.1596 46.7963 40.2154 46.3113 40.1864 45.8571C40.1585 45.4191 40.0409 44.8441 39.6296 44.3608L37.345 46.3052C37.2541 46.1984 37.2147 46.1024 37.1997 46.0564C37.1855 46.0128 37.1897 46.0041 37.1925 46.0482C37.1987 46.1447 37.19 46.3483 37.1215 46.6932L40.064 47.2775ZM39.6416 44.3751C39.2545 43.9085 38.7391 43.687 38.3205 43.5745C37.8909 43.4592 37.4204 43.4199 36.9492 43.4199V46.4199C37.2749 46.4199 37.4592 46.4495 37.5423 46.4719C37.5799 46.4819 37.5703 46.4837 37.5324 46.4625C37.4925 46.4403 37.414 46.3885 37.333 46.2909L39.6416 44.3751ZM36.9492 43.4199H34.1543V46.4199H36.9492V43.4199ZM32.6866 44.6101L31.6144 49.6902L34.5497 50.3098L35.622 45.2297L32.6866 44.6101ZM33.082 48.5H30.4365V51.5H33.082V48.5ZM31.9038 50.3116L34.6548 37.3565L31.7202 36.7333L28.9692 49.6884L31.9038 50.3116ZM33.1875 38.5449H39.542V35.5449H33.1875V38.5449ZM39.5128 38.5446C40.3532 38.561 40.7762 38.6678 40.936 38.7414L42.1909 36.0164C41.4601 35.6799 40.5355 35.564 39.5712 35.5452L39.5128 38.5446ZM40.936 38.7414C41.1321 38.8316 41.2608 38.9475 41.3588 39.0991L43.8775 37.4693C43.4599 36.8239 42.8855 36.3363 42.1909 36.0164L40.936 38.7414ZM41.3564 39.0953C41.4595 39.2557 41.5339 39.438 41.5755 39.6557L44.5221 39.0924C44.4114 38.5132 44.1987 37.9689 43.8799 37.473L41.3564 39.0953ZM41.5796 39.6765C41.6107 39.8274 41.62 40.0689 41.5448 40.4324L44.4826 41.0402C44.6183 40.3842 44.651 39.7175 44.518 39.0715L41.5796 39.6765ZM41.5484 40.4154C41.4658 40.7923 41.2808 41.2089 40.9439 41.6671L43.3608 43.4443C43.9028 42.7072 44.292 41.9108 44.4789 41.0573L41.5484 40.4154ZM40.9424 41.6691C40.7145 41.9801 40.3899 42.2247 39.8926 42.3841L40.8085 45.2409C41.8464 44.9081 42.723 44.3148 43.3623 43.4422L40.9424 41.6691ZM39.7455 45.185C39.8871 45.2475 39.9489 45.2995 39.9691 45.3194C39.9789 45.3289 39.9809 45.3328 39.9795 45.3308C39.9781 45.3285 39.9772 45.3262 39.9772 45.3264L42.8157 44.3553C42.4937 43.4139 41.7755 42.8014 40.9557 42.44L39.7455 45.185ZM39.9852 45.3489C39.9798 45.3339 40.0084 45.4104 40.0025 45.6367C39.9968 45.8547 39.9608 46.1547 39.8766 46.55L42.8109 47.1747C43.0151 46.2155 43.1159 45.1885 42.8078 44.3327L39.9852 45.3489ZM39.8764 46.551L39.6918 47.4212L42.6265 48.0437L42.8111 47.1736L39.8764 46.551ZM39.6906 47.4271C39.5718 47.9982 39.4746 48.5474 39.4746 48.9365H42.4746C42.4746 48.9478 42.4757 48.8854 42.5034 48.7046C42.5288 48.5393 42.5693 48.3189 42.6278 48.0378L39.6906 47.4271ZM39.4746 48.9365C39.4746 49.6341 39.7311 50.394 40.4398 50.8976L42.1774 48.452C42.2801 48.525 42.3697 48.6315 42.4248 48.7533C42.4752 48.8648 42.4746 48.9394 42.4746 48.9365H39.4746ZM39.8347 49.396L39.7732 49.7212L42.7209 50.2788L42.7824 49.9536L39.8347 49.396ZM41.2471 48.5H38.2676V51.5H41.2471V48.5ZM39.7626 49.878C39.7407 49.6094 39.7324 49.4234 39.7324 49.3057H36.7324C36.7324 49.5395 36.7476 49.8164 36.7726 50.122L39.7626 49.878ZM38.4961 37.7949H35.3496V40.7949H38.4961V37.7949ZM33.8823 38.9837L33.144 42.4641L36.0787 43.0866L36.817 39.6062L33.8823 38.9837ZM34.6113 44.2754H37.6787V41.2754H34.6113V44.2754ZM37.6787 44.2754C38.3701 44.2754 39.0734 44.2005 39.6758 43.9469L38.5117 41.182C38.4461 41.2096 38.206 41.2754 37.6787 41.2754V44.2754ZM39.6697 43.9495C40.7921 43.4827 41.4411 42.5422 41.6844 41.4246L38.7531 40.7863C38.68 41.1219 38.5789 41.154 38.5178 41.1794L39.6697 43.9495ZM41.687 41.4123C41.7973 40.8845 41.8372 40.2918 41.6729 39.7122C41.4951 39.0844 41.1011 38.5624 40.5253 38.2272L39.0157 40.8197C38.9744 40.7956 38.9193 40.7527 38.8695 40.6879C38.8201 40.6236 38.7963 40.5644 38.7865 40.53C38.7778 40.4993 38.7836 40.5006 38.7831 40.5482C38.7826 40.5961 38.7758 40.6776 38.7505 40.7987L41.687 41.4123ZM40.5209 38.2246C39.9016 37.8668 39.1431 37.7949 38.4961 37.7949V40.7949C38.7294 40.7949 38.889 40.8105 38.9894 40.8285C39.0964 40.8477 39.0871 40.861 39.0201 40.8222L40.5209 38.2246ZM43.2334 46.168L41.7669 45.8529L41.377 47.668H43.2334V46.168ZM43.7432 43.7949V42.2949H42.5312L42.2766 43.4799L43.7432 43.7949ZM48.7881 43.7949L50.2546 44.11L50.6445 42.2949H48.7881V43.7949ZM48.2783 46.168V47.668H49.4903L49.7449 46.483L48.2783 46.168ZM44.6999 46.483L45.2097 44.11L42.2766 43.4799L41.7669 45.8529L44.6999 46.483ZM43.7432 45.2949H48.7881V42.2949H43.7432V45.2949ZM47.3215 43.4799L46.8118 45.8529L49.7449 46.483L50.2546 44.11L47.3215 43.4799ZM48.2783 44.668H43.2334V47.668H48.2783V44.668ZM61.7871 38.9434L63.1385 38.2923L63.1331 38.2814L61.7871 38.9434ZM62.165 41.3604V42.8604H63.4357L63.6446 41.6069L62.165 41.3604ZM59.458 41.3604L57.9613 41.4592L58.0538 42.8604H59.458V41.3604ZM59.0801 39.9541L57.826 40.7771L57.832 40.7862L59.0801 39.9541ZM54.4922 40.3057L55.5888 41.3291L55.5925 41.3251L54.4922 40.3057ZM52.9277 43.6719L54.3946 43.9854L54.3958 43.9797L52.9277 43.6719ZM53.1299 46.9414L51.851 47.7253L51.8538 47.7299L53.1299 46.9414ZM57.5596 47.0908L56.5173 46.012L56.5089 46.0203L57.5596 47.0908ZM58.5615 45.5879V44.0879H57.6198L57.2105 44.9361L58.5615 45.5879ZM61.2422 45.5879L62.6455 46.1178L63.4119 44.0879H61.2422V45.5879ZM58.7109 49.0332L57.7984 47.8427L57.7955 47.8449L58.7109 49.0332ZM50.7129 48.5674L49.4685 49.405L49.4733 49.412L50.7129 48.5674ZM50.168 43.6279L51.6351 43.9403L51.6352 43.9396L50.168 43.6279ZM53.0947 38.3984L52.136 37.2448L52.1349 37.2457L53.0947 38.3984ZM60.4357 39.5944C60.7004 40.1438 60.7649 40.6372 60.6854 41.1138L63.6446 41.6069C63.8347 40.4663 63.6472 39.3484 63.1385 38.2923L60.4357 39.5944ZM62.165 39.8604H59.458V42.8604H62.165V39.8604ZM60.9547 41.2615C60.9063 40.5275 60.7497 39.7544 60.3282 39.1221L57.832 40.7862C57.826 40.7771 57.8524 40.814 57.8842 40.9323C57.9156 41.0494 57.9455 41.2208 57.9613 41.4592L60.9547 41.2615ZM60.3341 39.1311C59.5783 37.9794 58.3098 37.6104 57.0762 37.6104V40.6104C57.4228 40.6104 57.6209 40.6619 57.7202 40.7037C57.8018 40.7381 57.8176 40.7644 57.826 40.7771L60.3341 39.1311ZM57.0762 37.6104C55.6283 37.6104 54.3813 38.2182 53.3918 39.2862L55.5925 41.3251C56.0796 40.7994 56.5552 40.6104 57.0762 40.6104V37.6104ZM53.3956 39.2822C52.4134 40.3346 51.8004 41.7388 51.4597 43.3641L54.3958 43.9797C54.6644 42.6987 55.0944 41.8588 55.5888 41.3291L53.3956 39.2822ZM51.4609 43.3584C51.1249 44.9304 51.0997 46.4995 51.851 47.7252L54.4088 46.1576C54.2694 45.9302 54.1095 45.3196 54.3946 43.9854L51.4609 43.3584ZM51.8538 47.7299C52.6015 48.9399 53.7987 49.5225 55.1865 49.5225V46.5225C54.7228 46.5225 54.5489 46.3843 54.4059 46.1529L51.8538 47.7299ZM55.1865 49.5225C56.4981 49.5225 57.6759 49.0784 58.6103 48.1613L56.5089 46.0203C56.1776 46.3454 55.7734 46.5225 55.1865 46.5225V49.5225ZM58.6018 48.1696C59.1245 47.6646 59.5505 46.99 59.9125 46.2397L57.2105 44.9361C56.928 45.5217 56.6861 45.849 56.5174 46.012L58.6018 48.1696ZM58.5615 47.0879H61.2422V44.0879H58.5615V47.0879ZM59.8389 45.058C59.4006 46.2189 58.7221 47.1347 57.7984 47.8427L59.6235 50.2237C61.0084 49.1622 62.0174 47.7811 62.6455 46.1178L59.8389 45.058ZM57.7955 47.8449C56.9201 48.5193 55.9179 48.8604 54.7295 48.8604V51.8604C56.5528 51.8604 58.2049 51.3166 59.6264 50.2215L57.7955 47.8449ZM54.7295 48.8604C53.2026 48.8604 52.4082 48.3916 51.9525 47.7228L49.4733 49.412C50.6464 51.1338 52.5298 51.8604 54.7295 51.8604V48.8604ZM51.9572 47.7297C51.4649 46.9985 51.2341 45.824 51.6351 43.9403L48.7008 43.3156C48.2112 45.6155 48.3437 47.734 49.4686 49.405L51.9572 47.7297ZM51.6352 43.9396C52.0608 41.9365 52.8932 40.5182 54.0546 39.5511L52.1349 37.2457C50.3549 38.7279 49.2361 40.796 48.7007 43.3162L51.6352 43.9396ZM54.0534 39.5521C55.0744 38.7036 56.1934 38.2988 57.4629 38.2988V35.2988C55.4746 35.2988 53.6814 35.9605 52.136 37.2448L54.0534 39.5521ZM57.4629 38.2988C59.3154 38.2988 60.0827 38.8765 60.4411 39.6053L63.1331 38.2814C62.0853 36.1508 59.9698 35.2988 57.4629 35.2988V38.2988Z" fill="#484848" mask="url(#path-123-outside-1_46_2947)"/>
<defs>
<filter id="filter0_d_46_2947" x="-5.6742" y="-2.69526" width="91.182" height="91.182" filterUnits="userSpaceOnUse" color-interpolation-filters="sRGB">
<feFlood flood-opacity="0" result="BackgroundImageFix"/>
<feColorMatrix in="SourceAlpha" type="matrix" values="0 0 0 0 0 0 0 0 0 0 0 0 0 0 0 0 0 0 127 0" result="hardAlpha"/>
<feOffset/>
<feGaussianBlur stdDeviation="9.34241"/>
<feComposite in2="hardAlpha" operator="out"/>
<feColorMatrix type="matrix" values="0 0 0 0 0.272786 0 0 0 0 0.272786 0 0 0 0 0.272786 0 0 0 0.6 0"/>
<feBlend mode="normal" in2="BackgroundImageFix" result="effect1_dropShadow_46_2947"/>
<feBlend mode="normal" in="SourceGraphic" in2="effect1_dropShadow_46_2947" result="shape"/>
</filter>
<clipPath id="paint1_diamond_46_2947_clip_path"><path d="M32.4228 50.7479L29.5923 41.1388L20.6812 38.728C20.6812 38.728 20.8902 52.147 27.7058 60.0097L32.4228 50.7479Z"/></clipPath><clipPath id="paint2_diamond_46_2947_clip_path"><path d="M29.5923 41.1403C29.5923 41.1403 34.5891 34.5015 40.496 32.4567V20.9057C40.496 20.9057 25.5734 30.8316 20.6812 38.728L29.5923 41.1388V41.1403Z"/></clipPath><clipPath id="paint5_diamond_46_2947_clip_path"><path d="M51.398 41.1403C51.398 41.1403 46.4013 34.5015 40.4943 32.4567V20.9057C40.4943 20.9057 55.4154 30.8301 60.3092 38.728L51.398 41.1388V41.1403Z"/></clipPath><clipPath id="paint6_diamond_46_2947_clip_path"><path d="M40.4946 32.4567V55.388L32.4229 50.7495L29.5925 41.1403C29.5925 41.1403 32.9472 34.5707 40.4962 32.4567H40.4946Z"/></clipPath><clipPath id="paint7_diamond_46_2947_clip_path"><path d="M40.4945 32.4567V55.388L48.5662 50.7495L51.3966 41.1403C51.3966 41.1403 48.0419 34.5707 40.4929 32.4567H40.4945Z"/></clipPath><filter id="filter1_f_46_2947" x="46.0684" y="51.2189" width="14.2752" height="14.2752" filterUnits="userSpaceOnUse" color-interpolation-filters="sRGB">
<feFlood flood-opacity="0" result="BackgroundImageFix"/>
<feBlend mode="normal" in="SourceGraphic" in2="BackgroundImageFix" result="shape"/>
<feGaussianBlur stdDeviation="2.05533" result="effect1_foregroundBlur_46_2947"/>
</filter>
<filter id="filter2_f_46_2947" x="14.8578" y="30.7706" width="15.3001" height="15.3001" filterUnits="userSpaceOnUse" color-interpolation-filters="sRGB">
<feFlood flood-opacity="0" result="BackgroundImageFix"/>
<feBlend mode="normal" in="SourceGraphic" in2="BackgroundImageFix" result="shape"/>
<feGaussianBlur stdDeviation="2.05533" result="effect1_foregroundBlur_46_2947"/>
</filter>
<filter id="filter3_f_46_2947" x="46.8371" y="25.697" width="12.7481" height="12.7481" filterUnits="userSpaceOnUse" color-interpolation-filters="sRGB">
<feFlood flood-opacity="0" result="BackgroundImageFix"/>
<feBlend mode="normal" in="SourceGraphic" in2="BackgroundImageFix" result="shape"/>
<feGaussianBlur stdDeviation="2.05533" result="effect1_foregroundBlur_46_2947"/>
</filter>
<filter id="filter4_f_46_2947" x="22.773" y="29.8762" width="32.9273" height="33.4465" filterUnits="userSpaceOnUse" color-interpolation-filters="sRGB">
<feFlood flood-opacity="0" result="BackgroundImageFix"/>
<feBlend mode="normal" in="SourceGraphic" in2="BackgroundImageFix" result="shape"/>
<feGaussianBlur stdDeviation="2.47948" result="effect1_foregroundBlur_46_2947"/>
</filter>
<filter id="filter5_f_46_2947" x="26.366" y="32.1918" width="5.65263" height="5.65843" filterUnits="userSpaceOnUse" color-interpolation-filters="sRGB">
<feFlood flood-opacity="0" result="BackgroundImageFix"/>
<feBlend mode="normal" in="SourceGraphic" in2="BackgroundImageFix" result="shape"/>
<feGaussianBlur stdDeviation="1.12109" result="effect1_foregroundBlur_46_2947"/>
</filter>
<filter id="filter6_f_46_2947" x="52.2792" y="46.8845" width="5.476" height="5.48088" filterUnits="userSpaceOnUse" color-interpolation-filters="sRGB">
<feFlood flood-opacity="0" result="BackgroundImageFix"/>
<feBlend mode="normal" in="SourceGraphic" in2="BackgroundImageFix" result="shape"/>
<feGaussianBlur stdDeviation="1.12109" result="effect1_foregroundBlur_46_2947"/>
</filter>
<filter id="filter7_f_46_2947" x="27.1834" y="50.82" width="5.627" height="5.63267" filterUnits="userSpaceOnUse" color-interpolation-filters="sRGB">
<feFlood flood-opacity="0" result="BackgroundImageFix"/>
<feBlend mode="normal" in="SourceGraphic" in2="BackgroundImageFix" result="shape"/>
<feGaussianBlur stdDeviation="1.12109" result="effect1_foregroundBlur_46_2947"/>
</filter>
<filter id="filter8_f_46_2947" x="9.23035" y="12.0064" width="50.996" height="52.1667" filterUnits="userSpaceOnUse" color-interpolation-filters="sRGB">
<feFlood flood-opacity="0" result="BackgroundImageFix"/>
<feBlend mode="normal" in="SourceGraphic" in2="BackgroundImageFix" result="shape"/>
<feGaussianBlur stdDeviation="0.610502" result="effect1_foregroundBlur_46_2947"/>
</filter>
<radialGradient id="paint0_radial_46_2947" cx="0" cy="0" r="1" gradientUnits="userSpaceOnUse" gradientTransform="translate(30.3198 65.4046) rotate(-54.5036) scale(15.064 11.6758)">
<stop stop-color="#878787"/>
<stop offset="0.414319" stop-color="#2E2E2E"/>
<stop offset="0.852751" stop-color="#292929"/>
</radialGradient>
<linearGradient id="paint1_diamond_46_2947" x1="0" y1="0" x2="500" y2="500" gradientUnits="userSpaceOnUse">
<stop stop-color="#848484"/>
<stop offset="0.541667" stop-color="#606060"/>
<stop offset="1" stop-color="#292929"/>
</linearGradient>
<linearGradient id="paint2_diamond_46_2947" x1="0" y1="0" x2="500" y2="500" gradientUnits="userSpaceOnUse">
<stop stop-color="#A3A3A3"/>
<stop offset="0.473958" stop-color="#585858"/>
<stop offset="1" stop-color="#595959"/>
</linearGradient>
<radialGradient id="paint3_radial_46_2947" cx="0" cy="0" r="1" gradientUnits="userSpaceOnUse" gradientTransform="translate(53.2739 60.0957) rotate(-157.289) scale(16.5263 27.7393)">
<stop stop-color="#7E7E7E"/>
<stop offset="0.356211" stop-color="#484848"/>
<stop offset="0.763504" stop-color="#2C2C2C"/>
</radialGradient>
<radialGradient id="paint4_radial_46_2947" cx="0" cy="0" r="1" gradientUnits="userSpaceOnUse" gradientTransform="translate(52.8232 59.0132) rotate(-70.7725) scale(21.631 38.5569)">
<stop stop-color="#8F8F8F"/>
<stop offset="0.338542" stop-color="#4A4A4A"/>
<stop offset="1" stop-color="#2F2F2F"/>
</radialGradient>
<linearGradient id="paint5_diamond_46_2947" x1="0" y1="0" x2="500" y2="500" gradientUnits="userSpaceOnUse">
<stop stop-color="#767676"/>
<stop offset="0.447917" stop-color="#4D4D4D"/>
<stop offset="1" stop-color="#373737"/>
</linearGradient>
<linearGradient id="paint6_diamond_46_2947" x1="0" y1="0" x2="500" y2="500" gradientUnits="userSpaceOnUse">
<stop stop-color="#8E8E8E"/>
<stop offset="0.666667" stop-color="#5F5F5F"/>
<stop offset="1" stop-color="#424242"/>
</linearGradient>
<linearGradient id="paint7_diamond_46_2947" x1="0" y1="0" x2="500" y2="500" gradientUnits="userSpaceOnUse">
<stop stop-color="#BABABA"/>
<stop offset="1" stop-color="#707070"/>
</linearGradient>
<linearGradient id="paint8_linear_46_2947" x1="37.5717" y1="32.4213" x2="44.644" y2="50.7172" gradientUnits="userSpaceOnUse">
<stop stop-color="white" stop-opacity="0.4"/>
<stop offset="1" stop-color="white" stop-opacity="0"/>
</linearGradient>
<linearGradient id="paint9_linear_46_2947" x1="29.1156" y1="41.1849" x2="37.2641" y2="64.6313" gradientUnits="userSpaceOnUse">
<stop stop-color="white" stop-opacity="0.77"/>
<stop offset="0.642325" stop-color="white" stop-opacity="0"/>
</linearGradient>
<linearGradient id="paint10_linear_46_2947" x1="40.4929" y1="20.3522" x2="20.6595" y2="38.7249" gradientUnits="userSpaceOnUse">
<stop stop-color="#DADADA"/>
<stop offset="1" stop-color="white" stop-opacity="0"/>
</linearGradient>
<linearGradient id="paint11_linear_46_2947" x1="40.4929" y1="20.3522" x2="20.6595" y2="38.7249" gradientUnits="userSpaceOnUse">
<stop stop-color="#DADADA"/>
<stop offset="1" stop-color="white" stop-opacity="0"/>
</linearGradient>
<radialGradient id="paint12_radial_46_2947" cx="0" cy="0" r="1" gradientUnits="userSpaceOnUse" gradientTransform="translate(46.8894 62.7079) rotate(90) scale(2.69672 6.39509)">
<stop stop-color="white"/>
<stop offset="1" stop-color="white" stop-opacity="0"/>
</radialGradient>
<radialGradient id="paint13_radial_46_2947" cx="0" cy="0" r="1" gradientUnits="userSpaceOnUse" gradientTransform="translate(45.9462 36.7692) rotate(90) scale(4.37112 5.45186)">
<stop stop-color="white"/>
<stop offset="1" stop-color="white" stop-opacity="0"/>
</radialGradient>
<radialGradient id="paint14_radial_46_2947" cx="0" cy="0" r="1" gradientUnits="userSpaceOnUse" gradientTransform="translate(25.1367 39.8145) rotate(90.5567) scale(1.90861 6.41405)">
<stop stop-color="white"/>
<stop offset="1" stop-color="white" stop-opacity="0"/>
</radialGradient>
</defs>
</svg>
