<svg width="107" height="97" viewBox="0 0 107 97" fill="none" xmlns="http://www.w3.org/2000/svg">
<g filter="url(#filter0_f_46_2950)">
<path fill-rule="evenodd" clip-rule="evenodd" d="M60.9308 15.7221C67.0696 15.5445 73.9353 13.8375 78.9657 17.3614C84.0009 20.8886 84.6036 27.9848 86.6944 33.7696C88.849 39.7311 94.3231 46.2107 91.4321 51.8534C88.2933 57.9798 79.2408 57.4362 73.041 60.4189C69.2799 62.2283 65.2463 63.2826 62.0623 65.9827C56.2257 70.9325 54.3812 81.3886 46.8355 82.6425C40.2215 83.7416 33.7047 77.1973 30.717 71.1915C27.7924 65.3125 34.2243 57.8177 31.5111 51.838C28.2319 44.6105 16.324 43.419 14.6003 35.6703C13.0075 28.5106 17.0926 19.4748 23.5316 15.9681C30.408 12.2231 38.6672 18.3521 46.4943 18.3007C51.4668 18.268 55.9603 15.8659 60.9308 15.7221Z" fill="url(#paint0_linear_46_2950)"/>
</g>
<g filter="url(#filter1_d_46_2950)">
<path d="M51.8483 65.9805L40.8715 61.3511L44.9202 53.4002L51.8483 57.3829V65.9805Z" fill="url(#paint1_radial_46_2950)"/>
<g clip-path="url(#paint2_diamond_46_2950_clip_path)" data-figma-skip-parse="true"><g transform="matrix(0.00197948 0.0182772 -0.0200629 0.00217288 39.0464 42.2227)"><rect x="0" y="0" width="1087.99" height="326.696" fill="url(#paint2_diamond_46_2950)" opacity="1" shape-rendering="crispEdges"/><rect x="0" y="0" width="1087.99" height="326.696" transform="scale(1 -1)" fill="url(#paint2_diamond_46_2950)" opacity="1" shape-rendering="crispEdges"/><rect x="0" y="0" width="1087.99" height="326.696" transform="scale(-1 1)" fill="url(#paint2_diamond_46_2950)" opacity="1" shape-rendering="crispEdges"/><rect x="0" y="0" width="1087.99" height="326.696" transform="scale(-1)" fill="url(#paint2_diamond_46_2950)" opacity="1" shape-rendering="crispEdges"/></g></g><path d="M44.9202 53.4002L42.4908 45.1523L34.842 43.0831C34.842 43.0831 35.0215 54.6011 40.8715 61.3498L44.9202 53.4002Z" data-figma-gradient-fill="{&#34;type&#34;:&#34;GRADIENT_DIAMOND&#34;,&#34;stops&#34;:[{&#34;color&#34;:{&#34;r&#34;:0.13725490868091583,&#34;g&#34;:0.85882353782653809,&#34;b&#34;:0.99215686321258545,&#34;a&#34;:1.0},&#34;position&#34;:0.0},{&#34;color&#34;:{&#34;r&#34;:0.0,&#34;g&#34;:0.39686274528503418,&#34;b&#34;:0.72156864404678345,&#34;a&#34;:1.0},&#34;position&#34;:0.54166668653488159},{&#34;color&#34;:{&#34;r&#34;:0.0,&#34;g&#34;:0.21352940797805786,&#34;b&#34;:0.38823530077934265,&#34;a&#34;:1.0},&#34;position&#34;:1.0}],&#34;stopsVar&#34;:[],&#34;transform&#34;:{&#34;m00&#34;:3.9589602947235107,&#34;m01&#34;:-40.125839233398438,&#34;m02&#34;:57.129814147949219,&#34;m10&#34;:36.554401397705078,&#34;m11&#34;:4.3457579612731934,&#34;m12&#34;:21.772632598876953},&#34;opacity&#34;:1.0,&#34;blendMode&#34;:&#34;NORMAL&#34;,&#34;visible&#34;:true}"/>
<g clip-path="url(#paint3_diamond_46_2950_clip_path)" data-figma-skip-parse="true"><g transform="matrix(-0.018937 0.0168916 -0.00788994 -0.0348292 53.7605 25.991)"><rect x="0" y="0" width="1039.07" height="431.49" fill="url(#paint3_diamond_46_2950)" opacity="1" shape-rendering="crispEdges"/><rect x="0" y="0" width="1039.07" height="431.49" transform="scale(1 -1)" fill="url(#paint3_diamond_46_2950)" opacity="1" shape-rendering="crispEdges"/><rect x="0" y="0" width="1039.07" height="431.49" transform="scale(-1 1)" fill="url(#paint3_diamond_46_2950)" opacity="1" shape-rendering="crispEdges"/><rect x="0" y="0" width="1039.07" height="431.49" transform="scale(-1)" fill="url(#paint3_diamond_46_2950)" opacity="1" shape-rendering="crispEdges"/></g></g><path d="M42.4908 45.1537C42.4908 45.1537 46.7796 39.4554 51.8497 37.7003V27.7857C51.8497 27.7857 39.0412 36.3054 34.842 43.0831L42.4908 45.1523V45.1537Z" data-figma-gradient-fill="{&#34;type&#34;:&#34;GRADIENT_DIAMOND&#34;,&#34;stops&#34;:[{&#34;color&#34;:{&#34;r&#34;:0.69019609689712524,&#34;g&#34;:0.95294117927551270,&#34;b&#34;:1.0,&#34;a&#34;:1.0},&#34;position&#34;:0.0},{&#34;color&#34;:{&#34;r&#34;:0.15294118225574493,&#34;g&#34;:0.54549020528793335,&#34;b&#34;:0.86666667461395264,&#34;a&#34;:1.0},&#34;position&#34;:0.47395834326744080},{&#34;color&#34;:{&#34;r&#34;:0.0,&#34;g&#34;:0.33647060394287109,&#34;b&#34;:0.61176472902297974,&#34;a&#34;:1.0},&#34;position&#34;:1.0}],&#34;stopsVar&#34;:[],&#34;transform&#34;:{&#34;m00&#34;:-37.874053955078125,&#34;m01&#34;:-15.779880523681641,&#34;m02&#34;:80.587478637695312,&#34;m10&#34;:33.783130645751953,&#34;m11&#34;:-69.658477783203125,&#34;m12&#34;:43.928634643554688},&#34;opacity&#34;:1.0,&#34;blendMode&#34;:&#34;NORMAL&#34;,&#34;visible&#34;:true}"/>
<path d="M51.8483 65.9805L62.8265 61.3511L58.7778 53.4002L51.8483 57.3829V65.9805Z" fill="url(#paint4_radial_46_2950)"/>
<path d="M58.7781 53.4002L61.2076 45.1523L68.8563 43.0831C68.8563 43.0831 68.6768 54.6011 62.8268 61.3498L58.7781 53.4002Z" fill="url(#paint5_radial_46_2950)"/>
<g clip-path="url(#paint6_diamond_46_2950_clip_path)" data-figma-skip-parse="true"><g transform="matrix(-0.0181452 -0.015308 0.0335724 -0.0307188 69.9922 43.3444)"><rect x="0" y="0" width="1027.07" height="299.915" fill="url(#paint6_diamond_46_2950)" opacity="1" shape-rendering="crispEdges"/><rect x="0" y="0" width="1027.07" height="299.915" transform="scale(1 -1)" fill="url(#paint6_diamond_46_2950)" opacity="1" shape-rendering="crispEdges"/><rect x="0" y="0" width="1027.07" height="299.915" transform="scale(-1 1)" fill="url(#paint6_diamond_46_2950)" opacity="1" shape-rendering="crispEdges"/><rect x="0" y="0" width="1027.07" height="299.915" transform="scale(-1)" fill="url(#paint6_diamond_46_2950)" opacity="1" shape-rendering="crispEdges"/></g></g><path d="M61.2072 45.1537C61.2072 45.1537 56.9184 39.4554 51.8483 37.7003V27.7857C51.8483 27.7857 64.6555 36.3041 68.856 43.0831L61.2072 45.1523V45.1537Z" data-figma-gradient-fill="{&#34;type&#34;:&#34;GRADIENT_DIAMOND&#34;,&#34;stops&#34;:[{&#34;color&#34;:{&#34;r&#34;:0.69019609689712524,&#34;g&#34;:0.95294117927551270,&#34;b&#34;:1.0,&#34;a&#34;:1.0},&#34;position&#34;:0.0},{&#34;color&#34;:{&#34;r&#34;:0.15294118225574493,&#34;g&#34;:0.54549020528793335,&#34;b&#34;:0.86666667461395264,&#34;a&#34;:1.0},&#34;position&#34;:0.44791665673255920},{&#34;color&#34;:{&#34;r&#34;:0.0,&#34;g&#34;:0.33647060394287109,&#34;b&#34;:0.61176472902297974,&#34;a&#34;:1.0},&#34;position&#34;:1.0}],&#34;stopsVar&#34;:[],&#34;transform&#34;:{&#34;m00&#34;:-36.290481567382812,&#34;m01&#34;:67.144874572753906,&#34;m02&#34;:54.565017700195312,&#34;m10&#34;:-30.615964889526367,&#34;m11&#34;:-61.437679290771484,&#34;m12&#34;:89.371231079101562},&#34;opacity&#34;:1.0,&#34;blendMode&#34;:&#34;NORMAL&#34;,&#34;visible&#34;:true}"/>
<g clip-path="url(#paint7_diamond_46_2950_clip_path)" data-figma-skip-parse="true"><g transform="matrix(0.00263931 0.0182112 -0.0230459 0.00333998 49.2077 39.1215)"><rect x="0" y="0" width="1022.47" height="413.543" fill="url(#paint7_diamond_46_2950)" opacity="1" shape-rendering="crispEdges"/><rect x="0" y="0" width="1022.47" height="413.543" transform="scale(1 -1)" fill="url(#paint7_diamond_46_2950)" opacity="1" shape-rendering="crispEdges"/><rect x="0" y="0" width="1022.47" height="413.543" transform="scale(-1 1)" fill="url(#paint7_diamond_46_2950)" opacity="1" shape-rendering="crispEdges"/><rect x="0" y="0" width="1022.47" height="413.543" transform="scale(-1)" fill="url(#paint7_diamond_46_2950)" opacity="1" shape-rendering="crispEdges"/></g></g><path d="M51.8485 37.7003V57.3829L44.9203 53.4015L42.4908 45.1537C42.4908 45.1537 45.3703 39.5148 51.8498 37.7003H51.8485Z" data-figma-gradient-fill="{&#34;type&#34;:&#34;GRADIENT_DIAMOND&#34;,&#34;stops&#34;:[{&#34;color&#34;:{&#34;r&#34;:0.41960784792900085,&#34;g&#34;:0.94117647409439087,&#34;b&#34;:1.0,&#34;a&#34;:1.0},&#34;position&#34;:0.0},{&#34;color&#34;:{&#34;r&#34;:0.18039216101169586,&#34;g&#34;:0.56431370973587036,&#34;b&#34;:0.87843137979507446,&#34;a&#34;:1.0},&#34;position&#34;:0.66666668653488159},{&#34;color&#34;:{&#34;r&#34;:0.0,&#34;g&#34;:0.39254903793334961,&#34;b&#34;:0.71372550725936890,&#34;a&#34;:1.0},&#34;position&#34;:1.0}],&#34;stopsVar&#34;:[],&#34;transform&#34;:{&#34;m00&#34;:5.2786140441894531,&#34;m01&#34;:-46.091793060302734,&#34;m02&#34;:69.614265441894531,&#34;m10&#34;:36.422439575195312,&#34;m11&#34;:6.6799688339233398,&#34;m12&#34;:17.570322036743164},&#34;opacity&#34;:1.0,&#34;blendMode&#34;:&#34;NORMAL&#34;,&#34;visible&#34;:true}"/>
<g clip-path="url(#paint8_diamond_46_2950_clip_path)" data-figma-skip-parse="true"><g transform="matrix(0.00323315 0.00706015 -0.00789014 0.00361324 53.2327 47.5673)"><rect x="0" y="0" width="1631.54" height="1357.76" fill="url(#paint8_diamond_46_2950)" opacity="1" shape-rendering="crispEdges"/><rect x="0" y="0" width="1631.54" height="1357.76" transform="scale(1 -1)" fill="url(#paint8_diamond_46_2950)" opacity="1" shape-rendering="crispEdges"/><rect x="0" y="0" width="1631.54" height="1357.76" transform="scale(-1 1)" fill="url(#paint8_diamond_46_2950)" opacity="1" shape-rendering="crispEdges"/><rect x="0" y="0" width="1631.54" height="1357.76" transform="scale(-1)" fill="url(#paint8_diamond_46_2950)" opacity="1" shape-rendering="crispEdges"/></g></g><path d="M51.8484 37.7003V57.3829L58.7765 53.4015L61.206 45.1537C61.206 45.1537 58.3265 39.5148 51.847 37.7003H51.8484Z" data-figma-gradient-fill="{&#34;type&#34;:&#34;GRADIENT_DIAMOND&#34;,&#34;stops&#34;:[{&#34;color&#34;:{&#34;r&#34;:0.13333334028720856,&#34;g&#34;:0.90588235855102539,&#34;b&#34;:0.99607843160629272,&#34;a&#34;:1.0},&#34;position&#34;:0.0},{&#34;color&#34;:{&#34;r&#34;:0.18588235974311829,&#34;g&#34;:0.69082552194595337,&#34;b&#34;:0.92513728141784668,&#34;a&#34;:1.0},&#34;position&#34;:0.67000001668930054},{&#34;color&#34;:{&#34;r&#34;:0.21176470816135406,&#34;g&#34;:0.58490198850631714,&#34;b&#34;:0.89019608497619629,&#34;a&#34;:1.0},&#34;position&#34;:1.0}],&#34;stopsVar&#34;:[{&#34;color&#34;:{&#34;r&#34;:0.13333334028720856,&#34;g&#34;:0.90588235855102539,&#34;b&#34;:0.99607843160629272,&#34;a&#34;:1.0},&#34;position&#34;:0.0},{&#34;color&#34;:{&#34;r&#34;:0.18588235974311829,&#34;g&#34;:0.69082552194595337,&#34;b&#34;:0.92513728141784668,&#34;a&#34;:1.0},&#34;position&#34;:0.67000001668930054},{&#34;color&#34;:{&#34;r&#34;:0.21176470816135406,&#34;g&#34;:0.58490198850631714,&#34;b&#34;:0.89019608497619629,&#34;a&#34;:1.0},&#34;position&#34;:1.0}],&#34;transform&#34;:{&#34;m00&#34;:6.4663043022155762,&#34;m01&#34;:-15.780280113220215,&#34;m02&#34;:57.889667510986328,&#34;m10&#34;:14.120293617248535,&#34;m11&#34;:7.2264842987060547,&#34;m12&#34;:36.89392089843750},&#34;opacity&#34;:1.0,&#34;blendMode&#34;:&#34;NORMAL&#34;,&#34;visible&#34;:true}"/>
<g style="mix-blend-mode:soft-light">
<path d="M42.4908 45.1537C42.4908 45.1537 49.419 52.0198 58.778 53.4015L60.099 48.9186C60.099 48.9186 53.6498 44.0148 51.8498 37.7003C50.8561 37.9813 49.7028 38.4129 48.4979 39.0912C45.1961 40.9506 43.3684 43.6176 42.4908 45.1537Z" fill="white"/>
</g>
<path opacity="0.8" d="M42.4908 45.1537C42.4908 45.1537 49.419 52.0198 58.778 53.4015L60.099 48.9186C60.099 48.9186 53.6498 44.0148 51.8498 37.7003C50.8561 37.9813 49.7028 38.4129 48.4979 39.0912C45.1961 40.9506 43.3684 43.6176 42.4908 45.1537Z" fill="url(#paint9_linear_46_2950)"/>
<g style="mix-blend-mode:soft-light">
<path d="M44.2379 51.0869C44.2379 51.0869 51.7718 54.836 56.7442 54.5694L54.9244 55.6146C54.9244 55.6146 51.5488 56.2718 47.7838 55.0471L44.9188 53.4015L44.2366 51.0869H44.2379Z" fill="white"/>
</g>
<g style="mix-blend-mode:soft-light">
<path d="M58.1775 44.1032C58.1775 44.1032 60.6373 41.3914 62.8266 36.3292C62.8266 36.3292 67.2963 40.205 68.8561 43.0845C68.8561 43.0845 68.6859 48.9873 67.2382 52.8275C67.2382 52.8275 68.0168 49.7434 58.1775 44.1046V44.1032Z" fill="white"/>
</g>
<path opacity="0.3" d="M58.1775 44.1032C58.1775 44.1032 60.6373 41.3914 62.8266 36.3292C62.8266 36.3292 67.2963 40.205 68.8561 43.0845C68.8561 43.0845 68.6859 48.9873 67.2382 52.8275C67.2382 52.8275 68.0168 49.7434 58.1775 44.1046V44.1032Z" fill="white"/>
<g style="mix-blend-mode:soft-light" opacity="0.5">
<path d="M51.8484 65.9805C51.8484 65.9805 41.2911 56.4143 42.4894 45.1537C42.4894 45.1537 39.1005 50.4033 40.8702 61.3511L51.8484 65.9805Z" fill="white"/>
</g>
<path d="M51.8484 65.9805C51.8484 65.9805 41.2911 56.4143 42.4894 45.1537C42.4894 45.1537 39.1005 50.4033 40.8702 61.3511L51.8484 65.9805Z" fill="url(#paint10_linear_46_2950)"/>
<g style="mix-blend-mode:soft-light">
<path d="M34.842 43.0831C34.842 43.0831 47.8221 29.62 49.4796 32.1049C49.4796 32.1049 50.9801 33.1554 51.8497 37.6989V27.7857C51.8497 27.7857 39.4014 35.8844 34.842 43.0831Z" fill="url(#paint11_linear_46_2950)"/>
</g>
<path opacity="0.7" d="M34.842 43.0831C34.842 43.0831 47.954 29.554 49.4796 32.1049C49.4796 32.1049 50.9801 33.1554 51.8497 37.6989V27.7857C51.8497 27.7857 39.4014 35.8844 34.842 43.0831Z" fill="url(#paint12_linear_46_2950)"/>
<g style="mix-blend-mode:soft-light">
<path d="M58.7781 53.4002L62.8268 59.1011C62.8268 59.1011 67.9563 53.7024 68.8563 43.0831C68.7863 45.7224 68.4459 47.9632 68.0764 49.7118C67.6475 51.7387 67.1526 53.2194 66.9665 53.7604C66.4189 55.3493 65.6904 57.4146 64.1174 59.6844C63.6159 60.4075 63.1527 60.9724 62.8281 61.3498C61.4781 58.6999 60.1281 56.05 58.7794 53.4002H58.7781Z" fill="white"/>
</g>
<path opacity="0.6" d="M58.7781 53.4002L62.8268 59.1011C62.8268 59.1011 67.9563 53.7024 68.8563 43.0831C68.7863 45.7224 68.4459 47.9632 68.0764 49.7118C67.6475 51.7387 67.1526 53.2194 66.9665 53.7604C66.4189 55.3493 65.6904 57.4146 64.1174 59.6844C63.6159 60.4075 63.1527 60.9724 62.8281 61.3498C61.4781 58.6999 60.1281 56.05 58.7794 53.4002H58.7781Z" fill="white"/>
<g style="mix-blend-mode:soft-light">
<path d="M62.8265 61.3511L51.8483 65.9805C51.8483 65.9805 55.897 62.1007 62.8265 61.3511Z" fill="white"/>
</g>
<path opacity="0.75" d="M62.8265 61.3511L51.8483 65.9805C51.8483 65.9805 55.897 62.1007 62.8265 61.3511Z" fill="url(#paint13_radial_46_2950)"/>
<g style="mix-blend-mode:soft-light">
<path d="M51.8483 37.7003C51.8483 37.7003 57.4568 38.7045 61.2072 45.1537C61.2072 45.1537 59.4376 36.9349 51.8483 37.7003Z" fill="white"/>
</g>
<path d="M51.8483 37.7003C51.8483 37.7003 57.4568 38.7045 61.2072 45.1537C61.2072 45.1537 59.4376 36.9349 51.8483 37.7003Z" fill="url(#paint14_radial_46_2950)"/>
<g style="mix-blend-mode:soft-light">
<path d="M42.4908 45.1537L34.842 43.0845C34.842 43.0845 38.4025 41.9113 42.4908 45.1537Z" fill="white"/>
</g>
<path opacity="0.7" d="M42.4908 45.1537L34.842 43.0845C34.842 43.0845 38.4025 41.9113 42.4908 45.1537Z" fill="url(#paint15_radial_46_2950)"/>
<path d="M62.759 57.3327L63.1999 59.4899L65.3571 59.9308L63.1999 60.3717L62.759 62.5289L62.3181 60.3717L60.1609 59.9308L62.3181 59.4899L62.759 57.3327Z" fill="white"/>
<g filter="url(#filter2_f_46_2950)">
<path d="M62.759 57.3327L63.1999 59.4899L65.3571 59.9308L63.1999 60.3717L62.759 62.5289L62.3181 60.3717L60.1609 59.9308L62.3181 59.4899L62.759 57.3327Z" fill="white"/>
</g>
<path d="M36.4099 39.7813L36.9255 42.3037L39.4479 42.8193L36.9255 43.3349L36.4099 45.8573L35.8944 43.3349L33.3719 42.8193L35.8944 42.3037L36.4099 39.7813Z" fill="white"/>
<g filter="url(#filter3_f_46_2950)">
<path d="M36.4099 39.7813L36.9255 42.3037L39.4479 42.8193L36.9255 43.3349L36.4099 45.8573L35.8944 43.3349L33.3719 42.8193L35.8944 42.3037L36.4099 39.7813Z" fill="white"/>
</g>
<path d="M62.7635 35.4265L63.0932 37.0395L64.7062 37.3692L63.0932 37.6989L62.7635 39.3119L62.4338 37.6989L60.8208 37.3692L62.4338 37.0395L62.7635 35.4265Z" fill="white"/>
<g filter="url(#filter4_f_46_2950)">
<path d="M62.7635 35.4265L63.0932 37.0395L64.7062 37.3692L63.0932 37.6989L62.7635 39.3119L62.4338 37.6989L60.8208 37.3692L62.4338 37.0395L62.7635 35.4265Z" fill="white"/>
</g>
<g style="mix-blend-mode:overlay" filter="url(#filter5_f_46_2950)">
<g style="mix-blend-mode:lighten">
<path d="M46.703 39.9544C46.682 39.8615 46.7405 39.767 46.8335 39.746C46.9265 39.725 47.021 39.7835 47.0419 39.8764C47.0629 39.9694 47.0045 40.0638 46.9115 40.0848C46.8185 40.1058 46.724 40.0473 46.703 39.9544Z" fill="#FFFBFC"/>
</g>
<g style="mix-blend-mode:lighten">
<path d="M60.1208 51.8021C60.0878 51.6597 60.1778 51.5173 60.3203 51.4858C60.4628 51.4528 60.6053 51.5428 60.6368 51.6852C60.6698 51.8276 60.5798 51.97 60.4373 52.0015C60.2948 52.0345 60.1523 51.9445 60.1208 51.8021Z" fill="#FFFBFC"/>
</g>
<g style="mix-blend-mode:lighten">
<path d="M43.6076 42.2778C43.5731 42.1234 43.6691 41.969 43.8236 41.9346C43.978 41.9001 44.1325 41.996 44.167 42.1504C44.2015 42.3048 44.1055 42.4592 43.9511 42.4937C43.7966 42.5282 43.6421 42.4322 43.6076 42.2778Z" fill="#FFFBFC"/>
</g>
<g style="mix-blend-mode:lighten">
<path d="M47.4828 43.9431C47.6103 44.102 47.5863 44.3344 47.4274 44.4633C47.2684 44.5907 47.0359 44.5667 46.9069 44.4078C46.7795 44.2489 46.8034 44.0166 46.9624 43.8877C47.1214 43.7602 47.3539 43.7842 47.4828 43.9431Z" fill="#FFFBFC"/>
</g>
<g style="mix-blend-mode:lighten">
<path d="M48.8192 43.5444C48.9272 43.6793 48.9062 43.8757 48.7712 43.9836C48.6362 44.0916 48.4397 44.0706 48.3318 43.9357C48.2238 43.8008 48.2448 43.6044 48.3798 43.4965C48.5147 43.3885 48.7112 43.4095 48.8192 43.5444Z" fill="#FFFBFC"/>
</g>
<g style="mix-blend-mode:lighten">
<path d="M48.8687 41.5854C48.9227 41.6528 48.9122 41.7532 48.8447 41.8072C48.7772 41.8612 48.6767 41.8507 48.6227 41.7832C48.5687 41.7158 48.5792 41.6153 48.6467 41.5614C48.7142 41.5074 48.8147 41.5179 48.8687 41.5854Z" fill="#FFFBFC"/>
</g>
<g style="mix-blend-mode:lighten">
<path d="M52.7099 46.2245C52.6874 46.1331 52.7444 46.0402 52.8358 46.0177C52.9273 45.9952 53.0203 46.0521 53.0428 46.1436C53.0653 46.235 53.0083 46.328 52.9168 46.3504C52.8254 46.3729 52.7324 46.316 52.7099 46.2245Z" fill="#FFFBFC"/>
</g>
<g style="mix-blend-mode:lighten">
<path d="M49.8661 43.3856C49.8406 43.2791 49.9066 43.1712 50.0131 43.1457C50.1195 43.1202 50.2275 43.1862 50.253 43.2926C50.2785 43.3991 50.2125 43.507 50.106 43.5325C49.9996 43.558 49.8916 43.492 49.8661 43.3856Z" fill="#FFFBFC"/>
</g>
<g style="mix-blend-mode:lighten">
<path d="M40.9043 51.1901C40.8563 50.9922 40.9793 50.7928 41.1773 50.7449C41.3752 50.6969 41.5747 50.8198 41.6227 51.0177C41.6707 51.2156 41.5477 51.4149 41.3497 51.4629C41.1518 51.5109 40.9523 51.388 40.9043 51.1901Z" fill="#FFFBFC"/>
</g>
<g style="mix-blend-mode:lighten">
<path d="M56.8742 59.4276C57.0136 59.4021 57.1486 59.4936 57.1741 59.633C57.1996 59.7724 57.1081 59.9073 56.9686 59.9328C56.8292 59.9583 56.6942 59.8668 56.6687 59.7274C56.6432 59.588 56.7347 59.4531 56.8742 59.4276Z" fill="#FFFBFC"/>
</g>
<g style="mix-blend-mode:lighten">
<path d="M49.1793 59.5396C49.2693 59.5232 49.3548 59.5816 49.3713 59.6716C49.3878 59.7615 49.3293 59.8469 49.2393 59.8634C49.1493 59.8799 49.0638 59.8215 49.0473 59.7315C49.0308 59.6416 49.0893 59.5561 49.1793 59.5396Z" fill="#FFFBFC"/>
</g>
<g style="mix-blend-mode:lighten">
<path d="M49.5287 57.6029C49.7207 57.567 49.9036 57.6929 49.9396 57.8848C49.9756 58.0766 49.8496 58.2595 49.6577 58.2955C49.4657 58.3315 49.2827 58.2055 49.2467 58.0137C49.2107 57.8218 49.3367 57.6389 49.5287 57.6029Z" fill="#FFFBFC"/>
</g>
<g style="mix-blend-mode:lighten">
<path d="M48.2973 56.6047C48.4803 56.5702 48.6572 56.6916 48.6917 56.8745C48.7262 57.0574 48.6048 57.2343 48.4218 57.2687C48.2388 57.3032 48.0618 57.1818 48.0273 56.9989C47.9928 56.816 48.1143 56.6391 48.2973 56.6047Z" fill="#FFFBFC"/>
</g>
<g style="mix-blend-mode:lighten">
<path d="M48.5538 55.356C48.7083 55.3275 48.8582 55.4295 48.8867 55.5839C48.9152 55.7383 48.8132 55.8882 48.6588 55.9167C48.5043 55.9451 48.3543 55.8432 48.3258 55.6888C48.2973 55.5344 48.3993 55.3845 48.5538 55.356Z" fill="#FFFBFC"/>
</g>
<g style="mix-blend-mode:lighten">
<path d="M46.9955 54.4703C47.0735 54.4553 47.15 54.5077 47.1635 54.5857C47.1785 54.6636 47.126 54.7401 47.048 54.7536C46.97 54.7686 46.8935 54.7161 46.88 54.6382C46.865 54.5602 46.9175 54.4838 46.9955 54.4703Z" fill="#FFFBFC"/>
</g>
<g style="mix-blend-mode:lighten">
<path d="M53.4671 43.4049C53.5736 43.5383 53.5526 43.7317 53.4206 43.8381C53.2871 43.9446 53.0936 43.9236 52.9872 43.7917C52.8807 43.6583 52.9017 43.4649 53.0336 43.3585C53.1671 43.252 53.3606 43.273 53.4671 43.4049Z" fill="#FFFBFC"/>
</g>
<path d="M55.8908 40.3202C55.9493 40.3921 55.9373 40.497 55.8653 40.5555C55.7933 40.614 55.6883 40.602 55.6298 40.53C55.5713 40.4581 55.5833 40.3531 55.6553 40.2947C55.7273 40.2362 55.8323 40.2482 55.8908 40.3202Z" fill="#FFFBFC"/>
</g>
<g style="mix-blend-mode:lighten">
<path d="M60.121 51.8015C60.088 51.6591 60.1779 51.5167 60.3204 51.4852C60.4629 51.4522 60.6054 51.5422 60.6369 51.6846C60.6699 51.827 60.5799 51.9694 60.4374 52.0009C60.2949 52.0339 60.1525 51.9439 60.121 51.8015Z" fill="#FFFBFC"/>
</g>
<g style="mix-blend-mode:lighten">
<path d="M43.6082 42.2771C43.5737 42.1227 43.6697 41.9683 43.8242 41.9338C43.9787 41.8994 44.1331 41.9953 44.1676 42.1497C44.2021 42.3041 44.1061 42.4585 43.9517 42.493C43.7972 42.5274 43.6427 42.4315 43.6082 42.2771Z" fill="#FFFBFC"/>
</g>
<g style="mix-blend-mode:lighten">
<path d="M47.483 43.9437C47.6105 44.1026 47.5865 44.335 47.4275 44.4639C47.2685 44.5913 47.036 44.5673 46.9071 44.4084C46.7796 44.2495 46.8036 44.0172 46.9625 43.8883C47.1215 43.7609 47.354 43.7848 47.483 43.9437Z" fill="#FFFBFC"/>
</g>
<g style="mix-blend-mode:lighten">
<path d="M50.4897 45.6687C50.5977 45.8036 50.5767 46 50.4417 46.1079C50.3068 46.2158 50.1103 46.1949 50.0023 46.0599C49.8943 45.925 49.9153 45.7287 50.0503 45.6207C50.1853 45.5128 50.3817 45.5338 50.4897 45.6687Z" fill="#FFFBFC"/>
</g>
<g style="mix-blend-mode:lighten">
<path d="M48.8687 41.5847C48.9227 41.6521 48.9122 41.7526 48.8447 41.8065C48.7772 41.8605 48.6767 41.85 48.6227 41.7826C48.5687 41.7151 48.5792 41.6147 48.6467 41.5607C48.7142 41.5067 48.8147 41.5172 48.8687 41.5847Z" fill="#FFFBFC"/>
</g>
<g style="mix-blend-mode:lighten">
<path d="M52.7094 46.225C52.6869 46.1336 52.7439 46.0406 52.8354 46.0182C52.9268 45.9957 53.0198 46.0526 53.0423 46.1441C53.0648 46.2355 53.0078 46.3285 52.9163 46.3509C52.8249 46.3734 52.7319 46.3165 52.7094 46.225Z" fill="#FFFBFC"/>
</g>
<g style="mix-blend-mode:lighten">
<path d="M49.8667 43.3852C49.8412 43.2788 49.9072 43.1708 50.0137 43.1454C50.1201 43.1199 50.2281 43.1858 50.2536 43.2923C50.2791 43.3987 50.2131 43.5066 50.1066 43.5321C50.0002 43.5576 49.8922 43.4916 49.8667 43.3852Z" fill="#FFFBFC"/>
</g>
<g style="mix-blend-mode:lighten">
<path d="M47.8951 46.0782C47.8591 45.9268 47.9521 45.7754 48.1035 45.7379C48.255 45.7019 48.4065 45.7949 48.444 45.9463C48.48 46.0977 48.387 46.2491 48.2355 46.2865C48.084 46.3225 47.9326 46.2296 47.8951 46.0782Z" fill="#FFFBFC"/>
</g>
<g style="mix-blend-mode:lighten">
<path d="M46.9482 48.2176C46.9242 48.1201 46.9842 48.0242 47.0816 48.0002C47.1791 47.9762 47.2751 48.0362 47.2991 48.1336C47.3231 48.2311 47.2631 48.327 47.1656 48.351C47.0681 48.375 46.9722 48.315 46.9482 48.2176Z" fill="#FFFBFC"/>
</g>
<g style="mix-blend-mode:lighten">
<path d="M41.9074 45.4153C41.8579 45.2084 41.9854 45.0001 42.1924 44.9506C42.3993 44.9011 42.6078 45.0285 42.6573 45.2354C42.7068 45.4423 42.5793 45.6506 42.3723 45.7001C42.1654 45.7496 41.9569 45.6222 41.9074 45.4153Z" fill="#FFFBFC"/>
</g>
<g style="mix-blend-mode:lighten">
<path d="M41.908 45.4161C41.8585 45.2092 41.986 45.0009 42.193 44.9514C42.3999 44.9019 42.6084 45.0293 42.6579 45.2362C42.7074 45.4431 42.5799 45.6514 42.3729 45.7009C42.166 45.7504 41.9575 45.623 41.908 45.4161Z" fill="#FFFBFC"/>
</g>
<g style="mix-blend-mode:lighten">
<path d="M40.9043 51.19C40.8563 50.9922 40.9793 50.7928 41.1773 50.7448C41.3752 50.6968 41.5747 50.8198 41.6227 51.0176C41.6707 51.2155 41.5477 51.4149 41.3497 51.4629C41.1518 51.5108 40.9523 51.3879 40.9043 51.19Z" fill="#FFFBFC"/>
</g>
<g style="mix-blend-mode:lighten">
<path d="M56.8746 59.4277C57.0141 59.4022 57.1491 59.4936 57.1746 59.633C57.2001 59.7724 57.1086 59.9073 56.9691 59.9328C56.8297 59.9583 56.6947 59.8669 56.6692 59.7275C56.6437 59.5881 56.7352 59.4531 56.8746 59.4277Z" fill="#FFFBFC"/>
</g>
<g style="mix-blend-mode:lighten">
<path d="M49.179 59.5394C49.2689 59.5229 49.3544 59.5814 49.3709 59.6713C49.3874 59.7613 49.3289 59.8467 49.2389 59.8632C49.149 59.8797 49.0635 59.8212 49.047 59.7313C49.0305 59.6413 49.089 59.5559 49.179 59.5394Z" fill="#FFFBFC"/>
</g>
<g style="mix-blend-mode:lighten">
<path d="M49.5291 57.6035C49.721 57.5676 49.904 57.6935 49.94 57.8854C49.976 58.0772 49.85 58.2601 49.658 58.2961C49.4661 58.3321 49.2831 58.2062 49.2471 58.0143C49.2111 57.8224 49.3371 57.6395 49.5291 57.6035Z" fill="#FFFBFC"/>
</g>
<g style="mix-blend-mode:lighten">
<path d="M48.2977 56.604C48.4806 56.5695 48.6576 56.6909 48.6921 56.8738C48.7266 57.0567 48.6051 57.2336 48.4221 57.2681C48.2392 57.3025 48.0622 57.1811 48.0277 56.9982C47.9932 56.8154 48.1147 56.6385 48.2977 56.604Z" fill="#FFFBFC"/>
</g>
<g style="mix-blend-mode:lighten">
<path d="M48.5534 55.3558C48.7079 55.3274 48.8579 55.4293 48.8864 55.5837C48.9149 55.7381 48.8129 55.888 48.6584 55.9165C48.5039 55.945 48.3539 55.843 48.3255 55.6886C48.297 55.5342 48.3989 55.3843 48.5534 55.3558Z" fill="#FFFBFC"/>
</g>
<g style="mix-blend-mode:lighten">
<path d="M46.9957 54.4704C47.0737 54.4554 47.1502 54.5079 47.1637 54.5858C47.1787 54.6638 47.1262 54.7402 47.0482 54.7537C46.9702 54.7687 46.8937 54.7162 46.8802 54.6383C46.8652 54.5603 46.9177 54.4839 46.9957 54.4704Z" fill="#FFFBFC"/>
</g>
<g style="mix-blend-mode:lighten">
<path d="M53.4676 43.4043C53.5741 43.5377 53.5531 43.7311 53.4211 43.8375C53.2876 43.944 53.0941 43.923 52.9876 43.7911C52.8812 43.6577 52.9022 43.4643 53.0341 43.3578C53.1676 43.2514 53.3611 43.2724 53.4676 43.4043Z" fill="#FFFBFC"/>
</g>
<path d="M55.8912 40.3206C55.9497 40.3926 55.9377 40.4975 55.8657 40.556C55.7937 40.6145 55.6887 40.6025 55.6302 40.5305C55.5717 40.4586 55.5837 40.3536 55.6557 40.2952C55.7277 40.2367 55.8327 40.2487 55.8912 40.3206Z" fill="#FFFBFC"/>
<path d="M42.1474 39.3974L42.2325 39.8158L42.6488 39.9013L42.2325 39.9868L42.1474 40.4051L42.0623 39.9868L41.646 39.9013L42.0623 39.8158L42.1474 39.3974Z" fill="white"/>
<g filter="url(#filter6_f_46_2950)">
<path d="M42.1474 39.3974L42.2325 39.8158L42.6488 39.9013L42.2325 39.9868L42.1474 40.4051L42.0623 39.9868L41.646 39.9013L42.0623 39.8158L42.1474 39.3974Z" fill="white"/>
</g>
<path d="M64.0487 52.0086L64.3411 52.3185L64.7394 52.1699L64.431 52.4637L64.5789 52.864L64.2866 52.5541L63.8883 52.7027L64.1966 52.4089L64.0487 52.0086Z" fill="white"/>
<g filter="url(#filter7_f_46_2950)">
<path d="M64.0487 52.0086L64.3411 52.3185L64.7394 52.1699L64.431 52.4637L64.5789 52.864L64.2866 52.5541L63.8883 52.7027L64.1966 52.4089L64.0487 52.0086Z" fill="white"/>
</g>
<path d="M42.7335 55.3867L42.9035 55.778L43.3284 55.7745L42.9389 55.9453L42.9425 56.3723L42.7725 55.9809L42.3476 55.9844L42.737 55.8137L42.7335 55.3867Z" fill="white"/>
<g filter="url(#filter8_f_46_2950)">
<path d="M42.7335 55.3867L42.9035 55.778L43.3284 55.7745L42.9389 55.9453L42.9425 56.3723L42.7725 55.9809L42.3476 55.9844L42.737 55.8137L42.7335 55.3867Z" fill="white"/>
</g>
</g>
<g style="mix-blend-mode:overlay" filter="url(#filter9_f_46_2950)">
<g style="mix-blend-mode:lighten">
<path d="M38.2855 21.6445C38.2412 21.4481 38.3647 21.2486 38.5612 21.2042C38.7576 21.1599 38.9572 21.2834 39.0016 21.4798C39.0459 21.6762 38.9224 21.8758 38.7259 21.9201C38.5295 21.9645 38.3299 21.8409 38.2855 21.6445Z" fill="#FFFBFC"/>
</g>
<g style="mix-blend-mode:lighten">
<path d="M66.6326 46.6832C66.5629 46.3823 66.753 46.0814 67.054 46.0148C67.355 45.9451 67.656 46.1352 67.7225 46.4362C67.7922 46.7371 67.6021 47.038 67.3011 47.1046C67.0001 47.1743 66.6991 46.9842 66.6326 46.6832Z" fill="#FFFBFC"/>
</g>
<g style="mix-blend-mode:lighten">
<path d="M31.746 26.5549C31.6731 26.2286 31.8759 25.9023 32.2023 25.8295C32.5286 25.7566 32.855 25.9593 32.9279 26.2856C33.0007 26.6119 32.798 26.9382 32.4716 27.0111C32.1453 27.0839 31.8189 26.8812 31.746 26.5549Z" fill="#FFFBFC"/>
</g>
<g style="mix-blend-mode:lighten">
<path d="M39.9332 30.0743C40.2025 30.4101 40.1518 30.9011 39.816 31.1736C39.4801 31.4428 38.989 31.3922 38.7165 31.0564C38.4472 30.7206 38.4979 30.2296 38.8337 29.9571C39.1696 29.6879 39.6607 29.7386 39.9332 30.0743Z" fill="#FFFBFC"/>
</g>
<g style="mix-blend-mode:lighten">
<path d="M42.7561 29.2316C42.9842 29.5167 42.9399 29.9317 42.6547 30.1598C42.3696 30.3879 41.9545 30.3435 41.7263 30.0584C41.4982 29.7733 41.5426 29.3583 41.8277 29.1302C42.1129 28.9022 42.528 28.9465 42.7561 29.2316Z" fill="#FFFBFC"/>
</g>
<g style="mix-blend-mode:lighten">
<path d="M42.8609 25.0915C42.975 25.234 42.9528 25.4463 42.8102 25.5603C42.6676 25.6743 42.4553 25.6522 42.3413 25.5096C42.2272 25.3671 42.2494 25.1548 42.392 25.0408C42.5345 24.9267 42.7468 24.9489 42.8609 25.0915Z" fill="#FFFBFC"/>
</g>
<g style="mix-blend-mode:lighten">
<path d="M50.9757 34.8958C50.9282 34.7025 51.0486 34.5061 51.2419 34.4586C51.4351 34.4111 51.6316 34.5315 51.6791 34.7247C51.7266 34.918 51.6062 35.1144 51.413 35.1619C51.2197 35.2094 51.0232 35.089 50.9757 34.8958Z" fill="#FFFBFC"/>
</g>
<g style="mix-blend-mode:lighten">
<path d="M44.968 28.8959C44.9141 28.671 45.0535 28.4429 45.2785 28.3891C45.5035 28.3352 45.7316 28.4746 45.7855 28.6995C45.8393 28.9244 45.6999 29.1525 45.4749 29.2064C45.25 29.2602 45.0219 29.1208 44.968 28.8959Z" fill="#FFFBFC"/>
</g>
<g style="mix-blend-mode:lighten">
<path d="M38.5586 34.5853C38.4825 34.2653 38.679 33.9454 38.999 33.8662C39.319 33.7902 39.639 33.9866 39.7182 34.3065C39.7943 34.6265 39.5978 34.9464 39.2778 35.0256C38.9578 35.1017 38.6378 34.9052 38.5586 34.5853Z" fill="#FFFBFC"/>
</g>
<g style="mix-blend-mode:lighten">
<path d="M37.522 39.1087C37.4713 38.9028 37.5981 38.7001 37.804 38.6494C38.01 38.5987 38.2128 38.7254 38.2635 38.9313C38.3142 39.1373 38.1874 39.34 37.9815 39.3907C37.7755 39.4414 37.5727 39.3147 37.522 39.1087Z" fill="#FFFBFC"/>
</g>
<g style="mix-blend-mode:lighten">
<path d="M32.1041 30.849C31.9995 30.4118 32.2688 29.9715 32.7061 29.8669C33.1433 29.7624 33.5838 30.0317 33.6883 30.4688C33.7929 30.906 33.5236 31.3463 33.0863 31.4509C32.6491 31.5554 32.2086 31.2861 32.1041 30.849Z" fill="#FFFBFC"/>
</g>
<g style="mix-blend-mode:lighten">
<path d="M34.6379 43.7954C34.5365 43.3773 34.7963 42.956 35.2146 42.8546C35.6328 42.7532 36.0542 43.013 36.1556 43.4311C36.257 43.8493 35.9972 44.2706 35.5789 44.372C35.1607 44.4733 34.7393 44.2136 34.6379 43.7954Z" fill="#FFFBFC"/>
</g>
<g style="mix-blend-mode:lighten">
<path d="M27.9377 41.0413C27.8522 40.6865 28.0708 40.3285 28.4257 40.2461C28.7805 40.1606 29.1386 40.3792 29.221 40.734C29.3065 41.0888 29.0879 41.4468 28.733 41.5291C28.3782 41.6146 28.0201 41.3961 27.9377 41.0413Z" fill="#FFFBFC"/>
</g>
<g style="mix-blend-mode:lighten">
<path d="M26.0713 44.7413C26.0269 44.5607 26.1378 44.3833 26.3184 44.339C26.499 44.2946 26.6765 44.4055 26.7208 44.5861C26.7652 44.7667 26.6543 44.944 26.4737 44.9884C26.2931 45.0327 26.1157 44.9219 26.0713 44.7413Z" fill="#FFFBFC"/>
</g>
<g style="mix-blend-mode:lighten">
<path d="M59.7735 62.7989C60.0682 62.745 60.3534 62.9382 60.4072 63.2328C60.4611 63.5275 60.2678 63.8126 59.9731 63.8664C59.6785 63.9203 59.3933 63.727 59.3394 63.4324C59.2856 63.1378 59.4789 62.8527 59.7735 62.7989Z" fill="#FFFBFC"/>
</g>
<g style="mix-blend-mode:lighten">
<path d="M43.517 63.0355C43.7071 63.0007 43.8877 63.1242 43.9226 63.3143C43.9574 63.5044 43.8339 63.6849 43.6437 63.7198C43.4536 63.7546 43.273 63.6311 43.2382 63.441C43.2033 63.251 43.3269 63.0704 43.517 63.0355Z" fill="#FFFBFC"/>
</g>
<g style="mix-blend-mode:lighten">
<path d="M44.2551 58.9426C44.6607 58.8666 45.0472 59.1327 45.1233 59.5381C45.1993 59.9436 44.9332 60.3301 44.5276 60.4061C44.122 60.4822 43.7355 60.2161 43.6595 59.8106C43.5834 59.4051 43.8496 59.0186 44.2551 58.9426Z" fill="#FFFBFC"/>
</g>
<g style="mix-blend-mode:lighten">
<path d="M41.6536 56.8329C42.0402 56.7601 42.4141 57.0167 42.4869 57.4031C42.5598 57.7896 42.3032 58.1634 41.9166 58.2363C41.5301 58.3091 41.1562 58.0525 41.0833 57.6661C41.0104 57.2796 41.2671 56.9058 41.6536 56.8329Z" fill="#FFFBFC"/>
</g>
<g style="mix-blend-mode:lighten">
<path d="M42.1957 54.1941C42.522 54.1339 42.8389 54.3493 42.8991 54.6756C42.9593 55.0019 42.7438 55.3187 42.4175 55.3789C42.0911 55.4391 41.7743 55.2237 41.7141 54.8974C41.6539 54.5711 41.8693 54.2543 42.1957 54.1941Z" fill="#FFFBFC"/>
</g>
<g style="mix-blend-mode:lighten">
<path d="M38.9036 52.3221C39.0683 52.2904 39.2299 52.4013 39.2584 52.566C39.2901 52.7308 39.1792 52.8923 39.0145 52.9208C38.8497 52.9525 38.6881 52.8416 38.6596 52.6769C38.6279 52.5122 38.7388 52.3506 38.9036 52.3221Z" fill="#FFFBFC"/>
</g>
<g style="mix-blend-mode:lighten">
<path d="M45.7948 23.7733C45.9849 24.0077 45.9469 24.3498 45.7125 24.5399C45.478 24.7299 45.1358 24.6919 44.9457 24.4575C44.7556 24.2231 44.7936 23.881 45.0281 23.6909C45.2625 23.5008 45.6047 23.5388 45.7948 23.7733Z" fill="#FFFBFC"/>
</g>
<g style="mix-blend-mode:lighten">
<path d="M52.5756 28.9369C52.8005 29.2188 52.7562 29.6275 52.4774 29.8524C52.1954 30.0773 51.7866 30.033 51.5617 29.7542C51.3367 29.4722 51.3811 29.0636 51.6599 28.8387C51.9419 28.6138 52.3506 28.6581 52.5756 28.9369Z" fill="#FFFBFC"/>
</g>
<path d="M51.8881 24.404C52.0116 24.5592 51.9895 24.7841 51.8342 24.9108C51.6789 25.0344 51.454 25.0122 51.3272 24.857C51.2037 24.7018 51.2259 24.4768 51.3811 24.3501C51.5364 24.2266 51.7613 24.2487 51.8881 24.404Z" fill="#FFFBFC"/>
<path d="M57.696 22.4176C57.8196 22.5696 57.7943 22.7914 57.6422 22.9149C57.4901 23.0385 57.2683 23.0131 57.1447 22.8611C57.0212 22.709 57.0465 22.4873 57.1986 22.3637C57.3507 22.2402 57.5725 22.2655 57.696 22.4176Z" fill="#FFFBFC"/>
</g>
<g style="mix-blend-mode:lighten">
<path d="M38.2855 21.6445C38.2412 21.4481 38.3647 21.2486 38.5612 21.2042C38.7576 21.1599 38.9572 21.2834 39.0016 21.4798C39.0459 21.6762 38.9224 21.8758 38.7259 21.9201C38.5295 21.9645 38.3299 21.8409 38.2855 21.6445Z" fill="#FFFBFC"/>
</g>
<g style="mix-blend-mode:lighten">
<path d="M66.6325 46.6832C66.5627 46.3823 66.7529 46.0814 67.0539 46.0148C67.3549 45.9451 67.6559 46.1352 67.7224 46.4362C67.7921 46.7371 67.602 47.038 67.301 47.1046C67 47.1743 66.699 46.9842 66.6325 46.6832Z" fill="#FFFBFC"/>
</g>
<g style="mix-blend-mode:lighten">
<path d="M31.7459 26.5549C31.673 26.2286 31.8758 25.9023 32.2022 25.8295C32.5285 25.7566 32.8549 25.9593 32.9277 26.2856C33.0006 26.6119 32.7978 26.9382 32.4715 27.0111C32.1451 27.0839 31.8188 26.8812 31.7459 26.5549Z" fill="#FFFBFC"/>
</g>
<g style="mix-blend-mode:lighten">
<path d="M39.933 30.0744C40.2023 30.4102 40.1516 30.9012 39.8157 31.1736C39.4799 31.4429 38.9888 31.3922 38.7163 31.0564C38.4469 30.7206 38.4976 30.2296 38.8335 29.9572C39.1694 29.6879 39.6605 29.7386 39.933 30.0744Z" fill="#FFFBFC"/>
</g>
<g style="mix-blend-mode:lighten">
<path d="M42.7561 29.2316C42.9842 29.5167 42.9399 29.9317 42.6547 30.1597C42.3696 30.3878 41.9545 30.3435 41.7263 30.0584C41.4982 29.7733 41.5426 29.3583 41.8277 29.1302C42.1129 28.9021 42.528 28.9465 42.7561 29.2316Z" fill="#FFFBFC"/>
</g>
<g style="mix-blend-mode:lighten">
<path d="M42.8608 25.0914C42.9748 25.2339 42.9527 25.4462 42.8101 25.5602C42.6675 25.6743 42.4552 25.6521 42.3411 25.5095C42.2271 25.367 42.2493 25.1548 42.3918 25.0407C42.5344 24.9267 42.7467 24.9488 42.8608 25.0914Z" fill="#FFFBFC"/>
</g>
<g style="mix-blend-mode:lighten">
<path d="M50.9755 34.8958C50.9279 34.7025 51.0483 34.5061 51.2416 34.4586C51.4349 34.4111 51.6313 34.5315 51.6789 34.7247C51.7264 34.918 51.606 35.1144 51.4127 35.1619C51.2194 35.2094 51.023 35.089 50.9755 34.8958Z" fill="#FFFBFC"/>
</g>
<g style="mix-blend-mode:lighten">
<path d="M44.968 28.8959C44.9141 28.6709 45.0535 28.4429 45.2785 28.389C45.5035 28.3352 45.7316 28.4745 45.7855 28.6995C45.8393 28.9244 45.6999 29.1525 45.4749 29.2063C45.25 29.2602 45.0219 29.1208 44.968 28.8959Z" fill="#FFFBFC"/>
</g>
<g style="mix-blend-mode:lighten">
<path d="M38.5582 34.5854C38.4822 34.2654 38.6786 33.9455 38.9986 33.8663C39.3187 33.7902 39.6387 33.9866 39.7179 34.3066C39.7939 34.6265 39.5975 34.9465 39.2775 35.0257C38.9574 35.1017 38.6374 34.9053 38.5582 34.5854Z" fill="#FFFBFC"/>
</g>
<g style="mix-blend-mode:lighten">
<path d="M37.5219 39.1091C37.4712 38.9031 37.598 38.7004 37.8039 38.6497C38.0099 38.599 38.2126 38.7257 38.2633 38.9317C38.314 39.1376 38.1873 39.3403 37.9813 39.391C37.7754 39.4417 37.5726 39.315 37.5219 39.1091Z" fill="#FFFBFC"/>
</g>
<g style="mix-blend-mode:lighten">
<path d="M32.1041 30.849C31.9995 30.4119 32.2688 29.9715 32.7061 29.867C33.1433 29.7625 33.5838 30.0317 33.6883 30.4689C33.7929 30.9061 33.5236 31.3464 33.0863 31.4509C32.6491 31.5555 32.2086 31.2862 32.1041 30.849Z" fill="#FFFBFC"/>
</g>
<g style="mix-blend-mode:lighten">
<path d="M34.6379 43.7954C34.5365 43.3773 34.7963 42.956 35.2146 42.8546C35.6328 42.7532 36.0542 43.013 36.1556 43.4311C36.257 43.8493 35.9972 44.2706 35.5789 44.372C35.1607 44.4733 34.7393 44.2136 34.6379 43.7954Z" fill="#FFFBFC"/>
</g>
<g style="mix-blend-mode:lighten">
<path d="M27.9375 41.0413C27.8519 40.6865 28.0706 40.3285 28.4254 40.2461C28.7803 40.1606 29.1383 40.3792 29.2207 40.734C29.3063 41.0888 29.0876 41.4468 28.7328 41.5291C28.3779 41.6146 28.0199 41.3961 27.9375 41.0413Z" fill="#FFFBFC"/>
</g>
<g style="mix-blend-mode:lighten">
<path d="M26.0711 44.7413C26.0267 44.5607 26.1376 44.3833 26.3182 44.339C26.4988 44.2946 26.6762 44.4055 26.7206 44.5861C26.7649 44.7667 26.6541 44.944 26.4734 44.9884C26.2928 45.0327 26.1154 44.9219 26.0711 44.7413Z" fill="#FFFBFC"/>
</g>
<g style="mix-blend-mode:lighten">
<path d="M59.7733 62.7992C60.068 62.7453 60.3531 62.9385 60.407 63.2332C60.4608 63.5278 60.2676 63.8129 59.9729 63.8667C59.6782 63.9206 59.3931 63.7273 59.3392 63.4327C59.2853 63.1381 59.4786 62.853 59.7733 62.7992Z" fill="#FFFBFC"/>
</g>
<g style="mix-blend-mode:lighten">
<path d="M43.517 63.0355C43.7071 63.0007 43.8877 63.1242 43.9226 63.3143C43.9574 63.5044 43.8339 63.6849 43.6437 63.7198C43.4536 63.7546 43.273 63.6311 43.2382 63.441C43.2033 63.251 43.3269 63.0704 43.517 63.0355Z" fill="#FFFBFC"/>
</g>
<g style="mix-blend-mode:lighten">
<path d="M44.2549 58.9426C44.6604 58.8666 45.047 59.1327 45.123 59.5381C45.1991 59.9436 44.9329 60.3301 44.5274 60.4061C44.1218 60.4822 43.7353 60.2161 43.6592 59.8106C43.5832 59.4051 43.8493 59.0186 44.2549 58.9426Z" fill="#FFFBFC"/>
</g>
<g style="mix-blend-mode:lighten">
<path d="M41.6535 56.8329C42.0401 56.7601 42.4139 57.0167 42.4868 57.4031C42.5597 57.7896 42.303 58.1634 41.9165 58.2363C41.5299 58.3091 41.156 58.0525 41.0832 57.6661C41.0103 57.2796 41.2669 56.9058 41.6535 56.8329Z" fill="#FFFBFC"/>
</g>
<g style="mix-blend-mode:lighten">
<path d="M42.1956 54.1941C42.5219 54.1339 42.8388 54.3493 42.899 54.6756C42.9592 55.0019 42.7437 55.3187 42.4173 55.3789C42.091 55.4391 41.7741 55.2237 41.7139 54.8974C41.6537 54.5711 41.8692 54.2543 42.1956 54.1941Z" fill="#FFFBFC"/>
</g>
<g style="mix-blend-mode:lighten">
<path d="M38.9034 52.3221C39.0682 52.2904 39.2298 52.4013 39.2583 52.566C39.29 52.7307 39.1791 52.8923 39.0143 52.9208C38.8496 52.9525 38.688 52.8416 38.6595 52.6769C38.6278 52.5121 38.7387 52.3506 38.9034 52.3221Z" fill="#FFFBFC"/>
</g>
<g style="mix-blend-mode:lighten">
<path d="M45.7946 23.7736C45.9847 24.008 45.9467 24.3501 45.7122 24.5402C45.4777 24.7302 45.1355 24.6922 44.9454 24.4578C44.7553 24.2234 44.7933 23.8813 45.0278 23.6912C45.2623 23.5011 45.6045 23.5391 45.7946 23.7736Z" fill="#FFFBFC"/>
</g>
<g style="mix-blend-mode:lighten">
<path d="M52.5755 28.9369C52.8004 29.2188 52.7561 29.6275 52.4772 29.8524C52.1952 30.0773 51.7865 30.033 51.5615 29.7542C51.3366 29.4722 51.3809 29.0636 51.6598 28.8387C51.9418 28.6138 52.3505 28.6581 52.5755 28.9369Z" fill="#FFFBFC"/>
</g>
<path d="M51.8879 24.4039C52.0115 24.5591 51.9893 24.7841 51.8341 24.9108C51.6788 25.0343 51.4539 25.0121 51.3271 24.8569C51.2036 24.7017 51.2257 24.4768 51.381 24.3501C51.5362 24.2265 51.7612 24.2487 51.8879 24.4039Z" fill="#FFFBFC"/>
<path d="M57.6959 22.4176C57.8195 22.5696 57.7941 22.7914 57.6421 22.9149C57.49 23.0385 57.2682 23.0131 57.1446 22.8611C57.021 22.709 57.0464 22.4873 57.1985 22.3637C57.3506 22.2402 57.5724 22.2655 57.6959 22.4176Z" fill="#FFFBFC"/>
<mask id="path-124-outside-1_46_2950" maskUnits="userSpaceOnUse" x="31" y="38" width="42" height="16" fill="black">
<rect fill="white" x="31" y="38" width="42" height="16"/>
<path d="M38.1793 40.2775L36.1355 49.8925H41.941L41.4957 52H33.2406L35.7299 40.2775H38.1793ZM50.3074 51.3717C50.3127 51.043 50.3498 50.7063 50.4187 50.3617L50.6335 49.2722C50.7819 48.5246 50.7501 48.0262 50.538 47.777C50.3313 47.5279 49.8673 47.4033 49.1463 47.4033H46.6173L45.6471 52H43.2532L45.7425 40.2775H51.4924C52.3089 40.2934 52.9186 40.3942 53.3215 40.5797C53.7245 40.7653 54.0426 41.0384 54.2759 41.3989C54.4667 41.6958 54.5966 42.0245 54.6656 42.385C54.7398 42.7456 54.7292 43.1565 54.6337 43.6177C54.5118 44.1744 54.252 44.7232 53.8544 45.264C53.462 45.7994 52.9186 46.1785 52.224 46.4012C52.7171 46.6186 53.0326 46.9287 53.1704 47.3317C53.3136 47.7293 53.2977 48.339 53.1227 49.1608L52.9557 49.9482C52.8444 50.4837 52.7887 50.8468 52.7887 51.0377C52.7887 51.3399 52.8894 51.5626 53.0909 51.7057L53.0352 52H50.3392C50.318 51.7402 50.3074 51.5308 50.3074 51.3717ZM50.546 42.3135H47.6989L47.0308 45.4628H49.8064C50.3578 45.4628 50.7846 45.3992 51.0868 45.2719C51.6223 45.0492 51.9616 44.6092 52.1047 43.9517C52.2532 43.2413 52.118 42.7641 51.6992 42.5202C51.4606 42.3824 51.0762 42.3135 50.546 42.3135ZM54.8326 48.5326L55.2938 46.3853H59.8588L59.3975 48.5326H54.8326ZM65.887 44.8425L67.8036 45.3276C68.6413 45.5397 69.2484 45.8233 69.6248 46.1785C70.208 46.7299 70.3883 47.5279 70.1656 48.5723C69.9376 49.6433 69.3385 50.534 68.3683 51.2445C67.398 51.9496 66.1653 52.3022 64.6702 52.3022C63.1433 52.3022 62.0166 51.9549 61.2903 51.2604C60.5639 50.5605 60.3306 49.6009 60.5904 48.3815H62.9285C62.8914 48.917 62.9524 49.3172 63.1115 49.5823C63.4084 50.0648 64.0393 50.306 65.0042 50.306C65.5821 50.306 66.0646 50.2424 66.4516 50.1152C67.1886 49.8713 67.626 49.418 67.7639 48.7552C67.8487 48.3682 67.7427 48.0687 67.4457 47.8566C67.1541 47.6498 66.6611 47.4669 65.9665 47.3078L64.7815 47.0295C63.6204 46.7538 62.8411 46.4542 62.4434 46.1308C61.7701 45.59 61.5554 44.7444 61.7992 43.5939C62.0219 42.5441 62.5892 41.6719 63.5011 40.9774C64.4131 40.2828 65.6086 39.9356 67.0879 39.9356C68.3232 39.9356 69.3067 40.2643 70.0384 40.9217C70.77 41.5738 71.0245 42.5229 70.8018 43.7688H68.4478C68.5591 43.0637 68.3603 42.5626 67.8513 42.2657C67.512 42.0696 67.0587 41.9715 66.4914 41.9715C65.8605 41.9715 65.3276 42.0987 64.8929 42.3532C64.4634 42.6077 64.201 42.9629 64.1056 43.4189C64.0154 43.8377 64.1347 44.1506 64.4634 44.3573C64.6702 44.4952 65.1447 44.6569 65.887 44.8425Z"/>
</mask>
<path d="M38.1793 40.2775L36.1355 49.8925H41.941L41.4957 52H33.2406L35.7299 40.2775H38.1793ZM50.3074 51.3717C50.3127 51.043 50.3498 50.7063 50.4187 50.3617L50.6335 49.2722C50.7819 48.5246 50.7501 48.0262 50.538 47.777C50.3313 47.5279 49.8673 47.4033 49.1463 47.4033H46.6173L45.6471 52H43.2532L45.7425 40.2775H51.4924C52.3089 40.2934 52.9186 40.3942 53.3215 40.5797C53.7245 40.7653 54.0426 41.0384 54.2759 41.3989C54.4667 41.6958 54.5966 42.0245 54.6656 42.385C54.7398 42.7456 54.7292 43.1565 54.6337 43.6177C54.5118 44.1744 54.252 44.7232 53.8544 45.264C53.462 45.7994 52.9186 46.1785 52.224 46.4012C52.7171 46.6186 53.0326 46.9287 53.1704 47.3317C53.3136 47.7293 53.2977 48.339 53.1227 49.1608L52.9557 49.9482C52.8444 50.4837 52.7887 50.8468 52.7887 51.0377C52.7887 51.3399 52.8894 51.5626 53.0909 51.7057L53.0352 52H50.3392C50.318 51.7402 50.3074 51.5308 50.3074 51.3717ZM50.546 42.3135H47.6989L47.0308 45.4628H49.8064C50.3578 45.4628 50.7846 45.3992 51.0868 45.2719C51.6223 45.0492 51.9616 44.6092 52.1047 43.9517C52.2532 43.2413 52.118 42.7641 51.6992 42.5202C51.4606 42.3824 51.0762 42.3135 50.546 42.3135ZM54.8326 48.5326L55.2938 46.3853H59.8588L59.3975 48.5326H54.8326ZM65.887 44.8425L67.8036 45.3276C68.6413 45.5397 69.2484 45.8233 69.6248 46.1785C70.208 46.7299 70.3883 47.5279 70.1656 48.5723C69.9376 49.6433 69.3385 50.534 68.3683 51.2445C67.398 51.9496 66.1653 52.3022 64.6702 52.3022C63.1433 52.3022 62.0166 51.9549 61.2903 51.2604C60.5639 50.5605 60.3306 49.6009 60.5904 48.3815H62.9285C62.8914 48.917 62.9524 49.3172 63.1115 49.5823C63.4084 50.0648 64.0393 50.306 65.0042 50.306C65.5821 50.306 66.0646 50.2424 66.4516 50.1152C67.1886 49.8713 67.626 49.418 67.7639 48.7552C67.8487 48.3682 67.7427 48.0687 67.4457 47.8566C67.1541 47.6498 66.6611 47.4669 65.9665 47.3078L64.7815 47.0295C63.6204 46.7538 62.8411 46.4542 62.4434 46.1308C61.7701 45.59 61.5554 44.7444 61.7992 43.5939C62.0219 42.5441 62.5892 41.6719 63.5011 40.9774C64.4131 40.2828 65.6086 39.9356 67.0879 39.9356C68.3232 39.9356 69.3067 40.2643 70.0384 40.9217C70.77 41.5738 71.0245 42.5229 70.8018 43.7688H68.4478C68.5591 43.0637 68.3603 42.5626 67.8513 42.2657C67.512 42.0696 67.0587 41.9715 66.4914 41.9715C65.8605 41.9715 65.3276 42.0987 64.8929 42.3532C64.4634 42.6077 64.201 42.9629 64.1056 43.4189C64.0154 43.8377 64.1347 44.1506 64.4634 44.3573C64.6702 44.4952 65.1447 44.6569 65.887 44.8425Z" fill="white"/>
<path d="M38.1793 40.2775L39.507 40.5597L39.8555 38.9203H38.1793V40.2775ZM36.1355 49.8925L34.8079 49.6103L34.4593 51.2498H36.1355V49.8925ZM41.941 49.8925L43.269 50.1731L43.6151 48.5352H41.941V49.8925ZM41.4957 52V53.3573H42.5961L42.8236 52.2806L41.4957 52ZM33.2406 52L31.913 51.7181L31.5649 53.3573H33.2406V52ZM35.7299 40.2775V38.9203H34.6305L34.4022 39.9956L35.7299 40.2775ZM36.8517 39.9953L34.8079 49.6103L37.4631 50.1747L39.507 40.5597L36.8517 39.9953ZM36.1355 51.2498H41.941V48.5352H36.1355V51.2498ZM40.6131 49.6119L40.1677 51.7194L42.8236 52.2806L43.269 50.1731L40.6131 49.6119ZM41.4957 50.6427H33.2406V53.3573H41.4957V50.6427ZM34.5683 52.2819L37.0576 40.5595L34.4022 39.9956L31.913 51.7181L34.5683 52.2819ZM35.7299 41.6348H38.1793V38.9203H35.7299V41.6348ZM50.3074 51.3717L48.9503 51.3498L48.9501 51.3608V51.3717H50.3074ZM50.4187 50.3617L51.7497 50.6279L51.7504 50.6242L50.4187 50.3617ZM50.6335 49.2722L49.3022 49.0078L49.3018 49.0097L50.6335 49.2722ZM50.538 47.777L49.4935 48.6438L49.4989 48.6503L49.5044 48.6567L50.538 47.777ZM46.6173 47.4033V46.046H45.5166L45.2893 47.123L46.6173 47.4033ZM45.647 52V53.3573H46.7478L46.9751 52.2803L45.647 52ZM43.2532 52L41.9256 51.7181L41.5775 53.3573H43.2532V52ZM45.7425 40.2775V38.9203H44.6432L44.4148 39.9956L45.7425 40.2775ZM51.4924 40.2775L51.5188 38.9205L51.5056 38.9203H51.4924V40.2775ZM54.2759 41.3989L55.4176 40.6649L55.4154 40.6615L54.2759 41.3989ZM54.6656 42.385L53.3324 42.6399L53.3342 42.6493L53.3362 42.6587L54.6656 42.385ZM54.6337 43.6177L55.9596 43.9081L55.9613 43.9004L55.9629 43.8927L54.6337 43.6177ZM53.8544 45.264L52.7609 44.4599L52.7595 44.4618L53.8544 45.264ZM52.224 46.4012L51.8097 45.1087L48.4042 46.2005L51.6765 47.6432L52.224 46.4012ZM53.1704 47.3317L51.8862 47.771L51.8897 47.7813L51.8934 47.7914L53.1704 47.3317ZM53.1227 49.1608L51.7952 48.8782L51.795 48.8792L53.1227 49.1608ZM52.9557 49.9482L51.6279 49.6665L51.6268 49.6719L52.9557 49.9482ZM53.0909 51.7057L54.4245 51.9581L54.5862 51.1032L53.877 50.5993L53.0909 51.7057ZM53.0352 52V53.3573H54.1598L54.3689 52.2523L53.0352 52ZM50.3392 52L48.9864 52.1104L49.0882 53.3573H50.3392V52ZM47.6989 42.3135V40.9562H46.5993L46.3711 42.0318L47.6989 42.3135ZM47.0308 45.4628L45.7031 45.1811L45.3555 46.8201H47.0308V45.4628ZM51.0868 45.2719L50.5656 44.0187L50.5601 44.021L51.0868 45.2719ZM52.1047 43.9517L53.431 44.2405L53.4333 44.2294L52.1047 43.9517ZM51.6992 42.5202L52.3821 41.3473L52.3782 41.345L51.6992 42.5202ZM51.6645 51.3936C51.6684 51.1524 51.6957 50.8975 51.7497 50.6279L49.0878 50.0955C49.0039 50.5151 48.957 50.9336 48.9503 51.3498L51.6645 51.3936ZM51.7504 50.6242L51.9651 49.5346L49.3018 49.0097L49.0871 50.0993L51.7504 50.6242ZM51.9648 49.5365C52.0512 49.1011 52.1017 48.6623 52.0755 48.2513C52.0502 47.855 51.9438 47.3347 51.5717 46.8974L49.5044 48.6567C49.4222 48.5601 49.3865 48.4732 49.3729 48.4316C49.3601 48.3922 49.3639 48.3843 49.3664 48.4242C49.372 48.5115 49.3642 48.6957 49.3022 49.0078L51.9648 49.5365ZM51.5826 46.9103C51.2322 46.4881 50.7659 46.2876 50.3871 46.1859C49.9984 46.0815 49.5726 46.046 49.1463 46.046V48.7605C49.441 48.7605 49.6077 48.7873 49.683 48.8075C49.717 48.8167 49.7083 48.8182 49.674 48.7991C49.6379 48.779 49.5668 48.7321 49.4935 48.6438L51.5826 46.9103ZM49.1463 46.046H46.6173V48.7605H49.1463V46.046ZM45.2893 47.123L44.319 51.7197L46.9751 52.2803L47.9453 47.6836L45.2893 47.123ZM45.647 50.6427H43.2532V53.3573H45.647V50.6427ZM44.5809 52.2819L47.0702 40.5595L44.4148 39.9956L41.9256 51.7181L44.5809 52.2819ZM45.7425 41.6348H51.4924V38.9203H45.7425V41.6348ZM51.4659 41.6346C52.2264 41.6494 52.6091 41.746 52.7538 41.8126L53.8893 39.3469C53.228 39.0424 52.3914 38.9375 51.5188 38.9205L51.4659 41.6346ZM52.7538 41.8126C52.9312 41.8943 53.0476 41.9991 53.1363 42.1362L55.4154 40.6615C55.0375 40.0776 54.5178 39.6364 53.8893 39.3469L52.7538 41.8126ZM53.1341 42.1328C53.2274 42.2779 53.2948 42.4429 53.3324 42.6399L55.9987 42.1302C55.8985 41.6061 55.706 41.1136 55.4176 40.6649L53.1341 42.1328ZM53.3362 42.6587C53.3643 42.7953 53.3727 43.0138 53.3046 43.3427L55.9629 43.8927C56.0857 43.2991 56.1153 42.6959 55.995 42.1113L53.3362 42.6587ZM53.3079 43.3273C53.2332 43.6684 53.0657 44.0453 52.7609 44.4599L54.9479 46.068C55.4383 45.401 55.7904 44.6805 55.9596 43.9081L53.3079 43.3273ZM52.7595 44.4618C52.5533 44.7432 52.2596 44.9645 51.8097 45.1087L52.6384 47.6937C53.5775 47.3926 54.3707 46.8557 54.9492 46.0661L52.7595 44.4618ZM51.6765 47.6432C51.8046 47.6996 51.8606 47.7467 51.8789 47.7647C51.8877 47.7734 51.8895 47.7769 51.8883 47.775C51.887 47.773 51.8862 47.7709 51.8862 47.771L54.4546 46.8924C54.1632 46.0405 53.5134 45.4863 52.7716 45.1593L51.6765 47.6432ZM51.8934 47.7914C51.8885 47.7779 51.9144 47.8471 51.909 48.0518C51.9039 48.2491 51.8713 48.5206 51.7952 48.8782L54.4502 49.4435C54.635 48.5756 54.7262 47.6462 54.4475 46.872L51.8934 47.7914ZM51.795 48.8792L51.628 49.6665L54.2834 50.2298L54.4504 49.4425L51.795 48.8792ZM51.6268 49.6719C51.5194 50.1886 51.4314 50.6856 51.4314 51.0377H54.146C54.146 51.0479 54.147 50.9914 54.1721 50.8278C54.195 50.6783 54.2317 50.4789 54.2846 50.2245L51.6268 49.6719ZM51.4314 51.0377C51.4314 51.669 51.6635 52.3566 52.3047 52.8122L53.877 50.5993C53.9699 50.6653 54.051 50.7617 54.1009 50.8719C54.1465 50.9728 54.146 51.0403 54.146 51.0377H51.4314ZM51.7573 51.4534L51.7016 51.7477L54.3689 52.2523L54.4245 51.9581L51.7573 51.4534ZM53.0352 50.6427H50.3392V53.3573H53.0352V50.6427ZM51.692 51.8896C51.6722 51.6466 51.6647 51.4782 51.6647 51.3717H48.9501C48.9501 51.5833 48.9639 51.8339 48.9864 52.1104L51.692 51.8896ZM50.546 40.9562H47.6989V43.6707H50.546V40.9562ZM46.3711 42.0318L45.7031 45.1811L48.3586 45.7444L49.0266 42.5951L46.3711 42.0318ZM47.0308 46.8201H49.8064V44.1055H47.0308V46.8201ZM49.8064 46.8201C50.432 46.8201 51.0684 46.7523 51.6135 46.5228L50.5601 44.021C50.5007 44.046 50.2835 44.1055 49.8064 44.1055V46.8201ZM51.6079 46.5252C52.6236 46.1028 53.2108 45.2517 53.431 44.2405L50.7785 43.663C50.7124 43.9666 50.621 43.9957 50.5656 44.0187L51.6079 46.5252ZM53.4333 44.2294C53.5331 43.7518 53.5692 43.2155 53.4206 42.691C53.2596 42.123 52.9031 41.6507 52.3821 41.3473L51.0162 43.6932C50.9788 43.6714 50.9289 43.6325 50.8838 43.5739C50.8391 43.5157 50.8176 43.4621 50.8088 43.431C50.8009 43.4032 50.8062 43.4044 50.8057 43.4475C50.8052 43.4909 50.799 43.5646 50.7762 43.6741L53.4333 44.2294ZM52.3782 41.345C51.8178 41.0212 51.1314 40.9562 50.546 40.9562V43.6707C50.7571 43.6707 50.9015 43.6848 50.9924 43.7011C51.0892 43.7185 51.0808 43.7305 51.0201 43.6955L52.3782 41.345ZM54.8326 48.5326L53.5056 48.2475L53.1528 49.8899H54.8326V48.5326ZM55.2938 46.3853V45.028H54.1971L53.9668 46.1002L55.2938 46.3853ZM59.8587 46.3853L61.1858 46.6704L61.5386 45.028H59.8587V46.3853ZM59.3975 48.5326V49.8899H60.4942L60.7245 48.8176L59.3975 48.5326ZM56.1596 48.8176L56.6208 46.6704L53.9668 46.1002L53.5056 48.2475L56.1596 48.8176ZM55.2938 47.7426H59.8587V45.028H55.2938V47.7426ZM58.5317 46.1002L58.0705 48.2475L60.7245 48.8176L61.1858 46.6704L58.5317 46.1002ZM59.3975 47.1753H54.8326V49.8899H59.3975V47.1753ZM65.887 44.8425L66.22 43.5267L66.2162 43.5257L65.887 44.8425ZM67.8036 45.3276L68.1367 44.0118L68.1367 44.0118L67.8036 45.3276ZM69.6248 46.1785L70.5573 45.1923L70.5564 45.1914L69.6248 46.1785ZM70.1656 48.5723L68.8382 48.2893L68.8381 48.2897L70.1656 48.5723ZM68.3683 51.2445L69.1662 52.3424L69.1701 52.3396L68.3683 51.2445ZM61.2903 51.2604L60.3485 52.2378L60.3522 52.2414L61.2903 51.2604ZM60.5904 48.3815V47.0242H59.4918L59.2629 48.0987L60.5904 48.3815ZM62.9285 48.3815L64.2826 48.4753L64.3831 47.0242H62.9285V48.3815ZM63.1115 49.5823L61.9476 50.2807L61.9515 50.2872L61.9555 50.2937L63.1115 49.5823ZM66.4516 50.1152L66.8755 51.4046L66.8781 51.4037L66.4516 50.1152ZM67.7639 48.7552L66.438 48.4647L66.4365 48.4717L66.435 48.4788L67.7639 48.7552ZM67.4457 47.8566L68.2347 46.7521L68.2308 46.7494L67.4457 47.8566ZM65.9665 47.3078L65.6561 48.6292L65.6635 48.6309L65.9665 47.3078ZM64.7815 47.0295L64.468 48.3501L64.4712 48.3508L64.7815 47.0295ZM62.4434 46.1308L63.2999 45.0778L63.2933 45.0726L62.4434 46.1308ZM61.7992 43.5939L60.4715 43.3122L60.4715 43.3124L61.7992 43.5939ZM70.0384 40.9217L69.1312 41.9313L69.1353 41.9349L70.0384 40.9217ZM70.8018 43.7688V45.1261H71.938L72.1379 44.0076L70.8018 43.7688ZM68.4478 43.7688L67.1071 43.5571L66.8594 45.1261H68.4478V43.7688ZM67.8513 42.2657L68.5352 41.0933L68.5307 41.0907L67.8513 42.2657ZM64.8929 42.3532L64.2072 41.1819L64.2009 41.1856L64.8929 42.3532ZM64.1056 43.4189L65.4325 43.7044L65.4341 43.697L64.1056 43.4189ZM64.4634 44.3573L65.2163 43.228L65.2014 43.218L65.1861 43.2084L64.4634 44.3573ZM65.554 46.1582L67.4706 46.6434L68.1367 44.0118L66.22 43.5267L65.554 46.1582ZM67.4705 46.6434C68.2167 46.8322 68.5624 47.0422 68.6933 47.1657L70.5564 45.1914C69.9343 44.6044 69.066 44.2471 68.1367 44.0118L67.4705 46.6434ZM68.6924 47.1648C68.8202 47.2857 68.9989 47.5352 68.8382 48.2893L71.4931 48.8553C71.7776 47.5205 71.5958 46.1741 70.5573 45.1923L68.6924 47.1648ZM68.8381 48.2897C68.6866 49.0015 68.2961 49.6151 67.5664 50.1494L69.1701 52.3396C70.3809 51.453 71.1887 50.2852 71.4931 48.8549L68.8381 48.2897ZM67.5703 50.1465C66.8838 50.6454 65.9502 50.9449 64.6702 50.9449V53.6595C66.3805 53.6595 67.9122 53.2538 69.1662 52.3424L67.5703 50.1465ZM64.6702 50.9449C63.3155 50.9449 62.5979 50.6328 62.2283 50.2794L60.3522 52.2414C61.4354 53.2771 62.9711 53.6595 64.6702 53.6595V50.9449ZM62.232 50.283C61.9259 49.988 61.7292 49.55 61.9179 48.6643L59.2629 48.0987C58.932 49.6518 59.2019 51.133 60.3485 52.2378L62.232 50.283ZM60.5904 49.7387H62.9285V47.0242H60.5904V49.7387ZM61.5745 48.2876C61.5307 48.9193 61.5742 49.6584 61.9476 50.2807L64.2753 48.884C64.3101 48.942 64.3 48.9558 64.2882 48.8789C64.2767 48.8034 64.2688 48.6736 64.2826 48.4753L61.5745 48.2876ZM61.9555 50.2937C62.6355 51.3987 63.9048 51.6633 65.0042 51.6633V48.9488C64.6222 48.9488 64.4017 48.8993 64.2921 48.8573C64.2 48.8222 64.2309 48.8117 64.2674 48.871L61.9555 50.2937ZM65.0042 51.6633C65.671 51.6633 66.3076 51.5913 66.8755 51.4046L66.0277 48.8258C65.8216 48.8936 65.4933 48.9488 65.0042 48.9488V51.6633ZM66.8781 51.4037C67.9941 51.0344 68.84 50.2464 69.0927 49.0316L66.435 48.4788C66.412 48.5895 66.3831 48.7082 66.0252 48.8266L66.8781 51.4037ZM69.0897 49.0458C69.173 48.6658 69.1835 48.2284 69.0274 47.7874C68.8683 47.3377 68.5749 46.9951 68.2346 46.7521L66.6568 48.961C66.6135 48.9301 66.5216 48.8433 66.4685 48.6932C66.4184 48.5518 66.4396 48.4577 66.438 48.4647L69.0897 49.0458ZM68.2308 46.7494C67.7117 46.3813 66.9996 46.152 66.2695 45.9848L65.6635 48.6309C66.3225 48.7818 66.5965 48.9183 66.6607 48.9638L68.2308 46.7494ZM66.2769 45.9865L65.0919 45.7082L64.4712 48.3508L65.6561 48.6292L66.2769 45.9865ZM65.0951 45.7089C63.9359 45.4337 63.4341 45.1871 63.2998 45.0778L61.587 47.1838C62.248 47.7214 63.305 48.0739 64.468 48.35L65.0951 45.7089ZM63.2933 45.0726C63.1628 44.9677 62.9448 44.7348 63.127 43.8753L60.4715 43.3124C60.1659 44.7539 60.3774 46.2123 61.5935 47.189L63.2933 45.0726ZM63.127 43.8755C63.2774 43.1664 63.6511 42.5693 64.3235 42.0572L62.6788 39.8976C61.5274 40.7746 60.7664 41.9217 60.4715 43.3122L63.127 43.8755ZM64.3235 42.0572C64.9382 41.589 65.8189 41.2928 67.0879 41.2928V38.5783C65.3984 38.5783 63.8879 38.9767 62.6788 39.8976L64.3235 42.0572ZM67.0879 41.2928C68.0772 41.2928 68.7077 41.5508 69.1312 41.9313L70.9455 39.9121C69.9057 38.9778 68.5692 38.5783 67.0879 38.5783V41.2928ZM69.1353 41.9349C69.4121 42.1817 69.633 42.5944 69.4657 43.53L72.1379 44.0076C72.4161 42.4514 72.128 40.966 70.9415 39.9085L69.1353 41.9349ZM70.8018 42.4115H68.4478V45.1261H70.8018V42.4115ZM69.7885 43.9805C69.8701 43.4634 69.8575 42.9021 69.6438 42.3636C69.4218 41.8041 69.026 41.3796 68.5352 41.0933L67.1674 43.4381C67.1834 43.4475 67.1759 43.4458 67.1595 43.4274C67.1422 43.4078 67.1285 43.3846 67.1206 43.3648C67.1057 43.3273 67.1368 43.3691 67.1071 43.5571L69.7885 43.9805ZM68.5307 41.0907C67.9127 40.7334 67.1971 40.6142 66.4914 40.6142V43.3288C66.9203 43.3288 67.1114 43.4057 67.172 43.4408L68.5307 41.0907ZM66.4914 40.6142C65.6796 40.6142 64.8964 40.7785 64.2072 41.1819L65.5786 43.5246C65.7589 43.419 66.0413 43.3288 66.4914 43.3288V40.6142ZM64.2009 41.1856C63.4702 41.6186 62.9566 42.2832 62.7771 43.1408L65.4341 43.697C65.4454 43.6426 65.4566 43.5969 65.5848 43.5209L64.2009 41.1856ZM62.7787 43.1334C62.6937 43.5283 62.6831 43.9894 62.8592 44.4513C63.04 44.9252 63.3687 45.2722 63.7407 45.5062L65.1861 43.2084C65.2295 43.2357 65.3342 43.3229 65.3956 43.484C65.4525 43.6331 65.4273 43.7284 65.4325 43.7044L62.7787 43.1334ZM63.7106 45.4867C63.9673 45.6578 64.2768 45.7782 64.5366 45.8667C64.823 45.9643 65.1669 46.0615 65.5578 46.1592L66.2162 43.5257C65.8648 43.4379 65.6004 43.3614 65.4122 43.2973C65.1975 43.2241 65.1664 43.1947 65.2163 43.228L63.7106 45.4867Z" fill="#0089A7" mask="url(#path-124-outside-1_46_2950)"/>
<defs>
<filter id="filter0_f_46_2950" x="0.0132723" y="0.513272" width="106.485" height="96.4931" filterUnits="userSpaceOnUse" color-interpolation-filters="sRGB">
<feFlood flood-opacity="0" result="BackgroundImageFix"/>
<feBlend mode="normal" in="SourceGraphic" in2="BackgroundImageFix" result="shape"/>
<feGaussianBlur stdDeviation="7.12105" result="effect1_foregroundBlur_46_2950"/>
</filter>
<filter id="filter1_d_46_2950" x="12.2204" y="7.52831" width="78.2642" height="78.2641" filterUnits="userSpaceOnUse" color-interpolation-filters="sRGB">
<feFlood flood-opacity="0" result="BackgroundImageFix"/>
<feColorMatrix in="SourceAlpha" type="matrix" values="0 0 0 0 0 0 0 0 0 0 0 0 0 0 0 0 0 0 127 0" result="hardAlpha"/>
<feOffset/>
<feGaussianBlur stdDeviation="8.01887"/>
<feComposite in2="hardAlpha" operator="out"/>
<feColorMatrix type="matrix" values="0 0 0 0 0.227451 0 0 0 0 0.909804 0 0 0 0 0.875686 0 0 0 0.6 0"/>
<feBlend mode="normal" in2="BackgroundImageFix" result="effect1_dropShadow_46_2950"/>
<feBlend mode="normal" in="SourceGraphic" in2="effect1_dropShadow_46_2950" result="shape"/>
</filter>
<clipPath id="paint2_diamond_46_2950_clip_path"><path d="M44.9202 53.4002L42.4908 45.1523L34.842 43.0831C34.842 43.0831 35.0215 54.6011 40.8715 61.3498L44.9202 53.4002Z"/></clipPath><clipPath id="paint3_diamond_46_2950_clip_path"><path d="M42.4908 45.1537C42.4908 45.1537 46.7796 39.4554 51.8497 37.7003V27.7857C51.8497 27.7857 39.0412 36.3054 34.842 43.0831L42.4908 45.1523V45.1537Z"/></clipPath><clipPath id="paint6_diamond_46_2950_clip_path"><path d="M61.2072 45.1537C61.2072 45.1537 56.9184 39.4554 51.8483 37.7003V27.7857C51.8483 27.7857 64.6555 36.3041 68.856 43.0831L61.2072 45.1523V45.1537Z"/></clipPath><clipPath id="paint7_diamond_46_2950_clip_path"><path d="M51.8485 37.7003V57.3829L44.9203 53.4015L42.4908 45.1537C42.4908 45.1537 45.3703 39.5148 51.8498 37.7003H51.8485Z"/></clipPath><clipPath id="paint8_diamond_46_2950_clip_path"><path d="M51.8484 37.7003V57.3829L58.7765 53.4015L61.206 45.1537C61.206 45.1537 58.3265 39.5148 51.847 37.7003H51.8484Z"/></clipPath><filter id="filter2_f_46_2950" x="56.6326" y="53.8044" width="12.2528" height="12.2528" filterUnits="userSpaceOnUse" color-interpolation-filters="sRGB">
<feFlood flood-opacity="0" result="BackgroundImageFix"/>
<feBlend mode="normal" in="SourceGraphic" in2="BackgroundImageFix" result="shape"/>
<feGaussianBlur stdDeviation="1.76415" result="effect1_foregroundBlur_46_2950"/>
</filter>
<filter id="filter3_f_46_2950" x="29.8436" y="36.253" width="13.1325" height="13.1325" filterUnits="userSpaceOnUse" color-interpolation-filters="sRGB">
<feFlood flood-opacity="0" result="BackgroundImageFix"/>
<feBlend mode="normal" in="SourceGraphic" in2="BackgroundImageFix" result="shape"/>
<feGaussianBlur stdDeviation="1.76415" result="effect1_foregroundBlur_46_2950"/>
</filter>
<filter id="filter4_f_46_2950" x="57.2925" y="31.8982" width="10.942" height="10.942" filterUnits="userSpaceOnUse" color-interpolation-filters="sRGB">
<feFlood flood-opacity="0" result="BackgroundImageFix"/>
<feBlend mode="normal" in="SourceGraphic" in2="BackgroundImageFix" result="shape"/>
<feGaussianBlur stdDeviation="1.76415" result="effect1_foregroundBlur_46_2950"/>
</filter>
<filter id="filter5_f_46_2950" x="36.6375" y="35.4853" width="28.2625" height="28.7081" filterUnits="userSpaceOnUse" color-interpolation-filters="sRGB">
<feFlood flood-opacity="0" result="BackgroundImageFix"/>
<feBlend mode="normal" in="SourceGraphic" in2="BackgroundImageFix" result="shape"/>
<feGaussianBlur stdDeviation="2.12821" result="effect1_foregroundBlur_46_2950"/>
</filter>
<filter id="filter6_f_46_2950" x="39.7215" y="37.4729" width="4.85186" height="4.85681" filterUnits="userSpaceOnUse" color-interpolation-filters="sRGB">
<feFlood flood-opacity="0" result="BackgroundImageFix"/>
<feBlend mode="normal" in="SourceGraphic" in2="BackgroundImageFix" result="shape"/>
<feGaussianBlur stdDeviation="0.962264" result="effect1_foregroundBlur_46_2950"/>
</filter>
<filter id="filter7_f_46_2950" x="61.9638" y="50.0841" width="4.70013" height="4.7044" filterUnits="userSpaceOnUse" color-interpolation-filters="sRGB">
<feFlood flood-opacity="0" result="BackgroundImageFix"/>
<feBlend mode="normal" in="SourceGraphic" in2="BackgroundImageFix" result="shape"/>
<feGaussianBlur stdDeviation="0.962264" result="effect1_foregroundBlur_46_2950"/>
</filter>
<filter id="filter8_f_46_2950" x="40.4231" y="53.4621" width="4.82977" height="4.83471" filterUnits="userSpaceOnUse" color-interpolation-filters="sRGB">
<feFlood flood-opacity="0" result="BackgroundImageFix"/>
<feBlend mode="normal" in="SourceGraphic" in2="BackgroundImageFix" result="shape"/>
<feGaussianBlur stdDeviation="0.962264" result="effect1_foregroundBlur_46_2950"/>
</filter>
<filter id="filter9_f_46_2950" x="25.0135" y="20.1472" width="43.7715" height="44.7763" filterUnits="userSpaceOnUse" color-interpolation-filters="sRGB">
<feFlood flood-opacity="0" result="BackgroundImageFix"/>
<feBlend mode="normal" in="SourceGraphic" in2="BackgroundImageFix" result="shape"/>
<feGaussianBlur stdDeviation="0.524012" result="effect1_foregroundBlur_46_2950"/>
</filter>
<linearGradient id="paint0_linear_46_2950" x1="12.4353" y1="39.239" x2="94.4658" y2="54.8723" gradientUnits="userSpaceOnUse">
<stop stop-color="#B5FBFF"/>
<stop offset="1" stop-color="#0158A0"/>
</linearGradient>
<radialGradient id="paint1_radial_46_2950" cx="0" cy="0" r="1" gradientUnits="userSpaceOnUse" gradientTransform="translate(43.1152 65.9805) rotate(-54.5036) scale(12.9299 10.0217)">
<stop stop-color="#23DBFD"/>
<stop offset="0.414319" stop-color="#0065B8"/>
<stop offset="0.852751" stop-color="#003663"/>
</radialGradient>
<linearGradient id="paint2_diamond_46_2950" x1="0" y1="0" x2="500" y2="500" gradientUnits="userSpaceOnUse">
<stop stop-color="#23DBFD"/>
<stop offset="0.541667" stop-color="#0065B8"/>
<stop offset="1" stop-color="#003663"/>
</linearGradient>
<linearGradient id="paint3_diamond_46_2950" x1="0" y1="0" x2="500" y2="500" gradientUnits="userSpaceOnUse">
<stop stop-color="#B0F3FF"/>
<stop offset="0.473958" stop-color="#278BDD"/>
<stop offset="1" stop-color="#00569C"/>
</linearGradient>
<radialGradient id="paint4_radial_46_2950" cx="0" cy="0" r="1" gradientUnits="userSpaceOnUse" gradientTransform="translate(62.8174 61.4237) rotate(-157.289) scale(14.185 23.8095)">
<stop stop-color="#23DBFD"/>
<stop offset="0.356211" stop-color="#0065B8"/>
<stop offset="0.763504" stop-color="#00569C"/>
</radialGradient>
<radialGradient id="paint5_radial_46_2950" cx="0" cy="0" r="1" gradientUnits="userSpaceOnUse" gradientTransform="translate(62.4305 60.4945) rotate(-70.7725) scale(18.5665 33.0945)">
<stop stop-color="#B0F3FF"/>
<stop offset="0.338542" stop-color="#278BDD"/>
<stop offset="1" stop-color="#00569C"/>
</radialGradient>
<linearGradient id="paint6_diamond_46_2950" x1="0" y1="0" x2="500" y2="500" gradientUnits="userSpaceOnUse">
<stop stop-color="#B0F3FF"/>
<stop offset="0.447917" stop-color="#278BDD"/>
<stop offset="1" stop-color="#00569C"/>
</linearGradient>
<linearGradient id="paint7_diamond_46_2950" x1="0" y1="0" x2="500" y2="500" gradientUnits="userSpaceOnUse">
<stop stop-color="#6BF0FF"/>
<stop offset="0.666667" stop-color="#2E90E0"/>
<stop offset="1" stop-color="#0064B6"/>
</linearGradient>
<linearGradient id="paint8_diamond_46_2950" x1="0" y1="0" x2="500" y2="500" gradientUnits="userSpaceOnUse">
<stop stop-color="#22E7FE"/>
<stop offset="0.67" stop-color="#2FB0EC"/>
<stop offset="1" stop-color="#3695E3"/>
</linearGradient>
<linearGradient id="paint9_linear_46_2950" x1="49.3396" y1="37.6699" x2="55.41" y2="53.3738" gradientUnits="userSpaceOnUse">
<stop stop-color="white" stop-opacity="0.4"/>
<stop offset="1" stop-color="white" stop-opacity="0"/>
</linearGradient>
<linearGradient id="paint10_linear_46_2950" x1="42.0815" y1="45.1919" x2="49.0757" y2="65.3166" gradientUnits="userSpaceOnUse">
<stop stop-color="white" stop-opacity="0.77"/>
<stop offset="0.642325" stop-color="white" stop-opacity="0"/>
</linearGradient>
<linearGradient id="paint11_linear_46_2950" x1="51.847" y1="27.3106" x2="34.8235" y2="43.0805" gradientUnits="userSpaceOnUse">
<stop stop-color="#DADADA"/>
<stop offset="1" stop-color="white" stop-opacity="0"/>
</linearGradient>
<linearGradient id="paint12_linear_46_2950" x1="51.847" y1="27.3106" x2="34.8235" y2="43.0805" gradientUnits="userSpaceOnUse">
<stop stop-color="#DADADA"/>
<stop offset="1" stop-color="white" stop-opacity="0"/>
</linearGradient>
<radialGradient id="paint13_radial_46_2950" cx="0" cy="0" r="1" gradientUnits="userSpaceOnUse" gradientTransform="translate(57.3374 63.6658) rotate(90) scale(2.31467 5.4891)">
<stop stop-color="white"/>
<stop offset="1" stop-color="white" stop-opacity="0"/>
</radialGradient>
<radialGradient id="paint14_radial_46_2950" cx="0" cy="0" r="1" gradientUnits="userSpaceOnUse" gradientTransform="translate(56.5278 41.4018) rotate(90) scale(3.75186 4.67949)">
<stop stop-color="white"/>
<stop offset="1" stop-color="white" stop-opacity="0"/>
</radialGradient>
<radialGradient id="paint15_radial_46_2950" cx="0" cy="0" r="1" gradientUnits="userSpaceOnUse" gradientTransform="translate(38.6664 44.0157) rotate(90.5567) scale(1.63821 5.50537)">
<stop stop-color="white"/>
<stop offset="1" stop-color="white" stop-opacity="0"/>
</radialGradient>
</defs>
</svg>
