<svg width="107" height="97" viewBox="0 0 107 97" fill="none" xmlns="http://www.w3.org/2000/svg">
<g filter="url(#filter0_f_46_2952)">
<path fill-rule="evenodd" clip-rule="evenodd" d="M60.9485 15.7221C67.0873 15.5445 73.953 13.8375 78.9834 17.3614C84.0186 20.8886 84.6213 27.9848 86.7121 33.7696C88.8667 39.7311 94.3408 46.2107 91.4498 51.8534C88.311 57.9798 79.2585 57.4362 73.0587 60.4189C69.2976 62.2283 65.264 63.2826 62.08 65.9827C56.2434 70.9325 54.3989 81.3886 46.8532 82.6425C40.2392 83.7416 33.7224 77.1973 30.7347 71.1915C27.8101 65.3125 34.242 57.8177 31.5288 51.838C28.2496 44.6105 16.3417 43.419 14.618 35.6703C13.0252 28.5106 17.1103 19.4748 23.5493 15.9681C30.4257 12.2231 38.6849 18.3521 46.512 18.3007C51.4845 18.268 55.978 15.8659 60.9485 15.7221Z" fill="url(#paint0_linear_46_2952)"/>
</g>
<g filter="url(#filter1_d_46_2952)">
<path d="M51.8718 67.5795L39.0256 62.1618L43.7638 52.8569L51.8718 57.5179V67.5795Z" fill="url(#paint1_radial_46_2952)"/>
<g clip-path="url(#paint2_diamond_46_2952_clip_path)" data-figma-skip-parse="true"><g transform="matrix(0.00231657 0.0213897 -0.0234795 0.0025429 36.8898 39.7759)"><rect x="0" y="0" width="1087.99" height="326.695" fill="url(#paint2_diamond_46_2952)" opacity="1" shape-rendering="crispEdges"/><rect x="0" y="0" width="1087.99" height="326.695" transform="scale(1 -1)" fill="url(#paint2_diamond_46_2952)" opacity="1" shape-rendering="crispEdges"/><rect x="0" y="0" width="1087.99" height="326.695" transform="scale(-1 1)" fill="url(#paint2_diamond_46_2952)" opacity="1" shape-rendering="crispEdges"/><rect x="0" y="0" width="1087.99" height="326.695" transform="scale(-1)" fill="url(#paint2_diamond_46_2952)" opacity="1" shape-rendering="crispEdges"/></g></g><path d="M43.7639 52.8568L40.9207 43.2044L31.9695 40.7828C31.9695 40.7828 32.1795 54.2622 39.0258 62.1602L43.7639 52.8568Z" data-figma-gradient-fill="{&#34;type&#34;:&#34;GRADIENT_DIAMOND&#34;,&#34;stops&#34;:[{&#34;color&#34;:{&#34;r&#34;:0.90980392694473267,&#34;g&#34;:0.36078432202339172,&#34;b&#34;:1.0,&#34;a&#34;:1.0},&#34;position&#34;:0.0},{&#34;color&#34;:{&#34;r&#34;:0.45494273304939270,&#34;g&#34;:0.27320262789726257,&#34;b&#34;:0.59773856401443481,&#34;a&#34;:1.0},&#34;position&#34;:0.54166668653488159},{&#34;color&#34;:{&#34;r&#34;:0.26399999856948853,&#34;g&#34;:0.0,&#34;b&#34;:0.38823530077934265,&#34;a&#34;:1.0},&#34;position&#34;:1.0}],&#34;stopsVar&#34;:[],&#34;transform&#34;:{&#34;m00&#34;:4.6331429481506348,&#34;m01&#34;:-46.958980560302734,&#34;m02&#34;:58.052703857421875,&#34;m10&#34;:42.779357910156250,&#34;m11&#34;:5.0858097076416016,&#34;m12&#34;:15.843311309814453},&#34;opacity&#34;:1.0,&#34;blendMode&#34;:&#34;NORMAL&#34;,&#34;visible&#34;:true}"/>
<g clip-path="url(#paint3_diamond_46_2952_clip_path)" data-figma-skip-parse="true"><g transform="matrix(-0.0221619 0.0197681 -0.00923354 -0.0407604 54.1096 20.7801)"><rect x="0" y="0" width="1039.07" height="431.49" fill="url(#paint3_diamond_46_2952)" opacity="1" shape-rendering="crispEdges"/><rect x="0" y="0" width="1039.07" height="431.49" transform="scale(1 -1)" fill="url(#paint3_diamond_46_2952)" opacity="1" shape-rendering="crispEdges"/><rect x="0" y="0" width="1039.07" height="431.49" transform="scale(-1 1)" fill="url(#paint3_diamond_46_2952)" opacity="1" shape-rendering="crispEdges"/><rect x="0" y="0" width="1039.07" height="431.49" transform="scale(-1)" fill="url(#paint3_diamond_46_2952)" opacity="1" shape-rendering="crispEdges"/></g></g><path d="M40.9207 43.206C40.9207 43.206 45.94 36.5374 51.8735 34.4834V22.8804C51.8735 22.8804 36.8837 32.851 31.9695 40.7829L40.9207 43.2045V43.206Z" data-figma-gradient-fill="{&#34;type&#34;:&#34;GRADIENT_DIAMOND&#34;,&#34;stops&#34;:[{&#34;color&#34;:{&#34;r&#34;:0.90980392694473267,&#34;g&#34;:0.36078432202339172,&#34;b&#34;:1.0,&#34;a&#34;:1.0},&#34;position&#34;:0.0},{&#34;color&#34;:{&#34;r&#34;:0.41254901885986328,&#34;g&#34;:0.21176470816135406,&#34;b&#34;:0.83921569585800171,&#34;a&#34;:1.0},&#34;position&#34;:0.47395834326744080},{&#34;color&#34;:{&#34;r&#34;:0.61215686798095703,&#34;g&#34;:0.13333334028720856,&#34;b&#34;:0.78039216995239258,&#34;a&#34;:1.0},&#34;position&#34;:1.0}],&#34;stopsVar&#34;:[],&#34;transform&#34;:{&#34;m00&#34;:-44.323734283447266,&#34;m01&#34;:-18.467082977294922,&#34;m02&#34;:85.505043029785156,&#34;m10&#34;:39.536163330078125,&#34;m11&#34;:-81.520828247070312,&#34;m12&#34;:41.772388458251953},&#34;opacity&#34;:1.0,&#34;blendMode&#34;:&#34;NORMAL&#34;,&#34;visible&#34;:true}"/>
<path d="M51.8718 67.5795L64.7195 62.1618L59.9814 52.8569L51.8718 57.5179V67.5795Z" fill="url(#paint4_radial_46_2952)"/>
<path d="M59.9816 52.8568L62.8248 43.2044L71.776 40.7828C71.776 40.7828 71.566 54.2622 64.7197 62.1602L59.9816 52.8568Z" fill="url(#paint5_radial_46_2952)"/>
<g clip-path="url(#paint6_diamond_46_2952_clip_path)" data-figma-skip-parse="true"><g transform="matrix(-0.0212352 -0.0179148 0.0392896 -0.03595 73.1056 41.0887)"><rect x="0" y="0" width="1027.07" height="299.915" fill="url(#paint6_diamond_46_2952)" opacity="1" shape-rendering="crispEdges"/><rect x="0" y="0" width="1027.07" height="299.915" transform="scale(1 -1)" fill="url(#paint6_diamond_46_2952)" opacity="1" shape-rendering="crispEdges"/><rect x="0" y="0" width="1027.07" height="299.915" transform="scale(-1 1)" fill="url(#paint6_diamond_46_2952)" opacity="1" shape-rendering="crispEdges"/><rect x="0" y="0" width="1027.07" height="299.915" transform="scale(-1)" fill="url(#paint6_diamond_46_2952)" opacity="1" shape-rendering="crispEdges"/></g></g><path d="M62.8246 43.206C62.8246 43.206 57.8053 36.5374 51.8718 34.4834V22.8804C51.8718 22.8804 66.86 32.8494 71.7758 40.7829L62.8246 43.2045V43.206Z" data-figma-gradient-fill="{&#34;type&#34;:&#34;GRADIENT_DIAMOND&#34;,&#34;stops&#34;:[{&#34;color&#34;:{&#34;r&#34;:0.90980392694473267,&#34;g&#34;:0.36078432202339172,&#34;b&#34;:1.0,&#34;a&#34;:1.0},&#34;position&#34;:0.0},{&#34;color&#34;:{&#34;r&#34;:0.42415687441825867,&#34;g&#34;:0.15294118225574493,&#34;b&#34;:0.86666667461395264,&#34;a&#34;:1.0},&#34;position&#34;:0.44791665673255920},{&#34;color&#34;:{&#34;r&#34;:0.37929412722587585,&#34;g&#34;:0.0,&#34;b&#34;:0.61176472902297974,&#34;a&#34;:1.0},&#34;position&#34;:1.0}],&#34;stopsVar&#34;:[],&#34;transform&#34;:{&#34;m00&#34;:-42.470485687255859,&#34;m01&#34;:78.579154968261719,&#34;m02&#34;:55.051223754882812,&#34;m10&#34;:-35.829650878906250,&#34;m11&#34;:-71.900085449218750,&#34;m12&#34;:94.953536987304688},&#34;opacity&#34;:1.0,&#34;blendMode&#34;:&#34;NORMAL&#34;,&#34;visible&#34;:true}"/>
<g clip-path="url(#paint7_diamond_46_2952_clip_path)" data-figma-skip-parse="true"><g transform="matrix(0.00308876 0.0213125 -0.0269704 0.00390876 48.7816 36.1466)"><rect x="0" y="0" width="1022.47" height="413.543" fill="url(#paint7_diamond_46_2952)" opacity="1" shape-rendering="crispEdges"/><rect x="0" y="0" width="1022.47" height="413.543" transform="scale(1 -1)" fill="url(#paint7_diamond_46_2952)" opacity="1" shape-rendering="crispEdges"/><rect x="0" y="0" width="1022.47" height="413.543" transform="scale(-1 1)" fill="url(#paint7_diamond_46_2952)" opacity="1" shape-rendering="crispEdges"/><rect x="0" y="0" width="1022.47" height="413.543" transform="scale(-1)" fill="url(#paint7_diamond_46_2952)" opacity="1" shape-rendering="crispEdges"/></g></g><path d="M51.8721 34.4833V57.5178L43.7641 52.8584L40.9209 43.206C40.9209 43.206 44.2907 36.6069 51.8736 34.4833H51.8721Z" data-figma-gradient-fill="{&#34;type&#34;:&#34;GRADIENT_DIAMOND&#34;,&#34;stops&#34;:[{&#34;color&#34;:{&#34;r&#34;:0.90980392694473267,&#34;g&#34;:0.36078432202339172,&#34;b&#34;:1.0,&#34;a&#34;:1.0},&#34;position&#34;:0.0},{&#34;color&#34;:{&#34;r&#34;:0.48752942681312561,&#34;g&#34;:0.18039216101169586,&#34;b&#34;:0.87843137979507446,&#34;a&#34;:1.0},&#34;position&#34;:0.66666668653488159},{&#34;color&#34;:{&#34;r&#34;:0.57098042964935303,&#34;g&#34;:0.0,&#34;b&#34;:0.71372550725936890,&#34;a&#34;:1.0},&#34;position&#34;:1.0}],&#34;stopsVar&#34;:[],&#34;transform&#34;:{&#34;m00&#34;:6.1775240898132324,&#34;m01&#34;:-53.940891265869141,&#34;m02&#34;:72.663238525390625,&#34;m10&#34;:42.624919891357422,&#34;m11&#34;:7.8175196647644043,&#34;m12&#34;:10.925419807434082},&#34;opacity&#34;:1.0,&#34;blendMode&#34;:&#34;NORMAL&#34;,&#34;visible&#34;:true}"/>
<g clip-path="url(#paint8_diamond_46_2952_clip_path)" data-figma-skip-parse="true"><g transform="matrix(0.00378373 0.00826244 -0.00923377 0.00422855 53.4918 46.0307)"><rect x="0" y="0" width="1631.54" height="1357.76" fill="url(#paint8_diamond_46_2952)" opacity="1" shape-rendering="crispEdges"/><rect x="0" y="0" width="1631.54" height="1357.76" transform="scale(1 -1)" fill="url(#paint8_diamond_46_2952)" opacity="1" shape-rendering="crispEdges"/><rect x="0" y="0" width="1631.54" height="1357.76" transform="scale(-1 1)" fill="url(#paint8_diamond_46_2952)" opacity="1" shape-rendering="crispEdges"/><rect x="0" y="0" width="1631.54" height="1357.76" transform="scale(-1)" fill="url(#paint8_diamond_46_2952)" opacity="1" shape-rendering="crispEdges"/></g></g><path d="M51.8718 34.4833V57.5178L59.9798 52.8584L62.823 43.206C62.823 43.206 59.4532 36.6069 51.8702 34.4833H51.8718Z" data-figma-gradient-fill="{&#34;type&#34;:&#34;GRADIENT_DIAMOND&#34;,&#34;stops&#34;:[{&#34;color&#34;:{&#34;r&#34;:0.94096767902374268,&#34;g&#34;:0.58164060115814209,&#34;b&#34;:1.0,&#34;a&#34;:1.0},&#34;position&#34;:0.0},{&#34;color&#34;:{&#34;r&#34;:0.71380394697189331,&#34;g&#34;:0.21176470816135406,&#34;b&#34;:0.89019608497619629,&#34;a&#34;:1.0},&#34;position&#34;:1.0}],&#34;stopsVar&#34;:[],&#34;transform&#34;:{&#34;m00&#34;:7.5674691200256348,&#34;m01&#34;:-18.467546463012695,&#34;m02&#34;:58.941879272460938,&#34;m10&#34;:16.524877548217773,&#34;m11&#34;:8.4571027755737305,&#34;m12&#34;:33.539688110351562},&#34;opacity&#34;:1.0,&#34;blendMode&#34;:&#34;NORMAL&#34;,&#34;visible&#34;:true}"/>
<g style="mix-blend-mode:soft-light">
<path d="M40.9209 43.206C40.9209 43.206 49.0289 51.2414 59.9817 52.8584L61.5276 47.6121C61.5276 47.6121 53.9802 41.8732 51.8736 34.4833C50.7107 34.8123 49.3609 35.3173 47.9509 36.1111C44.0869 38.2871 41.9479 41.4083 40.9209 43.206Z" fill="white"/>
</g>
<path opacity="0.8" d="M40.9209 43.206C40.9209 43.206 49.0289 51.2414 59.9817 52.8584L61.5276 47.6121C61.5276 47.6121 53.9802 41.8732 51.8736 34.4833C50.7107 34.8123 49.3609 35.3173 47.9509 36.1111C44.0869 38.2871 41.9479 41.4083 40.9209 43.206Z" fill="url(#paint9_linear_46_2952)"/>
<g style="mix-blend-mode:soft-light">
<path d="M42.9654 50.1496C42.9654 50.1496 51.7823 54.5372 57.6015 54.2252L55.4718 55.4484C55.4718 55.4484 51.5213 56.2175 47.1152 54.7843L43.7623 52.8584L42.9639 50.1496H42.9654Z" fill="white"/>
</g>
<g style="mix-blend-mode:soft-light">
<path d="M59.2788 41.9767C59.2788 41.9767 62.1575 38.803 64.7197 32.8787C64.7197 32.8787 69.9505 37.4146 71.7759 40.7844C71.7759 40.7844 71.5767 47.6924 69.8825 52.1866C69.8825 52.1866 70.7937 48.5774 59.2788 41.9782V41.9767Z" fill="white"/>
</g>
<path opacity="0.2" d="M59.2788 41.9767C59.2788 41.9767 62.1575 38.803 64.7197 32.8787C64.7197 32.8787 69.9505 37.4146 71.7759 40.7844C71.7759 40.7844 71.5767 47.6924 69.8825 52.1866C69.8825 52.1866 70.7937 48.5774 59.2788 41.9782V41.9767Z" fill="white"/>
<g style="mix-blend-mode:soft-light" opacity="0.5">
<path d="M51.8719 67.5795C51.8719 67.5795 39.5169 56.3843 40.9192 43.2061C40.9192 43.2061 36.9532 49.3496 39.0242 62.1618L51.8719 67.5795Z" fill="white"/>
</g>
<path d="M51.8719 67.5795C51.8719 67.5795 39.5169 56.3843 40.9192 43.2061C40.9192 43.2061 36.9532 49.3496 39.0242 62.1618L51.8719 67.5795Z" fill="url(#paint10_linear_46_2952)"/>
<g style="mix-blend-mode:soft-light">
<path d="M31.9695 40.7829C31.9695 40.7829 47.1599 25.0271 49.0998 27.9352C49.0998 27.9352 50.8557 29.1645 51.8735 34.4818V22.8804C51.8735 22.8804 37.3053 32.3583 31.9695 40.7829Z" fill="url(#paint11_linear_46_2952)"/>
</g>
<path opacity="0.5" d="M31.9695 40.7829C31.9695 40.7829 47.3144 24.9499 49.0998 27.9352C49.0998 27.9352 50.8557 29.1645 51.8735 34.4818V22.8804C51.8735 22.8804 37.3053 32.3583 31.9695 40.7829Z" fill="url(#paint12_linear_46_2952)"/>
<g style="mix-blend-mode:soft-light">
<path d="M59.9816 52.8568L64.7197 59.5285C64.7197 59.5285 70.7227 53.2105 71.776 40.7828C71.6942 43.8716 71.2957 46.494 70.8633 48.5403C70.3614 50.9124 69.7822 52.6452 69.5645 53.2784C68.9235 55.1379 68.071 57.5548 66.2301 60.2112C65.6433 61.0575 65.1012 61.7185 64.7213 62.1602C63.1414 59.059 61.5615 55.9579 59.9831 52.8568H59.9816Z" fill="white"/>
</g>
<path opacity="0.6" d="M59.9816 52.8568L64.7197 59.5285C64.7197 59.5285 70.7227 53.2105 71.776 40.7828C71.6942 43.8716 71.2957 46.494 70.8633 48.5403C70.3614 50.9124 69.7822 52.6452 69.5645 53.2784C68.9235 55.1379 68.071 57.5548 66.2301 60.2112C65.6433 61.0575 65.1012 61.7185 64.7213 62.1602C63.1414 59.059 61.5615 55.9579 59.9831 52.8568H59.9816Z" fill="white"/>
<g style="mix-blend-mode:soft-light">
<path d="M64.7195 62.1618L51.8718 67.5795C51.8718 67.5795 56.61 63.039 64.7195 62.1618Z" fill="white"/>
</g>
<path opacity="0.6" d="M64.7195 62.1618L51.8718 67.5795C51.8718 67.5795 56.61 63.039 64.7195 62.1618Z" fill="url(#paint13_radial_46_2952)"/>
<g style="mix-blend-mode:soft-light">
<path d="M51.8718 34.4835C51.8718 34.4835 58.4354 35.6587 62.8246 43.2061C62.8246 43.2061 60.7536 33.5877 51.8718 34.4835Z" fill="white"/>
</g>
<path opacity="0.9" d="M51.8718 34.4835C51.8718 34.4835 58.4354 35.6587 62.8246 43.2061C62.8246 43.2061 60.7536 33.5877 51.8718 34.4835Z" fill="url(#paint14_radial_46_2952)"/>
<g style="mix-blend-mode:soft-light">
<path d="M40.9207 43.206L31.9695 40.7844C31.9695 40.7844 36.1362 39.4115 40.9207 43.206Z" fill="white"/>
</g>
<path opacity="0.5" d="M40.9207 43.206L31.9695 40.7844C31.9695 40.7844 36.1362 39.4115 40.9207 43.206Z" fill="url(#paint15_radial_46_2952)"/>
<path d="M64.6405 57.4591L65.1565 59.9837L67.6811 60.4997L65.1565 61.0157L64.6405 63.5402L64.1245 61.0157L61.6 60.4997L64.1245 59.9837L64.6405 57.4591Z" fill="white"/>
<g filter="url(#filter2_f_46_2952)">
<path d="M64.6405 57.4591L65.1565 59.9837L67.6811 60.4997L65.1565 61.0157L64.6405 63.5402L64.1245 61.0157L61.6 60.4997L64.1245 59.9837L64.6405 57.4591Z" fill="white"/>
</g>
<path d="M33.8043 36.9188L34.4077 39.8708L37.3597 40.4741L34.4077 41.0775L33.8043 44.0295L33.201 41.0775L30.249 40.4741L33.201 39.8708L33.8043 36.9188Z" fill="white"/>
<g filter="url(#filter3_f_46_2952)">
<path d="M33.8043 36.9188L34.4077 39.8708L37.3597 40.4741L34.4077 41.0775L33.8043 44.0295L33.201 41.0775L30.249 40.4741L33.201 39.8708L33.8043 36.9188Z" fill="white"/>
</g>
<path d="M64.6457 31.8224L65.0316 33.7101L66.9193 34.0959L65.0316 34.4818L64.6457 36.3695L64.2599 34.4818L62.3722 34.0959L64.2599 33.7101L64.6457 31.8224Z" fill="white"/>
<g filter="url(#filter4_f_46_2952)">
<path d="M64.6457 31.8224L65.0316 33.7101L66.9193 34.0959L65.0316 34.4818L64.6457 36.3695L64.2599 34.4818L62.3722 34.0959L64.2599 33.7101L64.6457 31.8224Z" fill="white"/>
</g>
<g style="mix-blend-mode:overlay" filter="url(#filter5_f_46_2952)">
<g style="mix-blend-mode:lighten">
<path d="M45.8503 37.1213C45.8258 37.0126 45.8942 36.9021 46.003 36.8775C46.1119 36.8529 46.2224 36.9213 46.247 37.0301C46.2716 37.1389 46.2031 37.2494 46.0943 37.274C45.9855 37.2985 45.8749 37.2301 45.8503 37.1213Z" fill="#FFFBFC"/>
</g>
<g style="mix-blend-mode:lighten">
<path d="M61.5531 50.9867C61.5145 50.82 61.6198 50.6533 61.7866 50.6165C61.9533 50.5779 62.1201 50.6832 62.1569 50.8498C62.1955 51.0165 62.0902 51.1831 61.9235 51.22C61.7567 51.2586 61.59 51.1533 61.5531 50.9867Z" fill="#FFFBFC"/>
</g>
<g style="mix-blend-mode:lighten">
<path d="M42.2278 39.8405C42.1874 39.6598 42.2998 39.4791 42.4806 39.4387C42.6613 39.3984 42.8421 39.5107 42.8825 39.6914C42.9229 39.8721 42.8105 40.0528 42.6298 40.0931C42.449 40.1335 42.2682 40.0212 42.2278 39.8405Z" fill="#FFFBFC"/>
</g>
<g style="mix-blend-mode:lighten">
<path d="M46.7631 41.7894C46.9122 41.9753 46.8842 42.2472 46.6981 42.3981C46.5121 42.5472 46.24 42.5192 46.0891 42.3332C45.9399 42.1472 45.968 41.8753 46.154 41.7245C46.3401 41.5753 46.6121 41.6034 46.7631 41.7894Z" fill="#FFFBFC"/>
</g>
<g style="mix-blend-mode:lighten">
<path d="M48.3269 41.3228C48.4533 41.4806 48.4287 41.7105 48.2707 41.8368C48.1128 41.9631 47.8828 41.9385 47.7565 41.7806C47.6301 41.6227 47.6547 41.3929 47.8126 41.2666C47.9706 41.1403 48.2005 41.1649 48.3269 41.3228Z" fill="#FFFBFC"/>
</g>
<g style="mix-blend-mode:lighten">
<path d="M48.3848 39.0301C48.448 39.1091 48.4357 39.2266 48.3568 39.2898C48.2778 39.3529 48.1602 39.3406 48.097 39.2617C48.0338 39.1827 48.0461 39.0652 48.1251 39.0021C48.2041 38.9389 48.3216 38.9512 48.3848 39.0301Z" fill="#FFFBFC"/>
</g>
<g style="mix-blend-mode:lighten">
<path d="M52.8801 44.4593C52.8538 44.3523 52.9205 44.2435 53.0276 44.2172C53.1346 44.1909 53.2435 44.2575 53.2698 44.3645C53.2961 44.4715 53.2294 44.5803 53.1224 44.6066C53.0153 44.6329 52.9065 44.5663 52.8801 44.4593Z" fill="#FFFBFC"/>
</g>
<g style="mix-blend-mode:lighten">
<path d="M49.5521 41.1368C49.5222 41.0123 49.5995 40.886 49.7241 40.8561C49.8487 40.8263 49.9751 40.9035 50.0049 41.0281C50.0347 41.1526 49.9575 41.2789 49.8329 41.3087C49.7083 41.3386 49.5819 41.2614 49.5521 41.1368Z" fill="#FFFBFC"/>
</g>
<g style="mix-blend-mode:lighten">
<path d="M39.0642 50.2704C39.008 50.0389 39.1519 49.8055 39.3836 49.7494C39.6153 49.6933 39.8487 49.8371 39.9049 50.0687C39.9611 50.3002 39.8171 50.5336 39.5854 50.5897C39.3538 50.6458 39.1203 50.502 39.0642 50.2704Z" fill="#FFFBFC"/>
</g>
<g style="mix-blend-mode:lighten">
<path d="M57.7536 59.9107C57.9169 59.8809 58.0748 59.9879 58.1047 60.1511C58.1345 60.3142 58.0274 60.4721 57.8642 60.5019C57.701 60.5318 57.543 60.4248 57.5132 60.2616C57.4833 60.0985 57.5904 59.9406 57.7536 59.9107Z" fill="#FFFBFC"/>
</g>
<g style="mix-blend-mode:lighten">
<path d="M48.7484 60.0418C48.8537 60.0225 48.9538 60.091 48.9731 60.1962C48.9924 60.3015 48.9239 60.4015 48.8186 60.4208C48.7133 60.4401 48.6133 60.3716 48.594 60.2664C48.5746 60.1611 48.6431 60.0611 48.7484 60.0418Z" fill="#FFFBFC"/>
</g>
<g style="mix-blend-mode:lighten">
<path d="M49.1572 57.7753C49.3819 57.7332 49.596 57.8806 49.6381 58.1051C49.6803 58.3297 49.5328 58.5437 49.3082 58.5858C49.0835 58.6279 48.8694 58.4805 48.8273 58.256C48.7851 58.0314 48.9326 57.8174 49.1572 57.7753Z" fill="#FFFBFC"/>
</g>
<g style="mix-blend-mode:lighten">
<path d="M47.7161 56.6071C47.9302 56.5667 48.1373 56.7088 48.1777 56.9228C48.2181 57.1369 48.0759 57.3439 47.8618 57.3842C47.6476 57.4246 47.4405 57.2825 47.4002 57.0685C47.3598 56.8544 47.502 56.6474 47.7161 56.6071Z" fill="#FFFBFC"/>
</g>
<g style="mix-blend-mode:lighten">
<path d="M48.0163 55.1458C48.1971 55.1125 48.3726 55.2318 48.4059 55.4125C48.4393 55.5932 48.3199 55.7686 48.1391 55.802C47.9583 55.8353 47.7828 55.716 47.7495 55.5353C47.7161 55.3546 47.8355 55.1792 48.0163 55.1458Z" fill="#FFFBFC"/>
</g>
<g style="mix-blend-mode:lighten">
<path d="M46.1927 54.1091C46.284 54.0916 46.3735 54.153 46.3893 54.2442C46.4068 54.3354 46.3454 54.4249 46.2541 54.4407C46.1629 54.4582 46.0734 54.3968 46.0576 54.3056C46.04 54.2144 46.1014 54.1249 46.1927 54.1091Z" fill="#FFFBFC"/>
</g>
<g style="mix-blend-mode:lighten">
<path d="M53.7662 41.1595C53.8908 41.3156 53.8662 41.5419 53.7118 41.6664C53.5556 41.791 53.3292 41.7664 53.2045 41.6121C53.0799 41.4559 53.1045 41.2296 53.2589 41.1051C53.4152 40.9805 53.6416 41.0051 53.7662 41.1595Z" fill="#FFFBFC"/>
</g>
<path d="M56.6027 37.5494C56.6712 37.6336 56.6571 37.7564 56.5729 37.8248C56.4886 37.8932 56.3658 37.8792 56.2973 37.795C56.2289 37.7108 56.2429 37.588 56.3271 37.5196C56.4114 37.4512 56.5343 37.4652 56.6027 37.5494Z" fill="#FFFBFC"/>
</g>
<g style="mix-blend-mode:lighten">
<path d="M61.5534 50.986C61.5148 50.8193 61.6201 50.6527 61.7868 50.6158C61.9536 50.5772 62.1203 50.6825 62.1572 50.8491C62.1958 51.0158 62.0905 51.1825 61.9237 51.2193C61.757 51.2579 61.5903 51.1526 61.5534 50.986Z" fill="#FFFBFC"/>
</g>
<g style="mix-blend-mode:lighten">
<path d="M42.2285 39.8397C42.1882 39.659 42.3005 39.4783 42.4813 39.438C42.6621 39.3976 42.8429 39.5099 42.8832 39.6906C42.9236 39.8713 42.8113 40.052 42.6305 40.0923C42.4497 40.1327 42.2689 40.0204 42.2285 39.8397Z" fill="#FFFBFC"/>
</g>
<g style="mix-blend-mode:lighten">
<path d="M46.7632 41.7901C46.9124 41.9761 46.8843 42.248 46.6982 42.3988C46.5122 42.548 46.2401 42.5199 46.0892 42.3339C45.94 42.148 45.9681 41.8761 46.1541 41.7252C46.3402 41.5761 46.6122 41.6041 46.7632 41.7901Z" fill="#FFFBFC"/>
</g>
<g style="mix-blend-mode:lighten">
<path d="M50.282 43.8088C50.4084 43.9667 50.3838 44.1965 50.2258 44.3229C50.0678 44.4492 49.8379 44.4246 49.7115 44.2667C49.5852 44.1088 49.6097 43.879 49.7677 43.7527C49.9257 43.6264 50.1556 43.651 50.282 43.8088Z" fill="#FFFBFC"/>
</g>
<g style="mix-blend-mode:lighten">
<path d="M48.3848 39.0293C48.448 39.1082 48.4357 39.2258 48.3568 39.2889C48.2778 39.3521 48.1602 39.3398 48.097 39.2608C48.0338 39.1819 48.0461 39.0644 48.1251 39.0012C48.2041 38.938 48.3216 38.9503 48.3848 39.0293Z" fill="#FFFBFC"/>
</g>
<g style="mix-blend-mode:lighten">
<path d="M52.8795 44.4599C52.8532 44.3529 52.9199 44.2442 53.027 44.2178C53.134 44.1915 53.2428 44.2582 53.2692 44.3652C53.2955 44.4722 53.2288 44.581 53.1217 44.6073C53.0147 44.6336 52.9059 44.5669 52.8795 44.4599Z" fill="#FFFBFC"/>
</g>
<g style="mix-blend-mode:lighten">
<path d="M49.5528 41.1365C49.523 41.0119 49.6002 40.8856 49.7248 40.8558C49.8494 40.8259 49.9758 40.9031 50.0056 41.0277C50.0355 41.1522 49.9582 41.2786 49.8336 41.3084C49.709 41.3382 49.5826 41.261 49.5528 41.1365Z" fill="#FFFBFC"/>
</g>
<g style="mix-blend-mode:lighten">
<path d="M47.2454 44.288C47.2033 44.1108 47.3121 43.9336 47.4894 43.8898C47.6666 43.8477 47.8439 43.9565 47.8878 44.1336C47.9299 44.3108 47.8211 44.488 47.6438 44.5319C47.4665 44.574 47.2893 44.4652 47.2454 44.288Z" fill="#FFFBFC"/>
</g>
<g style="mix-blend-mode:lighten">
<path d="M46.1373 46.7917C46.1092 46.6777 46.1794 46.5654 46.2935 46.5374C46.4076 46.5093 46.5199 46.5795 46.548 46.6935C46.5761 46.8075 46.5059 46.9198 46.3918 46.9479C46.2777 46.9759 46.1654 46.9058 46.1373 46.7917Z" fill="#FFFBFC"/>
</g>
<g style="mix-blend-mode:lighten">
<path d="M40.2381 43.5123C40.1801 43.2702 40.3293 43.0264 40.5715 42.9685C40.8138 42.9106 41.0577 43.0597 41.1157 43.3018C41.1736 43.5439 41.0244 43.7877 40.7822 43.8456C40.54 43.9035 40.296 43.7544 40.2381 43.5123Z" fill="#FFFBFC"/>
</g>
<g style="mix-blend-mode:lighten">
<path d="M40.2384 43.5128C40.1805 43.2707 40.3297 43.0268 40.5719 42.969C40.8141 42.9111 41.0581 43.0602 41.116 43.3023C41.1739 43.5444 41.0248 43.7882 40.7825 43.8461C40.5403 43.904 40.2964 43.7549 40.2384 43.5128Z" fill="#FFFBFC"/>
</g>
<g style="mix-blend-mode:lighten">
<path d="M39.0642 50.2704C39.008 50.0389 39.1519 49.8055 39.3836 49.7494C39.6153 49.6933 39.8487 49.8371 39.9049 50.0687C39.9611 50.3002 39.8171 50.5336 39.5854 50.5897C39.3538 50.6458 39.1203 50.502 39.0642 50.2704Z" fill="#FFFBFC"/>
</g>
<g style="mix-blend-mode:lighten">
<path d="M57.7541 59.9108C57.9173 59.881 58.0753 59.988 58.1051 60.1511C58.135 60.3143 58.0279 60.4722 57.8647 60.502C57.7015 60.5318 57.5435 60.4248 57.5137 60.2617C57.4838 60.0985 57.5909 59.9406 57.7541 59.9108Z" fill="#FFFBFC"/>
</g>
<g style="mix-blend-mode:lighten">
<path d="M48.7479 60.0416C48.8532 60.0223 48.9533 60.0907 48.9726 60.196C48.9919 60.3012 48.9234 60.4012 48.8181 60.4205C48.7128 60.4398 48.6128 60.3714 48.5935 60.2661C48.5742 60.1609 48.6426 60.0609 48.7479 60.0416Z" fill="#FFFBFC"/>
</g>
<g style="mix-blend-mode:lighten">
<path d="M49.1577 57.7761C49.3824 57.734 49.5965 57.8814 49.6386 58.1059C49.6808 58.3305 49.5333 58.5445 49.3087 58.5866C49.084 58.6287 48.8699 58.4813 48.8277 58.2568C48.7856 58.0322 48.933 57.8182 49.1577 57.7761Z" fill="#FFFBFC"/>
</g>
<g style="mix-blend-mode:lighten">
<path d="M47.7166 56.6063C47.9307 56.5659 48.1378 56.708 48.1782 56.9221C48.2186 57.1361 48.0764 57.3431 47.8623 57.3834C47.6481 57.4238 47.441 57.2817 47.4007 57.0677C47.3603 56.8536 47.5025 56.6466 47.7166 56.6063Z" fill="#FFFBFC"/>
</g>
<g style="mix-blend-mode:lighten">
<path d="M48.0159 55.1457C48.1967 55.1123 48.3722 55.2316 48.4056 55.4123C48.4389 55.593 48.3195 55.7684 48.1388 55.8018C47.958 55.8351 47.7825 55.7158 47.7491 55.5351C47.7158 55.3544 47.8351 55.179 48.0159 55.1457Z" fill="#FFFBFC"/>
</g>
<g style="mix-blend-mode:lighten">
<path d="M46.193 54.1094C46.2842 54.0918 46.3737 54.1532 46.3895 54.2445C46.4071 54.3357 46.3457 54.4252 46.2544 54.4409C46.1631 54.4585 46.0736 54.3971 46.0578 54.3059C46.0403 54.2146 46.1017 54.1252 46.193 54.1094Z" fill="#FFFBFC"/>
</g>
<g style="mix-blend-mode:lighten">
<path d="M53.7668 41.1588C53.8914 41.315 53.8668 41.5413 53.7124 41.6658C53.5562 41.7904 53.3298 41.7658 53.2051 41.6115C53.0805 41.4553 53.1051 41.229 53.2596 41.1045C53.4158 40.9799 53.6422 41.0045 53.7668 41.1588Z" fill="#FFFBFC"/>
</g>
<path d="M56.6032 37.55C56.6716 37.6342 56.6576 37.757 56.5734 37.8254C56.4891 37.8939 56.3662 37.8798 56.2978 37.7956C56.2293 37.7114 56.2434 37.5886 56.3276 37.5202C56.4119 37.4518 56.5347 37.4658 56.6032 37.55Z" fill="#FFFBFC"/>
<path d="M40.5189 36.4695L40.6185 36.9591L41.1056 37.0592L40.6185 37.1593L40.5189 37.6489L40.4193 37.1593L39.9321 37.0592L40.4193 36.9591L40.5189 36.4695Z" fill="white"/>
<g filter="url(#filter6_f_46_2952)">
<path d="M40.5189 36.4695L40.6185 36.9591L41.1056 37.0592L40.6185 37.1593L40.5189 37.6489L40.4193 37.1593L39.9321 37.0592L40.4193 36.9591L40.5189 36.4695Z" fill="white"/>
</g>
<path d="M66.1482 51.2278L66.4903 51.5905L66.9565 51.4166L66.5956 51.7604L66.7687 52.2288L66.4265 51.8662L65.9604 52.0401L66.3213 51.6963L66.1482 51.2278Z" fill="white"/>
<g filter="url(#filter7_f_46_2952)">
<path d="M66.1482 51.2278L66.4903 51.5905L66.9565 51.4166L66.5956 51.7604L66.7687 52.2288L66.4265 51.8662L65.9604 52.0401L66.3213 51.6963L66.1482 51.2278Z" fill="white"/>
</g>
<path d="M41.2035 55.1806L41.4024 55.6386L41.8996 55.6344L41.4439 55.8343L41.448 56.334L41.2491 55.876L40.7519 55.8801L41.2076 55.6803L41.2035 55.1806Z" fill="white"/>
<g filter="url(#filter8_f_46_2952)">
<path d="M41.2035 55.1806L41.4024 55.6386L41.8996 55.6344L41.4439 55.8343L41.448 56.334L41.2491 55.876L40.7519 55.8801L41.2076 55.6803L41.2035 55.1806Z" fill="white"/>
</g>
</g>
<g style="mix-blend-mode:overlay" filter="url(#filter9_f_46_2952)">
<g style="mix-blend-mode:lighten">
<path d="M36.1152 15.8287C36.0633 15.5989 36.2079 15.3653 36.4378 15.3134C36.6677 15.2615 36.9013 15.4061 36.9532 15.6359C37.0051 15.8658 36.8605 16.0993 36.6306 16.1512C36.4007 16.2031 36.1671 16.0586 36.1152 15.8287Z" fill="#FFFBFC"/>
</g>
<g style="mix-blend-mode:lighten">
<path d="M69.2888 45.1308C69.2073 44.7786 69.4297 44.4264 69.782 44.3486C70.1343 44.267 70.4865 44.4895 70.5644 44.8416C70.646 45.1938 70.4235 45.546 70.0712 45.6239C69.719 45.7054 69.3667 45.483 69.2888 45.1308Z" fill="#FFFBFC"/>
</g>
<g style="mix-blend-mode:lighten">
<path d="M28.462 21.5752C28.3768 21.1933 28.6141 20.8115 28.996 20.7262C29.3779 20.6409 29.7598 20.8782 29.8451 21.26C29.9304 21.6419 29.6931 22.0237 29.3112 22.109C28.9293 22.1943 28.5473 21.957 28.462 21.5752Z" fill="#FFFBFC"/>
</g>
<g style="mix-blend-mode:lighten">
<path d="M38.0433 25.6938C38.3585 26.0868 38.2992 26.6614 37.9061 26.9802C37.5131 27.2954 36.9383 27.236 36.6194 26.8431C36.3043 26.4501 36.3636 25.8755 36.7566 25.5567C37.1497 25.2415 37.7244 25.3009 38.0433 25.6938Z" fill="#FFFBFC"/>
</g>
<g style="mix-blend-mode:lighten">
<path d="M41.3469 24.7076C41.6138 25.0413 41.5619 25.5269 41.2282 25.7939C40.8945 26.0608 40.4087 26.0089 40.1418 25.6752C39.8748 25.3416 39.9267 24.8559 40.2604 24.589C40.5941 24.3221 41.0799 24.374 41.3469 24.7076Z" fill="#FFFBFC"/>
</g>
<g style="mix-blend-mode:lighten">
<path d="M41.4695 19.8625C41.603 20.0294 41.577 20.2778 41.4101 20.4112C41.2433 20.5447 40.9948 20.5187 40.8614 20.3519C40.7279 20.1851 40.7538 19.9367 40.9207 19.8032C41.0875 19.6698 41.336 19.6957 41.4695 19.8625Z" fill="#FFFBFC"/>
</g>
<g style="mix-blend-mode:lighten">
<path d="M50.9661 31.3363C50.9105 31.1102 51.0514 30.8803 51.2776 30.8247C51.5038 30.7691 51.7337 30.91 51.7893 31.1361C51.8449 31.3622 51.704 31.5921 51.4778 31.6477C51.2516 31.7033 51.0217 31.5624 50.9661 31.3363Z" fill="#FFFBFC"/>
</g>
<g style="mix-blend-mode:lighten">
<path d="M43.9354 24.3148C43.8724 24.0515 44.0355 23.7846 44.2988 23.7216C44.5621 23.6586 44.829 23.8217 44.8921 24.0849C44.9551 24.3481 44.792 24.615 44.5287 24.6781C44.2654 24.7411 43.9984 24.578 43.9354 24.3148Z" fill="#FFFBFC"/>
</g>
<g style="mix-blend-mode:lighten">
<path d="M36.4347 30.9729C36.3457 30.5985 36.5756 30.224 36.9501 30.1314C37.3246 30.0424 37.6991 30.2722 37.7918 30.6467C37.8808 31.0211 37.6509 31.3955 37.2764 31.4882C36.9019 31.5772 36.5274 31.3473 36.4347 30.9729Z" fill="#FFFBFC"/>
</g>
<g style="mix-blend-mode:lighten">
<path d="M35.2216 36.2666C35.1622 36.0256 35.3106 35.7883 35.5516 35.729C35.7926 35.6697 36.0299 35.818 36.0892 36.059C36.1486 36.2999 36.0002 36.5372 35.7592 36.5965C35.5182 36.6558 35.2809 36.5075 35.2216 36.2666Z" fill="#FFFBFC"/>
</g>
<g style="mix-blend-mode:lighten">
<path d="M28.8812 26.6004C28.7589 26.0888 29.074 25.5735 29.5857 25.4512C30.0974 25.3288 30.6129 25.6439 30.7352 26.1555C30.8576 26.6671 30.5424 27.1824 30.0307 27.3048C29.519 27.4271 29.0036 27.112 28.8812 26.6004Z" fill="#FFFBFC"/>
</g>
<g style="mix-blend-mode:lighten">
<path d="M31.8465 41.7514C31.7278 41.262 32.0319 40.7689 32.5213 40.6503C33.0108 40.5317 33.504 40.8357 33.6226 41.325C33.7413 41.8144 33.4372 42.3074 32.9478 42.4261C32.4583 42.5447 31.9651 42.2407 31.8465 41.7514Z" fill="#FFFBFC"/>
</g>
<g style="mix-blend-mode:lighten">
<path d="M24.0055 38.5282C23.9053 38.113 24.1612 37.6941 24.5765 37.5977C24.9918 37.4976 25.4108 37.7534 25.5072 38.1686C25.6073 38.5838 25.3515 39.0027 24.9362 39.0991C24.5209 39.1992 24.1019 38.9434 24.0055 38.5282Z" fill="#FFFBFC"/>
</g>
<g style="mix-blend-mode:lighten">
<path d="M21.8211 42.8582C21.7692 42.6469 21.899 42.4393 22.1104 42.3874C22.3217 42.3355 22.5294 42.4653 22.5813 42.6766C22.6332 42.8879 22.5034 43.0955 22.292 43.1474C22.0807 43.1993 21.873 43.0695 21.8211 42.8582Z" fill="#FFFBFC"/>
</g>
<g style="mix-blend-mode:lighten">
<path d="M61.2619 63.9905C61.6068 63.9274 61.9405 64.1536 62.0035 64.4983C62.0666 64.8431 61.8404 65.1768 61.4955 65.2398C61.1507 65.3028 60.817 65.0767 60.7539 64.7319C60.6909 64.3871 60.9171 64.0535 61.2619 63.9905Z" fill="#FFFBFC"/>
</g>
<g style="mix-blend-mode:lighten">
<path d="M42.2374 64.2675C42.4598 64.2267 42.6712 64.3713 42.712 64.5937C42.7528 64.8162 42.6082 65.0275 42.3857 65.0683C42.1632 65.109 41.9518 64.9645 41.9111 64.742C41.8703 64.5196 42.0149 64.3083 42.2374 64.2675Z" fill="#FFFBFC"/>
</g>
<g style="mix-blend-mode:lighten">
<path d="M43.1012 59.4776C43.5758 59.3886 44.0282 59.7 44.1172 60.1745C44.2062 60.6491 43.8947 61.1013 43.4201 61.1903C42.9455 61.2793 42.4931 60.9679 42.4041 60.4934C42.3151 60.0188 42.6266 59.5665 43.1012 59.4776Z" fill="#FFFBFC"/>
</g>
<g style="mix-blend-mode:lighten">
<path d="M40.0567 57.0087C40.509 56.9235 40.9466 57.2238 41.0319 57.676C41.1172 58.1283 40.8168 58.5658 40.3644 58.651C39.9121 58.7363 39.4745 58.436 39.3892 57.9837C39.304 57.5315 39.6043 57.094 40.0567 57.0087Z" fill="#FFFBFC"/>
</g>
<g style="mix-blend-mode:lighten">
<path d="M40.691 53.9206C41.0729 53.8502 41.4437 54.1023 41.5142 54.4841C41.5846 54.866 41.3325 55.2367 40.9506 55.3071C40.5687 55.3776 40.1979 55.1255 40.1274 54.7436C40.057 54.3618 40.3091 53.9911 40.691 53.9206Z" fill="#FFFBFC"/>
</g>
<g style="mix-blend-mode:lighten">
<path d="M36.8384 51.7298C37.0312 51.6927 37.2203 51.8225 37.2537 52.0152C37.2907 52.208 37.161 52.3971 36.9681 52.4304C36.7753 52.4675 36.5862 52.3378 36.5528 52.145C36.5158 51.9522 36.6455 51.7631 36.8384 51.7298Z" fill="#FFFBFC"/>
</g>
<g style="mix-blend-mode:lighten">
<path d="M44.9032 18.3199C45.1257 18.5943 45.0812 18.9947 44.8068 19.2171C44.5324 19.4395 44.1319 19.395 43.9094 19.1207C43.687 18.8464 43.7315 18.446 44.0058 18.2236C44.2802 18.0011 44.6807 18.0456 44.9032 18.3199Z" fill="#FFFBFC"/>
</g>
<g style="mix-blend-mode:lighten">
<path d="M52.8384 24.3628C53.1016 24.6927 53.0497 25.1709 52.7234 25.4341C52.3934 25.6974 51.9151 25.6455 51.6518 25.3192C51.3885 24.9893 51.4404 24.511 51.7667 24.2478C52.0968 23.9846 52.5751 24.0365 52.8384 24.3628Z" fill="#FFFBFC"/>
</g>
<path d="M52.0339 19.058C52.1785 19.2396 52.1525 19.5028 51.9708 19.6511C51.7891 19.7957 51.5259 19.7698 51.3775 19.5881C51.2329 19.4065 51.2589 19.1432 51.4406 18.995C51.6223 18.8504 51.8855 18.8763 52.0339 19.058Z" fill="#FFFBFC"/>
<path d="M58.8306 16.7334C58.9753 16.9114 58.9456 17.1709 58.7676 17.3155C58.5896 17.4601 58.3301 17.4304 58.1854 17.2525C58.0408 17.0745 58.0705 16.815 58.2485 16.6704C58.4265 16.5258 58.686 16.5555 58.8306 16.7334Z" fill="#FFFBFC"/>
</g>
<g style="mix-blend-mode:lighten">
<path d="M36.115 15.8287C36.0631 15.5989 36.2077 15.3653 36.4376 15.3134C36.6675 15.2615 36.9011 15.4061 36.9531 15.6359C37.005 15.8658 36.8604 16.0993 36.6305 16.1512C36.4006 16.2031 36.167 16.0586 36.115 15.8287Z" fill="#FFFBFC"/>
</g>
<g style="mix-blend-mode:lighten">
<path d="M69.2887 45.1308C69.2071 44.7786 69.4296 44.4264 69.7819 44.3486C70.1341 44.267 70.4864 44.4895 70.5643 44.8416C70.6458 45.1938 70.4234 45.546 70.0711 45.6239C69.7188 45.7054 69.3666 45.483 69.2887 45.1308Z" fill="#FFFBFC"/>
</g>
<g style="mix-blend-mode:lighten">
<path d="M28.462 21.5751C28.3768 21.1933 28.6141 20.8114 28.996 20.7261C29.3779 20.6409 29.7598 20.8781 29.8451 21.26C29.9304 21.6418 29.6931 22.0237 29.3112 22.1089C28.9293 22.1942 28.5473 21.9569 28.462 21.5751Z" fill="#FFFBFC"/>
</g>
<g style="mix-blend-mode:lighten">
<path d="M38.0431 25.6939C38.3582 26.0869 38.2989 26.6615 37.9059 26.9804C37.5128 27.2955 36.9381 27.2362 36.6192 26.8432C36.304 26.4502 36.3633 25.8756 36.7564 25.5568C37.1494 25.2417 37.7242 25.301 38.0431 25.6939Z" fill="#FFFBFC"/>
</g>
<g style="mix-blend-mode:lighten">
<path d="M41.3467 24.7076C41.6137 25.0412 41.5618 25.5269 41.2281 25.7938C40.8944 26.0607 40.4086 26.0088 40.1417 25.6752C39.8747 25.3415 39.9266 24.8559 40.2603 24.5889C40.594 24.322 41.0798 24.3739 41.3467 24.7076Z" fill="#FFFBFC"/>
</g>
<g style="mix-blend-mode:lighten">
<path d="M41.4693 19.8625C41.6028 20.0293 41.5769 20.2777 41.41 20.4112C41.2432 20.5446 40.9947 20.5187 40.8612 20.3518C40.7277 20.185 40.7537 19.9366 40.9206 19.8032C41.0874 19.6697 41.3359 19.6957 41.4693 19.8625Z" fill="#FFFBFC"/>
</g>
<g style="mix-blend-mode:lighten">
<path d="M50.9658 31.3363C50.9101 31.1102 51.051 30.8803 51.2772 30.8247C51.5034 30.7691 51.7333 30.91 51.7889 31.1361C51.8446 31.3622 51.7036 31.5921 51.4775 31.6477C51.2513 31.7033 51.0214 31.5624 50.9658 31.3363Z" fill="#FFFBFC"/>
</g>
<g style="mix-blend-mode:lighten">
<path d="M43.9353 24.3148C43.8723 24.0515 44.0354 23.7846 44.2987 23.7216C44.5619 23.6586 44.8289 23.8217 44.892 24.0849C44.955 24.3481 44.7918 24.615 44.5286 24.6781C44.2653 24.7411 43.9983 24.578 43.9353 24.3148Z" fill="#FFFBFC"/>
</g>
<g style="mix-blend-mode:lighten">
<path d="M36.4343 30.973C36.3453 30.5985 36.5752 30.2241 36.9497 30.1314C37.3242 30.0425 37.6987 30.2723 37.7914 30.6467C37.8804 31.0212 37.6505 31.3956 37.276 31.4883C36.9015 31.5773 36.527 31.3474 36.4343 30.973Z" fill="#FFFBFC"/>
</g>
<g style="mix-blend-mode:lighten">
<path d="M35.2214 36.267C35.1621 36.026 35.3104 35.7888 35.5515 35.7294C35.7925 35.6701 36.0298 35.8184 36.0891 36.0594C36.1484 36.3004 36.0001 36.5376 35.7591 36.5969C35.5181 36.6562 35.2808 36.508 35.2214 36.267Z" fill="#FFFBFC"/>
</g>
<g style="mix-blend-mode:lighten">
<path d="M28.8811 26.6004C28.7587 26.0888 29.0739 25.5735 29.5856 25.4512C30.0973 25.3288 30.6127 25.6439 30.7351 26.1555C30.8575 26.6671 30.5423 27.1824 30.0306 27.3048C29.5189 27.4271 29.0035 27.112 28.8811 26.6004Z" fill="#FFFBFC"/>
</g>
<g style="mix-blend-mode:lighten">
<path d="M31.8464 41.7514C31.7277 41.262 32.0318 40.7689 32.5212 40.6503C33.0107 40.5317 33.5038 40.8357 33.6225 41.325C33.7411 41.8144 33.4371 42.3074 32.9476 42.4261C32.4582 42.5447 31.965 42.2407 31.8464 41.7514Z" fill="#FFFBFC"/>
</g>
<g style="mix-blend-mode:lighten">
<path d="M24.005 38.5282C23.9049 38.113 24.1607 37.6941 24.576 37.5977C24.9913 37.4976 25.4103 37.7534 25.5067 38.1686C25.6068 38.5838 25.351 39.0027 24.9357 39.0991C24.5204 39.1992 24.1014 38.9434 24.005 38.5282Z" fill="#FFFBFC"/>
</g>
<g style="mix-blend-mode:lighten">
<path d="M21.8208 42.8582C21.7688 42.6469 21.8986 42.4393 22.11 42.3874C22.3213 42.3355 22.529 42.4653 22.5809 42.6766C22.6328 42.8879 22.503 43.0955 22.2917 43.1474C22.0803 43.1993 21.8727 43.0695 21.8208 42.8582Z" fill="#FFFBFC"/>
</g>
<g style="mix-blend-mode:lighten">
<path d="M61.2616 63.9908C61.6064 63.9278 61.9401 64.1539 62.0032 64.4987C62.0662 64.8435 61.84 65.1771 61.4952 65.2402C61.1503 65.3032 60.8166 65.077 60.7536 64.7323C60.6905 64.3875 60.9167 64.0538 61.2616 63.9908Z" fill="#FFFBFC"/>
</g>
<g style="mix-blend-mode:lighten">
<path d="M42.2372 64.2675C42.4597 64.2267 42.6711 64.3713 42.7119 64.5937C42.7526 64.8162 42.608 65.0275 42.3856 65.0683C42.1631 65.109 41.9517 64.9645 41.9109 64.742C41.8701 64.5196 42.0148 64.3083 42.2372 64.2675Z" fill="#FFFBFC"/>
</g>
<g style="mix-blend-mode:lighten">
<path d="M43.1009 59.4776C43.5756 59.3886 44.0279 59.7 44.1169 60.1745C44.2059 60.6491 43.8945 61.1013 43.4198 61.1903C42.9452 61.2793 42.4928 60.9679 42.4038 60.4934C42.3149 60.0188 42.6263 59.5665 43.1009 59.4776Z" fill="#FFFBFC"/>
</g>
<g style="mix-blend-mode:lighten">
<path d="M40.0566 57.0087C40.5089 56.9235 40.9465 57.2238 41.0318 57.676C41.117 58.1283 40.8167 58.5658 40.3643 58.651C39.9119 58.7363 39.4744 58.436 39.3891 57.9837C39.3038 57.5315 39.6042 57.094 40.0566 57.0087Z" fill="#FFFBFC"/>
</g>
<g style="mix-blend-mode:lighten">
<path d="M40.6909 53.9206C41.0728 53.8502 41.4436 54.1023 41.5141 54.4841C41.5845 54.866 41.3324 55.2367 40.9505 55.3071C40.5685 55.3776 40.1977 55.1255 40.1273 54.7436C40.0568 54.3618 40.309 53.9911 40.6909 53.9206Z" fill="#FFFBFC"/>
</g>
<g style="mix-blend-mode:lighten">
<path d="M36.8382 51.7298C37.031 51.6927 37.2202 51.8225 37.2535 52.0152C37.2906 52.208 37.1608 52.3971 36.968 52.4304C36.7752 52.4675 36.5861 52.3378 36.5527 52.145C36.5156 51.9522 36.6454 51.7631 36.8382 51.7298Z" fill="#FFFBFC"/>
</g>
<g style="mix-blend-mode:lighten">
<path d="M44.9028 18.3202C45.1253 18.5946 45.0808 18.995 44.8064 19.2174C44.532 19.4398 44.1315 19.3953 43.9091 19.121C43.6866 18.8467 43.7311 18.4463 44.0055 18.2239C44.2799 18.0014 44.6803 18.0459 44.9028 18.3202Z" fill="#FFFBFC"/>
</g>
<g style="mix-blend-mode:lighten">
<path d="M52.8382 24.3628C53.1015 24.6927 53.0496 25.1709 52.7233 25.4341C52.3933 25.6974 51.9149 25.6455 51.6517 25.3192C51.3884 24.9893 51.4403 24.511 51.7666 24.2478C52.0966 23.9846 52.575 24.0365 52.8382 24.3628Z" fill="#FFFBFC"/>
</g>
<path d="M52.0336 19.0579C52.1782 19.2396 52.1523 19.5028 51.9706 19.6511C51.7889 19.7957 51.5256 19.7697 51.3773 19.588C51.2327 19.4064 51.2586 19.1432 51.4403 18.9949C51.622 18.8503 51.8853 18.8763 52.0336 19.0579Z" fill="#FFFBFC"/>
<path d="M58.8305 16.7334C58.9751 16.9114 58.9455 17.1709 58.7675 17.3155C58.5895 17.4601 58.3299 17.4304 58.1853 17.2525C58.0407 17.0745 58.0704 16.815 58.2484 16.6704C58.4263 16.5258 58.6859 16.5555 58.8305 16.7334Z" fill="#FFFBFC"/>
<mask id="path-124-outside-1_46_2952" maskUnits="userSpaceOnUse" x="23" y="40" width="56" height="14" fill="black">
<rect fill="white" x="23" y="40" width="56" height="14"/>
<path d="M29.3645 41.8233L27.5902 50.1704H32.6302L32.2435 52H25.077L27.238 41.8233H29.3645ZM39.8933 51.4546C39.8979 51.1692 39.9302 50.8769 39.99 50.5777L40.1764 49.6319C40.3053 48.9829 40.2777 48.5502 40.0936 48.3339C39.9141 48.1176 39.5113 48.0094 38.8853 48.0094H36.6898L35.8475 52H33.7694L35.9304 41.8233H40.9221C41.6309 41.8371 42.1602 41.9246 42.51 42.0857C42.8598 42.2467 43.136 42.4838 43.3385 42.7968C43.5042 43.0545 43.617 43.3399 43.6768 43.6529C43.7412 43.9659 43.732 44.3226 43.6492 44.723C43.5433 45.2063 43.3178 45.6827 42.9726 46.1522C42.632 46.6171 42.1602 46.9462 41.5572 47.1395C41.9853 47.3282 42.2592 47.5975 42.3788 47.9473C42.5031 48.2925 42.4893 48.8218 42.3374 49.5352L42.1924 50.2187C42.0958 50.6836 42.0474 50.9989 42.0474 51.1646C42.0474 51.427 42.1349 51.6203 42.3098 51.7445L42.2615 52H39.921C39.9025 51.7745 39.8933 51.5927 39.8933 51.4546ZM40.1005 43.5908H37.6288L37.0488 46.3248H39.4584C39.9371 46.3248 40.3076 46.2696 40.5699 46.1591C41.0348 45.9658 41.3294 45.5837 41.4537 45.013C41.5826 44.3962 41.4652 43.982 41.1016 43.7703C40.8944 43.6506 40.5607 43.5908 40.1005 43.5908ZM43.8218 48.9898L44.2222 47.1257H48.1852L47.7848 48.9898H43.8218ZM53.4186 45.7863L55.0825 46.2074C55.8097 46.3915 56.3367 46.6378 56.6635 46.9462C57.1698 47.4249 57.3263 48.1176 57.133 49.0243C56.9351 49.9541 56.415 50.7273 55.5726 51.3441C54.7303 51.9563 53.6602 52.2624 52.3622 52.2624C51.0366 52.2624 50.0585 51.9609 49.428 51.3579C48.7974 50.7504 48.5949 49.9173 48.8204 48.8586H50.8502C50.818 49.3235 50.8709 49.671 51.009 49.9011C51.2668 50.32 51.8145 50.5294 52.6522 50.5294C53.1539 50.5294 53.5727 50.4742 53.9087 50.3637C54.5485 50.152 54.9283 49.7585 55.0479 49.1831C55.1216 48.8471 55.0295 48.5871 54.7718 48.4029C54.5186 48.2234 54.0906 48.0646 53.4876 47.9266L52.4589 47.6849C51.4509 47.4456 50.7743 47.1855 50.4291 46.9047C49.8445 46.4353 49.6581 45.7011 49.8698 44.7023C50.0631 43.791 50.5556 43.0338 51.3473 42.4309C52.139 41.8279 53.1769 41.5264 54.4611 41.5264C55.5335 41.5264 56.3873 41.8118 57.0225 42.3825C57.6577 42.9487 57.8786 43.7726 57.6853 44.8542H55.6417C55.7383 44.242 55.5657 43.8071 55.1239 43.5493C54.8293 43.379 54.4358 43.2939 53.9433 43.2939C53.3955 43.2939 52.933 43.4043 52.5555 43.6253C52.1827 43.8462 51.9549 44.1546 51.872 44.5504C51.7938 44.914 51.8973 45.1856 52.1827 45.3651C52.3622 45.4848 52.7742 45.6252 53.4186 45.7863ZM62.8496 45.7863L64.5135 46.2074C65.2407 46.3915 65.7678 46.6378 66.0946 46.9462C66.6009 47.4249 66.7574 48.1176 66.564 49.0243C66.3661 49.9541 65.846 50.7273 65.0037 51.3441C64.1614 51.9563 63.0913 52.2624 61.7933 52.2624C60.4677 52.2624 59.4896 51.9609 58.859 51.3579C58.2284 50.7504 58.0259 49.9173 58.2515 48.8586H60.2813C60.2491 49.3235 60.302 49.671 60.4401 49.9011C60.6978 50.32 61.2456 50.5294 62.0833 50.5294C62.585 50.5294 63.0038 50.4742 63.3398 50.3637C63.9796 50.152 64.3593 49.7585 64.479 49.1831C64.5526 48.8471 64.4606 48.5871 64.2028 48.4029C63.9497 48.2234 63.5216 48.0646 62.9187 47.9266L61.8899 47.6849C60.8819 47.4456 60.2053 47.1855 59.8601 46.9047C59.2756 46.4353 59.0892 45.7011 59.3009 44.7023C59.4942 43.791 59.9867 43.0338 60.7784 42.4309C61.57 41.8279 62.608 41.5264 63.8921 41.5264C64.9646 41.5264 65.8184 41.8118 66.4536 42.3825C67.0888 42.9487 67.3097 43.7726 67.1164 44.8542H65.0727C65.1694 44.242 64.9968 43.8071 64.5549 43.5493C64.2604 43.379 63.8668 43.2939 63.3743 43.2939C62.8266 43.2939 62.364 43.4043 61.9866 43.6253C61.6138 43.8462 61.3859 44.1546 61.3031 44.5504C61.2248 44.914 61.3284 45.1856 61.6138 45.3651C61.7933 45.4848 62.2052 45.6252 62.8496 45.7863ZM72.2807 45.7863L73.9446 46.2074C74.6718 46.3915 75.1988 46.6378 75.5256 46.9462C76.0319 47.4249 76.1884 48.1176 75.9951 49.0243C75.7972 49.9541 75.2771 50.7273 74.4348 51.3441C73.5925 51.9563 72.5223 52.2624 71.2243 52.2624C69.8987 52.2624 68.9207 51.9609 68.2901 51.3579C67.6595 50.7504 67.457 49.9173 67.6825 48.8586H69.7123C69.6801 49.3235 69.733 49.671 69.8711 49.9011C70.1289 50.32 70.6766 50.5294 71.5143 50.5294C72.016 50.5294 72.4349 50.4742 72.7709 50.3637C73.4107 50.152 73.7904 49.7585 73.9101 49.1831C73.9837 48.8471 73.8916 48.5871 73.6339 48.4029C73.3807 48.2234 72.9527 48.0646 72.3497 47.9266L71.321 47.6849C70.313 47.4456 69.6364 47.1855 69.2912 46.9047C68.7066 46.4353 68.5202 45.7011 68.7319 44.7023C68.9253 43.791 69.4178 43.0338 70.2094 42.4309C71.0011 41.8279 72.039 41.5264 73.3232 41.5264C74.3956 41.5264 75.2495 41.8118 75.8846 42.3825C76.5198 42.9487 76.7408 43.7726 76.5474 44.8542H74.5038C74.6005 44.242 74.4279 43.8071 73.986 43.5493C73.6914 43.379 73.2979 43.2939 72.8054 43.2939C72.2577 43.2939 71.7951 43.4043 71.4177 43.6253C71.0448 43.8462 70.817 44.1546 70.7341 44.5504C70.6559 44.914 70.7595 45.1856 71.0448 45.3651C71.2243 45.4848 71.6363 45.6252 72.2807 45.7863Z"/>
</mask>
<path d="M29.3645 41.8233L27.5902 50.1704H32.6302L32.2435 52H25.077L27.238 41.8233H29.3645ZM39.8933 51.4546C39.8979 51.1692 39.9302 50.8769 39.99 50.5777L40.1764 49.6319C40.3053 48.9829 40.2777 48.5502 40.0936 48.3339C39.9141 48.1176 39.5113 48.0094 38.8853 48.0094H36.6898L35.8475 52H33.7694L35.9304 41.8233H40.9221C41.6309 41.8371 42.1602 41.9246 42.51 42.0857C42.8598 42.2467 43.136 42.4838 43.3385 42.7968C43.5042 43.0545 43.617 43.3399 43.6768 43.6529C43.7412 43.9659 43.732 44.3226 43.6492 44.723C43.5433 45.2063 43.3178 45.6827 42.9726 46.1522C42.632 46.6171 42.1602 46.9462 41.5572 47.1395C41.9853 47.3282 42.2592 47.5975 42.3788 47.9473C42.5031 48.2925 42.4893 48.8218 42.3374 49.5352L42.1924 50.2187C42.0958 50.6836 42.0474 50.9989 42.0474 51.1646C42.0474 51.427 42.1349 51.6203 42.3098 51.7445L42.2615 52H39.921C39.9025 51.7745 39.8933 51.5927 39.8933 51.4546ZM40.1005 43.5908H37.6288L37.0488 46.3248H39.4584C39.9371 46.3248 40.3076 46.2696 40.5699 46.1591C41.0348 45.9658 41.3294 45.5837 41.4537 45.013C41.5826 44.3962 41.4652 43.982 41.1016 43.7703C40.8944 43.6506 40.5607 43.5908 40.1005 43.5908ZM43.8218 48.9898L44.2222 47.1257H48.1852L47.7848 48.9898H43.8218ZM53.4186 45.7863L55.0825 46.2074C55.8097 46.3915 56.3367 46.6378 56.6635 46.9462C57.1698 47.4249 57.3263 48.1176 57.133 49.0243C56.9351 49.9541 56.415 50.7273 55.5726 51.3441C54.7303 51.9563 53.6602 52.2624 52.3622 52.2624C51.0366 52.2624 50.0585 51.9609 49.428 51.3579C48.7974 50.7504 48.5949 49.9173 48.8204 48.8586H50.8502C50.818 49.3235 50.8709 49.671 51.009 49.9011C51.2668 50.32 51.8145 50.5294 52.6522 50.5294C53.1539 50.5294 53.5727 50.4742 53.9087 50.3637C54.5485 50.152 54.9283 49.7585 55.0479 49.1831C55.1216 48.8471 55.0295 48.5871 54.7718 48.4029C54.5186 48.2234 54.0906 48.0646 53.4876 47.9266L52.4589 47.6849C51.4509 47.4456 50.7743 47.1855 50.4291 46.9047C49.8445 46.4353 49.6581 45.7011 49.8698 44.7023C50.0631 43.791 50.5556 43.0338 51.3473 42.4309C52.139 41.8279 53.1769 41.5264 54.4611 41.5264C55.5335 41.5264 56.3873 41.8118 57.0225 42.3825C57.6577 42.9487 57.8786 43.7726 57.6853 44.8542H55.6417C55.7383 44.242 55.5657 43.8071 55.1239 43.5493C54.8293 43.379 54.4358 43.2939 53.9433 43.2939C53.3955 43.2939 52.933 43.4043 52.5555 43.6253C52.1827 43.8462 51.9549 44.1546 51.872 44.5504C51.7938 44.914 51.8973 45.1856 52.1827 45.3651C52.3622 45.4848 52.7742 45.6252 53.4186 45.7863ZM62.8496 45.7863L64.5135 46.2074C65.2407 46.3915 65.7678 46.6378 66.0946 46.9462C66.6009 47.4249 66.7574 48.1176 66.564 49.0243C66.3661 49.9541 65.846 50.7273 65.0037 51.3441C64.1614 51.9563 63.0913 52.2624 61.7933 52.2624C60.4677 52.2624 59.4896 51.9609 58.859 51.3579C58.2284 50.7504 58.0259 49.9173 58.2515 48.8586H60.2813C60.2491 49.3235 60.302 49.671 60.4401 49.9011C60.6978 50.32 61.2456 50.5294 62.0833 50.5294C62.585 50.5294 63.0038 50.4742 63.3398 50.3637C63.9796 50.152 64.3593 49.7585 64.479 49.1831C64.5526 48.8471 64.4606 48.5871 64.2028 48.4029C63.9497 48.2234 63.5216 48.0646 62.9187 47.9266L61.8899 47.6849C60.8819 47.4456 60.2053 47.1855 59.8601 46.9047C59.2756 46.4353 59.0892 45.7011 59.3009 44.7023C59.4942 43.791 59.9867 43.0338 60.7784 42.4309C61.57 41.8279 62.608 41.5264 63.8921 41.5264C64.9646 41.5264 65.8184 41.8118 66.4536 42.3825C67.0888 42.9487 67.3097 43.7726 67.1164 44.8542H65.0727C65.1694 44.242 64.9968 43.8071 64.5549 43.5493C64.2604 43.379 63.8668 43.2939 63.3743 43.2939C62.8266 43.2939 62.364 43.4043 61.9866 43.6253C61.6138 43.8462 61.3859 44.1546 61.3031 44.5504C61.2248 44.914 61.3284 45.1856 61.6138 45.3651C61.7933 45.4848 62.2052 45.6252 62.8496 45.7863ZM72.2807 45.7863L73.9446 46.2074C74.6718 46.3915 75.1988 46.6378 75.5256 46.9462C76.0319 47.4249 76.1884 48.1176 75.9951 49.0243C75.7972 49.9541 75.2771 50.7273 74.4348 51.3441C73.5925 51.9563 72.5223 52.2624 71.2243 52.2624C69.8987 52.2624 68.9207 51.9609 68.2901 51.3579C67.6595 50.7504 67.457 49.9173 67.6825 48.8586H69.7123C69.6801 49.3235 69.733 49.671 69.8711 49.9011C70.1289 50.32 70.6766 50.5294 71.5143 50.5294C72.016 50.5294 72.4349 50.4742 72.7709 50.3637C73.4107 50.152 73.7904 49.7585 73.9101 49.1831C73.9837 48.8471 73.8916 48.5871 73.6339 48.4029C73.3807 48.2234 72.9527 48.0646 72.3497 47.9266L71.321 47.6849C70.313 47.4456 69.6364 47.1855 69.2912 46.9047C68.7066 46.4353 68.5202 45.7011 68.7319 44.7023C68.9253 43.791 69.4178 43.0338 70.2094 42.4309C71.0011 41.8279 72.039 41.5264 73.3232 41.5264C74.3956 41.5264 75.2495 41.8118 75.8846 42.3825C76.5198 42.9487 76.7408 43.7726 76.5474 44.8542H74.5038C74.6005 44.242 74.4279 43.8071 73.986 43.5493C73.6914 43.379 73.2979 43.2939 72.8054 43.2939C72.2577 43.2939 71.7951 43.4043 71.4177 43.6253C71.0448 43.8462 70.817 44.1546 70.7341 44.5504C70.6559 44.914 70.7595 45.1856 71.0448 45.3651C71.2243 45.4848 71.6363 45.6252 72.2807 45.7863Z" fill="white"/>
<path d="M29.3645 41.8233L30.8535 42.1398L31.2443 40.3011H29.3645V41.8233ZM27.5902 50.1704L26.1012 49.8539L25.7103 51.6926H27.5902V50.1704ZM32.6302 50.1704L34.1195 50.4851L34.5077 48.6482H32.6302V50.1704ZM32.2435 52V53.5222H33.4777L33.7329 52.3147L32.2435 52ZM25.077 52L23.588 51.6838L23.1977 53.5222H25.077V52ZM27.238 41.8233V40.3011H26.0051L25.749 41.5071L27.238 41.8233ZM27.8756 41.5068L26.1012 49.8539L29.0791 50.4869L30.8535 42.1398L27.8756 41.5068ZM27.5902 51.6926H32.6302V48.6482H27.5902V51.6926ZM31.1409 49.8557L30.7542 51.6853L33.7329 52.3147L34.1195 50.4851L31.1409 49.8557ZM32.2435 50.4778H25.077V53.5222H32.2435V50.4778ZM26.5661 52.3162L28.7271 42.1395L25.749 41.5071L23.588 51.6838L26.5661 52.3162ZM27.238 43.3455H29.3645V40.3011H27.238V43.3455ZM39.8933 51.4546L38.3713 51.43L38.3711 51.4423V51.4546H39.8933ZM39.99 50.5777L41.4827 50.8763L41.4835 50.8721L39.99 50.5777ZM40.1764 49.6319L38.6833 49.3354L38.6829 49.3375L40.1764 49.6319ZM40.0936 48.3339L38.9221 49.3059L38.9282 49.3132L38.9343 49.3205L40.0936 48.3339ZM36.6898 48.0094V46.4872H35.4554L35.2004 47.695L36.6898 48.0094ZM35.8475 52V53.5222H37.082L37.3369 52.3144L35.8475 52ZM33.7694 52L32.2803 51.6838L31.89 53.5222H33.7694V52ZM35.9304 41.8233V40.3011H34.6974L34.4413 41.5071L35.9304 41.8233ZM40.9221 41.8233L40.9517 40.3014L40.9369 40.3011H40.9221V41.8233ZM43.3385 42.7968L44.619 41.9736L44.6165 41.9698L43.3385 42.7968ZM43.6768 43.6529L42.1817 43.9387L42.1837 43.9493L42.1859 43.9598L43.6768 43.6529ZM43.6492 44.723L45.1362 45.0487L45.138 45.0401L45.1398 45.0314L43.6492 44.723ZM42.9726 46.1522L41.7462 45.2504L41.7447 45.2525L42.9726 46.1522ZM41.5572 47.1395L41.0925 45.6899L37.2733 46.9144L40.9432 48.5323L41.5572 47.1395ZM42.3788 47.9473L40.9386 48.44L40.9425 48.4515L40.9466 48.4629L42.3788 47.9473ZM42.3374 49.5352L40.8486 49.2182L40.8483 49.2194L42.3374 49.5352ZM42.1924 50.2187L40.7033 49.9029L40.7021 49.9089L42.1924 50.2187ZM42.3098 51.7445L43.8055 52.0275L43.9868 51.0688L43.1915 50.5037L42.3098 51.7445ZM42.2615 52V53.5222H43.5227L43.7571 52.283L42.2615 52ZM39.921 52L38.4038 52.1239L38.5179 53.5222H39.921V52ZM37.6288 43.5908V42.0685H36.3956L36.1397 43.2749L37.6288 43.5908ZM37.0488 46.3248L35.5597 46.0089L35.1699 47.847H37.0488V46.3248ZM40.5699 46.1591L39.9855 44.7535L39.9792 44.7562L40.5699 46.1591ZM41.4537 45.013L42.9411 45.3369L42.9437 45.3244L41.4537 45.013ZM41.1016 43.7703L41.8675 42.4548L41.8631 42.4522L41.1016 43.7703ZM41.4154 51.4791C41.4184 51.2919 41.4396 51.0914 41.4827 50.8763L38.4973 50.2792C38.4207 50.6625 38.3775 51.0466 38.3713 51.43L41.4154 51.4791ZM41.4835 50.8721L41.6699 49.9262L38.6829 49.3375L38.4965 50.2834L41.4835 50.8721ZM41.6695 49.9284C41.7476 49.5347 41.7969 49.1215 41.7715 48.7237C41.7471 48.3424 41.6433 47.8062 41.2528 47.3473L38.9343 49.3205C38.8287 49.1963 38.7781 49.0792 38.7551 49.0088C38.733 48.9409 38.7324 48.9045 38.7332 48.9176C38.734 48.9292 38.7351 48.9691 38.7281 49.0438C38.7212 49.1174 38.7075 49.2137 38.6833 49.3354L41.6695 49.9284ZM41.265 47.3619C40.8983 46.9199 40.4178 46.7187 40.0517 46.6204C39.6746 46.5191 39.2721 46.4872 38.8853 46.4872V49.5316C38.9993 49.5316 39.0877 49.5366 39.1538 49.5436C39.2209 49.5506 39.2544 49.5586 39.262 49.5606C39.2708 49.563 39.2357 49.5549 39.176 49.5216C39.1143 49.4872 39.0174 49.4208 38.9221 49.3059L41.265 47.3619ZM38.8853 46.4872H36.6898V49.5316H38.8853V46.4872ZM35.2004 47.695L34.3581 51.6856L37.3369 52.3144L38.1792 48.3238L35.2004 47.695ZM35.8475 50.4778H33.7694V53.5222H35.8475V50.4778ZM35.2584 52.3162L37.4194 42.1395L34.4413 41.5071L32.2803 51.6838L35.2584 52.3162ZM35.9304 43.3455H40.9221V40.3011H35.9304V43.3455ZM40.8924 43.3452C41.5384 43.3578 41.8132 43.4406 41.8733 43.4683L43.1468 40.703C42.5072 40.4085 41.7234 40.3164 40.9517 40.3014L40.8924 43.3452ZM41.8733 43.4683C41.9701 43.5129 42.0201 43.5613 42.0605 43.6237L44.6165 41.9698C44.2519 41.4063 43.7495 40.9806 43.1468 40.703L41.8733 43.4683ZM42.0581 43.6199C42.1143 43.7074 42.1569 43.8092 42.1817 43.9387L45.1719 43.3671C45.077 42.8707 44.8941 42.4016 44.619 41.9736L42.0581 43.6199ZM42.1859 43.9598C42.1986 44.0216 42.2107 44.1626 42.1585 44.4146L45.1398 45.0314C45.2534 44.4826 45.2839 43.9102 45.1678 43.3459L42.1859 43.9598ZM42.1622 44.3973C42.1093 44.6388 41.9874 44.9225 41.7462 45.2504L44.199 47.0539C44.6482 46.443 44.9773 45.7739 45.1362 45.0487L42.1622 44.3973ZM41.7447 45.2525C41.6129 45.4325 41.4212 45.5846 41.0925 45.6899L42.022 48.589C42.8992 48.3078 43.6511 47.8017 44.2005 47.0518L41.7447 45.2525ZM40.9432 48.5323C41.0244 48.5682 41.0359 48.5875 41.0165 48.5684C41.0064 48.5585 40.9912 48.5413 40.9755 48.5166C40.9597 48.4918 40.9472 48.4654 40.9386 48.44L43.8191 47.4545C43.5272 46.6013 42.8784 46.0583 42.1713 45.7466L40.9432 48.5323ZM40.9466 48.4629C40.923 48.3973 40.944 48.4111 40.94 48.5635C40.9362 48.7075 40.9118 48.9213 40.8486 49.2182L43.8263 49.8522C43.9892 49.087 44.0874 48.1993 43.8111 47.4317L40.9466 48.4629ZM40.8483 49.2194L40.7033 49.9029L43.6815 50.5346L43.8265 49.8511L40.8483 49.2194ZM40.7021 49.9089C40.6098 50.3527 40.5252 50.818 40.5252 51.1646H43.5696C43.5696 51.2002 43.5672 51.1719 43.5883 51.0345C43.607 50.9128 43.6375 50.7461 43.6828 50.5286L40.7021 49.9089ZM40.5252 51.1646C40.5252 51.796 40.76 52.5107 41.4281 52.9854L43.1915 50.5037C43.3212 50.5958 43.4312 50.7271 43.4999 50.8789C43.5639 51.0203 43.5696 51.1292 43.5696 51.1646H40.5252ZM40.8141 51.4616L40.7658 51.717L43.7571 52.283L43.8055 52.0275L40.8141 51.4616ZM42.2615 50.4778H39.921V53.5222H42.2615V50.4778ZM41.4381 51.8761C41.4212 51.6694 41.4156 51.5337 41.4156 51.4546H38.3711C38.3711 51.6516 38.3838 51.8795 38.4038 52.1239L41.4381 51.8761ZM40.1005 42.0685H37.6288V45.113H40.1005V42.0685ZM36.1397 43.2749L35.5597 46.0089L38.5379 46.6407L39.1179 43.9066L36.1397 43.2749ZM37.0488 47.847H39.4584V44.8026H37.0488V47.847ZM39.4584 47.847C40.0203 47.847 40.6259 47.7872 41.1607 47.562L39.9792 44.7562C39.9956 44.7493 39.9673 44.7634 39.8709 44.7778C39.777 44.7918 39.6421 44.8026 39.4584 44.8026V47.847ZM41.1544 47.5646C42.1578 47.1474 42.7304 46.3044 42.941 45.3369L39.9663 44.6891C39.9422 44.7999 39.9178 44.8192 39.9341 44.7981C39.9418 44.7881 39.9535 44.776 39.9675 44.7654C39.9812 44.755 39.9892 44.752 39.9855 44.7536L41.1544 47.5646ZM42.9437 45.3244C43.0368 44.8788 43.0764 44.3526 42.9269 43.8248C42.7635 43.2482 42.3988 42.7641 41.8675 42.4548L40.3356 45.0857C40.2671 45.0458 40.1892 44.9831 40.1211 44.8945C40.0534 44.8064 40.0162 44.7198 39.9977 44.6547C39.9656 44.5412 39.9994 44.5305 39.9636 44.7017L42.9437 45.3244ZM41.8631 42.4522C41.2951 42.124 40.6227 42.0685 40.1005 42.0685V45.113C40.2701 45.113 40.3741 45.1244 40.4273 45.1339C40.4522 45.1384 40.4558 45.1407 40.443 45.1364C40.4305 45.1323 40.3928 45.1188 40.34 45.0883L41.8631 42.4522ZM43.8218 48.9898L42.3335 48.6701L41.9379 50.512H43.8218V48.9898ZM44.2222 47.1257V45.6035H42.9923L42.734 46.806L44.2222 47.1257ZM48.1852 47.1257L49.6735 47.4454L50.0691 45.6035H48.1852V47.1257ZM47.7848 48.9898V50.512H49.0147L49.273 49.3095L47.7848 48.9898ZM45.3101 49.3095L45.7105 47.4454L42.734 46.806L42.3335 48.6701L45.3101 49.3095ZM44.2222 48.6479H48.1852V45.6035H44.2222V48.6479ZM46.697 46.806L46.2965 48.6701L49.273 49.3095L49.6735 47.4454L46.697 46.806ZM47.7848 47.4676H43.8218V50.512H47.7848V47.4676ZM53.4186 45.7863L53.7921 44.3106L53.7877 44.3095L53.4186 45.7863ZM55.0825 46.2074L55.456 44.7318L55.456 44.7317L55.0825 46.2074ZM56.6635 46.9462L57.7093 45.8401L57.7082 45.8391L56.6635 46.9462ZM57.133 49.0243L55.6442 48.7069L55.6441 48.7074L57.133 49.0243ZM55.5726 51.3441L56.4676 52.5755L56.472 52.5723L55.5726 51.3441ZM49.428 51.3579L48.3718 52.4541L48.376 52.4581L49.428 51.3579ZM48.8204 48.8586V47.3364H47.5883L47.3316 48.5414L48.8204 48.8586ZM50.8502 48.8586L52.3688 48.9639L52.4816 47.3364H50.8502V48.8586ZM51.009 49.9011L49.7037 50.6843L49.7081 50.6916L49.7126 50.6989L51.009 49.9011ZM53.9087 50.3637L54.3842 51.8098L54.387 51.8089L53.9087 50.3637ZM55.0479 49.1831L53.561 48.8572L53.5593 48.8652L53.5576 48.8731L55.0479 49.1831ZM54.7718 48.4029L55.6565 47.1643L55.6523 47.1612L54.7718 48.4029ZM53.4876 47.9266L53.1395 49.4085L53.1478 49.4104L53.4876 47.9266ZM52.4589 47.6849L52.1072 49.166L52.1108 49.1668L52.4589 47.6849ZM50.4291 46.9047L51.3896 45.7238L51.3823 45.7179L50.4291 46.9047ZM49.8698 44.7023L48.3807 44.3865L48.3807 44.3867L49.8698 44.7023ZM57.0225 42.3825L56.0051 43.5148L56.0097 43.5189L57.0225 42.3825ZM57.6853 44.8542V46.3764H58.9596L59.1838 45.122L57.6853 44.8542ZM55.6417 44.8542L54.1381 44.6168L53.8603 46.3764H55.6417V44.8542ZM55.1239 43.5493L55.8909 42.2345L55.8858 42.2315L55.1239 43.5493ZM52.5555 43.6253L51.7865 42.3116L51.7795 42.3157L52.5555 43.6253ZM51.872 44.5504L53.3602 44.8707L53.362 44.8623L51.872 44.5504ZM52.1827 45.3651L53.0271 44.0986L53.0103 44.0874L52.9932 44.0766L52.1827 45.3651ZM53.045 47.2619L54.7089 47.6831L55.456 44.7317L53.7921 44.3106L53.045 47.2619ZM54.7089 47.6831C55.3334 47.8412 55.5674 48.0048 55.6188 48.0533L57.7082 45.8391C57.106 45.2708 56.286 44.9419 55.456 44.7318L54.7089 47.6831ZM55.6177 48.0523C55.6468 48.0798 55.6628 48.1025 55.6758 48.1602C55.6931 48.2367 55.7084 48.4059 55.6442 48.7069L58.6217 49.3417C58.8845 48.1093 58.7262 46.8015 57.7093 45.8401L55.6177 48.0523ZM55.6441 48.7074C55.532 49.2342 55.2459 49.6967 54.6733 50.1159L56.472 52.5723C57.584 51.758 58.3382 50.6739 58.6218 49.3412L55.6441 48.7074ZM54.6777 50.1127C54.1537 50.4936 53.4189 50.7401 52.3622 50.7401V53.7846C53.9015 53.7846 55.307 53.4189 56.4676 52.5755L54.6777 50.1127ZM52.3622 50.7401C51.2298 50.7401 50.7104 50.4781 50.48 50.2577L48.376 52.4581C49.4067 53.4437 50.8435 53.7846 52.3622 53.7846V50.7401ZM50.4841 50.2617C50.3249 50.1083 50.1634 49.8601 50.3092 49.1758L47.3316 48.5414C47.0263 49.9744 47.2699 51.3924 48.3718 52.4541L50.4841 50.2617ZM48.8204 50.3808H50.8502V47.3364H48.8204V50.3808ZM49.3316 48.7534C49.2919 49.3261 49.3253 50.0536 49.7037 50.6843L52.3143 49.118C52.3734 49.2165 52.376 49.2742 52.3706 49.2387C52.3654 49.2047 52.3581 49.1184 52.3688 48.9639L49.3316 48.7534ZM49.7126 50.6989C50.4 51.816 51.6637 52.0516 52.6522 52.0516V49.0072C52.346 49.0072 52.1998 48.967 52.1568 48.9505C52.1405 48.9443 52.1583 48.9488 52.1929 48.9757C52.2297 49.0045 52.2711 49.0476 52.3054 49.1034L49.7126 50.6989ZM52.6522 52.0516C53.2535 52.0516 53.8453 51.9869 54.3842 51.8098L53.4333 48.9176C53.3002 48.9614 53.0543 49.0072 52.6522 49.0072V52.0516ZM54.387 51.8089C55.4519 51.4564 56.2898 50.6876 56.5382 49.4931L53.5576 48.8731C53.5535 48.8927 53.551 48.8935 53.5564 48.8831C53.5621 48.872 53.5703 48.8607 53.578 48.8528C53.5947 48.8355 53.5698 48.8725 53.4305 48.9186L54.387 51.8089ZM56.5349 49.509C56.6175 49.1318 56.6307 48.6847 56.4691 48.2281C56.304 47.7618 56.0005 47.4099 55.6565 47.1643L53.887 49.6416C53.8008 49.5801 53.6722 49.4503 53.5992 49.244C53.5296 49.0474 53.552 48.8984 53.561 48.8572L56.5349 49.509ZM55.6523 47.1612C55.144 46.8008 54.4703 46.59 53.8274 46.4428L53.1478 49.4104C53.4058 49.4695 53.5966 49.5264 53.7314 49.5764C53.8735 49.6291 53.911 49.6586 53.8913 49.6447L55.6523 47.1612ZM53.8357 46.4447L52.807 46.203L52.1108 49.1668L53.1395 49.4084L53.8357 46.4447ZM52.8105 46.2039C52.3471 46.0938 51.9959 45.9873 51.7415 45.8895C51.4714 45.7856 51.3841 45.7194 51.3896 45.7238L49.4686 48.0857C50.1091 48.6067 51.0971 48.9261 52.1072 49.1659L52.8105 46.2039ZM51.3823 45.7179C51.3504 45.6923 51.339 45.6778 51.3262 45.6274C51.3068 45.5508 51.2854 45.3648 51.3589 45.018L48.3807 44.3867C48.0998 45.7119 48.2825 47.1332 49.4759 48.0916L51.3823 45.7179ZM51.3589 45.0182C51.4712 44.4889 51.7465 44.0402 52.2696 43.6418L50.425 41.2199C49.3647 42.0274 48.6551 43.093 48.3807 44.3865L51.3589 45.0182ZM52.2696 43.6418C52.728 43.2927 53.4127 43.0486 54.4611 43.0486V40.0042C52.9411 40.0042 51.55 40.363 50.425 41.2199L52.2696 43.6418ZM54.4611 43.0486C55.2577 43.0486 55.7156 43.2546 56.0051 43.5148L58.0399 41.2503C57.0591 40.3689 55.8094 40.0042 54.4611 40.0042V43.0486ZM56.0097 43.5189C56.1347 43.6304 56.318 43.8527 56.1868 44.5864L59.1838 45.122C59.4393 43.6924 59.1807 42.267 58.0354 41.2462L56.0097 43.5189ZM57.6853 43.332H55.6417V46.3764H57.6853V43.332ZM57.1453 45.0916C57.2227 44.601 57.2141 44.0479 56.9996 43.5074C56.7758 42.9434 56.3768 42.5179 55.8909 42.2345L54.3569 44.8642C54.3426 44.8558 54.3068 44.832 54.266 44.786C54.2241 44.7388 54.1912 44.6843 54.1698 44.6303C54.128 44.5248 54.1573 44.4953 54.1381 44.6168L57.1453 45.0916ZM55.8858 42.2315C55.2786 41.8805 54.5909 41.7717 53.9433 41.7717V44.8161C54.2806 44.8161 54.38 44.8776 54.362 44.8672L55.8858 42.2315ZM53.9433 41.7717C53.1927 41.7717 52.4493 41.9236 51.7865 42.3116L53.3245 44.939C53.4166 44.885 53.5984 44.8161 53.9433 44.8161V41.7717ZM51.7795 42.3157C51.0688 42.7369 50.5592 43.3923 50.3821 44.2386L53.362 44.8623C53.362 44.862 53.3602 44.8704 53.3541 44.8844C53.3478 44.8986 53.3393 44.9133 53.3294 44.9268C53.3195 44.9401 53.3117 44.9475 53.3095 44.9494C53.3076 44.9511 53.3136 44.9455 53.3316 44.9348L51.7795 42.3157ZM50.3839 44.2302C50.3 44.62 50.2863 45.0908 50.4687 45.5692C50.6563 46.0611 50.9966 46.4173 51.3722 46.6536L52.9932 44.0766C53.0835 44.1334 53.2293 44.2641 53.3133 44.4844C53.3922 44.6912 53.3658 44.8444 53.3602 44.8707L50.3839 44.2302ZM51.3383 46.6317C51.6001 46.8062 51.904 46.9222 52.1353 47.001C52.3963 47.09 52.705 47.1769 53.0494 47.263L53.7877 44.3095C53.4877 44.2345 53.2682 44.1707 53.1173 44.1193C53.0424 44.0938 52.9968 44.0755 52.9736 44.0653C52.9449 44.0527 52.9721 44.0619 53.0271 44.0986L51.3383 46.6317ZM62.8496 45.7863L63.2231 44.3106L63.2188 44.3095L62.8496 45.7863ZM64.5135 46.2074L64.8871 44.7318L64.887 44.7317L64.5135 46.2074ZM66.0946 46.9462L67.1403 45.8401L67.1393 45.8391L66.0946 46.9462ZM66.564 49.0243L65.0753 48.7069L65.0752 48.7074L66.564 49.0243ZM65.0037 51.3441L65.8986 52.5755L65.903 52.5723L65.0037 51.3441ZM58.859 51.3579L57.8028 52.4541L57.807 52.4581L58.859 51.3579ZM58.2515 48.8586V47.3364H57.0194L56.7626 48.5414L58.2515 48.8586ZM60.2813 48.8586L61.7998 48.9639L61.9126 47.3364H60.2813V48.8586ZM60.4401 49.9011L59.1348 50.6843L59.1392 50.6916L59.1437 50.6989L60.4401 49.9011ZM63.3398 50.3637L63.8152 51.8098L63.8181 51.8089L63.3398 50.3637ZM64.479 49.1831L62.9921 48.8572L62.9903 48.8652L62.9887 48.8731L64.479 49.1831ZM64.2028 48.4029L65.0876 47.1643L65.0833 47.1612L64.2028 48.4029ZM62.9187 47.9266L62.5706 49.4085L62.5789 49.4104L62.9187 47.9266ZM61.8899 47.6849L61.5383 49.166L61.5418 49.1668L61.8899 47.6849ZM59.8601 46.9047L60.8206 45.7238L60.8133 45.7179L59.8601 46.9047ZM59.3009 44.7023L57.8118 44.3865L57.8118 44.3867L59.3009 44.7023ZM66.4536 42.3825L65.4362 43.5148L65.4407 43.5189L66.4536 42.3825ZM67.1164 44.8542V46.3764H68.3907L68.6148 45.122L67.1164 44.8542ZM65.0727 44.8542L63.5692 44.6168L63.2913 46.3764H65.0727V44.8542ZM64.5549 43.5493L65.3219 42.2345L65.3168 42.2315L64.5549 43.5493ZM61.9866 43.6253L61.2176 42.3116L61.2106 42.3157L61.9866 43.6253ZM61.3031 44.5504L62.7913 44.8707L62.793 44.8623L61.3031 44.5504ZM61.6138 45.3651L62.4581 44.0986L62.4414 44.0874L62.4243 44.0766L61.6138 45.3651ZM62.4761 47.2619L64.14 47.6831L64.887 44.7317L63.2231 44.3106L62.4761 47.2619ZM64.1399 47.6831C64.7645 47.8412 64.9985 48.0048 65.0498 48.0533L67.1393 45.8391C66.5371 45.2708 65.717 44.9419 64.8871 44.7318L64.1399 47.6831ZM65.0488 48.0523C65.0779 48.0798 65.0938 48.1025 65.1069 48.1602C65.1242 48.2367 65.1395 48.4059 65.0753 48.7069L68.0528 49.3417C68.3155 48.1093 68.1573 46.8015 67.1403 45.8401L65.0488 48.0523ZM65.0752 48.7074C64.963 49.2342 64.6769 49.6967 64.1044 50.1159L65.903 52.5723C67.0151 51.758 67.7692 50.6739 68.0529 49.3412L65.0752 48.7074ZM64.1088 50.1127C63.5847 50.4936 62.85 50.7401 61.7933 50.7401V53.7846C63.3326 53.7846 64.7381 53.4189 65.8986 52.5755L64.1088 50.1127ZM61.7933 50.7401C60.6608 50.7401 60.1415 50.4781 59.911 50.2577L57.807 52.4581C58.8377 53.4437 60.2745 53.7846 61.7933 53.7846V50.7401ZM59.9152 50.2617C59.7559 50.1083 59.5945 49.8601 59.7403 49.1758L56.7626 48.5414C56.4574 49.9744 56.7009 51.3924 57.8028 52.4541L59.9152 50.2617ZM58.2515 50.3808H60.2813V47.3364H58.2515V50.3808ZM58.7627 48.7534C58.723 49.3261 58.7564 50.0536 59.1348 50.6843L61.7454 49.118C61.8045 49.2165 61.8071 49.2742 61.8017 49.2387C61.7965 49.2047 61.7891 49.1184 61.7998 48.9639L58.7627 48.7534ZM59.1437 50.6989C59.8311 51.816 61.0947 52.0516 62.0833 52.0516V49.0072C61.7771 49.0072 61.6309 48.967 61.5878 48.9505C61.5716 48.9443 61.5894 48.9488 61.624 48.9757C61.6608 49.0045 61.7021 49.0476 61.7365 49.1034L59.1437 50.6989ZM62.0833 52.0516C62.6846 52.0516 63.2764 51.9869 63.8152 51.8098L62.8644 48.9176C62.7312 48.9614 62.4853 49.0072 62.0833 49.0072V52.0516ZM63.8181 51.8089C64.883 51.4564 65.7209 50.6876 65.9693 49.4931L62.9887 48.8731C62.9846 48.8927 62.9821 48.8935 62.9874 48.8831C62.9931 48.872 63.0014 48.8607 63.009 48.8528C63.0257 48.8355 63.0009 48.8725 62.8616 48.9186L63.8181 51.8089ZM65.9659 49.509C66.0486 49.1318 66.0618 48.6847 65.9001 48.2281C65.7351 47.7618 65.4315 47.4099 65.0876 47.1643L63.3181 49.6416C63.2319 49.5801 63.1032 49.4503 63.0302 49.244C62.9606 49.0474 62.983 48.8984 62.9921 48.8572L65.9659 49.509ZM65.0833 47.1612C64.575 46.8008 63.9013 46.59 63.2585 46.4428L62.5789 49.4104C62.8369 49.4695 63.0277 49.5264 63.1625 49.5764C63.3046 49.6291 63.3421 49.6586 63.3223 49.6447L65.0833 47.1612ZM63.2667 46.4447L62.238 46.203L61.5418 49.1668L62.5706 49.4084L63.2667 46.4447ZM62.2416 46.2039C61.7782 46.0938 61.427 45.9873 61.1726 45.8895C60.9024 45.7856 60.8152 45.7194 60.8206 45.7238L58.8996 48.0857C59.5402 48.6067 60.5281 48.9261 61.5383 49.1659L62.2416 46.2039ZM60.8133 45.7179C60.7815 45.6923 60.7701 45.6778 60.7573 45.6274C60.7379 45.5508 60.7165 45.3648 60.79 45.018L57.8118 44.3867C57.5308 45.7119 57.7136 47.1332 58.9069 48.0916L60.8133 45.7179ZM60.79 45.0182C60.9022 44.4889 61.1776 44.0402 61.7007 43.6418L59.8561 41.2199C58.7958 42.0274 58.0862 43.093 57.8118 44.3865L60.79 45.0182ZM61.7007 43.6418C62.159 43.2927 62.8438 43.0486 63.8921 43.0486V40.0042C62.3721 40.0042 60.9811 40.363 59.8561 41.2199L61.7007 43.6418ZM63.8921 43.0486C64.6887 43.0486 65.1466 43.2546 65.4362 43.5148L67.471 41.2503C66.4902 40.3689 65.2405 40.0042 63.8921 40.0042V43.0486ZM65.4407 43.5189C65.5658 43.6304 65.749 43.8527 65.6179 44.5864L68.6148 45.122C68.8704 43.6924 68.6117 42.267 67.4664 41.2462L65.4407 43.5189ZM67.1164 43.332H65.0727V46.3764H67.1164V43.332ZM66.5763 45.0916C66.6538 44.601 66.6451 44.0479 66.4307 43.5074C66.2069 42.9434 65.8079 42.5179 65.3219 42.2345L63.7879 44.8642C63.7736 44.8558 63.7379 44.832 63.6971 44.786C63.6552 44.7388 63.6223 44.6843 63.6009 44.6303C63.559 44.5248 63.5883 44.4953 63.5692 44.6168L66.5763 45.0916ZM65.3168 42.2315C64.7097 41.8805 64.022 41.7717 63.3743 41.7717V44.8161C63.7117 44.8161 63.811 44.8776 63.7931 44.8672L65.3168 42.2315ZM63.3743 41.7717C62.6238 41.7717 61.8803 41.9236 61.2176 42.3116L62.7556 44.939C62.8477 44.885 63.0294 44.8161 63.3743 44.8161V41.7717ZM61.2106 42.3157C60.4999 42.7369 59.9903 43.3923 59.8132 44.2386L62.793 44.8623C62.7931 44.862 62.7913 44.8704 62.7851 44.8844C62.7788 44.8986 62.7704 44.9133 62.7604 44.9268C62.7506 44.9401 62.7428 44.9475 62.7406 44.9494C62.7387 44.9511 62.7446 44.9455 62.7626 44.9348L61.2106 42.3157ZM59.8149 44.2302C59.731 44.62 59.7173 45.0908 59.8998 45.5692C60.0874 46.0611 60.4276 46.4173 60.8033 46.6536L62.4243 44.0766C62.5146 44.1334 62.6604 44.2641 62.7444 44.4844C62.8232 44.6912 62.7969 44.8444 62.7912 44.8707L59.8149 44.2302ZM60.7694 46.6317C61.0311 46.8062 61.3351 46.9222 61.5663 47.001C61.8274 47.09 62.1361 47.1769 62.4804 47.263L63.2188 44.3095C62.9188 44.2345 62.6993 44.1707 62.5484 44.1193C62.4735 44.0938 62.4278 44.0755 62.4047 44.0653C62.3759 44.0527 62.4031 44.0619 62.4581 44.0986L60.7694 46.6317ZM72.2807 45.7863L72.6542 44.3106L72.6499 44.3095L72.2807 45.7863ZM73.9446 46.2074L74.3182 44.7318L74.3181 44.7317L73.9446 46.2074ZM75.5256 46.9462L76.5714 45.8401L76.5704 45.8391L75.5256 46.9462ZM75.9951 49.0243L74.5063 48.7069L74.5062 48.7074L75.9951 49.0243ZM74.4348 51.3441L75.3297 52.5755L75.3341 52.5723L74.4348 51.3441ZM68.2901 51.3579L67.2339 52.4541L67.2381 52.4581L68.2901 51.3579ZM67.6825 48.8586V47.3364H66.4504L66.1937 48.5414L67.6825 48.8586ZM69.7123 48.8586L71.2309 48.9639L71.3437 47.3364H69.7123V48.8586ZM69.8711 49.9011L68.5658 50.6843L68.5702 50.6916L68.5747 50.6989L69.8711 49.9011ZM72.7709 50.3637L73.2463 51.8098L73.2491 51.8089L72.7709 50.3637ZM73.9101 49.1831L72.4231 48.8572L72.4214 48.8652L72.4197 48.8731L73.9101 49.1831ZM73.6339 48.4029L74.5187 47.1643L74.5144 47.1612L73.6339 48.4029ZM72.3497 47.9266L72.0016 49.4085L72.0099 49.4104L72.3497 47.9266ZM71.321 47.6849L70.9693 49.166L70.9729 49.1668L71.321 47.6849ZM69.2912 46.9047L70.2517 45.7238L70.2444 45.7179L69.2912 46.9047ZM68.7319 44.7023L67.2429 44.3865L67.2428 44.3867L68.7319 44.7023ZM75.8846 42.3825L74.8672 43.5148L74.8718 43.5189L75.8846 42.3825ZM76.5474 44.8542V46.3764H77.8217L78.0459 45.122L76.5474 44.8542ZM74.5038 44.8542L73.0002 44.6168L72.7224 46.3764H74.5038V44.8542ZM73.986 43.5493L74.753 42.2345L74.7479 42.2315L73.986 43.5493ZM71.4177 43.6253L70.6487 42.3116L70.6416 42.3157L71.4177 43.6253ZM70.7341 44.5504L72.2223 44.8707L72.2241 44.8623L70.7341 44.5504ZM71.0448 45.3651L71.8892 44.0986L71.8724 44.0874L71.8553 44.0766L71.0448 45.3651ZM71.9072 47.2619L73.5711 47.6831L74.3181 44.7317L72.6542 44.3106L71.9072 47.2619ZM73.571 47.6831C74.1955 47.8412 74.4295 48.0048 74.4809 48.0533L76.5704 45.8391C75.9681 45.2708 75.1481 44.9419 74.3182 44.7318L73.571 47.6831ZM74.4798 48.0523C74.5089 48.0798 74.5249 48.1025 74.5379 48.1602C74.5552 48.2367 74.5705 48.4059 74.5063 48.7069L77.4839 49.3417C77.7466 48.1093 77.5883 46.8015 76.5714 45.8401L74.4798 48.0523ZM74.5062 48.7074C74.3941 49.2342 74.108 49.6967 73.5355 50.1159L75.3341 52.5723C76.4461 51.758 77.2003 50.6739 77.484 49.3412L74.5062 48.7074ZM73.5398 50.1127C73.0158 50.4936 72.281 50.7401 71.2243 50.7401V53.7846C72.7636 53.7846 74.1691 53.4189 75.3297 52.5755L73.5398 50.1127ZM71.2243 50.7401C70.0919 50.7401 69.5725 50.4781 69.3421 50.2577L67.2381 52.4581C68.2688 53.4437 69.7056 53.7846 71.2243 53.7846V50.7401ZM69.3463 50.2617C69.187 50.1083 69.0255 49.8601 69.1713 49.1758L66.1937 48.5414C65.8884 49.9744 66.132 51.3924 67.2339 52.4541L69.3463 50.2617ZM67.6825 50.3808H69.7123V47.3364H67.6825V50.3808ZM68.1938 48.7534C68.1541 49.3261 68.1874 50.0536 68.5658 50.6843L71.1764 49.118C71.2356 49.2165 71.2381 49.2742 71.2327 49.2387C71.2275 49.2047 71.2202 49.1184 71.2309 48.9639L68.1938 48.7534ZM68.5747 50.6989C69.2621 51.816 70.5258 52.0516 71.5143 52.0516V49.0072C71.2081 49.0072 71.0619 48.967 71.0189 48.9505C71.0026 48.9443 71.0205 48.9488 71.055 48.9757C71.0918 49.0045 71.1332 49.0476 71.1675 49.1034L68.5747 50.6989ZM71.5143 52.0516C72.1157 52.0516 72.7074 51.9869 73.2463 51.8098L72.2954 48.9176C72.1623 48.9614 71.9164 49.0072 71.5143 49.0072V52.0516ZM73.2491 51.8089C74.314 51.4564 75.1519 50.6876 75.4004 49.4931L72.4197 48.8731C72.4157 48.8927 72.4131 48.8935 72.4185 48.8831C72.4242 48.872 72.4324 48.8607 72.4401 48.8528C72.4568 48.8355 72.432 48.8725 72.2926 48.9186L73.2491 51.8089ZM75.397 49.509C75.4796 49.1318 75.4928 48.6847 75.3312 48.2281C75.1661 47.7618 74.8626 47.4099 74.5187 47.1643L72.7491 49.6416C72.6629 49.5801 72.5343 49.4503 72.4613 49.244C72.3917 49.0474 72.4141 48.8984 72.4231 48.8572L75.397 49.509ZM74.5144 47.1612C74.0061 46.8008 73.3324 46.59 72.6895 46.4428L72.0099 49.4104C72.2679 49.4695 72.4587 49.5264 72.5935 49.5764C72.7357 49.6291 72.7731 49.6586 72.7534 49.6447L74.5144 47.1612ZM72.6978 46.4447L71.6691 46.203L70.9729 49.1668L72.0016 49.4084L72.6978 46.4447ZM71.6727 46.2039C71.2092 46.0938 70.8581 45.9873 70.6037 45.8895C70.3335 45.7856 70.2462 45.7194 70.2517 45.7238L68.3307 48.0857C68.9713 48.6067 69.9592 48.9261 70.9693 49.1659L71.6727 46.2039ZM70.2444 45.7179C70.2125 45.6923 70.2011 45.6778 70.1884 45.6274C70.1689 45.5508 70.1476 45.3648 70.2211 45.018L67.2428 44.3867C66.9619 45.7119 67.1447 47.1332 68.338 48.0916L70.2444 45.7179ZM70.221 45.0182C70.3333 44.4889 70.6087 44.0402 71.1317 43.6418L69.2871 41.2199C68.2269 42.0274 67.5172 43.093 67.2429 44.3865L70.221 45.0182ZM71.1317 43.6418C71.5901 43.2927 72.2749 43.0486 73.3232 43.0486V40.0042C71.8032 40.0042 70.4121 40.363 69.2871 41.2199L71.1317 43.6418ZM73.3232 43.0486C74.1198 43.0486 74.5777 43.2546 74.8672 43.5148L76.902 41.2503C75.9212 40.3689 74.6715 40.0042 73.3232 40.0042V43.0486ZM74.8718 43.5189C74.9969 43.6304 75.1801 43.8527 75.049 44.5864L78.0459 45.122C78.3014 43.6924 78.0428 42.267 76.8975 41.2462L74.8718 43.5189ZM76.5474 43.332H74.5038V46.3764H76.5474V43.332ZM76.0074 45.0916C76.0849 44.601 76.0762 44.0479 75.8617 43.5074C75.6379 42.9434 75.239 42.5179 74.753 42.2345L73.219 44.8642C73.2047 44.8558 73.1689 44.832 73.1282 44.786C73.0863 44.7388 73.0534 44.6843 73.032 44.6303C72.9901 44.5248 73.0194 44.4953 73.0002 44.6168L76.0074 45.0916ZM74.7479 42.2315C74.1407 41.8805 73.4531 41.7717 72.8054 41.7717V44.8161C73.1427 44.8161 73.2421 44.8776 73.2241 44.8672L74.7479 42.2315ZM72.8054 41.7717C72.0548 41.7717 71.3114 41.9236 70.6487 42.3116L72.1866 44.939C72.2788 44.885 72.4605 44.8161 72.8054 44.8161V41.7717ZM70.6416 42.3157C69.931 42.7369 69.4213 43.3923 69.2442 44.2386L72.2241 44.8623C72.2241 44.862 72.2223 44.8704 72.2162 44.8844C72.2099 44.8986 72.2014 44.9133 72.1915 44.9268C72.1817 44.9401 72.1738 44.9475 72.1716 44.9494C72.1697 44.9511 72.1757 44.9455 72.1937 44.9348L70.6416 42.3157ZM69.246 44.2302C69.1621 44.62 69.1484 45.0908 69.3308 45.5692C69.5184 46.0611 69.8587 46.4173 70.2343 46.6536L71.8553 44.0766C71.9456 44.1334 72.0914 44.2641 72.1754 44.4844C72.2543 44.6912 72.2279 44.8444 72.2223 44.8707L69.246 44.2302ZM70.2005 46.6317C70.4622 46.8062 70.7661 46.9222 70.9974 47.001C71.2585 47.09 71.5671 47.1769 71.9115 47.263L72.6499 44.3095C72.3498 44.2345 72.1303 44.1707 71.9794 44.1193C71.9046 44.0938 71.8589 44.0755 71.8357 44.0653C71.807 44.0527 71.8342 44.0619 71.8892 44.0986L70.2005 46.6317Z" fill="#5B0191" mask="url(#path-124-outside-1_46_2952)"/>
<defs>
<filter id="filter0_f_46_2952" x="0.0309725" y="0.513272" width="106.485" height="96.4931" filterUnits="userSpaceOnUse" color-interpolation-filters="sRGB">
<feFlood flood-opacity="0" result="BackgroundImageFix"/>
<feBlend mode="normal" in="SourceGraphic" in2="BackgroundImageFix" result="shape"/>
<feGaussianBlur stdDeviation="7.12105" result="effect1_foregroundBlur_46_2952"/>
</filter>
<filter id="filter1_d_46_2952" x="5.61185" y="-0.691189" width="91.5904" height="91.5904" filterUnits="userSpaceOnUse" color-interpolation-filters="sRGB">
<feFlood flood-opacity="0" result="BackgroundImageFix"/>
<feColorMatrix in="SourceAlpha" type="matrix" values="0 0 0 0 0 0 0 0 0 0 0 0 0 0 0 0 0 0 127 0" result="hardAlpha"/>
<feOffset/>
<feGaussianBlur stdDeviation="9.38426"/>
<feComposite in2="hardAlpha" operator="out"/>
<feColorMatrix type="matrix" values="0 0 0 0 0.568627 0 0 0 0 0.227451 0 0 0 0 0.909804 0 0 0 0.6 0"/>
<feBlend mode="normal" in2="BackgroundImageFix" result="effect1_dropShadow_46_2952"/>
<feBlend mode="normal" in="SourceGraphic" in2="effect1_dropShadow_46_2952" result="shape"/>
</filter>
<clipPath id="paint2_diamond_46_2952_clip_path"><path d="M43.7639 52.8568L40.9207 43.2044L31.9695 40.7828C31.9695 40.7828 32.1795 54.2622 39.0258 62.1602L43.7639 52.8568Z"/></clipPath><clipPath id="paint3_diamond_46_2952_clip_path"><path d="M40.9207 43.206C40.9207 43.206 45.94 36.5374 51.8735 34.4834V22.8804C51.8735 22.8804 36.8837 32.851 31.9695 40.7829L40.9207 43.2045V43.206Z"/></clipPath><clipPath id="paint6_diamond_46_2952_clip_path"><path d="M62.8246 43.206C62.8246 43.206 57.8053 36.5374 51.8718 34.4834V22.8804C51.8718 22.8804 66.86 32.8494 71.7758 40.7829L62.8246 43.2045V43.206Z"/></clipPath><clipPath id="paint7_diamond_46_2952_clip_path"><path d="M51.8721 34.4833V57.5178L43.7641 52.8584L40.9209 43.206C40.9209 43.206 44.2907 36.6069 51.8736 34.4833H51.8721Z"/></clipPath><clipPath id="paint8_diamond_46_2952_clip_path"><path d="M51.8718 34.4833V57.5178L59.9798 52.8584L62.823 43.206C62.823 43.206 59.4532 36.6069 51.8702 34.4833H51.8718Z"/></clipPath><filter id="filter2_f_46_2952" x="57.4709" y="53.33" width="14.3392" height="14.3393" filterUnits="userSpaceOnUse" color-interpolation-filters="sRGB">
<feFlood flood-opacity="0" result="BackgroundImageFix"/>
<feBlend mode="normal" in="SourceGraphic" in2="BackgroundImageFix" result="shape"/>
<feGaussianBlur stdDeviation="2.06454" result="effect1_foregroundBlur_46_2952"/>
</filter>
<filter id="filter3_f_46_2952" x="26.1199" y="32.7897" width="15.3687" height="15.3688" filterUnits="userSpaceOnUse" color-interpolation-filters="sRGB">
<feFlood flood-opacity="0" result="BackgroundImageFix"/>
<feBlend mode="normal" in="SourceGraphic" in2="BackgroundImageFix" result="shape"/>
<feGaussianBlur stdDeviation="2.06454" result="effect1_foregroundBlur_46_2952"/>
</filter>
<filter id="filter4_f_46_2952" x="58.2431" y="27.6933" width="12.8053" height="12.8053" filterUnits="userSpaceOnUse" color-interpolation-filters="sRGB">
<feFlood flood-opacity="0" result="BackgroundImageFix"/>
<feBlend mode="normal" in="SourceGraphic" in2="BackgroundImageFix" result="shape"/>
<feGaussianBlur stdDeviation="2.06454" result="effect1_foregroundBlur_46_2952"/>
</filter>
<filter id="filter5_f_46_2952" x="34.0708" y="31.8913" width="33.0752" height="33.5968" filterUnits="userSpaceOnUse" color-interpolation-filters="sRGB">
<feFlood flood-opacity="0" result="BackgroundImageFix"/>
<feBlend mode="normal" in="SourceGraphic" in2="BackgroundImageFix" result="shape"/>
<feGaussianBlur stdDeviation="2.49058" result="effect1_foregroundBlur_46_2952"/>
</filter>
<filter id="filter6_f_46_2952" x="37.6799" y="34.2173" width="5.67791" height="5.68377" filterUnits="userSpaceOnUse" color-interpolation-filters="sRGB">
<feFlood flood-opacity="0" result="BackgroundImageFix"/>
<feBlend mode="normal" in="SourceGraphic" in2="BackgroundImageFix" result="shape"/>
<feGaussianBlur stdDeviation="1.12611" result="effect1_foregroundBlur_46_2952"/>
</filter>
<filter id="filter7_f_46_2952" x="63.7081" y="48.9756" width="5.50054" height="5.50542" filterUnits="userSpaceOnUse" color-interpolation-filters="sRGB">
<feFlood flood-opacity="0" result="BackgroundImageFix"/>
<feBlend mode="normal" in="SourceGraphic" in2="BackgroundImageFix" result="shape"/>
<feGaussianBlur stdDeviation="1.12611" result="effect1_foregroundBlur_46_2952"/>
</filter>
<filter id="filter8_f_46_2952" x="38.4996" y="52.9283" width="5.65227" height="5.65795" filterUnits="userSpaceOnUse" color-interpolation-filters="sRGB">
<feFlood flood-opacity="0" result="BackgroundImageFix"/>
<feBlend mode="normal" in="SourceGraphic" in2="BackgroundImageFix" result="shape"/>
<feGaussianBlur stdDeviation="1.12611" result="effect1_foregroundBlur_46_2952"/>
</filter>
<filter id="filter9_f_46_2952" x="20.5832" y="14.0764" width="51.2246" height="52.4004" filterUnits="userSpaceOnUse" color-interpolation-filters="sRGB">
<feFlood flood-opacity="0" result="BackgroundImageFix"/>
<feBlend mode="normal" in="SourceGraphic" in2="BackgroundImageFix" result="shape"/>
<feGaussianBlur stdDeviation="0.613237" result="effect1_foregroundBlur_46_2952"/>
</filter>
<linearGradient id="paint0_linear_46_2952" x1="12.453" y1="39.239" x2="94.4835" y2="54.8723" gradientUnits="userSpaceOnUse">
<stop stop-color="#D2B9F9"/>
<stop offset="1" stop-color="#7A46FF"/>
</linearGradient>
<radialGradient id="paint1_radial_46_2952" cx="0" cy="0" r="1" gradientUnits="userSpaceOnUse" gradientTransform="translate(44.7661 53.4438) rotate(63.435) scale(15.8854 13.2918)">
<stop stop-color="#E85CFF"/>
<stop offset="0.414319" stop-color="#5300BD"/>
<stop offset="0.852751" stop-color="#610063"/>
</radialGradient>
<linearGradient id="paint2_diamond_46_2952" x1="0" y1="0" x2="500" y2="500" gradientUnits="userSpaceOnUse">
<stop stop-color="#E85CFF"/>
<stop offset="0.541667" stop-color="#744698"/>
<stop offset="1" stop-color="#430063"/>
</linearGradient>
<linearGradient id="paint3_diamond_46_2952" x1="0" y1="0" x2="500" y2="500" gradientUnits="userSpaceOnUse">
<stop stop-color="#E85CFF"/>
<stop offset="0.473958" stop-color="#6936D6"/>
<stop offset="1" stop-color="#9C22C7"/>
</linearGradient>
<radialGradient id="paint4_radial_46_2952" cx="0" cy="0" r="1" gradientUnits="userSpaceOnUse" gradientTransform="translate(64.6887 62.2467) rotate(-157.257) scale(16.5784 27.8575)">
<stop stop-color="#E85CFF"/>
<stop offset="0.356211" stop-color="#6C27DD"/>
<stop offset="0.763504" stop-color="#57009C"/>
</radialGradient>
<radialGradient id="paint5_radial_46_2952" cx="0" cy="0" r="1" gradientUnits="userSpaceOnUse" gradientTransform="translate(64.2253 61.1656) rotate(-70.7873) scale(21.5882 38.4556)">
<stop stop-color="#E85CFF"/>
<stop offset="0.338542" stop-color="#5E35D5"/>
<stop offset="1" stop-color="#4E009C"/>
</radialGradient>
<linearGradient id="paint6_diamond_46_2952" x1="0" y1="0" x2="500" y2="500" gradientUnits="userSpaceOnUse">
<stop stop-color="#E85CFF"/>
<stop offset="0.447917" stop-color="#6C27DD"/>
<stop offset="1" stop-color="#61009C"/>
</linearGradient>
<linearGradient id="paint7_diamond_46_2952" x1="0" y1="0" x2="500" y2="500" gradientUnits="userSpaceOnUse">
<stop stop-color="#E85CFF"/>
<stop offset="0.666667" stop-color="#7C2EE0"/>
<stop offset="1" stop-color="#9200B6"/>
</linearGradient>
<linearGradient id="paint8_diamond_46_2952" x1="0" y1="0" x2="500" y2="500" gradientUnits="userSpaceOnUse">
<stop stop-color="#F094FF"/>
<stop offset="1" stop-color="#B636E3"/>
</linearGradient>
<linearGradient id="paint9_linear_46_2952" x1="48.936" y1="34.4478" x2="56.0401" y2="52.826" gradientUnits="userSpaceOnUse">
<stop stop-color="white" stop-opacity="0.4"/>
<stop offset="1" stop-color="white" stop-opacity="0"/>
</linearGradient>
<linearGradient id="paint10_linear_46_2952" x1="40.4419" y1="43.2508" x2="48.6271" y2="66.8026" gradientUnits="userSpaceOnUse">
<stop stop-color="white" stop-opacity="0.77"/>
<stop offset="0.642325" stop-color="white" stop-opacity="0"/>
</linearGradient>
<linearGradient id="paint11_linear_46_2952" x1="51.8703" y1="22.3244" x2="31.9478" y2="40.7798" gradientUnits="userSpaceOnUse">
<stop stop-color="#DADADA"/>
<stop offset="1" stop-color="white" stop-opacity="0"/>
</linearGradient>
<linearGradient id="paint12_linear_46_2952" x1="51.8703" y1="22.3244" x2="31.9478" y2="40.7798" gradientUnits="userSpaceOnUse">
<stop stop-color="#DADADA"/>
<stop offset="1" stop-color="white" stop-opacity="0"/>
</linearGradient>
<radialGradient id="paint13_radial_46_2952" cx="0" cy="0" r="1" gradientUnits="userSpaceOnUse" gradientTransform="translate(58.2957 64.8706) rotate(90) scale(2.70884 6.42385)">
<stop stop-color="white"/>
<stop offset="1" stop-color="white" stop-opacity="0"/>
</radialGradient>
<radialGradient id="paint14_radial_46_2952" cx="0" cy="0" r="1" gradientUnits="userSpaceOnUse" gradientTransform="translate(57.3482 38.8153) rotate(90) scale(4.39078 5.47638)">
<stop stop-color="white"/>
<stop offset="1" stop-color="white" stop-opacity="0"/>
</radialGradient>
<radialGradient id="paint15_radial_46_2952" cx="0" cy="0" r="1" gradientUnits="userSpaceOnUse" gradientTransform="translate(36.4451 41.8742) rotate(90.5567) scale(1.91719 6.44289)">
<stop stop-color="white"/>
<stop offset="1" stop-color="white" stop-opacity="0"/>
</radialGradient>
</defs>
</svg>
