<svg width="107" height="97" viewBox="0 0 107 97" fill="none" xmlns="http://www.w3.org/2000/svg">
<g filter="url(#filter0_f_46_2951)">
<path fill-rule="evenodd" clip-rule="evenodd" d="M61.2348 15.7221C67.3735 15.5445 74.2393 13.8375 79.2697 17.3614C84.3049 20.8886 84.9075 27.9848 86.9983 33.7696C89.153 39.7311 94.627 46.2107 91.7361 51.8534C88.5973 57.9798 79.5448 57.4362 73.3449 60.4189C69.5838 62.2283 65.5502 63.2826 62.3663 65.9827C56.5296 70.9325 54.6852 81.3886 47.1394 82.6425C40.5254 83.7416 34.0087 77.1973 31.021 71.1915C28.0964 65.3125 34.5282 57.8177 31.8151 51.838C28.5358 44.6105 16.628 43.419 14.9042 35.6703C13.3115 28.5106 17.3966 19.4748 23.8355 15.9681C30.712 12.2231 38.9712 18.3521 46.7982 18.3007C51.7707 18.268 56.2642 15.8659 61.2348 15.7221Z" fill="url(#paint0_linear_46_2951)"/>
</g>
<g filter="url(#filter1_d_46_2951)">
<path d="M52.017 68.4501L39.4613 63.1549L44.0923 54.0604L52.017 58.6159V68.4501Z" fill="url(#paint1_radial_46_2951)"/>
<g clip-path="url(#paint2_diamond_46_2951_clip_path)" data-figma-skip-parse="true"><g transform="matrix(0.00226419 0.0209061 -0.0229486 0.00248541 37.3738 41.2752)"><rect x="0" y="0" width="1087.99" height="326.696" fill="url(#paint2_diamond_46_2951)" opacity="1" shape-rendering="crispEdges"/><rect x="0" y="0" width="1087.99" height="326.696" transform="scale(1 -1)" fill="url(#paint2_diamond_46_2951)" opacity="1" shape-rendering="crispEdges"/><rect x="0" y="0" width="1087.99" height="326.696" transform="scale(-1 1)" fill="url(#paint2_diamond_46_2951)" opacity="1" shape-rendering="crispEdges"/><rect x="0" y="0" width="1087.99" height="326.696" transform="scale(-1)" fill="url(#paint2_diamond_46_2951)" opacity="1" shape-rendering="crispEdges"/></g></g><path d="M44.0925 54.0604L41.3135 44.6262L32.5647 42.2594C32.5647 42.2594 32.77 55.434 39.4614 63.1534L44.0925 54.0604Z" data-figma-gradient-fill="{&#34;type&#34;:&#34;GRADIENT_DIAMOND&#34;,&#34;stops&#34;:[{&#34;color&#34;:{&#34;r&#34;:0.69166666269302368,&#34;g&#34;:0.95191115140914917,&#34;b&#34;:1.0,&#34;a&#34;:1.0},&#34;position&#34;:0.0},{&#34;color&#34;:{&#34;r&#34;:0.13725490868091583,&#34;g&#34;:0.85882353782653809,&#34;b&#34;:0.99215686321258545,&#34;a&#34;:1.0},&#34;position&#34;:9.9999997473787516e-05},{&#34;color&#34;:{&#34;r&#34;:0.25882354378700256,&#34;g&#34;:0.0,&#34;b&#34;:0.72156864404678345,&#34;a&#34;:1.0},&#34;position&#34;:0.44791665673255920},{&#34;color&#34;:{&#34;r&#34;:0.13725490868091583,&#34;g&#34;:0.0,&#34;b&#34;:0.38823530077934265,&#34;a&#34;:1.0},&#34;position&#34;:1.0}],&#34;stopsVar&#34;:[],&#34;transform&#34;:{&#34;m00&#34;:4.5283861160278320,&#34;m01&#34;:-45.897224426269531,&#34;m02&#34;:58.058170318603516,&#34;m10&#34;:41.812110900878906,&#34;m11&#34;:4.9708189964294434,&#34;m12&#34;:17.883760452270508},&#34;opacity&#34;:1.0,&#34;blendMode&#34;:&#34;NORMAL&#34;,&#34;visible&#34;:true}"/>
<g clip-path="url(#paint3_diamond_46_2951_clip_path)" data-figma-skip-parse="true"><g transform="matrix(-0.0216608 0.0193211 -0.00902477 -0.0398388 54.2043 22.7088)"><rect x="0" y="0" width="1039.07" height="431.49" fill="url(#paint3_diamond_46_2951)" opacity="1" shape-rendering="crispEdges"/><rect x="0" y="0" width="1039.07" height="431.49" transform="scale(1 -1)" fill="url(#paint3_diamond_46_2951)" opacity="1" shape-rendering="crispEdges"/><rect x="0" y="0" width="1039.07" height="431.49" transform="scale(-1 1)" fill="url(#paint3_diamond_46_2951)" opacity="1" shape-rendering="crispEdges"/><rect x="0" y="0" width="1039.07" height="431.49" transform="scale(-1)" fill="url(#paint3_diamond_46_2951)" opacity="1" shape-rendering="crispEdges"/></g></g><path d="M41.3135 44.6278C41.3135 44.6278 46.2193 38.1099 52.0186 36.1023V24.7617C52.0186 24.7617 37.3678 34.5068 32.5647 42.2594L41.3135 44.6262V44.6278Z" data-figma-gradient-fill="{&#34;type&#34;:&#34;GRADIENT_DIAMOND&#34;,&#34;stops&#34;:[{&#34;color&#34;:{&#34;r&#34;:0.13725490868091583,&#34;g&#34;:0.85882353782653809,&#34;b&#34;:0.99215686321258545,&#34;a&#34;:1.0},&#34;position&#34;:0.0},{&#34;color&#34;:{&#34;r&#34;:0.21176470816135406,&#34;g&#34;:0.34509804844856262,&#34;b&#34;:0.83921569585800171,&#34;a&#34;:1.0},&#34;position&#34;:0.47395834326744080},{&#34;color&#34;:{&#34;r&#34;:0.24313725531101227,&#34;g&#34;:0.13333334028720856,&#34;b&#34;:0.78039216995239258,&#34;a&#34;:1.0},&#34;position&#34;:1.0}],&#34;stopsVar&#34;:[],&#34;transform&#34;:{&#34;m00&#34;:-43.321567535400391,&#34;m01&#34;:-18.049537658691406,&#34;m02&#34;:84.889808654785156,&#34;m10&#34;:38.642242431640625,&#34;m11&#34;:-79.677619934082031,&#34;m12&#34;:43.226524353027344},&#34;opacity&#34;:1.0,&#34;blendMode&#34;:&#34;NORMAL&#34;,&#34;visible&#34;:true}"/>
<path d="M52.017 68.4501L64.5742 63.1549L59.9432 54.0604L52.017 58.6159V68.4501Z" fill="url(#paint4_radial_46_2951)"/>
<path d="M59.9435 54.0604L62.7224 44.6262L71.4712 42.2594C71.4712 42.2594 71.266 55.434 64.5745 63.1534L59.9435 54.0604Z" fill="url(#paint5_radial_46_2951)"/>
<g clip-path="url(#paint6_diamond_46_2951_clip_path)" data-figma-skip-parse="true"><g transform="matrix(-0.0207551 -0.0175098 0.0384012 -0.0351372 72.7706 42.5583)"><rect x="0" y="0" width="1027.07" height="299.915" fill="url(#paint6_diamond_46_2951)" opacity="1" shape-rendering="crispEdges"/><rect x="0" y="0" width="1027.07" height="299.915" transform="scale(1 -1)" fill="url(#paint6_diamond_46_2951)" opacity="1" shape-rendering="crispEdges"/><rect x="0" y="0" width="1027.07" height="299.915" transform="scale(-1 1)" fill="url(#paint6_diamond_46_2951)" opacity="1" shape-rendering="crispEdges"/><rect x="0" y="0" width="1027.07" height="299.915" transform="scale(-1)" fill="url(#paint6_diamond_46_2951)" opacity="1" shape-rendering="crispEdges"/></g></g><path d="M62.7221 44.6278C62.7221 44.6278 57.8163 38.1099 52.017 36.1023V24.7617C52.017 24.7617 66.6663 34.5053 71.4709 42.2594L62.7221 44.6262V44.6278Z" data-figma-gradient-fill="{&#34;type&#34;:&#34;GRADIENT_DIAMOND&#34;,&#34;stops&#34;:[{&#34;color&#34;:{&#34;r&#34;:0.69166666269302368,&#34;g&#34;:0.95191115140914917,&#34;b&#34;:1.0,&#34;a&#34;:1.0},&#34;position&#34;:0.0},{&#34;color&#34;:{&#34;r&#34;:0.13725490868091583,&#34;g&#34;:0.85882353782653809,&#34;b&#34;:0.99215686321258545,&#34;a&#34;:1.0},&#34;position&#34;:9.9999997473787516e-05},{&#34;color&#34;:{&#34;r&#34;:0.23921568691730499,&#34;g&#34;:0.15294118225574493,&#34;b&#34;:0.86666667461395264,&#34;a&#34;:1.0},&#34;position&#34;:0.44791665673255920},{&#34;color&#34;:{&#34;r&#34;:0.23921568691730499,&#34;g&#34;:0.0,&#34;b&#34;:0.61176472902297974,&#34;a&#34;:1.0},&#34;position&#34;:1.0}],&#34;stopsVar&#34;:[],&#34;transform&#34;:{&#34;m00&#34;:-41.510219573974609,&#34;m01&#34;:76.802467346191406,&#34;m02&#34;:55.124477386474609,&#34;m10&#34;:-35.019531250,&#34;m11&#34;:-70.274406433105469,&#34;m12&#34;:95.205238342285156},&#34;opacity&#34;:1.0,&#34;blendMode&#34;:&#34;NORMAL&#34;,&#34;visible&#34;:true}"/>
<g clip-path="url(#paint7_diamond_46_2951_clip_path)" data-figma-skip-parse="true"><g transform="matrix(0.00301892 0.0208306 -0.0263606 0.00382038 48.9966 37.7279)"><rect x="0" y="0" width="1022.47" height="413.543" fill="url(#paint7_diamond_46_2951)" opacity="1" shape-rendering="crispEdges"/><rect x="0" y="0" width="1022.47" height="413.543" transform="scale(1 -1)" fill="url(#paint7_diamond_46_2951)" opacity="1" shape-rendering="crispEdges"/><rect x="0" y="0" width="1022.47" height="413.543" transform="scale(-1 1)" fill="url(#paint7_diamond_46_2951)" opacity="1" shape-rendering="crispEdges"/><rect x="0" y="0" width="1022.47" height="413.543" transform="scale(-1)" fill="url(#paint7_diamond_46_2951)" opacity="1" shape-rendering="crispEdges"/></g></g><path d="M52.0173 36.1022V58.6159L44.0926 54.0618L41.3137 44.6277C41.3137 44.6277 44.6074 38.1777 52.0188 36.1022H52.0173Z" data-figma-gradient-fill="{&#34;type&#34;:&#34;GRADIENT_DIAMOND&#34;,&#34;stops&#34;:[{&#34;color&#34;:{&#34;r&#34;:0.42083331942558289,&#34;g&#34;:0.93944996595382690,&#34;b&#34;:1.0,&#34;a&#34;:1.0},&#34;position&#34;:0.0},{&#34;color&#34;:{&#34;r&#34;:0.17647059261798859,&#34;g&#34;:0.60000002384185791,&#34;b&#34;:0.96470588445663452,&#34;a&#34;:1.0},&#34;position&#34;:0.14983001351356506},{&#34;color&#34;:{&#34;r&#34;:0.23529411852359772,&#34;g&#34;:0.18039216101169586,&#34;b&#34;:0.87843137979507446,&#34;a&#34;:1.0},&#34;position&#34;:0.66666668653488159},{&#34;color&#34;:{&#34;r&#34;:0.25882354378700256,&#34;g&#34;:0.0,&#34;b&#34;:0.71372550725936890,&#34;a&#34;:1.0},&#34;position&#34;:1.0}],&#34;stopsVar&#34;:[],&#34;transform&#34;:{&#34;m00&#34;:6.0378484725952148,&#34;m01&#34;:-52.721271514892578,&#34;m02&#34;:72.338363647460938,&#34;m10&#34;:41.661159515380859,&#34;m11&#34;:7.6407642364501953,&#34;m12&#34;:13.076965332031250},&#34;opacity&#34;:1.0,&#34;blendMode&#34;:&#34;NORMAL&#34;,&#34;visible&#34;:true}"/>
<g clip-path="url(#paint8_diamond_46_2951_clip_path)" data-figma-skip-parse="true"><g transform="matrix(0.00369818 0.00807562 -0.009025 0.00413294 53.6004 47.3885)"><rect x="0" y="0" width="1631.54" height="1357.76" fill="url(#paint8_diamond_46_2951)" opacity="1" shape-rendering="crispEdges"/><rect x="0" y="0" width="1631.54" height="1357.76" transform="scale(1 -1)" fill="url(#paint8_diamond_46_2951)" opacity="1" shape-rendering="crispEdges"/><rect x="0" y="0" width="1631.54" height="1357.76" transform="scale(-1 1)" fill="url(#paint8_diamond_46_2951)" opacity="1" shape-rendering="crispEdges"/><rect x="0" y="0" width="1631.54" height="1357.76" transform="scale(-1)" fill="url(#paint8_diamond_46_2951)" opacity="1" shape-rendering="crispEdges"/></g></g><path d="M52.017 36.1022V58.6159L59.9417 54.0618L62.7206 44.6277C62.7206 44.6277 59.427 38.1777 52.0155 36.1022H52.017Z" data-figma-gradient-fill="{&#34;type&#34;:&#34;GRADIENT_DIAMOND&#34;,&#34;stops&#34;:[{&#34;color&#34;:{&#34;r&#34;:0.13333334028720856,&#34;g&#34;:0.90588235855102539,&#34;b&#34;:0.99607843160629272,&#34;a&#34;:1.0},&#34;position&#34;:0.0},{&#34;color&#34;:{&#34;r&#34;:0.17647059261798859,&#34;g&#34;:0.60000002384185791,&#34;b&#34;:0.96470588445663452,&#34;a&#34;:1.0},&#34;position&#34;:0.18229167163372040},{&#34;color&#34;:{&#34;r&#34;:0.23137255012989044,&#34;g&#34;:0.21176470816135406,&#34;b&#34;:0.89019608497619629,&#34;a&#34;:1.0},&#34;position&#34;:1.0}],&#34;stopsVar&#34;:[],&#34;transform&#34;:{&#34;m00&#34;:7.3963670730590820,&#34;m01&#34;:-18.049993515014648,&#34;m02&#34;:58.927249908447266,&#34;m10&#34;:16.151247024536133,&#34;m11&#34;:8.2658863067626953,&#34;m12&#34;:35.179920196533203},&#34;opacity&#34;:1.0,&#34;blendMode&#34;:&#34;NORMAL&#34;,&#34;visible&#34;:true}"/>
<g style="mix-blend-mode:soft-light">
<path d="M41.3137 44.6277C41.3137 44.6277 49.2384 52.4814 59.9435 54.0618L61.4545 48.9342C61.4545 48.9342 54.0777 43.325 52.0188 36.1022C50.8822 36.4237 49.5629 36.9173 48.1848 37.6932C44.4081 39.82 42.3175 42.8707 41.3137 44.6277Z" fill="white"/>
</g>
<path opacity="0.8" d="M41.3137 44.6277C41.3137 44.6277 49.2384 52.4814 59.9435 54.0618L61.4545 48.9342C61.4545 48.9342 54.0777 43.325 52.0188 36.1022C50.8822 36.4237 49.5629 36.9173 48.1848 37.6932C44.4081 39.82 42.3175 42.8707 41.3137 44.6277Z" fill="url(#paint9_linear_46_2951)"/>
<g style="mix-blend-mode:soft-light">
<path d="M43.3119 51.4143C43.3119 51.4143 51.9295 55.7027 57.6171 55.3978L55.5356 56.5933C55.5356 56.5933 51.6744 57.345 47.3679 55.9442L44.0908 54.0619L43.3104 51.4143H43.3119Z" fill="white"/>
</g>
<g style="mix-blend-mode:soft-light">
<path d="M59.2566 43.4262C59.2566 43.4262 62.0702 40.3242 64.5744 34.5339C64.5744 34.5339 69.687 38.9672 71.4712 42.2609C71.4712 42.2609 71.2764 49.0127 69.6206 53.4052C69.6206 53.4052 70.5111 49.8776 59.2566 43.4277V43.4262Z" fill="white"/>
</g>
<path opacity="0.2" d="M59.2566 43.4262C59.2566 43.4262 62.0702 40.3242 64.5744 34.5339C64.5744 34.5339 69.687 38.9672 71.4712 42.2609C71.4712 42.2609 71.2764 49.0127 69.6206 53.4052C69.6206 53.4052 70.5111 49.8776 59.2566 43.4277V43.4262Z" fill="white"/>
<g style="mix-blend-mode:soft-light" opacity="0.5">
<path d="M52.0171 68.45C52.0171 68.45 39.9414 57.5079 41.312 44.6277C41.312 44.6277 37.4357 50.6323 39.4599 63.1548L52.0171 68.45Z" fill="white"/>
</g>
<path d="M52.0171 68.45C52.0171 68.45 39.9414 57.5079 41.312 44.6277C41.312 44.6277 37.4357 50.6323 39.4599 63.1548L52.0171 68.45Z" fill="url(#paint10_linear_46_2951)"/>
<g style="mix-blend-mode:soft-light">
<path d="M32.5647 42.2594C32.5647 42.2594 47.4117 26.8599 49.3077 29.7022C49.3077 29.7022 51.0239 30.9037 52.0186 36.1008V24.7617C52.0186 24.7617 37.7799 34.0253 32.5647 42.2594Z" fill="url(#paint11_linear_46_2951)"/>
</g>
<path opacity="0.5" d="M32.5647 42.2594C32.5647 42.2594 47.5626 26.7844 49.3077 29.7022C49.3077 29.7022 51.0239 30.9037 52.0186 36.1008V24.7617C52.0186 24.7617 37.7799 34.0253 32.5647 42.2594Z" fill="url(#paint12_linear_46_2951)"/>
<g style="mix-blend-mode:soft-light">
<path d="M59.9435 54.0604L64.5745 60.5813C64.5745 60.5813 70.4418 54.406 71.4712 42.2594C71.3912 45.2783 71.0018 47.8414 70.5792 49.8414C70.0886 52.16 69.5225 53.8536 69.3097 54.4725C68.6833 56.2899 67.85 58.6522 66.0508 61.2484C65.4772 62.0756 64.9473 62.7217 64.576 63.1534C63.0318 60.1224 61.4877 57.0914 59.945 54.0604H59.9435Z" fill="white"/>
</g>
<path opacity="0.6" d="M59.9435 54.0604L64.5745 60.5813C64.5745 60.5813 70.4418 54.406 71.4712 42.2594C71.3912 45.2783 71.0018 47.8414 70.5792 49.8414C70.0886 52.16 69.5225 53.8536 69.3097 54.4725C68.6833 56.2899 67.85 58.6522 66.0508 61.2484C65.4772 62.0756 64.9473 62.7217 64.576 63.1534C63.0318 60.1224 61.4877 57.0914 59.945 54.0604H59.9435Z" fill="white"/>
<g style="mix-blend-mode:soft-light">
<path d="M64.5742 63.1548L52.017 68.45C52.017 68.45 56.648 64.0122 64.5742 63.1548Z" fill="white"/>
</g>
<path opacity="0.6" d="M64.5742 63.1548L52.017 68.45C52.017 68.45 56.648 64.0122 64.5742 63.1548Z" fill="url(#paint13_radial_46_2951)"/>
<g style="mix-blend-mode:soft-light">
<path d="M52.017 36.1022C52.017 36.1022 58.4322 37.2509 62.7221 44.6277C62.7221 44.6277 60.6979 35.2268 52.017 36.1022Z" fill="white"/>
</g>
<path opacity="0.9" d="M52.017 36.1022C52.017 36.1022 58.4322 37.2509 62.7221 44.6277C62.7221 44.6277 60.6979 35.2268 52.017 36.1022Z" fill="url(#paint14_radial_46_2951)"/>
<g style="mix-blend-mode:soft-light">
<path d="M41.3135 44.6277L32.5647 42.2608C32.5647 42.2608 36.6372 40.9189 41.3135 44.6277Z" fill="white"/>
</g>
<path opacity="0.5" d="M41.3135 44.6277L32.5647 42.2608C32.5647 42.2608 36.6372 40.9189 41.3135 44.6277Z" fill="url(#paint15_radial_46_2951)"/>
<path d="M64.4971 58.5585L65.0014 61.026L67.4689 61.5303L65.0014 62.0347L64.4971 64.5021L63.9927 62.0347L61.5253 61.5303L63.9927 61.026L64.4971 58.5585Z" fill="white"/>
<g filter="url(#filter2_f_46_2951)">
<path d="M64.4971 58.5585L65.0014 61.026L67.4689 61.5303L65.0014 62.0347L64.4971 64.5021L63.9927 62.0347L61.5253 61.5303L63.9927 61.026L64.4971 58.5585Z" fill="white"/>
</g>
<path d="M34.3581 38.4827L34.9478 41.3679L37.8331 41.9576L34.9478 42.5473L34.3581 45.4325L33.7684 42.5473L30.8832 41.9576L33.7684 41.3679L34.3581 38.4827Z" fill="white"/>
<g filter="url(#filter3_f_46_2951)">
<path d="M34.3581 38.4827L34.9478 41.3679L37.8331 41.9576L34.9478 42.5473L34.3581 45.4325L33.7684 42.5473L30.8832 41.9576L33.7684 41.3679L34.3581 38.4827Z" fill="white"/>
</g>
<path d="M64.5022 33.5015L64.8793 35.3465L66.7243 35.7236L64.8793 36.1007L64.5022 37.9457L64.1251 36.1007L62.28 35.7236L64.1251 35.3465L64.5022 33.5015Z" fill="white"/>
<g filter="url(#filter4_f_46_2951)">
<path d="M64.5022 33.5015L64.8793 35.3465L66.7243 35.7236L64.8793 36.1007L64.5022 37.9457L64.1251 36.1007L62.28 35.7236L64.1251 35.3465L64.5022 33.5015Z" fill="white"/>
</g>
<g style="mix-blend-mode:overlay" filter="url(#filter5_f_46_2951)">
<g style="mix-blend-mode:lighten">
<path d="M46.1318 38.6806C46.1078 38.5743 46.1747 38.4663 46.2811 38.4423C46.3874 38.4183 46.4955 38.4851 46.5195 38.5914C46.5436 38.6977 46.4767 38.8058 46.3703 38.8298C46.2639 38.8538 46.1559 38.7869 46.1318 38.6806Z" fill="#FFFBFC"/>
</g>
<g style="mix-blend-mode:lighten">
<path d="M61.4796 52.2324C61.4419 52.0695 61.5448 51.9067 61.7078 51.8707C61.8707 51.8329 62.0337 51.9358 62.0697 52.0987C62.1075 52.2616 62.0045 52.4245 61.8416 52.4605C61.6786 52.4982 61.5156 52.3953 61.4796 52.2324Z" fill="#FFFBFC"/>
</g>
<g style="mix-blend-mode:lighten">
<path d="M42.5912 41.3382C42.5517 41.1616 42.6615 40.985 42.8382 40.9456C43.0149 40.9061 43.1916 41.0159 43.231 41.1925C43.2705 41.3691 43.1607 41.5457 42.984 41.5851C42.8073 41.6246 42.6306 41.5148 42.5912 41.3382Z" fill="#FFFBFC"/>
</g>
<g style="mix-blend-mode:lighten">
<path d="M47.0238 43.2431C47.1697 43.4249 47.1422 43.6907 46.9604 43.8381C46.7785 43.9839 46.5126 43.9564 46.3651 43.7747C46.2193 43.5929 46.2467 43.3271 46.4286 43.1797C46.6104 43.0339 46.8763 43.0614 47.0238 43.2431Z" fill="#FFFBFC"/>
</g>
<g style="mix-blend-mode:lighten">
<path d="M48.5523 42.787C48.6758 42.9413 48.6518 43.1659 48.4974 43.2894C48.343 43.4129 48.1183 43.3889 47.9948 43.2345C47.8712 43.0802 47.8953 42.8556 48.0497 42.7321C48.204 42.6087 48.4288 42.6327 48.5523 42.787Z" fill="#FFFBFC"/>
</g>
<g style="mix-blend-mode:lighten">
<path d="M48.609 40.5462C48.6707 40.6234 48.6587 40.7383 48.5815 40.8C48.5043 40.8617 48.3894 40.8497 48.3276 40.7725C48.2659 40.6954 48.2779 40.5805 48.3551 40.5188C48.4323 40.4571 48.5472 40.4691 48.609 40.5462Z" fill="#FFFBFC"/>
</g>
<g style="mix-blend-mode:lighten">
<path d="M53.0026 45.8526C52.9768 45.748 53.042 45.6417 53.1467 45.616C53.2513 45.5902 53.3577 45.6554 53.3834 45.76C53.4091 45.8646 53.3439 45.9709 53.2393 45.9966C53.1347 46.0223 53.0283 45.9572 53.0026 45.8526Z" fill="#FFFBFC"/>
</g>
<g style="mix-blend-mode:lighten">
<path d="M49.7498 42.6053C49.7206 42.4836 49.7961 42.3601 49.9179 42.331C50.0397 42.3018 50.1632 42.3773 50.1924 42.499C50.2216 42.6207 50.1461 42.7442 50.0243 42.7733C49.9025 42.8025 49.779 42.727 49.7498 42.6053Z" fill="#FFFBFC"/>
</g>
<g style="mix-blend-mode:lighten">
<path d="M39.4991 51.5324C39.4442 51.306 39.5848 51.078 39.8113 51.0231C40.0377 50.9682 40.2659 51.1088 40.3208 51.3352C40.3757 51.5615 40.235 51.7895 40.0086 51.8444C39.7821 51.8993 39.554 51.7587 39.4991 51.5324Z" fill="#FFFBFC"/>
</g>
<g style="mix-blend-mode:lighten">
<path d="M57.7659 60.9547C57.9254 60.9256 58.0798 61.0301 58.109 61.1896C58.1382 61.3491 58.0335 61.5034 57.874 61.5325C57.7144 61.5617 57.56 61.4571 57.5309 61.2976C57.5017 61.1382 57.6064 60.9839 57.7659 60.9547Z" fill="#FFFBFC"/>
</g>
<g style="mix-blend-mode:lighten">
<path d="M48.9643 61.0829C49.0673 61.064 49.165 61.1309 49.1839 61.2338C49.2028 61.3367 49.1359 61.4344 49.0329 61.4533C48.93 61.4721 48.8322 61.4052 48.8134 61.3024C48.7945 61.1995 48.8614 61.1018 48.9643 61.0829Z" fill="#FFFBFC"/>
</g>
<g style="mix-blend-mode:lighten">
<path d="M49.3638 58.8676C49.5834 58.8264 49.7927 58.9704 49.8339 59.1899C49.8751 59.4094 49.7309 59.6186 49.5114 59.6597C49.2918 59.7009 49.0825 59.5568 49.0413 59.3374C49.0002 59.1179 49.1443 58.9087 49.3638 58.8676Z" fill="#FFFBFC"/>
</g>
<g style="mix-blend-mode:lighten">
<path d="M47.9554 57.7258C48.1647 57.6864 48.3671 57.8253 48.4066 58.0344C48.446 58.2436 48.3071 58.446 48.0978 58.4854C47.8885 58.5248 47.686 58.3859 47.6466 58.1768C47.6071 57.9676 47.7461 57.7652 47.9554 57.7258Z" fill="#FFFBFC"/>
</g>
<g style="mix-blend-mode:lighten">
<path d="M48.2488 56.2976C48.4255 56.265 48.597 56.3816 48.6296 56.5582C48.6622 56.7348 48.5455 56.9063 48.3688 56.9388C48.1921 56.9714 48.0206 56.8548 47.988 56.6782C47.9554 56.5016 48.0721 56.3302 48.2488 56.2976Z" fill="#FFFBFC"/>
</g>
<g style="mix-blend-mode:lighten">
<path d="M46.4663 55.2843C46.5555 55.2672 46.643 55.3272 46.6585 55.4163C46.6756 55.5055 46.6156 55.5929 46.5264 55.6084C46.4372 55.6255 46.3497 55.5655 46.3342 55.4763C46.3171 55.3872 46.3771 55.2997 46.4663 55.2843Z" fill="#FFFBFC"/>
</g>
<g style="mix-blend-mode:lighten">
<path d="M53.8686 42.6275C53.9904 42.7801 53.9664 43.0013 53.8155 43.123C53.6628 43.2448 53.4415 43.2208 53.3197 43.0699C53.1979 42.9173 53.2219 42.6961 53.3729 42.5743C53.5255 42.4526 53.7468 42.4766 53.8686 42.6275Z" fill="#FFFBFC"/>
</g>
<path d="M56.6411 39.099C56.708 39.1813 56.6943 39.3013 56.6119 39.3682C56.5296 39.4351 56.4095 39.4214 56.3426 39.3391C56.2757 39.2568 56.2894 39.1367 56.3717 39.0699C56.4541 39.003 56.5742 39.0167 56.6411 39.099Z" fill="#FFFBFC"/>
</g>
<g style="mix-blend-mode:lighten">
<path d="M61.4797 52.2318C61.442 52.0689 61.5449 51.906 61.7079 51.87C61.8709 51.8323 62.0338 51.9352 62.0699 52.0981C62.1076 52.261 62.0047 52.4239 61.8417 52.4599C61.6787 52.4976 61.5158 52.3947 61.4797 52.2318Z" fill="#FFFBFC"/>
</g>
<g style="mix-blend-mode:lighten">
<path d="M42.5919 41.3375C42.5524 41.1609 42.6622 40.9843 42.8389 40.9448C43.0156 40.9054 43.1923 41.0151 43.2318 41.1918C43.2712 41.3684 43.1614 41.545 42.9847 41.5844C42.808 41.6238 42.6313 41.5141 42.5919 41.3375Z" fill="#FFFBFC"/>
</g>
<g style="mix-blend-mode:lighten">
<path d="M47.024 43.2438C47.1698 43.4256 47.1423 43.6913 46.9605 43.8388C46.7787 43.9845 46.5128 43.9571 46.3652 43.7753C46.2194 43.5936 46.2469 43.3278 46.4287 43.1804C46.6105 43.0346 46.8764 43.0621 47.024 43.2438Z" fill="#FFFBFC"/>
</g>
<g style="mix-blend-mode:lighten">
<path d="M50.4632 45.2169C50.5867 45.3712 50.5627 45.5958 50.4083 45.7193C50.2539 45.8427 50.0292 45.8187 49.9056 45.6644C49.7821 45.5101 49.8061 45.2855 49.9605 45.162C50.1149 45.0386 50.3397 45.0626 50.4632 45.2169Z" fill="#FFFBFC"/>
</g>
<g style="mix-blend-mode:lighten">
<path d="M48.609 40.5455C48.6707 40.6226 48.6587 40.7375 48.5815 40.7992C48.5043 40.861 48.3894 40.849 48.3276 40.7718C48.2659 40.6947 48.2779 40.5798 48.3551 40.518C48.4323 40.4563 48.5472 40.4683 48.609 40.5455Z" fill="#FFFBFC"/>
</g>
<g style="mix-blend-mode:lighten">
<path d="M53.0021 45.8533C52.9763 45.7487 53.0415 45.6424 53.1462 45.6166C53.2508 45.5909 53.3572 45.6561 53.3829 45.7607C53.4086 45.8653 53.3435 45.9716 53.2388 45.9973C53.1342 46.023 53.0278 45.9579 53.0021 45.8533Z" fill="#FFFBFC"/>
</g>
<g style="mix-blend-mode:lighten">
<path d="M49.7505 42.605C49.7214 42.4833 49.7968 42.3598 49.9186 42.3307C50.0404 42.3015 50.164 42.377 50.1931 42.4987C50.2223 42.6204 50.1468 42.7439 50.025 42.773C49.9032 42.8022 49.7797 42.7267 49.7505 42.605Z" fill="#FFFBFC"/>
</g>
<g style="mix-blend-mode:lighten">
<path d="M47.4953 45.6852C47.4541 45.5121 47.5605 45.3389 47.7338 45.296C47.907 45.2549 48.0803 45.3612 48.1232 45.5344C48.1643 45.7075 48.058 45.8807 47.8847 45.9236C47.7115 45.9647 47.5382 45.8584 47.4953 45.6852Z" fill="#FFFBFC"/>
</g>
<g style="mix-blend-mode:lighten">
<path d="M46.4123 48.1324C46.3848 48.0209 46.4535 47.9112 46.565 47.8837C46.6765 47.8563 46.7863 47.9249 46.8137 48.0363C46.8412 48.1478 46.7726 48.2575 46.661 48.285C46.5495 48.3124 46.4397 48.2438 46.4123 48.1324Z" fill="#FFFBFC"/>
</g>
<g style="mix-blend-mode:lighten">
<path d="M40.6464 44.9271C40.5897 44.6905 40.7356 44.4521 40.9723 44.3956C41.209 44.339 41.4475 44.4847 41.5041 44.7213C41.5607 44.958 41.4149 45.1963 41.1782 45.2529C40.9414 45.3095 40.703 45.1637 40.6464 44.9271Z" fill="#FFFBFC"/>
</g>
<g style="mix-blend-mode:lighten">
<path d="M40.6468 44.9277C40.5902 44.6911 40.736 44.4527 40.9728 44.3962C41.2095 44.3396 41.448 44.4853 41.5046 44.7219C41.5612 44.9586 41.4154 45.1969 41.1786 45.2535C40.9419 45.3101 40.7035 45.1643 40.6468 44.9277Z" fill="#FFFBFC"/>
</g>
<g style="mix-blend-mode:lighten">
<path d="M39.4991 51.5324C39.4442 51.3061 39.5848 51.078 39.8113 51.0232C40.0377 50.9683 40.2659 51.1089 40.3208 51.3352C40.3757 51.5616 40.235 51.7896 40.0086 51.8445C39.7821 51.8993 39.554 51.7587 39.4991 51.5324Z" fill="#FFFBFC"/>
</g>
<g style="mix-blend-mode:lighten">
<path d="M57.7664 60.9549C57.9259 60.9257 58.0803 61.0303 58.1095 61.1898C58.1386 61.3493 58.034 61.5036 57.8745 61.5327C57.7149 61.5619 57.5605 61.4573 57.5314 61.2978C57.5022 61.1384 57.6068 60.984 57.7664 60.9549Z" fill="#FFFBFC"/>
</g>
<g style="mix-blend-mode:lighten">
<path d="M48.9638 61.0826C49.0668 61.0638 49.1646 61.1307 49.1834 61.2335C49.2023 61.3364 49.1354 61.4342 49.0325 61.453C48.9295 61.4719 48.8317 61.405 48.8129 61.3021C48.794 61.1992 48.8609 61.1015 48.9638 61.0826Z" fill="#FFFBFC"/>
</g>
<g style="mix-blend-mode:lighten">
<path d="M49.3643 58.8685C49.5839 58.8273 49.7932 58.9713 49.8344 59.1908C49.8755 59.4103 49.7314 59.6195 49.5119 59.6606C49.2923 59.7018 49.083 59.5578 49.0418 59.3383C49.0006 59.1188 49.1447 58.9096 49.3643 58.8685Z" fill="#FFFBFC"/>
</g>
<g style="mix-blend-mode:lighten">
<path d="M47.9557 57.725C48.165 57.6856 48.3675 57.8245 48.4069 58.0337C48.4464 58.2428 48.3074 58.4452 48.0981 58.4846C47.8888 58.524 47.6864 58.3852 47.647 58.176C47.6075 57.9668 47.7465 57.7645 47.9557 57.725Z" fill="#FFFBFC"/>
</g>
<g style="mix-blend-mode:lighten">
<path d="M48.2483 56.2974C48.425 56.2648 48.5965 56.3814 48.6291 56.558C48.6617 56.7346 48.5451 56.9061 48.3684 56.9387C48.1917 56.9712 48.0201 56.8546 47.9875 56.678C47.9549 56.5014 48.0716 56.33 48.2483 56.2974Z" fill="#FFFBFC"/>
</g>
<g style="mix-blend-mode:lighten">
<path d="M46.4667 55.2846C46.5559 55.2675 46.6434 55.3275 46.6588 55.4166C46.676 55.5058 46.6159 55.5932 46.5267 55.6087C46.4375 55.6258 46.35 55.5658 46.3346 55.4766C46.3174 55.3875 46.3775 55.3 46.4667 55.2846Z" fill="#FFFBFC"/>
</g>
<g style="mix-blend-mode:lighten">
<path d="M53.8692 42.6268C53.991 42.7794 53.967 43.0006 53.8161 43.1224C53.6634 43.2441 53.4421 43.2201 53.3203 43.0692C53.1985 42.9166 53.2225 42.6954 53.3735 42.5737C53.5262 42.4519 53.7474 42.4759 53.8692 42.6268Z" fill="#FFFBFC"/>
</g>
<path d="M56.6414 39.0996C56.7084 39.1819 56.6946 39.3019 56.6123 39.3688C56.5299 39.4357 56.4099 39.422 56.343 39.3397C56.276 39.2574 56.2898 39.1373 56.3721 39.0705C56.4545 39.0036 56.5745 39.0173 56.6414 39.0996Z" fill="#FFFBFC"/>
<path d="M40.9209 38.0436L41.0182 38.5221L41.4944 38.6199L41.0182 38.7177L40.9209 39.1963L40.8236 38.7177L40.3474 38.6199L40.8236 38.5221L40.9209 38.0436Z" fill="white"/>
<g filter="url(#filter6_f_46_2951)">
<path d="M40.9209 38.0436L41.0182 38.5221L41.4944 38.6199L41.0182 38.7177L40.9209 39.1963L40.8236 38.7177L40.3474 38.6199L40.8236 38.5221L40.9209 38.0436Z" fill="white"/>
</g>
<path d="M65.9721 52.4686L66.3065 52.8231L66.7621 52.6531L66.4094 52.9891L66.5786 53.447L66.2442 53.0926L65.7886 53.2626L66.1413 52.9265L65.9721 52.4686Z" fill="white"/>
<g filter="url(#filter7_f_46_2951)">
<path d="M65.9721 52.4686L66.3065 52.8231L66.7621 52.6531L66.4094 52.9891L66.5786 53.447L66.2442 53.0926L65.7886 53.2626L66.1413 52.9265L65.9721 52.4686Z" fill="white"/>
</g>
<path d="M41.5912 56.3324L41.7856 56.7801L42.2716 56.7761L41.8261 56.9714L41.8301 57.4598L41.6357 57.0122L41.1498 57.0162L41.5952 56.8208L41.5912 56.3324Z" fill="white"/>
<g filter="url(#filter8_f_46_2951)">
<path d="M41.5912 56.3324L41.7856 56.7801L42.2716 56.7761L41.8261 56.9714L41.8301 57.4598L41.6357 57.0122L41.1498 57.0162L41.5952 56.8208L41.5912 56.3324Z" fill="white"/>
</g>
</g>
<g style="mix-blend-mode:overlay" filter="url(#filter9_f_46_2951)">
<g style="mix-blend-mode:lighten">
<path d="M36.8704 17.7373C36.8197 17.5127 36.961 17.2844 37.1857 17.2336C37.4104 17.1829 37.6388 17.3242 37.6895 17.5489C37.7402 17.7735 37.5989 18.0018 37.3742 18.0525C37.1495 18.1033 36.9212 17.962 36.8704 17.7373Z" fill="#FFFBFC"/>
</g>
<g style="mix-blend-mode:lighten">
<path d="M69.2947 46.3773C69.2149 46.0331 69.4324 45.6889 69.7767 45.6128C70.121 45.5331 70.4653 45.7505 70.5414 46.0947C70.6211 46.4389 70.4037 46.7832 70.0594 46.8593C69.7151 46.939 69.3708 46.7216 69.2947 46.3773Z" fill="#FFFBFC"/>
</g>
<g style="mix-blend-mode:lighten">
<path d="M29.3904 23.3539C29.307 22.9807 29.539 22.6075 29.9123 22.5242C30.2855 22.4408 30.6588 22.6727 30.7422 23.0459C30.8256 23.4192 30.5936 23.7924 30.2203 23.8757C29.847 23.959 29.4737 23.7271 29.3904 23.3539Z" fill="#FFFBFC"/>
</g>
<g style="mix-blend-mode:lighten">
<path d="M38.7551 27.3795C39.0632 27.7636 39.0052 28.3252 38.621 28.6369C38.2369 28.9449 37.6751 28.8869 37.3634 28.5028C37.0554 28.1187 37.1133 27.5571 37.4975 27.2455C37.8817 26.9375 38.4434 26.9954 38.7551 27.3795Z" fill="#FFFBFC"/>
</g>
<g style="mix-blend-mode:lighten">
<path d="M41.984 26.4156C42.245 26.7418 42.1942 27.2164 41.868 27.4773C41.5419 27.7382 41.0671 27.6875 40.8061 27.3614C40.5452 27.0353 40.5959 26.5606 40.9221 26.2997C41.2483 26.0388 41.7231 26.0895 41.984 26.4156Z" fill="#FFFBFC"/>
</g>
<g style="mix-blend-mode:lighten">
<path d="M42.1038 21.68C42.2343 21.843 42.2089 22.0858 42.0458 22.2162C41.8827 22.3467 41.6399 22.3213 41.5095 22.1583C41.379 21.9952 41.4043 21.7524 41.5674 21.622C41.7305 21.4915 41.9734 21.5169 42.1038 21.68Z" fill="#FFFBFC"/>
</g>
<g style="mix-blend-mode:lighten">
<path d="M51.3859 32.8945C51.3315 32.6734 51.4692 32.4488 51.6903 32.3944C51.9114 32.3401 52.1361 32.4778 52.1905 32.6988C52.2448 32.9198 52.1071 33.1445 51.886 33.1988C51.665 33.2532 51.4403 33.1155 51.3859 32.8945Z" fill="#FFFBFC"/>
</g>
<g style="mix-blend-mode:lighten">
<path d="M44.514 26.0316C44.4524 25.7743 44.6118 25.5134 44.8691 25.4518C45.1265 25.3902 45.3874 25.5497 45.449 25.8069C45.5106 26.0642 45.3512 26.3251 45.0938 26.3867C44.8365 26.4483 44.5756 26.2889 44.514 26.0316Z" fill="#FFFBFC"/>
</g>
<g style="mix-blend-mode:lighten">
<path d="M37.1828 32.5393C37.0958 32.1733 37.3205 31.8073 37.6865 31.7168C38.0526 31.6298 38.4186 31.8544 38.5092 32.2204C38.5962 32.5864 38.3715 32.9524 38.0055 33.0429C37.6394 33.1299 37.2734 32.9053 37.1828 32.5393Z" fill="#FFFBFC"/>
</g>
<g style="mix-blend-mode:lighten">
<path d="M35.997 37.7134C35.939 37.4779 36.084 37.246 36.3196 37.188C36.5552 37.13 36.7871 37.275 36.8451 37.5105C36.9031 37.746 36.7581 37.9779 36.5225 38.0359C36.287 38.0939 36.055 37.9489 35.997 37.7134Z" fill="#FFFBFC"/>
</g>
<g style="mix-blend-mode:lighten">
<path d="M29.7999 28.2656C29.6803 27.7656 29.9884 27.2619 30.4885 27.1423C30.9887 27.0228 31.4924 27.3308 31.612 27.8308C31.7316 28.3308 31.4236 28.8345 30.9234 28.9541C30.4233 29.0737 29.9195 28.7657 29.7999 28.2656Z" fill="#FFFBFC"/>
</g>
<g style="mix-blend-mode:lighten">
<path d="M32.6982 43.0741C32.5822 42.5958 32.8794 42.1139 33.3578 41.9979C33.8362 41.882 34.3182 42.1791 34.4342 42.6574C34.5502 43.1357 34.253 43.6176 33.7746 43.7336C33.2962 43.8495 32.8142 43.5524 32.6982 43.0741Z" fill="#FFFBFC"/>
</g>
<g style="mix-blend-mode:lighten">
<path d="M25.0344 39.9239C24.9365 39.5181 25.1866 39.1086 25.5925 39.0144C25.9984 38.9166 26.408 39.1666 26.5022 39.5724C26.6001 39.9783 26.35 40.3877 25.9441 40.4819C25.5382 40.5798 25.1286 40.3298 25.0344 39.9239Z" fill="#FFFBFC"/>
</g>
<g style="mix-blend-mode:lighten">
<path d="M22.8994 44.1561C22.8486 43.9496 22.9755 43.7467 23.182 43.6959C23.3886 43.6452 23.5916 43.772 23.6423 43.9786C23.6931 44.1851 23.5662 44.388 23.3596 44.4387C23.1531 44.4895 22.9501 44.3626 22.8994 44.1561Z" fill="#FFFBFC"/>
</g>
<g style="mix-blend-mode:lighten">
<path d="M61.4491 64.8109C61.7861 64.7493 62.1123 64.9703 62.1739 65.3073C62.2355 65.6443 62.0145 65.9704 61.6774 66.032C61.3404 66.0936 61.0142 65.8726 60.9526 65.5356C60.8909 65.1986 61.112 64.8725 61.4491 64.8109Z" fill="#FFFBFC"/>
</g>
<g style="mix-blend-mode:lighten">
<path d="M42.8543 65.0816C43.0718 65.0418 43.2784 65.1831 43.3182 65.4005C43.3581 65.6179 43.2168 65.8244 42.9993 65.8643C42.7819 65.9041 42.5753 65.7628 42.5354 65.5454C42.4955 65.328 42.6369 65.1215 42.8543 65.0816Z" fill="#FFFBFC"/>
</g>
<g style="mix-blend-mode:lighten">
<path d="M43.6987 60.4C44.1626 60.313 44.6048 60.6174 44.6918 61.0812C44.7788 61.545 44.4743 61.987 44.0104 62.074C43.5465 62.161 43.1044 61.8566 43.0174 61.3928C42.9304 60.929 43.2348 60.4869 43.6987 60.4Z" fill="#FFFBFC"/>
</g>
<g style="mix-blend-mode:lighten">
<path d="M40.7229 57.9869C41.1651 57.9036 41.5927 58.1971 41.6761 58.6392C41.7594 59.0812 41.4659 59.5088 41.0237 59.5921C40.5816 59.6755 40.1539 59.382 40.0705 58.9399C39.9872 58.4978 40.2808 58.0703 40.7229 57.9869Z" fill="#FFFBFC"/>
</g>
<g style="mix-blend-mode:lighten">
<path d="M41.3429 54.9685C41.7162 54.8997 42.0787 55.1461 42.1475 55.5193C42.2164 55.8925 41.9699 56.2548 41.5966 56.3237C41.2233 56.3925 40.8609 56.1461 40.7921 55.7729C40.7232 55.3997 40.9696 55.0374 41.3429 54.9685Z" fill="#FFFBFC"/>
</g>
<g style="mix-blend-mode:lighten">
<path d="M37.5774 52.8272C37.7658 52.791 37.9507 52.9178 37.9833 53.1062C38.0195 53.2947 37.8927 53.4795 37.7042 53.5121C37.5158 53.5483 37.3309 53.4215 37.2983 53.2331C37.2621 53.0446 37.3889 52.8598 37.5774 52.8272Z" fill="#FFFBFC"/>
</g>
<g style="mix-blend-mode:lighten">
<path d="M45.4599 20.1722C45.6774 20.4404 45.6339 20.8317 45.3657 21.0491C45.0975 21.2665 44.7061 21.223 44.4886 20.9549C44.2712 20.6868 44.3147 20.2954 44.5829 20.078C44.851 19.8606 45.2425 19.9041 45.4599 20.1722Z" fill="#FFFBFC"/>
</g>
<g style="mix-blend-mode:lighten">
<path d="M53.2158 26.0784C53.4731 26.4009 53.4224 26.8683 53.1035 27.1256C52.7809 27.3829 52.3134 27.3321 52.0561 27.0133C51.7988 26.6908 51.8495 26.2233 52.1684 25.9661C52.491 25.7088 52.9585 25.7595 53.2158 26.0784Z" fill="#FFFBFC"/>
</g>
<path d="M52.4295 20.8936C52.5709 21.0711 52.5455 21.3284 52.3679 21.4733C52.1903 21.6146 51.933 21.5893 51.788 21.4117C51.6467 21.2342 51.6721 20.9769 51.8496 20.832C52.0272 20.6906 52.2846 20.716 52.4295 20.8936Z" fill="#FFFBFC"/>
<path d="M59.0728 18.6215C59.2141 18.7954 59.1851 19.049 59.0112 19.1904C58.8372 19.3317 58.5835 19.3027 58.4422 19.1288C58.3008 18.9548 58.3298 18.7012 58.5038 18.5599C58.6777 18.4186 58.9314 18.4476 59.0728 18.6215Z" fill="#FFFBFC"/>
</g>
<g style="mix-blend-mode:lighten">
<path d="M36.8703 17.7373C36.8196 17.5127 36.9609 17.2844 37.1856 17.2336C37.4103 17.1829 37.6386 17.3242 37.6894 17.5489C37.7401 17.7735 37.5988 18.0018 37.3741 18.0525C37.1494 18.1033 36.921 17.962 36.8703 17.7373Z" fill="#FFFBFC"/>
</g>
<g style="mix-blend-mode:lighten">
<path d="M69.2946 46.3773C69.2148 46.0331 69.4323 45.6889 69.7766 45.6128C70.1209 45.5331 70.4652 45.7505 70.5413 46.0947C70.621 46.4389 70.4036 46.7832 70.0593 46.8593C69.715 46.939 69.3707 46.7216 69.2946 46.3773Z" fill="#FFFBFC"/>
</g>
<g style="mix-blend-mode:lighten">
<path d="M29.3902 23.3539C29.3069 22.9806 29.5388 22.6074 29.9121 22.5241C30.2854 22.4408 30.6587 22.6727 30.7421 23.0459C30.8254 23.4191 30.5935 23.7923 30.2202 23.8756C29.8469 23.959 29.4736 23.7271 29.3902 23.3539Z" fill="#FFFBFC"/>
</g>
<g style="mix-blend-mode:lighten">
<path d="M38.7549 27.3796C39.0629 27.7637 39.0049 28.3253 38.6208 28.6369C38.2366 28.9449 37.6749 28.887 37.3632 28.5029C37.0551 28.1188 37.1131 27.5571 37.4973 27.2455C37.8814 26.9375 38.4432 26.9955 38.7549 27.3796Z" fill="#FFFBFC"/>
</g>
<g style="mix-blend-mode:lighten">
<path d="M41.984 26.4155C42.245 26.7416 42.1942 27.2163 41.868 27.4772C41.5419 27.7381 41.0671 27.6874 40.8061 27.3612C40.5452 27.0351 40.5959 26.5605 40.9221 26.2996C41.2483 26.0387 41.7231 26.0894 41.984 26.4155Z" fill="#FFFBFC"/>
</g>
<g style="mix-blend-mode:lighten">
<path d="M42.1038 21.68C42.2343 21.843 42.2089 22.0858 42.0458 22.2162C41.8827 22.3467 41.6399 22.3213 41.5095 22.1583C41.379 21.9952 41.4043 21.7524 41.5674 21.622C41.7305 21.4915 41.9734 21.5169 42.1038 21.68Z" fill="#FFFBFC"/>
</g>
<g style="mix-blend-mode:lighten">
<path d="M51.3856 32.8945C51.3313 32.6734 51.469 32.4488 51.6901 32.3944C51.9112 32.3401 52.1359 32.4778 52.1902 32.6988C52.2446 32.9198 52.1069 33.1445 51.8858 33.1988C51.6647 33.2532 51.44 33.1155 51.3856 32.8945Z" fill="#FFFBFC"/>
</g>
<g style="mix-blend-mode:lighten">
<path d="M44.514 26.0316C44.4524 25.7743 44.6118 25.5134 44.8691 25.4518C45.1265 25.3902 45.3874 25.5497 45.449 25.8069C45.5106 26.0642 45.3512 26.3251 45.0938 26.3867C44.8365 26.4483 44.5756 26.2889 44.514 26.0316Z" fill="#FFFBFC"/>
</g>
<g style="mix-blend-mode:lighten">
<path d="M37.1824 32.5393C37.0954 32.1734 37.3201 31.8074 37.6862 31.7168C38.0522 31.6298 38.4183 31.8545 38.5089 32.2205C38.5958 32.5864 38.3711 32.9524 38.0051 33.043C37.639 33.13 37.273 32.9053 37.1824 32.5393Z" fill="#FFFBFC"/>
</g>
<g style="mix-blend-mode:lighten">
<path d="M35.9969 37.7137C35.9389 37.4782 36.0839 37.2463 36.3195 37.1883C36.555 37.1303 36.787 37.2753 36.845 37.5108C36.903 37.7463 36.758 37.9782 36.5224 38.0362C36.2868 38.0942 36.0549 37.9492 35.9969 37.7137Z" fill="#FFFBFC"/>
</g>
<g style="mix-blend-mode:lighten">
<path d="M29.7998 28.2656C29.6802 27.7656 29.9883 27.2619 30.4884 27.1423C30.9886 27.0228 31.4923 27.3308 31.6119 27.8308C31.7315 28.3308 31.4235 28.8345 30.9233 28.9541C30.4232 29.0737 29.9194 28.7657 29.7998 28.2656Z" fill="#FFFBFC"/>
</g>
<g style="mix-blend-mode:lighten">
<path d="M32.6981 43.0741C32.5821 42.5958 32.8793 42.1139 33.3577 41.9979C33.8361 41.882 34.3181 42.1791 34.4341 42.6574C34.55 43.1357 34.2529 43.6176 33.7745 43.7336C33.2961 43.8495 32.814 43.5524 32.6981 43.0741Z" fill="#FFFBFC"/>
</g>
<g style="mix-blend-mode:lighten">
<path d="M25.034 39.9239C24.9362 39.518 25.1862 39.1086 25.5922 39.0144C25.9981 38.9165 26.4076 39.1666 26.5018 39.5724C26.5997 39.9782 26.3496 40.3877 25.9437 40.4819C25.5378 40.5797 25.1283 40.3297 25.034 39.9239Z" fill="#FFFBFC"/>
</g>
<g style="mix-blend-mode:lighten">
<path d="M22.8991 44.156C22.8484 43.9495 22.9752 43.7466 23.1818 43.6959C23.3884 43.6451 23.5913 43.772 23.6421 43.9785C23.6928 44.185 23.566 44.3879 23.3594 44.4387C23.1528 44.4894 22.9499 44.3626 22.8991 44.156Z" fill="#FFFBFC"/>
</g>
<g style="mix-blend-mode:lighten">
<path d="M61.4488 64.8112C61.7859 64.7496 62.1121 64.9706 62.1737 65.3076C62.2353 65.6446 62.0142 65.9707 61.6772 66.0323C61.3401 66.0939 61.0139 65.8729 60.9523 65.5359C60.8907 65.1989 61.1118 64.8728 61.4488 64.8112Z" fill="#FFFBFC"/>
</g>
<g style="mix-blend-mode:lighten">
<path d="M42.8543 65.0816C43.0718 65.0418 43.2784 65.1831 43.3182 65.4005C43.3581 65.6179 43.2168 65.8244 42.9993 65.8643C42.7819 65.9041 42.5753 65.7628 42.5354 65.5454C42.4955 65.328 42.6369 65.1215 42.8543 65.0816Z" fill="#FFFBFC"/>
</g>
<g style="mix-blend-mode:lighten">
<path d="M43.6985 60.4C44.1624 60.313 44.6046 60.6174 44.6915 61.0812C44.7785 61.545 44.4741 61.987 44.0102 62.074C43.5463 62.161 43.1041 61.8566 43.0172 61.3928C42.9302 60.929 43.2346 60.4869 43.6985 60.4Z" fill="#FFFBFC"/>
</g>
<g style="mix-blend-mode:lighten">
<path d="M40.7228 57.9869C41.1649 57.9036 41.5926 58.1971 41.676 58.6392C41.7593 59.0812 41.4658 59.5088 41.0236 59.5921C40.5814 59.6755 40.1538 59.382 40.0704 58.9399C39.9871 58.4978 40.2806 58.0703 40.7228 57.9869Z" fill="#FFFBFC"/>
</g>
<g style="mix-blend-mode:lighten">
<path d="M41.3428 54.9685C41.7161 54.8997 42.0785 55.1461 42.1474 55.5193C42.2162 55.8925 41.9698 56.2548 41.5965 56.3237C41.2232 56.3925 40.8608 56.1461 40.7919 55.7729C40.7231 55.3997 40.9695 55.0374 41.3428 54.9685Z" fill="#FFFBFC"/>
</g>
<g style="mix-blend-mode:lighten">
<path d="M37.5772 52.8272C37.7657 52.7909 37.9505 52.9178 37.9832 53.1062C38.0194 53.2946 37.8926 53.4794 37.7041 53.512C37.5156 53.5482 37.3308 53.4214 37.2982 53.233C37.2619 53.0446 37.3888 52.8598 37.5772 52.8272Z" fill="#FFFBFC"/>
</g>
<g style="mix-blend-mode:lighten">
<path d="M45.4596 20.1725C45.677 20.4407 45.6335 20.832 45.3653 21.0494C45.0971 21.2668 44.7057 21.2233 44.4883 20.9552C44.2708 20.6871 44.3143 20.2957 44.5825 20.0783C44.8507 19.8609 45.2421 19.9044 45.4596 20.1725Z" fill="#FFFBFC"/>
</g>
<g style="mix-blend-mode:lighten">
<path d="M53.2157 26.0784C53.473 26.4009 53.4223 26.8683 53.1034 27.1256C52.7808 27.3829 52.3133 27.3321 52.056 27.0133C51.7986 26.6908 51.8494 26.2233 52.1683 25.9661C52.4909 25.7088 52.9584 25.7595 53.2157 26.0784Z" fill="#FFFBFC"/>
</g>
<path d="M52.4294 20.8934C52.5707 21.071 52.5454 21.3283 52.3678 21.4732C52.1902 21.6145 51.9329 21.5891 51.7879 21.4116C51.6466 21.234 51.6719 20.9768 51.8495 20.8318C52.0271 20.6905 52.2844 20.7159 52.4294 20.8934Z" fill="#FFFBFC"/>
<path d="M59.0728 18.6215C59.2141 18.7954 59.1851 19.049 59.0112 19.1904C58.8372 19.3317 58.5835 19.3027 58.4422 19.1288C58.3008 18.9548 58.3298 18.7012 58.5038 18.5599C58.6777 18.4186 58.9314 18.4476 59.0728 18.6215Z" fill="#FFFBFC"/>
<mask id="path-124-outside-1_46_2951" maskUnits="userSpaceOnUse" x="31" y="39" width="44" height="18" fill="black">
<rect fill="white" x="31" y="39" width="44" height="18"/>
<path d="M38.0708 41.4834L36.0628 50.9295H41.7664L41.3289 53H33.2189L35.6644 41.4834H38.0708ZM49.9859 52.3828C49.9911 52.0598 50.0275 51.7291 50.0952 51.3905L50.3062 50.3201C50.452 49.5857 50.4208 49.096 50.2124 48.8512C50.0093 48.6064 49.5535 48.484 48.8451 48.484H46.3606L45.4074 53H43.0556L45.5011 41.4834H51.15C51.9522 41.4991 52.5512 41.598 52.947 41.7803C53.3429 41.9626 53.6554 42.2309 53.8846 42.5851C54.0721 42.8768 54.1997 43.1997 54.2675 43.5539C54.3404 43.9081 54.33 44.3118 54.2362 44.7649C54.1164 45.3119 53.8612 45.851 53.4705 46.3823C53.0851 46.9084 52.5512 47.2808 51.8688 47.4995C52.3532 47.7131 52.6632 48.0178 52.7986 48.4137C52.9392 48.8043 52.9236 49.4033 52.7517 50.2107L52.5876 50.9842C52.4782 51.5103 52.4236 51.8671 52.4236 52.0546C52.4236 52.3515 52.5225 52.5703 52.7205 52.7109L52.6658 53H50.0171C49.9963 52.7448 49.9859 52.539 49.9859 52.3828ZM50.2203 43.4836H47.4231L46.7668 46.5776H49.4936C50.0353 46.5776 50.4546 46.5151 50.7515 46.3901C51.2776 46.1713 51.611 45.739 51.7516 45.0931C51.8975 44.3951 51.7646 43.9263 51.3532 43.6867C51.1188 43.5513 50.7411 43.4836 50.2203 43.4836ZM54.4315 49.5935L54.8847 47.4839H59.3694L58.9163 49.5935H54.4315ZM64.698 50.2263L69.0812 41.4834H71.5814L65.2059 53H62.9322L61.4868 41.4834H64.0573L64.698 50.2263Z"/>
</mask>
<path d="M38.0708 41.4834L36.0628 50.9295H41.7664L41.3289 53H33.2189L35.6644 41.4834H38.0708ZM49.9859 52.3828C49.9911 52.0598 50.0275 51.7291 50.0952 51.3905L50.3062 50.3201C50.452 49.5857 50.4208 49.096 50.2124 48.8512C50.0093 48.6064 49.5535 48.484 48.8451 48.484H46.3606L45.4074 53H43.0556L45.5011 41.4834H51.15C51.9522 41.4991 52.5512 41.598 52.947 41.7803C53.3429 41.9626 53.6554 42.2309 53.8846 42.5851C54.0721 42.8768 54.1997 43.1997 54.2675 43.5539C54.3404 43.9081 54.33 44.3118 54.2362 44.7649C54.1164 45.3119 53.8612 45.851 53.4705 46.3823C53.0851 46.9084 52.5512 47.2808 51.8688 47.4995C52.3532 47.7131 52.6632 48.0178 52.7986 48.4137C52.9392 48.8043 52.9236 49.4033 52.7517 50.2107L52.5876 50.9842C52.4782 51.5103 52.4236 51.8671 52.4236 52.0546C52.4236 52.3515 52.5225 52.5703 52.7205 52.7109L52.6658 53H50.0171C49.9963 52.7448 49.9859 52.539 49.9859 52.3828ZM50.2203 43.4836H47.4231L46.7668 46.5776H49.4936C50.0353 46.5776 50.4546 46.5151 50.7515 46.3901C51.2776 46.1713 51.611 45.739 51.7516 45.0931C51.8975 44.3951 51.7646 43.9263 51.3532 43.6867C51.1188 43.5513 50.7411 43.4836 50.2203 43.4836ZM54.4315 49.5935L54.8847 47.4839H59.3694L58.9163 49.5935H54.4315ZM64.698 50.2263L69.0812 41.4834H71.5814L65.2059 53H62.9322L61.4868 41.4834H64.0573L64.698 50.2263Z" fill="white"/>
<path d="M38.0708 41.4834L39.7558 41.8416L40.1981 39.7608H38.0708V41.4834ZM36.0628 50.9295L34.3779 50.5713L33.9355 52.6521H36.0628V50.9295ZM41.7664 50.9295L43.4518 51.2857L43.8911 49.2069H41.7664V50.9295ZM41.3289 53V54.7226H42.7255L43.0143 53.3562L41.3289 53ZM33.2189 53L31.5338 52.6422L31.092 54.7226H33.2189V53ZM35.6644 41.4834V39.7608H34.2691L33.9793 41.1256L35.6644 41.4834ZM36.3858 41.1252L34.3779 50.5713L37.7478 51.2877L39.7558 41.8416L36.3858 41.1252ZM36.0628 52.6521H41.7664V49.2069H36.0628V52.6521ZM40.081 50.5734L39.6435 52.6438L43.0143 53.3562L43.4518 51.2857L40.081 50.5734ZM41.3289 51.2774H33.2189V54.7226H41.3289V51.2774ZM34.9039 53.3578L37.3494 41.8412L33.9793 41.1256L31.5338 52.6422L34.9039 53.3578ZM35.6644 43.2061H38.0708V39.7608H35.6644V43.2061ZM49.9859 52.3828L48.2635 52.355L48.2632 52.3689V52.3828H49.9859ZM50.0952 51.3905L51.7844 51.7283L51.7854 51.7236L50.0952 51.3905ZM50.3062 50.3201L48.6166 49.9846L48.6161 49.987L50.3062 50.3201ZM50.2124 48.8512L48.8868 49.9512L48.8936 49.9595L48.9006 49.9677L50.2124 48.8512ZM46.3606 48.484V46.7614H44.9636L44.6751 48.1282L46.3606 48.484ZM45.4074 53V54.7226H46.8043L47.0928 53.3558L45.4074 53ZM43.0556 53L41.3705 52.6422L40.9288 54.7226H43.0556V53ZM45.5011 41.4834V39.7608H44.1059L43.8161 41.1256L45.5011 41.4834ZM51.15 41.4834L51.1836 39.7611L51.1668 39.7608H51.15V41.4834ZM53.8846 42.5851L55.3337 41.6536L55.3309 41.6493L53.8846 42.5851ZM54.2675 43.5539L52.5755 43.8774L52.5778 43.8893L52.5802 43.9013L54.2675 43.5539ZM54.2362 44.7649L55.9189 45.1335L55.9211 45.1238L55.9231 45.114L54.2362 44.7649ZM53.4705 46.3823L52.0827 45.3618L52.0809 45.3642L53.4705 46.3823ZM51.8688 47.4995L51.3429 45.8592L47.0208 47.2449L51.1739 49.0758L51.8688 47.4995ZM52.7986 48.4137L51.1687 48.9713L51.1731 48.9843L51.1778 48.9972L52.7986 48.4137ZM52.7517 50.2107L51.0668 49.852L51.0666 49.8533L52.7517 50.2107ZM52.5876 50.9842L50.9025 50.6268L50.9011 50.6335L52.5876 50.9842ZM52.7205 52.7109L54.4131 53.0311L54.6183 51.9462L53.7182 51.3067L52.7205 52.7109ZM52.6658 53V54.7226H54.0931L54.3584 53.3202L52.6658 53ZM50.0171 53L48.3002 53.1402L48.4294 54.7226H50.0171V53ZM47.4231 43.4836V41.761H46.0276L45.738 43.1261L47.4231 43.4836ZM46.7668 46.5776L45.0817 46.2201L44.6405 48.3002H46.7668V46.5776ZM50.7515 46.3901L50.0901 44.7995L50.0831 44.8024L50.7515 46.3901ZM51.7516 45.0931L53.4348 45.4596L53.4364 45.4525L53.4378 45.4454L51.7516 45.0931ZM51.3532 43.6867L52.22 42.1981L52.215 42.1952L51.3532 43.6867ZM51.7083 52.4105C51.7117 52.1986 51.7357 51.9717 51.7844 51.7283L48.4061 51.0527C48.3193 51.4864 48.2705 51.921 48.2635 52.355L51.7083 52.4105ZM51.7854 51.7236L51.9963 50.6532L48.6161 49.987L48.4051 51.0574L51.7854 51.7236ZM51.9958 50.6556C52.0843 50.2101 52.14 49.7425 52.1113 49.2923C52.0837 48.8608 51.9662 48.254 51.5243 47.7348L48.9006 49.9677C48.781 49.8272 48.7238 49.6946 48.6978 49.615C48.6727 49.5381 48.6721 49.4969 48.673 49.5118C48.6738 49.5249 48.6752 49.57 48.6672 49.6546C48.6594 49.7379 48.6439 49.8468 48.6166 49.9846L51.9958 50.6556ZM51.5381 47.7512C51.1231 47.2511 50.5794 47.0234 50.1651 46.9121C49.7383 46.7975 49.2829 46.7614 48.8451 46.7614V50.2066C48.9741 50.2066 49.0741 50.2123 49.1489 50.2201C49.2248 50.2281 49.2628 50.2372 49.2714 50.2395C49.2813 50.2421 49.2417 50.2329 49.1741 50.1953C49.1043 50.1564 48.9946 50.0812 48.8868 49.9512L51.5381 47.7512ZM48.8451 46.7614H46.3606V50.2066H48.8451V46.7614ZM44.6751 48.1282L43.7219 52.6442L47.0928 53.3558L48.0461 48.8398L44.6751 48.1282ZM45.4074 51.2774H43.0556V54.7226H45.4074V51.2774ZM44.7407 53.3578L47.1862 41.8412L43.8161 41.1256L41.3705 52.6422L44.7407 53.3578ZM45.5011 43.2061H51.15V39.7608H45.5011V43.2061ZM51.1165 43.2057C51.8475 43.22 52.1584 43.3137 52.2265 43.345L53.6676 40.2156C52.9439 39.8824 52.0569 39.7781 51.1836 39.7611L51.1165 43.2057ZM52.2265 43.345C52.3361 43.3955 52.3926 43.4503 52.4383 43.5209L55.3309 41.6493C54.9182 41.0115 54.3498 40.5298 53.6676 40.2156L52.2265 43.345ZM52.4356 43.5166C52.4992 43.6156 52.5474 43.7307 52.5755 43.8774L55.9594 43.2304C55.8521 42.6687 55.645 42.1379 55.3337 41.6536L52.4356 43.5166ZM52.5802 43.9013C52.5946 43.9712 52.6083 44.1308 52.5493 44.4159L55.9231 45.114C56.0516 44.4928 56.0862 43.845 55.9547 43.2065L52.5802 43.9013ZM52.5535 44.3963C52.4936 44.6696 52.3556 44.9906 52.0827 45.3618L54.8584 47.4027C55.3668 46.7113 55.7392 45.9541 55.9189 45.1335L52.5535 44.3963ZM52.0809 45.3642C51.9318 45.5678 51.7149 45.7399 51.3429 45.8592L52.3947 49.1399C53.3875 48.8216 54.2384 48.2489 54.8601 47.4004L52.0809 45.3642ZM51.1739 49.0758C51.2659 49.1163 51.2789 49.1382 51.2569 49.1166C51.2454 49.1054 51.2283 49.0859 51.2105 49.058C51.1926 49.0299 51.1785 49 51.1687 48.9713L54.4285 47.8561C54.0982 46.8905 53.3639 46.2761 52.5637 45.9233L51.1739 49.0758ZM51.1778 48.9972C51.1511 48.923 51.1748 48.9386 51.1703 49.111C51.1661 49.274 51.1384 49.5159 51.0668 49.852L54.4366 50.5694C54.6209 49.7035 54.7321 48.6989 54.4194 47.8302L51.1778 48.9972ZM51.0666 49.8533L50.9025 50.6268L54.2728 51.3417L54.4368 50.5682L51.0666 49.8533ZM50.9011 50.6335C50.7966 51.1359 50.7009 51.6624 50.7009 52.0546H54.1462C54.1462 52.0949 54.1435 52.0629 54.1673 51.9074C54.1884 51.7696 54.223 51.581 54.2742 51.3349L50.9011 50.6335ZM50.7009 52.0546C50.7009 52.7691 50.9666 53.5779 51.7227 54.1152L53.7182 51.3067C53.865 51.411 53.9895 51.5595 54.0673 51.7313C54.1396 51.8913 54.1462 52.0146 54.1462 52.0546H50.7009ZM51.0279 52.3907L50.9732 52.6798L54.3584 53.3202L54.4131 53.0311L51.0279 52.3907ZM52.6658 51.2774H50.0171V54.7226H52.6658V51.2774ZM51.734 52.8598C51.7149 52.6259 51.7085 52.4723 51.7085 52.3828H48.2632C48.2632 52.6057 48.2776 52.8636 48.3002 53.1402L51.734 52.8598ZM50.2203 41.761H47.4231V45.2062H50.2203V41.761ZM45.738 43.1261L45.0817 46.2201L48.452 46.935L49.1083 43.841L45.738 43.1261ZM46.7668 48.3002H49.4936V44.855H46.7668V48.3002ZM49.4936 48.3002C50.1296 48.3002 50.8149 48.2325 51.42 47.9777L50.0831 44.8024C50.1015 44.7947 50.0696 44.8106 49.9604 44.8269C49.8542 44.8427 49.7016 44.855 49.4936 44.855V48.3002ZM51.413 47.9807C52.5485 47.5085 53.1964 46.5545 53.4348 45.4596L50.0684 44.7266C50.0411 44.8519 50.0135 44.8738 50.032 44.8499C50.0407 44.8385 50.0539 44.8249 50.0697 44.8129C50.0853 44.8011 50.0943 44.7977 50.0901 44.7995L51.413 47.9807ZM53.4378 45.4454C53.5432 44.9412 53.588 44.3457 53.4188 43.7484C53.2339 43.0959 52.8211 42.5481 52.22 42.1981L50.4863 45.1754C50.4088 45.1302 50.3206 45.0593 50.2436 44.959C50.167 44.8593 50.1249 44.7613 50.104 44.6876C50.0676 44.5591 50.1059 44.547 50.0654 44.7408L53.4378 45.4454ZM52.215 42.1952C51.5721 41.8238 50.8112 41.761 50.2203 41.761V45.2062C50.4122 45.2062 50.5299 45.2192 50.5901 45.23C50.6183 45.235 50.6223 45.2376 50.6078 45.2328C50.5937 45.2281 50.551 45.2128 50.4914 45.1783L52.215 42.1952ZM54.4315 49.5935L52.7473 49.2317L52.2996 51.3161H54.4315V49.5935ZM54.8847 47.4839V45.7613H53.4928L53.2005 47.1221L54.8847 47.4839ZM59.3694 47.4839L61.0537 47.8457L61.5014 45.7613H59.3694V47.4839ZM58.9163 49.5935V51.3161H60.3082L60.6005 49.9553L58.9163 49.5935ZM56.1157 49.9553L56.5689 47.8457L53.2005 47.1221L52.7473 49.2317L56.1157 49.9553ZM54.8847 49.2066H59.3694V45.7613H54.8847V49.2066ZM57.6852 47.1221L57.2321 49.2317L60.6005 49.9553L61.0537 47.8457L57.6852 47.1221ZM58.9163 47.8708H54.4315V51.3161H58.9163V47.8708ZM64.698 50.2263L62.98 50.3522L63.4368 56.5857L66.2379 50.9984L64.698 50.2263ZM69.0812 41.4834V39.7608H68.0178L67.5412 40.7114L69.0812 41.4834ZM71.5814 41.4834L73.0885 42.3178L74.504 39.7608H71.5814V41.4834ZM65.2059 53V54.7226H66.2212L66.713 53.8343L65.2059 53ZM62.9322 53L61.223 53.2145L61.4123 54.7226H62.9322V53ZM61.4868 41.4834V39.7608H59.5345L59.7776 41.6979L61.4868 41.4834ZM64.0573 41.4834L65.7754 41.3575L65.6583 39.7608H64.0573V41.4834ZM66.2379 50.9984L70.6211 42.2555L67.5412 40.7114L63.1581 49.4543L66.2379 50.9984ZM69.0812 43.2061H71.5814V39.7608H69.0812V43.2061ZM70.0743 40.6491L63.6988 52.1657L66.713 53.8343L73.0885 42.3178L70.0743 40.6491ZM65.2059 51.2774H62.9322V54.7226H65.2059V51.2774ZM64.6415 52.7855L63.196 41.2689L59.7776 41.6979L61.223 53.2145L64.6415 52.7855ZM61.4868 43.2061H64.0573V39.7608H61.4868V43.2061ZM62.3393 41.6093L62.98 50.3522L66.416 50.1004L65.7754 41.3575L62.3393 41.6093Z" fill="#3D3ECF" mask="url(#path-124-outside-1_46_2951)"/>
<defs>
<filter id="filter0_f_46_2951" x="0.317227" y="0.513272" width="106.485" height="96.4931" filterUnits="userSpaceOnUse" color-interpolation-filters="sRGB">
<feFlood flood-opacity="0" result="BackgroundImageFix"/>
<feBlend mode="normal" in="SourceGraphic" in2="BackgroundImageFix" result="shape"/>
<feGaussianBlur stdDeviation="7.12105" result="effect1_foregroundBlur_46_2951"/>
</filter>
<filter id="filter1_d_46_2951" x="7.0564" y="1.59064" width="89.5211" height="89.521" filterUnits="userSpaceOnUse" color-interpolation-filters="sRGB">
<feFlood flood-opacity="0" result="BackgroundImageFix"/>
<feColorMatrix in="SourceAlpha" type="matrix" values="0 0 0 0 0 0 0 0 0 0 0 0 0 0 0 0 0 0 127 0" result="hardAlpha"/>
<feOffset/>
<feGaussianBlur stdDeviation="9.17224"/>
<feComposite in2="hardAlpha" operator="out"/>
<feColorMatrix type="matrix" values="0 0 0 0 0.227451 0 0 0 0 0.511765 0 0 0 0 0.909804 0 0 0 0.6 0"/>
<feBlend mode="normal" in2="BackgroundImageFix" result="effect1_dropShadow_46_2951"/>
<feBlend mode="normal" in="SourceGraphic" in2="effect1_dropShadow_46_2951" result="shape"/>
</filter>
<clipPath id="paint2_diamond_46_2951_clip_path"><path d="M44.0925 54.0604L41.3135 44.6262L32.5647 42.2594C32.5647 42.2594 32.77 55.434 39.4614 63.1534L44.0925 54.0604Z"/></clipPath><clipPath id="paint3_diamond_46_2951_clip_path"><path d="M41.3135 44.6278C41.3135 44.6278 46.2193 38.1099 52.0186 36.1023V24.7617C52.0186 24.7617 37.3678 34.5068 32.5647 42.2594L41.3135 44.6262V44.6278Z"/></clipPath><clipPath id="paint6_diamond_46_2951_clip_path"><path d="M62.7221 44.6278C62.7221 44.6278 57.8163 38.1099 52.017 36.1023V24.7617C52.017 24.7617 66.6663 34.5053 71.4709 42.2594L62.7221 44.6262V44.6278Z"/></clipPath><clipPath id="paint7_diamond_46_2951_clip_path"><path d="M52.0173 36.1022V58.6159L44.0926 54.0618L41.3137 44.6277C41.3137 44.6277 44.6074 38.1777 52.0188 36.1022H52.0173Z"/></clipPath><clipPath id="paint8_diamond_46_2951_clip_path"><path d="M52.017 36.1022V58.6159L59.9417 54.0618L62.7206 44.6277C62.7206 44.6277 59.427 38.1777 52.0155 36.1022H52.017Z"/></clipPath><filter id="filter2_f_46_2951" x="57.4895" y="54.5227" width="14.0152" height="14.0152" filterUnits="userSpaceOnUse" color-interpolation-filters="sRGB">
<feFlood flood-opacity="0" result="BackgroundImageFix"/>
<feBlend mode="normal" in="SourceGraphic" in2="BackgroundImageFix" result="shape"/>
<feGaussianBlur stdDeviation="2.01789" result="effect1_foregroundBlur_46_2951"/>
</filter>
<filter id="filter3_f_46_2951" x="26.8474" y="34.4469" width="15.0214" height="15.0215" filterUnits="userSpaceOnUse" color-interpolation-filters="sRGB">
<feFlood flood-opacity="0" result="BackgroundImageFix"/>
<feBlend mode="normal" in="SourceGraphic" in2="BackgroundImageFix" result="shape"/>
<feGaussianBlur stdDeviation="2.01789" result="effect1_foregroundBlur_46_2951"/>
</filter>
<filter id="filter4_f_46_2951" x="58.2442" y="29.4657" width="12.5159" height="12.5158" filterUnits="userSpaceOnUse" color-interpolation-filters="sRGB">
<feFlood flood-opacity="0" result="BackgroundImageFix"/>
<feBlend mode="normal" in="SourceGraphic" in2="BackgroundImageFix" result="shape"/>
<feGaussianBlur stdDeviation="2.01789" result="effect1_foregroundBlur_46_2951"/>
</filter>
<filter id="filter5_f_46_2951" x="34.6186" y="33.5688" width="32.3276" height="32.8373" filterUnits="userSpaceOnUse" color-interpolation-filters="sRGB">
<feFlood flood-opacity="0" result="BackgroundImageFix"/>
<feBlend mode="normal" in="SourceGraphic" in2="BackgroundImageFix" result="shape"/>
<feGaussianBlur stdDeviation="2.43431" result="effect1_foregroundBlur_46_2951"/>
</filter>
<filter id="filter6_f_46_2951" x="38.1461" y="35.8422" width="5.54965" height="5.55538" filterUnits="userSpaceOnUse" color-interpolation-filters="sRGB">
<feFlood flood-opacity="0" result="BackgroundImageFix"/>
<feBlend mode="normal" in="SourceGraphic" in2="BackgroundImageFix" result="shape"/>
<feGaussianBlur stdDeviation="1.10067" result="effect1_foregroundBlur_46_2951"/>
</filter>
<filter id="filter7_f_46_2951" x="63.5872" y="50.2673" width="5.37619" height="5.38107" filterUnits="userSpaceOnUse" color-interpolation-filters="sRGB">
<feFlood flood-opacity="0" result="BackgroundImageFix"/>
<feBlend mode="normal" in="SourceGraphic" in2="BackgroundImageFix" result="shape"/>
<feGaussianBlur stdDeviation="1.10067" result="effect1_foregroundBlur_46_2951"/>
</filter>
<filter id="filter8_f_46_2951" x="38.9484" y="54.1311" width="5.5245" height="5.53006" filterUnits="userSpaceOnUse" color-interpolation-filters="sRGB">
<feFlood flood-opacity="0" result="BackgroundImageFix"/>
<feBlend mode="normal" in="SourceGraphic" in2="BackgroundImageFix" result="shape"/>
<feGaussianBlur stdDeviation="1.10067" result="effect1_foregroundBlur_46_2951"/>
</filter>
<filter id="filter9_f_46_2951" x="21.6894" y="16.0246" width="50.0672" height="51.2165" filterUnits="userSpaceOnUse" color-interpolation-filters="sRGB">
<feFlood flood-opacity="0" result="BackgroundImageFix"/>
<feBlend mode="normal" in="SourceGraphic" in2="BackgroundImageFix" result="shape"/>
<feGaussianBlur stdDeviation="0.599382" result="effect1_foregroundBlur_46_2951"/>
</filter>
<linearGradient id="paint0_linear_46_2951" x1="12.7393" y1="39.239" x2="94.7698" y2="54.8723" gradientUnits="userSpaceOnUse">
<stop stop-color="#B9BDF9"/>
<stop offset="1" stop-color="#5246FF"/>
</linearGradient>
<radialGradient id="paint1_radial_46_2951" cx="0" cy="0" r="1" gradientUnits="userSpaceOnUse" gradientTransform="translate(45.072 54.6339) rotate(63.435) scale(15.5262 12.9913)">
<stop stop-color="#23DBFD"/>
<stop offset="0.414319" stop-color="#4300BD"/>
<stop offset="0.852751" stop-color="#230063"/>
</radialGradient>
<linearGradient id="paint2_diamond_46_2951" x1="0" y1="0" x2="500" y2="500" gradientUnits="userSpaceOnUse">
<stop stop-color="#B0F3FF"/>
<stop offset="0.0001" stop-color="#23DBFD"/>
<stop offset="0.447917" stop-color="#4200B8"/>
<stop offset="1" stop-color="#230063"/>
</linearGradient>
<linearGradient id="paint3_diamond_46_2951" x1="0" y1="0" x2="500" y2="500" gradientUnits="userSpaceOnUse">
<stop stop-color="#23DBFD"/>
<stop offset="0.473958" stop-color="#3658D6"/>
<stop offset="1" stop-color="#3E22C7"/>
</linearGradient>
<radialGradient id="paint4_radial_46_2951" cx="0" cy="0" r="1" gradientUnits="userSpaceOnUse" gradientTransform="translate(64.544 63.2379) rotate(-157.257) scale(16.2035 27.2276)">
<stop stop-color="#B0F3FF"/>
<stop offset="0.0001" stop-color="#23DBFD"/>
<stop offset="0.356211" stop-color="#3D27DD"/>
<stop offset="0.763504" stop-color="#3D009C"/>
</radialGradient>
<radialGradient id="paint5_radial_46_2951" cx="0" cy="0" r="1" gradientUnits="userSpaceOnUse" gradientTransform="translate(64.0913 62.1813) rotate(-70.7873) scale(21.1001 37.5861)">
<stop stop-color="#B0F3FF"/>
<stop offset="0.0001" stop-color="#23DBFD"/>
<stop offset="0.356211" stop-color="#3D27DD"/>
<stop offset="1" stop-color="#3D009C"/>
</radialGradient>
<linearGradient id="paint6_diamond_46_2951" x1="0" y1="0" x2="500" y2="500" gradientUnits="userSpaceOnUse">
<stop stop-color="#B0F3FF"/>
<stop offset="0.0001" stop-color="#23DBFD"/>
<stop offset="0.447917" stop-color="#3D27DD"/>
<stop offset="1" stop-color="#3D009C"/>
</linearGradient>
<linearGradient id="paint7_diamond_46_2951" x1="0" y1="0" x2="500" y2="500" gradientUnits="userSpaceOnUse">
<stop stop-color="#6BF0FF"/>
<stop offset="0.14983" stop-color="#2D99F6"/>
<stop offset="0.666667" stop-color="#3C2EE0"/>
<stop offset="1" stop-color="#4200B6"/>
</linearGradient>
<linearGradient id="paint8_diamond_46_2951" x1="0" y1="0" x2="500" y2="500" gradientUnits="userSpaceOnUse">
<stop stop-color="#22E7FE"/>
<stop offset="0.182292" stop-color="#2D99F6"/>
<stop offset="1" stop-color="#3B36E3"/>
</linearGradient>
<linearGradient id="paint9_linear_46_2951" x1="49.1476" y1="36.0675" x2="56.0911" y2="54.0301" gradientUnits="userSpaceOnUse">
<stop stop-color="white" stop-opacity="0.4"/>
<stop offset="1" stop-color="white" stop-opacity="0"/>
</linearGradient>
<linearGradient id="paint10_linear_46_2951" x1="40.8455" y1="44.6714" x2="48.8456" y2="67.6907" gradientUnits="userSpaceOnUse">
<stop stop-color="white" stop-opacity="0.77"/>
<stop offset="0.642325" stop-color="white" stop-opacity="0"/>
</linearGradient>
<linearGradient id="paint11_linear_46_2951" x1="52.0155" y1="24.2183" x2="32.5435" y2="42.2564" gradientUnits="userSpaceOnUse">
<stop stop-color="#DADADA"/>
<stop offset="1" stop-color="white" stop-opacity="0"/>
</linearGradient>
<linearGradient id="paint12_linear_46_2951" x1="52.0155" y1="24.2183" x2="32.5435" y2="42.2564" gradientUnits="userSpaceOnUse">
<stop stop-color="#DADADA"/>
<stop offset="1" stop-color="white" stop-opacity="0"/>
</linearGradient>
<radialGradient id="paint13_radial_46_2951" cx="0" cy="0" r="1" gradientUnits="userSpaceOnUse" gradientTransform="translate(58.2956 65.8024) rotate(90) scale(2.6476 6.27861)">
<stop stop-color="white"/>
<stop offset="1" stop-color="white" stop-opacity="0"/>
</radialGradient>
<radialGradient id="paint14_radial_46_2951" cx="0" cy="0" r="1" gradientUnits="userSpaceOnUse" gradientTransform="translate(57.3695 40.3362) rotate(90) scale(4.2915 5.35255)">
<stop stop-color="white"/>
<stop offset="1" stop-color="white" stop-opacity="0"/>
</radialGradient>
<radialGradient id="paint15_radial_46_2951" cx="0" cy="0" r="1" gradientUnits="userSpaceOnUse" gradientTransform="translate(36.9391 43.326) rotate(90.5567) scale(1.87384 6.29721)">
<stop stop-color="white"/>
<stop offset="1" stop-color="white" stop-opacity="0"/>
</radialGradient>
</defs>
</svg>
