<svg width="74" height="75" viewBox="0 0 74 75" fill="none" xmlns="http://www.w3.org/2000/svg">
<g filter="url(#filter0_f_46_2953)">
<path fill-rule="evenodd" clip-rule="evenodd" d="M42.4681 19.0132C46.6645 18.8918 51.3579 17.7249 54.7967 20.1338C58.2388 22.545 58.6507 27.3959 60.08 31.3504C61.5529 35.4257 65.295 39.8551 63.3187 43.7124C61.1731 47.9004 54.9848 47.5289 50.7466 49.5678C48.1755 50.8047 45.4181 51.5254 43.2416 53.3712C39.2517 56.7549 37.9908 63.9026 32.8326 64.7598C28.3113 65.5111 23.8564 61.0374 21.8141 56.9319C19.8148 52.9131 24.2116 47.7896 22.3569 43.7019C20.1152 38.7612 11.975 37.9467 10.7967 32.6497C9.70789 27.7554 12.5005 21.5785 16.9021 19.1813C21.6028 16.6213 27.2488 20.8111 32.5993 20.7759C35.9985 20.7535 39.0703 19.1115 42.4681 19.0132Z" fill="url(#paint0_linear_46_2953)"/>
</g>
<g filter="url(#filter1_d_46_2953)">
<path d="M39.0782 55.9805L28.1013 51.3511L32.15 43.4002L39.0782 47.3829V55.9805Z" fill="url(#paint1_radial_46_2953)"/>
<g clip-path="url(#paint2_diamond_46_2953_clip_path)" data-figma-skip-parse="true"><g transform="matrix(0.00197948 0.0182772 -0.0200629 0.00217288 26.2762 32.2227)"><rect x="0" y="0" width="1087.99" height="326.696" fill="url(#paint2_diamond_46_2953)" opacity="1" shape-rendering="crispEdges"/><rect x="0" y="0" width="1087.99" height="326.696" transform="scale(1 -1)" fill="url(#paint2_diamond_46_2953)" opacity="1" shape-rendering="crispEdges"/><rect x="0" y="0" width="1087.99" height="326.696" transform="scale(-1 1)" fill="url(#paint2_diamond_46_2953)" opacity="1" shape-rendering="crispEdges"/><rect x="0" y="0" width="1087.99" height="326.696" transform="scale(-1)" fill="url(#paint2_diamond_46_2953)" opacity="1" shape-rendering="crispEdges"/></g></g><path d="M32.1501 43.4002L29.7206 35.1523L22.0719 33.0831C22.0719 33.0831 22.2514 44.6011 28.1014 51.3498L32.1501 43.4002Z" data-figma-gradient-fill="{&#34;type&#34;:&#34;GRADIENT_DIAMOND&#34;,&#34;stops&#34;:[{&#34;color&#34;:{&#34;r&#34;:0.13725490868091583,&#34;g&#34;:0.85882353782653809,&#34;b&#34;:0.99215686321258545,&#34;a&#34;:1.0},&#34;position&#34;:0.0},{&#34;color&#34;:{&#34;r&#34;:0.0,&#34;g&#34;:0.39686274528503418,&#34;b&#34;:0.72156864404678345,&#34;a&#34;:1.0},&#34;position&#34;:0.54166668653488159},{&#34;color&#34;:{&#34;r&#34;:0.0,&#34;g&#34;:0.21352940797805786,&#34;b&#34;:0.38823530077934265,&#34;a&#34;:1.0},&#34;position&#34;:1.0}],&#34;stopsVar&#34;:[],&#34;transform&#34;:{&#34;m00&#34;:3.9589602947235107,&#34;m01&#34;:-40.125839233398438,&#34;m02&#34;:44.359672546386719,&#34;m10&#34;:36.554401397705078,&#34;m11&#34;:4.3457579612731934,&#34;m12&#34;:11.772632598876953},&#34;opacity&#34;:1.0,&#34;blendMode&#34;:&#34;NORMAL&#34;,&#34;visible&#34;:true}"/>
<g clip-path="url(#paint3_diamond_46_2953_clip_path)" data-figma-skip-parse="true"><g transform="matrix(-0.018937 0.0168916 -0.00788994 -0.0348292 40.9904 15.991)"><rect x="0" y="0" width="1039.07" height="431.49" fill="url(#paint3_diamond_46_2953)" opacity="1" shape-rendering="crispEdges"/><rect x="0" y="0" width="1039.07" height="431.49" transform="scale(1 -1)" fill="url(#paint3_diamond_46_2953)" opacity="1" shape-rendering="crispEdges"/><rect x="0" y="0" width="1039.07" height="431.49" transform="scale(-1 1)" fill="url(#paint3_diamond_46_2953)" opacity="1" shape-rendering="crispEdges"/><rect x="0" y="0" width="1039.07" height="431.49" transform="scale(-1)" fill="url(#paint3_diamond_46_2953)" opacity="1" shape-rendering="crispEdges"/></g></g><path d="M29.7206 35.1537C29.7206 35.1537 34.0095 29.4554 39.0796 27.7003V17.7857C39.0796 17.7857 26.271 26.3054 22.0719 33.0831L29.7206 35.1523V35.1537Z" data-figma-gradient-fill="{&#34;type&#34;:&#34;GRADIENT_DIAMOND&#34;,&#34;stops&#34;:[{&#34;color&#34;:{&#34;r&#34;:0.69019609689712524,&#34;g&#34;:0.95294117927551270,&#34;b&#34;:1.0,&#34;a&#34;:1.0},&#34;position&#34;:0.0},{&#34;color&#34;:{&#34;r&#34;:0.15294118225574493,&#34;g&#34;:0.54549020528793335,&#34;b&#34;:0.86666667461395264,&#34;a&#34;:1.0},&#34;position&#34;:0.47395834326744080},{&#34;color&#34;:{&#34;r&#34;:0.0,&#34;g&#34;:0.33647060394287109,&#34;b&#34;:0.61176472902297974,&#34;a&#34;:1.0},&#34;position&#34;:1.0}],&#34;stopsVar&#34;:[],&#34;transform&#34;:{&#34;m00&#34;:-37.874053955078125,&#34;m01&#34;:-15.779880523681641,&#34;m02&#34;:67.817337036132812,&#34;m10&#34;:33.783130645751953,&#34;m11&#34;:-69.658477783203125,&#34;m12&#34;:33.928634643554688},&#34;opacity&#34;:1.0,&#34;blendMode&#34;:&#34;NORMAL&#34;,&#34;visible&#34;:true}"/>
<path d="M39.0781 55.9805L50.0563 51.3511L46.0076 43.4002L39.0781 47.3829V55.9805Z" fill="url(#paint4_radial_46_2953)"/>
<path d="M46.0079 43.4002L48.4374 35.1523L56.0861 33.0831C56.0861 33.0831 55.9067 44.6011 50.0566 51.3498L46.0079 43.4002Z" fill="url(#paint5_radial_46_2953)"/>
<g clip-path="url(#paint6_diamond_46_2953_clip_path)" data-figma-skip-parse="true"><g transform="matrix(-0.0181452 -0.015308 0.0335724 -0.0307188 57.2221 33.3444)"><rect x="0" y="0" width="1027.07" height="299.915" fill="url(#paint6_diamond_46_2953)" opacity="1" shape-rendering="crispEdges"/><rect x="0" y="0" width="1027.07" height="299.915" transform="scale(1 -1)" fill="url(#paint6_diamond_46_2953)" opacity="1" shape-rendering="crispEdges"/><rect x="0" y="0" width="1027.07" height="299.915" transform="scale(-1 1)" fill="url(#paint6_diamond_46_2953)" opacity="1" shape-rendering="crispEdges"/><rect x="0" y="0" width="1027.07" height="299.915" transform="scale(-1)" fill="url(#paint6_diamond_46_2953)" opacity="1" shape-rendering="crispEdges"/></g></g><path d="M48.4371 35.1537C48.4371 35.1537 44.1482 29.4554 39.0781 27.7003V17.7857C39.0781 17.7857 51.8854 26.3041 56.0858 33.0831L48.4371 35.1523V35.1537Z" data-figma-gradient-fill="{&#34;type&#34;:&#34;GRADIENT_DIAMOND&#34;,&#34;stops&#34;:[{&#34;color&#34;:{&#34;r&#34;:0.69019609689712524,&#34;g&#34;:0.95294117927551270,&#34;b&#34;:1.0,&#34;a&#34;:1.0},&#34;position&#34;:0.0},{&#34;color&#34;:{&#34;r&#34;:0.15294118225574493,&#34;g&#34;:0.54549020528793335,&#34;b&#34;:0.86666667461395264,&#34;a&#34;:1.0},&#34;position&#34;:0.44791665673255920},{&#34;color&#34;:{&#34;r&#34;:0.0,&#34;g&#34;:0.33647060394287109,&#34;b&#34;:0.61176472902297974,&#34;a&#34;:1.0},&#34;position&#34;:1.0}],&#34;stopsVar&#34;:[],&#34;transform&#34;:{&#34;m00&#34;:-36.290481567382812,&#34;m01&#34;:67.144874572753906,&#34;m02&#34;:41.794876098632812,&#34;m10&#34;:-30.615964889526367,&#34;m11&#34;:-61.437679290771484,&#34;m12&#34;:79.371231079101562},&#34;opacity&#34;:1.0,&#34;blendMode&#34;:&#34;NORMAL&#34;,&#34;visible&#34;:true}"/>
<g clip-path="url(#paint7_diamond_46_2953_clip_path)" data-figma-skip-parse="true"><g transform="matrix(0.00263931 0.0182112 -0.0230459 0.00333998 36.4375 29.1215)"><rect x="0" y="0" width="1022.47" height="413.543" fill="url(#paint7_diamond_46_2953)" opacity="1" shape-rendering="crispEdges"/><rect x="0" y="0" width="1022.47" height="413.543" transform="scale(1 -1)" fill="url(#paint7_diamond_46_2953)" opacity="1" shape-rendering="crispEdges"/><rect x="0" y="0" width="1022.47" height="413.543" transform="scale(-1 1)" fill="url(#paint7_diamond_46_2953)" opacity="1" shape-rendering="crispEdges"/><rect x="0" y="0" width="1022.47" height="413.543" transform="scale(-1)" fill="url(#paint7_diamond_46_2953)" opacity="1" shape-rendering="crispEdges"/></g></g><path d="M39.0784 27.7003V47.3829L32.1502 43.4015L29.7207 35.1537C29.7207 35.1537 32.6002 29.5148 39.0797 27.7003H39.0784Z" data-figma-gradient-fill="{&#34;type&#34;:&#34;GRADIENT_DIAMOND&#34;,&#34;stops&#34;:[{&#34;color&#34;:{&#34;r&#34;:0.41960784792900085,&#34;g&#34;:0.94117647409439087,&#34;b&#34;:1.0,&#34;a&#34;:1.0},&#34;position&#34;:0.0},{&#34;color&#34;:{&#34;r&#34;:0.18039216101169586,&#34;g&#34;:0.56431370973587036,&#34;b&#34;:0.87843137979507446,&#34;a&#34;:1.0},&#34;position&#34;:0.66666668653488159},{&#34;color&#34;:{&#34;r&#34;:0.0,&#34;g&#34;:0.39254903793334961,&#34;b&#34;:0.71372550725936890,&#34;a&#34;:1.0},&#34;position&#34;:1.0}],&#34;stopsVar&#34;:[],&#34;transform&#34;:{&#34;m00&#34;:5.2786140441894531,&#34;m01&#34;:-46.091793060302734,&#34;m02&#34;:56.844123840332031,&#34;m10&#34;:36.422439575195312,&#34;m11&#34;:6.6799688339233398,&#34;m12&#34;:7.5703215599060059},&#34;opacity&#34;:1.0,&#34;blendMode&#34;:&#34;NORMAL&#34;,&#34;visible&#34;:true}"/>
<g clip-path="url(#paint8_diamond_46_2953_clip_path)" data-figma-skip-parse="true"><g transform="matrix(0.00323315 0.00706015 -0.00789014 0.00361324 40.4625 37.5673)"><rect x="0" y="0" width="1631.54" height="1357.76" fill="url(#paint8_diamond_46_2953)" opacity="1" shape-rendering="crispEdges"/><rect x="0" y="0" width="1631.54" height="1357.76" transform="scale(1 -1)" fill="url(#paint8_diamond_46_2953)" opacity="1" shape-rendering="crispEdges"/><rect x="0" y="0" width="1631.54" height="1357.76" transform="scale(-1 1)" fill="url(#paint8_diamond_46_2953)" opacity="1" shape-rendering="crispEdges"/><rect x="0" y="0" width="1631.54" height="1357.76" transform="scale(-1)" fill="url(#paint8_diamond_46_2953)" opacity="1" shape-rendering="crispEdges"/></g></g><path d="M39.0782 27.7003V47.3829L46.0064 43.4015L48.4359 35.1537C48.4359 35.1537 45.5564 29.5148 39.0769 27.7003H39.0782Z" data-figma-gradient-fill="{&#34;type&#34;:&#34;GRADIENT_DIAMOND&#34;,&#34;stops&#34;:[{&#34;color&#34;:{&#34;r&#34;:0.13333334028720856,&#34;g&#34;:0.90588235855102539,&#34;b&#34;:0.99607843160629272,&#34;a&#34;:1.0},&#34;position&#34;:0.0},{&#34;color&#34;:{&#34;r&#34;:0.18588235974311829,&#34;g&#34;:0.69082552194595337,&#34;b&#34;:0.92513728141784668,&#34;a&#34;:1.0},&#34;position&#34;:0.67000001668930054},{&#34;color&#34;:{&#34;r&#34;:0.21176470816135406,&#34;g&#34;:0.58490198850631714,&#34;b&#34;:0.89019608497619629,&#34;a&#34;:1.0},&#34;position&#34;:1.0}],&#34;stopsVar&#34;:[{&#34;color&#34;:{&#34;r&#34;:0.13333334028720856,&#34;g&#34;:0.90588235855102539,&#34;b&#34;:0.99607843160629272,&#34;a&#34;:1.0},&#34;position&#34;:0.0},{&#34;color&#34;:{&#34;r&#34;:0.18588235974311829,&#34;g&#34;:0.69082552194595337,&#34;b&#34;:0.92513728141784668,&#34;a&#34;:1.0},&#34;position&#34;:0.67000001668930054},{&#34;color&#34;:{&#34;r&#34;:0.21176470816135406,&#34;g&#34;:0.58490198850631714,&#34;b&#34;:0.89019608497619629,&#34;a&#34;:1.0},&#34;position&#34;:1.0}],&#34;transform&#34;:{&#34;m00&#34;:6.4663043022155762,&#34;m01&#34;:-15.780280113220215,&#34;m02&#34;:45.119525909423828,&#34;m10&#34;:14.120293617248535,&#34;m11&#34;:7.2264842987060547,&#34;m12&#34;:26.893918991088867},&#34;opacity&#34;:1.0,&#34;blendMode&#34;:&#34;NORMAL&#34;,&#34;visible&#34;:true}"/>
<g style="mix-blend-mode:soft-light">
<path d="M29.7207 35.1537C29.7207 35.1537 36.6489 42.0198 46.0079 43.4015L47.3288 38.9186C47.3288 38.9186 40.8797 34.0148 39.0797 27.7003C38.086 27.9813 36.9326 28.4129 35.7278 29.0912C32.426 30.9506 30.5983 33.6176 29.7207 35.1537Z" fill="white"/>
</g>
<path opacity="0.8" d="M29.7207 35.1537C29.7207 35.1537 36.6489 42.0198 46.0079 43.4015L47.3288 38.9186C47.3288 38.9186 40.8797 34.0148 39.0797 27.7003C38.086 27.9813 36.9326 28.4129 35.7278 29.0912C32.426 30.9506 30.5983 33.6176 29.7207 35.1537Z" fill="url(#paint9_linear_46_2953)"/>
<g style="mix-blend-mode:soft-light">
<path d="M31.4677 41.0869C31.4677 41.0869 39.0017 44.836 43.9741 44.5694L42.1543 45.6146C42.1543 45.6146 38.7786 46.2718 35.0137 45.0471L32.1487 43.4015L31.4664 41.0869H31.4677Z" fill="white"/>
</g>
<g style="mix-blend-mode:soft-light">
<path d="M45.4073 34.1032C45.4073 34.1032 47.8672 31.3914 50.0565 26.3292C50.0565 26.3292 54.5262 30.205 56.086 33.0845C56.086 33.0845 55.9158 38.9873 54.4681 42.8275C54.4681 42.8275 55.2467 39.7434 45.4073 34.1046V34.1032Z" fill="white"/>
</g>
<path opacity="0.3" d="M45.4073 34.1032C45.4073 34.1032 47.8672 31.3914 50.0565 26.3292C50.0565 26.3292 54.5262 30.205 56.086 33.0845C56.086 33.0845 55.9158 38.9873 54.4681 42.8275C54.4681 42.8275 55.2467 39.7434 45.4073 34.1046V34.1032Z" fill="white"/>
<g style="mix-blend-mode:soft-light" opacity="0.5">
<path d="M39.0782 55.9805C39.0782 55.9805 28.521 46.4143 29.7192 35.1537C29.7192 35.1537 26.3304 40.4033 28.1 51.3511L39.0782 55.9805Z" fill="white"/>
</g>
<path d="M39.0782 55.9805C39.0782 55.9805 28.521 46.4143 29.7192 35.1537C29.7192 35.1537 26.3304 40.4033 28.1 51.3511L39.0782 55.9805Z" fill="url(#paint10_linear_46_2953)"/>
<g style="mix-blend-mode:soft-light">
<path d="M22.0719 33.0831C22.0719 33.0831 35.0519 19.62 36.7095 22.1049C36.7095 22.1049 38.2099 23.1554 39.0796 27.6989V17.7857C39.0796 17.7857 26.6313 25.8844 22.0719 33.0831Z" fill="url(#paint11_linear_46_2953)"/>
</g>
<path opacity="0.7" d="M22.0719 33.0831C22.0719 33.0831 35.1839 19.554 36.7095 22.1049C36.7095 22.1049 38.2099 23.1554 39.0796 27.6989V17.7857C39.0796 17.7857 26.6313 25.8844 22.0719 33.0831Z" fill="url(#paint12_linear_46_2953)"/>
<g style="mix-blend-mode:soft-light">
<path d="M46.0079 43.4002L50.0566 49.1011C50.0566 49.1011 55.1861 43.7024 56.0861 33.0831C56.0162 35.7224 55.6757 37.9632 55.3062 39.7118C54.8773 41.7387 54.3825 43.2194 54.1964 43.7604C53.6487 45.3493 52.9203 47.4146 51.3473 49.6844C50.8458 50.4075 50.3826 50.9724 50.058 51.3498C48.7079 48.6999 47.3579 46.05 46.0093 43.4002H46.0079Z" fill="white"/>
</g>
<path opacity="0.6" d="M46.0079 43.4002L50.0566 49.1011C50.0566 49.1011 55.1861 43.7024 56.0861 33.0831C56.0162 35.7224 55.6757 37.9632 55.3062 39.7118C54.8773 41.7387 54.3825 43.2194 54.1964 43.7604C53.6487 45.3493 52.9203 47.4146 51.3473 49.6844C50.8458 50.4075 50.3826 50.9724 50.058 51.3498C48.7079 48.6999 47.3579 46.05 46.0093 43.4002H46.0079Z" fill="white"/>
<g style="mix-blend-mode:soft-light">
<path d="M50.0563 51.3511L39.0781 55.9805C39.0781 55.9805 43.1268 52.1007 50.0563 51.3511Z" fill="white"/>
</g>
<path opacity="0.75" d="M50.0563 51.3511L39.0781 55.9805C39.0781 55.9805 43.1268 52.1007 50.0563 51.3511Z" fill="url(#paint13_radial_46_2953)"/>
<g style="mix-blend-mode:soft-light">
<path d="M39.0781 27.7003C39.0781 27.7003 44.6867 28.7045 48.4371 35.1537C48.4371 35.1537 46.6675 26.9349 39.0781 27.7003Z" fill="white"/>
</g>
<path d="M39.0781 27.7003C39.0781 27.7003 44.6867 28.7045 48.4371 35.1537C48.4371 35.1537 46.6675 26.9349 39.0781 27.7003Z" fill="url(#paint14_radial_46_2953)"/>
<g style="mix-blend-mode:soft-light">
<path d="M29.7206 35.1537L22.0719 33.0845C22.0719 33.0845 25.6323 31.9113 29.7206 35.1537Z" fill="white"/>
</g>
<path opacity="0.7" d="M29.7206 35.1537L22.0719 33.0845C22.0719 33.0845 25.6323 31.9113 29.7206 35.1537Z" fill="url(#paint15_radial_46_2953)"/>
<path d="M49.9889 47.3327L50.4298 49.4899L52.587 49.9308L50.4298 50.3717L49.9889 52.5289L49.5479 50.3717L47.3907 49.9308L49.5479 49.4899L49.9889 47.3327Z" fill="white"/>
<g filter="url(#filter2_f_46_2953)">
<path d="M49.9889 47.3327L50.4298 49.4899L52.587 49.9308L50.4298 50.3717L49.9889 52.5289L49.5479 50.3717L47.3907 49.9308L49.5479 49.4899L49.9889 47.3327Z" fill="white"/>
</g>
<path d="M23.6398 29.7813L24.1553 32.3037L26.6778 32.8193L24.1553 33.3349L23.6398 35.8573L23.1242 33.3349L20.6018 32.8193L23.1242 32.3037L23.6398 29.7813Z" fill="white"/>
<g filter="url(#filter3_f_46_2953)">
<path d="M23.6398 29.7813L24.1553 32.3037L26.6778 32.8193L24.1553 33.3349L23.6398 35.8573L23.1242 33.3349L20.6018 32.8193L23.1242 32.3037L23.6398 29.7813Z" fill="white"/>
</g>
<path d="M49.9934 25.4265L50.3231 27.0395L51.9361 27.3692L50.3231 27.6989L49.9934 29.3119L49.6637 27.6989L48.0507 27.3692L49.6637 27.0395L49.9934 25.4265Z" fill="white"/>
<g filter="url(#filter4_f_46_2953)">
<path d="M49.9934 25.4265L50.3231 27.0395L51.9361 27.3692L50.3231 27.6989L49.9934 29.3119L49.6637 27.6989L48.0507 27.3692L49.6637 27.0395L49.9934 25.4265Z" fill="white"/>
</g>
<g style="mix-blend-mode:overlay" filter="url(#filter5_f_46_2953)">
<g style="mix-blend-mode:lighten">
<path d="M33.9329 29.9544C33.9119 29.8615 33.9704 29.767 34.0633 29.746C34.1563 29.725 34.2508 29.7835 34.2718 29.8764C34.2928 29.9694 34.2343 30.0638 34.1413 30.0848C34.0483 30.1058 33.9539 30.0473 33.9329 29.9544Z" fill="#FFFBFC"/>
</g>
<g style="mix-blend-mode:lighten">
<path d="M47.3507 41.8021C47.3177 41.6597 47.4077 41.5173 47.5502 41.4858C47.6926 41.4528 47.8351 41.5428 47.8666 41.6852C47.8996 41.8276 47.8096 41.97 47.6671 42.0015C47.5247 42.0345 47.3822 41.9445 47.3507 41.8021Z" fill="#FFFBFC"/>
</g>
<g style="mix-blend-mode:lighten">
<path d="M30.8375 32.2778C30.803 32.1234 30.899 31.969 31.0534 31.9346C31.2079 31.9001 31.3624 31.996 31.3969 32.1504C31.4314 32.3048 31.3354 32.4592 31.1809 32.4937C31.0264 32.5282 30.872 32.4322 30.8375 32.2778Z" fill="#FFFBFC"/>
</g>
<g style="mix-blend-mode:lighten">
<path d="M34.7127 33.9431C34.8402 34.102 34.8162 34.3344 34.6572 34.4633C34.4982 34.5907 34.2658 34.5667 34.1368 34.4078C34.0093 34.2489 34.0333 34.0166 34.1923 33.8877C34.3513 33.7602 34.5837 33.7842 34.7127 33.9431Z" fill="#FFFBFC"/>
</g>
<g style="mix-blend-mode:lighten">
<path d="M36.049 33.5444C36.157 33.6793 36.136 33.8757 36.0011 33.9836C35.8661 34.0916 35.6696 34.0706 35.5616 33.9357C35.4536 33.8008 35.4746 33.6044 35.6096 33.4965C35.7446 33.3885 35.9411 33.4095 36.049 33.5444Z" fill="#FFFBFC"/>
</g>
<g style="mix-blend-mode:lighten">
<path d="M36.0986 31.5854C36.1525 31.6528 36.142 31.7532 36.0746 31.8072C36.0071 31.8612 35.9066 31.8507 35.8526 31.7832C35.7986 31.7158 35.8091 31.6153 35.8766 31.5614C35.9441 31.5074 36.0446 31.5179 36.0986 31.5854Z" fill="#FFFBFC"/>
</g>
<g style="mix-blend-mode:lighten">
<path d="M39.9397 36.2245C39.9172 36.1331 39.9742 36.0402 40.0657 36.0177C40.1572 35.9952 40.2502 36.0521 40.2727 36.1436C40.2952 36.235 40.2382 36.328 40.1467 36.3504C40.0552 36.3729 39.9622 36.316 39.9397 36.2245Z" fill="#FFFBFC"/>
</g>
<g style="mix-blend-mode:lighten">
<path d="M37.0959 33.3856C37.0704 33.2791 37.1364 33.1712 37.2429 33.1457C37.3494 33.1202 37.4574 33.1862 37.4829 33.2926C37.5084 33.3991 37.4424 33.507 37.3359 33.5325C37.2294 33.558 37.1214 33.492 37.0959 33.3856Z" fill="#FFFBFC"/>
</g>
<g style="mix-blend-mode:lighten">
<path d="M28.1342 41.1901C28.0862 40.9922 28.2092 40.7928 28.4071 40.7449C28.6051 40.6969 28.8046 40.8198 28.8526 41.0177C28.9006 41.2156 28.7776 41.4149 28.5796 41.4629C28.3816 41.5109 28.1822 41.388 28.1342 41.1901Z" fill="#FFFBFC"/>
</g>
<g style="mix-blend-mode:lighten">
<path d="M44.104 49.4276C44.2435 49.4021 44.3785 49.4936 44.404 49.633C44.4295 49.7724 44.338 49.9073 44.1985 49.9328C44.059 49.9583 43.924 49.8668 43.8985 49.7274C43.8731 49.588 43.9645 49.4531 44.104 49.4276Z" fill="#FFFBFC"/>
</g>
<g style="mix-blend-mode:lighten">
<path d="M36.4092 49.5396C36.4992 49.5232 36.5847 49.5816 36.6011 49.6716C36.6176 49.7615 36.5592 49.8469 36.4692 49.8634C36.3792 49.8799 36.2937 49.8215 36.2772 49.7315C36.2607 49.6416 36.3192 49.5561 36.4092 49.5396Z" fill="#FFFBFC"/>
</g>
<g style="mix-blend-mode:lighten">
<path d="M36.7586 47.6029C36.9505 47.567 37.1335 47.6929 37.1695 47.8848C37.2055 48.0766 37.0795 48.2595 36.8875 48.2955C36.6956 48.3315 36.5126 48.2055 36.4766 48.0137C36.4406 47.8218 36.5666 47.6389 36.7586 47.6029Z" fill="#FFFBFC"/>
</g>
<g style="mix-blend-mode:lighten">
<path d="M35.5272 46.6047C35.7101 46.5702 35.8871 46.6916 35.9216 46.8745C35.9561 47.0574 35.8346 47.2343 35.6516 47.2687C35.4687 47.3032 35.2917 47.1818 35.2572 46.9989C35.2227 46.816 35.3442 46.6391 35.5272 46.6047Z" fill="#FFFBFC"/>
</g>
<g style="mix-blend-mode:lighten">
<path d="M35.7836 45.356C35.9381 45.3275 36.0881 45.4295 36.1166 45.5839C36.1451 45.7383 36.0431 45.8882 35.8886 45.9167C35.7342 45.9451 35.5842 45.8432 35.5557 45.6888C35.5272 45.5344 35.6292 45.3845 35.7836 45.356Z" fill="#FFFBFC"/>
</g>
<g style="mix-blend-mode:lighten">
<path d="M34.2253 44.4703C34.3033 44.4553 34.3798 44.5077 34.3933 44.5857C34.4083 44.6636 34.3558 44.7401 34.2778 44.7536C34.1998 44.7686 34.1234 44.7161 34.1099 44.6382C34.0949 44.5602 34.1474 44.4838 34.2253 44.4703Z" fill="#FFFBFC"/>
</g>
<g style="mix-blend-mode:lighten">
<path d="M40.6969 33.4049C40.8034 33.5383 40.7824 33.7317 40.6504 33.8381C40.517 33.9446 40.3235 33.9236 40.217 33.7917C40.1105 33.6583 40.1315 33.4649 40.2635 33.3585C40.397 33.252 40.5905 33.273 40.6969 33.4049Z" fill="#FFFBFC"/>
</g>
<path d="M43.1207 30.3202C43.1792 30.3921 43.1672 30.497 43.0952 30.5555C43.0232 30.614 42.9182 30.602 42.8597 30.53C42.8012 30.4581 42.8132 30.3531 42.8852 30.2947C42.9572 30.2362 43.0622 30.2482 43.1207 30.3202Z" fill="#FFFBFC"/>
</g>
<g style="mix-blend-mode:lighten">
<path d="M47.3508 41.8015C47.3178 41.6591 47.4078 41.5167 47.5503 41.4852C47.6928 41.4522 47.8352 41.5422 47.8667 41.6846C47.8997 41.827 47.8097 41.9694 47.6673 42.0009C47.5248 42.0339 47.3823 41.9439 47.3508 41.8015Z" fill="#FFFBFC"/>
</g>
<g style="mix-blend-mode:lighten">
<path d="M30.8381 32.2771C30.8036 32.1227 30.8996 31.9683 31.054 31.9338C31.2085 31.8994 31.363 31.9953 31.3975 32.1497C31.432 32.3041 31.336 32.4585 31.1815 32.493C31.027 32.5274 30.8726 32.4315 30.8381 32.2771Z" fill="#FFFBFC"/>
</g>
<g style="mix-blend-mode:lighten">
<path d="M34.7128 33.9437C34.8403 34.1026 34.8163 34.335 34.6573 34.4639C34.4984 34.5913 34.2659 34.5673 34.1369 34.4084C34.0094 34.2495 34.0334 34.0172 34.1924 33.8883C34.3514 33.7609 34.5838 33.7848 34.7128 33.9437Z" fill="#FFFBFC"/>
</g>
<g style="mix-blend-mode:lighten">
<path d="M37.7196 35.6687C37.8276 35.8036 37.8066 36 37.6716 36.1079C37.5366 36.2158 37.3401 36.1949 37.2322 36.0599C37.1242 35.925 37.1452 35.7287 37.2801 35.6207C37.4151 35.5128 37.6116 35.5338 37.7196 35.6687Z" fill="#FFFBFC"/>
</g>
<g style="mix-blend-mode:lighten">
<path d="M36.0986 31.5847C36.1525 31.6521 36.142 31.7526 36.0746 31.8065C36.0071 31.8605 35.9066 31.85 35.8526 31.7826C35.7986 31.7151 35.8091 31.6147 35.8766 31.5607C35.9441 31.5067 36.0446 31.5172 36.0986 31.5847Z" fill="#FFFBFC"/>
</g>
<g style="mix-blend-mode:lighten">
<path d="M39.9392 36.225C39.9167 36.1336 39.9737 36.0406 40.0652 36.0182C40.1567 35.9957 40.2497 36.0526 40.2722 36.1441C40.2947 36.2355 40.2377 36.3285 40.1462 36.3509C40.0547 36.3734 39.9617 36.3165 39.9392 36.225Z" fill="#FFFBFC"/>
</g>
<g style="mix-blend-mode:lighten">
<path d="M37.0965 33.3852C37.071 33.2788 37.137 33.1708 37.2435 33.1454C37.35 33.1199 37.458 33.1858 37.4835 33.2923C37.509 33.3987 37.443 33.5066 37.3365 33.5321C37.23 33.5576 37.122 33.4916 37.0965 33.3852Z" fill="#FFFBFC"/>
</g>
<g style="mix-blend-mode:lighten">
<path d="M35.1249 36.0782C35.0889 35.9268 35.1819 35.7754 35.3334 35.7379C35.4849 35.7019 35.6363 35.7949 35.6738 35.9463C35.7098 36.0977 35.6169 36.2491 35.4654 36.2865C35.3139 36.3225 35.1624 36.2296 35.1249 36.0782Z" fill="#FFFBFC"/>
</g>
<g style="mix-blend-mode:lighten">
<path d="M34.178 38.2176C34.154 38.1201 34.214 38.0242 34.3115 38.0002C34.409 37.9762 34.505 38.0362 34.529 38.1336C34.553 38.2311 34.493 38.327 34.3955 38.351C34.298 38.375 34.202 38.315 34.178 38.2176Z" fill="#FFFBFC"/>
</g>
<g style="mix-blend-mode:lighten">
<path d="M29.1373 35.4153C29.0878 35.2084 29.2152 35.0001 29.4222 34.9506C29.6292 34.9011 29.8376 35.0285 29.8871 35.2354C29.9366 35.4423 29.8092 35.6506 29.6022 35.7001C29.3952 35.7496 29.1867 35.6222 29.1373 35.4153Z" fill="#FFFBFC"/>
</g>
<g style="mix-blend-mode:lighten">
<path d="M29.1379 35.4161C29.0884 35.2092 29.2158 35.0009 29.4228 34.9514C29.6298 34.9019 29.8383 35.0293 29.8877 35.2362C29.9372 35.4431 29.8098 35.6514 29.6028 35.7009C29.3958 35.7504 29.1874 35.623 29.1379 35.4161Z" fill="#FFFBFC"/>
</g>
<g style="mix-blend-mode:lighten">
<path d="M28.1342 41.19C28.0862 40.9922 28.2092 40.7928 28.4071 40.7448C28.6051 40.6968 28.8046 40.8198 28.8526 41.0176C28.9006 41.2155 28.7776 41.4149 28.5796 41.4629C28.3816 41.5108 28.1822 41.3879 28.1342 41.19Z" fill="#FFFBFC"/>
</g>
<g style="mix-blend-mode:lighten">
<path d="M44.1045 49.4277C44.244 49.4022 44.379 49.4936 44.4045 49.633C44.43 49.7724 44.3385 49.9073 44.199 49.9328C44.0595 49.9583 43.9245 49.8669 43.899 49.7275C43.8735 49.5881 43.965 49.4531 44.1045 49.4277Z" fill="#FFFBFC"/>
</g>
<g style="mix-blend-mode:lighten">
<path d="M36.4088 49.5394C36.4988 49.5229 36.5843 49.5814 36.6008 49.6713C36.6173 49.7613 36.5588 49.8467 36.4688 49.8632C36.3788 49.8797 36.2933 49.8212 36.2768 49.7313C36.2603 49.6413 36.3188 49.5559 36.4088 49.5394Z" fill="#FFFBFC"/>
</g>
<g style="mix-blend-mode:lighten">
<path d="M36.7589 47.6035C36.9509 47.5676 37.1339 47.6935 37.1699 47.8854C37.2059 48.0772 37.0799 48.2601 36.8879 48.2961C36.6959 48.3321 36.513 48.2062 36.477 48.0143C36.441 47.8224 36.5669 47.6395 36.7589 47.6035Z" fill="#FFFBFC"/>
</g>
<g style="mix-blend-mode:lighten">
<path d="M35.5275 46.604C35.7105 46.5695 35.8875 46.6909 35.922 46.8738C35.9565 47.0567 35.835 47.2336 35.652 47.2681C35.469 47.3025 35.2921 47.1811 35.2576 46.9982C35.2231 46.8154 35.3446 46.6385 35.5275 46.604Z" fill="#FFFBFC"/>
</g>
<g style="mix-blend-mode:lighten">
<path d="M35.7833 45.3558C35.9378 45.3274 36.0877 45.4293 36.1162 45.5837C36.1447 45.7381 36.0427 45.888 35.8883 45.9165C35.7338 45.945 35.5838 45.843 35.5553 45.6886C35.5268 45.5342 35.6288 45.3843 35.7833 45.3558Z" fill="#FFFBFC"/>
</g>
<g style="mix-blend-mode:lighten">
<path d="M34.2256 44.4704C34.3036 44.4554 34.3801 44.5079 34.3936 44.5858C34.4086 44.6638 34.3561 44.7402 34.2781 44.7537C34.2001 44.7687 34.1236 44.7162 34.1101 44.6383C34.0951 44.5603 34.1476 44.4839 34.2256 44.4704Z" fill="#FFFBFC"/>
</g>
<g style="mix-blend-mode:lighten">
<path d="M40.6974 33.4043C40.8039 33.5377 40.7829 33.7311 40.6509 33.8375C40.5175 33.944 40.324 33.923 40.2175 33.7911C40.111 33.6577 40.132 33.4643 40.264 33.3578C40.3975 33.2514 40.5909 33.2724 40.6974 33.4043Z" fill="#FFFBFC"/>
</g>
<path d="M43.121 30.3206C43.1795 30.3926 43.1675 30.4975 43.0955 30.556C43.0235 30.6145 42.9186 30.6025 42.8601 30.5305C42.8016 30.4586 42.8136 30.3536 42.8856 30.2952C42.9575 30.2367 43.0625 30.2487 43.121 30.3206Z" fill="#FFFBFC"/>
<path d="M29.3772 29.3974L29.4623 29.8158L29.8786 29.9013L29.4623 29.9868L29.3772 30.4051L29.2921 29.9868L28.8759 29.9013L29.2921 29.8158L29.3772 29.3974Z" fill="white"/>
<g filter="url(#filter6_f_46_2953)">
<path d="M29.3772 29.3974L29.4623 29.8158L29.8786 29.9013L29.4623 29.9868L29.3772 30.4051L29.2921 29.9868L28.8759 29.9013L29.2921 29.8158L29.3772 29.3974Z" fill="white"/>
</g>
<path d="M51.2787 42.0086L51.571 42.3185L51.9694 42.1699L51.661 42.4637L51.8089 42.864L51.5166 42.5541L51.1182 42.7027L51.4266 42.4089L51.2787 42.0086Z" fill="white"/>
<g filter="url(#filter7_f_46_2953)">
<path d="M51.2787 42.0086L51.571 42.3185L51.9694 42.1699L51.661 42.4637L51.8089 42.864L51.5166 42.5541L51.1182 42.7027L51.4266 42.4089L51.2787 42.0086Z" fill="white"/>
</g>
<path d="M29.9634 45.3867L30.1333 45.778L30.5582 45.7745L30.1688 45.9453L30.1723 46.3723L30.0024 45.9809L29.5775 45.9844L29.9669 45.8137L29.9634 45.3867Z" fill="white"/>
<g filter="url(#filter8_f_46_2953)">
<path d="M29.9634 45.3867L30.1333 45.778L30.5582 45.7745L30.1688 45.9453L30.1723 46.3723L30.0024 45.9809L29.5775 45.9844L29.9669 45.8137L29.9634 45.3867Z" fill="white"/>
</g>
</g>
<g style="mix-blend-mode:overlay" filter="url(#filter9_f_46_2953)">
<g style="mix-blend-mode:lighten">
<path d="M25.5154 11.6445C25.471 11.4481 25.5946 11.2486 25.791 11.2042C25.9875 11.1599 26.1871 11.2834 26.2314 11.4798C26.2758 11.6762 26.1522 11.8758 25.9558 11.9201C25.7593 11.9645 25.5597 11.8409 25.5154 11.6445Z" fill="#FFFBFC"/>
</g>
<g style="mix-blend-mode:lighten">
<path d="M53.8624 36.6832C53.7927 36.3823 53.9828 36.0814 54.2838 36.0148C54.5848 35.9451 54.8859 36.1352 54.9524 36.4362C55.0221 36.7371 54.832 37.038 54.531 37.1046C54.23 37.1743 53.929 36.9842 53.8624 36.6832Z" fill="#FFFBFC"/>
</g>
<g style="mix-blend-mode:lighten">
<path d="M18.9759 16.5549C18.903 16.2286 19.1058 15.9023 19.4321 15.8295C19.7585 15.7566 20.0849 15.9593 20.1577 16.2856C20.2306 16.6119 20.0278 16.9382 19.7015 17.0111C19.3751 17.0839 19.0488 16.8812 18.9759 16.5549Z" fill="#FFFBFC"/>
</g>
<g style="mix-blend-mode:lighten">
<path d="M27.1631 20.0743C27.4324 20.4101 27.3817 20.9011 27.0458 21.1736C26.71 21.4428 26.2189 21.3922 25.9464 21.0564C25.677 20.7206 25.7277 20.2296 26.0636 19.9571C26.3995 19.6879 26.8906 19.7386 27.1631 20.0743Z" fill="#FFFBFC"/>
</g>
<g style="mix-blend-mode:lighten">
<path d="M29.986 19.2316C30.2141 19.5167 30.1697 19.9317 29.8846 20.1598C29.5994 20.3879 29.1843 20.3435 28.9562 20.0584C28.7281 19.7733 28.7724 19.3583 29.0576 19.1302C29.3428 18.9022 29.7578 18.9465 29.986 19.2316Z" fill="#FFFBFC"/>
</g>
<g style="mix-blend-mode:lighten">
<path d="M30.0908 15.0915C30.2048 15.234 30.1826 15.4463 30.0401 15.5603C29.8975 15.6743 29.6852 15.6522 29.5711 15.5096C29.4571 15.3671 29.4792 15.1548 29.6218 15.0408C29.7644 14.9267 29.9767 14.9489 30.0908 15.0915Z" fill="#FFFBFC"/>
</g>
<g style="mix-blend-mode:lighten">
<path d="M38.2056 24.8958C38.158 24.7025 38.2784 24.5061 38.4717 24.4586C38.665 24.4111 38.8614 24.5315 38.909 24.7247C38.9565 24.918 38.8361 25.1144 38.6428 25.1619C38.4495 25.2094 38.2531 25.089 38.2056 24.8958Z" fill="#FFFBFC"/>
</g>
<g style="mix-blend-mode:lighten">
<path d="M32.1978 18.8959C32.144 18.671 32.2834 18.4429 32.5084 18.3891C32.7333 18.3352 32.9615 18.4746 33.0153 18.6995C33.0692 18.9244 32.9298 19.1525 32.7048 19.2064C32.4798 19.2602 32.2517 19.1208 32.1978 18.8959Z" fill="#FFFBFC"/>
</g>
<g style="mix-blend-mode:lighten">
<path d="M25.7884 24.5853C25.7124 24.2653 25.9088 23.9454 26.2289 23.8662C26.5489 23.7902 26.8689 23.9866 26.9481 24.3065C27.0242 24.6265 26.8277 24.9464 26.5077 25.0256C26.1877 25.1017 25.8677 24.9052 25.7884 24.5853Z" fill="#FFFBFC"/>
</g>
<g style="mix-blend-mode:lighten">
<path d="M24.7519 29.1087C24.7012 28.9028 24.8279 28.7001 25.0339 28.6494C25.2398 28.5987 25.4426 28.7254 25.4933 28.9313C25.544 29.1373 25.4173 29.34 25.2113 29.3907C25.0054 29.4414 24.8026 29.3147 24.7519 29.1087Z" fill="#FFFBFC"/>
</g>
<g style="mix-blend-mode:lighten">
<path d="M19.3339 20.849C19.2294 20.4118 19.4987 19.9715 19.9359 19.8669C20.3732 19.7624 20.8136 20.0317 20.9182 20.4688C21.0227 20.906 20.7534 21.3463 20.3162 21.4509C19.8789 21.5554 19.4385 21.2861 19.3339 20.849Z" fill="#FFFBFC"/>
</g>
<g style="mix-blend-mode:lighten">
<path d="M21.8678 33.7954C21.7664 33.3773 22.0262 32.956 22.4444 32.8546C22.8627 32.7532 23.2841 33.013 23.3855 33.4311C23.4869 33.8493 23.227 34.2706 22.8088 34.372C22.3906 34.4733 21.9692 34.2136 21.8678 33.7954Z" fill="#FFFBFC"/>
</g>
<g style="mix-blend-mode:lighten">
<path d="M15.1676 31.0413C15.082 30.6865 15.3007 30.3285 15.6555 30.2461C16.0104 30.1606 16.3684 30.3792 16.4508 30.734C16.5364 31.0888 16.3178 31.4468 15.9629 31.5291C15.608 31.6146 15.25 31.3961 15.1676 31.0413Z" fill="#FFFBFC"/>
</g>
<g style="mix-blend-mode:lighten">
<path d="M13.3012 34.7413C13.2568 34.5607 13.3677 34.3833 13.5483 34.339C13.7289 34.2946 13.9063 34.4055 13.9507 34.5861C13.9951 34.7667 13.8842 34.944 13.7036 34.9884C13.5229 35.0327 13.3455 34.9219 13.3012 34.7413Z" fill="#FFFBFC"/>
</g>
<g style="mix-blend-mode:lighten">
<path d="M47.0034 52.7989C47.2981 52.745 47.5832 52.9382 47.6371 53.2328C47.691 53.5275 47.4977 53.8126 47.203 53.8664C46.9083 53.9203 46.6232 53.727 46.5693 53.4324C46.5154 53.1378 46.7087 52.8527 47.0034 52.7989Z" fill="#FFFBFC"/>
</g>
<g style="mix-blend-mode:lighten">
<path d="M30.7469 53.0355C30.937 53.0007 31.1176 53.1242 31.1524 53.3143C31.1873 53.5044 31.0637 53.6849 30.8736 53.7198C30.6835 53.7546 30.5029 53.6311 30.468 53.441C30.4332 53.251 30.5568 53.0704 30.7469 53.0355Z" fill="#FFFBFC"/>
</g>
<g style="mix-blend-mode:lighten">
<path d="M31.485 48.9426C31.8906 48.8666 32.2771 49.1327 32.3532 49.5381C32.4292 49.9436 32.163 50.3301 31.7575 50.4061C31.3519 50.4822 30.9654 50.2161 30.8893 49.8106C30.8133 49.4051 31.0794 49.0186 31.485 48.9426Z" fill="#FFFBFC"/>
</g>
<g style="mix-blend-mode:lighten">
<path d="M28.8835 46.8329C29.27 46.7601 29.6439 47.0167 29.7168 47.4031C29.7897 47.7896 29.533 48.1634 29.1465 48.2363C28.7599 48.3091 28.386 48.0525 28.3132 47.6661C28.2403 47.2796 28.4969 46.9058 28.8835 46.8329Z" fill="#FFFBFC"/>
</g>
<g style="mix-blend-mode:lighten">
<path d="M29.4255 44.1941C29.7519 44.1339 30.0687 44.3493 30.1289 44.6756C30.1891 45.0019 29.9737 45.3187 29.6473 45.3789C29.321 45.4391 29.0041 45.2237 28.9439 44.8974C28.8837 44.5711 29.0992 44.2543 29.4255 44.1941Z" fill="#FFFBFC"/>
</g>
<g style="mix-blend-mode:lighten">
<path d="M26.1334 42.3221C26.2982 42.2904 26.4598 42.4013 26.4883 42.566C26.52 42.7308 26.4091 42.8923 26.2443 42.9208C26.0796 42.9525 25.918 42.8416 25.8894 42.6769C25.8578 42.5122 25.9687 42.3506 26.1334 42.3221Z" fill="#FFFBFC"/>
</g>
<g style="mix-blend-mode:lighten">
<path d="M33.0247 13.7733C33.2148 14.0077 33.1768 14.3498 32.9423 14.5399C32.7078 14.7299 32.3656 14.6919 32.1755 14.4575C31.9854 14.2231 32.0235 13.881 32.2579 13.6909C32.4924 13.5008 32.8346 13.5388 33.0247 13.7733Z" fill="#FFFBFC"/>
</g>
<g style="mix-blend-mode:lighten">
<path d="M39.8054 18.9369C40.0304 19.2188 39.986 19.6275 39.7072 19.8524C39.4252 20.0773 39.0165 20.033 38.7915 19.7542C38.5666 19.4722 38.6109 19.0636 38.8898 18.8387C39.1717 18.6138 39.5805 18.6581 39.8054 18.9369Z" fill="#FFFBFC"/>
</g>
<path d="M39.1179 14.404C39.2415 14.5592 39.2193 14.7841 39.0641 14.9108C38.9088 15.0344 38.6838 15.0122 38.5571 14.857C38.4335 14.7018 38.4557 14.4768 38.611 14.3501C38.7662 14.2266 38.9912 14.2487 39.1179 14.404Z" fill="#FFFBFC"/>
<path d="M44.9259 12.4176C45.0495 12.5696 45.0241 12.7914 44.872 12.9149C44.72 13.0385 44.4982 13.0131 44.3746 12.8611C44.251 12.709 44.2764 12.4873 44.4285 12.3637C44.5805 12.2402 44.8023 12.2655 44.9259 12.4176Z" fill="#FFFBFC"/>
</g>
<g style="mix-blend-mode:lighten">
<path d="M25.5154 11.6445C25.471 11.4481 25.5946 11.2486 25.791 11.2042C25.9875 11.1599 26.1871 11.2834 26.2314 11.4798C26.2758 11.6762 26.1522 11.8758 25.9558 11.9201C25.7593 11.9645 25.5597 11.8409 25.5154 11.6445Z" fill="#FFFBFC"/>
</g>
<g style="mix-blend-mode:lighten">
<path d="M53.8623 36.6832C53.7926 36.3823 53.9827 36.0814 54.2837 36.0148C54.5847 35.9451 54.8857 36.1352 54.9523 36.4362C55.022 36.7371 54.8319 37.038 54.5309 37.1046C54.2299 37.1743 53.9288 36.9842 53.8623 36.6832Z" fill="#FFFBFC"/>
</g>
<g style="mix-blend-mode:lighten">
<path d="M18.9758 16.5549C18.9029 16.2286 19.1057 15.9023 19.432 15.8295C19.7584 15.7566 20.0847 15.9593 20.1576 16.2856C20.2305 16.6119 20.0277 16.9382 19.7013 17.0111C19.375 17.0839 19.0486 16.8812 18.9758 16.5549Z" fill="#FFFBFC"/>
</g>
<g style="mix-blend-mode:lighten">
<path d="M27.1628 20.0744C27.4321 20.4102 27.3814 20.9012 27.0456 21.1736C26.7097 21.4429 26.2186 21.3922 25.9461 21.0564C25.6768 20.7206 25.7275 20.2296 26.0634 19.9572C26.3992 19.6879 26.8903 19.7386 27.1628 20.0744Z" fill="#FFFBFC"/>
</g>
<g style="mix-blend-mode:lighten">
<path d="M29.986 19.2316C30.2141 19.5167 30.1697 19.9317 29.8846 20.1597C29.5994 20.3878 29.1843 20.3435 28.9562 20.0584C28.7281 19.7733 28.7724 19.3583 29.0576 19.1302C29.3428 18.9021 29.7578 18.9465 29.986 19.2316Z" fill="#FFFBFC"/>
</g>
<g style="mix-blend-mode:lighten">
<path d="M30.0906 15.0914C30.2047 15.2339 30.1825 15.4462 30.0399 15.5602C29.8974 15.6743 29.6851 15.6521 29.571 15.5095C29.4569 15.367 29.4791 15.1548 29.6217 15.0407C29.7643 14.9267 29.9766 14.9488 30.0906 15.0914Z" fill="#FFFBFC"/>
</g>
<g style="mix-blend-mode:lighten">
<path d="M38.2053 24.8958C38.1578 24.7025 38.2782 24.5061 38.4715 24.4586C38.6648 24.4111 38.8612 24.5315 38.9087 24.7247C38.9563 24.918 38.8359 25.1144 38.6426 25.1619C38.4493 25.2094 38.2528 25.089 38.2053 24.8958Z" fill="#FFFBFC"/>
</g>
<g style="mix-blend-mode:lighten">
<path d="M32.1978 18.8959C32.144 18.6709 32.2834 18.4429 32.5084 18.389C32.7333 18.3352 32.9615 18.4745 33.0153 18.6995C33.0692 18.9244 32.9298 19.1525 32.7048 19.2063C32.4798 19.2602 32.2517 19.1208 32.1978 18.8959Z" fill="#FFFBFC"/>
</g>
<g style="mix-blend-mode:lighten">
<path d="M25.7881 24.5854C25.712 24.2654 25.9085 23.9455 26.2285 23.8663C26.5485 23.7902 26.8685 23.9866 26.9477 24.3066C27.0238 24.6265 26.8273 24.9465 26.5073 25.0257C26.1873 25.1017 25.8673 24.9053 25.7881 24.5854Z" fill="#FFFBFC"/>
</g>
<g style="mix-blend-mode:lighten">
<path d="M24.7518 29.1091C24.7011 28.9031 24.8278 28.7004 25.0338 28.6497C25.2397 28.599 25.4425 28.7257 25.4932 28.9317C25.5439 29.1376 25.4172 29.3403 25.2112 29.391C25.0052 29.4417 24.8025 29.315 24.7518 29.1091Z" fill="#FFFBFC"/>
</g>
<g style="mix-blend-mode:lighten">
<path d="M19.3339 20.849C19.2294 20.4119 19.4987 19.9715 19.9359 19.867C20.3732 19.7625 20.8136 20.0317 20.9182 20.4689C21.0227 20.9061 20.7534 21.3464 20.3162 21.4509C19.8789 21.5555 19.4385 21.2862 19.3339 20.849Z" fill="#FFFBFC"/>
</g>
<g style="mix-blend-mode:lighten">
<path d="M21.8678 33.7954C21.7664 33.3773 22.0262 32.956 22.4444 32.8546C22.8627 32.7532 23.2841 33.013 23.3855 33.4311C23.4869 33.8493 23.227 34.2706 22.8088 34.372C22.3906 34.4733 21.9692 34.2136 21.8678 33.7954Z" fill="#FFFBFC"/>
</g>
<g style="mix-blend-mode:lighten">
<path d="M15.1673 31.0413C15.0818 30.6865 15.3004 30.3285 15.6553 30.2461C16.0102 30.1606 16.3682 30.3792 16.4506 30.734C16.5361 31.0888 16.3175 31.4468 15.9626 31.5291C15.6078 31.6146 15.2497 31.3961 15.1673 31.0413Z" fill="#FFFBFC"/>
</g>
<g style="mix-blend-mode:lighten">
<path d="M13.3009 34.7413C13.2565 34.5607 13.3674 34.3833 13.5481 34.339C13.7287 34.2946 13.9061 34.4055 13.9504 34.5861C13.9948 34.7667 13.8839 34.944 13.7033 34.9884C13.5227 35.0327 13.3453 34.9219 13.3009 34.7413Z" fill="#FFFBFC"/>
</g>
<g style="mix-blend-mode:lighten">
<path d="M47.0031 52.7992C47.2978 52.7453 47.583 52.9385 47.6368 53.2332C47.6907 53.5278 47.4974 53.8129 47.2028 53.8667C46.9081 53.9206 46.6229 53.7273 46.5691 53.4327C46.5152 53.1381 46.7085 52.853 47.0031 52.7992Z" fill="#FFFBFC"/>
</g>
<g style="mix-blend-mode:lighten">
<path d="M30.7469 53.0355C30.937 53.0007 31.1176 53.1242 31.1524 53.3143C31.1873 53.5044 31.0637 53.6849 30.8736 53.7198C30.6835 53.7546 30.5029 53.6311 30.468 53.441C30.4332 53.251 30.5568 53.0704 30.7469 53.0355Z" fill="#FFFBFC"/>
</g>
<g style="mix-blend-mode:lighten">
<path d="M31.4847 48.9426C31.8903 48.8666 32.2769 49.1327 32.3529 49.5381C32.429 49.9436 32.1628 50.3301 31.7572 50.4061C31.3517 50.4822 30.9651 50.2161 30.8891 49.8106C30.813 49.4051 31.0792 49.0186 31.4847 48.9426Z" fill="#FFFBFC"/>
</g>
<g style="mix-blend-mode:lighten">
<path d="M28.8834 46.8329C29.2699 46.7601 29.6438 47.0167 29.7167 47.4031C29.7895 47.7896 29.5329 48.1634 29.1463 48.2363C28.7598 48.3091 28.3859 48.0525 28.313 47.6661C28.2402 47.2796 28.4968 46.9058 28.8834 46.8329Z" fill="#FFFBFC"/>
</g>
<g style="mix-blend-mode:lighten">
<path d="M29.4254 44.1941C29.7518 44.1339 30.0686 44.3493 30.1288 44.6756C30.189 45.0019 29.9736 45.3187 29.6472 45.3789C29.3209 45.4391 29.004 45.2237 28.9438 44.8974C28.8836 44.5711 29.0991 44.2543 29.4254 44.1941Z" fill="#FFFBFC"/>
</g>
<g style="mix-blend-mode:lighten">
<path d="M26.1333 42.3221C26.2981 42.2904 26.4596 42.4013 26.4882 42.566C26.5199 42.7307 26.409 42.8923 26.2442 42.9208C26.0794 42.9525 25.9178 42.8416 25.8893 42.6769C25.8576 42.5121 25.9685 42.3506 26.1333 42.3221Z" fill="#FFFBFC"/>
</g>
<g style="mix-blend-mode:lighten">
<path d="M33.0244 13.7736C33.2146 14.008 33.1765 14.3501 32.9421 14.5402C32.7076 14.7302 32.3654 14.6922 32.1753 14.4578C31.9852 14.2234 32.0232 13.8813 32.2577 13.6912C32.4921 13.5011 32.8343 13.5391 33.0244 13.7736Z" fill="#FFFBFC"/>
</g>
<g style="mix-blend-mode:lighten">
<path d="M39.8053 18.9369C40.0303 19.2188 39.9859 19.6275 39.7071 19.8524C39.4251 20.0773 39.0164 20.033 38.7914 19.7542C38.5664 19.4722 38.6108 19.0636 38.8896 18.8387C39.1716 18.6138 39.5804 18.6581 39.8053 18.9369Z" fill="#FFFBFC"/>
</g>
<path d="M39.1178 14.4039C39.2414 14.5591 39.2192 14.7841 39.0639 14.9108C38.9087 15.0343 38.6837 15.0121 38.557 14.8569C38.4334 14.7017 38.4556 14.4768 38.6109 14.3501C38.7661 14.2265 38.9911 14.2487 39.1178 14.4039Z" fill="#FFFBFC"/>
<path d="M44.9258 12.4176C45.0494 12.5696 45.024 12.7914 44.8719 12.9149C44.7198 13.0385 44.498 13.0131 44.3745 12.8611C44.2509 12.709 44.2762 12.4873 44.4283 12.3637C44.5804 12.2402 44.8022 12.2655 44.9258 12.4176Z" fill="#FFFBFC"/>
<mask id="path-124-outside-1_46_2953" maskUnits="userSpaceOnUse" x="28" y="25" width="20" height="23" fill="black">
<rect fill="white" x="28" y="25" width="20" height="23"/>
<path d="M38.5713 34.8298L41.2946 35.5191C42.4849 35.8205 43.3475 36.2235 43.8824 36.7282C44.7111 37.5117 44.9672 38.6455 44.6508 40.1296C44.3269 41.6514 43.4756 42.917 42.097 43.9265C40.7183 44.9284 38.9668 45.4294 36.8424 45.4294C34.6727 45.4294 33.0718 44.936 32.0398 43.9491C31.0077 42.9547 30.6762 41.5911 31.0453 39.8584H34.3676C34.3149 40.6193 34.4015 41.1881 34.6275 41.5647C35.0494 42.2503 35.9459 42.5931 37.317 42.5931C38.1381 42.5931 38.8237 42.5027 39.3736 42.3218C40.4208 41.9753 41.0423 41.3312 41.2381 40.3895C41.3587 39.8396 41.208 39.4139 40.7861 39.1126C40.3718 38.8188 39.6712 38.5589 38.6843 38.3329L37.0006 37.9374C35.3507 37.5456 34.2433 37.12 33.6783 36.6604C32.7215 35.892 32.4164 34.6904 32.763 33.0557C33.0794 31.564 33.8855 30.3248 35.1812 29.3379C36.477 28.351 38.1758 27.8576 40.2776 27.8576C42.0329 27.8576 43.4304 28.3246 44.47 29.2588C45.5096 30.1854 45.8712 31.5339 45.5548 33.3043H42.21C42.3682 32.3023 42.0857 31.5904 41.3624 31.1685C40.8803 30.8898 40.2362 30.7504 39.4301 30.7504C38.5336 30.7504 37.7765 30.9312 37.1588 31.2928C36.5485 31.6544 36.1756 32.1592 36.04 32.8071C35.912 33.4022 36.0815 33.8467 36.5485 34.1405C36.8424 34.3364 37.5166 34.5661 38.5713 34.8298Z"/>
</mask>
<path d="M38.5713 34.8298L41.2946 35.5191C42.4849 35.8205 43.3475 36.2235 43.8824 36.7282C44.7111 37.5117 44.9672 38.6455 44.6508 40.1296C44.3269 41.6514 43.4756 42.917 42.097 43.9265C40.7183 44.9284 38.9668 45.4294 36.8424 45.4294C34.6727 45.4294 33.0718 44.936 32.0398 43.9491C31.0077 42.9547 30.6762 41.5911 31.0453 39.8584H34.3676C34.3149 40.6193 34.4015 41.1881 34.6275 41.5647C35.0494 42.2503 35.9459 42.5931 37.317 42.5931C38.1381 42.5931 38.8237 42.5027 39.3736 42.3218C40.4208 41.9753 41.0423 41.3312 41.2381 40.3895C41.3587 39.8396 41.208 39.4139 40.7861 39.1126C40.3718 38.8188 39.6712 38.5589 38.6843 38.3329L37.0006 37.9374C35.3507 37.5456 34.2433 37.12 33.6783 36.6604C32.7215 35.892 32.4164 34.6904 32.763 33.0557C33.0794 31.564 33.8855 30.3248 35.1812 29.3379C36.477 28.351 38.1758 27.8576 40.2776 27.8576C42.0329 27.8576 43.4304 28.3246 44.47 29.2588C45.5096 30.1854 45.8712 31.5339 45.5548 33.3043H42.21C42.3682 32.3023 42.0857 31.5904 41.3624 31.1685C40.8803 30.8898 40.2362 30.7504 39.4301 30.7504C38.5336 30.7504 37.7765 30.9312 37.1588 31.2928C36.5485 31.6544 36.1756 32.1592 36.04 32.8071C35.912 33.4022 36.0815 33.8467 36.5485 34.1405C36.8424 34.3364 37.5166 34.5661 38.5713 34.8298Z" fill="white"/>
<path d="M38.5713 34.8298L39.0445 32.9602L39.039 32.9588L38.5713 34.8298ZM41.2946 35.5191L41.768 33.6495L41.7679 33.6495L41.2946 35.5191ZM43.8824 36.7282L45.2073 35.3268L45.206 35.3256L43.8824 36.7282ZM44.6508 40.1296L42.7646 39.7275L42.7645 39.7281L44.6508 40.1296ZM42.097 43.9265L43.2308 45.4866L43.2363 45.4825L42.097 43.9265ZM32.0398 43.9491L30.7016 45.3379L30.7069 45.343L32.0398 43.9491ZM31.0453 39.8584V37.9298H29.4844L29.1591 39.4565L31.0453 39.8584ZM34.3676 39.8584L36.2916 39.9917L36.4345 37.9298H34.3676V39.8584ZM34.6275 41.5647L32.9738 42.557L32.9793 42.5663L32.985 42.5755L34.6275 41.5647ZM39.3736 42.3218L39.9759 44.1539L39.9795 44.1528L39.3736 42.3218ZM41.2381 40.3895L39.3543 39.9766L39.3521 39.9867L39.35 39.9968L41.2381 40.3895ZM40.7861 39.1126L41.9071 37.5432L41.9017 37.5394L40.7861 39.1126ZM38.6843 38.3329L38.2433 40.2104L38.2538 40.2128L38.6843 38.3329ZM37.0006 37.9374L36.555 39.8138L36.5595 39.8148L37.0006 37.9374ZM33.6783 36.6604L34.8952 35.1642L34.8859 35.1568L33.6783 36.6604ZM32.763 33.0557L30.8764 32.6555L30.8763 32.6557L32.763 33.0557ZM44.47 29.2588L43.181 30.6933L43.1868 30.6985L44.47 29.2588ZM45.5548 33.3043V35.2328H47.1693L47.4533 33.6436L45.5548 33.3043ZM42.21 33.3043L40.305 33.0035L39.953 35.2328H42.21V33.3043ZM41.3624 31.1685L42.3342 29.5027L42.3277 29.4989L41.3624 31.1685ZM37.1588 31.2928L36.1845 29.6284L36.1756 29.6337L37.1588 31.2928ZM36.04 32.8071L37.9255 33.2128L37.9277 33.2022L36.04 32.8071ZM36.5485 34.1405L37.6183 32.5358L37.5971 32.5216L37.5754 32.508L36.5485 34.1405ZM38.0981 36.6994L40.8214 37.3887L41.7679 33.6495L39.0445 32.9602L38.0981 36.6994ZM40.8213 37.3887C41.8815 37.6571 42.3728 37.9554 42.5588 38.1309L45.206 35.3256C44.3222 34.4916 43.0883 33.9838 41.768 33.6495L40.8213 37.3887ZM42.5574 38.1296C42.7392 38.3014 42.9931 38.656 42.7646 39.7275L46.537 40.5317C46.9414 38.635 46.683 36.722 45.2073 35.3268L42.5574 38.1296ZM42.7645 39.7281C42.5492 40.7393 41.9944 41.6112 40.9576 42.3705L43.2363 45.4825C44.9567 44.2228 46.1045 42.5634 46.5371 40.5311L42.7645 39.7281ZM40.9631 42.3664C39.9877 43.0753 38.6611 43.5008 36.8424 43.5008V47.358C39.2725 47.358 41.4489 46.7816 43.2308 45.4866L40.9631 42.3664ZM36.8424 43.5008C34.9174 43.5008 33.8977 43.0573 33.3726 42.5552L30.7069 45.343C32.2459 46.8146 34.428 47.358 36.8424 47.358V43.5008ZM33.3779 42.5603C32.9429 42.1412 32.6635 41.5187 32.9316 40.2603L29.1591 39.4565C28.6889 41.6635 29.0724 43.7681 30.7016 45.3379L33.3779 42.5603ZM31.0453 41.787H34.3676V37.9298H31.0453V41.787ZM32.4436 39.7251C32.3814 40.6226 32.4433 41.6728 32.9738 42.557L36.2812 40.5725C36.3306 40.6548 36.3163 40.6745 36.2996 40.5652C36.2833 40.4579 36.272 40.2735 36.2916 39.9917L32.4436 39.7251ZM32.985 42.5755C33.9513 44.1456 35.7548 44.5216 37.317 44.5216V40.6645C36.7742 40.6645 36.4609 40.5942 36.305 40.5346C36.1743 40.4846 36.2182 40.4697 36.27 40.554L32.985 42.5755ZM37.317 44.5216C38.2644 44.5216 39.169 44.4192 39.9759 44.1539L38.7713 40.4897C38.4783 40.5861 38.0119 40.6645 37.317 40.6645V44.5216ZM39.9795 44.1528C41.5653 43.628 42.7673 42.5084 43.1263 40.7822L39.35 39.9968C39.3173 40.154 39.2762 40.3226 38.7677 40.4909L39.9795 44.1528ZM43.122 40.8024C43.2404 40.2624 43.2554 39.6409 43.0336 39.0143C42.8074 38.3754 42.3905 37.8885 41.9071 37.5432L39.6652 40.6819C39.6037 40.638 39.473 40.5146 39.3975 40.3014C39.3264 40.1004 39.3565 39.9667 39.3543 39.9766L43.122 40.8024ZM41.9017 37.5394C41.1641 37.0164 40.1522 36.6905 39.1148 36.453L38.2538 40.2128C39.1901 40.4272 39.5795 40.6212 39.6706 40.6858L41.9017 37.5394ZM39.1253 36.4554L37.4416 36.0599L36.5595 39.8148L38.2433 40.2103L39.1253 36.4554ZM37.4461 36.061C35.799 35.6699 35.086 35.3194 34.8952 35.1643L32.4614 38.1566C33.4006 38.9205 34.9025 39.4214 36.555 39.8138L37.4461 36.061ZM34.8859 35.1568C34.7005 35.0078 34.3907 34.6768 34.6496 33.4556L30.8763 32.6557C30.4421 34.704 30.7426 36.7762 32.4706 38.1641L34.8859 35.1568ZM34.6496 33.4559C34.8633 32.4483 35.3943 31.5999 36.3498 30.8721L34.0127 27.8036C32.3766 29.0497 31.2955 30.6797 30.8764 32.6555L34.6496 33.4559ZM36.3498 30.8721C37.2232 30.2069 38.4746 29.7861 40.2776 29.7861V25.929C37.877 25.929 35.7308 26.4951 34.0127 27.8036L36.3498 30.8721ZM40.2776 29.7861C41.6834 29.7861 42.5793 30.1527 43.181 30.6933L45.759 27.8243C44.2815 26.4966 42.3824 25.929 40.2776 25.929V29.7861ZM43.1868 30.6985C43.5801 31.0491 43.8939 31.6355 43.6563 32.965L47.4533 33.6436C47.8485 31.4323 47.4391 29.3217 45.7532 27.8191L43.1868 30.6985ZM45.5548 31.3757H42.21V35.2328H45.5548V31.3757ZM44.1149 33.6051C44.231 32.8703 44.213 32.0727 43.9093 31.3075C43.5939 30.5125 43.0316 29.9095 42.3342 29.5027L40.3907 32.8344C40.4134 32.8476 40.4027 32.8453 40.3795 32.8191C40.3548 32.7913 40.3353 32.7583 40.3241 32.7302C40.303 32.677 40.3472 32.7363 40.305 33.0035L44.1149 33.6051ZM42.3277 29.4989C41.4496 28.9912 40.4328 28.8218 39.4301 28.8218V32.679C40.0396 32.679 40.311 32.7884 40.3972 32.8382L42.3277 29.4989ZM39.4301 28.8218C38.2766 28.8218 37.1637 29.0552 36.1845 29.6284L38.133 32.9572C38.3893 32.8072 38.7906 32.679 39.4301 32.679V28.8218ZM36.1756 29.6337C35.1373 30.249 34.4074 31.1934 34.1524 32.412L37.9277 33.2022C37.9439 33.125 37.9598 33.0599 38.142 32.952L36.1756 29.6337ZM34.1546 32.4013C34.0339 32.9625 34.0188 33.6177 34.2691 34.274C34.5259 34.9474 34.993 35.4404 35.5217 35.7729L37.5754 32.508C37.637 32.5468 37.7858 32.6707 37.8731 32.8996C37.9539 33.1114 37.9181 33.2468 37.9255 33.2128L34.1546 32.4013ZM35.4788 35.7452C35.8436 35.9884 36.2833 36.1594 36.6525 36.2852C37.0594 36.4239 37.5481 36.5619 38.1035 36.7008L39.039 32.9588C38.5398 32.834 38.164 32.7253 37.8967 32.6342C37.5916 32.5303 37.5473 32.4885 37.6183 32.5358L35.4788 35.7452Z" fill="#0089A7" mask="url(#path-124-outside-1_46_2953)"/>
<defs>
<filter id="filter0_f_46_2953" x="0.825056" y="8.6165" width="72.793" height="65.9624" filterUnits="userSpaceOnUse" color-interpolation-filters="sRGB">
<feFlood flood-opacity="0" result="BackgroundImageFix"/>
<feBlend mode="normal" in="SourceGraphic" in2="BackgroundImageFix" result="shape"/>
<feGaussianBlur stdDeviation="4.86793" result="effect1_foregroundBlur_46_2953"/>
</filter>
<filter id="filter1_d_46_2953" x="-0.549698" y="-2.47169" width="78.2642" height="78.2641" filterUnits="userSpaceOnUse" color-interpolation-filters="sRGB">
<feFlood flood-opacity="0" result="BackgroundImageFix"/>
<feColorMatrix in="SourceAlpha" type="matrix" values="0 0 0 0 0 0 0 0 0 0 0 0 0 0 0 0 0 0 127 0" result="hardAlpha"/>
<feOffset/>
<feGaussianBlur stdDeviation="8.01887"/>
<feComposite in2="hardAlpha" operator="out"/>
<feColorMatrix type="matrix" values="0 0 0 0 0.227451 0 0 0 0 0.909804 0 0 0 0 0.875686 0 0 0 0.6 0"/>
<feBlend mode="normal" in2="BackgroundImageFix" result="effect1_dropShadow_46_2953"/>
<feBlend mode="normal" in="SourceGraphic" in2="effect1_dropShadow_46_2953" result="shape"/>
</filter>
<clipPath id="paint2_diamond_46_2953_clip_path"><path d="M32.1501 43.4002L29.7206 35.1523L22.0719 33.0831C22.0719 33.0831 22.2514 44.6011 28.1014 51.3498L32.1501 43.4002Z"/></clipPath><clipPath id="paint3_diamond_46_2953_clip_path"><path d="M29.7206 35.1537C29.7206 35.1537 34.0095 29.4554 39.0796 27.7003V17.7857C39.0796 17.7857 26.271 26.3054 22.0719 33.0831L29.7206 35.1523V35.1537Z"/></clipPath><clipPath id="paint6_diamond_46_2953_clip_path"><path d="M48.4371 35.1537C48.4371 35.1537 44.1482 29.4554 39.0781 27.7003V17.7857C39.0781 17.7857 51.8854 26.3041 56.0858 33.0831L48.4371 35.1523V35.1537Z"/></clipPath><clipPath id="paint7_diamond_46_2953_clip_path"><path d="M39.0784 27.7003V47.3829L32.1502 43.4015L29.7207 35.1537C29.7207 35.1537 32.6002 29.5148 39.0797 27.7003H39.0784Z"/></clipPath><clipPath id="paint8_diamond_46_2953_clip_path"><path d="M39.0782 27.7003V47.3829L46.0064 43.4015L48.4359 35.1537C48.4359 35.1537 45.5564 29.5148 39.0769 27.7003H39.0782Z"/></clipPath><filter id="filter2_f_46_2953" x="43.8624" y="43.8044" width="12.2528" height="12.2528" filterUnits="userSpaceOnUse" color-interpolation-filters="sRGB">
<feFlood flood-opacity="0" result="BackgroundImageFix"/>
<feBlend mode="normal" in="SourceGraphic" in2="BackgroundImageFix" result="shape"/>
<feGaussianBlur stdDeviation="1.76415" result="effect1_foregroundBlur_46_2953"/>
</filter>
<filter id="filter3_f_46_2953" x="17.0735" y="26.253" width="13.1325" height="13.1325" filterUnits="userSpaceOnUse" color-interpolation-filters="sRGB">
<feFlood flood-opacity="0" result="BackgroundImageFix"/>
<feBlend mode="normal" in="SourceGraphic" in2="BackgroundImageFix" result="shape"/>
<feGaussianBlur stdDeviation="1.76415" result="effect1_foregroundBlur_46_2953"/>
</filter>
<filter id="filter4_f_46_2953" x="44.5224" y="21.8982" width="10.942" height="10.942" filterUnits="userSpaceOnUse" color-interpolation-filters="sRGB">
<feFlood flood-opacity="0" result="BackgroundImageFix"/>
<feBlend mode="normal" in="SourceGraphic" in2="BackgroundImageFix" result="shape"/>
<feGaussianBlur stdDeviation="1.76415" result="effect1_foregroundBlur_46_2953"/>
</filter>
<filter id="filter5_f_46_2953" x="23.8674" y="25.4853" width="28.2625" height="28.7081" filterUnits="userSpaceOnUse" color-interpolation-filters="sRGB">
<feFlood flood-opacity="0" result="BackgroundImageFix"/>
<feBlend mode="normal" in="SourceGraphic" in2="BackgroundImageFix" result="shape"/>
<feGaussianBlur stdDeviation="2.12821" result="effect1_foregroundBlur_46_2953"/>
</filter>
<filter id="filter6_f_46_2953" x="26.9513" y="27.4729" width="4.85186" height="4.85681" filterUnits="userSpaceOnUse" color-interpolation-filters="sRGB">
<feFlood flood-opacity="0" result="BackgroundImageFix"/>
<feBlend mode="normal" in="SourceGraphic" in2="BackgroundImageFix" result="shape"/>
<feGaussianBlur stdDeviation="0.962264" result="effect1_foregroundBlur_46_2953"/>
</filter>
<filter id="filter7_f_46_2953" x="49.1938" y="40.0841" width="4.70013" height="4.7044" filterUnits="userSpaceOnUse" color-interpolation-filters="sRGB">
<feFlood flood-opacity="0" result="BackgroundImageFix"/>
<feBlend mode="normal" in="SourceGraphic" in2="BackgroundImageFix" result="shape"/>
<feGaussianBlur stdDeviation="0.962264" result="effect1_foregroundBlur_46_2953"/>
</filter>
<filter id="filter8_f_46_2953" x="27.653" y="43.4621" width="4.82977" height="4.83471" filterUnits="userSpaceOnUse" color-interpolation-filters="sRGB">
<feFlood flood-opacity="0" result="BackgroundImageFix"/>
<feBlend mode="normal" in="SourceGraphic" in2="BackgroundImageFix" result="shape"/>
<feGaussianBlur stdDeviation="0.962264" result="effect1_foregroundBlur_46_2953"/>
</filter>
<filter id="filter9_f_46_2953" x="12.2434" y="10.1472" width="43.7715" height="44.7763" filterUnits="userSpaceOnUse" color-interpolation-filters="sRGB">
<feFlood flood-opacity="0" result="BackgroundImageFix"/>
<feBlend mode="normal" in="SourceGraphic" in2="BackgroundImageFix" result="shape"/>
<feGaussianBlur stdDeviation="0.524012" result="effect1_foregroundBlur_46_2953"/>
</filter>
<linearGradient id="paint0_linear_46_2953" x1="9.31673" y1="35.0893" x2="65.3926" y2="45.7761" gradientUnits="userSpaceOnUse">
<stop stop-color="#B5FBFF"/>
<stop offset="1" stop-color="#0158A0"/>
</linearGradient>
<radialGradient id="paint1_radial_46_2953" cx="0" cy="0" r="1" gradientUnits="userSpaceOnUse" gradientTransform="translate(30.345 55.9805) rotate(-54.5036) scale(12.9299 10.0217)">
<stop stop-color="#23DBFD"/>
<stop offset="0.414319" stop-color="#0065B8"/>
<stop offset="0.852751" stop-color="#003663"/>
</radialGradient>
<linearGradient id="paint2_diamond_46_2953" x1="0" y1="0" x2="500" y2="500" gradientUnits="userSpaceOnUse">
<stop stop-color="#23DBFD"/>
<stop offset="0.541667" stop-color="#0065B8"/>
<stop offset="1" stop-color="#003663"/>
</linearGradient>
<linearGradient id="paint3_diamond_46_2953" x1="0" y1="0" x2="500" y2="500" gradientUnits="userSpaceOnUse">
<stop stop-color="#B0F3FF"/>
<stop offset="0.473958" stop-color="#278BDD"/>
<stop offset="1" stop-color="#00569C"/>
</linearGradient>
<radialGradient id="paint4_radial_46_2953" cx="0" cy="0" r="1" gradientUnits="userSpaceOnUse" gradientTransform="translate(50.0472 51.4237) rotate(-157.289) scale(14.185 23.8095)">
<stop stop-color="#23DBFD"/>
<stop offset="0.356211" stop-color="#0065B8"/>
<stop offset="0.763504" stop-color="#00569C"/>
</radialGradient>
<radialGradient id="paint5_radial_46_2953" cx="0" cy="0" r="1" gradientUnits="userSpaceOnUse" gradientTransform="translate(49.6604 50.4945) rotate(-70.7725) scale(18.5665 33.0945)">
<stop stop-color="#B0F3FF"/>
<stop offset="0.338542" stop-color="#278BDD"/>
<stop offset="1" stop-color="#00569C"/>
</radialGradient>
<linearGradient id="paint6_diamond_46_2953" x1="0" y1="0" x2="500" y2="500" gradientUnits="userSpaceOnUse">
<stop stop-color="#B0F3FF"/>
<stop offset="0.447917" stop-color="#278BDD"/>
<stop offset="1" stop-color="#00569C"/>
</linearGradient>
<linearGradient id="paint7_diamond_46_2953" x1="0" y1="0" x2="500" y2="500" gradientUnits="userSpaceOnUse">
<stop stop-color="#6BF0FF"/>
<stop offset="0.666667" stop-color="#2E90E0"/>
<stop offset="1" stop-color="#0064B6"/>
</linearGradient>
<linearGradient id="paint8_diamond_46_2953" x1="0" y1="0" x2="500" y2="500" gradientUnits="userSpaceOnUse">
<stop stop-color="#22E7FE"/>
<stop offset="0.67" stop-color="#2FB0EC"/>
<stop offset="1" stop-color="#3695E3"/>
</linearGradient>
<linearGradient id="paint9_linear_46_2953" x1="36.5695" y1="27.6699" x2="42.6399" y2="43.3738" gradientUnits="userSpaceOnUse">
<stop stop-color="white" stop-opacity="0.4"/>
<stop offset="1" stop-color="white" stop-opacity="0"/>
</linearGradient>
<linearGradient id="paint10_linear_46_2953" x1="29.3114" y1="35.1919" x2="36.3056" y2="55.3166" gradientUnits="userSpaceOnUse">
<stop stop-color="white" stop-opacity="0.77"/>
<stop offset="0.642325" stop-color="white" stop-opacity="0"/>
</linearGradient>
<linearGradient id="paint11_linear_46_2953" x1="39.0769" y1="17.3106" x2="22.0533" y2="33.0805" gradientUnits="userSpaceOnUse">
<stop stop-color="#DADADA"/>
<stop offset="1" stop-color="white" stop-opacity="0"/>
</linearGradient>
<linearGradient id="paint12_linear_46_2953" x1="39.0769" y1="17.3106" x2="22.0533" y2="33.0805" gradientUnits="userSpaceOnUse">
<stop stop-color="#DADADA"/>
<stop offset="1" stop-color="white" stop-opacity="0"/>
</linearGradient>
<radialGradient id="paint13_radial_46_2953" cx="0" cy="0" r="1" gradientUnits="userSpaceOnUse" gradientTransform="translate(44.5672 53.6658) rotate(90) scale(2.31467 5.4891)">
<stop stop-color="white"/>
<stop offset="1" stop-color="white" stop-opacity="0"/>
</radialGradient>
<radialGradient id="paint14_radial_46_2953" cx="0" cy="0" r="1" gradientUnits="userSpaceOnUse" gradientTransform="translate(43.7576 31.4018) rotate(90) scale(3.75186 4.67949)">
<stop stop-color="white"/>
<stop offset="1" stop-color="white" stop-opacity="0"/>
</radialGradient>
<radialGradient id="paint15_radial_46_2953" cx="0" cy="0" r="1" gradientUnits="userSpaceOnUse" gradientTransform="translate(25.8963 34.0157) rotate(90.5567) scale(1.63821 5.50537)">
<stop stop-color="white"/>
<stop offset="1" stop-color="white" stop-opacity="0"/>
</radialGradient>
</defs>
</svg>
