<svg width="80" height="86" viewBox="0 0 80 86" fill="none" xmlns="http://www.w3.org/2000/svg">
<g filter="url(#filter0_f_46_2946)">
<path fill-rule="evenodd" clip-rule="evenodd" d="M44.2253 23.9388C48.4217 23.8174 53.1152 22.6505 56.5539 25.0594C59.996 27.4706 60.4079 32.3215 61.8372 36.276C63.3101 40.3513 67.0522 44.7807 65.0759 48.638C62.9303 52.826 56.742 52.4545 52.5038 54.4934C49.9327 55.7303 47.1753 56.451 44.9988 58.2968C41.0089 61.6805 39.748 68.8282 34.5898 69.6854C30.0685 70.4367 25.6136 65.963 23.5713 61.8575C21.572 57.8387 25.9688 52.7152 24.1141 48.6275C21.8724 43.6868 13.7322 42.8723 12.5539 37.5753C11.4651 32.6809 14.2577 26.5041 18.6593 24.1069C23.36 21.5469 29.006 25.7367 34.3565 25.7015C37.7557 25.6791 40.8275 24.0371 44.2253 23.9388Z" fill="url(#paint0_linear_46_2946)"/>
</g>
<g filter="url(#filter1_d_46_2946)">
<path d="M40.8412 65.5051L27.995 60.0874L32.7332 50.7825L40.8412 55.4435V65.5051Z" fill="url(#paint1_radial_46_2946)"/>
<g clip-path="url(#paint2_diamond_46_2946_clip_path)" data-figma-skip-parse="true"><g transform="matrix(0.00231657 0.0213897 -0.0234795 0.0025429 25.8591 37.7015)"><rect x="0" y="0" width="1087.99" height="326.695" fill="url(#paint2_diamond_46_2946)" opacity="1" shape-rendering="crispEdges"/><rect x="0" y="0" width="1087.99" height="326.695" transform="scale(1 -1)" fill="url(#paint2_diamond_46_2946)" opacity="1" shape-rendering="crispEdges"/><rect x="0" y="0" width="1087.99" height="326.695" transform="scale(-1 1)" fill="url(#paint2_diamond_46_2946)" opacity="1" shape-rendering="crispEdges"/><rect x="0" y="0" width="1087.99" height="326.695" transform="scale(-1)" fill="url(#paint2_diamond_46_2946)" opacity="1" shape-rendering="crispEdges"/></g></g><path d="M32.7333 50.7824L29.8901 41.13L20.9388 38.7084C20.9388 38.7084 21.1489 52.1878 27.9951 60.0858L32.7333 50.7824Z" data-figma-gradient-fill="{&#34;type&#34;:&#34;GRADIENT_DIAMOND&#34;,&#34;stops&#34;:[{&#34;color&#34;:{&#34;r&#34;:0.90980392694473267,&#34;g&#34;:0.36078432202339172,&#34;b&#34;:1.0,&#34;a&#34;:1.0},&#34;position&#34;:0.0},{&#34;color&#34;:{&#34;r&#34;:0.45494273304939270,&#34;g&#34;:0.27320262789726257,&#34;b&#34;:0.59773856401443481,&#34;a&#34;:1.0},&#34;position&#34;:0.54166668653488159},{&#34;color&#34;:{&#34;r&#34;:0.26399999856948853,&#34;g&#34;:0.0,&#34;b&#34;:0.38823530077934265,&#34;a&#34;:1.0},&#34;position&#34;:1.0}],&#34;stopsVar&#34;:[],&#34;transform&#34;:{&#34;m00&#34;:4.6331429481506348,&#34;m01&#34;:-46.958980560302734,&#34;m02&#34;:47.022064208984375,&#34;m10&#34;:42.779357910156250,&#34;m11&#34;:5.0858097076416016,&#34;m12&#34;:13.768909454345703},&#34;opacity&#34;:1.0,&#34;blendMode&#34;:&#34;NORMAL&#34;,&#34;visible&#34;:true}"/>
<g clip-path="url(#paint3_diamond_46_2946_clip_path)" data-figma-skip-parse="true"><g transform="matrix(-0.0221619 0.0197681 -0.00923354 -0.0407604 43.079 18.7057)"><rect x="0" y="0" width="1039.07" height="431.49" fill="url(#paint3_diamond_46_2946)" opacity="1" shape-rendering="crispEdges"/><rect x="0" y="0" width="1039.07" height="431.49" transform="scale(1 -1)" fill="url(#paint3_diamond_46_2946)" opacity="1" shape-rendering="crispEdges"/><rect x="0" y="0" width="1039.07" height="431.49" transform="scale(-1 1)" fill="url(#paint3_diamond_46_2946)" opacity="1" shape-rendering="crispEdges"/><rect x="0" y="0" width="1039.07" height="431.49" transform="scale(-1)" fill="url(#paint3_diamond_46_2946)" opacity="1" shape-rendering="crispEdges"/></g></g><path d="M29.8901 41.1316C29.8901 41.1316 34.9093 34.463 40.8428 32.409V20.806C40.8428 20.806 25.8531 30.7766 20.9388 38.7085L29.8901 41.1301V41.1316Z" data-figma-gradient-fill="{&#34;type&#34;:&#34;GRADIENT_DIAMOND&#34;,&#34;stops&#34;:[{&#34;color&#34;:{&#34;r&#34;:0.90980392694473267,&#34;g&#34;:0.36078432202339172,&#34;b&#34;:1.0,&#34;a&#34;:1.0},&#34;position&#34;:0.0},{&#34;color&#34;:{&#34;r&#34;:0.41254901885986328,&#34;g&#34;:0.21176470816135406,&#34;b&#34;:0.83921569585800171,&#34;a&#34;:1.0},&#34;position&#34;:0.47395834326744080},{&#34;color&#34;:{&#34;r&#34;:0.61215686798095703,&#34;g&#34;:0.13333334028720856,&#34;b&#34;:0.78039216995239258,&#34;a&#34;:1.0},&#34;position&#34;:1.0}],&#34;stopsVar&#34;:[],&#34;transform&#34;:{&#34;m00&#34;:-44.323734283447266,&#34;m01&#34;:-18.467082977294922,&#34;m02&#34;:74.474403381347656,&#34;m10&#34;:39.536163330078125,&#34;m11&#34;:-81.520828247070312,&#34;m12&#34;:39.697986602783203},&#34;opacity&#34;:1.0,&#34;blendMode&#34;:&#34;NORMAL&#34;,&#34;visible&#34;:true}"/>
<path d="M40.8412 65.5051L53.6889 60.0874L48.9507 50.7825L40.8412 55.4435V65.5051Z" fill="url(#paint4_radial_46_2946)"/>
<path d="M48.9509 50.7824L51.7941 41.13L60.7454 38.7084C60.7454 38.7084 60.5353 52.1878 53.6891 60.0858L48.9509 50.7824Z" fill="url(#paint5_radial_46_2946)"/>
<g clip-path="url(#paint6_diamond_46_2946_clip_path)" data-figma-skip-parse="true"><g transform="matrix(-0.0212352 -0.0179148 0.0392896 -0.03595 62.0749 39.0143)"><rect x="0" y="0" width="1027.07" height="299.915" fill="url(#paint6_diamond_46_2946)" opacity="1" shape-rendering="crispEdges"/><rect x="0" y="0" width="1027.07" height="299.915" transform="scale(1 -1)" fill="url(#paint6_diamond_46_2946)" opacity="1" shape-rendering="crispEdges"/><rect x="0" y="0" width="1027.07" height="299.915" transform="scale(-1 1)" fill="url(#paint6_diamond_46_2946)" opacity="1" shape-rendering="crispEdges"/><rect x="0" y="0" width="1027.07" height="299.915" transform="scale(-1)" fill="url(#paint6_diamond_46_2946)" opacity="1" shape-rendering="crispEdges"/></g></g><path d="M51.7939 41.1316C51.7939 41.1316 46.7747 34.463 40.8412 32.409V20.806C40.8412 20.806 55.8294 30.775 60.7452 38.7085L51.7939 41.1301V41.1316Z" data-figma-gradient-fill="{&#34;type&#34;:&#34;GRADIENT_DIAMOND&#34;,&#34;stops&#34;:[{&#34;color&#34;:{&#34;r&#34;:0.90980392694473267,&#34;g&#34;:0.36078432202339172,&#34;b&#34;:1.0,&#34;a&#34;:1.0},&#34;position&#34;:0.0},{&#34;color&#34;:{&#34;r&#34;:0.42415687441825867,&#34;g&#34;:0.15294118225574493,&#34;b&#34;:0.86666667461395264,&#34;a&#34;:1.0},&#34;position&#34;:0.44791665673255920},{&#34;color&#34;:{&#34;r&#34;:0.37929412722587585,&#34;g&#34;:0.0,&#34;b&#34;:0.61176472902297974,&#34;a&#34;:1.0},&#34;position&#34;:1.0}],&#34;stopsVar&#34;:[],&#34;transform&#34;:{&#34;m00&#34;:-42.470485687255859,&#34;m01&#34;:78.579154968261719,&#34;m02&#34;:44.020584106445312,&#34;m10&#34;:-35.829650878906250,&#34;m11&#34;:-71.900085449218750,&#34;m12&#34;:92.879135131835938},&#34;opacity&#34;:1.0,&#34;blendMode&#34;:&#34;NORMAL&#34;,&#34;visible&#34;:true}"/>
<g clip-path="url(#paint7_diamond_46_2946_clip_path)" data-figma-skip-parse="true"><g transform="matrix(0.00308876 0.0213125 -0.0269704 0.00390876 37.7509 34.0722)"><rect x="0" y="0" width="1022.47" height="413.543" fill="url(#paint7_diamond_46_2946)" opacity="1" shape-rendering="crispEdges"/><rect x="0" y="0" width="1022.47" height="413.543" transform="scale(1 -1)" fill="url(#paint7_diamond_46_2946)" opacity="1" shape-rendering="crispEdges"/><rect x="0" y="0" width="1022.47" height="413.543" transform="scale(-1 1)" fill="url(#paint7_diamond_46_2946)" opacity="1" shape-rendering="crispEdges"/><rect x="0" y="0" width="1022.47" height="413.543" transform="scale(-1)" fill="url(#paint7_diamond_46_2946)" opacity="1" shape-rendering="crispEdges"/></g></g><path d="M40.8415 32.4089V55.4434L32.7335 50.784L29.8903 41.1316C29.8903 41.1316 33.2601 34.5325 40.843 32.4089H40.8415Z" data-figma-gradient-fill="{&#34;type&#34;:&#34;GRADIENT_DIAMOND&#34;,&#34;stops&#34;:[{&#34;color&#34;:{&#34;r&#34;:0.90980392694473267,&#34;g&#34;:0.36078432202339172,&#34;b&#34;:1.0,&#34;a&#34;:1.0},&#34;position&#34;:0.0},{&#34;color&#34;:{&#34;r&#34;:0.48752942681312561,&#34;g&#34;:0.18039216101169586,&#34;b&#34;:0.87843137979507446,&#34;a&#34;:1.0},&#34;position&#34;:0.66666668653488159},{&#34;color&#34;:{&#34;r&#34;:0.57098042964935303,&#34;g&#34;:0.0,&#34;b&#34;:0.71372550725936890,&#34;a&#34;:1.0},&#34;position&#34;:1.0}],&#34;stopsVar&#34;:[],&#34;transform&#34;:{&#34;m00&#34;:6.1775240898132324,&#34;m01&#34;:-53.940891265869141,&#34;m02&#34;:61.632598876953125,&#34;m10&#34;:42.624919891357422,&#34;m11&#34;:7.8175196647644043,&#34;m12&#34;:8.8510179519653320},&#34;opacity&#34;:1.0,&#34;blendMode&#34;:&#34;NORMAL&#34;,&#34;visible&#34;:true}"/>
<g clip-path="url(#paint8_diamond_46_2946_clip_path)" data-figma-skip-parse="true"><g transform="matrix(0.00378373 0.00826244 -0.00923377 0.00422855 42.4612 43.9563)"><rect x="0" y="0" width="1631.54" height="1357.76" fill="url(#paint8_diamond_46_2946)" opacity="1" shape-rendering="crispEdges"/><rect x="0" y="0" width="1631.54" height="1357.76" transform="scale(1 -1)" fill="url(#paint8_diamond_46_2946)" opacity="1" shape-rendering="crispEdges"/><rect x="0" y="0" width="1631.54" height="1357.76" transform="scale(-1 1)" fill="url(#paint8_diamond_46_2946)" opacity="1" shape-rendering="crispEdges"/><rect x="0" y="0" width="1631.54" height="1357.76" transform="scale(-1)" fill="url(#paint8_diamond_46_2946)" opacity="1" shape-rendering="crispEdges"/></g></g><path d="M40.8411 32.4089V55.4434L48.9491 50.784L51.7923 41.1316C51.7923 41.1316 48.4225 34.5325 40.8396 32.4089H40.8411Z" data-figma-gradient-fill="{&#34;type&#34;:&#34;GRADIENT_DIAMOND&#34;,&#34;stops&#34;:[{&#34;color&#34;:{&#34;r&#34;:0.94096767902374268,&#34;g&#34;:0.58164060115814209,&#34;b&#34;:1.0,&#34;a&#34;:1.0},&#34;position&#34;:0.0},{&#34;color&#34;:{&#34;r&#34;:0.71380394697189331,&#34;g&#34;:0.21176470816135406,&#34;b&#34;:0.89019608497619629,&#34;a&#34;:1.0},&#34;position&#34;:1.0}],&#34;stopsVar&#34;:[],&#34;transform&#34;:{&#34;m00&#34;:7.5674691200256348,&#34;m01&#34;:-18.467546463012695,&#34;m02&#34;:47.911239624023438,&#34;m10&#34;:16.524877548217773,&#34;m11&#34;:8.4571027755737305,&#34;m12&#34;:31.465284347534180},&#34;opacity&#34;:1.0,&#34;blendMode&#34;:&#34;NORMAL&#34;,&#34;visible&#34;:true}"/>
<g style="mix-blend-mode:soft-light">
<path d="M29.8903 41.1316C29.8903 41.1316 37.9983 49.167 48.951 50.784L50.4969 45.5377C50.4969 45.5377 42.9495 39.7988 40.843 32.4089C39.6801 32.7379 38.3303 33.2429 36.9203 34.0367C33.0562 36.2127 30.9173 39.3339 29.8903 41.1316Z" fill="white"/>
</g>
<path opacity="0.8" d="M29.8903 41.1316C29.8903 41.1316 37.9983 49.167 48.951 50.784L50.4969 45.5377C50.4969 45.5377 42.9495 39.7988 40.843 32.4089C39.6801 32.7379 38.3303 33.2429 36.9203 34.0367C33.0562 36.2127 30.9173 39.3339 29.8903 41.1316Z" fill="url(#paint9_linear_46_2946)"/>
<g style="mix-blend-mode:soft-light">
<path d="M31.9348 48.0752C31.9348 48.0752 40.7516 52.4628 46.5709 52.1508L44.4412 53.374C44.4412 53.374 40.4906 54.1431 36.0845 52.7099L32.7317 50.784L31.9332 48.0752H31.9348Z" fill="white"/>
</g>
<g style="mix-blend-mode:soft-light">
<path d="M48.2482 39.9023C48.2482 39.9023 51.1269 36.7286 53.689 30.8043C53.689 30.8043 58.9198 35.3402 60.7453 38.71C60.7453 38.71 60.5461 45.618 58.8519 50.1122C58.8519 50.1122 59.7631 46.503 48.2482 39.9038V39.9023Z" fill="white"/>
</g>
<path opacity="0.2" d="M48.2482 39.9023C48.2482 39.9023 51.1269 36.7286 53.689 30.8043C53.689 30.8043 58.9198 35.3402 60.7453 38.71C60.7453 38.71 60.5461 45.618 58.8519 50.1122C58.8519 50.1122 59.7631 46.503 48.2482 39.9038V39.9023Z" fill="white"/>
<g style="mix-blend-mode:soft-light" opacity="0.5">
<path d="M40.8413 65.5051C40.8413 65.5051 28.4862 54.3099 29.8885 41.1317C29.8885 41.1317 25.9225 47.2752 27.9936 60.0874L40.8413 65.5051Z" fill="white"/>
</g>
<path d="M40.8413 65.5051C40.8413 65.5051 28.4862 54.3099 29.8885 41.1317C29.8885 41.1317 25.9225 47.2752 27.9936 60.0874L40.8413 65.5051Z" fill="url(#paint10_linear_46_2946)"/>
<g style="mix-blend-mode:soft-light">
<path d="M20.9388 38.7085C20.9388 38.7085 36.1293 22.9527 38.0691 25.8608C38.0691 25.8608 39.8251 27.0901 40.8428 32.4074V20.806C40.8428 20.806 26.2747 30.2839 20.9388 38.7085Z" fill="url(#paint11_linear_46_2946)"/>
</g>
<path opacity="0.5" d="M20.9388 38.7085C20.9388 38.7085 36.2837 22.8755 38.0691 25.8608C38.0691 25.8608 39.8251 27.0901 40.8428 32.4074V20.806C40.8428 20.806 26.2747 30.2839 20.9388 38.7085Z" fill="url(#paint12_linear_46_2946)"/>
<g style="mix-blend-mode:soft-light">
<path d="M48.9509 50.7824L53.6891 57.4541C53.6891 57.4541 59.6921 51.1361 60.7454 38.7084C60.6635 41.7972 60.2651 44.4196 59.8326 46.4659C59.3307 48.838 58.7516 50.5708 58.5338 51.204C57.8929 53.0635 57.0404 55.4804 55.1995 58.1368C54.6126 58.9831 54.0706 59.6441 53.6906 60.0858C52.1107 56.9846 50.5308 53.8835 48.9525 50.7824H48.9509Z" fill="white"/>
</g>
<path opacity="0.6" d="M48.9509 50.7824L53.6891 57.4541C53.6891 57.4541 59.6921 51.1361 60.7454 38.7084C60.6635 41.7972 60.2651 44.4196 59.8326 46.4659C59.3307 48.838 58.7516 50.5708 58.5338 51.204C57.8929 53.0635 57.0404 55.4804 55.1995 58.1368C54.6126 58.9831 54.0706 59.6441 53.6906 60.0858C52.1107 56.9846 50.5308 53.8835 48.9525 50.7824H48.9509Z" fill="white"/>
<g style="mix-blend-mode:soft-light">
<path d="M53.6889 60.0874L40.8412 65.5051C40.8412 65.5051 45.5793 60.9646 53.6889 60.0874Z" fill="white"/>
</g>
<path opacity="0.6" d="M53.6889 60.0874L40.8412 65.5051C40.8412 65.5051 45.5793 60.9646 53.6889 60.0874Z" fill="url(#paint13_radial_46_2946)"/>
<g style="mix-blend-mode:soft-light">
<path d="M40.8412 32.4091C40.8412 32.4091 47.4048 33.5843 51.7939 41.1317C51.7939 41.1317 49.7229 31.5133 40.8412 32.4091Z" fill="white"/>
</g>
<path opacity="0.9" d="M40.8412 32.4091C40.8412 32.4091 47.4048 33.5843 51.7939 41.1317C51.7939 41.1317 49.7229 31.5133 40.8412 32.4091Z" fill="url(#paint14_radial_46_2946)"/>
<g style="mix-blend-mode:soft-light">
<path d="M29.8901 41.1316L20.9388 38.71C20.9388 38.71 25.1056 37.3371 29.8901 41.1316Z" fill="white"/>
</g>
<path opacity="0.5" d="M29.8901 41.1316L20.9388 38.71C20.9388 38.71 25.1056 37.3371 29.8901 41.1316Z" fill="url(#paint15_radial_46_2946)"/>
<path d="M53.6099 55.3847L54.1259 57.9093L56.6504 58.4253L54.1259 58.9413L53.6099 61.4658L53.0939 58.9413L50.5693 58.4253L53.0939 57.9093L53.6099 55.3847Z" fill="white"/>
<g filter="url(#filter2_f_46_2946)">
<path d="M53.6099 55.3847L54.1259 57.9093L56.6504 58.4253L54.1259 58.9413L53.6099 61.4658L53.0939 58.9413L50.5693 58.4253L53.0939 57.9093L53.6099 55.3847Z" fill="white"/>
</g>
<path d="M22.7737 34.8444L23.3771 37.7964L26.329 38.3997L23.3771 39.0031L22.7737 41.9551L22.1704 39.0031L19.2184 38.3997L22.1704 37.7964L22.7737 34.8444Z" fill="white"/>
<g filter="url(#filter3_f_46_2946)">
<path d="M22.7737 34.8444L23.3771 37.7964L26.329 38.3997L23.3771 39.0031L22.7737 41.9551L22.1704 39.0031L19.2184 38.3997L22.1704 37.7964L22.7737 34.8444Z" fill="white"/>
</g>
<path d="M53.6151 29.748L54.0009 31.6357L55.8886 32.0215L54.0009 32.4074L53.6151 34.2951L53.2293 32.4074L51.3416 32.0215L53.2293 31.6357L53.6151 29.748Z" fill="white"/>
<g filter="url(#filter4_f_46_2946)">
<path d="M53.6151 29.748L54.0009 31.6357L55.8886 32.0215L54.0009 32.4074L53.6151 34.2951L53.2293 32.4074L51.3416 32.0215L53.2293 31.6357L53.6151 29.748Z" fill="white"/>
</g>
<g style="mix-blend-mode:overlay" filter="url(#filter5_f_46_2946)">
<g style="mix-blend-mode:lighten">
<path d="M34.8197 35.0469C34.7951 34.9382 34.8636 34.8277 34.9724 34.8031C35.0812 34.7785 35.1918 34.8469 35.2164 34.9557C35.2409 35.0645 35.1725 35.175 35.0637 35.1996C34.9548 35.2241 34.8443 35.1557 34.8197 35.0469Z" fill="#FFFBFC"/>
</g>
<g style="mix-blend-mode:lighten">
<path d="M50.5225 48.9123C50.4839 48.7456 50.5892 48.5789 50.7559 48.5421C50.9227 48.5035 51.0894 48.6088 51.1263 48.7754C51.1649 48.9421 51.0596 49.1087 50.8929 49.1456C50.7261 49.1842 50.5594 49.0789 50.5225 48.9123Z" fill="#FFFBFC"/>
</g>
<g style="mix-blend-mode:lighten">
<path d="M31.1972 37.7661C31.1568 37.5854 31.2691 37.4047 31.4499 37.3643C31.6307 37.324 31.8115 37.4363 31.8519 37.617C31.8922 37.7977 31.7799 37.9784 31.5991 38.0187C31.4183 38.0591 31.2375 37.9468 31.1972 37.7661Z" fill="#FFFBFC"/>
</g>
<g style="mix-blend-mode:lighten">
<path d="M35.7324 39.715C35.8816 39.9009 35.8535 40.1728 35.6675 40.3237C35.4814 40.4728 35.2094 40.4448 35.0584 40.2588C34.9092 40.0728 34.9373 39.8009 35.1234 39.6501C35.3094 39.5009 35.5815 39.529 35.7324 39.715Z" fill="#FFFBFC"/>
</g>
<g style="mix-blend-mode:lighten">
<path d="M37.2963 39.2484C37.4226 39.4062 37.3981 39.6361 37.2401 39.7624C37.0821 39.8887 36.8522 39.8641 36.7258 39.7062C36.5995 39.5483 36.624 39.3185 36.782 39.1922C36.94 39.0659 37.1699 39.0905 37.2963 39.2484Z" fill="#FFFBFC"/>
</g>
<g style="mix-blend-mode:lighten">
<path d="M37.3542 36.9557C37.4174 37.0347 37.4051 37.1522 37.3261 37.2154C37.2471 37.2785 37.1295 37.2662 37.0663 37.1873C37.0032 37.1083 37.0154 36.9908 37.0944 36.9277C37.1734 36.8645 37.291 36.8768 37.3542 36.9557Z" fill="#FFFBFC"/>
</g>
<g style="mix-blend-mode:lighten">
<path d="M41.8495 42.3849C41.8232 42.2778 41.8899 42.1691 41.9969 42.1428C42.104 42.1165 42.2128 42.1831 42.2391 42.2901C42.2655 42.3971 42.1988 42.5059 42.0917 42.5322C41.9846 42.5585 41.8758 42.4919 41.8495 42.3849Z" fill="#FFFBFC"/>
</g>
<g style="mix-blend-mode:lighten">
<path d="M38.5214 39.0624C38.4916 38.9379 38.5688 38.8116 38.6934 38.7817C38.818 38.7519 38.9444 38.8291 38.9743 38.9537C39.0041 39.0782 38.9269 39.2045 38.8023 39.2343C38.6776 39.2642 38.5513 39.187 38.5214 39.0624Z" fill="#FFFBFC"/>
</g>
<g style="mix-blend-mode:lighten">
<path d="M28.0335 48.196C27.9774 47.9645 28.1213 47.7311 28.353 47.675C28.5846 47.6189 28.8181 47.7627 28.8742 47.9943C28.9304 48.2258 28.7865 48.4592 28.5548 48.5153C28.3231 48.5714 28.0897 48.4276 28.0335 48.196Z" fill="#FFFBFC"/>
</g>
<g style="mix-blend-mode:lighten">
<path d="M46.723 57.8363C46.8862 57.8065 47.0442 57.9135 47.074 58.0767C47.1039 58.2398 46.9968 58.3977 46.8336 58.4275C46.6703 58.4574 46.5124 58.3504 46.4825 58.1872C46.4527 58.0241 46.5598 57.8662 46.723 57.8363Z" fill="#FFFBFC"/>
</g>
<g style="mix-blend-mode:lighten">
<path d="M37.7178 57.9674C37.8231 57.9481 37.9231 58.0165 37.9424 58.1218C37.9617 58.2271 37.8933 58.3271 37.788 58.3464C37.6827 58.3657 37.5826 58.2972 37.5633 58.192C37.544 58.0867 37.6125 57.9867 37.7178 57.9674Z" fill="#FFFBFC"/>
</g>
<g style="mix-blend-mode:lighten">
<path d="M38.1266 55.7009C38.3512 55.6588 38.5654 55.8062 38.6075 56.0307C38.6496 56.2553 38.5022 56.4693 38.2775 56.5114C38.0529 56.5535 37.8387 56.4061 37.7966 56.1816C37.7545 55.957 37.9019 55.743 38.1266 55.7009Z" fill="#FFFBFC"/>
</g>
<g style="mix-blend-mode:lighten">
<path d="M36.6855 54.5327C36.8996 54.4923 37.1067 54.6344 37.1471 54.8484C37.1874 55.0625 37.0453 55.2695 36.8311 55.3098C36.617 55.3502 36.4099 55.2081 36.3695 54.9941C36.3292 54.78 36.4713 54.573 36.6855 54.5327Z" fill="#FFFBFC"/>
</g>
<g style="mix-blend-mode:lighten">
<path d="M36.9856 53.0714C37.1664 53.0381 37.3419 53.1574 37.3753 53.3381C37.4086 53.5188 37.2893 53.6942 37.1085 53.7276C36.9277 53.7609 36.7522 53.6416 36.7188 53.4609C36.6855 53.2802 36.8048 53.1048 36.9856 53.0714Z" fill="#FFFBFC"/>
</g>
<g style="mix-blend-mode:lighten">
<path d="M35.1621 52.0347C35.2533 52.0172 35.3429 52.0786 35.3587 52.1698C35.3762 52.261 35.3148 52.3505 35.2235 52.3663C35.1322 52.3838 35.0427 52.3224 35.0269 52.2312C35.0094 52.14 35.0708 52.0505 35.1621 52.0347Z" fill="#FFFBFC"/>
</g>
<g style="mix-blend-mode:lighten">
<path d="M42.7356 39.0851C42.8602 39.2412 42.8356 39.4675 42.6811 39.592C42.5249 39.7166 42.2985 39.692 42.1739 39.5377C42.0493 39.3815 42.0739 39.1552 42.2283 39.0307C42.3845 38.9061 42.6109 38.9307 42.7356 39.0851Z" fill="#FFFBFC"/>
</g>
<path d="M45.5721 35.475C45.6405 35.5592 45.6265 35.682 45.5422 35.7504C45.458 35.8188 45.3351 35.8048 45.2667 35.7206C45.1982 35.6364 45.2123 35.5136 45.2965 35.4452C45.3808 35.3768 45.5036 35.3908 45.5721 35.475Z" fill="#FFFBFC"/>
</g>
<g style="mix-blend-mode:lighten">
<path d="M50.5228 48.9116C50.4841 48.7449 50.5894 48.5783 50.7562 48.5414C50.9229 48.5028 51.0897 48.6081 51.1265 48.7747C51.1651 48.9414 51.0598 49.1081 50.8931 49.1449C50.7264 49.1835 50.5596 49.0782 50.5228 48.9116Z" fill="#FFFBFC"/>
</g>
<g style="mix-blend-mode:lighten">
<path d="M31.1979 37.7653C31.1575 37.5846 31.2699 37.4039 31.4507 37.3636C31.6314 37.3232 31.8122 37.4355 31.8526 37.6162C31.893 37.7969 31.7806 37.9776 31.5998 38.0179C31.4191 38.0583 31.2383 37.946 31.1979 37.7653Z" fill="#FFFBFC"/>
</g>
<g style="mix-blend-mode:lighten">
<path d="M35.7325 39.7157C35.8817 39.9017 35.8536 40.1736 35.6676 40.3244C35.4815 40.4736 35.2095 40.4455 35.0585 40.2595C34.9094 40.0736 34.9374 39.8017 35.1235 39.6508C35.3095 39.5017 35.5816 39.5297 35.7325 39.7157Z" fill="#FFFBFC"/>
</g>
<g style="mix-blend-mode:lighten">
<path d="M39.2513 41.7344C39.3777 41.8923 39.3531 42.1221 39.1952 42.2485C39.0372 42.3748 38.8073 42.3502 38.6809 42.1923C38.5545 42.0344 38.5791 41.8046 38.7371 41.6783C38.895 41.552 39.125 41.5766 39.2513 41.7344Z" fill="#FFFBFC"/>
</g>
<g style="mix-blend-mode:lighten">
<path d="M37.3542 36.9549C37.4174 37.0338 37.4051 37.1513 37.3261 37.2145C37.2471 37.2777 37.1295 37.2654 37.0663 37.1864C37.0032 37.1075 37.0154 36.99 37.0944 36.9268C37.1734 36.8636 37.291 36.8759 37.3542 36.9549Z" fill="#FFFBFC"/>
</g>
<g style="mix-blend-mode:lighten">
<path d="M41.8489 42.3855C41.8226 42.2785 41.8893 42.1698 41.9963 42.1434C42.1034 42.1171 42.2122 42.1838 42.2385 42.2908C42.2649 42.3978 42.1982 42.5066 42.0911 42.5329C41.984 42.5592 41.8752 42.4925 41.8489 42.3855Z" fill="#FFFBFC"/>
</g>
<g style="mix-blend-mode:lighten">
<path d="M38.5222 39.0621C38.4923 38.9375 38.5695 38.8112 38.6942 38.7814C38.8188 38.7515 38.9452 38.8287 38.975 38.9533C39.0048 39.0778 38.9276 39.2042 38.803 39.234C38.6784 39.2638 38.552 39.1866 38.5222 39.0621Z" fill="#FFFBFC"/>
</g>
<g style="mix-blend-mode:lighten">
<path d="M36.2147 42.2136C36.1726 42.0364 36.2814 41.8592 36.4587 41.8154C36.636 41.7733 36.8133 41.882 36.8571 42.0592C36.8993 42.2364 36.7904 42.4136 36.6132 42.4575C36.4359 42.4996 36.2586 42.3908 36.2147 42.2136Z" fill="#FFFBFC"/>
</g>
<g style="mix-blend-mode:lighten">
<path d="M35.1067 44.7173C35.0786 44.6033 35.1488 44.491 35.2629 44.463C35.3769 44.4349 35.4893 44.5051 35.5174 44.6191C35.5454 44.7331 35.4752 44.8454 35.3612 44.8735C35.2471 44.9015 35.1347 44.8314 35.1067 44.7173Z" fill="#FFFBFC"/>
</g>
<g style="mix-blend-mode:lighten">
<path d="M29.2074 41.4379C29.1495 41.1958 29.2987 40.952 29.5409 40.8941C29.7831 40.8362 30.0271 40.9853 30.085 41.2274C30.1429 41.4695 29.9937 41.7133 29.7515 41.7712C29.5093 41.8291 29.2653 41.68 29.2074 41.4379Z" fill="#FFFBFC"/>
</g>
<g style="mix-blend-mode:lighten">
<path d="M29.2078 41.4384C29.1499 41.1963 29.2991 40.9524 29.5413 40.8946C29.7835 40.8367 30.0275 40.9858 30.0854 41.2279C30.1433 41.47 29.9941 41.7138 29.7519 41.7717C29.5097 41.8296 29.2657 41.6805 29.2078 41.4384Z" fill="#FFFBFC"/>
</g>
<g style="mix-blend-mode:lighten">
<path d="M28.0335 48.196C27.9774 47.9645 28.1213 47.7311 28.353 47.675C28.5846 47.6189 28.8181 47.7627 28.8742 47.9943C28.9304 48.2258 28.7865 48.4592 28.5548 48.5153C28.3231 48.5714 28.0897 48.4276 28.0335 48.196Z" fill="#FFFBFC"/>
</g>
<g style="mix-blend-mode:lighten">
<path d="M46.7235 57.8364C46.8867 57.8066 47.0447 57.9136 47.0745 58.0767C47.1043 58.2399 46.9973 58.3978 46.8341 58.4276C46.6708 58.4574 46.5129 58.3504 46.483 58.1873C46.4532 58.0241 46.5602 57.8662 46.7235 57.8364Z" fill="#FFFBFC"/>
</g>
<g style="mix-blend-mode:lighten">
<path d="M37.7173 57.9672C37.8226 57.9479 37.9226 58.0163 37.9419 58.1216C37.9613 58.2268 37.8928 58.3268 37.7875 58.3461C37.6822 58.3654 37.5821 58.297 37.5628 58.1917C37.5435 58.0865 37.612 57.9865 37.7173 57.9672Z" fill="#FFFBFC"/>
</g>
<g style="mix-blend-mode:lighten">
<path d="M38.1271 55.7017C38.3517 55.6596 38.5659 55.807 38.608 56.0315C38.6501 56.2561 38.5027 56.4701 38.278 56.5122C38.0534 56.5543 37.8392 56.4069 37.7971 56.1824C37.755 55.9578 37.9024 55.7438 38.1271 55.7017Z" fill="#FFFBFC"/>
</g>
<g style="mix-blend-mode:lighten">
<path d="M36.6859 54.5319C36.9001 54.4915 37.1072 54.6336 37.1476 54.8476C37.1879 55.0617 37.0458 55.2687 36.8316 55.309C36.6175 55.3494 36.4104 55.2073 36.37 54.9933C36.3296 54.7792 36.4718 54.5722 36.6859 54.5319Z" fill="#FFFBFC"/>
</g>
<g style="mix-blend-mode:lighten">
<path d="M36.9853 53.0713C37.166 53.0379 37.3416 53.1572 37.3749 53.3379C37.4083 53.5186 37.2889 53.694 37.1081 53.7274C36.9273 53.7607 36.7518 53.6414 36.7185 53.4607C36.6851 53.28 36.8045 53.1046 36.9853 53.0713Z" fill="#FFFBFC"/>
</g>
<g style="mix-blend-mode:lighten">
<path d="M35.1623 52.035C35.2536 52.0174 35.3431 52.0788 35.3589 52.1701C35.3764 52.2613 35.315 52.3508 35.2237 52.3665C35.1325 52.3841 35.043 52.3227 35.0272 52.2315C35.0096 52.1402 35.071 52.0508 35.1623 52.035Z" fill="#FFFBFC"/>
</g>
<g style="mix-blend-mode:lighten">
<path d="M42.7362 39.0844C42.8608 39.2406 42.8362 39.4669 42.6818 39.5914C42.5255 39.716 42.2991 39.6914 42.1745 39.5371C42.0499 39.3809 42.0745 39.1546 42.2289 39.0301C42.3851 38.9055 42.6115 38.9301 42.7362 39.0844Z" fill="#FFFBFC"/>
</g>
<path d="M45.5726 35.4756C45.641 35.5598 45.627 35.6826 45.5427 35.751C45.4585 35.8194 45.3356 35.8054 45.2672 35.7212C45.1987 35.637 45.2127 35.5142 45.297 35.4458C45.3812 35.3774 45.5041 35.3914 45.5726 35.4756Z" fill="#FFFBFC"/>
<path d="M29.4882 34.3951L29.5878 34.8847L30.075 34.9848L29.5878 35.0849L29.4882 35.5745L29.3887 35.0849L28.9015 34.9848L29.3887 34.8847L29.4882 34.3951Z" fill="white"/>
<g filter="url(#filter6_f_46_2946)">
<path d="M29.4882 34.3951L29.5878 34.8847L30.075 34.9848L29.5878 35.0849L29.4882 35.5745L29.3887 35.0849L28.9015 34.9848L29.3887 34.8847L29.4882 34.3951Z" fill="white"/>
</g>
<path d="M55.1175 49.1534L55.4596 49.5161L55.9258 49.3422L55.5649 49.686L55.738 50.1544L55.3959 49.7918L54.9297 49.9657L55.2906 49.6219L55.1175 49.1534Z" fill="white"/>
<g filter="url(#filter7_f_46_2946)">
<path d="M55.1175 49.1534L55.4596 49.5161L55.9258 49.3422L55.5649 49.686L55.738 50.1544L55.3959 49.7918L54.9297 49.9657L55.2906 49.6219L55.1175 49.1534Z" fill="white"/>
</g>
<path d="M30.1729 53.1062L30.3718 53.5642L30.869 53.56L30.4133 53.7599L30.4174 54.2596L30.2185 53.8016L29.7212 53.8057L30.177 53.6059L30.1729 53.1062Z" fill="white"/>
<g filter="url(#filter8_f_46_2946)">
<path d="M30.1729 53.1062L30.3718 53.5642L30.869 53.56L30.4133 53.7599L30.4174 54.2596L30.2185 53.8016L29.7212 53.8057L30.177 53.6059L30.1729 53.1062Z" fill="white"/>
</g>
</g>
<g style="mix-blend-mode:overlay" filter="url(#filter9_f_46_2946)">
<g style="mix-blend-mode:lighten">
<path d="M25.0845 13.7543C25.0326 13.5245 25.1772 13.2909 25.4071 13.239C25.637 13.1871 25.8706 13.3317 25.9225 13.5615C25.9744 13.7914 25.8298 14.0249 25.5999 14.0768C25.37 14.1287 25.1364 13.9842 25.0845 13.7543Z" fill="#FFFBFC"/>
</g>
<g style="mix-blend-mode:lighten">
<path d="M58.2582 43.0564C58.1766 42.7042 58.3991 42.352 58.7514 42.2742C59.1036 42.1926 59.4559 42.4151 59.5337 42.7672C59.6153 43.1194 59.3928 43.4716 59.0406 43.5495C58.6883 43.631 58.3361 43.4086 58.2582 43.0564Z" fill="#FFFBFC"/>
</g>
<g style="mix-blend-mode:lighten">
<path d="M17.4314 19.5008C17.3461 19.1189 17.5834 18.7371 17.9654 18.6518C18.3473 18.5665 18.7292 18.8038 18.8145 19.1856C18.8998 19.5675 18.6625 19.9493 18.2805 20.0346C17.8986 20.1199 17.5167 19.8826 17.4314 19.5008Z" fill="#FFFBFC"/>
</g>
<g style="mix-blend-mode:lighten">
<path d="M27.0127 23.6194C27.3279 24.0124 27.2685 24.587 26.8755 24.9058C26.4824 25.221 25.9077 25.1616 25.5888 24.7687C25.2736 24.3757 25.333 23.8011 25.726 23.4823C26.119 23.1671 26.6938 23.2265 27.0127 23.6194Z" fill="#FFFBFC"/>
</g>
<g style="mix-blend-mode:lighten">
<path d="M30.3162 22.6332C30.5832 22.9669 30.5313 23.4525 30.1976 23.7195C29.8639 23.9864 29.3781 23.9345 29.1111 23.6008C28.8442 23.2672 28.8961 22.7815 29.2298 22.5146C29.5635 22.2477 30.0493 22.2996 30.3162 22.6332Z" fill="#FFFBFC"/>
</g>
<g style="mix-blend-mode:lighten">
<path d="M30.4388 17.7881C30.5723 17.955 30.5464 18.2034 30.3795 18.3368C30.2126 18.4703 29.9642 18.4443 29.8307 18.2775C29.6972 18.1107 29.7232 17.8623 29.89 17.7288C30.0569 17.5954 30.3053 17.6213 30.4388 17.7881Z" fill="#FFFBFC"/>
</g>
<g style="mix-blend-mode:lighten">
<path d="M39.9355 29.2619C39.8799 29.0358 40.0208 28.8059 40.247 28.7503C40.4731 28.6947 40.703 28.8356 40.7587 29.0617C40.8143 29.2878 40.6734 29.5177 40.4472 29.5733C40.221 29.6289 39.9911 29.488 39.9355 29.2619Z" fill="#FFFBFC"/>
</g>
<g style="mix-blend-mode:lighten">
<path d="M32.9048 22.2404C32.8417 21.9771 33.0049 21.7102 33.2682 21.6472C33.5314 21.5842 33.7984 21.7473 33.8614 22.0105C33.9245 22.2737 33.7613 22.5406 33.4981 22.6037C33.2348 22.6667 32.9678 22.5036 32.9048 22.2404Z" fill="#FFFBFC"/>
</g>
<g style="mix-blend-mode:lighten">
<path d="M25.404 28.8985C25.315 28.5241 25.5449 28.1496 25.9194 28.057C26.2939 27.968 26.6684 28.1978 26.7611 28.5723C26.8501 28.9467 26.6202 29.3211 26.2457 29.4138C25.8712 29.5028 25.4967 29.2729 25.404 28.8985Z" fill="#FFFBFC"/>
</g>
<g style="mix-blend-mode:lighten">
<path d="M24.1909 34.1922C24.1316 33.9512 24.2799 33.7139 24.5209 33.6546C24.762 33.5953 24.9993 33.7436 25.0586 33.9846C25.1179 34.2255 24.9696 34.4628 24.7286 34.5221C24.4876 34.5814 24.2503 34.4331 24.1909 34.1922Z" fill="#FFFBFC"/>
</g>
<g style="mix-blend-mode:lighten">
<path d="M17.8506 24.526C17.7282 24.0144 18.0434 23.4991 18.5551 23.3768C19.0668 23.2544 19.5822 23.5695 19.7046 24.0811C19.8269 24.5927 19.5118 25.108 19.0001 25.2304C18.4884 25.3527 17.9729 25.0376 17.8506 24.526Z" fill="#FFFBFC"/>
</g>
<g style="mix-blend-mode:lighten">
<path d="M20.8158 39.677C20.6972 39.1876 21.0012 38.6945 21.4907 38.5759C21.9801 38.4573 22.4733 38.7613 22.592 39.2506C22.7106 39.74 22.4066 40.233 21.9171 40.3517C21.4277 40.4703 20.9345 40.1663 20.8158 39.677Z" fill="#FFFBFC"/>
</g>
<g style="mix-blend-mode:lighten">
<path d="M12.9748 36.4538C12.8747 36.0386 13.1306 35.6197 13.5459 35.5233C13.9612 35.4232 14.3802 35.679 14.4766 36.0942C14.5767 36.5094 14.3208 36.9283 13.9055 37.0247C13.4902 37.1248 13.0712 36.869 12.9748 36.4538Z" fill="#FFFBFC"/>
</g>
<g style="mix-blend-mode:lighten">
<path d="M10.7905 40.7838C10.7386 40.5725 10.8684 40.3649 11.0797 40.313C11.2911 40.2611 11.4987 40.3909 11.5506 40.6022C11.6025 40.8135 11.4728 41.0211 11.2614 41.073C11.05 41.1249 10.8424 40.9951 10.7905 40.7838Z" fill="#FFFBFC"/>
</g>
<g style="mix-blend-mode:lighten">
<path d="M50.2313 61.9161C50.5761 61.853 50.9099 62.0792 50.9729 62.4239C51.0359 62.7687 50.8097 63.1024 50.4649 63.1654C50.1201 63.2284 49.7863 63.0023 49.7233 62.6575C49.6603 62.3127 49.8865 61.9791 50.2313 61.9161Z" fill="#FFFBFC"/>
</g>
<g style="mix-blend-mode:lighten">
<path d="M31.2067 62.1931C31.4292 62.1523 31.6406 62.2969 31.6813 62.5193C31.7221 62.7418 31.5775 62.9531 31.355 62.9939C31.1326 63.0346 30.9212 62.8901 30.8804 62.6676C30.8396 62.4452 30.9842 62.2339 31.2067 62.1931Z" fill="#FFFBFC"/>
</g>
<g style="mix-blend-mode:lighten">
<path d="M32.0706 57.4032C32.5452 57.3142 32.9976 57.6256 33.0865 58.1001C33.1755 58.5747 32.8641 59.0269 32.3894 59.1159C31.9148 59.2049 31.4624 58.8935 31.3735 58.419C31.2845 57.9444 31.5959 57.4921 32.0706 57.4032Z" fill="#FFFBFC"/>
</g>
<g style="mix-blend-mode:lighten">
<path d="M29.026 54.9343C29.4784 54.8491 29.916 55.1494 30.0012 55.6016C30.0865 56.0539 29.7862 56.4914 29.3338 56.5766C28.8814 56.6619 28.4439 56.3616 28.3586 55.9093C28.2733 55.4571 28.5737 55.0196 29.026 54.9343Z" fill="#FFFBFC"/>
</g>
<g style="mix-blend-mode:lighten">
<path d="M29.6604 51.8462C30.0423 51.7758 30.4131 52.0279 30.4836 52.4097C30.554 52.7916 30.3019 53.1623 29.9199 53.2327C29.538 53.3032 29.1672 53.0511 29.0968 52.6692C29.0263 52.2874 29.2785 51.9167 29.6604 51.8462Z" fill="#FFFBFC"/>
</g>
<g style="mix-blend-mode:lighten">
<path d="M25.8077 49.6554C26.0005 49.6183 26.1896 49.7481 26.223 49.9408C26.2601 50.1336 26.1303 50.3227 25.9375 50.356C25.7447 50.3931 25.5556 50.2634 25.5222 50.0706C25.4851 49.8778 25.6149 49.6887 25.8077 49.6554Z" fill="#FFFBFC"/>
</g>
<g style="mix-blend-mode:lighten">
<path d="M33.8724 16.2455C34.0949 16.5199 34.0504 16.9203 33.776 17.1427C33.5016 17.3651 33.1012 17.3206 32.8787 17.0463C32.6562 16.772 32.7007 16.3716 32.9751 16.1492C33.2495 15.9267 33.6499 15.9712 33.8724 16.2455Z" fill="#FFFBFC"/>
</g>
<g style="mix-blend-mode:lighten">
<path d="M41.8077 22.2884C42.071 22.6183 42.0191 23.0965 41.6928 23.3597C41.3628 23.623 40.8844 23.5711 40.6212 23.2448C40.3579 22.9149 40.4098 22.4366 40.7361 22.1734C41.0661 21.9102 41.5444 21.9621 41.8077 22.2884Z" fill="#FFFBFC"/>
</g>
<path d="M41.0032 16.9836C41.1478 17.1652 41.1219 17.4284 40.9402 17.5767C40.7585 17.7213 40.4952 17.6954 40.3469 17.5137C40.2023 17.3321 40.2282 17.0688 40.4099 16.9206C40.5916 16.776 40.8549 16.8019 41.0032 16.9836Z" fill="#FFFBFC"/>
<path d="M47.8001 14.659C47.9447 14.837 47.9151 15.0965 47.7371 15.2411C47.5591 15.3857 47.2995 15.356 47.1549 15.178C47.0103 15.0001 47.04 14.7406 47.218 14.596C47.396 14.4514 47.6555 14.4811 47.8001 14.659Z" fill="#FFFBFC"/>
</g>
<g style="mix-blend-mode:lighten">
<path d="M25.0844 13.7543C25.0325 13.5245 25.1771 13.2909 25.407 13.239C25.6369 13.1871 25.8705 13.3317 25.9224 13.5615C25.9743 13.7914 25.8297 14.0249 25.5998 14.0768C25.3699 14.1287 25.1363 13.9842 25.0844 13.7543Z" fill="#FFFBFC"/>
</g>
<g style="mix-blend-mode:lighten">
<path d="M58.2581 43.0564C58.1765 42.7042 58.399 42.352 58.7512 42.2742C59.1035 42.1926 59.4558 42.4151 59.5336 42.7672C59.6152 43.1194 59.3927 43.4716 59.0405 43.5495C58.6882 43.631 58.3359 43.4086 58.2581 43.0564Z" fill="#FFFBFC"/>
</g>
<g style="mix-blend-mode:lighten">
<path d="M17.4314 19.5007C17.3461 19.1189 17.5834 18.737 17.9654 18.6517C18.3473 18.5665 18.7292 18.8037 18.8145 19.1856C18.8998 19.5674 18.6625 19.9493 18.2805 20.0345C17.8986 20.1198 17.5167 19.8825 17.4314 19.5007Z" fill="#FFFBFC"/>
</g>
<g style="mix-blend-mode:lighten">
<path d="M27.0124 23.6195C27.3276 24.0125 27.2683 24.5871 26.8752 24.906C26.4822 25.2211 25.9074 25.1618 25.5886 24.7688C25.2734 24.3758 25.3327 23.8012 25.7258 23.4824C26.1188 23.1673 26.6935 23.2266 27.0124 23.6195Z" fill="#FFFBFC"/>
</g>
<g style="mix-blend-mode:lighten">
<path d="M30.3161 22.6332C30.5831 22.9668 30.5312 23.4525 30.1975 23.7194C29.8637 23.9863 29.378 23.9344 29.111 23.6008C28.844 23.2671 28.8959 22.7815 29.2297 22.5145C29.5634 22.2476 30.0491 22.2995 30.3161 22.6332Z" fill="#FFFBFC"/>
</g>
<g style="mix-blend-mode:lighten">
<path d="M30.4387 17.7881C30.5722 17.9549 30.5462 18.2033 30.3794 18.3368C30.2125 18.4702 29.9641 18.4443 29.8306 18.2774C29.6971 18.1106 29.7231 17.8622 29.8899 17.7288C30.0568 17.5953 30.3052 17.6213 30.4387 17.7881Z" fill="#FFFBFC"/>
</g>
<g style="mix-blend-mode:lighten">
<path d="M39.9351 29.2619C39.8795 29.0358 40.0204 28.8059 40.2466 28.7503C40.4728 28.6947 40.7027 28.8356 40.7583 29.0617C40.8139 29.2878 40.673 29.5177 40.4468 29.5733C40.2206 29.6289 39.9907 29.488 39.9351 29.2619Z" fill="#FFFBFC"/>
</g>
<g style="mix-blend-mode:lighten">
<path d="M32.9047 22.2404C32.8416 21.9771 33.0048 21.7102 33.268 21.6472C33.5313 21.5842 33.7983 21.7473 33.8613 22.0105C33.9244 22.2737 33.7612 22.5406 33.4979 22.6037C33.2347 22.6667 32.9677 22.5036 32.9047 22.2404Z" fill="#FFFBFC"/>
</g>
<g style="mix-blend-mode:lighten">
<path d="M25.4037 28.8986C25.3147 28.5241 25.5446 28.1497 25.9191 28.057C26.2936 27.9681 26.6681 28.1979 26.7608 28.5723C26.8498 28.9468 26.6199 29.3212 26.2454 29.4139C25.8709 29.5028 25.4964 29.273 25.4037 28.8986Z" fill="#FFFBFC"/>
</g>
<g style="mix-blend-mode:lighten">
<path d="M24.1908 34.1926C24.1315 33.9516 24.2798 33.7144 24.5208 33.655C24.7618 33.5957 24.9991 33.744 25.0585 33.985C25.1178 34.2259 24.9695 34.4632 24.7285 34.5225C24.4874 34.5818 24.2501 34.4336 24.1908 34.1926Z" fill="#FFFBFC"/>
</g>
<g style="mix-blend-mode:lighten">
<path d="M17.8505 24.526C17.7281 24.0144 18.0433 23.4991 18.555 23.3768C19.0667 23.2544 19.5821 23.5695 19.7045 24.0811C19.8268 24.5927 19.5116 25.108 18.9999 25.2304C18.4882 25.3527 17.9728 25.0376 17.8505 24.526Z" fill="#FFFBFC"/>
</g>
<g style="mix-blend-mode:lighten">
<path d="M20.8157 39.677C20.6971 39.1876 21.0011 38.6945 21.4906 38.5759C21.98 38.4573 22.4732 38.7613 22.5918 39.2506C22.7105 39.74 22.4064 40.233 21.917 40.3517C21.4275 40.4703 20.9344 40.1663 20.8157 39.677Z" fill="#FFFBFC"/>
</g>
<g style="mix-blend-mode:lighten">
<path d="M12.9743 36.4538C12.8742 36.0386 13.1301 35.6197 13.5454 35.5233C13.9607 35.4232 14.3797 35.679 14.4761 36.0942C14.5762 36.5094 14.3203 36.9283 13.905 37.0247C13.4897 37.1248 13.0707 36.869 12.9743 36.4538Z" fill="#FFFBFC"/>
</g>
<g style="mix-blend-mode:lighten">
<path d="M10.7901 40.7838C10.7382 40.5725 10.868 40.3649 11.0793 40.313C11.2907 40.2611 11.4983 40.3909 11.5503 40.6022C11.6022 40.8135 11.4724 41.0211 11.261 41.073C11.0497 41.1249 10.842 40.9951 10.7901 40.7838Z" fill="#FFFBFC"/>
</g>
<g style="mix-blend-mode:lighten">
<path d="M50.2309 61.9164C50.5758 61.8534 50.9095 62.0795 50.9725 62.4243C51.0356 62.7691 50.8094 63.1027 50.4645 63.1658C50.1197 63.2288 49.786 63.0026 49.7229 62.6579C49.6599 62.3131 49.8861 61.9794 50.2309 61.9164Z" fill="#FFFBFC"/>
</g>
<g style="mix-blend-mode:lighten">
<path d="M31.2066 62.1931C31.4291 62.1523 31.6404 62.2969 31.6812 62.5193C31.722 62.7418 31.5774 62.9531 31.3549 62.9939C31.1324 63.0346 30.9211 62.8901 30.8803 62.6676C30.8395 62.4452 30.9841 62.2339 31.2066 62.1931Z" fill="#FFFBFC"/>
</g>
<g style="mix-blend-mode:lighten">
<path d="M32.0703 57.4032C32.5449 57.3142 32.9973 57.6256 33.0863 58.1001C33.1753 58.5747 32.8638 59.0269 32.3892 59.1159C31.9146 59.2049 31.4622 58.8935 31.3732 58.419C31.2842 57.9444 31.5957 57.4921 32.0703 57.4032Z" fill="#FFFBFC"/>
</g>
<g style="mix-blend-mode:lighten">
<path d="M29.0259 54.9343C29.4783 54.8491 29.9158 55.1494 30.0011 55.6016C30.0864 56.0539 29.7861 56.4914 29.3337 56.5766C28.8813 56.6619 28.4438 56.3616 28.3585 55.9093C28.2732 55.4571 28.5735 55.0196 29.0259 54.9343Z" fill="#FFFBFC"/>
</g>
<g style="mix-blend-mode:lighten">
<path d="M29.6603 51.8462C30.0422 51.7758 30.413 52.0279 30.4834 52.4097C30.5539 52.7916 30.3017 53.1623 29.9198 53.2327C29.5379 53.3032 29.1671 53.0511 29.0966 52.6692C29.0262 52.2874 29.2783 51.9167 29.6603 51.8462Z" fill="#FFFBFC"/>
</g>
<g style="mix-blend-mode:lighten">
<path d="M25.8076 49.6554C26.0004 49.6183 26.1895 49.7481 26.2229 49.9408C26.26 50.1336 26.1302 50.3227 25.9374 50.356C25.7446 50.3931 25.5554 50.2634 25.5221 50.0706C25.485 49.8778 25.6148 49.6887 25.8076 49.6554Z" fill="#FFFBFC"/>
</g>
<g style="mix-blend-mode:lighten">
<path d="M33.8722 16.2458C34.0947 16.5202 34.0502 16.9206 33.7758 17.143C33.5014 17.3654 33.1009 17.3209 32.8784 17.0466C32.6559 16.7723 32.7004 16.3719 32.9748 16.1495C33.2492 15.927 33.6497 15.9715 33.8722 16.2458Z" fill="#FFFBFC"/>
</g>
<g style="mix-blend-mode:lighten">
<path d="M41.8076 22.2884C42.0709 22.6183 42.0189 23.0965 41.6926 23.3597C41.3626 23.623 40.8843 23.5711 40.621 23.2448C40.3578 22.9149 40.4097 22.4366 40.736 22.1734C41.066 21.9102 41.5443 21.9621 41.8076 22.2884Z" fill="#FFFBFC"/>
</g>
<path d="M41.003 16.9835C41.1476 17.1652 41.1216 17.4284 40.9399 17.5767C40.7582 17.7213 40.495 17.6953 40.3467 17.5136C40.202 17.332 40.228 17.0688 40.4097 16.9205C40.5914 16.7759 40.8547 16.8019 41.003 16.9835Z" fill="#FFFBFC"/>
<path d="M47.7999 14.659C47.9445 14.837 47.9148 15.0965 47.7368 15.2411C47.5589 15.3857 47.2993 15.356 47.1547 15.178C47.0101 15.0001 47.0397 14.7406 47.2177 14.596C47.3957 14.4514 47.6553 14.4811 47.7999 14.659Z" fill="#FFFBFC"/>
<mask id="path-124-outside-1_46_2946" maskUnits="userSpaceOnUse" x="16" y="33" width="51" height="23" fill="black">
<rect fill="white" x="16" y="33" width="51" height="23"/>
<path d="M26.4301 42.9799L29.1132 43.659C30.286 43.9559 31.1358 44.353 31.6628 44.8503C32.4793 45.6222 32.7316 46.7393 32.4199 48.2015C32.1007 49.7008 31.262 50.9477 29.9037 51.9423C28.5454 52.9295 26.8197 53.4231 24.7266 53.4231C22.589 53.4231 21.0118 52.9369 19.9949 51.9646C18.9781 50.9848 18.6515 49.6414 19.0152 47.9343H22.2884C22.2365 48.6839 22.3218 49.2443 22.5445 49.6154C22.9601 50.2909 23.8434 50.6286 25.1943 50.6286C26.0033 50.6286 26.6787 50.5395 27.2205 50.3614C28.2522 50.0199 28.8646 49.3853 29.0576 48.4575C29.1763 47.9157 29.0279 47.4963 28.6122 47.1995C28.204 46.91 27.5137 46.6539 26.5414 46.4312L24.8825 46.0416C23.257 45.6556 22.1659 45.2362 21.6093 44.7835C20.6666 44.0264 20.366 42.8425 20.7075 41.2319C21.0192 39.7623 21.8134 38.5413 23.09 37.569C24.3667 36.5967 26.0404 36.1105 28.1112 36.1105C29.8406 36.1105 31.2175 36.5707 32.2418 37.491C33.266 38.404 33.6223 39.7326 33.3106 41.4768H30.0151C30.1709 40.4897 29.8926 39.7883 29.18 39.3726C28.705 39.098 28.0704 38.9607 27.2762 38.9607C26.393 38.9607 25.647 39.1388 25.0384 39.4951C24.4372 39.8513 24.0698 40.3486 23.9362 40.987C23.81 41.5733 23.977 42.0112 24.4372 42.3007C24.7266 42.4937 25.3909 42.7201 26.4301 42.9799ZM41.6384 42.9799L44.3216 43.659C45.4943 43.9559 46.3442 44.353 46.8712 44.8503C47.6876 45.6222 47.94 46.7393 47.6282 48.2015C47.3091 49.7008 46.4704 50.9477 45.1121 51.9423C43.7538 52.9295 42.0281 53.4231 39.935 53.4231C37.7974 53.4231 36.2201 52.9369 35.2033 51.9646C34.1864 50.9848 33.8598 49.6414 34.2235 47.9343H37.4968C37.4448 48.6839 37.5302 49.2443 37.7528 49.6154C38.1685 50.2909 39.0517 50.6286 40.4026 50.6286C41.2116 50.6286 41.8871 50.5395 42.4289 50.3614C43.4606 50.0199 44.0729 49.3853 44.2659 48.4575C44.3847 47.9157 44.2362 47.4963 43.8206 47.1995C43.4124 46.91 42.7221 46.6539 41.7498 46.4312L40.0909 46.0416C38.4654 45.6556 37.3743 45.2362 36.8176 44.7835C35.875 44.0264 35.5744 42.8425 35.9158 41.2319C36.2275 39.7623 37.0217 38.5413 38.2984 37.569C39.575 36.5967 41.2487 36.1105 43.3196 36.1105C45.049 36.1105 46.4258 36.5707 47.4501 37.491C48.4744 38.404 48.8307 39.7326 48.5189 41.4768H45.2234C45.3793 40.4897 45.1009 39.7883 44.3884 39.3726C43.9134 39.098 43.2788 38.9607 42.4846 38.9607C41.6013 38.9607 40.8554 39.1388 40.2467 39.4951C39.6455 39.8513 39.2781 40.3486 39.1445 40.987C39.0183 41.5733 39.1853 42.0112 39.6455 42.3007C39.935 42.4937 40.5993 42.7201 41.6384 42.9799ZM56.8468 42.9799L59.5299 43.659C60.7027 43.9559 61.5525 44.353 62.0795 44.8503C62.896 45.6222 63.1483 46.7393 62.8366 48.2015C62.5174 49.7008 61.6787 50.9477 60.3204 51.9423C58.9621 52.9295 57.2364 53.4231 55.1433 53.4231C53.0057 53.4231 51.4285 52.9369 50.4116 51.9646C49.3948 50.9848 49.0682 49.6414 49.4319 47.9343H52.7051C52.6532 48.6839 52.7385 49.2443 52.9612 49.6154C53.3768 50.2909 54.2601 50.6286 55.611 50.6286C56.42 50.6286 57.0954 50.5395 57.6372 50.3614C58.6689 50.0199 59.2813 49.3853 59.4743 48.4575C59.593 47.9157 59.4446 47.4963 59.0289 47.1995C58.6207 46.91 57.9304 46.6539 56.9581 46.4312L55.2992 46.0416C53.6737 45.6556 52.5826 45.2362 52.026 44.7835C51.0833 44.0264 50.7827 42.8425 51.1242 41.2319C51.4359 39.7623 52.2301 38.5413 53.5067 37.569C54.7834 36.5967 56.4571 36.1105 58.5279 36.1105C60.2573 36.1105 61.6342 36.5707 62.6585 37.491C63.6827 38.404 64.039 39.7326 63.7273 41.4768H60.4318C60.5876 40.4897 60.3093 39.7883 59.5967 39.3726C59.1217 39.098 58.4871 38.9607 57.6929 38.9607C56.8097 38.9607 56.0637 39.1388 55.4551 39.4951C54.8539 39.8513 54.4865 40.3486 54.3529 40.987C54.2267 41.5733 54.3937 42.0112 54.8539 42.3007C55.1433 42.4937 55.8076 42.7201 56.8468 42.9799Z"/>
</mask>
<path d="M26.4301 42.9799L29.1132 43.659C30.286 43.9559 31.1358 44.353 31.6628 44.8503C32.4793 45.6222 32.7316 46.7393 32.4199 48.2015C32.1007 49.7008 31.262 50.9477 29.9037 51.9423C28.5454 52.9295 26.8197 53.4231 24.7266 53.4231C22.589 53.4231 21.0118 52.9369 19.9949 51.9646C18.9781 50.9848 18.6515 49.6414 19.0152 47.9343H22.2884C22.2365 48.6839 22.3218 49.2443 22.5445 49.6154C22.9601 50.2909 23.8434 50.6286 25.1943 50.6286C26.0033 50.6286 26.6787 50.5395 27.2205 50.3614C28.2522 50.0199 28.8646 49.3853 29.0576 48.4575C29.1763 47.9157 29.0279 47.4963 28.6122 47.1995C28.204 46.91 27.5137 46.6539 26.5414 46.4312L24.8825 46.0416C23.257 45.6556 22.1659 45.2362 21.6093 44.7835C20.6666 44.0264 20.366 42.8425 20.7075 41.2319C21.0192 39.7623 21.8134 38.5413 23.09 37.569C24.3667 36.5967 26.0404 36.1105 28.1112 36.1105C29.8406 36.1105 31.2175 36.5707 32.2418 37.491C33.266 38.404 33.6223 39.7326 33.3106 41.4768H30.0151C30.1709 40.4897 29.8926 39.7883 29.18 39.3726C28.705 39.098 28.0704 38.9607 27.2762 38.9607C26.393 38.9607 25.647 39.1388 25.0384 39.4951C24.4372 39.8513 24.0698 40.3486 23.9362 40.987C23.81 41.5733 23.977 42.0112 24.4372 42.3007C24.7266 42.4937 25.3909 42.7201 26.4301 42.9799ZM41.6384 42.9799L44.3216 43.659C45.4943 43.9559 46.3442 44.353 46.8712 44.8503C47.6876 45.6222 47.94 46.7393 47.6282 48.2015C47.3091 49.7008 46.4704 50.9477 45.1121 51.9423C43.7538 52.9295 42.0281 53.4231 39.935 53.4231C37.7974 53.4231 36.2201 52.9369 35.2033 51.9646C34.1864 50.9848 33.8598 49.6414 34.2235 47.9343H37.4968C37.4448 48.6839 37.5302 49.2443 37.7528 49.6154C38.1685 50.2909 39.0517 50.6286 40.4026 50.6286C41.2116 50.6286 41.8871 50.5395 42.4289 50.3614C43.4606 50.0199 44.0729 49.3853 44.2659 48.4575C44.3847 47.9157 44.2362 47.4963 43.8206 47.1995C43.4124 46.91 42.7221 46.6539 41.7498 46.4312L40.0909 46.0416C38.4654 45.6556 37.3743 45.2362 36.8176 44.7835C35.875 44.0264 35.5744 42.8425 35.9158 41.2319C36.2275 39.7623 37.0217 38.5413 38.2984 37.569C39.575 36.5967 41.2487 36.1105 43.3196 36.1105C45.049 36.1105 46.4258 36.5707 47.4501 37.491C48.4744 38.404 48.8307 39.7326 48.5189 41.4768H45.2234C45.3793 40.4897 45.1009 39.7883 44.3884 39.3726C43.9134 39.098 43.2788 38.9607 42.4846 38.9607C41.6013 38.9607 40.8554 39.1388 40.2467 39.4951C39.6455 39.8513 39.2781 40.3486 39.1445 40.987C39.0183 41.5733 39.1853 42.0112 39.6455 42.3007C39.935 42.4937 40.5993 42.7201 41.6384 42.9799ZM56.8468 42.9799L59.5299 43.659C60.7027 43.9559 61.5525 44.353 62.0795 44.8503C62.896 45.6222 63.1483 46.7393 62.8366 48.2015C62.5174 49.7008 61.6787 50.9477 60.3204 51.9423C58.9621 52.9295 57.2364 53.4231 55.1433 53.4231C53.0057 53.4231 51.4285 52.9369 50.4116 51.9646C49.3948 50.9848 49.0682 49.6414 49.4319 47.9343H52.7051C52.6532 48.6839 52.7385 49.2443 52.9612 49.6154C53.3768 50.2909 54.2601 50.6286 55.611 50.6286C56.42 50.6286 57.0954 50.5395 57.6372 50.3614C58.6689 50.0199 59.2813 49.3853 59.4743 48.4575C59.593 47.9157 59.4446 47.4963 59.0289 47.1995C58.6207 46.91 57.9304 46.6539 56.9581 46.4312L55.2992 46.0416C53.6737 45.6556 52.5826 45.2362 52.026 44.7835C51.0833 44.0264 50.7827 42.8425 51.1242 41.2319C51.4359 39.7623 52.2301 38.5413 53.5067 37.569C54.7834 36.5967 56.4571 36.1105 58.5279 36.1105C60.2573 36.1105 61.6342 36.5707 62.6585 37.491C63.6827 38.404 64.039 39.7326 63.7273 41.4768H60.4318C60.5876 40.4897 60.3093 39.7883 59.5967 39.3726C59.1217 39.098 58.4871 38.9607 57.6929 38.9607C56.8097 38.9607 56.0637 39.1388 55.4551 39.4951C54.8539 39.8513 54.4865 40.3486 54.3529 40.987C54.2267 41.5733 54.3937 42.0112 54.8539 42.3007C55.1433 42.4937 55.8076 42.7201 56.8468 42.9799Z" fill="white"/>
<path d="M26.4301 42.9799L27.0324 40.6002L27.0254 40.5985L26.4301 42.9799ZM29.1132 43.659L29.7157 41.2794L29.7156 41.2793L29.1132 43.659ZM31.6628 44.8503L33.3492 43.0666L33.3475 43.065L31.6628 44.8503ZM32.4199 48.2015L30.0191 47.6896L30.019 47.6904L32.4199 48.2015ZM29.9037 51.9423L31.3469 53.928L31.3539 53.9228L29.9037 51.9423ZM19.9949 51.9646L18.2917 53.7323L18.2985 53.7387L19.9949 51.9646ZM19.0152 47.9343V45.4796H17.0283L16.6143 47.4228L19.0152 47.9343ZM22.2884 47.9343L24.7372 48.104L24.9191 45.4796H22.2884V47.9343ZM22.5445 49.6154L20.4396 50.8783L20.4467 50.8902L20.4539 50.9019L22.5445 49.6154ZM27.2205 50.3614L27.9872 52.6933L27.9918 52.6918L27.2205 50.3614ZM29.0576 48.4575L26.6598 47.932L26.657 47.9448L26.6543 47.9577L29.0576 48.4575ZM28.6122 47.1995L30.039 45.202L30.0321 45.1971L28.6122 47.1995ZM26.5414 46.4312L25.9801 48.8209L25.9934 48.824L26.5414 46.4312ZM24.8825 46.0416L24.3154 48.4299L24.3212 48.4312L24.8825 46.0416ZM21.6093 44.7835L23.1581 42.8791L23.1523 42.8744L23.1464 42.8696L21.6093 44.7835ZM20.7075 41.2319L18.3062 40.7225L18.3061 40.7229L20.7075 41.2319ZM32.2418 37.491L30.6011 39.3169L30.6085 39.3235L32.2418 37.491ZM33.3106 41.4768V43.9315H35.3654L35.727 41.9087L33.3106 41.4768ZM30.0151 41.4768L27.5904 41.094L27.1424 43.9315H30.0151V41.4768ZM29.18 39.3726L30.4169 37.2523L30.4086 37.2475L29.18 39.3726ZM25.0384 39.4951L23.7983 37.3766L23.787 37.3833L25.0384 39.4951ZM23.9362 40.987L26.336 41.5034L26.3388 41.4898L23.9362 40.987ZM24.4372 42.3007L25.7988 40.2583L25.7717 40.2402L25.7442 40.2229L24.4372 42.3007ZM25.8277 45.3595L28.5109 46.0387L29.7156 41.2793L27.0324 40.6002L25.8277 45.3595ZM28.5108 46.0386C29.5179 46.2936 29.8953 46.5574 29.9781 46.6356L33.3475 43.065C32.3764 42.1486 31.054 41.6182 29.7157 41.2794L28.5108 46.0386ZM29.9764 46.634C30.0233 46.6784 30.0491 46.715 30.0701 46.8079C30.098 46.9314 30.1226 47.2042 30.0191 47.6896L34.8206 48.7133C35.2443 46.7259 34.9891 44.6171 33.3492 43.0666L29.9764 46.634ZM30.019 47.6904C29.8381 48.5399 29.3768 49.2857 28.4535 49.9618L31.3539 53.9228C33.1472 52.6097 34.3633 50.8616 34.8208 48.7125L30.019 47.6904ZM28.4606 49.9566C27.6155 50.5708 26.4306 50.9684 24.7266 50.9684V55.8778C27.2089 55.8778 29.4753 55.2882 31.3469 53.928L28.4606 49.9566ZM24.7266 50.9684C22.9005 50.9684 22.063 50.5458 21.6914 50.1904L18.2985 53.7387C19.9606 55.328 22.2776 55.8778 24.7266 55.8778V50.9684ZM21.6981 50.1969C21.4413 49.9494 21.1809 49.5493 21.416 48.4457L16.6143 47.4228C16.1221 49.7335 16.5148 52.0202 18.2917 53.7323L21.6981 50.1969ZM19.0152 50.389H22.2884V45.4796H19.0152V50.389ZM19.8396 47.7645C19.7756 48.6882 19.8294 49.8613 20.4396 50.8783L24.6494 48.3525C24.7447 48.5114 24.7489 48.6045 24.7402 48.5472C24.7318 48.4923 24.72 48.3532 24.7372 48.104L19.8396 47.7645ZM20.4539 50.9019C21.5624 52.7033 23.6002 53.0833 25.1943 53.0833V48.1739C24.7005 48.1739 24.4647 48.109 24.3953 48.0825C24.3691 48.0724 24.3979 48.0796 24.4536 48.1231C24.513 48.1694 24.5797 48.239 24.635 48.3289L20.4539 50.9019ZM25.1943 53.0833C26.164 53.0833 27.1183 52.9789 27.9872 52.6933L26.4539 48.0295C26.2392 48.1001 25.8426 48.1739 25.1943 48.1739V53.0833ZM27.9918 52.6918C29.709 52.1235 31.0602 50.8836 31.4608 48.9574L26.6543 47.9577C26.6478 47.9892 26.6437 47.9905 26.6523 47.9738C26.6615 47.9559 26.6748 47.9376 26.6871 47.9249C26.714 47.897 26.674 47.9566 26.4493 48.031L27.9918 52.6918ZM31.4553 48.9831C31.5887 48.3748 31.61 47.6539 31.3493 46.9175C31.0831 46.1655 30.5936 45.5981 30.039 45.202L27.1855 49.1969C27.0465 49.0977 26.8391 48.8884 26.7213 48.5558C26.6091 48.2388 26.6452 47.9984 26.6598 47.932L31.4553 48.9831ZM30.0321 45.1971C29.2124 44.6159 28.126 44.2759 27.0894 44.0385L25.9934 48.824C26.4095 48.9193 26.7172 49.0111 26.9346 49.0917C27.1638 49.1768 27.2242 49.2244 27.1924 49.2018L30.0321 45.1971ZM27.1027 44.0416L25.4438 43.6519L24.3212 48.4312L25.9801 48.8209L27.1027 44.0416ZM25.4496 43.6533C24.7023 43.4758 24.136 43.304 23.7257 43.1463C23.2901 42.9788 23.1493 42.872 23.1581 42.8791L20.0604 46.6878C21.0934 47.528 22.6865 48.0431 24.3154 48.4299L25.4496 43.6533ZM23.1464 42.8696C23.095 42.8284 23.0767 42.8049 23.056 42.7237C23.0247 42.6002 22.9902 42.3002 23.1088 41.7409L18.3061 40.7229C17.8531 42.8599 18.1478 45.1518 20.0722 46.6973L23.1464 42.8696ZM23.1087 41.7413C23.2898 40.8878 23.7338 40.1642 24.5773 39.5218L21.6027 35.6162C19.893 36.9184 18.7486 38.6368 18.3062 40.7225L23.1087 41.7413ZM24.5773 39.5218C25.3165 38.9588 26.4207 38.5652 28.1112 38.5652V33.6558C25.6601 33.6558 23.4169 34.2345 21.6027 35.6162L24.5773 39.5218ZM28.1112 38.5652C29.3958 38.5652 30.1342 38.8974 30.6011 39.3169L33.8824 35.6652C32.3007 34.244 30.2855 33.6558 28.1112 33.6558V38.5652ZM30.6085 39.3235C30.8101 39.5033 31.1056 39.8619 30.8942 41.045L35.727 41.9087C36.139 39.6033 35.7219 37.3047 33.875 35.6586L30.6085 39.3235ZM33.3106 39.0221H30.0151V43.9315H33.3106V39.0221ZM32.4397 41.8597C32.5646 41.0685 32.5507 40.1765 32.2048 39.305C31.8439 38.3955 31.2005 37.7094 30.4169 37.2523L27.9432 41.4929C27.9201 41.4795 27.8625 41.441 27.7967 41.3668C27.7291 41.2907 27.6761 41.2028 27.6416 41.1158C27.5741 40.9457 27.6213 40.898 27.5904 41.094L32.4397 41.8597ZM30.4086 37.2475C29.4296 36.6815 28.3206 36.506 27.2762 36.506V41.4154C27.8202 41.4154 27.9805 41.5145 27.9515 41.4977L30.4086 37.2475ZM27.2762 36.506C26.0659 36.506 24.867 36.751 23.7983 37.3766L26.2784 41.6135C26.427 41.5266 26.7201 41.4154 27.2762 41.4154V36.506ZM23.787 37.3833C22.641 38.0624 21.8192 39.1194 21.5335 40.4841L26.3388 41.4898C26.3389 41.4894 26.336 41.503 26.326 41.5255C26.316 41.5484 26.3023 41.5722 26.2862 41.5939C26.2704 41.6153 26.2578 41.6272 26.2542 41.6304C26.2512 41.6331 26.2607 41.624 26.2898 41.6068L23.787 37.3833ZM21.5364 40.4706C21.4011 41.0992 21.379 41.8584 21.6732 42.6298C21.9757 43.423 22.5244 43.9975 23.1302 44.3785L25.7442 40.2229C25.8898 40.3145 26.1249 40.5252 26.2604 40.8805C26.3875 41.214 26.345 41.4611 26.3359 41.5034L21.5364 40.4706ZM23.0756 44.3431C23.4976 44.6245 23.9877 44.8116 24.3607 44.9387C24.7817 45.0822 25.2794 45.2224 25.8347 45.3613L27.0254 40.5985C26.5416 40.4775 26.1876 40.3747 25.9443 40.2918C25.8235 40.2506 25.7499 40.221 25.7126 40.2046C25.6662 40.1843 25.7101 40.1992 25.7988 40.2583L23.0756 44.3431ZM41.6384 42.9799L42.2407 40.6002L42.2338 40.5985L41.6384 42.9799ZM44.3216 43.659L44.924 41.2794L44.9239 41.2793L44.3216 43.659ZM46.8712 44.8503L48.5576 43.0666L48.5559 43.065L46.8712 44.8503ZM47.6282 48.2015L45.2275 47.6896L45.2273 47.6904L47.6282 48.2015ZM45.1121 51.9423L46.5552 53.928L46.5623 53.9228L45.1121 51.9423ZM35.2033 51.9646L33.5001 53.7323L33.5068 53.7387L35.2033 51.9646ZM34.2235 47.9343V45.4796H32.2367L31.8227 47.4228L34.2235 47.9343ZM37.4968 47.9343L39.9456 48.104L40.1275 45.4796H37.4968V47.9343ZM37.7528 49.6154L35.6479 50.8783L35.655 50.8902L35.6623 50.9019L37.7528 49.6154ZM42.4289 50.3614L43.1956 52.6933L43.2001 52.6918L42.4289 50.3614ZM44.2659 48.4575L41.8681 47.932L41.8653 47.9448L41.8627 47.9577L44.2659 48.4575ZM43.8206 47.1995L45.2474 45.202L45.2404 45.1971L43.8206 47.1995ZM41.7498 46.4312L41.1884 48.8209L41.2018 48.824L41.7498 46.4312ZM40.0909 46.0416L39.5238 48.4299L39.5295 48.4312L40.0909 46.0416ZM36.8176 44.7835L38.3665 42.8791L38.3606 42.8744L38.3547 42.8696L36.8176 44.7835ZM35.9158 41.2319L33.5145 40.7225L33.5145 40.7229L35.9158 41.2319ZM47.4501 37.491L45.8094 39.3169L45.8168 39.3235L47.4501 37.491ZM48.5189 41.4768V43.9315H50.5738L50.9353 41.9087L48.5189 41.4768ZM45.2234 41.4768L42.7987 41.094L42.3507 43.9315H45.2234V41.4768ZM44.3884 39.3726L45.6252 37.2523L45.617 37.2475L44.3884 39.3726ZM40.2467 39.4951L39.0067 37.3766L38.9953 37.3833L40.2467 39.4951ZM39.1445 40.987L41.5443 41.5034L41.5471 41.4898L39.1445 40.987ZM39.6455 42.3007L41.0071 40.2583L40.9801 40.2402L40.9525 40.2229L39.6455 42.3007ZM41.0361 45.3595L43.7193 46.0387L44.9239 41.2793L42.2407 40.6002L41.0361 45.3595ZM43.7192 46.0386C44.7263 46.2936 45.1036 46.5574 45.1864 46.6356L48.5559 43.065C47.5847 42.1486 46.2623 41.6182 44.924 41.2794L43.7192 46.0386ZM45.1848 46.634C45.2317 46.6784 45.2574 46.715 45.2784 46.8079C45.3063 46.9314 45.331 47.2042 45.2275 47.6896L50.029 48.7133C50.4527 46.7259 50.1975 44.6171 48.5576 43.0666L45.1848 46.634ZM45.2273 47.6904C45.0465 48.5399 44.5851 49.2857 43.6619 49.9618L46.5623 53.9228C48.3556 52.6097 49.5717 50.8616 50.0291 48.7125L45.2273 47.6904ZM43.6689 49.9566C42.8239 50.5708 41.639 50.9684 39.935 50.9684V55.8778C42.4172 55.8778 44.6837 55.2882 46.5552 53.928L43.6689 49.9566ZM39.935 50.9684C38.1088 50.9684 37.2713 50.5458 36.8997 50.1904L33.5068 53.7387C35.1689 55.328 37.4859 55.8778 39.935 55.8778V50.9684ZM36.9064 50.1969C36.6496 49.9494 36.3892 49.5493 36.6243 48.4457L31.8227 47.4228C31.3304 49.7335 31.7232 52.0202 33.5001 53.7323L36.9064 50.1969ZM34.2235 50.389H37.4968V45.4796H34.2235V50.389ZM35.0479 47.7645C34.9839 48.6882 35.0377 49.8613 35.6479 50.8783L39.8577 48.3525C39.9531 48.5114 39.9572 48.6045 39.9485 48.5472C39.9402 48.4923 39.9283 48.3532 39.9456 48.104L35.0479 47.7645ZM35.6623 50.9019C36.7708 52.7033 38.8085 53.0833 40.4026 53.0833V48.1739C39.9089 48.1739 39.6731 48.109 39.6037 48.0825C39.5774 48.0724 39.6062 48.0796 39.662 48.1231C39.7213 48.1694 39.788 48.239 39.8434 48.3289L35.6623 50.9019ZM40.4026 53.0833C41.3723 53.0833 42.3266 52.9789 43.1955 52.6933L41.6622 48.0295C41.4475 48.1001 41.051 48.1739 40.4026 48.1739V53.0833ZM43.2001 52.6918C44.9174 52.1235 46.2685 50.8836 46.6692 48.9574L41.8627 47.9577C41.8561 47.9892 41.852 47.9905 41.8607 47.9738C41.8699 47.9559 41.8832 47.9376 41.8955 47.9249C41.9224 47.897 41.8824 47.9566 41.6577 48.031L43.2001 52.6918ZM46.6637 48.9831C46.797 48.3748 46.8183 47.6539 46.5577 46.9175C46.2915 46.1655 45.802 45.5981 45.2473 45.202L42.3938 49.1969C42.2549 49.0977 42.0474 48.8884 41.9297 48.5558C41.8174 48.2388 41.8536 47.9984 41.8681 47.932L46.6637 48.9831ZM45.2404 45.1971C44.4208 44.6159 43.3344 44.2759 42.2977 44.0385L41.2018 48.824C41.6179 48.9193 41.9256 49.0111 42.1429 49.0917C42.3721 49.1768 42.4325 49.2244 42.4007 49.2018L45.2404 45.1971ZM42.3111 44.0416L40.6522 43.6519L39.5295 48.4312L41.1884 48.8209L42.3111 44.0416ZM40.6579 43.6533C39.9106 43.4758 39.3443 43.304 38.9341 43.1463C38.4984 42.9788 38.3577 42.872 38.3665 42.8791L35.2687 46.6878C36.3017 47.528 37.8948 48.0431 39.5238 48.4299L40.6579 43.6533ZM38.3547 42.8696C38.3034 42.8284 38.285 42.8049 38.2644 42.7237C38.233 42.6002 38.1986 42.3002 38.3171 41.7409L33.5145 40.7229C33.0615 42.8599 33.3562 45.1518 35.2805 46.6973L38.3547 42.8696ZM38.3171 41.7413C38.4981 40.8878 38.9422 40.1642 39.7857 39.5218L36.8111 35.6162C35.1013 36.9184 33.957 38.6368 33.5145 40.7225L38.3171 41.7413ZM39.7857 39.5218C40.5248 38.9588 41.6291 38.5652 43.3196 38.5652V33.6558C40.8684 33.6558 38.6252 34.2345 36.8111 35.6162L39.7857 39.5218ZM43.3196 38.5652C44.6041 38.5652 45.3426 38.8974 45.8095 39.3169L49.0907 35.6652C47.5091 34.244 45.4938 33.6558 43.3196 33.6558V38.5652ZM45.8168 39.3235C46.0185 39.5033 46.314 39.8619 46.1025 41.045L50.9353 41.9087C51.3474 39.6033 50.9303 37.3047 49.0834 35.6586L45.8168 39.3235ZM48.5189 39.0221H45.2234V43.9315H48.5189V39.0221ZM47.6481 41.8597C47.773 41.0685 47.759 40.1765 47.4132 39.305C47.0523 38.3955 46.4089 37.7094 45.6252 37.2523L43.1515 41.4929C43.1285 41.4795 43.0708 41.441 43.005 41.3668C42.9375 41.2907 42.8844 41.2028 42.8499 41.1158C42.7824 40.9457 42.8297 40.898 42.7987 41.094L47.6481 41.8597ZM45.617 37.2475C44.6379 36.6815 43.529 36.506 42.4846 36.506V41.4154C43.0285 41.4154 43.1888 41.5145 43.1598 41.4977L45.617 37.2475ZM42.4846 36.506C41.2742 36.506 40.0754 36.751 39.0067 37.3766L41.4868 41.6135C41.6353 41.5266 41.9284 41.4154 42.4846 41.4154V36.506ZM38.9953 37.3833C37.8493 38.0624 37.0275 39.1194 36.7419 40.4841L41.5471 41.4898C41.5472 41.4894 41.5443 41.503 41.5344 41.5255C41.5243 41.5484 41.5106 41.5722 41.4946 41.5939C41.4788 41.6153 41.4661 41.6272 41.4626 41.6304C41.4595 41.6331 41.4691 41.624 41.4981 41.6068L38.9953 37.3833ZM36.7448 40.4706C36.6095 41.0992 36.5874 41.8584 36.8816 42.6298C37.184 43.423 37.7327 43.9975 38.3385 44.3785L40.9525 40.2229C41.0981 40.3145 41.3332 40.5252 41.4687 40.8805C41.5959 41.214 41.5534 41.4611 41.5443 41.5034L36.7448 40.4706ZM38.2839 44.3431C38.706 44.6245 39.1961 44.8116 39.569 44.9387C39.99 45.0822 40.4878 45.2224 41.0431 45.3613L42.2338 40.5985C41.7499 40.4775 41.396 40.3747 41.1527 40.2918C41.0319 40.2506 40.9582 40.221 40.9209 40.2046C40.8746 40.1843 40.9184 40.1992 41.0071 40.2583L38.2839 44.3431ZM56.8468 42.9799L57.4491 40.6002L57.4421 40.5985L56.8468 42.9799ZM59.5299 43.659L60.1324 41.2794L60.1323 41.2793L59.5299 43.659ZM62.0795 44.8503L63.7659 43.0666L63.7642 43.065L62.0795 44.8503ZM62.8366 48.2015L60.4358 47.6896L60.4357 47.6904L62.8366 48.2015ZM60.3204 51.9423L61.7636 53.928L61.7706 53.9228L60.3204 51.9423ZM50.4116 51.9646L48.7084 53.7323L48.7152 53.7387L50.4116 51.9646ZM49.4319 47.9343V45.4796H47.445L47.031 47.4228L49.4319 47.9343ZM52.7051 47.9343L55.1539 48.104L55.3358 45.4796H52.7051V47.9343ZM52.9612 49.6154L50.8563 50.8783L50.8634 50.8902L50.8706 50.9019L52.9612 49.6154ZM57.6372 50.3614L58.4039 52.6933L58.4085 52.6918L57.6372 50.3614ZM59.4743 48.4575L57.0765 47.932L57.0737 47.9448L57.071 47.9577L59.4743 48.4575ZM59.0289 47.1995L60.4557 45.202L60.4488 45.1971L59.0289 47.1995ZM56.9581 46.4312L56.3968 48.8209L56.4101 48.824L56.9581 46.4312ZM55.2992 46.0416L54.7321 48.4299L54.7379 48.4312L55.2992 46.0416ZM52.026 44.7835L53.5748 42.8791L53.569 42.8744L53.5631 42.8696L52.026 44.7835ZM51.1242 41.2319L48.7229 40.7225L48.7228 40.7229L51.1242 41.2319ZM62.6585 37.491L61.0178 39.3169L61.0252 39.3235L62.6585 37.491ZM63.7273 41.4768V43.9315H65.7821L66.1437 41.9087L63.7273 41.4768ZM60.4318 41.4768L58.0071 41.094L57.5591 43.9315H60.4318V41.4768ZM59.5967 39.3726L60.8336 37.2523L60.8253 37.2475L59.5967 39.3726ZM55.4551 39.4951L54.215 37.3766L54.2037 37.3833L55.4551 39.4951ZM54.3529 40.987L56.7527 41.5034L56.7555 41.4898L54.3529 40.987ZM54.8539 42.3007L56.2155 40.2583L56.1884 40.2402L56.1609 40.2229L54.8539 42.3007ZM56.2444 45.3595L58.9276 46.0387L60.1323 41.2793L57.4491 40.6002L56.2444 45.3595ZM58.9275 46.0386C59.9346 46.2936 60.312 46.5574 60.3948 46.6356L63.7642 43.065C62.7931 42.1486 61.4707 41.6182 60.1324 41.2794L58.9275 46.0386ZM60.3931 46.634C60.44 46.6784 60.4658 46.715 60.4868 46.8079C60.5147 46.9314 60.5393 47.2042 60.4358 47.6896L65.2373 48.7133C65.661 46.7259 65.4058 44.6171 63.7659 43.0666L60.3931 46.634ZM60.4357 47.6904C60.2548 48.5399 59.7935 49.2857 58.8702 49.9618L61.7706 53.9228C63.5639 52.6097 64.78 50.8616 65.2375 48.7125L60.4357 47.6904ZM58.8773 49.9566C58.0322 50.5708 56.8473 50.9684 55.1433 50.9684V55.8778C57.6256 55.8778 59.892 55.2882 61.7636 53.928L58.8773 49.9566ZM55.1433 50.9684C53.3172 50.9684 52.4797 50.5458 52.1081 50.1904L48.7152 53.7387C50.3773 55.328 52.6943 55.8778 55.1433 55.8778V50.9684ZM52.1148 50.1969C51.858 49.9494 51.5976 49.5493 51.8327 48.4457L47.031 47.4228C46.5388 49.7335 46.9315 52.0202 48.7084 53.7323L52.1148 50.1969ZM49.4319 50.389H52.7051V45.4796H49.4319V50.389ZM50.2563 47.7645C50.1923 48.6882 50.2461 49.8613 50.8563 50.8783L55.0661 48.3525C55.1614 48.5114 55.1656 48.6045 55.1569 48.5472C55.1485 48.4923 55.1367 48.3532 55.1539 48.104L50.2563 47.7645ZM50.8706 50.9019C51.9791 52.7033 54.0169 53.0833 55.611 53.0833V48.1739C55.1172 48.1739 54.8814 48.109 54.812 48.0825C54.7858 48.0724 54.8146 48.0796 54.8703 48.1231C54.9297 48.1694 54.9964 48.239 55.0517 48.3289L50.8706 50.9019ZM55.611 53.0833C56.5807 53.0833 57.535 52.9789 58.4039 52.6933L56.8706 48.0295C56.6559 48.1001 56.2593 48.1739 55.611 48.1739V53.0833ZM58.4085 52.6918C60.1257 52.1235 61.4769 50.8836 61.8775 48.9574L57.071 47.9577C57.0645 47.9892 57.0604 47.9905 57.069 47.9738C57.0782 47.9559 57.0915 47.9376 57.1038 47.9249C57.1307 47.897 57.0907 47.9566 56.866 48.031L58.4085 52.6918ZM61.8721 48.9831C62.0054 48.3748 62.0267 47.6539 61.766 46.9175C61.4998 46.1655 61.0103 45.5981 60.4557 45.202L57.6022 49.1969C57.4632 49.0977 57.2558 48.8884 57.138 48.5558C57.0258 48.2388 57.0619 47.9984 57.0765 47.932L61.8721 48.9831ZM60.4488 45.1971C59.6292 44.6159 58.5427 44.2759 57.5061 44.0385L56.4101 48.824C56.8262 48.9193 57.1339 49.0111 57.3513 49.0917C57.5805 49.1768 57.6409 49.2244 57.6091 49.2018L60.4488 45.1971ZM57.5194 44.0416L55.8605 43.6519L54.7379 48.4312L56.3968 48.8209L57.5194 44.0416ZM55.8663 43.6533C55.119 43.4758 54.5527 43.304 54.1424 43.1463C53.7068 42.9788 53.5661 42.872 53.5748 42.8791L50.4771 46.6878C51.5101 47.528 53.1032 48.0431 54.7321 48.4299L55.8663 43.6533ZM53.5631 42.8696C53.5117 42.8284 53.4934 42.8049 53.4727 42.7237C53.4414 42.6002 53.4069 42.3002 53.5255 41.7409L48.7228 40.7229C48.2698 42.8599 48.5645 45.1518 50.4889 46.6973L53.5631 42.8696ZM53.5254 41.7413C53.7065 40.8878 54.1505 40.1642 54.994 39.5218L52.0194 35.6162C50.3097 36.9184 49.1653 38.6368 48.7229 40.7225L53.5254 41.7413ZM54.994 39.5218C55.7332 38.9588 56.8374 38.5652 58.5279 38.5652V33.6558C56.0768 33.6558 53.8336 34.2345 52.0194 35.6162L54.994 39.5218ZM58.5279 38.5652C59.8125 38.5652 60.5509 38.8974 61.0178 39.3169L64.2991 35.6652C62.7174 34.244 60.7022 33.6558 58.5279 33.6558V38.5652ZM61.0252 39.3235C61.2268 39.5033 61.5223 39.8619 61.3109 41.045L66.1437 41.9087C66.5557 39.6033 66.1386 37.3047 64.2917 35.6586L61.0252 39.3235ZM63.7273 39.0221H60.4318V43.9315H63.7273V39.0221ZM62.8564 41.8597C62.9813 41.0685 62.9674 40.1765 62.6215 39.305C62.2606 38.3955 61.6172 37.7094 60.8336 37.2523L58.3599 41.4929C58.3368 41.4795 58.2792 41.441 58.2134 41.3668C58.1458 41.2907 58.0928 41.2028 58.0583 41.1158C57.9908 40.9457 58.038 40.898 58.0071 41.094L62.8564 41.8597ZM60.8253 37.2475C59.8463 36.6815 58.7373 36.506 57.6929 36.506V41.4154C58.2369 41.4154 58.3972 41.5145 58.3682 41.4977L60.8253 37.2475ZM57.6929 36.506C56.4826 36.506 55.2837 36.751 54.215 37.3766L56.6951 41.6135C56.8437 41.5266 57.1368 41.4154 57.6929 41.4154V36.506ZM54.2037 37.3833C53.0577 38.0624 52.2359 39.1194 51.9502 40.4841L56.7555 41.4898C56.7556 41.4894 56.7527 41.503 56.7427 41.5255C56.7327 41.5484 56.719 41.5722 56.7029 41.5939C56.6871 41.6153 56.6745 41.6272 56.6709 41.6304C56.6679 41.6331 56.6774 41.624 56.7065 41.6068L54.2037 37.3833ZM51.9531 40.4706C51.8178 41.0992 51.7957 41.8584 52.0899 42.6298C52.3924 43.423 52.9411 43.9975 53.5469 44.3785L56.1609 40.2229C56.3065 40.3145 56.5416 40.5252 56.6771 40.8805C56.8042 41.214 56.7617 41.4611 56.7526 41.5034L51.9531 40.4706ZM53.4923 44.3431C53.9143 44.6245 54.4044 44.8116 54.7774 44.9387C55.1984 45.0822 55.6961 45.2224 56.2514 45.3613L57.4421 40.5985C56.9583 40.4775 56.6043 40.3747 56.361 40.2918C56.2402 40.2506 56.1666 40.221 56.1293 40.2046C56.0829 40.1843 56.1268 40.1992 56.2155 40.2583L53.4923 44.3431Z" fill="#5B0191" mask="url(#path-124-outside-1_46_2946)"/>
<defs>
<filter id="filter0_f_46_2946" x="2.58226" y="13.5421" width="72.793" height="65.9624" filterUnits="userSpaceOnUse" color-interpolation-filters="sRGB">
<feFlood flood-opacity="0" result="BackgroundImageFix"/>
<feBlend mode="normal" in="SourceGraphic" in2="BackgroundImageFix" result="shape"/>
<feGaussianBlur stdDeviation="4.86793" result="effect1_foregroundBlur_46_2946"/>
</filter>
<filter id="filter1_d_46_2946" x="-5.41879" y="-2.76559" width="91.5904" height="91.5904" filterUnits="userSpaceOnUse" color-interpolation-filters="sRGB">
<feFlood flood-opacity="0" result="BackgroundImageFix"/>
<feColorMatrix in="SourceAlpha" type="matrix" values="0 0 0 0 0 0 0 0 0 0 0 0 0 0 0 0 0 0 127 0" result="hardAlpha"/>
<feOffset/>
<feGaussianBlur stdDeviation="9.38426"/>
<feComposite in2="hardAlpha" operator="out"/>
<feColorMatrix type="matrix" values="0 0 0 0 0.568627 0 0 0 0 0.227451 0 0 0 0 0.909804 0 0 0 0.6 0"/>
<feBlend mode="normal" in2="BackgroundImageFix" result="effect1_dropShadow_46_2946"/>
<feBlend mode="normal" in="SourceGraphic" in2="effect1_dropShadow_46_2946" result="shape"/>
</filter>
<clipPath id="paint2_diamond_46_2946_clip_path"><path d="M32.7333 50.7824L29.8901 41.13L20.9388 38.7084C20.9388 38.7084 21.1489 52.1878 27.9951 60.0858L32.7333 50.7824Z"/></clipPath><clipPath id="paint3_diamond_46_2946_clip_path"><path d="M29.8901 41.1316C29.8901 41.1316 34.9093 34.463 40.8428 32.409V20.806C40.8428 20.806 25.8531 30.7766 20.9388 38.7085L29.8901 41.1301V41.1316Z"/></clipPath><clipPath id="paint6_diamond_46_2946_clip_path"><path d="M51.7939 41.1316C51.7939 41.1316 46.7747 34.463 40.8412 32.409V20.806C40.8412 20.806 55.8294 30.775 60.7452 38.7085L51.7939 41.1301V41.1316Z"/></clipPath><clipPath id="paint7_diamond_46_2946_clip_path"><path d="M40.8415 32.4089V55.4434L32.7335 50.784L29.8903 41.1316C29.8903 41.1316 33.2601 34.5325 40.843 32.4089H40.8415Z"/></clipPath><clipPath id="paint8_diamond_46_2946_clip_path"><path d="M40.8411 32.4089V55.4434L48.9491 50.784L51.7923 41.1316C51.7923 41.1316 48.4225 34.5325 40.8396 32.4089H40.8411Z"/></clipPath><filter id="filter2_f_46_2946" x="46.4403" y="51.2556" width="14.3392" height="14.3393" filterUnits="userSpaceOnUse" color-interpolation-filters="sRGB">
<feFlood flood-opacity="0" result="BackgroundImageFix"/>
<feBlend mode="normal" in="SourceGraphic" in2="BackgroundImageFix" result="shape"/>
<feGaussianBlur stdDeviation="2.06454" result="effect1_foregroundBlur_46_2946"/>
</filter>
<filter id="filter3_f_46_2946" x="15.0893" y="30.7153" width="15.3687" height="15.3688" filterUnits="userSpaceOnUse" color-interpolation-filters="sRGB">
<feFlood flood-opacity="0" result="BackgroundImageFix"/>
<feBlend mode="normal" in="SourceGraphic" in2="BackgroundImageFix" result="shape"/>
<feGaussianBlur stdDeviation="2.06454" result="effect1_foregroundBlur_46_2946"/>
</filter>
<filter id="filter4_f_46_2946" x="47.2125" y="25.6189" width="12.8053" height="12.8053" filterUnits="userSpaceOnUse" color-interpolation-filters="sRGB">
<feFlood flood-opacity="0" result="BackgroundImageFix"/>
<feBlend mode="normal" in="SourceGraphic" in2="BackgroundImageFix" result="shape"/>
<feGaussianBlur stdDeviation="2.06454" result="effect1_foregroundBlur_46_2946"/>
</filter>
<filter id="filter5_f_46_2946" x="23.0402" y="29.8169" width="33.0752" height="33.5968" filterUnits="userSpaceOnUse" color-interpolation-filters="sRGB">
<feFlood flood-opacity="0" result="BackgroundImageFix"/>
<feBlend mode="normal" in="SourceGraphic" in2="BackgroundImageFix" result="shape"/>
<feGaussianBlur stdDeviation="2.49058" result="effect1_foregroundBlur_46_2946"/>
</filter>
<filter id="filter6_f_46_2946" x="26.6493" y="32.1429" width="5.67791" height="5.68377" filterUnits="userSpaceOnUse" color-interpolation-filters="sRGB">
<feFlood flood-opacity="0" result="BackgroundImageFix"/>
<feBlend mode="normal" in="SourceGraphic" in2="BackgroundImageFix" result="shape"/>
<feGaussianBlur stdDeviation="1.12611" result="effect1_foregroundBlur_46_2946"/>
</filter>
<filter id="filter7_f_46_2946" x="52.6775" y="46.9012" width="5.50054" height="5.50542" filterUnits="userSpaceOnUse" color-interpolation-filters="sRGB">
<feFlood flood-opacity="0" result="BackgroundImageFix"/>
<feBlend mode="normal" in="SourceGraphic" in2="BackgroundImageFix" result="shape"/>
<feGaussianBlur stdDeviation="1.12611" result="effect1_foregroundBlur_46_2946"/>
</filter>
<filter id="filter8_f_46_2946" x="27.469" y="50.8539" width="5.65227" height="5.65795" filterUnits="userSpaceOnUse" color-interpolation-filters="sRGB">
<feFlood flood-opacity="0" result="BackgroundImageFix"/>
<feBlend mode="normal" in="SourceGraphic" in2="BackgroundImageFix" result="shape"/>
<feGaussianBlur stdDeviation="1.12611" result="effect1_foregroundBlur_46_2946"/>
</filter>
<filter id="filter9_f_46_2946" x="9.55258" y="12.002" width="51.2246" height="52.4004" filterUnits="userSpaceOnUse" color-interpolation-filters="sRGB">
<feFlood flood-opacity="0" result="BackgroundImageFix"/>
<feBlend mode="normal" in="SourceGraphic" in2="BackgroundImageFix" result="shape"/>
<feGaussianBlur stdDeviation="0.613237" result="effect1_foregroundBlur_46_2946"/>
</filter>
<linearGradient id="paint0_linear_46_2946" x1="11.0739" y1="40.0149" x2="67.1498" y2="50.7017" gradientUnits="userSpaceOnUse">
<stop stop-color="#D2B9F9"/>
<stop offset="1" stop-color="#7A46FF"/>
</linearGradient>
<radialGradient id="paint1_radial_46_2946" cx="0" cy="0" r="1" gradientUnits="userSpaceOnUse" gradientTransform="translate(33.7354 51.3694) rotate(63.435) scale(15.8854 13.2918)">
<stop stop-color="#E85CFF"/>
<stop offset="0.414319" stop-color="#5300BD"/>
<stop offset="0.852751" stop-color="#610063"/>
</radialGradient>
<linearGradient id="paint2_diamond_46_2946" x1="0" y1="0" x2="500" y2="500" gradientUnits="userSpaceOnUse">
<stop stop-color="#E85CFF"/>
<stop offset="0.541667" stop-color="#744698"/>
<stop offset="1" stop-color="#430063"/>
</linearGradient>
<linearGradient id="paint3_diamond_46_2946" x1="0" y1="0" x2="500" y2="500" gradientUnits="userSpaceOnUse">
<stop stop-color="#E85CFF"/>
<stop offset="0.473958" stop-color="#6936D6"/>
<stop offset="1" stop-color="#9C22C7"/>
</linearGradient>
<radialGradient id="paint4_radial_46_2946" cx="0" cy="0" r="1" gradientUnits="userSpaceOnUse" gradientTransform="translate(53.658 60.1723) rotate(-157.257) scale(16.5784 27.8575)">
<stop stop-color="#E85CFF"/>
<stop offset="0.356211" stop-color="#6C27DD"/>
<stop offset="0.763504" stop-color="#57009C"/>
</radialGradient>
<radialGradient id="paint5_radial_46_2946" cx="0" cy="0" r="1" gradientUnits="userSpaceOnUse" gradientTransform="translate(53.1947 59.0912) rotate(-70.7873) scale(21.5882 38.4556)">
<stop stop-color="#E85CFF"/>
<stop offset="0.338542" stop-color="#5E35D5"/>
<stop offset="1" stop-color="#4E009C"/>
</radialGradient>
<linearGradient id="paint6_diamond_46_2946" x1="0" y1="0" x2="500" y2="500" gradientUnits="userSpaceOnUse">
<stop stop-color="#E85CFF"/>
<stop offset="0.447917" stop-color="#6C27DD"/>
<stop offset="1" stop-color="#61009C"/>
</linearGradient>
<linearGradient id="paint7_diamond_46_2946" x1="0" y1="0" x2="500" y2="500" gradientUnits="userSpaceOnUse">
<stop stop-color="#E85CFF"/>
<stop offset="0.666667" stop-color="#7C2EE0"/>
<stop offset="1" stop-color="#9200B6"/>
</linearGradient>
<linearGradient id="paint8_diamond_46_2946" x1="0" y1="0" x2="500" y2="500" gradientUnits="userSpaceOnUse">
<stop stop-color="#F094FF"/>
<stop offset="1" stop-color="#B636E3"/>
</linearGradient>
<linearGradient id="paint9_linear_46_2946" x1="37.9054" y1="32.3734" x2="45.0095" y2="50.7516" gradientUnits="userSpaceOnUse">
<stop stop-color="white" stop-opacity="0.4"/>
<stop offset="1" stop-color="white" stop-opacity="0"/>
</linearGradient>
<linearGradient id="paint10_linear_46_2946" x1="29.4112" y1="41.1764" x2="37.5964" y2="64.7282" gradientUnits="userSpaceOnUse">
<stop stop-color="white" stop-opacity="0.77"/>
<stop offset="0.642325" stop-color="white" stop-opacity="0"/>
</linearGradient>
<linearGradient id="paint11_linear_46_2946" x1="40.8396" y1="20.25" x2="20.9171" y2="38.7054" gradientUnits="userSpaceOnUse">
<stop stop-color="#DADADA"/>
<stop offset="1" stop-color="white" stop-opacity="0"/>
</linearGradient>
<linearGradient id="paint12_linear_46_2946" x1="40.8396" y1="20.25" x2="20.9171" y2="38.7054" gradientUnits="userSpaceOnUse">
<stop stop-color="#DADADA"/>
<stop offset="1" stop-color="white" stop-opacity="0"/>
</linearGradient>
<radialGradient id="paint13_radial_46_2946" cx="0" cy="0" r="1" gradientUnits="userSpaceOnUse" gradientTransform="translate(47.265 62.7962) rotate(90) scale(2.70884 6.42385)">
<stop stop-color="white"/>
<stop offset="1" stop-color="white" stop-opacity="0"/>
</radialGradient>
<radialGradient id="paint14_radial_46_2946" cx="0" cy="0" r="1" gradientUnits="userSpaceOnUse" gradientTransform="translate(46.3176 36.7409) rotate(90) scale(4.39078 5.47638)">
<stop stop-color="white"/>
<stop offset="1" stop-color="white" stop-opacity="0"/>
</radialGradient>
<radialGradient id="paint15_radial_46_2946" cx="0" cy="0" r="1" gradientUnits="userSpaceOnUse" gradientTransform="translate(25.4145 39.7998) rotate(90.5567) scale(1.91719 6.44289)">
<stop stop-color="white"/>
<stop offset="1" stop-color="white" stop-opacity="0"/>
</radialGradient>
</defs>
</svg>
