<svg width="109" height="39" viewBox="0 0 109 39" fill="none" xmlns="http://www.w3.org/2000/svg">
<rect x="6.88232" y="5.52734" width="101.259" height="27.7876" rx="4.24471" fill="url(#paint0_linear_322_49030)"/>
<path d="M48.8764 25.6024C48.2386 25.6024 47.649 25.4399 47.1075 25.115C46.566 24.7781 46.1328 24.3329 45.8079 23.7794C45.4951 23.2258 45.3386 22.6182 45.3386 21.9564L45.3747 12.9316C45.3747 12.8834 45.3988 12.8594 45.4469 12.8594H47.4685C47.5166 12.8594 47.5407 12.8834 47.5407 12.9316V21.9564C47.5407 22.3655 47.667 22.7144 47.9197 23.0032C48.1845 23.28 48.5033 23.4184 48.8764 23.4184C49.2614 23.4184 49.5803 23.28 49.833 23.0032C50.0977 22.7144 50.2301 22.3655 50.2301 21.9564V12.9316C50.2301 12.8834 50.2541 12.8594 50.3023 12.8594H52.3238C52.372 12.8594 52.396 12.8834 52.396 12.9316L52.4321 21.9564C52.4321 22.6302 52.2697 23.2439 51.9448 23.7974C51.6319 24.3509 51.2048 24.7901 50.6633 25.115C50.1338 25.4399 49.5382 25.6024 48.8764 25.6024ZM54.0198 25.4219C53.9235 25.4219 53.8754 25.3798 53.8754 25.2955L53.8573 13.0038C53.8573 12.9075 53.9055 12.8594 54.0017 12.8594H55.6262L58.6766 19.9709L58.5863 13.0038C58.5863 12.9075 58.6405 12.8594 58.7488 12.8594H60.5357C60.6079 12.8594 60.644 12.9075 60.644 13.0038L60.662 25.3136C60.662 25.3858 60.632 25.4219 60.5718 25.4219H58.9834L55.8609 18.7796L55.9872 25.2775C55.9872 25.3737 55.933 25.4219 55.8248 25.4219H54.0198ZM62.3022 25.4219C62.254 25.4219 62.23 25.3918 62.23 25.3316L62.2661 12.9316C62.2661 12.8834 62.2901 12.8594 62.3383 12.8594H65.9843C66.6341 12.8594 67.2297 13.0218 67.7712 13.3467C68.3247 13.6596 68.7639 14.0867 69.0888 14.6282C69.4137 15.1577 69.5761 15.7593 69.5761 16.4332C69.5761 16.8784 69.51 17.2815 69.3776 17.6425C69.2452 17.9915 69.0888 18.2923 68.9083 18.545C68.7278 18.7856 68.5654 18.9661 68.421 19.0865C69.0708 19.8085 69.3957 20.6568 69.3957 21.6315L69.4137 25.3316C69.4137 25.3918 69.3836 25.4219 69.3235 25.4219H67.2838C67.2357 25.4219 67.2116 25.4038 67.2116 25.3677V21.6315C67.2116 21.1983 67.0552 20.8252 66.7424 20.5124C66.4415 20.1875 66.0685 20.025 65.6233 20.025H64.432L64.414 25.3316C64.414 25.3918 64.3899 25.4219 64.3418 25.4219H62.3022ZM64.432 17.8591H65.9843C66.3573 17.8591 66.6882 17.7207 66.977 17.444C67.2658 17.1672 67.4102 16.8303 67.4102 16.4332C67.4102 16.0481 67.2658 15.7172 66.977 15.4404C66.7002 15.1637 66.3693 15.0253 65.9843 15.0253H64.432V17.8591ZM70.3238 25.3316L72.5619 12.9316C72.574 12.8834 72.6041 12.8594 72.6522 12.8594H75.2694C75.3175 12.8594 75.3476 12.8834 75.3596 12.9316L77.5075 25.3316C77.5196 25.3918 77.4955 25.4219 77.4353 25.4219H75.4318C75.3837 25.4219 75.3536 25.3918 75.3416 25.3316L75.143 24.014H72.6883L72.4897 25.3316C72.4777 25.3918 72.4476 25.4219 72.3995 25.4219H70.396C70.3479 25.4219 70.3238 25.3918 70.3238 25.3316ZM73.0493 22.0827H74.782L74.042 17.0108L73.9337 16.3429L73.8615 17.0108L73.0493 22.0827ZM79.5815 25.4219C79.5334 25.4219 79.5093 25.3918 79.5093 25.3316V15.0434H77.1629C77.1027 15.0434 77.0727 15.0133 77.0727 14.9531L77.0907 12.9316C77.0907 12.8834 77.1148 12.8594 77.1629 12.8594H84.0217C84.0819 12.8594 84.112 12.8834 84.112 12.9316V14.9531C84.112 15.0133 84.0879 15.0434 84.0398 15.0434H81.6753L81.6933 25.3316C81.6933 25.3918 81.6693 25.4219 81.6212 25.4219H79.5815ZM85.0757 25.4219C85.0275 25.4219 85.0035 25.3918 85.0035 25.3316L85.0215 12.9316C85.0215 12.8834 85.0456 12.8594 85.0937 12.8594H90.8876C90.9358 12.8594 90.9598 12.8894 90.9598 12.9496V14.9712C90.9598 15.0193 90.9358 15.0434 90.8876 15.0434H87.1875V17.8591H90.8876C90.9358 17.8591 90.9598 17.8832 90.9598 17.9313L90.9779 19.9709C90.9779 20.019 90.9538 20.0431 90.9057 20.0431H87.1875V23.2018H90.9057C90.9538 23.2018 90.9779 23.2319 90.9779 23.292V25.3497C90.9779 25.3978 90.9538 25.4219 90.9057 25.4219H85.0757ZM92.6731 25.4219C92.613 25.4219 92.5829 25.3918 92.5829 25.3316L92.619 12.9316C92.619 12.8834 92.6431 12.8594 92.6912 12.8594L96.0665 12.8413C96.7283 12.8293 97.3299 12.9857 97.8714 13.3106C98.4249 13.6355 98.8642 14.0747 99.189 14.6282C99.5139 15.1697 99.6764 15.7714 99.6764 16.4332V21.6134C99.6764 22.3113 99.5079 22.9491 99.171 23.5267C98.8341 24.0922 98.3828 24.5435 97.8173 24.8804C97.2517 25.2173 96.614 25.3918 95.904 25.4038L92.6731 25.4219ZM94.7849 23.2018H95.904C96.3492 23.2018 96.7223 23.0453 97.0231 22.7325C97.336 22.4196 97.4924 22.0466 97.4924 21.6134V16.4151C97.4924 16.0301 97.348 15.6992 97.0592 15.4224C96.7824 15.1336 96.4515 14.9952 96.0665 15.0073L94.803 15.0253L94.7849 23.2018Z" fill="white"/>
<rect x="0.682989" y="0.682806" width="37.4277" height="37.5832" rx="18.7139" fill="url(#paint1_linear_322_49030)"/>
<rect x="0.682989" y="0.682806" width="37.4277" height="37.5832" rx="18.7139" stroke="url(#paint2_linear_322_49030)" stroke-width="1.36561"/>
<path fill-rule="evenodd" clip-rule="evenodd" d="M15.411 6.04957C15.5847 5.86436 15.8481 5.79475 16.0905 5.86874L27.0166 9.20354L28.3362 9.62613C28.549 9.69432 28.7129 9.86548 28.7729 10.081L29.9662 14.3684C30.0222 14.5696 29.9809 14.7856 29.854 14.9517L29.6182 15.261C29.4925 15.4253 29.45 15.6384 29.5033 15.838L31.3261 22.6703C31.3872 22.8996 31.3215 23.1449 31.154 23.3133L26.6112 27.8761C26.4438 28.0444 26.3779 28.289 26.4389 28.5182L26.6058 29.1438C26.6669 29.373 26.6021 29.6181 26.4346 29.7865L23.3057 32.9282C23.1312 33.1035 22.8738 33.1684 22.6379 33.0958L18.2851 31.7561C18.0665 31.6888 17.8978 31.5129 17.8388 31.2917L17.7207 30.8492C17.6616 30.6276 17.4925 30.4521 17.2734 30.385L11.1759 28.5177C10.9569 28.4506 10.7877 28.2751 10.7286 28.0535L8.95188 21.3939C8.89494 21.1809 8.73596 21.0098 8.52794 20.9376L8.12037 20.7965C7.9123 20.7242 7.75333 20.5532 7.69643 20.3402L6.54223 16.014C6.4836 15.7936 6.54158 15.5587 6.69641 15.391C9.13758 12.7496 14.1667 7.37805 15.411 6.04957ZM16.4939 7.38435C16.2694 7.31505 16.027 7.3789 15.8674 7.55191L8.37599 15.6742C8.23394 15.8282 8.18147 16.0438 8.23543 16.246L11.2429 27.5187C11.2965 27.7197 11.449 27.88 11.6472 27.9429L22.1054 31.259C22.3293 31.3298 22.5746 31.2654 22.7354 31.0935L30.3987 22.8956C30.5427 22.7415 30.5966 22.5235 30.5423 22.32L27.5504 11.1058C27.4964 10.9036 27.3427 10.7434 27.1431 10.6814L16.4939 7.38435Z" fill="url(#paint3_linear_322_49030)"/>
<path d="M16.3069 21.4206L14.5828 14.9585L16.7721 14.3693L18.9308 22.4607L21.4895 21.7721L19.3308 13.6807L21.5201 13.0916L23.2442 19.5537C23.8249 21.7306 22.8319 23.2304 20.6563 23.8159C18.4807 24.4014 16.8877 23.5975 16.3069 21.4206Z" fill="white"/>
<defs>
<linearGradient id="paint0_linear_322_49030" x1="2.74576" y1="-6.56616" x2="97.1942" y2="100.963" gradientUnits="userSpaceOnUse">
<stop stop-color="#909090"/>
<stop offset="1" stop-color="#3C3C3C"/>
</linearGradient>
<linearGradient id="paint1_linear_322_49030" x1="11.2002" y1="3.58078" x2="31.0928" y2="38.8809" gradientUnits="userSpaceOnUse">
<stop stop-color="#8F8F8F"/>
<stop offset="1" stop-color="#4D4D4D"/>
</linearGradient>
<linearGradient id="paint2_linear_322_49030" x1="0.000183105" y1="0" x2="39.0191" y2="63.1839" gradientUnits="userSpaceOnUse">
<stop stop-color="white"/>
<stop offset="1" stop-color="#999999"/>
</linearGradient>
<linearGradient id="paint3_linear_322_49030" x1="15.7626" y1="5.85184" x2="25.8553" y2="43.1221" gradientUnits="userSpaceOnUse">
<stop stop-color="white"/>
</linearGradient>
</defs>
</svg>
