<svg width="79" height="85" viewBox="0 0 79 85" fill="none" xmlns="http://www.w3.org/2000/svg">
<g filter="url(#filter0_f_46_2943)">
<path fill-rule="evenodd" clip-rule="evenodd" d="M45.5484 22.759C49.9337 22.6321 54.8383 21.4127 58.4318 23.93C62.0287 26.4497 62.4592 31.5189 63.9528 35.6513C65.492 39.9099 69.4024 44.5387 67.3372 48.5696C65.095 52.946 58.6283 52.5577 54.1994 54.6884C51.5126 55.981 48.6312 56.7341 46.3567 58.663C42.1873 62.1989 40.8697 69.6683 35.4793 70.564C30.7545 71.3492 26.0992 66.6742 23.965 62.3839C21.8758 58.1842 26.4704 52.8302 24.5323 48.5586C22.1897 43.3956 13.6832 42.5444 12.4519 37.0091C11.3141 31.8945 14.2323 25.4397 18.832 22.9347C23.7442 20.2594 29.6442 24.6377 35.2356 24.601C38.7877 24.5776 41.9977 22.8617 45.5484 22.759Z" fill="url(#paint0_linear_46_2943)"/>
</g>
<g filter="url(#filter1_d_46_2943)">
<path d="M40.3033 64.4501L27.7476 59.1549L32.3786 50.0604L40.3033 54.6159V64.4501Z" fill="url(#paint1_radial_46_2943)"/>
<g clip-path="url(#paint2_diamond_46_2943_clip_path)" data-figma-skip-parse="true"><g transform="matrix(0.00226419 0.0209061 -0.0229486 0.00248541 25.66 37.2752)"><rect x="0" y="0" width="1087.99" height="326.696" fill="url(#paint2_diamond_46_2943)" opacity="1" shape-rendering="crispEdges"/><rect x="0" y="0" width="1087.99" height="326.696" transform="scale(1 -1)" fill="url(#paint2_diamond_46_2943)" opacity="1" shape-rendering="crispEdges"/><rect x="0" y="0" width="1087.99" height="326.696" transform="scale(-1 1)" fill="url(#paint2_diamond_46_2943)" opacity="1" shape-rendering="crispEdges"/><rect x="0" y="0" width="1087.99" height="326.696" transform="scale(-1)" fill="url(#paint2_diamond_46_2943)" opacity="1" shape-rendering="crispEdges"/></g></g><path d="M32.3787 50.0604L29.5998 40.6262L20.851 38.2594C20.851 38.2594 21.0562 51.434 27.7477 59.1534L32.3787 50.0604Z" data-figma-gradient-fill="{&#34;type&#34;:&#34;GRADIENT_DIAMOND&#34;,&#34;stops&#34;:[{&#34;color&#34;:{&#34;r&#34;:0.69166666269302368,&#34;g&#34;:0.95191115140914917,&#34;b&#34;:1.0,&#34;a&#34;:1.0},&#34;position&#34;:0.0},{&#34;color&#34;:{&#34;r&#34;:0.13725490868091583,&#34;g&#34;:0.85882353782653809,&#34;b&#34;:0.99215686321258545,&#34;a&#34;:1.0},&#34;position&#34;:9.9999997473787516e-05},{&#34;color&#34;:{&#34;r&#34;:0.25882354378700256,&#34;g&#34;:0.0,&#34;b&#34;:0.72156864404678345,&#34;a&#34;:1.0},&#34;position&#34;:0.44791665673255920},{&#34;color&#34;:{&#34;r&#34;:0.13725490868091583,&#34;g&#34;:0.0,&#34;b&#34;:0.38823530077934265,&#34;a&#34;:1.0},&#34;position&#34;:1.0}],&#34;stopsVar&#34;:[],&#34;transform&#34;:{&#34;m00&#34;:4.5283861160278320,&#34;m01&#34;:-45.897224426269531,&#34;m02&#34;:46.344425201416016,&#34;m10&#34;:41.812110900878906,&#34;m11&#34;:4.9708189964294434,&#34;m12&#34;:13.883760452270508},&#34;opacity&#34;:1.0,&#34;blendMode&#34;:&#34;NORMAL&#34;,&#34;visible&#34;:true}"/>
<g clip-path="url(#paint3_diamond_46_2943_clip_path)" data-figma-skip-parse="true"><g transform="matrix(-0.0216608 0.0193211 -0.00902477 -0.0398388 42.4905 18.7088)"><rect x="0" y="0" width="1039.07" height="431.49" fill="url(#paint3_diamond_46_2943)" opacity="1" shape-rendering="crispEdges"/><rect x="0" y="0" width="1039.07" height="431.49" transform="scale(1 -1)" fill="url(#paint3_diamond_46_2943)" opacity="1" shape-rendering="crispEdges"/><rect x="0" y="0" width="1039.07" height="431.49" transform="scale(-1 1)" fill="url(#paint3_diamond_46_2943)" opacity="1" shape-rendering="crispEdges"/><rect x="0" y="0" width="1039.07" height="431.49" transform="scale(-1)" fill="url(#paint3_diamond_46_2943)" opacity="1" shape-rendering="crispEdges"/></g></g><path d="M29.5998 40.6278C29.5998 40.6278 34.5055 34.1099 40.3049 32.1023V20.7617C40.3049 20.7617 25.6541 30.5068 20.851 38.2594L29.5998 40.6262V40.6278Z" data-figma-gradient-fill="{&#34;type&#34;:&#34;GRADIENT_DIAMOND&#34;,&#34;stops&#34;:[{&#34;color&#34;:{&#34;r&#34;:0.13725490868091583,&#34;g&#34;:0.85882353782653809,&#34;b&#34;:0.99215686321258545,&#34;a&#34;:1.0},&#34;position&#34;:0.0},{&#34;color&#34;:{&#34;r&#34;:0.21176470816135406,&#34;g&#34;:0.34509804844856262,&#34;b&#34;:0.83921569585800171,&#34;a&#34;:1.0},&#34;position&#34;:0.47395834326744080},{&#34;color&#34;:{&#34;r&#34;:0.24313725531101227,&#34;g&#34;:0.13333334028720856,&#34;b&#34;:0.78039216995239258,&#34;a&#34;:1.0},&#34;position&#34;:1.0}],&#34;stopsVar&#34;:[],&#34;transform&#34;:{&#34;m00&#34;:-43.321567535400391,&#34;m01&#34;:-18.049537658691406,&#34;m02&#34;:73.176063537597656,&#34;m10&#34;:38.642242431640625,&#34;m11&#34;:-79.677619934082031,&#34;m12&#34;:39.226524353027344},&#34;opacity&#34;:1.0,&#34;blendMode&#34;:&#34;NORMAL&#34;,&#34;visible&#34;:true}"/>
<path d="M40.3032 64.4501L52.8604 59.1549L48.2294 50.0604L40.3032 54.6159V64.4501Z" fill="url(#paint4_radial_46_2943)"/>
<path d="M48.2297 50.0604L51.0087 40.6262L59.7575 38.2594C59.7575 38.2594 59.5522 51.434 52.8608 59.1534L48.2297 50.0604Z" fill="url(#paint5_radial_46_2943)"/>
<g clip-path="url(#paint6_diamond_46_2943_clip_path)" data-figma-skip-parse="true"><g transform="matrix(-0.0207551 -0.0175098 0.0384012 -0.0351372 61.0569 38.5583)"><rect x="0" y="0" width="1027.07" height="299.915" fill="url(#paint6_diamond_46_2943)" opacity="1" shape-rendering="crispEdges"/><rect x="0" y="0" width="1027.07" height="299.915" transform="scale(1 -1)" fill="url(#paint6_diamond_46_2943)" opacity="1" shape-rendering="crispEdges"/><rect x="0" y="0" width="1027.07" height="299.915" transform="scale(-1 1)" fill="url(#paint6_diamond_46_2943)" opacity="1" shape-rendering="crispEdges"/><rect x="0" y="0" width="1027.07" height="299.915" transform="scale(-1)" fill="url(#paint6_diamond_46_2943)" opacity="1" shape-rendering="crispEdges"/></g></g><path d="M51.0083 40.6278C51.0083 40.6278 46.1026 34.1099 40.3032 32.1023V20.7617C40.3032 20.7617 54.9526 30.5053 59.7572 38.2594L51.0083 40.6262V40.6278Z" data-figma-gradient-fill="{&#34;type&#34;:&#34;GRADIENT_DIAMOND&#34;,&#34;stops&#34;:[{&#34;color&#34;:{&#34;r&#34;:0.69166666269302368,&#34;g&#34;:0.95191115140914917,&#34;b&#34;:1.0,&#34;a&#34;:1.0},&#34;position&#34;:0.0},{&#34;color&#34;:{&#34;r&#34;:0.13725490868091583,&#34;g&#34;:0.85882353782653809,&#34;b&#34;:0.99215686321258545,&#34;a&#34;:1.0},&#34;position&#34;:9.9999997473787516e-05},{&#34;color&#34;:{&#34;r&#34;:0.23921568691730499,&#34;g&#34;:0.15294118225574493,&#34;b&#34;:0.86666667461395264,&#34;a&#34;:1.0},&#34;position&#34;:0.44791665673255920},{&#34;color&#34;:{&#34;r&#34;:0.23921568691730499,&#34;g&#34;:0.0,&#34;b&#34;:0.61176472902297974,&#34;a&#34;:1.0},&#34;position&#34;:1.0}],&#34;stopsVar&#34;:[],&#34;transform&#34;:{&#34;m00&#34;:-41.510219573974609,&#34;m01&#34;:76.802467346191406,&#34;m02&#34;:43.410732269287109,&#34;m10&#34;:-35.019531250,&#34;m11&#34;:-70.274406433105469,&#34;m12&#34;:91.205238342285156},&#34;opacity&#34;:1.0,&#34;blendMode&#34;:&#34;NORMAL&#34;,&#34;visible&#34;:true}"/>
<g clip-path="url(#paint7_diamond_46_2943_clip_path)" data-figma-skip-parse="true"><g transform="matrix(0.00301892 0.0208306 -0.0263606 0.00382038 37.2829 33.7279)"><rect x="0" y="0" width="1022.47" height="413.543" fill="url(#paint7_diamond_46_2943)" opacity="1" shape-rendering="crispEdges"/><rect x="0" y="0" width="1022.47" height="413.543" transform="scale(1 -1)" fill="url(#paint7_diamond_46_2943)" opacity="1" shape-rendering="crispEdges"/><rect x="0" y="0" width="1022.47" height="413.543" transform="scale(-1 1)" fill="url(#paint7_diamond_46_2943)" opacity="1" shape-rendering="crispEdges"/><rect x="0" y="0" width="1022.47" height="413.543" transform="scale(-1)" fill="url(#paint7_diamond_46_2943)" opacity="1" shape-rendering="crispEdges"/></g></g><path d="M40.3036 32.1022V54.6159L32.3789 50.0618L29.6 40.6277C29.6 40.6277 32.8936 34.1777 40.3051 32.1022H40.3036Z" data-figma-gradient-fill="{&#34;type&#34;:&#34;GRADIENT_DIAMOND&#34;,&#34;stops&#34;:[{&#34;color&#34;:{&#34;r&#34;:0.42083331942558289,&#34;g&#34;:0.93944996595382690,&#34;b&#34;:1.0,&#34;a&#34;:1.0},&#34;position&#34;:0.0},{&#34;color&#34;:{&#34;r&#34;:0.17647059261798859,&#34;g&#34;:0.60000002384185791,&#34;b&#34;:0.96470588445663452,&#34;a&#34;:1.0},&#34;position&#34;:0.14983001351356506},{&#34;color&#34;:{&#34;r&#34;:0.23529411852359772,&#34;g&#34;:0.18039216101169586,&#34;b&#34;:0.87843137979507446,&#34;a&#34;:1.0},&#34;position&#34;:0.66666668653488159},{&#34;color&#34;:{&#34;r&#34;:0.25882354378700256,&#34;g&#34;:0.0,&#34;b&#34;:0.71372550725936890,&#34;a&#34;:1.0},&#34;position&#34;:1.0}],&#34;stopsVar&#34;:[],&#34;transform&#34;:{&#34;m00&#34;:6.0378484725952148,&#34;m01&#34;:-52.721271514892578,&#34;m02&#34;:60.624614715576172,&#34;m10&#34;:41.661159515380859,&#34;m11&#34;:7.6407642364501953,&#34;m12&#34;:9.076965332031250},&#34;opacity&#34;:1.0,&#34;blendMode&#34;:&#34;NORMAL&#34;,&#34;visible&#34;:true}"/>
<g clip-path="url(#paint8_diamond_46_2943_clip_path)" data-figma-skip-parse="true"><g transform="matrix(0.00369818 0.00807562 -0.009025 0.00413294 41.8867 43.3885)"><rect x="0" y="0" width="1631.54" height="1357.76" fill="url(#paint8_diamond_46_2943)" opacity="1" shape-rendering="crispEdges"/><rect x="0" y="0" width="1631.54" height="1357.76" transform="scale(1 -1)" fill="url(#paint8_diamond_46_2943)" opacity="1" shape-rendering="crispEdges"/><rect x="0" y="0" width="1631.54" height="1357.76" transform="scale(-1 1)" fill="url(#paint8_diamond_46_2943)" opacity="1" shape-rendering="crispEdges"/><rect x="0" y="0" width="1631.54" height="1357.76" transform="scale(-1)" fill="url(#paint8_diamond_46_2943)" opacity="1" shape-rendering="crispEdges"/></g></g><path d="M40.3033 32.1022V54.6159L48.2279 50.0618L51.0069 40.6277C51.0069 40.6277 47.7132 34.1777 40.3018 32.1022H40.3033Z" data-figma-gradient-fill="{&#34;type&#34;:&#34;GRADIENT_DIAMOND&#34;,&#34;stops&#34;:[{&#34;color&#34;:{&#34;r&#34;:0.13333334028720856,&#34;g&#34;:0.90588235855102539,&#34;b&#34;:0.99607843160629272,&#34;a&#34;:1.0},&#34;position&#34;:0.0},{&#34;color&#34;:{&#34;r&#34;:0.17647059261798859,&#34;g&#34;:0.60000002384185791,&#34;b&#34;:0.96470588445663452,&#34;a&#34;:1.0},&#34;position&#34;:0.18229167163372040},{&#34;color&#34;:{&#34;r&#34;:0.23137255012989044,&#34;g&#34;:0.21176470816135406,&#34;b&#34;:0.89019608497619629,&#34;a&#34;:1.0},&#34;position&#34;:1.0}],&#34;stopsVar&#34;:[],&#34;transform&#34;:{&#34;m00&#34;:7.3963670730590820,&#34;m01&#34;:-18.049993515014648,&#34;m02&#34;:47.213504791259766,&#34;m10&#34;:16.151247024536133,&#34;m11&#34;:8.2658863067626953,&#34;m12&#34;:31.179920196533203},&#34;opacity&#34;:1.0,&#34;blendMode&#34;:&#34;NORMAL&#34;,&#34;visible&#34;:true}"/>
<g style="mix-blend-mode:soft-light">
<path d="M29.6 40.6277C29.6 40.6277 37.5247 48.4814 48.2298 50.0618L49.7407 44.9342C49.7407 44.9342 42.364 39.325 40.3051 32.1022C39.1685 32.4237 37.8492 32.9173 36.471 33.6932C32.6944 35.82 30.6038 38.8707 29.6 40.6277Z" fill="white"/>
</g>
<path opacity="0.8" d="M29.6 40.6277C29.6 40.6277 37.5247 48.4814 48.2298 50.0618L49.7407 44.9342C49.7407 44.9342 42.364 39.325 40.3051 32.1022C39.1685 32.4237 37.8492 32.9173 36.471 33.6932C32.6944 35.82 30.6038 38.8707 29.6 40.6277Z" fill="url(#paint9_linear_46_2943)"/>
<g style="mix-blend-mode:soft-light">
<path d="M31.5982 47.4143C31.5982 47.4143 40.2157 51.7027 45.9034 51.3978L43.8218 52.5933C43.8218 52.5933 39.9606 53.345 35.6541 51.9442L32.3771 50.0619L31.5967 47.4143H31.5982Z" fill="white"/>
</g>
<g style="mix-blend-mode:soft-light">
<path d="M47.5428 39.4262C47.5428 39.4262 50.3565 36.3242 52.8607 30.5339C52.8607 30.5339 57.9732 34.9672 59.7574 38.2609C59.7574 38.2609 59.5627 45.0127 57.9068 49.4052C57.9068 49.4052 58.7974 45.8776 47.5428 39.4277V39.4262Z" fill="white"/>
</g>
<path opacity="0.2" d="M47.5428 39.4262C47.5428 39.4262 50.3565 36.3242 52.8607 30.5339C52.8607 30.5339 57.9732 34.9672 59.7574 38.2609C59.7574 38.2609 59.5627 45.0127 57.9068 49.4052C57.9068 49.4052 58.7974 45.8776 47.5428 39.4277V39.4262Z" fill="white"/>
<g style="mix-blend-mode:soft-light" opacity="0.5">
<path d="M40.3034 64.45C40.3034 64.45 28.2277 53.5079 29.5982 40.6277C29.5982 40.6277 25.7219 46.6323 27.7461 59.1548L40.3034 64.45Z" fill="white"/>
</g>
<path d="M40.3034 64.45C40.3034 64.45 28.2277 53.5079 29.5982 40.6277C29.5982 40.6277 25.7219 46.6323 27.7461 59.1548L40.3034 64.45Z" fill="url(#paint10_linear_46_2943)"/>
<g style="mix-blend-mode:soft-light">
<path d="M20.851 38.2594C20.851 38.2594 35.6979 22.8599 37.5939 25.7022C37.5939 25.7022 39.3102 26.9037 40.3049 32.1008V20.7617C40.3049 20.7617 26.0661 30.0253 20.851 38.2594Z" fill="url(#paint11_linear_46_2943)"/>
</g>
<path opacity="0.5" d="M20.851 38.2594C20.851 38.2594 35.8489 22.7844 37.5939 25.7022C37.5939 25.7022 39.3102 26.9037 40.3049 32.1008V20.7617C40.3049 20.7617 26.0661 30.0253 20.851 38.2594Z" fill="url(#paint12_linear_46_2943)"/>
<g style="mix-blend-mode:soft-light">
<path d="M48.2297 50.0604L52.8608 56.5813C52.8608 56.5813 58.728 50.406 59.7575 38.2594C59.6775 41.2783 59.2881 43.8414 58.8654 45.8414C58.3748 48.16 57.8088 49.8536 57.5959 50.4725C56.9695 52.2899 56.1363 54.6522 54.337 57.2484C53.7634 58.0756 53.2336 58.7217 52.8623 59.1534C51.3181 56.1224 49.7739 53.0914 48.2312 50.0604H48.2297Z" fill="white"/>
</g>
<path opacity="0.6" d="M48.2297 50.0604L52.8608 56.5813C52.8608 56.5813 58.728 50.406 59.7575 38.2594C59.6775 41.2783 59.2881 43.8414 58.8654 45.8414C58.3748 48.16 57.8088 49.8536 57.5959 50.4725C56.9695 52.2899 56.1363 54.6522 54.337 57.2484C53.7634 58.0756 53.2336 58.7217 52.8623 59.1534C51.3181 56.1224 49.7739 53.0914 48.2312 50.0604H48.2297Z" fill="white"/>
<g style="mix-blend-mode:soft-light">
<path d="M52.8604 59.1548L40.3032 64.45C40.3032 64.45 44.9343 60.0122 52.8604 59.1548Z" fill="white"/>
</g>
<path opacity="0.6" d="M52.8604 59.1548L40.3032 64.45C40.3032 64.45 44.9343 60.0122 52.8604 59.1548Z" fill="url(#paint13_radial_46_2943)"/>
<g style="mix-blend-mode:soft-light">
<path d="M40.3032 32.1022C40.3032 32.1022 46.7184 33.2509 51.0083 40.6277C51.0083 40.6277 48.9841 31.2268 40.3032 32.1022Z" fill="white"/>
</g>
<path opacity="0.9" d="M40.3032 32.1022C40.3032 32.1022 46.7184 33.2509 51.0083 40.6277C51.0083 40.6277 48.9841 31.2268 40.3032 32.1022Z" fill="url(#paint14_radial_46_2943)"/>
<g style="mix-blend-mode:soft-light">
<path d="M29.5998 40.6277L20.851 38.2608C20.851 38.2608 24.9235 36.9189 29.5998 40.6277Z" fill="white"/>
</g>
<path opacity="0.5" d="M29.5998 40.6277L20.851 38.2608C20.851 38.2608 24.9235 36.9189 29.5998 40.6277Z" fill="url(#paint15_radial_46_2943)"/>
<path d="M52.7833 54.5585L53.2877 57.026L55.7551 57.5303L53.2877 58.0347L52.7833 60.5021L52.279 58.0347L49.8115 57.5303L52.279 57.026L52.7833 54.5585Z" fill="white"/>
<g filter="url(#filter2_f_46_2943)">
<path d="M52.7833 54.5585L53.2877 57.026L55.7551 57.5303L53.2877 58.0347L52.7833 60.5021L52.279 58.0347L49.8115 57.5303L52.279 57.026L52.7833 54.5585Z" fill="white"/>
</g>
<path d="M22.6444 34.4827L23.2341 37.3679L26.1193 37.9576L23.2341 38.5473L22.6444 41.4325L22.0547 38.5473L19.1694 37.9576L22.0547 37.3679L22.6444 34.4827Z" fill="white"/>
<g filter="url(#filter3_f_46_2943)">
<path d="M22.6444 34.4827L23.2341 37.3679L26.1193 37.9576L23.2341 38.5473L22.6444 41.4325L22.0547 38.5473L19.1694 37.9576L22.0547 37.3679L22.6444 34.4827Z" fill="white"/>
</g>
<path d="M52.7884 29.5015L53.1655 31.3465L55.0106 31.7236L53.1655 32.1007L52.7884 33.9457L52.4113 32.1007L50.5663 31.7236L52.4113 31.3465L52.7884 29.5015Z" fill="white"/>
<g filter="url(#filter4_f_46_2943)">
<path d="M52.7884 29.5015L53.1655 31.3465L55.0106 31.7236L53.1655 32.1007L52.7884 33.9457L52.4113 32.1007L50.5663 31.7236L52.4113 31.3465L52.7884 29.5015Z" fill="white"/>
</g>
<g style="mix-blend-mode:overlay" filter="url(#filter5_f_46_2943)">
<g style="mix-blend-mode:lighten">
<path d="M34.4181 34.6806C34.3941 34.5743 34.461 34.4663 34.5673 34.4423C34.6737 34.4183 34.7818 34.4851 34.8058 34.5914C34.8298 34.6977 34.7629 34.8058 34.6565 34.8298C34.5502 34.8538 34.4421 34.7869 34.4181 34.6806Z" fill="#FFFBFC"/>
</g>
<g style="mix-blend-mode:lighten">
<path d="M49.7659 48.2324C49.7281 48.0695 49.831 47.9067 49.994 47.8707C50.157 47.8329 50.32 47.9358 50.356 48.0987C50.3937 48.2616 50.2908 48.4245 50.1278 48.4605C49.9649 48.4982 49.8019 48.3953 49.7659 48.2324Z" fill="#FFFBFC"/>
</g>
<g style="mix-blend-mode:lighten">
<path d="M30.8774 37.3382C30.838 37.1616 30.9477 36.985 31.1244 36.9456C31.3011 36.9061 31.4778 37.0159 31.5173 37.1925C31.5567 37.3691 31.447 37.5457 31.2703 37.5851C31.0936 37.6246 30.9169 37.5148 30.8774 37.3382Z" fill="#FFFBFC"/>
</g>
<g style="mix-blend-mode:lighten">
<path d="M35.3101 39.2431C35.4559 39.4249 35.4285 39.6907 35.2466 39.8381C35.0648 39.9839 34.7989 39.9564 34.6514 39.7747C34.5055 39.5929 34.533 39.3271 34.7148 39.1797C34.8967 39.0339 35.1626 39.0614 35.3101 39.2431Z" fill="#FFFBFC"/>
</g>
<g style="mix-blend-mode:lighten">
<path d="M36.8385 38.787C36.9621 38.9413 36.938 39.1659 36.7837 39.2894C36.6293 39.4129 36.4045 39.3889 36.281 39.2345C36.1575 39.0802 36.1815 38.8556 36.3359 38.7321C36.4903 38.6087 36.715 38.6327 36.8385 38.787Z" fill="#FFFBFC"/>
</g>
<g style="mix-blend-mode:lighten">
<path d="M36.8952 36.5462C36.957 36.6234 36.945 36.7383 36.8678 36.8C36.7906 36.8617 36.6757 36.8497 36.6139 36.7725C36.5521 36.6954 36.5641 36.5805 36.6413 36.5188C36.7185 36.4571 36.8335 36.4691 36.8952 36.5462Z" fill="#FFFBFC"/>
</g>
<g style="mix-blend-mode:lighten">
<path d="M41.2888 41.8526C41.2631 41.748 41.3283 41.6417 41.4329 41.616C41.5376 41.5902 41.6439 41.6554 41.6697 41.76C41.6954 41.8646 41.6302 41.9709 41.5256 41.9966C41.4209 42.0223 41.3146 41.9572 41.2888 41.8526Z" fill="#FFFBFC"/>
</g>
<g style="mix-blend-mode:lighten">
<path d="M38.036 38.6053C38.0069 38.4836 38.0824 38.3601 38.2042 38.331C38.326 38.3018 38.4495 38.3773 38.4786 38.499C38.5078 38.6207 38.4323 38.7442 38.3105 38.7733C38.1887 38.8025 38.0652 38.727 38.036 38.6053Z" fill="#FFFBFC"/>
</g>
<g style="mix-blend-mode:lighten">
<path d="M27.7853 47.5324C27.7304 47.306 27.8711 47.078 28.0975 47.0231C28.324 46.9682 28.5521 47.1088 28.607 47.3352C28.6619 47.5615 28.5213 47.7895 28.2948 47.8444C28.0684 47.8993 27.8402 47.7587 27.7853 47.5324Z" fill="#FFFBFC"/>
</g>
<g style="mix-blend-mode:lighten">
<path d="M46.0522 56.9547C46.2117 56.9256 46.3661 57.0301 46.3953 57.1896C46.4244 57.3491 46.3198 57.5034 46.1602 57.5325C46.0007 57.5617 45.8463 57.4571 45.8171 57.2976C45.788 57.1382 45.8926 56.9839 46.0522 56.9547Z" fill="#FFFBFC"/>
</g>
<g style="mix-blend-mode:lighten">
<path d="M37.2506 57.0829C37.3535 57.064 37.4513 57.1309 37.4702 57.2338C37.489 57.3367 37.4221 57.4344 37.3192 57.4533C37.2163 57.4721 37.1185 57.4052 37.0996 57.3024C37.0807 57.1995 37.1477 57.1018 37.2506 57.0829Z" fill="#FFFBFC"/>
</g>
<g style="mix-blend-mode:lighten">
<path d="M37.6501 54.8676C37.8697 54.8264 38.079 54.9704 38.1201 55.1899C38.1613 55.4094 38.0172 55.6186 37.7976 55.6597C37.578 55.7009 37.3687 55.5568 37.3276 55.3374C37.2864 55.1179 37.4305 54.9087 37.6501 54.8676Z" fill="#FFFBFC"/>
</g>
<g style="mix-blend-mode:lighten">
<path d="M36.2416 53.7258C36.4509 53.6864 36.6534 53.8253 36.6928 54.0344C36.7323 54.2436 36.5933 54.446 36.384 54.4854C36.1747 54.5248 35.9723 54.3859 35.9328 54.1768C35.8934 53.9676 36.0323 53.7652 36.2416 53.7258Z" fill="#FFFBFC"/>
</g>
<g style="mix-blend-mode:lighten">
<path d="M36.535 52.2976C36.7117 52.265 36.8833 52.3816 36.9159 52.5582C36.9484 52.7348 36.8318 52.9063 36.6551 52.9388C36.4784 52.9714 36.3069 52.8548 36.2743 52.6782C36.2417 52.5016 36.3583 52.3302 36.535 52.2976Z" fill="#FFFBFC"/>
</g>
<g style="mix-blend-mode:lighten">
<path d="M34.7526 51.2843C34.8418 51.2672 34.9293 51.3272 34.9447 51.4163C34.9619 51.5055 34.9018 51.5929 34.8126 51.6084C34.7234 51.6255 34.6359 51.5655 34.6205 51.4763C34.6033 51.3872 34.6634 51.2997 34.7526 51.2843Z" fill="#FFFBFC"/>
</g>
<g style="mix-blend-mode:lighten">
<path d="M42.1549 38.6275C42.2767 38.7801 42.2527 39.0013 42.1017 39.123C41.949 39.2448 41.7277 39.2208 41.6059 39.0699C41.4841 38.9173 41.5082 38.6961 41.6591 38.5743C41.8118 38.4526 42.0331 38.4766 42.1549 38.6275Z" fill="#FFFBFC"/>
</g>
<path d="M44.9273 35.099C44.9942 35.1813 44.9805 35.3013 44.8982 35.3682C44.8158 35.4351 44.6957 35.4214 44.6288 35.3391C44.5619 35.2568 44.5757 35.1367 44.658 35.0699C44.7403 35.003 44.8604 35.0167 44.9273 35.099Z" fill="#FFFBFC"/>
</g>
<g style="mix-blend-mode:lighten">
<path d="M49.766 48.2318C49.7282 48.0689 49.8312 47.906 49.9941 47.87C50.1571 47.8323 50.3201 47.9352 50.3561 48.0981C50.3939 48.261 50.2909 48.4239 50.1279 48.4599C49.965 48.4976 49.802 48.3947 49.766 48.2318Z" fill="#FFFBFC"/>
</g>
<g style="mix-blend-mode:lighten">
<path d="M30.8781 37.3375C30.8387 37.1609 30.9485 36.9843 31.1252 36.9448C31.3019 36.9054 31.4786 37.0151 31.518 37.1918C31.5575 37.3684 31.4477 37.545 31.271 37.5844C31.0943 37.6238 30.9176 37.5141 30.8781 37.3375Z" fill="#FFFBFC"/>
</g>
<g style="mix-blend-mode:lighten">
<path d="M35.3102 39.2438C35.456 39.4256 35.4286 39.6913 35.2468 39.8388C35.0649 39.9845 34.799 39.9571 34.6515 39.7753C34.5057 39.5936 34.5331 39.3278 34.715 39.1804C34.8968 39.0346 35.1627 39.0621 35.3102 39.2438Z" fill="#FFFBFC"/>
</g>
<g style="mix-blend-mode:lighten">
<path d="M38.7494 41.2169C38.873 41.3712 38.8489 41.5958 38.6945 41.7193C38.5401 41.8427 38.3154 41.8187 38.1919 41.6644C38.0684 41.5101 38.0924 41.2855 38.2468 41.162C38.4012 41.0386 38.6259 41.0626 38.7494 41.2169Z" fill="#FFFBFC"/>
</g>
<g style="mix-blend-mode:lighten">
<path d="M36.8952 36.5455C36.957 36.6226 36.945 36.7375 36.8678 36.7992C36.7906 36.861 36.6757 36.849 36.6139 36.7718C36.5521 36.6947 36.5641 36.5798 36.6413 36.518C36.7185 36.4563 36.8335 36.4683 36.8952 36.5455Z" fill="#FFFBFC"/>
</g>
<g style="mix-blend-mode:lighten">
<path d="M41.2883 41.8533C41.2626 41.7487 41.3278 41.6424 41.4324 41.6166C41.5371 41.5909 41.6434 41.6561 41.6692 41.7607C41.6949 41.8653 41.6297 41.9716 41.5251 41.9973C41.4204 42.023 41.3141 41.9579 41.2883 41.8533Z" fill="#FFFBFC"/>
</g>
<g style="mix-blend-mode:lighten">
<path d="M38.0368 38.605C38.0076 38.4833 38.0831 38.3598 38.2049 38.3307C38.3267 38.3015 38.4502 38.377 38.4794 38.4987C38.5085 38.6204 38.4331 38.7439 38.3113 38.773C38.1895 38.8022 38.0659 38.7267 38.0368 38.605Z" fill="#FFFBFC"/>
</g>
<g style="mix-blend-mode:lighten">
<path d="M35.7816 41.6852C35.7404 41.5121 35.8467 41.3389 36.02 41.296C36.1933 41.2549 36.3665 41.3612 36.4094 41.5344C36.4506 41.7075 36.3442 41.8807 36.171 41.9236C35.9977 41.9647 35.8244 41.8584 35.7816 41.6852Z" fill="#FFFBFC"/>
</g>
<g style="mix-blend-mode:lighten">
<path d="M34.6986 44.1324C34.6711 44.0209 34.7397 43.9112 34.8512 43.8837C34.9627 43.8563 35.0725 43.9249 35.1 44.0363C35.1274 44.1478 35.0588 44.2575 34.9473 44.285C34.8358 44.3124 34.726 44.2438 34.6986 44.1324Z" fill="#FFFBFC"/>
</g>
<g style="mix-blend-mode:lighten">
<path d="M28.9326 40.9271C28.876 40.6905 29.0218 40.4521 29.2586 40.3956C29.4953 40.339 29.7337 40.4847 29.7904 40.7213C29.847 40.958 29.7011 41.1963 29.4644 41.2529C29.2277 41.3095 28.9892 41.1637 28.9326 40.9271Z" fill="#FFFBFC"/>
</g>
<g style="mix-blend-mode:lighten">
<path d="M28.9331 40.9277C28.8765 40.6911 29.0223 40.4527 29.259 40.3962C29.4958 40.3396 29.7342 40.4853 29.7908 40.7219C29.8475 40.9586 29.7016 41.1969 29.4649 41.2535C29.2282 41.3101 28.9897 41.1643 28.9331 40.9277Z" fill="#FFFBFC"/>
</g>
<g style="mix-blend-mode:lighten">
<path d="M27.7853 47.5324C27.7304 47.3061 27.8711 47.078 28.0975 47.0232C28.324 46.9683 28.5521 47.1089 28.607 47.3352C28.6619 47.5616 28.5213 47.7896 28.2948 47.8445C28.0684 47.8993 27.8402 47.7587 27.7853 47.5324Z" fill="#FFFBFC"/>
</g>
<g style="mix-blend-mode:lighten">
<path d="M46.0526 56.9549C46.2122 56.9257 46.3666 57.0303 46.3957 57.1898C46.4249 57.3493 46.3203 57.5036 46.1607 57.5327C46.0012 57.5619 45.8468 57.4573 45.8176 57.2978C45.7885 57.1384 45.8931 56.984 46.0526 56.9549Z" fill="#FFFBFC"/>
</g>
<g style="mix-blend-mode:lighten">
<path d="M37.2501 57.0826C37.353 57.0638 37.4508 57.1307 37.4697 57.2335C37.4885 57.3364 37.4216 57.4342 37.3187 57.453C37.2158 57.4719 37.118 57.405 37.0991 57.3021C37.0803 57.1992 37.1472 57.1015 37.2501 57.0826Z" fill="#FFFBFC"/>
</g>
<g style="mix-blend-mode:lighten">
<path d="M37.6506 54.8685C37.8702 54.8273 38.0795 54.9713 38.1206 55.1908C38.1618 55.4103 38.0177 55.6195 37.7981 55.6606C37.5785 55.7018 37.3692 55.5578 37.3281 55.3383C37.2869 55.1188 37.431 54.9096 37.6506 54.8685Z" fill="#FFFBFC"/>
</g>
<g style="mix-blend-mode:lighten">
<path d="M36.242 53.725C36.4513 53.6856 36.6537 53.8245 36.6932 54.0337C36.7326 54.2428 36.5937 54.4452 36.3844 54.4846C36.1751 54.524 35.9727 54.3852 35.9332 54.176C35.8938 53.9668 36.0327 53.7645 36.242 53.725Z" fill="#FFFBFC"/>
</g>
<g style="mix-blend-mode:lighten">
<path d="M36.5345 52.2974C36.7112 52.2648 36.8828 52.3814 36.9154 52.558C36.948 52.7346 36.8313 52.9061 36.6546 52.9387C36.4779 52.9712 36.3064 52.8546 36.2738 52.678C36.2412 52.5014 36.3578 52.33 36.5345 52.2974Z" fill="#FFFBFC"/>
</g>
<g style="mix-blend-mode:lighten">
<path d="M34.7529 51.2846C34.8421 51.2675 34.9296 51.3275 34.9451 51.4166C34.9622 51.5058 34.9022 51.5932 34.813 51.6087C34.7238 51.6258 34.6363 51.5658 34.6208 51.4766C34.6037 51.3875 34.6637 51.3 34.7529 51.2846Z" fill="#FFFBFC"/>
</g>
<g style="mix-blend-mode:lighten">
<path d="M42.1555 38.6268C42.2773 38.7794 42.2533 39.0006 42.1023 39.1224C41.9496 39.2441 41.7283 39.2201 41.6065 39.0692C41.4847 38.9166 41.5088 38.6954 41.6597 38.5737C41.8124 38.4519 42.0337 38.4759 42.1555 38.6268Z" fill="#FFFBFC"/>
</g>
<path d="M44.9277 35.0996C44.9946 35.1819 44.9809 35.3019 44.8985 35.3688C44.8162 35.4357 44.6961 35.422 44.6292 35.3397C44.5623 35.2574 44.576 35.1373 44.6584 35.0705C44.7407 35.0036 44.8608 35.0173 44.9277 35.0996Z" fill="#FFFBFC"/>
<path d="M29.2072 34.0436L29.3045 34.5221L29.7806 34.6199L29.3045 34.7177L29.2072 35.1963L29.1098 34.7177L28.6337 34.6199L29.1098 34.5221L29.2072 34.0436Z" fill="white"/>
<g filter="url(#filter6_f_46_2943)">
<path d="M29.2072 34.0436L29.3045 34.5221L29.7806 34.6199L29.3045 34.7177L29.2072 35.1963L29.1098 34.7177L28.6337 34.6199L29.1098 34.5221L29.2072 34.0436Z" fill="white"/>
</g>
<path d="M54.2584 48.4686L54.5928 48.8231L55.0484 48.6531L54.6957 48.9891L54.8648 49.447L54.5305 49.0926L54.0748 49.2626L54.4275 48.9265L54.2584 48.4686Z" fill="white"/>
<g filter="url(#filter7_f_46_2943)">
<path d="M54.2584 48.4686L54.5928 48.8231L55.0484 48.6531L54.6957 48.9891L54.8648 49.447L54.5305 49.0926L54.0748 49.2626L54.4275 48.9265L54.2584 48.4686Z" fill="white"/>
</g>
<path d="M29.8774 52.3324L30.0718 52.7801L30.5578 52.7761L30.1124 52.9714L30.1164 53.4598L29.922 53.0122L29.436 53.0162L29.8815 52.8208L29.8774 52.3324Z" fill="white"/>
<g filter="url(#filter8_f_46_2943)">
<path d="M29.8774 52.3324L30.0718 52.7801L30.5578 52.7761L30.1124 52.9714L30.1164 53.4598L29.922 53.0122L29.436 53.0162L29.8815 52.8208L29.8774 52.3324Z" fill="white"/>
</g>
</g>
<g style="mix-blend-mode:overlay" filter="url(#filter9_f_46_2943)">
<g style="mix-blend-mode:lighten">
<path d="M25.1567 13.7373C25.1059 13.5127 25.2473 13.2844 25.472 13.2336C25.6967 13.1829 25.925 13.3242 25.9758 13.5489C26.0265 13.7735 25.8851 14.0018 25.6604 14.0525C25.4357 14.1033 25.2074 13.962 25.1567 13.7373Z" fill="#FFFBFC"/>
</g>
<g style="mix-blend-mode:lighten">
<path d="M57.5809 42.3773C57.5012 42.0331 57.7187 41.6889 58.063 41.6128C58.4073 41.5331 58.7516 41.7505 58.8277 42.0947C58.9074 42.4389 58.6899 42.7832 58.3456 42.8593C58.0013 42.939 57.657 42.7216 57.5809 42.3773Z" fill="#FFFBFC"/>
</g>
<g style="mix-blend-mode:lighten">
<path d="M17.6766 19.3539C17.5933 18.9807 17.8252 18.6075 18.1985 18.5242C18.5718 18.4408 18.9451 18.6727 19.0285 19.0459C19.1118 19.4192 18.8799 19.7924 18.5066 19.8757C18.1333 19.959 17.76 19.7271 17.6766 19.3539Z" fill="#FFFBFC"/>
</g>
<g style="mix-blend-mode:lighten">
<path d="M27.0414 23.3795C27.3494 23.7636 27.2914 24.3252 26.9073 24.6369C26.5231 24.9449 25.9614 24.8869 25.6497 24.5028C25.3416 24.1187 25.3996 23.5571 25.7838 23.2455C26.1679 22.9375 26.7297 22.9954 27.0414 23.3795Z" fill="#FFFBFC"/>
</g>
<g style="mix-blend-mode:lighten">
<path d="M30.2703 22.4156C30.5312 22.7418 30.4805 23.2164 30.1543 23.4773C29.8281 23.7382 29.3533 23.6875 29.0924 23.3614C28.8314 23.0353 28.8822 22.5606 29.2084 22.2997C29.5345 22.0388 30.0093 22.0895 30.2703 22.4156Z" fill="#FFFBFC"/>
</g>
<g style="mix-blend-mode:lighten">
<path d="M30.3901 17.68C30.5206 17.843 30.4952 18.0858 30.3321 18.2162C30.169 18.3467 29.9262 18.3213 29.7957 18.1583C29.6652 17.9952 29.6906 17.7524 29.8537 17.622C30.0168 17.4915 30.2596 17.5169 30.3901 17.68Z" fill="#FFFBFC"/>
</g>
<g style="mix-blend-mode:lighten">
<path d="M39.6721 28.8945C39.6178 28.6734 39.7555 28.4488 39.9766 28.3944C40.1977 28.3401 40.4224 28.4778 40.4767 28.6988C40.5311 28.9198 40.3934 29.1445 40.1723 29.1988C39.9512 29.2532 39.7265 29.1155 39.6721 28.8945Z" fill="#FFFBFC"/>
</g>
<g style="mix-blend-mode:lighten">
<path d="M32.8003 22.0316C32.7387 21.7743 32.8982 21.5134 33.1555 21.4518C33.4128 21.3902 33.6738 21.5497 33.7354 21.8069C33.797 22.0642 33.6375 22.3251 33.3802 22.3867C33.1229 22.4483 32.862 22.2889 32.8003 22.0316Z" fill="#FFFBFC"/>
</g>
<g style="mix-blend-mode:lighten">
<path d="M25.469 28.5393C25.382 28.1733 25.6067 27.8073 25.9728 27.7168C26.3388 27.6298 26.7049 27.8544 26.7955 28.2204C26.8825 28.5864 26.6578 28.9524 26.2917 29.0429C25.9257 29.1299 25.5596 28.9053 25.469 28.5393Z" fill="#FFFBFC"/>
</g>
<g style="mix-blend-mode:lighten">
<path d="M24.2833 33.7134C24.2253 33.4779 24.3703 33.246 24.6058 33.188C24.8414 33.13 25.0734 33.275 25.1313 33.5105C25.1893 33.746 25.0444 33.9779 24.8088 34.0359C24.5732 34.0939 24.3413 33.9489 24.2833 33.7134Z" fill="#FFFBFC"/>
</g>
<g style="mix-blend-mode:lighten">
<path d="M18.0862 24.2656C17.9666 23.7656 18.2747 23.2619 18.7748 23.1423C19.2749 23.0228 19.7787 23.3308 19.8983 23.8308C20.0179 24.3308 19.7098 24.8345 19.2097 24.9541C18.7096 25.0737 18.2058 24.7657 18.0862 24.2656Z" fill="#FFFBFC"/>
</g>
<g style="mix-blend-mode:lighten">
<path d="M20.9844 39.0741C20.8685 38.5958 21.1657 38.1139 21.6441 37.9979C22.1225 37.882 22.6045 38.1791 22.7204 38.6574C22.8364 39.1357 22.5392 39.6176 22.0608 39.7336C21.5824 39.8495 21.1004 39.5524 20.9844 39.0741Z" fill="#FFFBFC"/>
</g>
<g style="mix-blend-mode:lighten">
<path d="M13.3206 35.9239C13.2228 35.5181 13.4729 35.1086 13.8788 35.0144C14.2847 34.9166 14.6942 35.1666 14.7885 35.5724C14.8863 35.9783 14.6362 36.3877 14.2303 36.4819C13.8244 36.5798 13.4149 36.3298 13.3206 35.9239Z" fill="#FFFBFC"/>
</g>
<g style="mix-blend-mode:lighten">
<path d="M11.1856 40.1561C11.1349 39.9496 11.2617 39.7467 11.4683 39.6959C11.6749 39.6452 11.8778 39.772 11.9286 39.9786C11.9793 40.1851 11.8525 40.388 11.6459 40.4387C11.4393 40.4895 11.2364 40.3626 11.1856 40.1561Z" fill="#FFFBFC"/>
</g>
<g style="mix-blend-mode:lighten">
<path d="M49.7353 60.8109C50.0724 60.7493 50.3986 60.9703 50.4602 61.3073C50.5218 61.6443 50.3007 61.9704 49.9637 62.032C49.6266 62.0936 49.3004 61.8726 49.2388 61.5356C49.1772 61.1986 49.3983 60.8725 49.7353 60.8109Z" fill="#FFFBFC"/>
</g>
<g style="mix-blend-mode:lighten">
<path d="M31.1406 61.0816C31.3581 61.0418 31.5646 61.1831 31.6045 61.4005C31.6444 61.6179 31.503 61.8244 31.2856 61.8643C31.0681 61.9041 30.8615 61.7628 30.8217 61.5454C30.7818 61.328 30.9231 61.1215 31.1406 61.0816Z" fill="#FFFBFC"/>
</g>
<g style="mix-blend-mode:lighten">
<path d="M31.985 56.4C32.4489 56.313 32.8911 56.6174 32.978 57.0812C33.065 57.545 32.7606 57.987 32.2967 58.074C31.8328 58.161 31.3906 57.8566 31.3037 57.3928C31.2167 56.929 31.5211 56.4869 31.985 56.4Z" fill="#FFFBFC"/>
</g>
<g style="mix-blend-mode:lighten">
<path d="M29.0092 53.9869C29.4513 53.9036 29.879 54.1971 29.9623 54.6392C30.0457 55.0812 29.7521 55.5088 29.31 55.5921C28.8678 55.6755 28.4402 55.382 28.3568 54.9399C28.2734 54.4978 28.567 54.0703 29.0092 53.9869Z" fill="#FFFBFC"/>
</g>
<g style="mix-blend-mode:lighten">
<path d="M29.6292 50.9685C30.0025 50.8997 30.3649 51.1461 30.4338 51.5193C30.5026 51.8925 30.2562 52.2548 29.8829 52.3237C29.5096 52.3925 29.1472 52.1461 29.0783 51.7729C29.0094 51.3997 29.2559 51.0374 29.6292 50.9685Z" fill="#FFFBFC"/>
</g>
<g style="mix-blend-mode:lighten">
<path d="M25.8636 48.8272C26.0521 48.791 26.2369 48.9178 26.2695 49.1062C26.3058 49.2947 26.1789 49.4795 25.9905 49.5121C25.802 49.5483 25.6172 49.4215 25.5846 49.2331C25.5483 49.0446 25.6752 48.8598 25.8636 48.8272Z" fill="#FFFBFC"/>
</g>
<g style="mix-blend-mode:lighten">
<path d="M33.7462 16.1722C33.9636 16.4404 33.9201 16.8317 33.6519 17.0491C33.3838 17.2665 32.9923 17.223 32.7749 16.9549C32.5574 16.6868 32.6009 16.2954 32.8691 16.078C33.1373 15.8606 33.5287 15.9041 33.7462 16.1722Z" fill="#FFFBFC"/>
</g>
<g style="mix-blend-mode:lighten">
<path d="M41.5021 22.0784C41.7594 22.4009 41.7087 22.8683 41.3897 23.1256C41.0672 23.3829 40.5997 23.3321 40.3423 23.0133C40.085 22.6908 40.1358 22.2233 40.4547 21.9661C40.7772 21.7088 41.2448 21.7595 41.5021 22.0784Z" fill="#FFFBFC"/>
</g>
<path d="M40.7158 16.8936C40.8571 17.0711 40.8317 17.3284 40.6542 17.4733C40.4766 17.6146 40.2193 17.5893 40.0743 17.4117C39.9329 17.2342 39.9583 16.9769 40.1359 16.832C40.3135 16.6906 40.5708 16.716 40.7158 16.8936Z" fill="#FFFBFC"/>
<path d="M47.359 14.6215C47.5004 14.7954 47.4714 15.049 47.2974 15.1904C47.1235 15.3317 46.8698 15.3027 46.7284 15.1288C46.5871 14.9548 46.6161 14.7012 46.79 14.5599C46.964 14.4186 47.2177 14.4476 47.359 14.6215Z" fill="#FFFBFC"/>
</g>
<g style="mix-blend-mode:lighten">
<path d="M25.1566 13.7373C25.1058 13.5127 25.2472 13.2844 25.4719 13.2336C25.6966 13.1829 25.9249 13.3242 25.9756 13.5489C26.0264 13.7735 25.885 14.0018 25.6603 14.0525C25.4356 14.1033 25.2073 13.962 25.1566 13.7373Z" fill="#FFFBFC"/>
</g>
<g style="mix-blend-mode:lighten">
<path d="M57.5808 42.3773C57.5011 42.0331 57.7185 41.6889 58.0628 41.6128C58.4071 41.5331 58.7514 41.7505 58.8275 42.0947C58.9073 42.4389 58.6898 42.7832 58.3455 42.8593C58.0012 42.939 57.6569 42.7216 57.5808 42.3773Z" fill="#FFFBFC"/>
</g>
<g style="mix-blend-mode:lighten">
<path d="M17.6765 19.3539C17.5931 18.9806 17.8251 18.6074 18.1984 18.5241C18.5717 18.4408 18.945 18.6727 19.0283 19.0459C19.1117 19.4191 18.8797 19.7923 18.5064 19.8756C18.1332 19.959 17.7599 19.7271 17.6765 19.3539Z" fill="#FFFBFC"/>
</g>
<g style="mix-blend-mode:lighten">
<path d="M27.0411 23.3796C27.3492 23.7637 27.2912 24.3253 26.907 24.6369C26.5229 24.9449 25.9611 24.887 25.6494 24.5029C25.3414 24.1188 25.3994 23.5571 25.7835 23.2455C26.1677 22.9375 26.7294 22.9955 27.0411 23.3796Z" fill="#FFFBFC"/>
</g>
<g style="mix-blend-mode:lighten">
<path d="M30.2703 22.4155C30.5312 22.7416 30.4805 23.2163 30.1543 23.4772C29.8281 23.7381 29.3533 23.6874 29.0924 23.3612C28.8314 23.0351 28.8822 22.5605 29.2084 22.2996C29.5345 22.0387 30.0093 22.0894 30.2703 22.4155Z" fill="#FFFBFC"/>
</g>
<g style="mix-blend-mode:lighten">
<path d="M30.3901 17.68C30.5206 17.843 30.4952 18.0858 30.3321 18.2162C30.169 18.3467 29.9262 18.3213 29.7957 18.1583C29.6652 17.9952 29.6906 17.7524 29.8537 17.622C30.0168 17.4915 30.2596 17.5169 30.3901 17.68Z" fill="#FFFBFC"/>
</g>
<g style="mix-blend-mode:lighten">
<path d="M39.6719 28.8945C39.6175 28.6734 39.7553 28.4488 39.9763 28.3944C40.1974 28.3401 40.4221 28.4778 40.4765 28.6988C40.5308 28.9198 40.3931 29.1445 40.172 29.1988C39.951 29.2532 39.7263 29.1155 39.6719 28.8945Z" fill="#FFFBFC"/>
</g>
<g style="mix-blend-mode:lighten">
<path d="M32.8002 22.0316C32.7386 21.7743 32.8981 21.5134 33.1554 21.4518C33.4127 21.3902 33.6737 21.5497 33.7353 21.8069C33.7969 22.0642 33.6374 22.3251 33.3801 22.3867C33.1228 22.4483 32.8618 22.2889 32.8002 22.0316Z" fill="#FFFBFC"/>
</g>
<g style="mix-blend-mode:lighten">
<path d="M25.4686 28.5393C25.3817 28.1734 25.6064 27.8074 25.9724 27.7168C26.3385 27.6298 26.7045 27.8545 26.7951 28.2205C26.8821 28.5864 26.6574 28.9524 26.2913 29.043C25.9253 29.13 25.5593 28.9053 25.4686 28.5393Z" fill="#FFFBFC"/>
</g>
<g style="mix-blend-mode:lighten">
<path d="M24.2832 33.7137C24.2252 33.4782 24.3701 33.2463 24.6057 33.1883C24.8413 33.1303 25.0732 33.2753 25.1312 33.5108C25.1892 33.7463 25.0442 33.9782 24.8087 34.0362C24.5731 34.0942 24.3411 33.9492 24.2832 33.7137Z" fill="#FFFBFC"/>
</g>
<g style="mix-blend-mode:lighten">
<path d="M18.0861 24.2656C17.9665 23.7656 18.2745 23.2619 18.7747 23.1423C19.2748 23.0228 19.7786 23.3308 19.8982 23.8308C20.0178 24.3308 19.7097 24.8345 19.2096 24.9541C18.7094 25.0737 18.2057 24.7657 18.0861 24.2656Z" fill="#FFFBFC"/>
</g>
<g style="mix-blend-mode:lighten">
<path d="M20.9843 39.0741C20.8684 38.5958 21.1655 38.1139 21.6439 37.9979C22.1223 37.882 22.6044 38.1791 22.7203 38.6574C22.8363 39.1357 22.5391 39.6176 22.0607 39.7336C21.5823 39.8495 21.1003 39.5524 20.9843 39.0741Z" fill="#FFFBFC"/>
</g>
<g style="mix-blend-mode:lighten">
<path d="M13.3203 35.9239C13.2224 35.518 13.4725 35.1086 13.8784 35.0144C14.2843 34.9165 14.6939 35.1666 14.7881 35.5724C14.8859 35.9782 14.6359 36.3877 14.23 36.4819C13.824 36.5797 13.4145 36.3297 13.3203 35.9239Z" fill="#FFFBFC"/>
</g>
<g style="mix-blend-mode:lighten">
<path d="M11.1854 40.156C11.1346 39.9495 11.2615 39.7466 11.4681 39.6959C11.6746 39.6451 11.8776 39.772 11.9283 39.9785C11.9791 40.185 11.8522 40.3879 11.6456 40.4387C11.4391 40.4894 11.2361 40.3626 11.1854 40.156Z" fill="#FFFBFC"/>
</g>
<g style="mix-blend-mode:lighten">
<path d="M49.7351 60.8112C50.0721 60.7496 50.3983 60.9706 50.4599 61.3076C50.5215 61.6446 50.3005 61.9707 49.9634 62.0323C49.6264 62.0939 49.3002 61.8729 49.2386 61.5359C49.177 61.1989 49.398 60.8728 49.7351 60.8112Z" fill="#FFFBFC"/>
</g>
<g style="mix-blend-mode:lighten">
<path d="M31.1406 61.0816C31.3581 61.0418 31.5646 61.1831 31.6045 61.4005C31.6444 61.6179 31.503 61.8244 31.2856 61.8643C31.0681 61.9041 30.8615 61.7628 30.8217 61.5454C30.7818 61.328 30.9231 61.1215 31.1406 61.0816Z" fill="#FFFBFC"/>
</g>
<g style="mix-blend-mode:lighten">
<path d="M31.9848 56.4C32.4487 56.313 32.8908 56.6174 32.9778 57.0812C33.0648 57.545 32.7603 57.987 32.2964 58.074C31.8325 58.161 31.3904 57.8566 31.3034 57.3928C31.2164 56.929 31.5209 56.4869 31.9848 56.4Z" fill="#FFFBFC"/>
</g>
<g style="mix-blend-mode:lighten">
<path d="M29.009 53.9869C29.4512 53.9036 29.8789 54.1971 29.9622 54.6392C30.0456 55.0812 29.752 55.5088 29.3099 55.5921C28.8677 55.6755 28.44 55.382 28.3567 54.9399C28.2733 54.4978 28.5669 54.0703 29.009 53.9869Z" fill="#FFFBFC"/>
</g>
<g style="mix-blend-mode:lighten">
<path d="M29.6291 50.9685C30.0024 50.8997 30.3648 51.1461 30.4336 51.5193C30.5025 51.8925 30.2561 52.2548 29.8828 52.3237C29.5095 52.3925 29.147 52.1461 29.0782 51.7729C29.0093 51.3997 29.2558 51.0374 29.6291 50.9685Z" fill="#FFFBFC"/>
</g>
<g style="mix-blend-mode:lighten">
<path d="M25.8635 48.8272C26.052 48.7909 26.2368 48.9178 26.2694 49.1062C26.3057 49.2946 26.1788 49.4794 25.9903 49.512C25.8019 49.5482 25.6171 49.4214 25.5844 49.233C25.5482 49.0446 25.675 48.8598 25.8635 48.8272Z" fill="#FFFBFC"/>
</g>
<g style="mix-blend-mode:lighten">
<path d="M33.7458 16.1725C33.9633 16.4407 33.9198 16.832 33.6516 17.0494C33.3834 17.2668 32.992 17.2233 32.7745 16.9552C32.5571 16.6871 32.6006 16.2957 32.8687 16.0783C33.1369 15.8609 33.5284 15.9044 33.7458 16.1725Z" fill="#FFFBFC"/>
</g>
<g style="mix-blend-mode:lighten">
<path d="M41.502 22.0784C41.7593 22.4009 41.7085 22.8683 41.3896 23.1256C41.0671 23.3829 40.5995 23.3321 40.3422 23.0133C40.0849 22.6908 40.1356 22.2233 40.4546 21.9661C40.7771 21.7088 41.2446 21.7595 41.502 22.0784Z" fill="#FFFBFC"/>
</g>
<path d="M40.7157 16.8934C40.857 17.071 40.8316 17.3283 40.654 17.4732C40.4765 17.6145 40.2191 17.5891 40.0742 17.4116C39.9328 17.234 39.9582 16.9768 40.1358 16.8318C40.3134 16.6905 40.5707 16.7159 40.7157 16.8934Z" fill="#FFFBFC"/>
<path d="M47.3589 14.6215C47.5003 14.7954 47.4713 15.049 47.2973 15.1904C47.1233 15.3317 46.8696 15.3027 46.7283 15.1288C46.5869 14.9548 46.6159 14.7012 46.7899 14.5599C46.9639 14.4186 47.2176 14.4476 47.3589 14.6215Z" fill="#FFFBFC"/>
<mask id="path-124-outside-1_46_2943" maskUnits="userSpaceOnUse" x="31" y="31" width="24" height="27" fill="black">
<rect fill="white" x="31" y="31" width="24" height="27"/>
<path d="M39.1794 47.7734L45.8585 34.4508H49.6684L39.9533 52H36.4887L34.2861 34.4508H38.2031L39.1794 47.7734Z"/>
</mask>
<path d="M39.1794 47.7734L45.8585 34.4508H49.6684L39.9533 52H36.4887L34.2861 34.4508H38.2031L39.1794 47.7734Z" fill="white"/>
<path d="M39.1794 47.7734L36.5614 47.9653L37.2575 57.464L41.526 48.9499L39.1794 47.7734ZM45.8585 34.4508V31.8259H44.2382L43.512 33.2744L45.8585 34.4508ZM49.6684 34.4508L51.965 35.7222L54.1219 31.8259H49.6684V34.4508ZM39.9533 52V54.625H41.5005L42.2498 53.2714L39.9533 52ZM36.4887 52L33.8841 52.3269L34.1726 54.625H36.4887V52ZM34.2861 34.4508V31.8259H31.3111L31.6816 34.7777L34.2861 34.4508ZM38.2031 34.4508L40.8211 34.259L40.6428 31.8259H38.2031V34.4508ZM41.526 48.9499L48.2051 35.6273L43.512 33.2744L36.8328 46.597L41.526 48.9499ZM45.8585 37.0758H49.6684V31.8259H45.8585V37.0758ZM47.3719 33.1795L37.6567 50.7286L42.2498 53.2714L51.965 35.7222L47.3719 33.1795ZM39.9533 49.375H36.4887V54.625H39.9533V49.375ZM39.0932 51.6731L36.8906 34.1239L31.6816 34.7777L33.8841 52.3269L39.0932 51.6731ZM34.2861 37.0758H38.2031V31.8259H34.2861V37.0758ZM35.5851 34.6427L36.5614 47.9653L41.7973 47.5816L40.8211 34.259L35.5851 34.6427Z" fill="#3D3ECF" mask="url(#path-124-outside-1_46_2943)"/>
<defs>
<filter id="filter0_f_46_2943" x="2.0315" y="11.8944" width="76.0685" height="68.9305" filterUnits="userSpaceOnUse" color-interpolation-filters="sRGB">
<feFlood flood-opacity="0" result="BackgroundImageFix"/>
<feBlend mode="normal" in="SourceGraphic" in2="BackgroundImageFix" result="shape"/>
<feGaussianBlur stdDeviation="5.08697" result="effect1_foregroundBlur_46_2943"/>
</filter>
<filter id="filter1_d_46_2943" x="-4.65734" y="-2.40936" width="89.5211" height="89.521" filterUnits="userSpaceOnUse" color-interpolation-filters="sRGB">
<feFlood flood-opacity="0" result="BackgroundImageFix"/>
<feColorMatrix in="SourceAlpha" type="matrix" values="0 0 0 0 0 0 0 0 0 0 0 0 0 0 0 0 0 0 127 0" result="hardAlpha"/>
<feOffset/>
<feGaussianBlur stdDeviation="9.17224"/>
<feComposite in2="hardAlpha" operator="out"/>
<feColorMatrix type="matrix" values="0 0 0 0 0.227451 0 0 0 0 0.511765 0 0 0 0 0.909804 0 0 0 0.6 0"/>
<feBlend mode="normal" in2="BackgroundImageFix" result="effect1_dropShadow_46_2943"/>
<feBlend mode="normal" in="SourceGraphic" in2="effect1_dropShadow_46_2943" result="shape"/>
</filter>
<clipPath id="paint2_diamond_46_2943_clip_path"><path d="M32.3787 50.0604L29.5998 40.6262L20.851 38.2594C20.851 38.2594 21.0562 51.434 27.7477 59.1534L32.3787 50.0604Z"/></clipPath><clipPath id="paint3_diamond_46_2943_clip_path"><path d="M29.5998 40.6278C29.5998 40.6278 34.5055 34.1099 40.3049 32.1023V20.7617C40.3049 20.7617 25.6541 30.5068 20.851 38.2594L29.5998 40.6262V40.6278Z"/></clipPath><clipPath id="paint6_diamond_46_2943_clip_path"><path d="M51.0083 40.6278C51.0083 40.6278 46.1026 34.1099 40.3032 32.1023V20.7617C40.3032 20.7617 54.9526 30.5053 59.7572 38.2594L51.0083 40.6262V40.6278Z"/></clipPath><clipPath id="paint7_diamond_46_2943_clip_path"><path d="M40.3036 32.1022V54.6159L32.3789 50.0618L29.6 40.6277C29.6 40.6277 32.8936 34.1777 40.3051 32.1022H40.3036Z"/></clipPath><clipPath id="paint8_diamond_46_2943_clip_path"><path d="M40.3033 32.1022V54.6159L48.2279 50.0618L51.0069 40.6277C51.0069 40.6277 47.7132 34.1777 40.3018 32.1022H40.3033Z"/></clipPath><filter id="filter2_f_46_2943" x="45.7757" y="50.5227" width="14.0152" height="14.0152" filterUnits="userSpaceOnUse" color-interpolation-filters="sRGB">
<feFlood flood-opacity="0" result="BackgroundImageFix"/>
<feBlend mode="normal" in="SourceGraphic" in2="BackgroundImageFix" result="shape"/>
<feGaussianBlur stdDeviation="2.01789" result="effect1_foregroundBlur_46_2943"/>
</filter>
<filter id="filter3_f_46_2943" x="15.1336" y="30.4469" width="15.0214" height="15.0215" filterUnits="userSpaceOnUse" color-interpolation-filters="sRGB">
<feFlood flood-opacity="0" result="BackgroundImageFix"/>
<feBlend mode="normal" in="SourceGraphic" in2="BackgroundImageFix" result="shape"/>
<feGaussianBlur stdDeviation="2.01789" result="effect1_foregroundBlur_46_2943"/>
</filter>
<filter id="filter4_f_46_2943" x="46.5305" y="25.4657" width="12.5159" height="12.5158" filterUnits="userSpaceOnUse" color-interpolation-filters="sRGB">
<feFlood flood-opacity="0" result="BackgroundImageFix"/>
<feBlend mode="normal" in="SourceGraphic" in2="BackgroundImageFix" result="shape"/>
<feGaussianBlur stdDeviation="2.01789" result="effect1_foregroundBlur_46_2943"/>
</filter>
<filter id="filter5_f_46_2943" x="22.9048" y="29.5688" width="32.3276" height="32.8373" filterUnits="userSpaceOnUse" color-interpolation-filters="sRGB">
<feFlood flood-opacity="0" result="BackgroundImageFix"/>
<feBlend mode="normal" in="SourceGraphic" in2="BackgroundImageFix" result="shape"/>
<feGaussianBlur stdDeviation="2.43431" result="effect1_foregroundBlur_46_2943"/>
</filter>
<filter id="filter6_f_46_2943" x="26.4323" y="31.8422" width="5.54965" height="5.55538" filterUnits="userSpaceOnUse" color-interpolation-filters="sRGB">
<feFlood flood-opacity="0" result="BackgroundImageFix"/>
<feBlend mode="normal" in="SourceGraphic" in2="BackgroundImageFix" result="shape"/>
<feGaussianBlur stdDeviation="1.10067" result="effect1_foregroundBlur_46_2943"/>
</filter>
<filter id="filter7_f_46_2943" x="51.8735" y="46.2673" width="5.37619" height="5.38107" filterUnits="userSpaceOnUse" color-interpolation-filters="sRGB">
<feFlood flood-opacity="0" result="BackgroundImageFix"/>
<feBlend mode="normal" in="SourceGraphic" in2="BackgroundImageFix" result="shape"/>
<feGaussianBlur stdDeviation="1.10067" result="effect1_foregroundBlur_46_2943"/>
</filter>
<filter id="filter8_f_46_2943" x="27.2347" y="50.1311" width="5.5245" height="5.53006" filterUnits="userSpaceOnUse" color-interpolation-filters="sRGB">
<feFlood flood-opacity="0" result="BackgroundImageFix"/>
<feBlend mode="normal" in="SourceGraphic" in2="BackgroundImageFix" result="shape"/>
<feGaussianBlur stdDeviation="1.10067" result="effect1_foregroundBlur_46_2943"/>
</filter>
<filter id="filter9_f_46_2943" x="9.97568" y="12.0246" width="50.0672" height="51.2165" filterUnits="userSpaceOnUse" color-interpolation-filters="sRGB">
<feFlood flood-opacity="0" result="BackgroundImageFix"/>
<feBlend mode="normal" in="SourceGraphic" in2="BackgroundImageFix" result="shape"/>
<feGaussianBlur stdDeviation="0.599382" result="effect1_foregroundBlur_46_2943"/>
</filter>
<linearGradient id="paint0_linear_46_2943" x1="10.9053" y1="39.5584" x2="69.5044" y2="50.7261" gradientUnits="userSpaceOnUse">
<stop stop-color="#B9BDF9"/>
<stop offset="1" stop-color="#5246FF"/>
</linearGradient>
<radialGradient id="paint1_radial_46_2943" cx="0" cy="0" r="1" gradientUnits="userSpaceOnUse" gradientTransform="translate(33.3582 50.6339) rotate(63.435) scale(15.5262 12.9913)">
<stop stop-color="#23DBFD"/>
<stop offset="0.414319" stop-color="#4300BD"/>
<stop offset="0.852751" stop-color="#230063"/>
</radialGradient>
<linearGradient id="paint2_diamond_46_2943" x1="0" y1="0" x2="500" y2="500" gradientUnits="userSpaceOnUse">
<stop stop-color="#B0F3FF"/>
<stop offset="0.0001" stop-color="#23DBFD"/>
<stop offset="0.447917" stop-color="#4200B8"/>
<stop offset="1" stop-color="#230063"/>
</linearGradient>
<linearGradient id="paint3_diamond_46_2943" x1="0" y1="0" x2="500" y2="500" gradientUnits="userSpaceOnUse">
<stop stop-color="#23DBFD"/>
<stop offset="0.473958" stop-color="#3658D6"/>
<stop offset="1" stop-color="#3E22C7"/>
</linearGradient>
<radialGradient id="paint4_radial_46_2943" cx="0" cy="0" r="1" gradientUnits="userSpaceOnUse" gradientTransform="translate(52.8303 59.2379) rotate(-157.257) scale(16.2035 27.2276)">
<stop stop-color="#B0F3FF"/>
<stop offset="0.0001" stop-color="#23DBFD"/>
<stop offset="0.356211" stop-color="#3D27DD"/>
<stop offset="0.763504" stop-color="#3D009C"/>
</radialGradient>
<radialGradient id="paint5_radial_46_2943" cx="0" cy="0" r="1" gradientUnits="userSpaceOnUse" gradientTransform="translate(52.3775 58.1813) rotate(-70.7873) scale(21.1001 37.5861)">
<stop stop-color="#B0F3FF"/>
<stop offset="0.0001" stop-color="#23DBFD"/>
<stop offset="0.356211" stop-color="#3D27DD"/>
<stop offset="1" stop-color="#3D009C"/>
</radialGradient>
<linearGradient id="paint6_diamond_46_2943" x1="0" y1="0" x2="500" y2="500" gradientUnits="userSpaceOnUse">
<stop stop-color="#B0F3FF"/>
<stop offset="0.0001" stop-color="#23DBFD"/>
<stop offset="0.447917" stop-color="#3D27DD"/>
<stop offset="1" stop-color="#3D009C"/>
</linearGradient>
<linearGradient id="paint7_diamond_46_2943" x1="0" y1="0" x2="500" y2="500" gradientUnits="userSpaceOnUse">
<stop stop-color="#6BF0FF"/>
<stop offset="0.14983" stop-color="#2D99F6"/>
<stop offset="0.666667" stop-color="#3C2EE0"/>
<stop offset="1" stop-color="#4200B6"/>
</linearGradient>
<linearGradient id="paint8_diamond_46_2943" x1="0" y1="0" x2="500" y2="500" gradientUnits="userSpaceOnUse">
<stop stop-color="#22E7FE"/>
<stop offset="0.182292" stop-color="#2D99F6"/>
<stop offset="1" stop-color="#3B36E3"/>
</linearGradient>
<linearGradient id="paint9_linear_46_2943" x1="37.4338" y1="32.0675" x2="44.3774" y2="50.0301" gradientUnits="userSpaceOnUse">
<stop stop-color="white" stop-opacity="0.4"/>
<stop offset="1" stop-color="white" stop-opacity="0"/>
</linearGradient>
<linearGradient id="paint10_linear_46_2943" x1="29.1317" y1="40.6714" x2="37.1319" y2="63.6907" gradientUnits="userSpaceOnUse">
<stop stop-color="white" stop-opacity="0.77"/>
<stop offset="0.642325" stop-color="white" stop-opacity="0"/>
</linearGradient>
<linearGradient id="paint11_linear_46_2943" x1="40.3018" y1="20.2183" x2="20.8297" y2="38.2564" gradientUnits="userSpaceOnUse">
<stop stop-color="#DADADA"/>
<stop offset="1" stop-color="white" stop-opacity="0"/>
</linearGradient>
<linearGradient id="paint12_linear_46_2943" x1="40.3018" y1="20.2183" x2="20.8297" y2="38.2564" gradientUnits="userSpaceOnUse">
<stop stop-color="#DADADA"/>
<stop offset="1" stop-color="white" stop-opacity="0"/>
</linearGradient>
<radialGradient id="paint13_radial_46_2943" cx="0" cy="0" r="1" gradientUnits="userSpaceOnUse" gradientTransform="translate(46.5818 61.8024) rotate(90) scale(2.6476 6.27861)">
<stop stop-color="white"/>
<stop offset="1" stop-color="white" stop-opacity="0"/>
</radialGradient>
<radialGradient id="paint14_radial_46_2943" cx="0" cy="0" r="1" gradientUnits="userSpaceOnUse" gradientTransform="translate(45.6558 36.3362) rotate(90) scale(4.2915 5.35255)">
<stop stop-color="white"/>
<stop offset="1" stop-color="white" stop-opacity="0"/>
</radialGradient>
<radialGradient id="paint15_radial_46_2943" cx="0" cy="0" r="1" gradientUnits="userSpaceOnUse" gradientTransform="translate(25.2254 39.326) rotate(90.5567) scale(1.87384 6.29721)">
<stop stop-color="white"/>
<stop offset="1" stop-color="white" stop-opacity="0"/>
</radialGradient>
</defs>
</svg>
