<svg width="220" height="232" viewBox="0 0 220 232" fill="none" xmlns="http://www.w3.org/2000/svg">
<path d="M67.4193 0H110V232H76.8817L25.8013 177.343C9.22228 159.603 0 136.228 0 111.947V63.9184L67.4193 0Z" fill="#454845"/>
<path d="M152.581 0H110V232H143.118L194.199 177.343C210.778 159.603 220 136.228 220 111.947V63.9184L152.581 0Z" fill="#555855"/>
<mask id="mask0_41_2146" style="mask-type:alpha" maskUnits="userSpaceOnUse" x="39" y="8" width="142" height="216">
<path d="M39 93.326L49.65 116L39 138.674C66.9629 162.357 82.6386 181.897 110 224C137.361 181.897 153.037 162.357 181 138.674L170.35 116L181 93.326C153.037 69.6426 137.361 50.1028 110 8C82.6386 50.1028 66.9629 69.6426 39 93.326Z" fill="#FF0000"/>
</mask>
<g mask="url(#mask0_41_2146)">
<path d="M226 117C226 101.767 223 86.6825 217.17 72.6087C211.34 58.535 202.796 45.7472 192.024 34.9756C181.253 24.204 168.465 15.6595 154.391 9.82997C140.318 4.00043 125.233 0.999999 110 1L110 117H226Z" fill="#84FFBD"/>
<path d="M226 117C226 88.0706 215.19 60.1853 195.692 38.8146C176.193 17.4439 149.412 4.13027 120.604 1.4857L110 117H226Z" fill="#B5FFD6"/>
<path d="M226 117C226 92.9664 218.535 69.5261 204.637 49.9187L110 117H226Z" fill="#7BFFBB"/>
<path d="M226 117C226 107.012 224.71 97.065 222.162 87.407L110 117H226Z" fill="#31A56E"/>
<path d="M226 117.036C226 132.269 223 147.353 217.17 161.427C211.34 175.501 202.796 188.289 192.024 199.06C181.253 209.832 168.465 218.376 154.391 224.206C140.318 230.035 125.233 233.036 110 233.036L110 117.036H226Z" fill="#21A860"/>
<path d="M226 117.036C226 132.269 223 147.353 217.17 161.427C211.34 175.501 202.796 188.289 192.024 199.06L110 117.036H226Z" fill="#3CB57B"/>
<path d="M226 117C226 125.344 225.1 133.663 223.315 141.814L110 117H226Z" fill="#31A56E"/>
<path d="M-6 117C-6 101.767 -2.99957 86.6825 2.82997 72.6087C8.65952 58.535 17.204 45.7472 27.9756 34.9756C38.7472 24.204 51.535 15.6595 65.6087 9.82997C79.6825 4.00043 94.7667 0.999999 110 1L110 117H-6Z" fill="#6BCE9A"/>
<path d="M-6 117C-6 94.8661 0.332489 73.1942 12.25 54.5426L110 117H-6Z" fill="#1E8C52"/>
<path d="M-6 117.036C-6 132.269 -2.99957 147.353 2.82997 161.427C8.65952 175.501 17.204 188.289 27.9756 199.06C38.7472 209.832 51.535 218.376 65.6087 224.206C79.6825 230.035 94.7667 233.036 110 233.036L110 117.036H-6Z" fill="#1B844D"/>
<path d="M-1.27026 121.771C-1.27026 146.112 6.38672 169.837 20.6165 189.585C34.8463 209.333 54.9278 224.105 78.0177 231.809L114.73 121.771H-1.27026Z" fill="#1E7645"/>
<path d="M-6 117.036C-6 132.269 -2.99957 147.353 2.82997 161.427C8.65952 175.501 17.204 188.289 27.9756 199.06L110 117.036H-6Z" fill="#1E814A"/>
<path d="M-6 117C-6 127.355 -4.61346 137.664 -1.87735 147.651L110 117H-6Z" fill="#1E8C52"/>
</g>
<path d="M64 97.7727L72.2564 115.5L64 133.227C83.0459 149.295 91.3638 158.435 110 187C128.636 158.435 136.954 149.295 156 133.227L147.744 115.5L156 97.7727C136.954 81.7047 128.636 72.5647 110 44C91.3638 72.5647 83.0459 81.7047 64 97.7727Z" fill="#10673C"/>
<path opacity="0.4" d="M110 44C91.3638 72.5647 83.0459 81.7047 64 97.7727L72.2564 115.5L64 133.227C83.0459 149.295 91.3638 158.435 110 187V44Z" fill="#0D522E"/>
</svg>
