<svg width="216" height="250" viewBox="0 0 216 250" fill="none" xmlns="http://www.w3.org/2000/svg">
<path d="M108 250L209.846 70.0889C227.583 38.7579 204.861 0 168.757 0H108V250Z" fill="#555754"/>
<path d="M108 0H47.2433C11.1392 0 -11.5827 38.7579 6.15356 70.0889L108 250V0Z" fill="#484D50"/>
<mask id="mask0_41_2162" style="mask-type:alpha" maskUnits="userSpaceOnUse" x="45" y="35" width="126" height="146">
<path d="M48.5896 75.9319L108 181L167.41 75.9319C177.757 57.6346 164.502 35 143.441 35H72.5586C51.4979 35 38.2434 57.6346 48.5896 75.9319Z" fill="#FF0000"/>
</mask>
<g mask="url(#mask0_41_2162)">
<path d="M108 -24C88.0975 -24 68.5749 -18.5508 51.5495 -8.24344C34.524 2.06394 20.6456 16.8361 11.4194 34.4708L108 85V-24Z" fill="#8C6F47"/>
<path d="M108 195C93.0054 195 78.1721 191.906 64.4277 185.912C50.6833 179.918 38.3234 171.153 28.121 160.164C17.9186 149.176 10.0931 136.2 5.13394 122.05C0.174779 107.899 -1.8114 92.8771 -0.700384 77.9237L108 86V195Z" fill="#543908"/>
<path d="M-0.854685 80.3735C0.1153 61.6075 5.92027 43.4109 15.9968 27.5499L108 86L-0.854685 80.3735Z" fill="#68450D"/>
<path d="M108 -24C127.902 -24 147.425 -18.5508 164.451 -8.24344C181.476 2.06394 195.354 16.8361 204.581 34.4708L108 85V-24Z" fill="#CBB691"/>
<path d="M108 195C122.995 195 137.828 191.906 151.572 185.912C165.317 179.918 177.677 171.153 187.879 160.164C198.081 149.176 205.907 136.2 210.866 122.05C215.825 107.899 217.811 92.8771 216.7 77.9237L108 86V195Z" fill="#A5855D"/>
<path d="M216.855 80.3735C215.885 61.6075 210.08 43.4109 200.003 27.5499L108 86L216.855 80.3735Z" fill="#B59670"/>
</g>
<mask id="mask1_41_2162" style="mask-type:alpha" maskUnits="userSpaceOnUse" x="73" y="56" width="68" height="79">
<path d="M75 81L108.051 135L139.099 81C144.527 71.0994 137.694 56 126.645 56H89.4579C78.4089 56 69.5721 71.0994 75 81Z" fill="#0000FF"/>
</mask>
<g mask="url(#mask1_41_2162)">
<path d="M108 -31C134.639 -31 160.356 -21.2444 180.293 -3.57609L108 78V-31Z" fill="#996D19"/>
<path d="M108 187C130.744 187 152.918 179.886 171.416 166.653C189.914 153.421 203.81 134.734 211.157 113.209L108 78V187Z" fill="#785100"/>
<path d="M211.162 113.195C218.298 92.2783 218.907 69.6864 212.908 48.4154C206.91 27.1444 194.587 8.1994 177.574 -5.90729L108 78L211.162 113.195Z" fill="#895B00"/>
<path d="M108 -31C81.5208 -31 55.947 -21.3611 36.0551 -3.88363L108 78V-31Z" fill="#6B4908"/>
<path d="M108 187C85.2562 187 63.0821 179.886 44.5838 166.653C26.0856 153.421 12.1898 134.734 4.84318 113.209L108 78V187Z" fill="#4A3802"/>
<path d="M4.83844 113.195C-2.29763 92.2783 -2.90681 69.6864 3.0917 48.4154C9.09021 27.1444 21.413 8.1994 38.4258 -5.90729L108 78L4.83844 113.195Z" fill="#553D08"/>
</g>
</svg>
