<svg width="242" height="247" viewBox="0 0 242 247" fill="none" xmlns="http://www.w3.org/2000/svg">
<path d="M69 247H121V0L44.6877 37.7628C31.6125 44.233 22.1894 56.2984 19.0796 70.5516L4.18378 138.824C1.53221 150.977 4.40405 163.681 12.0255 173.511L69 247Z" fill="#484D50"/>
<path d="M173 247H121V0L197.312 37.7628C210.387 44.233 219.811 56.2984 222.92 70.5516L237.816 138.824C240.468 150.977 237.596 163.681 229.974 173.511L173 247Z" fill="#555754"/>
<mask id="mask0_41_2161" style="mask-type:alpha" maskUnits="userSpaceOnUse" x="51" y="52" width="141" height="146">
<path d="M90.1963 198L56.0803 154.287C51.6833 148.653 50.0258 141.353 51.559 134.373L60.9397 91.6629C62.5067 84.5282 67.2378 78.4955 73.7934 75.273L121.138 52L168.484 75.273C175.039 78.4955 179.77 84.5282 181.337 91.6629L190.718 134.373C192.251 141.353 190.594 148.653 186.197 154.287L152.081 198H90.1963Z" fill="#FF0000"/>
</mask>
<g mask="url(#mask0_41_2161)">
<path d="M207 133C207 121.706 204.776 110.523 200.454 100.089C196.132 89.6552 189.797 80.1747 181.811 72.1888C173.825 64.203 164.345 57.8683 153.911 53.5464C143.477 49.2245 132.294 47 121 47V133H207Z" fill="#EFCDF5"/>
<path d="M207 133C207 144.294 204.776 155.477 200.454 165.911C196.132 176.345 189.797 185.825 181.811 193.811C173.825 201.797 164.345 208.132 153.911 212.454C143.477 216.776 132.294 219 121 219V133H207Z" fill="#C487F5"/>
<path d="M35 133C35 144.294 37.2245 155.477 41.5464 165.911C45.8683 176.345 52.203 185.825 60.1888 193.811C68.1747 201.797 77.6552 208.132 88.0892 212.454C98.5232 216.776 109.706 219 121 219V133H35Z" fill="#D681E7"/>
<path d="M207 133C207 121.461 204.678 110.04 200.172 99.417C195.666 88.7942 189.068 79.1867 180.772 71.1668L121 133H207Z" fill="#C487F5"/>
<path d="M207 133C207 149.269 202.385 165.204 193.692 178.955C184.999 192.706 172.583 203.709 157.887 210.687L121 133H207Z" fill="#A670EF"/>
<path d="M35 133C35 149.269 39.6145 165.204 48.3078 178.955C57.0011 192.706 69.4166 203.709 84.1128 210.687L121 133H35Z" fill="#BE6DD4"/>
<path d="M35 133C35 121.706 37.2245 110.523 41.5464 100.089C45.8683 89.6552 52.203 80.1747 60.1888 72.1888C68.1747 64.203 77.6552 57.8683 88.0892 53.5464C98.5232 49.2245 109.706 47 121 47V133H35Z" fill="#EF96F2"/>
<path d="M35 133C35 121.461 37.3221 110.04 41.8281 99.417C46.3341 88.7942 52.9318 79.1867 61.2283 71.1668L121 133H35Z" fill="#D681E7"/>
</g>
<mask id="mask1_41_2161" style="mask-type:alpha" maskUnits="userSpaceOnUse" x="83" y="85" width="76" height="80">
<path d="M104.236 165L85.7525 141.048C83.3702 137.961 82.4722 133.96 83.3028 130.136L88.3852 106.733C89.2342 102.824 91.7974 99.5181 95.3491 97.7523L121 85L146.651 97.7523C150.203 99.5181 152.766 102.824 153.615 106.733L158.697 130.136C159.528 133.96 158.63 137.961 156.248 141.048L137.764 165H104.236Z" fill="#FF0000"/>
</mask>
<g mask="url(#mask1_41_2161)">
<path d="M166 128C166 133.909 164.836 139.761 162.575 145.221C160.313 150.68 156.998 155.641 152.82 159.82C148.641 163.998 143.68 167.313 138.221 169.575C132.761 171.836 126.909 173 121 173L121 128H166Z" fill="#8B6BBB"/>
<path d="M76 128C76 133.909 77.164 139.761 79.4254 145.221C81.6869 150.68 85.0016 155.641 89.1802 159.82C93.3588 163.998 98.3196 167.313 103.779 169.575C109.239 171.836 115.091 173 121 173L121 128H76Z" fill="#8164AC"/>
<path d="M166 128C166 122.091 164.836 116.239 162.575 110.779C160.313 105.32 156.998 100.359 152.82 96.1802C148.641 92.0016 143.68 88.6869 138.221 86.4254C132.761 84.164 126.909 83 121 83L121 128H166Z" fill="#8C6BBD"/>
<path d="M76 128C76 122.091 77.164 116.239 79.4254 110.779C81.6869 105.32 85.0016 100.359 89.1802 96.1802C93.3588 92.0016 98.3196 88.6869 103.779 86.4254C109.239 84.164 115.091 83 121 83L121 128H76Z" fill="#8465AD"/>
<path d="M166 128C166 136.308 163.7 144.454 159.355 151.536C155.009 158.617 148.788 164.357 141.381 168.12L121 128H166Z" fill="#8163AD"/>
<path d="M76 128C76 136.308 78.3001 144.454 82.6454 151.536C86.9907 158.617 93.2115 164.357 100.619 168.12L121 128H76Z" fill="#73599C"/>
<path d="M166 128C166 121.298 164.503 114.681 161.619 108.632C158.734 102.583 154.535 97.2544 149.328 93.0356L121 128H166Z" fill="#8466B0"/>
<path d="M76 128C76 121.298 77.4968 114.681 80.3812 108.632C83.2656 102.583 87.4646 97.2544 92.6717 93.0356L121 128H76Z" fill="#785C9F"/>
</g>
</svg>
