<svg width="234" height="247" viewBox="0 0 234 247" fill="none" xmlns="http://www.w3.org/2000/svg">
<path d="M117 0H62.2033C49.7367 0 38.7716 8.24135 35.3059 20.216L18.956 76.7076L1.53582 130.927C-2.64138 143.928 1.89249 158.147 12.8246 166.331L56.2375 198.831L116.56 247L117 246.649V0Z" fill="#484D50"/>
<path d="M116.995 0H171.81C184.277 0 195.243 8.24317 198.707 20.2196L215.047 76.7076L232.46 130.935C236.634 143.932 232.103 158.146 221.177 166.33L177.786 198.831L117.497 247L116.995 246.599V0Z" fill="#555654"/>
<mask id="mask0_41_2156" style="mask-type:alpha" maskUnits="userSpaceOnUse" x="45" y="43" width="144" height="152">
<path d="M117 195L154.082 165.358L181.736 144.633C187.879 140.03 190.426 132.037 188.08 124.728L177 90.2047L167.111 56.0007C164.885 48.3004 157.835 43 149.819 43H117H84.1806C76.1649 43 69.115 48.3004 66.8888 56.0007L57 90.2047L45.9197 124.728C43.5739 132.037 46.1213 140.03 52.2639 144.633L79.918 165.358L117 195Z" fill="#D9D9D9"/>
</mask>
<g mask="url(#mask0_41_2156)">
<path d="M19 117C19 130.637 21.8462 144.124 27.3567 156.599C32.8671 169.073 40.9204 180.26 51.0014 189.444L117 117L19 117Z" fill="#CE7E18"/>
<path d="M22.064 92.6861C26.1667 76.667 34.2561 61.9464 45.5792 49.8951C56.9022 37.8438 71.0906 28.8537 86.8233 23.7618L117 117L22.064 92.6861Z" fill="#DE9621"/>
<path d="M19 117C19 121.051 19.2512 125.098 19.7521 129.118L117 117L19 117Z" fill="#D6881E"/>
<path d="M117 215C98.2883 215 79.9678 209.643 64.2037 199.562C48.4396 189.482 35.891 175.099 28.041 158.113L117 117V215Z" fill="#D6881E"/>
<path d="M117 19C101.976 19 87.1526 22.4544 73.6762 29.0963L117 117V19Z" fill="#D08A21"/>
<path d="M19 117C19 102.875 22.0532 88.9177 27.9505 76.0831C33.8479 63.2485 42.4499 51.8404 53.1672 42.6402L117 117L19 117Z" fill="#DE8E21"/>
<path d="M215 117C215 130.637 212.154 144.124 206.643 156.599C201.133 169.073 193.08 180.26 182.999 189.444L117 117L215 117Z" fill="#ECCF57"/>
<path d="M211.936 92.6861C207.833 76.667 199.744 61.9464 188.421 49.8951C177.098 37.8438 162.909 28.8537 147.177 23.7618L117 117L211.936 92.6861Z" fill="#F9F5E1"/>
<path d="M215 117C215 121.051 214.749 125.098 214.248 129.118L117 117L215 117Z" fill="#F4E579"/>
<path d="M117 215C135.712 215 154.032 209.643 169.796 199.562C185.56 189.482 198.109 175.099 205.959 158.113L117 117V215Z" fill="#EFD35D"/>
<path d="M117 19C132.024 19 146.847 22.4544 160.324 29.0963L117 117V19Z" fill="#EFEBBD"/>
<path d="M215 117C215 102.875 211.947 88.9177 206.049 76.0831C200.152 63.2485 191.55 51.8404 180.833 42.6402L117 117L215 117Z" fill="#F7EBB2"/>
</g>
<mask id="mask1_41_2156" style="mask-type:alpha" maskUnits="userSpaceOnUse" x="73" y="74" width="88" height="93">
<path d="M117 167L139.249 148.864L155.313 136.587C159.327 133.52 160.99 128.268 159.474 123.45L153 102.882L147.286 82.7268C145.822 77.5635 141.108 74 135.741 74H117H98.2592C92.8924 74 88.1782 77.5635 86.7143 82.7268L81 102.882L74.5265 123.45C73.01 128.268 74.6731 133.52 78.6865 136.587L94.7508 148.864L117 167Z" fill="black"/>
</mask>
<g mask="url(#mask1_41_2156)">
<path d="M117 215C129.87 215 142.613 212.465 154.503 207.54C166.393 202.615 177.196 195.397 186.296 186.296C195.397 177.196 202.615 166.393 207.54 154.503C212.465 142.613 215 129.87 215 117L117 117V215Z" fill="#C07E1B"/>
<path d="M215 117C215 91.0088 204.675 66.0821 186.296 47.7035C167.918 29.325 142.991 19 117 19V117L215 117Z" fill="#D09231"/>
<path d="M117 19C104.13 19 91.3869 21.5348 79.497 26.4598C67.6071 31.3848 56.8037 38.6034 47.7035 47.7035C38.6034 56.8037 31.3848 67.6071 26.4598 79.497C21.5348 91.3869 19 104.13 19 117L117 117V19Z" fill="#A56910"/>
<path d="M117 215C104.13 215 91.3869 212.465 79.497 207.54C67.6071 202.615 56.8037 195.397 47.7035 186.296C38.6034 177.196 31.3848 166.393 26.4598 154.503C21.5348 142.613 19 129.87 19 117L117 117V215Z" fill="#9C6210"/>
</g>
</svg>
