<svg width="212" height="212" viewBox="0 0 212 212" fill="none" xmlns="http://www.w3.org/2000/svg">
<path d="M106 212C134.113 212 161.074 200.832 180.953 180.953C200.832 161.074 212 134.113 212 106C212 77.8871 200.832 50.9256 180.953 31.0467C161.074 11.1678 134.113 5.47379e-06 106 0L106 106L106 212Z" fill="#565754"/>
<path d="M106 212C77.887 212 50.9255 200.832 31.0467 180.953C11.1678 161.074 -7.8205e-07 134.113 0 106C7.8205e-07 77.887 11.1678 50.9255 31.0467 31.0467C50.9255 11.1678 77.8871 -3.35244e-07 106 0V106L106 212Z" fill="#484D51"/>
<rect x="32.9944" y="32.4658" width="5" height="4.99616" transform="rotate(-46.3048 32.9944 32.4658)" fill="white"/>
<rect x="45.9321" y="44.8274" width="5" height="44.1061" transform="rotate(-46.3048 45.9321 44.8274)" fill="white"/>
<rect width="5" height="43.7825" transform="matrix(-0.70092 -0.71324 -0.71324 0.70092 165.732 44.7529)" fill="white"/>
<rect width="5.00313" height="5" transform="matrix(-0.70092 -0.71324 -0.71324 0.70092 178.45 32.251)" fill="white"/>
<rect width="5" height="42.6192" transform="matrix(-0.70092 -0.71324 -0.71324 0.70092 80.1328 140.566)" fill="white"/>
<rect x="36.8196" y="183.131" width="5" height="5.0046" transform="rotate(-134.501 36.8196 183.131)" fill="white"/>
<rect x="131" y="140.615" width="5" height="43.5148" transform="rotate(-46.3048 131 140.615)" fill="white"/>
<rect width="5" height="5.00435" transform="matrix(0.690821 -0.723026 -0.723026 -0.690821 175.232 182.877)" fill="white"/>
<mask id="mask0_41_2165" style="mask-type:alpha" maskUnits="userSpaceOnUse" x="16" y="16" width="180" height="180">
<path d="M102.173 189.086C103.415 191.336 104.687 193.639 106 196C107.314 193.638 108.586 191.333 109.829 189.081C129.878 152.767 142.229 130.395 196 106C142.229 81.6053 129.878 59.2331 109.829 22.9187C108.586 20.6673 107.314 18.3624 106 16C104.686 18.3624 103.414 20.6673 102.171 22.9187C82.1221 59.2331 69.7709 81.6053 16 106C69.7709 130.395 82.1221 152.767 102.171 189.081L102.173 189.086Z" fill="#D9D9D9"/>
</mask>
<g mask="url(#mask0_41_2165)">
<path d="M196 106C196 94.181 193.672 82.4778 189.149 71.5585C184.626 60.6392 177.997 50.7177 169.64 42.3604C161.282 34.0031 151.361 27.3738 140.442 22.8508C129.522 18.3279 117.819 16 106 16L106 106H196Z" fill="#E3796E"/>
<path d="M196 106C196 87.8671 190.523 70.1571 180.286 55.1902C170.049 40.2234 155.53 28.6978 138.63 22.1235L106 106H196Z" fill="#F3C4AE"/>
<path d="M196 106C196 97.7135 194.856 89.4666 192.599 81.4932L106 106H196Z" fill="#E3746A"/>
<path d="M196 106C196 117.819 193.672 129.522 189.149 140.442C184.626 151.361 177.997 161.282 169.64 169.64C161.282 177.997 151.361 184.626 140.442 189.149C129.522 193.672 117.819 196 106 196L106 106H196Z" fill="#BB3E66"/>
<path d="M196 106C196 124.336 190.399 142.235 179.948 157.301C169.496 172.366 154.692 183.88 137.517 190.301L106 106H196Z" fill="#AD3671"/>
<path d="M196 106C196 116.1 194.3 126.129 190.971 135.664L106 106H196Z" fill="#BA416C"/>
<path d="M16 106C16 94.181 18.3279 82.4778 22.8508 71.5585C27.3738 60.6392 34.0031 50.7177 42.3604 42.3604C50.7177 34.0031 60.6392 27.3738 71.5585 22.8508C82.4778 18.3279 94.181 16 106 16L106 106H16Z" fill="#B02639"/>
<path d="M16 106C16 87.8671 21.4773 70.1571 31.7143 55.1902C41.9513 40.2234 56.4705 28.6978 73.3696 22.1235L106 106H16Z" fill="#BF334C"/>
<path d="M16 106C16 97.7135 17.1444 89.4666 19.4008 81.4932L106 106H16Z" fill="#B02639"/>
<path d="M16 106C16 117.819 18.3279 129.522 22.8508 140.442C27.3738 151.361 34.0031 161.282 42.3604 169.64C50.7177 177.997 60.6392 184.626 71.5585 189.149C82.4778 193.672 94.181 196 106 196L106 106H16Z" fill="#9E1F42"/>
<path d="M16 106C16 124.336 21.6006 142.235 32.0523 157.301C42.504 172.366 57.3081 183.88 74.4832 190.301L106 106H16Z" fill="#8B1940"/>
<path d="M16 106C16 116.1 17.7002 126.129 21.0293 135.664L106 106H16Z" fill="#9C1F43"/>
</g>
<mask id="mask1_41_2165" style="mask-type:alpha" maskUnits="userSpaceOnUse" x="52" y="40" width="108" height="132">
<path d="M103.704 166.93C104.449 168.58 105.212 170.269 106 172C106.788 170.268 107.552 168.577 108.298 166.926C120.327 140.296 127.737 123.889 160 106C127.737 88.1105 120.327 71.7043 108.298 45.0737C107.552 43.4227 106.788 41.7324 106 40C105.212 41.7324 104.448 43.4227 103.702 45.0737C91.6733 71.7043 84.2625 88.1105 52 106C84.2625 123.889 91.6733 140.296 103.702 166.926L103.704 166.93Z" fill="#D9D9D9"/>
</mask>
<g mask="url(#mask1_41_2165)">
<path d="M174 106C174 97.0701 172.241 88.2277 168.824 79.9775C165.406 71.7274 160.398 64.2311 154.083 57.9167C147.769 51.6024 140.273 46.5935 132.022 43.1762C123.772 39.7589 114.93 38 106 38V106H174Z" fill="#974A7F"/>
<path d="M174 106C174 92.2996 169.862 78.9187 162.127 67.6104C154.392 56.3021 143.422 47.5939 130.654 42.6267L106 106H174Z" fill="#C26CB0"/>
<path d="M174 106C174 99.7391 173.135 93.5081 171.43 87.4838L106 106H174Z" fill="#9B4B84"/>
<path d="M174 106C174 114.93 172.241 123.772 168.824 132.022C165.406 140.273 160.398 147.769 154.083 154.083C147.769 160.398 140.273 165.406 132.022 168.824C123.772 172.241 114.93 174 106 174V106H174Z" fill="#7B3767"/>
<path d="M174 106C174 119.854 169.768 133.377 161.872 144.76C153.975 156.143 142.789 164.843 129.813 169.694L106 106H174Z" fill="#873E72"/>
<path d="M174 106C174 113.631 172.715 121.208 170.2 128.413L106 106H174Z" fill="#863D72"/>
<path d="M38 106C38 97.0701 39.7589 88.2277 43.1762 79.9775C46.5935 71.7274 51.6024 64.2311 57.9167 57.9167C64.2311 51.6024 71.7274 46.5935 79.9775 43.1762C88.2277 39.7589 97.0701 38 106 38V106H38Z" fill="#723565"/>
<path d="M38 106C38 92.2996 42.1384 78.9187 49.873 67.6104C57.6076 56.3021 68.5777 47.5939 81.3459 42.6267L106 106H38Z" fill="#843B71"/>
<path d="M38 106C38 99.7391 38.8647 93.5081 40.5695 87.4838L106 106H38Z" fill="#723565"/>
<path d="M38 106C38 114.93 39.7589 123.772 43.1762 132.022C46.5935 140.273 51.6024 147.769 57.9167 154.083C64.2311 160.398 71.7274 165.406 79.9775 168.824C88.2277 172.241 97.0701 174 106 174V106H38Z" fill="#5C2B52"/>
<path d="M38 106C38 119.854 42.2316 133.377 50.1284 144.76C58.0253 156.143 69.2106 164.843 82.1873 169.694L106 106H38Z" fill="#6D295D"/>
<path d="M38 106C38 113.631 39.2846 121.208 41.7999 128.413L106 106H38Z" fill="#5C2B52"/>
</g>
</svg>
