<svg width="188" height="250" viewBox="0 0 188 250" fill="none" xmlns="http://www.w3.org/2000/svg">
<path d="M94 0C145.915 0 188 42.0852 188 94V156C188 207.915 145.915 250 94 250V0Z" fill="#555754"/>
<path d="M94 0C42.0852 0 0 42.0852 0 94V156C0 207.915 42.0852 250 94 250V0Z" fill="#484D50"/>
<mask id="mask0_41_2164" style="mask-type:alpha" maskUnits="userSpaceOnUse" x="34" y="44" width="120" height="162">
<rect x="34" y="44" width="120" height="162" rx="60" fill="#5D5D5D"/>
</mask>
<g mask="url(#mask0_41_2164)">
<path d="M94 44C85.7697 44 77.5874 45.2544 69.7351 47.7199L94 125V44Z" fill="#363536"/>
<path d="M94 206C85.7697 206 77.5874 204.746 69.7351 202.28L94 125V206Z" fill="#333233"/>
<path d="M69.7578 47.7128C57.5859 51.5307 46.4877 58.1695 37.3672 67.0886C28.2468 76.0077 21.3618 86.9549 17.2732 99.0386L94 125L69.7578 47.7128Z" fill="#393839"/>
<path d="M69.7578 202.287C57.5859 198.469 46.4877 191.831 37.3672 182.911C28.2468 173.992 21.3618 163.045 17.2732 150.961L94 125L69.7578 202.287Z" fill="#2E2E2E"/>
<path d="M17.2811 99.0153C14.4432 107.394 12.9971 116.181 13 125.027L94 125L17.2811 99.0153Z" fill="#313031"/>
<path d="M17.2811 150.985C14.4432 142.606 12.9971 133.819 13 124.973L94 125L17.2811 150.985Z" fill="#313031"/>
<path d="M94 44C102.23 44 110.413 45.2544 118.265 47.7199L94 125V44Z" fill="#5D5B5D"/>
<path d="M94 206C102.23 206 110.413 204.746 118.265 202.28L94 125V206Z" fill="#424342"/>
<path d="M118.242 47.7128C130.414 51.5307 141.512 58.1695 150.633 67.0886C159.753 76.0077 166.638 86.9549 170.727 99.0386L94 125L118.242 47.7128Z" fill="#4F4F4F"/>
<path d="M118.242 202.287C130.414 198.469 141.512 191.831 150.633 182.911C159.753 173.992 166.638 163.045 170.727 150.961L94 125L118.242 202.287Z" fill="#3F3C3F"/>
<path d="M170.719 99.0153C173.557 107.394 175.003 116.181 175 125.027L94 125L170.719 99.0153Z" fill="#474747"/>
<path d="M170.719 150.985C173.557 142.606 175.003 133.819 175 124.973L94 125L170.719 150.985Z" fill="#3F403F"/>
</g>
<rect x="59" y="81" width="70" height="88" rx="35" fill="#C5C3C5"/>
<mask id="mask1_41_2164" style="mask-type:alpha" maskUnits="userSpaceOnUse" x="59" y="81" width="70" height="88">
<path d="M59 116C59 96.67 74.67 81 94 81C113.33 81 129 96.67 129 116V134C129 153.33 113.33 169 94 169C74.67 169 59 153.33 59 134V116Z" fill="#C5C3C5"/>
</mask>
<g mask="url(#mask1_41_2164)">
<path d="M94 81C89.5292 81 85.0845 81.6814 80.8191 83.0207L94 125V81Z" fill="#656665"/>
<path d="M94 169C89.5292 169 85.0845 168.319 80.8191 166.979L94 125V169Z" fill="#5A5B5D"/>
<path d="M80.8314 83.0168C74.2195 85.0907 68.1909 88.697 63.2365 93.542C58.2822 98.3869 54.5422 104.334 52.3212 110.898L94 125L80.8314 83.0168Z" fill="#6B6C6D"/>
<path d="M80.8314 166.983C74.2195 164.909 68.1909 161.303 63.2365 156.458C58.2822 151.613 54.5422 145.666 52.3212 139.102L94 125L80.8314 166.983Z" fill="#545654"/>
<path d="M52.3255 110.885C50.784 115.436 49.9984 120.209 50 125.015L94 125L52.3255 110.885Z" fill="#656668"/>
<path d="M52.3255 139.115C50.784 134.564 49.9984 129.791 50 124.985L94 125L52.3255 139.115Z" fill="#5A5A5D"/>
<path d="M94 81C98.4708 81 102.915 81.6814 107.181 83.0207L94 125V81Z" fill="#C3C3C6"/>
<path d="M94 169C98.4708 169 102.915 168.319 107.181 166.979L94 125V169Z" fill="#6A6A6A"/>
<path d="M107.169 83.0168C113.781 85.0907 119.809 88.697 124.763 93.542C129.718 98.3869 133.458 104.334 135.679 110.898L94 125L107.169 83.0168Z" fill="#949394"/>
<path d="M107.169 166.983C113.781 164.909 119.809 161.303 124.763 156.458C129.718 151.613 133.458 145.666 135.679 139.102L94 125L107.169 166.983Z" fill="#636463"/>
<path d="M135.674 110.885C137.216 115.436 138.002 120.209 138 125.015L94 125L135.674 110.885Z" fill="#79797A"/>
<path d="M135.674 139.115C137.216 134.564 138.002 129.791 138 124.985L94 125L135.674 139.115Z" fill="#6A6A6A"/>
</g>
</svg>
