<svg width="200" height="244" viewBox="0 0 200 244" fill="none" xmlns="http://www.w3.org/2000/svg">
<path d="M100 0L186.489 88.8515C204.504 107.358 204.504 136.642 186.489 155.148L100 244V0Z" fill="#555754"/>
<path d="M100 0L13.5107 88.8515C-4.50357 107.358 -4.50356 136.642 13.5107 155.148L100 244V0Z" fill="#484D50"/>
<mask id="mask0_41_2160" style="mask-type:alpha" maskUnits="userSpaceOnUse" x="43" y="53" width="114" height="138">
<path d="M149.271 103.105L100 53L50.7289 103.105C40.4237 113.585 40.4237 130.415 50.7289 140.895L100 191L149.271 140.895C159.576 130.415 159.576 113.585 149.271 103.105Z" fill="#ADB2AF"/>
</mask>
<g mask="url(#mask0_41_2160)">
<path d="M202.285 84.3329C196.661 69.0622 187.69 55.2444 176.029 43.8937C164.368 32.5429 150.314 23.9471 134.897 18.7372L100 122L202.285 84.3329Z" fill="#C5C9C7"/>
<path d="M99.8862 13C111.983 13 123.995 15.0136 135.431 18.9583L99.8862 122V13Z" fill="#B7BDBA"/>
<path d="M100 231C126.072 231 151.28 221.655 171.051 204.66C190.822 187.666 203.848 164.147 207.763 138.372L100 122V231Z" fill="#A5A9A8"/>
<path d="M209 122C209 108.986 206.67 96.078 202.119 83.886L100 122L209 122Z" fill="#B2B4B2"/>
<path d="M209 122C209 127.936 208.515 133.862 207.55 139.719L100 122L209 122Z" fill="#969A99"/>
<path d="M100 13C85.6859 13 71.512 15.8194 58.2875 21.2971C45.063 26.7749 33.0469 34.8038 22.9254 44.9254C12.8038 55.047 4.77489 67.063 -0.702873 80.2875C-6.18064 93.512 -9 107.686 -9 122L100 122V13Z" fill="#969999"/>
<path d="M100 231C73.6733 231 48.2362 221.472 28.3885 204.175C8.54072 186.879 -4.37636 162.984 -7.9762 136.904L100 122V231Z" fill="#8C908E"/>
<path d="M-9 122C-9 128.33 -8.44864 134.647 -7.35217 140.882L100 122L-9 122Z" fill="#848886"/>
</g>
<mask id="mask1_41_2160" style="mask-type:alpha" maskUnits="userSpaceOnUse" x="69" y="85" width="63" height="74">
<path d="M73.6654 111.613L100.279 85L126.892 111.613C132.628 117.35 132.628 126.65 126.892 132.387L100.279 159L73.6654 132.387C67.9289 126.65 67.9289 117.35 73.6654 111.613Z" fill="#8E938E"/>
</mask>
<g mask="url(#mask1_41_2160)">
<path d="M145.981 105.067C143.453 98.2023 139.42 91.9906 134.178 86.888C128.936 81.7853 122.618 77.9212 115.688 75.5791L100 122L145.981 105.067Z" fill="#A3A8A6"/>
<path d="M100 73C105.391 73 110.745 73.8896 115.846 75.6329L100 122V73Z" fill="#999D9B"/>
<path d="M100 171C106.435 171 112.807 169.733 118.751 167.27C124.696 164.808 130.098 161.198 134.648 156.648C139.198 152.098 142.808 146.696 145.27 140.751C147.733 134.807 149 128.435 149 122L100 122V171Z" fill="#7F8584"/>
<path d="M149 122C149 116.15 147.952 110.347 145.907 104.866L100 122L149 122Z" fill="#9FA4A1"/>
<path d="M100 73C93.5652 73 87.1935 74.2674 81.2485 76.7299C75.3036 79.1924 69.9018 82.8017 65.3518 87.3518C60.8017 91.9018 57.1924 97.3036 54.7299 103.249C52.2674 109.193 51 115.565 51 122L100 122V73Z" fill="#868A86"/>
<path d="M100 171C93.5652 171 87.1935 169.733 81.2485 167.27C75.3036 164.808 69.9018 161.198 65.3518 156.648C60.8017 152.098 57.1924 146.696 54.7299 140.751C52.2674 134.807 51 128.435 51 122L100 122V171Z" fill="#777977"/>
</g>
</svg>
